<?xml version="1.0" encoding="UTF-8" standalone="no"?>
<!-- Created with Inkscape (http://www.inkscape.org/) -->

<svg
   xmlns:dc="http://purl.org/dc/elements/1.1/"
   xmlns:cc="http://creativecommons.org/ns#"
   xmlns:rdf="http://www.w3.org/1999/02/22-rdf-syntax-ns#"
   xmlns:svg="http://www.w3.org/2000/svg"
   xmlns="http://www.w3.org/2000/svg"
   xmlns:sodipodi="http://sodipodi.sourceforge.net/DTD/sodipodi-0.dtd"
   xmlns:inkscape="http://www.inkscape.org/namespaces/inkscape"
   width="152.42911"
   height="152.2681"
   id="svg5475"
   version="1.1"
   inkscape:version="0.48.4 r9939"
   sodipodi:docname="Logo-Inv.svg">
  <defs
     id="defs5477" />
  <sodipodi:namedview
     id="base"
     pagecolor="#ffffff"
     bordercolor="#666666"
     borderopacity="1.0"
     inkscape:pageopacity="0.0"
     inkscape:pageshadow="2"
     inkscape:zoom="0.35"
     inkscape:cx="-85.214016"
     inkscape:cy="-81.008793"
     inkscape:document-units="px"
     inkscape:current-layer="layer1"
     showgrid="false"
     fit-margin-top="0"
     fit-margin-left="0"
     fit-margin-right="0"
     fit-margin-bottom="0"
     inkscape:window-width="590"
     inkscape:window-height="417"
     inkscape:window-x="412"
     inkscape:window-y="155"
     inkscape:window-maximized="0" />
  <metadata
     id="metadata5480">
    <rdf:RDF>
      <cc:Work
         rdf:about="">
        <dc:format>image/svg+xml</dc:format>
        <dc:type
           rdf:resource="http://purl.org/dc/dcmitype/StillImage" />
        <dc:title></dc:title>
      </cc:Work>
    </rdf:RDF>
  </metadata>
  <g
     inkscape:label="Ebene 1"
     inkscape:groupmode="layer"
     id="layer1"
     transform="translate(-435.21402,-299.08527)">
    <g
       id="g5632">
      <path
         id="path5170"
         d="m 559.24197,421.7584 c 0.2273,2.39504 -1.41394,3.8667 -2.6875,5.21875 0.0128,0.38431 0.65941,0.16192 0.46875,0.75 -0.21092,0.48409 -1.00355,0.39506 -0.90625,1.1875 1.0966,-0.7403 2.54047,-1.15387 2.84375,-2.6875 1.16765,-0.12304 1.6128,-0.9401 2.0625,-1.78125 -0.69666,-0.15059 -0.49084,0.58809 -1.1875,0.4375 -0.11841,-0.42765 -0.29227,-0.78666 -0.4375,-1.1875 0.62277,-0.43986 0.3821,-1.22401 0.28125,-1.9375 l -0.4375,0 z"
         style="fill:#d6130f;fill-opacity:1;fill-rule:evenodd;stroke:none"
         inkscape:connector-curvature="0" />
      <path
         id="path5167"
         d="m 543.61697,387.78965 c 0.0335,0.28168 -0.17515,0.35793 -0.15625,0.625 0.72362,0.1205 0.81407,0.87321 1.34375,1.1875 0.19692,-0.002 0.11949,-0.2757 0.28125,-0.3125 -0.33336,-0.65957 -0.61926,-1.35655 -1.46875,-1.5 z"
         style="fill:#d6130f;fill-opacity:1;fill-rule:evenodd;stroke:none"
         inkscape:connector-curvature="0" />
      <path
         id="path5164"
         d="m 531.99198,390.47715 c 0.15104,0.84606 -0.132,1.26673 -0.4375,1.65625 0.0387,1.37932 -0.47771,2.2131 -0.90625,3.125 0.30461,2.34007 -0.38062,3.67767 -1.03125,5.0625 -0.79632,-0.25025 -0.64173,0.43706 -1.1875,0.4375 -0.39562,-0.49796 -1.59697,-0.1971 -1.34375,-1.34375 l -1.1875,0 c -0.94079,-1.39258 -3.13857,-1.52807 -4.03125,-2.96875 0.82461,-0.9128 1.07669,-2.40451 2.09375,-3.125 0.16609,-0.66254 -0.41585,-0.61877 -0.46875,-1.0625 -2.10338,0.76503 -4.37275,-0.67006 -6.6875,-1.3125 -0.16519,0.81061 0.8203,0.47177 0.75,1.1875 -0.54205,0.94733 -2.50787,0.47148 -3.4375,1.03125 l 0,1.1875 c -0.0764,0.0744 -0.18335,0.13463 -0.3125,0.15625 3.31401,12.56974 9.74564,23.8878 18.40625,33.0625 l 0.6875,0 c 0.2997,-1.33844 2.56822,-0.69982 3.56249,-1.34375 l 0,-1.1875 c 0.48976,-0.007 0.36896,-0.63455 0.90625,-0.59375 0.0705,-1.26983 1.06433,-1.62648 1.78125,-2.25 0.1,-1.09154 0.68971,-1.68135 1.78125,-1.78125 -0.10277,-0.8474 0.39459,-1.11063 0.90625,-1.34375 0.35913,-1.27907 0.74959,-2.51845 1.78125,-3.125 -0.22656,-2.01386 0.2449,-3.31169 0.4375,-4.90625 -0.87288,-1.06323 -2.13445,-1.7107 -2.21875,-3.5625 -0.37268,-0.32234 -1.01173,-0.38684 -1.34375,-0.75 0.2276,-1.17093 -0.77365,-1.15802 -0.46875,-2.40625 -1.12192,-0.61563 -2.23932,-1.21063 -3.125,-2.0625 0.42408,-2.7077 -1.36119,-3.19894 -0.875,-5.96875 -0.57347,-0.56855 -1.97248,-0.32327 -2.24999,-1.1875 0.12602,-1.96307 -0.62297,-3.04013 -0.875,-4.625 l -0.90625,0 z"
         style="fill:#d6130f;fill-opacity:1;fill-rule:evenodd;stroke:none"
         inkscape:connector-curvature="0" />
      <path
         id="path5143"
         d="m 577.46072,337.1334 c -0.33657,0.57379 -0.68035,1.15458 -1.03125,1.71875 1.27557,2.32136 2.46571,4.73314 3.53125,7.25 4.3739,10.33029 6.62654,22.36052 5.65625,36.78125 -0.62888,9.34748 -3.86364,18.31714 -7.59375,25.78125 -6.73512,13.47716 -17.05444,24.26982 -30.21875,31.59375 0.55938,0.34519 1.11873,0.70012 1.6875,1.03125 9.9919,-5.82013 18.56465,-13.8347 25.03125,-23.375 0.4619,-0.68145 0.90343,-1.36565 1.34375,-2.0625 0.45272,-0.71648 0.88311,-1.45525 1.3125,-2.1875 1.73344,-3.02666 3.31772,-6.22979 4.71875,-9.625 1.40628,-3.40783 2.63446,-7.05672 3.59375,-10.9375 0.15988,-0.6468 0.29325,-1.27694 0.4375,-1.9375 0.14425,-0.66056 0.27855,-1.32549 0.40625,-2 0.11612,-0.61335 0.24203,-1.24998 0.34375,-1.875 0.0101,-0.0621 0.0213,-0.12532 0.0312,-0.1875 0.092,-0.57503 0.17072,-1.165 0.25,-1.75 0.0652,-0.47935 0.13121,-0.95537 0.1875,-1.4375 0.44984,-3.89617 0.6133,-7.99706 0.40625,-12.34375 -0.64136,-13.46888 -4.5092,-24.89648 -10.09375,-34.4375 z"
         style="fill:#d6130f;fill-opacity:1;fill-rule:evenodd;stroke:none"
         inkscape:connector-curvature="0" />
      <path
         sodipodi:nodetypes="cccc"
         inkscape:connector-curvature="0"
         id="path4625"
         d="m 511.30453,377.07085 c -0.11859,0.0884 -0.22157,0.19642 -0.3125,0.3125 0.092,0.0729 0.20758,0.0764 0.3125,0.0937 z"
         style="fill:#ffcf00;fill-opacity:1;fill-rule:evenodd" />
      <path
         sodipodi:nodetypes="ccc"
         inkscape:connector-curvature="0"
         id="path5153"
         d="m 511.30448,377.0709 c 0.004,0.13448 -0.004,0.27194 0,0.40625 1.25797,-0.44676 1.14548,-0.9549 0,-0.40625 z"
         style="fill:#d6130f;fill-opacity:1;fill-rule:evenodd;stroke:none" />
      <path
         id="path5146"
         d="m 512.46073,377.91465 c -0.40614,-0.0102 -0.79127,0.0648 -1.125,0.1875 0.02,0.49054 0.0646,0.98063 0.0937,1.46875 0.21191,-0.22499 0.34275,-0.53296 0.75,-0.5625 0.95481,0.35123 1.87257,-0.045 2.84375,0.75 0.36373,-1.05627 -1.17399,-1.80889 -2.5625,-1.84375 z"
         style="fill:#d6130f;fill-opacity:1;fill-rule:evenodd;stroke:none"
         inkscape:connector-curvature="0" />
      <path
         sodipodi:nodetypes="ccccc"
         inkscape:connector-curvature="0"
         id="path4556"
         d="m 511.33573,378.10215 c -0.35085,0.129 -0.62449,0.32576 -0.78125,0.625 0.62293,0.33202 -0.0188,0.48861 0,1.03125 0.48864,0.13118 0.70162,-0.003 0.875,-0.1875 -0.0292,-0.48812 -0.0937,-1.46875 -0.0937,-1.46875 z"
         style="fill:#ffcf00;fill-opacity:1;fill-rule:evenodd" />
      <path
         id="path3771"
         d="m 518.02323,374.8209 c -1.14613,0.10093 -2.30866,0.16881 -3.46875,0.21875 -0.30741,1.58865 1.88639,0.6766 2.25,1.59375 0.0572,0.50407 -0.64991,0.24698 -0.4375,0.90625 1.03225,0.24206 1.89209,-0.3287 2.21875,-0.3125 -0.11752,0.87526 -1.54829,0.42753 -1.78125,1.1875 1.04298,-4.5e-4 1.49479,0.58768 1.34375,1.78125 1.37395,-0.57974 2.41286,-0.36674 3.40625,0.46875 2.95897,0.31772 5.18642,1.38078 5.53125,4.3125 -0.9551,0.13719 -1.57389,0.61494 -1.34375,1.9375 2.34662,-0.43629 3.98631,-0.53382 4.90625,1.34375 1.50057,0.16028 2.57446,-0.14774 3.59375,-0.46875 -0.26186,-0.95702 0.6727,-0.69463 0.4375,-1.625 1.16034,-0.81121 2.38292,0.0481 3.56249,0.4375 0.27422,1.31437 1.23279,1.95985 1.78125,3 l 2.53125,0 c 0.31831,0.47606 0.55414,1.02649 1.5,0.875 -0.28942,-1.54764 -1.38251,-2.28058 -2.6875,-2.8125 0.23535,-0.93037 -0.6995,-0.69922 -0.4375,-1.65625 -0.36732,0.0197 -0.73019,0.015 -0.90625,-0.15625 0.27214,-0.86781 -0.56321,-0.59127 -0.4375,-1.3125 0.0165,-0.38061 0.51137,-0.3105 0.90625,-0.3125 0.0314,-1.57043 -1.52387,-1.56198 -2.6875,-1.9375 l 0,-1.1875 c -1.09631,-0.691 -2.41389,-1.17395 -3.12499,-2.25 -1.94266,0.056 -3.08615,-0.65233 -4.3125,-1.3125 -2.2653,0.18024 -3.20503,-0.99102 -4.46875,-1.8125 -1.01423,1.21964 -2.62004,1.8647 -3.59375,3.125 -0.4214,-0.0256 -1.01025,0.14461 -1.03125,-0.28125 l 0,-1.03125 c -0.21644,-0.0815 -0.7752,0.16669 -0.75,-0.15625 -0.11097,-0.45847 0.42347,-0.29151 0.3125,-0.75 -0.7123,-0.18127 -0.33232,-1.46159 -0.90625,-1.78125 -0.52845,-0.0243 -1.05573,-0.0418 -1.5625,-0.0312 -0.11839,0.002 -0.22732,-0.004 -0.34375,0 z"
         style="fill:#d6130f;fill-opacity:1;fill-rule:evenodd;stroke:none"
         inkscape:connector-curvature="0" />
      <path
         id="path5141"
         d="m 513.58573,375.0709 c -0.16439,0.60788 0.21381,1.18668 0.0937,2 l 1.34375,0 c -0.13196,-0.84541 -1.09445,-0.86556 -0.9375,-2 -0.16659,0.006 -0.33314,-0.005 -0.5,0 z"
         style="fill:#d6130f;fill-opacity:1;fill-rule:evenodd;stroke:none"
         inkscape:connector-curvature="0" />
      <path
         id="path5129"
         d="m 446.27323,411.35215 c -0.37738,0.60843 -0.76429,1.22418 -1.125,1.84375 1.24717,2.14112 2.58963,4.21576 4.03125,6.21875 0.48054,0.66766 0.96756,1.31739 1.46875,1.96875 0.50119,0.65136 1.00988,1.30293 1.53125,1.9375 0.24612,0.29543 0.49994,0.58373 0.75,0.875 0.28214,0.33313 0.55607,0.67179 0.84375,1 0.29754,0.3352 0.60362,0.67034 0.90625,1 0.76481,0.83311 1.54808,1.6388 2.34375,2.4375 0.79567,0.7987 1.61339,1.60935 2.4375,2.375 0.50187,0.46366 1.01712,0.92472 1.53125,1.375 0.48096,0.4243 0.97126,0.83222 1.46875,1.25 0.24861,0.20689 0.49875,0.42121 0.75,0.625 0.40724,0.33353 0.80081,0.67154 1.21875,1 0.6777,0.52729 1.36692,1.02647 2.0625,1.53125 0.65392,0.47455 1.33075,0.95207 2,1.40625 0.0119,0.008 0.0193,0.0232 0.0312,0.0312 0.007,0.005 0.0241,-0.005 0.0312,0 0.67437,0.45676 1.34181,0.90812 2.03125,1.34375 10.4194,6.58368 22.52004,10.72211 35.53125,11.625 0.0416,0.003 0.0833,-0.003 0.125,0 0.10292,0.006 0.20934,0.0254 0.3125,0.0312 2.73711,0.15523 5.56593,0.16948 8.46875,0.0312 2.93247,-0.13964 5.75103,-0.40979 8.46875,-0.8125 0.67943,-0.10068 1.33355,-0.2275 2,-0.34375 0.44765,-0.0781 0.90188,-0.16502 1.34375,-0.25 0.21803,-0.0442 0.4389,-0.0789 0.65625,-0.125 8.0009,-1.69594 15.53479,-4.64952 22.40624,-8.625 -0.02,-0.0116 -0.0425,-0.0197 -0.0625,-0.0312 -0.11676,0.0688 -0.22659,0.15051 -0.34375,0.21875 -0.56856,-0.33101 -1.12832,-0.68619 -1.6875,-1.03125 -0.99135,0.55154 -1.97635,1.08219 -3,1.59375 -11.50449,5.74934 -24.75252,8.71505 -40.96874,7.625 -9.27465,-0.62337 -18.40878,-3.9561 -25.75,-7.625 -13.44849,-6.72082 -24.51636,-17.26587 -31.8125,-30.5 z"
         style="fill:#ffcf00;fill-opacity:1;fill-rule:evenodd;stroke:none"
         inkscape:connector-curvature="0" />
      <path
         id="path5132"
         d="m 529.89823,429.7584 c -0.1742,-0.0119 -0.36574,-0.0106 -0.59375,0.0312 -0.24056,1.06637 0.62158,1.49004 0,2.09375 1.15961,1.30857 3.9575,0.005 3.59375,-2.09375 -0.9119,-0.16742 -1.3506,0.18603 -1.8125,0.46875 -0.34654,-0.21204 -0.6649,-0.46417 -1.1875,-0.5 z"
         style="fill:#ffcf00;fill-opacity:1;fill-rule:evenodd;stroke:none"
         inkscape:connector-curvature="0" />
      <path
         id="path5126"
         d="m 513.80448,394.47715 c -0.1701,0.0298 -0.3512,0.0425 -0.5625,0.0312 -0.0671,1.02853 -0.75684,1.25174 -0.15625,2.21875 -1.16229,0.25367 -1.1479,-0.79247 -1.9375,-0.125 -0.68654,-0.45521 -1.02412,-1.2715 -1.78125,-1.65625 -1.83169,0.45178 -2.92883,1.66239 -4.1875,2.6875 -0.0719,0.46905 0.47174,0.3499 0.3125,0.90625 l -1.1875,0 c -0.0942,0.50138 0.18455,1.37014 -0.15625,1.625 -0.55158,-0.0938 -0.8358,-0.45628 -0.75,-1.1875 -0.84278,-0.0979 -0.6246,0.8495 -1.34375,0.875 l 0,1.65625 c -1.05416,0.96954 -2.03973,3.30239 -4.03125,2.375 -0.59254,0.64855 -1.79244,0.68523 -2.53125,1.1875 -0.26484,-0.13242 -0.35992,-0.39907 -0.875,-0.28125 -1.12923,0.75759 -2.21325,1.55649 -3.125,2.53125 -0.42316,0.0261 0.15805,-0.97969 -0.46875,-0.75 -0.60861,0.60178 0.36,2.84898 -0.59375,3.4375 0.50331,0.98593 1.46008,1.51943 1.65625,2.8125 l -0.75,0 c 0.61428,2.21555 2.53482,3.13549 2.6875,5.8125 1.29963,0.54472 1.62528,2.50983 0.875,3.875 0.77918,1.00813 2.42566,1.16218 4.34375,1.03125 0.94154,-0.61429 2.70186,-2.01912 4,-0.875 l 1.9375,0 c 1.05892,-1.57237 2.78068,-2.49428 5.65625,-2.25 0.75073,-0.47486 2.33301,-1.34895 3.125,-0.4375 0.78797,0.24175 0.46224,-0.61668 1.1875,-0.4375 0.87242,0.51747 1.81569,0.9505 3.28125,0.875 0.0526,1.48642 1.82129,1.26471 1.5,3.125 1.6461,-0.15224 2.35002,-1.9691 3.5625,-2.0625 -0.24741,0.29865 -0.38136,0.66635 -0.875,0.71875 0.24414,0.98861 -0.43585,1.10079 -0.46875,1.8125 0.84219,-0.002 0.70369,-1.01484 1.65625,-0.90625 0.0626,0.60863 -0.5048,0.60539 -0.3125,1.34375 0.85336,-0.15819 0.97077,0.42782 1.34375,0.75 0,0.49647 -1.5e-4,0.97229 0,1.46875 0.32487,-0.027 0.49575,0.14388 0.46875,0.46875 1.72818,-0.13957 2.38979,0.77146 4.3125,0.4375 0.34825,-0.24756 0.34874,-0.8368 1.03125,-0.75 l 0,0.75 1.5625,0 c -8.67044,-9.18313 -15.09389,-20.50904 -18.40625,-33.0937 z"
         style="fill:#ffcf00;fill-opacity:1;fill-rule:evenodd;stroke:none"
         inkscape:connector-curvature="0" />
      <path
         id="path5123"
         d="m 509.02323,386.5709 c -0.47567,-0.0956 -1.34725,0.75118 -2.34375,0.34375 -0.55665,1.42922 -3.27959,0.7033 -2.84375,3.125 0.67536,-0.0694 0.77938,-0.69474 1.78125,-0.4375 0.63156,-1.45335 2.53468,-1.6615 3.75,-2.53125 -0.0589,-0.32196 -0.18519,-0.46812 -0.34375,-0.5 z"
         style="fill:#ffcf00;fill-opacity:1;fill-rule:evenodd;stroke:none"
         inkscape:connector-curvature="0" />
      <path
         id="path5114"
         d="m 478.21073,383.10215 c -0.49535,-0.0231 -0.84454,0.15666 -1.1875,0.96875 1.27981,0.83713 3.42519,2.41652 5.0625,1.5 0.39175,-0.0442 0.1153,0.56858 0.59375,0.4375 1.37931,-0.0389 2.24436,0.47771 3.15625,0.90625 1.38126,0.10814 3.2798,-0.3317 4,0.4375 0.53608,-0.90996 0.854,0.0833 1.78125,0 0.17155,-0.17606 0.17595,-0.50783 0.15625,-0.875 -1.00172,0.10814 -1.56616,-0.22777 -1.78125,-0.90625 -0.62948,-0.1649 -1.94793,0.33604 -2.09375,-0.3125 0.59194,-0.30179 1.73725,-0.0565 1.65625,-1.03125 -0.98147,-0.0879 -1.79941,-0.006 -2.25,0.4375 -0.94914,-0.3913 -1.74911,-0.9105 -3.125,-0.875 -0.0815,0.21643 0.16668,0.775 -0.15625,0.75 -1.22724,-0.41112 -2.9552,-0.34364 -3.71875,-1.21875 -0.95219,0.0249 -1.5984,-0.19566 -2.09375,-0.21875 z"
         style="fill:#ffcf00;fill-opacity:1;fill-rule:evenodd;stroke:none"
         inkscape:connector-curvature="0" />
      <path
         id="path5111"
         d="m 493.08573,377.1959 c -1.78133,0.43957 -3.52017,0.96961 -5.25,1.53125 1.05428,-0.10313 2.06423,0.19744 2.15625,1.46875 1.13682,-0.16862 1.74298,-0.76042 2.6875,0 -0.21841,-1.36927 0.23277,-2.02258 0.40625,-3 z"
         style="fill:#ffcf00;fill-opacity:1;fill-rule:evenodd;stroke:none"
         inkscape:connector-curvature="0" />
      <path
         id="path5108"
         d="m 502.64823,375.47715 c -1.96581,0.22655 -3.89491,0.5339 -5.8125,0.90625 -0.11411,0.86887 -0.41039,1.77111 -0.59375,2.9375 0.46593,0.0304 1.09664,-0.0931 1.34375,0.15625 0.27304,1.41507 -0.3704,1.89404 -0.4375,2.96875 l 1.78125,0 c 0.25024,-1.38796 -0.53875,-3.80679 0.4375,-4.46875 0.74596,0.49528 0.34634,2.1313 1.1875,2.53125 -0.0136,0.23474 -0.36315,0.10726 -0.28125,0.4375 0.23549,0.40992 0.74258,0.54951 0.875,1.0625 0.46921,0.072 0.34991,-0.47173 0.90625,-0.3125 l 0,0.75 0.90625,0 c -0.19438,-0.88941 0.21883,-1.17989 0.4375,-1.65625 -1.19953,-0.68712 -1.4805,-2.28923 -2.09375,-3.5625 0.48008,-0.36389 0.71707,-1.0013 1.0625,-1.5 0.0174,0.29299 0.97585,0.84934 1.03125,0.15625 0.0254,-0.41458 -0.92708,0.16004 -0.75,-0.40625 z"
         style="fill:#ffcf00;fill-opacity:1;fill-rule:evenodd;stroke:none"
         inkscape:connector-curvature="0" />
      <path
         id="path4929"
         d="m 521.86698,424.3834 c -0.33552,-0.003 -0.65147,0.0825 -0.59375,0.34375 0.11231,0.19812 1.45904,0.39753 1.34375,-0.125 -0.0561,-0.099 -0.41448,-0.21542 -0.75,-0.21875 z"
         style="fill:#ffcf00;fill-opacity:1;fill-rule:evenodd;stroke:none"
         inkscape:connector-curvature="0" />
      <path
         id="path5097"
         d="m 510.08573,370.3834 c -0.49963,1.71139 -0.68204,3.05289 -0.625,4.625 0.34449,-0.009 0.68564,0.005 1.03125,0 0.38282,-0.26534 0.5111,-0.77546 0.9375,-1 -0.0143,-0.92225 -0.0471,-1.83595 -0.0937,-2.75 -0.30777,0.0603 -0.29289,0.43348 -0.78125,0.3125 -0.0339,-0.62218 0.24205,-0.69953 0,-1.1875 l -0.46875,0 z m 1.25,0.875 c 0.0684,-0.0137 0.14083,-0.027 0.25,0 -0.10564,-0.0262 -0.18341,-0.0131 -0.25,0 z"
         style="fill:#2159d6;fill-opacity:1;fill-rule:evenodd"
         inkscape:connector-curvature="0" />
      <path
         id="path4926"
         d="m 507.99198,385.5084 c -0.33552,-0.003 -0.62022,0.0825 -0.5625,0.34375 0.11216,0.19796 1.45904,0.39754 1.34375,-0.125 -0.0561,-0.0991 -0.44573,-0.21544 -0.78125,-0.21875 z"
         style="fill:#ffcf00;fill-opacity:1;fill-rule:evenodd;stroke:none"
         inkscape:connector-curvature="0" />
      <path
         id="path4923"
         d="m 505.33573,386.41465 c -0.3355,-0.003 -0.65139,0.0825 -0.59375,0.34375 0.11216,0.19796 1.45904,0.36628 1.34375,-0.15625 -0.0561,-0.0991 -0.4145,-0.18419 -0.75,-0.1875 z"
         style="fill:#ffcf00;fill-opacity:1;fill-rule:evenodd;stroke:none"
         inkscape:connector-curvature="0" />
      <path
         id="path4920"
         d="m 506.67948,386.91465 c 0.16295,0.0666 0.31316,0.0848 0.46875,0.0937 -0.15815,-0.009 -0.30267,-0.0258 -0.46875,-0.0937 z m 0.46875,0.0937 c 0.15137,0.009 0.29552,-0.003 0.4375,-0.0312 -0.13853,0.0267 -0.28985,0.0392 -0.4375,0.0312 z m -1.25,2.09375 c -0.11485,0.14648 -0.20231,0.31833 -0.28125,0.5 0.0789,-0.18167 0.19838,-0.3535 0.3125,-0.5 -0.005,0.006 -0.0265,-0.006 -0.0312,0 z"
         style="fill:#ffcf00;fill-opacity:1;fill-rule:evenodd;stroke:none"
         inkscape:connector-curvature="0" />
      <path
         id="path4911"
         d="m 496.24198,386.4459 c -0.96833,-0.0333 -2.40501,0.91808 -2.96875,0.0312 -0.79736,-0.003 -1.05435,0.49519 -1.03125,1.3125 1.56194,-0.22373 3.15648,0.12957 4.90625,-0.4375 -0.12247,-0.67523 -0.4661,-0.89109 -0.90625,-0.90625 z"
         style="fill:#ffcf00;fill-opacity:1;fill-rule:evenodd;stroke:none"
         inkscape:connector-curvature="0" />
      <path
         id="path4917"
         d="m 497.14823,388.2584 c 0,0.29791 -1.4e-4,0.57709 0,0.875 1.3047,-0.26231 1.34795,0.76561 2.6875,0.46875 0.0979,-0.84263 -0.88065,-0.6246 -0.90625,-1.34375 l -1.78125,0 z"
         style="fill:#ffcf00;fill-opacity:1;fill-rule:evenodd;stroke:none"
         inkscape:connector-curvature="0" />
      <path
         id="path4914"
         d="m 498.83573,386.47715 c -0.38741,0.014 -0.69346,0.22649 -0.8125,0.875 1.35161,-0.16012 1.60596,0.76506 3.125,0.4375 l 0,-0.875 c -0.77745,0.0706 -1.66681,-0.46078 -2.3125,-0.4375 z"
         style="fill:#ffcf00;fill-opacity:1;fill-rule:evenodd;stroke:none"
         inkscape:connector-curvature="0" />
      <path
         id="path4908"
         d="m 509.46073,375.0084 c 0.0232,0.63964 0.0837,1.31006 0.1875,2.0625 0.78513,0.0901 1.20939,-0.18934 1.34375,-0.75 -0.23818,-0.457 -0.88745,-0.51125 -0.90625,-1.1875 0.15107,-0.0253 0.3021,-0.0528 0.40625,-0.125 -0.34561,0.005 -0.68676,-0.009 -1.03125,0 z"
         style="fill:#ffcf00;fill-opacity:1;fill-rule:evenodd;stroke:none"
         inkscape:connector-curvature="0" />
      <path
         id="path4901"
         d="m 478.21073,383.10215 c -0.49535,-0.0231 -0.84454,0.15666 -1.1875,0.96875 1.27981,0.83713 3.42519,2.41652 5.0625,1.5 0.39175,-0.0442 0.1153,0.56858 0.59375,0.4375 1.37931,-0.0389 2.24436,0.47771 3.15625,0.90625 1.38126,0.10814 3.2798,-0.3317 4,0.4375 0.53608,-0.90996 0.854,0.0833 1.78125,0 0.17155,-0.17606 0.17595,-0.50783 0.15625,-0.875 -1.00172,0.10814 -1.56616,-0.22777 -1.78125,-0.90625 -0.62948,-0.1649 -1.94793,0.33604 -2.09375,-0.3125 0.59194,-0.30179 1.73725,-0.0565 1.65625,-1.03125 -0.98147,-0.0879 -1.79941,-0.006 -2.25,0.4375 -0.94914,-0.3913 -1.74911,-0.9105 -3.125,-0.875 -0.0815,0.21643 0.16668,0.775 -0.15625,0.75 -1.22724,-0.41112 -2.9552,-0.34364 -3.71875,-1.21875 -0.95219,0.0249 -1.5984,-0.19566 -2.09375,-0.21875 z"
         style="fill:#ffcf00;fill-opacity:1;fill-rule:evenodd;stroke:none"
         inkscape:connector-curvature="0" />
      <path
         id="path4898"
         d="m 502.64823,375.47715 c -1.96581,0.22655 -3.89491,0.5339 -5.8125,0.90625 -0.11411,0.86887 -0.41039,1.77111 -0.59375,2.9375 0.46593,0.0304 1.09664,-0.0931 1.34375,0.15625 0.27304,1.41507 -0.3704,1.89404 -0.4375,2.96875 l 1.78125,0 c 0.25024,-1.38796 -0.53875,-3.80679 0.4375,-4.46875 0.74596,0.49528 0.34634,2.1313 1.1875,2.53125 -0.0136,0.23474 -0.36315,0.10726 -0.28125,0.4375 0.23549,0.40992 0.74258,0.54951 0.875,1.0625 0.46921,0.072 0.34991,-0.47173 0.90625,-0.3125 l 0,0.75 0.90625,0 c -0.19438,-0.88941 0.21883,-1.17989 0.4375,-1.65625 -1.19953,-0.68712 -1.4805,-2.28923 -2.09375,-3.5625 0.48008,-0.36389 0.71707,-1.0013 1.0625,-1.5 0.0174,0.29299 0.97585,0.84934 1.03125,0.15625 0.0254,-0.41458 -0.92708,0.16004 -0.75,-0.40625 z"
         style="fill:#ffcf00;fill-opacity:1;fill-rule:evenodd;stroke:none"
         inkscape:connector-curvature="0" />
      <path
         id="path4895"
         d="m 493.08573,377.1959 c -1.78133,0.43957 -3.52017,0.96961 -5.25,1.53125 1.05428,-0.10313 2.06423,0.19744 2.15625,1.46875 1.13682,-0.16862 1.74298,-0.76042 2.6875,0 -0.21841,-1.36927 0.23277,-2.02258 0.40625,-3 z"
         style="fill:#ffcf00;fill-opacity:1;fill-rule:evenodd;stroke:none"
         inkscape:connector-curvature="0" />
      <path
         id="path4887"
         d="m 494.24198,362.3209 c -0.44753,0.0739 -0.36528,0.707 -1.125,0.46875 0.12274,1.21487 -1.06595,1.09191 -1.03125,2.21875 l -0.75,0 c 0.0197,0.36717 0.0152,0.73019 -0.15625,0.90625 -2.46892,0.0702 -2.3192,2.65118 -4.3125,3.125 -0.55412,1.03449 -1.93632,1.22508 -2.53125,2.21875 -1.03553,0.29076 -0.84284,-0.63114 -1.78125,-0.4375 -0.37031,0.27511 -0.51866,0.80467 -1.0625,0.90625 -0.22015,1.85836 0.74344,2.52446 0.90625,4 0.39488,0.002 0.88955,-0.0681 0.90625,0.3125 -0.29985,1.24317 0.4734,1.39592 0.4375,2.375 l 2.09375,0 c 0.17156,0.17607 0.1447,0.53907 0.125,0.90625 0.47314,-0.28442 1.19039,-0.52678 1.875,-0.59375 1.71925,-0.55773 3.47989,-1.09408 5.25,-1.53125 0.066,-0.37177 0.11116,-0.79485 0.0312,-1.3125 0.52581,-0.11962 0.47623,-0.81584 1.34375,-0.59375 0.0642,-0.48202 -0.18129,-1.29145 0.3125,-1.34375 0.82223,-0.028 0.61822,0.96245 1.46875,0.90625 0.31191,-1.35444 -1.0162,-1.06627 -1.34375,-1.78125 -0.0444,-0.7893 1.16384,-0.34154 1.78125,-0.46875 0.27438,-1.2673 -0.81604,-1.12838 -1.3125,-1.625 0.29656,-1.28935 -0.43601,-1.57107 -0.75,-2.25 0.44186,-0.20377 0.15598,-1.105 0.4375,-1.46875 l 1.1875,0 c -0.25263,-1.0966 0.82065,-0.89793 0.90625,-1.65625 -0.56185,-0.48068 -0.82614,-1.25647 -2.09375,-1.03125 -0.0888,-0.85455 -0.8221,-1.07847 -0.59375,-2.25 -0.0902,-0.0157 -0.15482,-0.0106 -0.21875,0 z"
         style="fill:#2159d6;fill-opacity:1;fill-rule:evenodd;stroke:none"
         inkscape:connector-curvature="0" />
      <path
         id="path4884"
         d="m 464.08573,365.47715 c 0.0642,1.82245 1.0718,2.66684 2.21875,3.40625 0.58539,2.69116 3.51875,3.04852 3.59375,6.25 0.45208,0.59045 0.944,1.13835 0.875,2.25 0.42676,0.51657 0.85825,1.04228 0.90625,1.9375 0.36717,-0.0197 0.69893,-0.0152 0.875,0.15625 0.0773,1.8092 2.26701,1.50275 2.6875,2.96875 1.0832,-0.18946 1.60473,0.18919 2.25,0.4375 0.88241,-1.43012 -0.66432,-2.95567 0.59375,-4.3125 0.45849,-0.11097 0.29151,0.39208 0.75,0.28125 0.49721,-1.18404 -1.38633,-1.01864 -0.90625,-2.65625 -0.77233,-0.17666 -0.92147,0.26412 -1.34375,0.4375 -0.0719,0.46906 0.47173,0.34991 0.3125,0.90625 -1.38423,-0.30372 -1.01832,-2.35608 -2.53125,-2.53125 -0.12051,-0.71632 0.64425,-0.54133 0.4375,-1.34375 -0.32413,-1.11552 -1.61412,-1.28983 -1.9375,-2.40625 -1.42863,-0.60684 -3.19113,-0.86716 -3.4375,-2.65625 -1.6951,-0.0921 -1.71665,-1.8398 -2.65625,-2.6875 -0.91458,0.0707 -1.71868,0.0314 -2.09375,-0.4375 l -0.59375,0 z"
         style="fill:#2159d6;fill-opacity:1;fill-rule:evenodd;stroke:none"
         inkscape:connector-curvature="0" />
      <path
         id="path4881"
         d="m 464.08573,365.47715 c 0.0642,1.82245 1.0718,2.66684 2.21875,3.40625 0.58539,2.69116 3.51875,3.04852 3.59375,6.25 0.45208,0.59045 0.944,1.13835 0.875,2.25 0.42676,0.51657 0.85825,1.04228 0.90625,1.9375 0.36717,-0.0197 0.69893,-0.0152 0.875,0.15625 0.0773,1.8092 2.26701,1.50275 2.6875,2.96875 1.0832,-0.18946 1.60473,0.18919 2.25,0.4375 0.88241,-1.43012 -0.66432,-2.95567 0.59375,-4.3125 0.45849,-0.11097 0.29151,0.39208 0.75,0.28125 0.49721,-1.18404 -1.38633,-1.01864 -0.90625,-2.65625 -0.77233,-0.17666 -0.92147,0.26412 -1.34375,0.4375 -0.0719,0.46906 0.47173,0.34991 0.3125,0.90625 -1.38423,-0.30372 -1.01832,-2.35608 -2.53125,-2.53125 -0.12051,-0.71632 0.64425,-0.54133 0.4375,-1.34375 -0.32413,-1.11552 -1.61412,-1.28983 -1.9375,-2.40625 -1.42863,-0.60684 -3.19113,-0.86716 -3.4375,-2.65625 -1.6951,-0.0921 -1.71665,-1.8398 -2.65625,-2.6875 -0.91458,0.0707 -1.71868,0.0314 -2.09375,-0.4375 l -0.59375,0 z"
         style="fill:#2159d6;fill-opacity:1;fill-rule:evenodd;stroke:none"
         inkscape:connector-curvature="0" />
      <path
         id="path4878"
         d="m 449.49198,360.10215 c -0.15655,1.82931 -0.83981,3.14306 -0.59375,5.375 3.08783,0.52431 1.73698,-4.80272 0.59375,-5.375 z"
         style="fill:#2159d6;fill-opacity:1;fill-rule:evenodd;stroke:none"
         inkscape:connector-curvature="0" />
      <path
         id="path4875"
         d="m 473.49198,309.0084 c -7.02314,3.97596 -13.10342,8.86656 -18.0625,14.3125 -5.01435,5.50667 -9.71187,12.03599 -13.3125,19.6875 -0.034,0.0721 -0.06,0.14641 -0.0937,0.21875 -0.35653,0.77588 -0.7001,1.55418 -1.03125,2.34375 -0.28249,0.67356 -0.54883,1.34808 -0.8125,2.03125 -0.90222,2.33768 -1.70157,4.71433 -2.375,7.15625 -0.18562,0.68263 -0.36377,1.3655 -0.53125,2.0625 -0.0559,0.22721 -0.10238,0.4595 -0.15625,0.6875 -0.15884,0.69064 -0.32841,1.38906 -0.46875,2.09375 -0.009,0.0419 -0.0226,0.083 -0.0312,0.125 -1.16859,5.92229 -1.65035,12.33676 -1.28125,19.28125 0.45012,8.46841 2.02789,16.00765 4.46875,22.78125 0.0814,0.22588 0.13541,0.46335 0.21875,0.6875 0.005,0.0125 0.0265,0.0187 0.0312,0.0312 0.20084,0.53925 0.4131,1.06443 0.625,1.59375 0.12636,0.3106 0.24471,0.62893 0.375,0.9375 0.2889,0.68421 0.59826,1.35728 0.90625,2.03125 0.61409,1.34381 1.28085,2.66762 1.96875,3.96875 0.11975,0.2265 0.22182,0.46234 0.34375,0.6875 0.34192,0.62431 0.70454,1.23469 1.0625,1.84375 0.006,-0.0127 0.0243,-0.0192 0.0312,-0.0312 -0.0688,-0.11676 -0.15051,-0.22659 -0.21875,-0.34375 0.36151,-0.62094 0.74675,-1.234 1.125,-1.84375 -0.48641,-0.88228 -0.9537,-1.78195 -1.40625,-2.6875 -4.86233,-9.7297 -8.56581,-21.57386 -7.90625,-35.75 0.6061,-13.0283 3.59717,-22.81112 8.5,-32.03125 0.82119,0.17577 1.02083,-0.24015 1.625,-0.28125 0.0895,0.9034 -0.22567,2.20164 0.3125,2.65625 -0.44433,0.64795 -1.00858,1.18053 -0.75,2.53125 0.73836,0.1923 0.73512,-0.34375 1.34375,-0.28125 -0.25203,1.33672 -1.10079,2.09187 -0.90625,3.875 0.13048,0.47814 -0.3769,0.30686 -0.4375,0.59375 0.22462,4.19381 -0.50359,9.33516 0.4375,12.8125 1.57713,-0.55753 1.39398,-2.8776 2.6875,-3.71875 0.072,-2.65868 1.85466,-3.63359 1.34375,-6.875 0.46399,-0.52893 1.5122,-0.4636 1.5,-1.46875 0.79631,0.25024 0.64174,-0.46831 1.1875,-0.46875 0.61549,-2.11501 2.6941,-2.76307 3.71875,-4.46875 1.04909,0.20511 0.87174,-0.7844 1.625,-0.875 l 0,-1.1875 c 0.30908,-0.088 0.537,-0.28452 0.625,-0.59375 2.04618,0.20913 3.07484,-0.58825 4.3125,-1.1875 -0.006,1.39586 -0.12137,2.88755 1.1875,2.96875 0.14716,0.59404 -0.45982,0.43722 -0.3125,1.03125 1.03985,1.12415 0.13912,3.28754 0,4.625 1.68408,0.5903 2.23916,-1.2648 3.59375,-1.5 -0.57168,2.74612 1.26538,5.17233 0,7.15625 0.87988,1.3391 -0.79079,3.30337 -0.46875,5.5 0.0627,0.33461 0.80287,0.0186 0.90625,0.3125 0.17174,1.01988 0.57679,1.79424 1.34375,2.21875 -0.29895,1.24035 0.49647,2.67394 0,3.15625 0.0821,0.51374 0.55352,0.63191 0.90625,0.875 -0.0159,2.64708 2.89668,2.3472 3.5625,4.3125 0.40427,-0.0922 1.18541,0.21313 1.34375,-0.125 0.0542,-0.50085 -0.65794,-0.27005 -0.90625,-0.46875 0.17249,-1.41358 -0.3471,-2.0993 -0.875,-2.8125 l 0,-3.59375 c -1.19342,-0.84204 -1.65734,-2.43225 -3.59375,-2.53125 0.30223,-1.54332 -0.71038,-1.76728 -0.4375,-3.28125 -0.0626,-0.33461 -0.80288,0.0126 -0.90625,-0.28125 0.0445,-1.44471 0.77639,-2.20298 1.34375,-3.125 -0.10188,-1.24378 0.2364,-2.05921 0.90625,-2.53125 0.69026,-0.0946 0.3679,0.81764 0.4375,1.34375 1.17152,-0.2282 1.39545,0.50495 2.25,0.59375 l 0,1.46875 c 0.41901,0.22641 1.15846,0.13377 0.875,1.0625 0.46593,0.0304 1.09664,-0.0931 1.34375,0.15625 l 0,2.53125 c 0.96791,-0.86901 2.47687,-1.21747 2.84375,-2.6875 1.75409,-0.47992 3.05173,-1.43301 3.875,-2.84375 l 0,-4.59375 c -0.62352,-0.33352 -0.56663,-0.66362 -0.90625,-1.34375 -0.28763,-0.57585 -1.503,-1.17408 -1.78125,-1.65625 -0.0821,-0.1421 0.0956,-0.46222 0,-0.59375 -0.50108,-0.68921 -1.27521,-0.98644 -0.90625,-2.6875 1.67201,-0.86007 2.38279,-2.67904 4.78125,-2.8125 0.72317,0.36911 0.31657,1.8724 1.34375,1.9375 -0.89015,0.45028 -2.29233,0.36737 -2.53125,1.46875 -0.001,0.84531 0.68567,1.00161 1.03125,1.5 1.34521,-0.29313 1.64706,-1.62085 2.53125,-2.375 0.0279,-0.72288 -0.88205,-0.51661 -0.90625,-1.1875 0.68027,-1.20623 2.28372,-1.51727 3.875,-1.8125 1.3236,-1.41523 2.63615,-1.03604 4.9375,-1.3125 0.11335,-0.58167 0.4399,-0.92757 0.71875,-1.34375 2.25427,0.21882 1.91997,-2.1697 3.875,-2.25 -0.14431,-0.88497 0.16958,-1.30855 0.5625,-1.65625 -6.58395,-10.57737 -15.67989,-19.43182 -26.4375,-25.75 z"
         style="fill:#2159d6;fill-opacity:1;fill-rule:evenodd;stroke:none"
         inkscape:connector-curvature="0" />
      <path
         id="path4790"
         d="m 502.50317,336.42062 c -0.3697,1.76496 -0.96463,3.305 -1.93625,4.46803 -0.72408,-0.41767 -1.38692,-0.89685 -1.19149,-2.23401 1.28964,-0.49766 0.91786,-2.65676 3.12774,-2.23402 z"
         clip-rule="evenodd"
         inkscape:connector-curvature="0"
         style="opacity:0.36283186;fill-rule:evenodd" />
      <path
         id="path4792"
         d="m 504.58824,354.29291 c -0.71945,0.29955 0.54234,0.45953 0.14895,1.34029 -0.72124,0.12572 -0.47248,-0.71885 -1.34044,-0.44671 0.15312,-1.04134 0.31772,-1.11627 0,-2.08506 -0.56678,0.178 -1.56894,0.54666 -2.23417,0.14895 -0.18396,-0.48187 0.48187,-0.11395 0.29791,-0.59582 -0.34483,0.15179 -0.69339,0.2997 -0.74478,0.74463 -0.13047,0.47814 0.38625,0.30878 0.44687,0.59582 0.0542,0.64973 -0.2705,0.92098 -0.59581,1.19148 -0.76176,-0.33038 -0.99443,-1.18985 -1.19149,-2.08506 0.0904,-0.25725 0.70648,0.0113 0.74477,-0.29791 0.15297,-0.50034 -0.46325,-0.23193 -0.74477,-0.29791 -0.11097,-0.45833 0.40888,-0.28614 0.29791,-0.74463 0.025,-0.32293 -0.5282,-0.0675 -0.74477,-0.14895 -0.0658,-0.97669 -0.71856,-1.36651 -0.44687,-2.68088 0.36717,0.0197 0.71752,0.0225 0.89358,-0.14895 0,-0.84398 0,-1.68796 0,-2.53179 0.54383,-0.10158 0.67223,-0.6186 1.04268,-0.89372 0.93573,-0.0918 0.93707,0.75088 2.08506,0.44686 0,1.04253 0,2.08507 0,3.1276 -0.4412,0.20422 -0.76085,0.52998 -1.34044,0.59582 0,0.29791 0,0.59566 0,0.89357 0.053,0.39384 0.75893,0.13466 0.89373,0.44687 0.0807,0.57705 -0.86408,0.12869 -0.89373,0.59567 -0.1004,0.93811 1.3534,0.63573 1.4894,0.14895 0.39711,0.34751 1.0257,0.46355 1.63835,0.59567 -0.19647,1.0902 0.49348,1.29397 0.59582,2.08521 0.54606,0 1.09228,0 1.63834,0 -0.027,0.32487 0.12185,0.47382 0.44686,0.44672 0,0.59581 0,1.19148 0,1.7873 -0.2483,0 -0.49646,0 -0.74461,0 -0.11068,0.60714 0.48007,0.51271 0.29791,1.19149 -0.17607,0.17145 -0.52641,0.16861 -0.89358,0.14895 0.0664,-0.91383 -0.97133,-1.61913 -0.14896,-2.38297 -0.0596,-0.63559 -0.79408,-0.59612 -0.89372,-1.19149 z"
         clip-rule="evenodd"
         inkscape:connector-curvature="0"
         style="opacity:0.36283186;fill-rule:evenodd" />
      <path
         id="path4794"
         d="m 504.29033,358.16513 c 0.46905,0.0719 0.33723,-0.45699 0.89358,-0.29776 0.0831,0.3636 0.5763,0.31728 0.44686,0.89358 -1.6178,-0.37656 -1.82097,0.66121 -2.82984,0.89358 -0.37328,-0.22239 -0.81434,-0.377 -0.74463,-1.04253 0.0429,-0.55292 0.78798,-0.40353 0.74463,-1.04254 -0.25486,-0.3408 -1.13682,-0.0547 -1.63835,-0.14895 0.0694,-0.67536 0.70411,-0.78529 0.44686,-1.78731 1.80831,-0.46786 1.55256,1.12834 2.38298,1.63835 0.46905,0.0719 0.11156,-0.6828 0.44686,-0.74462 0.74448,0.20853 0.2781,1.3534 -0.14895,1.6382 z"
         clip-rule="evenodd"
         inkscape:connector-curvature="0"
         style="opacity:0.36283186;fill-rule:evenodd" />
      <path
         id="path4796"
         d="m 506.5245,358.31409 c 0.4622,-0.0155 0.42511,0.46861 1.04252,0.29791 -0.14046,0.78588 0.45417,0.83667 0.74478,1.19148 0.0247,0.86885 -0.18709,1.97424 0.44671,2.23402 -0.49765,0.49513 -0.36404,1.62167 -1.34044,1.63835 -0.0815,-0.21643 0.17398,-0.76979 -0.14896,-0.74477 -0.64854,0.14582 -0.13301,1.45573 -0.29791,2.08506 -1.33879,-0.0512 -1.96038,-0.8197 -2.68087,-1.48924 -0.11798,-0.51509 0.16549,-0.62889 0.29791,-0.89373 -0.0657,-0.43063 -0.314,-0.67894 -0.74463,-0.74463 -0.43077,0.25159 -1.02331,0.76236 -1.4894,0.14896 -0.46905,-0.0719 -0.11156,0.6828 -0.44686,0.74462 -1.20518,-1.24332 1.17451,-2.40069 2.38298,-2.68073 0,0.24816 0,0.49646 0,0.74462 0.55783,-0.0378 0.83251,-0.35898 1.34044,-0.44686 0,-0.24816 0,-0.49632 0,-0.74462 0.36717,0.0196 0.71751,0.0225 0.89357,-0.14895 1.6e-4,-0.39712 1.6e-4,-0.79438 1.6e-4,-1.19149 z"
         clip-rule="evenodd"
         inkscape:connector-curvature="0"
         style="opacity:0.36283186;fill-rule:evenodd" />
      <path
         id="path4812"
         d="m 509.65209,379.01622 c -0.10665,0.73732 -0.87168,0.81612 -1.78716,0.74477 -0.33216,-1.40002 1.40926,-1.72326 1.78716,-0.74477 z"
         clip-rule="evenodd"
         inkscape:connector-curvature="0"
         style="opacity:0.36283186;fill-rule:evenodd" />
      <path
         id="path4836"
         d="m 555.67333,428.46298 c -0.46489,1.62017 -2.50243,1.66784 -3.12759,3.12759 -1.11463,-0.0719 -1.85881,0.22641 -1.78731,1.34045 -1.50697,0.3119 -2.49215,2.13258 -4.02132,0.74462 0.97431,-0.66389 1.81114,-1.46541 2.82983,-2.08507 2.95794,-0.11991 3.05789,-3.09795 6.10639,-3.12759 z"
         clip-rule="evenodd"
         inkscape:connector-curvature="0"
         style="opacity:0.36283186;fill-rule:evenodd" />
      <path
         id="path4785"
         d="m 506.52323,358.3209 c 0,0.39711 1.6e-4,0.79038 0,1.1875 -0.17606,0.17145 -0.53908,0.17585 -0.90625,0.15625 l 0,0.75 c -0.50793,0.0879 -0.75467,0.3997 -1.3125,0.4375 l 0,-0.75 c -1.20847,0.28004 -3.61143,1.44418 -2.40625,2.6875 0.3353,-0.0618 -3e-4,-0.8219 0.46875,-0.75 0.46609,0.6134 1.03798,0.0953 1.46875,-0.15625 0.43063,0.0657 0.6843,0.31937 0.75,0.75 -0.13242,0.26484 -0.39923,0.39116 -0.28125,0.90625 0.72049,0.66954 1.31746,1.41755 2.65625,1.46875 0.1649,-0.62933 -0.33604,-1.91668 0.3125,-2.0625 0.32294,-0.025 0.0747,0.50232 0.15625,0.71875 0.9764,-0.0167 0.8461,-1.12987 1.34375,-1.625 -0.6338,-0.25978 -0.44405,-1.38115 -0.46875,-2.25 -0.29061,-0.35481 -0.89046,-0.40162 -0.75,-1.1875 -0.61741,0.1707 -0.56905,-0.29675 -1.03125,-0.28125 z"
         style="fill:#2159d6;fill-opacity:1;fill-rule:evenodd;stroke:none"
         inkscape:connector-curvature="0" />
      <path
         id="path4782"
         d="m 505.61698,371.72715 c -2.48352,1.65533 -7.1277,-1.62876 -7.71875,1.78125 l -0.75,0 c 0.006,0.45282 0.0647,0.99295 -0.46875,0.90625 0.2153,0.73926 0.24438,1.35145 0.15625,2 1.91688,-0.37203 3.84744,-0.67991 5.8125,-0.90625 0.005,-0.0215 -0.009,-0.0371 0,-0.0625 0.77636,-0.0179 0.77562,-0.83625 0.90625,-1.5 1.21219,0.21911 0.81649,-1.12807 2.0625,-0.875 l 0,-1.34375 z m -5.65625,1.34375 3.28125,0 c -0.20868,0.7841 -0.44927,1.52654 -1.1875,1.78125 -0.38429,-0.90638 -1.37371,-1.21045 -2.09375,-1.78125 z m 0.0937,0.84375 c 0.58942,0.009 1.09275,0.13859 1.09375,0.625 -0.35958,0.52223 -2.06788,0.34556 -2.65625,0.15625 l 0,-0.59375 c 0.32219,-0.0771 0.97308,-0.19685 1.5625,-0.1875 z"
         style="fill:#2159d6;fill-opacity:1;fill-rule:evenodd;stroke:none"
         inkscape:connector-curvature="0" />
      <path
         id="path3769"
         d="m 511.33573,371.2584 c 0.0466,0.91405 0.0794,1.82775 0.0937,2.75 0.21109,-0.10803 0.49051,-0.15913 0.90625,-0.0625 0.13421,-0.87883 -0.86755,-0.63785 -0.90625,-1.34375 -0.1299,-0.57675 0.67222,-0.22481 0.46875,-0.875 -0.0356,-0.21255 -0.2598,-0.27317 -0.3125,-0.46875 -0.10917,-0.027 -0.18162,-0.0137 -0.25,0 z"
         style="fill:#1ad127;fill-opacity:1;fill-rule:evenodd;stroke:none"
         inkscape:connector-curvature="0" />
      <path
         id="path4532"
         d="m 501.77323,336.3834 c -0.14937,0.0143 -0.25679,0.0483 -0.375,0.0937 0.11079,-0.049 0.22458,-0.0793 0.375,-0.0937 z m -0.375,0.0937 c -0.11988,0.0461 -0.21791,0.11608 -0.3125,0.1875 0.0939,-0.0709 0.20171,-0.13853 0.3125,-0.1875 z m -0.3125,0.1875 c -0.70318,0.53094 -0.82823,1.65636 -1.71875,2 -0.19543,1.33716 0.46342,1.80108 1.1875,2.21875 0.61396,-0.73492 1.08614,-1.62738 1.4375,-2.625 -0.29511,-0.5356 -0.59881,-1.06605 -0.90625,-1.59375 z"
         style="fill:#2159d6;fill-opacity:1;fill-rule:evenodd;stroke:none"
         inkscape:connector-curvature="0" />
      <path
         style="opacity:0.36283186;fill-rule:evenodd"
         inkscape:connector-curvature="0"
         clip-rule="evenodd"
         d="m 504.58824,354.29291 c -0.71945,0.29955 0.54234,0.45953 0.14895,1.34029 -0.72124,0.12572 -0.47248,-0.71885 -1.34044,-0.44671 0.15312,-1.04134 0.31772,-1.11627 0,-2.08506 -0.56678,0.178 -1.56894,0.54666 -2.23417,0.14895 -0.18396,-0.48187 0.48187,-0.11395 0.29791,-0.59582 -0.34483,0.15179 -0.69339,0.2997 -0.74478,0.74463 -0.13047,0.47814 0.38625,0.30878 0.44687,0.59582 0.0542,0.64973 -0.2705,0.92098 -0.59581,1.19148 -0.76176,-0.33038 -0.99443,-1.18985 -1.19149,-2.08506 0.0904,-0.25725 0.70648,0.0113 0.74477,-0.29791 0.15297,-0.50034 -0.46325,-0.23193 -0.74477,-0.29791 -0.11097,-0.45833 0.40888,-0.28614 0.29791,-0.74463 0.025,-0.32293 -0.5282,-0.0675 -0.74477,-0.14895 -0.0658,-0.97669 -0.71856,-1.36651 -0.44687,-2.68088 0.36717,0.0197 0.71752,0.0225 0.89358,-0.14895 0,-0.84398 0,-1.68796 0,-2.53179 0.54383,-0.10158 0.67223,-0.6186 1.04268,-0.89372 0.93573,-0.0918 0.93707,0.75088 2.08506,0.44686 0,1.04253 0,2.08507 0,3.1276 -0.4412,0.20422 -0.76085,0.52998 -1.34044,0.59582 0,0.29791 0,0.59566 0,0.89357 0.053,0.39384 0.75893,0.13466 0.89373,0.44687 0.0807,0.57705 -0.86408,0.12869 -0.89373,0.59567 -0.1004,0.93811 1.3534,0.63573 1.4894,0.14895 0.39711,0.34751 1.0257,0.46355 1.63835,0.59567 -0.19647,1.0902 0.49348,1.29397 0.59582,2.08521 0.54606,0 1.09228,0 1.63834,0 -0.027,0.32487 0.12185,0.47382 0.44686,0.44672 0,0.59581 0,1.19148 0,1.7873 -0.2483,0 -0.49646,0 -0.74461,0 -0.11068,0.60714 0.48007,0.51271 0.29791,1.19149 -0.17607,0.17145 -0.52641,0.16861 -0.89358,0.14895 0.0664,-0.91383 -0.97133,-1.61913 -0.14896,-2.38297 -0.0596,-0.63559 -0.79408,-0.59612 -0.89372,-1.19149 z"
         id="path4534" />
      <path
         style="opacity:0.36283186;fill-rule:evenodd"
         inkscape:connector-curvature="0"
         clip-rule="evenodd"
         d="m 504.29033,358.16513 c 0.46905,0.0719 0.33723,-0.45699 0.89358,-0.29776 0.0831,0.3636 0.5763,0.31728 0.44686,0.89358 -1.6178,-0.37656 -1.82097,0.66121 -2.82984,0.89358 -0.37328,-0.22239 -0.81434,-0.377 -0.74463,-1.04253 0.0429,-0.55292 0.78798,-0.40353 0.74463,-1.04254 -0.25486,-0.3408 -1.13682,-0.0547 -1.63835,-0.14895 0.0694,-0.67536 0.70411,-0.78529 0.44686,-1.78731 1.80831,-0.46786 1.55256,1.12834 2.38298,1.63835 0.46905,0.0719 0.11156,-0.6828 0.44686,-0.74462 0.74448,0.20853 0.2781,1.3534 -0.14895,1.6382 z"
         id="path4536" />
      <path
         style="fill:#ffcf00;fill-opacity:1;fill-rule:evenodd"
         inkscape:connector-curvature="0"
         clip-rule="evenodd"
         d="m 509.65209,379.01622 c -0.10665,0.73732 -0.87168,0.81612 -1.78716,0.74477 -0.33216,-1.40002 1.40926,-1.72326 1.78716,-0.74477 z"
         id="path4558" />
      <path
         style="opacity:0.36283186;fill-rule:evenodd"
         inkscape:connector-curvature="0"
         clip-rule="evenodd"
         d="m 555.67333,428.46298 c -0.46489,1.62017 -2.50243,1.66784 -3.12759,3.12759 -1.11463,-0.0719 -1.85881,0.22641 -1.78731,1.34045 -1.50697,0.3119 -2.49215,2.13258 -4.02132,0.74462 0.97431,-0.66389 1.81114,-1.46541 2.82983,-2.08507 2.95794,-0.11991 3.05789,-3.09795 6.10639,-3.12759 z"
         id="path4582" />
      <path
         id="path4771"
         d="m 501.77323,336.3834 c -0.30084,0.0289 -0.49964,0.1394 -0.6875,0.28125 0.30744,0.5277 0.61114,1.05815 0.90625,1.59375 0.20468,-0.58115 0.36391,-1.19406 0.5,-1.84375 -0.27623,-0.0528 -0.5149,-0.0508 -0.71875,-0.0312 z"
         style="fill:#1ad127;fill-opacity:1;fill-rule:evenodd;stroke:none"
         inkscape:connector-curvature="0" />
      <path
         id="path3767"
         d="m 502.21073,355.53965 c -0.16769,1.3e-4 -0.36771,0.0353 -0.59375,0.0937 0.25725,1.00202 -0.39935,1.10589 -0.46875,1.78125 0.50153,0.0942 1.40139,-0.18455 1.65625,0.15625 0.0434,0.63901 -0.7071,0.47833 -0.75,1.03125 -0.0697,0.66553 0.37672,0.84011 0.75,1.0625 1.00887,-0.23237 1.1947,-1.28281 2.8125,-0.90625 0.12944,-0.5763 -0.3544,-0.54265 -0.4375,-0.90625 -0.55635,-0.15923 -0.40595,0.3844 -0.875,0.3125 0.42705,-0.2848 0.86948,-1.41647 0.125,-1.625 -0.3353,0.0618 0.0316,0.79065 -0.4375,0.71875 -0.72662,-0.44626 -0.60742,-1.71968 -1.78125,-1.71875 z"
         style="fill:#2159d6;fill-opacity:1;fill-rule:evenodd;stroke:none"
         inkscape:connector-curvature="0" />
      <path
         id="path4779"
         d="m 500.42948,345.35215 c -0.37045,0.27512 -0.51867,0.80467 -1.0625,0.90625 l 0,2.53125 c -0.17606,0.17145 -0.50783,0.17595 -0.875,0.15625 -0.27169,1.31437 0.3717,1.67956 0.4375,2.65625 0.21657,0.0815 0.775,-0.16668 0.75,0.15625 0.11097,0.45849 -0.42347,0.29167 -0.3125,0.75 0.28152,0.066 0.90297,-0.21909 0.75,0.28125 -0.0383,0.30921 -0.6596,0.0553 -0.75,0.3125 0.19706,0.89521 0.42574,1.76337 1.1875,2.09375 0.32531,-0.2705 0.64795,-0.53777 0.59375,-1.1875 -0.0606,-0.28704 -0.56797,-0.11561 -0.4375,-0.59375 0.0514,-0.44493 0.40517,-0.59821 0.75,-0.75 0.18396,0.48187 -0.49646,0.11188 -0.3125,0.59375 0.66523,0.39771 1.68322,0.0217 2.25,-0.15625 0.31772,0.96879 0.15312,1.05241 0,2.09375 0.86796,-0.27214 0.62251,0.56322 1.34375,0.4375 0.39339,-0.88076 -0.8757,-1.0442 -0.15625,-1.34375 0.0996,0.59537 0.84665,0.55191 0.90625,1.1875 -0.82237,0.76384 0.1914,1.46117 0.125,2.375 0.36717,0.0197 0.73018,0.0464 0.90625,-0.125 0.18216,-0.67878 -0.39193,-0.58036 -0.28125,-1.1875 l 0.71875,0 0,-1.8125 c -0.32501,0.0271 -0.4645,-0.11263 -0.4375,-0.4375 l -1.625,0 c -0.10234,-0.79124 -0.79022,-1.00355 -0.59375,-2.09375 -0.61265,-0.13212 -1.25914,-0.24624 -1.65625,-0.59375 -0.136,0.48678 -1.6004,0.81311 -1.5,-0.125 0.0296,-0.46698 0.98695,-0.048 0.90625,-0.625 -0.1348,-0.31221 -0.85325,-0.0437 -0.90625,-0.4375 l 0,-0.875 c 0.57959,-0.0658 0.90255,-0.38953 1.34375,-0.59375 l 0,-3.15625 c -1.14799,0.30402 -1.12677,-0.5293 -2.0625,-0.4375 z"
         style="fill:#2159d6;fill-opacity:1;fill-rule:evenodd;stroke:none"
         inkscape:connector-curvature="0" />
      <path
         id="path4768"
         d="m 509.99198,299.10215 c -0.75578,0.0153 -1.5139,0.0572 -2.28125,0.0937 -5.46946,0.26053 -11.64092,1.11946 -16.6875,2.53125 -6.36259,1.77971 -12.21221,4.27002 -17.53125,7.28125 10.7572,6.31804 19.85376,15.17301 26.4375,25.75 0.52893,-0.46806 1.20664,-0.76518 1.21875,-1.75 1.49431,-0.14404 1.55155,-1.7476 2.25,-2.6875 -0.20854,-0.43689 -1.41645,0.12438 -1.625,-0.3125 -0.0982,-0.64438 1.03944,-0.0395 1.1875,-0.4375 0.55695,-2.2449 -1.57284,-1.80186 -1.34375,-3.71875 -0.37789,-0.41648 -0.87798,-0.70265 -1.1875,-1.1875 1.02063,-0.96523 1.96541,-2.01745 3.875,-2.09375 l 0,-0.75 c -0.49676,-0.34736 -1.78764,0.10038 -1.9375,-0.59375 -0.5626,0.28152 -1.09365,0.62487 -1.65625,0.90625 -0.46546,0.0681 -0.4668,-0.32354 -0.4375,-0.75 -0.4847,-0.25993 -1.29058,-0.2148 -1.1875,-1.0625 2.50958,0.22582 2.71274,-1.84735 5.0625,-1.78125 -0.25471,0.83743 -0.88392,1.30504 -1.1875,2.09375 1.17869,0.0249 2.50792,-1.835 4.46875,-1.03125 0.13466,0.73033 -0.13792,1.07876 -0.46875,1.34375 0.0946,0.8489 1.11676,0.75245 2.09375,0.71875 -0.31281,1.26939 -0.1101,1.84295 -0.28125,3.59375 1.60052,-0.0378 2.59403,-0.67402 4,-0.90625 0.26752,-2.45193 -0.71103,-3.63594 -2.21875,-4.3125 0.26066,-0.98041 1.59464,-0.88303 2.21875,-1.5 -0.0241,-1.46392 1.34972,-1.52313 2.09375,-2.21875 2.87408,1.6178 4.33653,-1.47751 6.25,-2.25 0.2355,-0.85678 0.77683,-1.41229 1.5,-1.78125 l 0,-2.96875 c 1.59158,0.39429 1.09921,2.85244 2.21875,3.71875 -0.17651,1.11374 -0.0729,1.70902 0.46875,2.375 -0.13108,0.9612 -1.46141,0.75895 -1.8125,1.5 0.95748,0.94586 1.21591,3.22752 0.46875,4.625 -0.56304,0.21554 -0.29092,-0.42391 -0.75,-0.3125 -0.55574,0.33098 0.38519,0.41187 0.15625,0.90625 -1.44441,-0.20347 -1.65658,0.8211 -2.84375,0.875 -0.32294,-0.025 -0.0747,0.53357 -0.15625,0.75 -1.18106,-0.64721 -2.06699,0.55485 -3.875,0.15625 -1.01126,0.97446 -2.29206,1.65972 -3.71875,2.21875 -0.12616,1.2679 0.86595,1.42988 0.90625,2.53125 0.3706,0.17562 0.83523,0.2437 1.03125,0.59375 1.02674,-0.0655 0.50752,-1.65034 1.1875,-2.0625 0.10755,-0.85217 -0.8577,-0.64783 -0.75,-1.5 l 1.0625,0 c 0.30476,0.24145 -0.0234,1.10229 0.28125,1.34375 0.92754,-0.0159 1.17857,-0.72215 2.40625,-0.4375 0.43704,-0.20869 -0.15563,-1.4477 0.28125,-1.65625 0.52044,0.47249 0.71725,1.28997 1.34375,1.65625 0.56424,-0.37909 1.2052,-0.69533 1.1875,-1.65625 1.24317,0.272 2.67233,0.55722 3.125,-0.4375 0.47502,-0.12765 0.46609,0.21775 0.75,0.28125 0.39175,0.0441 0.11515,-0.56843 0.59375,-0.4375 -0.26306,-2.09981 0.30954,-3.38481 0.90625,-4.625 -0.51464,-0.87556 -1.55481,-1.24249 -1.65625,-2.53125 0.7911,-0.0463 1.57744,-0.0408 1.8125,0.46875 0.73538,-0.2574 0.74038,-1.23529 2.0625,-0.90625 0.0815,-0.21658 -0.16683,-0.775 0.15625,-0.75 -0.41975,-0.67261 -1.56244,-0.62665 -2.6875,-0.59375 -0.11216,-0.88092 -1.3551,-0.58947 -1.46875,-1.46875 0.1275,-0.41856 0.77745,-0.3014 1.3125,-0.3125 0.0487,-0.84308 -0.74529,-0.80409 -1.3125,-1.03125 l 0,-1.0625 c 0.10337,-0.29391 0.8124,0.0533 0.875,-0.28125 l 0,-0.59375 c -1.74054,-0.29478 -1.48234,-2.57595 -2.8125,-3.28125 -0.59314,-0.0471 -0.41604,0.6942 -0.90625,0.75 -1.00068,-0.562 -2.12388,-1.06188 -3.28125,-0.3125 -0.15909,-0.55634 0.3843,-0.40595 0.3125,-0.875 -0.69532,-0.28823 -0.95528,0.59942 -1.34375,0.125 -0.17473,-0.7832 0.92953,-0.63563 1.625,-1.03125 0.82416,-0.46891 2.23678,-2.30925 3.4375,-0.90625 2.57438,-0.29061 4.16791,0.42345 6.40625,0.46875 0.38011,-0.16609 -0.0764,-1.15517 0.28125,-1.34375 l 1.5,0 c 0.0833,0.41335 0.51045,0.4618 0.59375,0.875 0.72526,0.1792 0.39969,-0.67925 1.1875,-0.4375 -0.23846,0.60564 -0.12218,1.56509 -1.1875,1.34375 -0.2206,2.91847 3.75864,3.01184 3.125,5.375 0.7251,-0.0197 0.73705,-0.76832 1.34374,-0.90625 -0.39622,-1.68706 1.27551,-1.3088 0.90625,-2.96875 -0.54459,-0.94482 -2.36859,-0.61076 -2.53124,-1.9375 1.08229,0.30223 0.92728,0.43182 1.93749,0 0.555,-0.1576 0.45495,0.30418 0.71875,0.4375 2.98549,-0.0606 7.7164,2.90533 10.28125,4.3125 12.34766,6.77448 21.94707,16.29023 28.65625,28.5 0.3509,-0.56417 0.69468,-1.14496 1.03125,-1.71875 -3.97559,-6.79212 -8.80217,-12.62732 -14.03125,-17.5312 -12.12016,-11.36648 -30.00818,-20.97477 -53.43749,-20.5 z"
         style="fill:#1ad127;fill-opacity:1;fill-rule:evenodd;stroke:none"
         inkscape:connector-curvature="0" />
      <path
         id="path5173"
         d="m 555.67947,428.47715 c -3.0485,0.0296 -3.16706,3.00509 -6.125,3.125 -1.01869,0.61966 -1.83819,1.39861 -2.8125,2.0625 1.52917,1.38796 2.52428,-0.40685 4.03125,-0.71875 -0.0715,-1.11404 0.66662,-1.41565 1.78125,-1.34375 0.62516,-1.45975 2.66011,-1.50483 3.125,-3.125 z"
         style="fill:#d6130f;fill-opacity:1;fill-rule:evenodd;stroke:none"
         inkscape:connector-curvature="0" />
    </g>
  </g>
</svg>
