<?xml version="1.0" encoding="UTF-8" standalone="no"?>
<!-- Created with Inkscape (http://www.inkscape.org/) -->

<svg
   xmlns:dc="http://purl.org/dc/elements/1.1/"
   xmlns:cc="http://creativecommons.org/ns#"
   xmlns:rdf="http://www.w3.org/1999/02/22-rdf-syntax-ns#"
   xmlns:svg="http://www.w3.org/2000/svg"
   xmlns="http://www.w3.org/2000/svg"
   xmlns:sodipodi="http://sodipodi.sourceforge.net/DTD/sodipodi-0.dtd"
   xmlns:inkscape="http://www.inkscape.org/namespaces/inkscape"
   width="263.24371"
   height="164.1785"
   id="svg5437"
   version="1.1"
   inkscape:version="0.48.4 r9939"
   sodipodi:docname="Neues Dokument 6">
  <defs
     id="defs5439" />
  <sodipodi:namedview
     id="base"
     pagecolor="#ffffff"
     bordercolor="#666666"
     borderopacity="1.0"
     inkscape:pageopacity="0.0"
     inkscape:pageshadow="2"
     inkscape:zoom="1.4"
     inkscape:cx="98.245932"
     inkscape:cy="62.460599"
     inkscape:document-units="px"
     inkscape:current-layer="layer1"
     showgrid="false"
     fit-margin-left="20"
     fit-margin-right="20"
     fit-margin-bottom="30"
     fit-margin-top="0"
     inkscape:window-width="1366"
     inkscape:window-height="715"
     inkscape:window-x="0"
     inkscape:window-y="26"
     inkscape:window-maximized="1" />
  <metadata
     id="metadata5442">
    <rdf:RDF>
      <cc:Work
         rdf:about="">
        <dc:format>image/svg+xml</dc:format>
        <dc:type
           rdf:resource="http://purl.org/dc/dcmitype/StillImage" />
        <dc:title></dc:title>
      </cc:Work>
    </rdf:RDF>
  </metadata>
  <g
     inkscape:label="Ebene 1"
     inkscape:groupmode="layer"
     id="layer1"
     transform="translate(-270.92393,-306.03125)">
    <path
       style="fill:#999999;stroke:none"
       d="m 307.08637,440.20974 17.67767,-33.33503 -33.84011,0 29.29443,-25.25381 -20.20306,-1.01016 35.35534,-15.15229 c 57.07362,-18.18275 97.27578,-10.6425 132.32999,0 15,3.39286 42.42641,16.16244 42.42641,16.16244 l -25.75889,-1.51523 c 15.35714,11.42857 29.7995,27.27412 29.7995,27.27412 l -33.33504,-1.01015 18.18275,33.84011 z"
       id="path6010"
       inkscape:connector-curvature="0"
       sodipodi:nodetypes="ccccccccccccc" />
    <path
       sodipodi:type="arc"
       style="fill:#000000;fill-opacity:0;stroke:#404040;stroke-width:1.301;stroke-miterlimit:4;stroke-opacity:1;stroke-dasharray:none;stroke-dashoffset:0"
       id="path5445"
       sodipodi:cx="402.85715"
       sodipodi:cy="589.50507"
       sodipodi:rx="234.28572"
       sodipodi:ry="234.28572"
       d="M 197.17933,477.3158 C 259.13975,363.72307 401.45369,321.86682 515.04642,383.82724 628.63914,445.78767 670.49539,588.10161 608.53497,701.69434 546.57455,815.28706 404.2606,857.14331 290.66788,795.18289 177.25929,733.3229 135.32284,591.33785 196.92262,477.78771"
       sodipodi:start="3.6409445"
       sodipodi:end="9.9218368"
       sodipodi:open="true" />
    <path
       style="fill:none;stroke:#404040;stroke-width:1.301;stroke-linecap:butt;stroke-linejoin:miter;stroke-miterlimit:4;stroke-opacity:1;stroke-dasharray:none"
       d="m 402.14287,355.57648 0,465"
       id="path5447"
       inkscape:connector-curvature="0" />
    <path
       sodipodi:open="true"
       sodipodi:end="9.9218368"
       sodipodi:start="3.6409445"
       d="M 197.17933,477.3158 C 259.13975,363.72307 401.45369,321.86682 515.04642,383.82724 628.63914,445.78767 670.49539,588.10161 608.53497,701.69434 546.57455,815.28706 404.2606,857.14331 290.66788,795.18289 177.25929,733.3229 135.32284,591.33785 196.92262,477.78771"
       sodipodi:ry="234.28572"
       sodipodi:rx="234.28572"
       sodipodi:cy="589.50507"
       sodipodi:cx="402.85715"
       id="path5459"
       style="fill:#000000;fill-opacity:0;stroke:#404040;stroke-width:1.36708057;stroke-miterlimit:4;stroke-opacity:1;stroke-dasharray:none;stroke-dashoffset:0"
       sodipodi:type="arc"
       transform="matrix(0.90533943,0,0,1.0003568,38.134693,-0.21030503)" />
    <path
       transform="matrix(0.75707921,0,0,1.0009356,97.862388,-0.55150964)"
       sodipodi:type="arc"
       style="fill:#000000;fill-opacity:0;stroke:#404040;stroke-width:1.49452627;stroke-miterlimit:4;stroke-opacity:1;stroke-dasharray:none;stroke-dashoffset:0"
       id="path5461"
       sodipodi:cx="402.85715"
       sodipodi:cy="589.50507"
       sodipodi:rx="234.28572"
       sodipodi:ry="234.28572"
       d="M 197.17933,477.3158 C 259.13975,363.72307 401.45369,321.86682 515.04642,383.82724 628.63914,445.78767 670.49539,588.10161 608.53497,701.69434 546.57455,815.28706 404.2606,857.14331 290.66788,795.18289 177.25929,733.3229 135.32284,591.33785 196.92262,477.78771"
       sodipodi:start="3.6409445"
       sodipodi:end="9.9218368"
       sodipodi:open="true" />
    <path
       sodipodi:open="true"
       sodipodi:end="9.9218368"
       sodipodi:start="3.6409445"
       d="M 197.17933,477.3158 C 259.13975,363.72307 401.45369,321.86682 515.04642,383.82724 628.63914,445.78767 670.49539,588.10161 608.53497,701.69434 546.57455,815.28706 404.2606,857.14331 290.66788,795.18289 177.25929,733.3229 135.32284,591.33785 196.92262,477.78771"
       sodipodi:ry="234.28572"
       sodipodi:rx="234.28572"
       sodipodi:cy="589.50507"
       sodipodi:cx="402.85715"
       id="path5463"
       style="fill:#000000;fill-opacity:0;stroke:#404040;stroke-width:1.79129279;stroke-miterlimit:4;stroke-opacity:1;stroke-dasharray:none;stroke-dashoffset:0"
       sodipodi:type="arc"
       transform="matrix(0.52645764,0,0,1.0019776,190.76994,-1.1657503)" />
    <path
       transform="matrix(0.25372088,0,0,1.0035792,300.64391,-1.3956334)"
       sodipodi:type="arc"
       style="fill:#000000;fill-opacity:0;stroke:#404040;stroke-width:2.57824016;stroke-miterlimit:4;stroke-opacity:1;stroke-dasharray:none;stroke-dashoffset:0"
       id="path5465"
       sodipodi:cx="402.85715"
       sodipodi:cy="589.50507"
       sodipodi:rx="234.28572"
       sodipodi:ry="234.28572"
       d="M 197.17933,477.3158 C 259.13975,363.72307 401.45369,321.86682 515.04642,383.82724 628.63914,445.78767 670.49539,588.10161 608.53497,701.69434 546.57455,815.28706 404.2606,857.14331 290.66788,795.18289 177.25929,733.3229 135.32284,591.33785 196.92262,477.78771"
       sodipodi:start="3.6409445"
       sodipodi:end="9.9218368"
       sodipodi:open="true" />
    <path
       style="fill:none;stroke:#404040;stroke-width:1.301;stroke-linecap:butt;stroke-linejoin:miter;stroke-miterlimit:4;stroke-opacity:1;stroke-dasharray:none"
       d="m 168.57143,588.93361 468.57143,0 0,-0.71429"
       id="path5988"
       inkscape:connector-curvature="0" />
    <path
       inkscape:connector-curvature="0"
       id="path5990"
       d="m 176.14085,534.94033 453.43259,0 0,-0.72773"
       style="fill:none;stroke:#404040;stroke-width:1.301;stroke-linecap:butt;stroke-linejoin:miter;stroke-miterlimit:4;stroke-opacity:1;stroke-dasharray:none" />
    <path
       style="fill:none;stroke:#404040;stroke-width:1.301;stroke-linecap:butt;stroke-linejoin:miter;stroke-miterlimit:4;stroke-opacity:1;stroke-dasharray:none"
       d="m 194.81086,484.95815 416.09257,0 0,-0.76337"
       id="path5992"
       inkscape:connector-curvature="0" />
    <path
       inkscape:connector-curvature="0"
       id="path5994"
       d="m 223.56866,440.98969 358.57697,0 0,-0.82645"
       style="fill:none;stroke:#404040;stroke-width:1.301;stroke-linecap:butt;stroke-linejoin:miter;stroke-miterlimit:4;stroke-opacity:1;stroke-dasharray:none" />
    <path
       style="fill:none;stroke:#404040;stroke-width:1.301;stroke-linecap:butt;stroke-linejoin:miter;stroke-miterlimit:4;stroke-opacity:1;stroke-dasharray:none"
       d="m 255.85034,407.03289 294.01361,0 0,-0.91285"
       id="path5996"
       inkscape:connector-curvature="0" />
    <path
       inkscape:connector-curvature="0"
       id="path5998"
       d="m 296.68904,381.10537 212.33621,0 0,-1.05781"
       style="fill:none;stroke:#404040;stroke-width:1.301;stroke-linecap:butt;stroke-linejoin:miter;stroke-miterlimit:4;stroke-opacity:1;stroke-dasharray:none" />
    <path
       style="fill:none;stroke:#404040;stroke-width:1.301;stroke-linecap:butt;stroke-linejoin:miter;stroke-miterlimit:4;stroke-opacity:1;stroke-dasharray:none"
       d="m 336.98874,365.21178 131.73681,0 0,-1.27063"
       id="path6000"
       inkscape:connector-curvature="0" />
    <path
       transform="matrix(0.97220852,0,0,1.0001654,11.195998,-0.0974735)"
       sodipodi:type="arc"
       style="fill:#000000;fill-opacity:0;stroke:#404040;stroke-width:1.31935501;stroke-miterlimit:4;stroke-opacity:1;stroke-dasharray:none;stroke-dashoffset:0"
       id="path6002"
       sodipodi:cx="402.85715"
       sodipodi:cy="589.50507"
       sodipodi:rx="234.28572"
       sodipodi:ry="234.28572"
       d="M 197.17933,477.3158 C 259.13975,363.72307 401.45369,321.86682 515.04642,383.82724 628.63914,445.78767 670.49539,588.10161 608.53497,701.69434 546.57455,815.28706 404.2606,857.14331 290.66788,795.18289 177.25929,733.3229 135.32284,591.33785 196.92262,477.78771"
       sodipodi:start="3.6409445"
       sodipodi:end="9.9218368"
       sodipodi:open="true" />
    <g
       id="g6004"
       transform="matrix(0.98113314,0,0,1,9.5606717,0)">
      <rect
         style="fill:none;stroke:#000000;stroke-width:2.30699992;stroke-miterlimit:10;stroke-dasharray:none;stroke-dashoffset:0"
         id="rect2999"
         width="158.31635"
         height="115.6198"
         x="321.58011"
         y="307.17145" />
      <g
         id="g3001"
         transform="translate(-88.310619,-131.87815)">
        <path
           inkscape:connector-curvature="0"
           id="path3004"
           d="m 482.47539,490.38045 13.84642,13.84642"
           style="fill:none;stroke:#000000;stroke-width:3.38599992;stroke-linecap:butt;stroke-linejoin:miter;stroke-miterlimit:4;stroke-opacity:1;stroke-dasharray:none" />
        <path
           style="fill:none;stroke:#000000;stroke-width:3.38599992;stroke-linecap:butt;stroke-linejoin:miter;stroke-miterlimit:4;stroke-opacity:1;stroke-dasharray:none"
           d="m 496.32181,490.38045 -13.84642,13.84642"
           id="path3006"
           inkscape:connector-curvature="0" />
      </g>
    </g>
  </g>
</svg>
