<?xml version="1.0" encoding="UTF-8" standalone="no"?>
<!-- Created with Inkscape (http://www.inkscape.org/) -->

<svg
   xmlns:dc="http://purl.org/dc/elements/1.1/"
   xmlns:cc="http://creativecommons.org/ns#"
   xmlns:rdf="http://www.w3.org/1999/02/22-rdf-syntax-ns#"
   xmlns:svg="http://www.w3.org/2000/svg"
   xmlns="http://www.w3.org/2000/svg"
   xmlns:sodipodi="http://sodipodi.sourceforge.net/DTD/sodipodi-0.dtd"
   xmlns:inkscape="http://www.inkscape.org/namespaces/inkscape"
   width="199.11426"
   height="211.42857"
   id="svg5437"
   version="1.1"
   inkscape:version="0.48.4 r9939"
   sodipodi:docname="KachelnHorizont.svg">
  <defs
     id="defs5439" />
  <sodipodi:namedview
     id="base"
     pagecolor="#ffffff"
     bordercolor="#666666"
     borderopacity="1.0"
     inkscape:pageopacity="0.0"
     inkscape:pageshadow="2"
     inkscape:zoom="0.7"
     inkscape:cx="118.24105"
     inkscape:cy="35.327648"
     inkscape:document-units="px"
     inkscape:current-layer="layer1"
     showgrid="false"
     fit-margin-left="0"
     fit-margin-right="20"
     fit-margin-bottom="30"
     fit-margin-top="20"
     inkscape:window-width="1366"
     inkscape:window-height="715"
     inkscape:window-x="0"
     inkscape:window-y="26"
     inkscape:window-maximized="1" />
  <metadata
     id="metadata5442">
    <rdf:RDF>
      <cc:Work
         rdf:about="">
        <dc:format>image/svg+xml</dc:format>
        <dc:type
           rdf:resource="http://purl.org/dc/dcmitype/StillImage" />
        <dc:title></dc:title>
      </cc:Work>
    </rdf:RDF>
  </metadata>
  <g
     inkscape:label="Ebene 1"
     inkscape:groupmode="layer"
     id="layer1"
     transform="translate(-113.23824,-464.49546)">
    <path
       style="fill:#999999;stroke:none"
       d="m -78.571429,178.46421 100,0.71428 c -17.4999997,55 -12.4999997,142.5 -9.285714,160.71429 l -108.571429,0 c -15.357138,-62.85714 0.357143,-125.35714 17.857143,-161.42857 z"
       id="path6094"
       inkscape:connector-curvature="0"
       transform="translate(270.92393,306.03125)"
       sodipodi:nodetypes="ccccc" />
    <path
       sodipodi:type="arc"
       style="fill:#000000;fill-opacity:0;stroke:#404040;stroke-width:1.301;stroke-miterlimit:4;stroke-opacity:1;stroke-dasharray:none;stroke-dashoffset:0"
       id="path5445"
       sodipodi:cx="402.85715"
       sodipodi:cy="589.50507"
       sodipodi:rx="234.28572"
       sodipodi:ry="234.28572"
       d="M 197.17933,477.3158 C 259.13975,363.72307 401.45369,321.86682 515.04642,383.82724 628.63914,445.78767 670.49539,588.10161 608.53497,701.69434 546.57455,815.28706 404.2606,857.14331 290.66788,795.18289 177.25929,733.3229 135.32284,591.33785 196.92262,477.78771"
       sodipodi:start="3.6409445"
       sodipodi:end="9.9218368"
       sodipodi:open="true" />
    <path
       sodipodi:open="true"
       sodipodi:end="9.9218368"
       sodipodi:start="3.6409445"
       d="M 197.17933,477.3158 C 259.13975,363.72307 401.45369,321.86682 515.04642,383.82724 628.63914,445.78767 670.49539,588.10161 608.53497,701.69434 546.57455,815.28706 404.2606,857.14331 290.66788,795.18289 177.25929,733.3229 135.32284,591.33785 196.92262,477.78771"
       sodipodi:ry="234.28572"
       sodipodi:rx="234.28572"
       sodipodi:cy="589.50507"
       sodipodi:cx="402.85715"
       id="path5459"
       style="fill:#000000;fill-opacity:0;stroke:#404040;stroke-width:1.36708057;stroke-miterlimit:4;stroke-opacity:1;stroke-dasharray:none;stroke-dashoffset:0"
       sodipodi:type="arc"
       transform="matrix(0.90533943,0,0,1.0003568,38.134693,-0.21030503)" />
    <path
       transform="matrix(0.75707921,0,0,1.0009356,97.862388,-0.55150964)"
       sodipodi:type="arc"
       style="fill:#000000;fill-opacity:0;stroke:#404040;stroke-width:1.49452627;stroke-miterlimit:4;stroke-opacity:1;stroke-dasharray:none;stroke-dashoffset:0"
       id="path5461"
       sodipodi:cx="402.85715"
       sodipodi:cy="589.50507"
       sodipodi:rx="234.28572"
       sodipodi:ry="234.28572"
       d="M 197.17933,477.3158 C 259.13975,363.72307 401.45369,321.86682 515.04642,383.82724 628.63914,445.78767 670.49539,588.10161 608.53497,701.69434 546.57455,815.28706 404.2606,857.14331 290.66788,795.18289 177.25929,733.3229 135.32284,591.33785 196.92262,477.78771"
       sodipodi:start="3.6409445"
       sodipodi:end="9.9218368"
       sodipodi:open="true" />
    <path
       sodipodi:open="true"
       sodipodi:end="9.9218368"
       sodipodi:start="3.6409445"
       d="M 197.17933,477.3158 C 259.13975,363.72307 401.45369,321.86682 515.04642,383.82724 628.63914,445.78767 670.49539,588.10161 608.53497,701.69434 546.57455,815.28706 404.2606,857.14331 290.66788,795.18289 177.25929,733.3229 135.32284,591.33785 196.92262,477.78771"
       sodipodi:ry="234.28572"
       sodipodi:rx="234.28572"
       sodipodi:cy="589.50507"
       sodipodi:cx="402.85715"
       id="path5463"
       style="fill:#000000;fill-opacity:0;stroke:#404040;stroke-width:1.79129279;stroke-miterlimit:4;stroke-opacity:1;stroke-dasharray:none;stroke-dashoffset:0"
       sodipodi:type="arc"
       transform="matrix(0.52645764,0,0,1.0019776,190.76994,-1.1657503)" />
    <path
       style="fill:none;stroke:#404040;stroke-width:1.301;stroke-linecap:butt;stroke-linejoin:miter;stroke-miterlimit:4;stroke-opacity:1;stroke-dasharray:none"
       d="m 168.57143,588.93361 468.57143,0 0,-0.71429"
       id="path5988"
       inkscape:connector-curvature="0" />
    <path
       inkscape:connector-curvature="0"
       id="path5990"
       d="m 176.14085,534.94033 453.43259,0 0,-0.72773"
       style="fill:none;stroke:#404040;stroke-width:1.301;stroke-linecap:butt;stroke-linejoin:miter;stroke-miterlimit:4;stroke-opacity:1;stroke-dasharray:none" />
    <path
       style="fill:none;stroke:#404040;stroke-width:1.301;stroke-linecap:butt;stroke-linejoin:miter;stroke-miterlimit:4;stroke-opacity:1;stroke-dasharray:none"
       d="m 194.81086,484.95815 416.09257,0 0,-0.76337"
       id="path5992"
       inkscape:connector-curvature="0" />
    <path
       transform="matrix(0.97220852,0,0,1.0001654,11.195998,-0.0974735)"
       sodipodi:type="arc"
       style="fill:#000000;fill-opacity:0;stroke:#404040;stroke-width:1.31935501;stroke-miterlimit:4;stroke-opacity:1;stroke-dasharray:none;stroke-dashoffset:0"
       id="path6002"
       sodipodi:cx="402.85715"
       sodipodi:cy="589.50507"
       sodipodi:rx="234.28572"
       sodipodi:ry="234.28572"
       d="M 197.17933,477.3158 C 259.13975,363.72307 401.45369,321.86682 515.04642,383.82724 628.63914,445.78767 670.49539,588.10161 608.53497,701.69434 546.57455,815.28706 404.2606,857.14331 290.66788,795.18289 177.25929,733.3229 135.32284,591.33785 196.92262,477.78771"
       sodipodi:start="3.6409445"
       sodipodi:end="9.9218368"
       sodipodi:open="true" />
    <g
       id="g6004"
       transform="matrix(0.98113314,0,0,1,-201.15361,216.42857)">
      <rect
         style="fill:none;stroke:#000000;stroke-width:2.30699992;stroke-miterlimit:10;stroke-dasharray:none;stroke-dashoffset:0"
         id="rect2999"
         width="158.31635"
         height="115.6198"
         x="321.58011"
         y="307.17145" />
      <g
         id="g3001"
         transform="translate(-88.310619,-131.87815)">
        <path
           inkscape:connector-curvature="0"
           id="path3004"
           d="m 482.47539,490.38045 13.84642,13.84642"
           style="fill:none;stroke:#000000;stroke-width:3.38599992;stroke-linecap:butt;stroke-linejoin:miter;stroke-miterlimit:4;stroke-opacity:1;stroke-dasharray:none" />
        <path
           style="fill:none;stroke:#000000;stroke-width:3.38599992;stroke-linecap:butt;stroke-linejoin:miter;stroke-miterlimit:4;stroke-opacity:1;stroke-dasharray:none"
           d="m 496.32181,490.38045 -13.84642,13.84642"
           id="path3006"
           inkscape:connector-curvature="0" />
      </g>
    </g>
    <path
       style="fill:none;stroke:#404040;stroke-width:1.301;stroke-linecap:butt;stroke-linejoin:miter;stroke-miterlimit:4;stroke-opacity:1;stroke-dasharray:none"
       d="m 176.14085,646.94033 453.43259,0 0,-0.72773"
       id="path6031"
       inkscape:connector-curvature="0" />
  </g>
</svg>
