<?xml version="1.0" encoding="UTF-8" standalone="no"?>
<!-- Created with Inkscape (http://www.inkscape.org/) -->

<svg
   xmlns:dc="http://purl.org/dc/elements/1.1/"
   xmlns:cc="http://creativecommons.org/ns#"
   xmlns:rdf="http://www.w3.org/1999/02/22-rdf-syntax-ns#"
   xmlns:svg="http://www.w3.org/2000/svg"
   xmlns="http://www.w3.org/2000/svg"
   xmlns:sodipodi="http://sodipodi.sourceforge.net/DTD/sodipodi-0.dtd"
   xmlns:inkscape="http://www.inkscape.org/namespaces/inkscape"
   width="17.611818"
   height="17.781252"
   id="svg3339"
   version="1.1"
   inkscape:version="0.48.4 r9939"
   sodipodi:docname="POI_Bank.svg">
  <defs
     id="defs3341" />
  <sodipodi:namedview
     id="base"
     pagecolor="#ffffff"
     bordercolor="#666666"
     borderopacity="1.0"
     inkscape:pageopacity="0.0"
     inkscape:pageshadow="2"
     inkscape:zoom="28.120136"
     inkscape:cx="15.612705"
     inkscape:cy="8.694527"
     inkscape:document-units="px"
     inkscape:current-layer="layer1-7"
     showgrid="false"
     fit-margin-top="0"
     fit-margin-left="0"
     fit-margin-right="0"
     fit-margin-bottom="0"
     inkscape:window-width="1920"
     inkscape:window-height="1148"
     inkscape:window-x="0"
     inkscape:window-y="30"
     inkscape:window-maximized="1" />
  <metadata
     id="metadata3344">
    <rdf:RDF>
      <cc:Work
         rdf:about="">
        <dc:format>image/svg+xml</dc:format>
        <dc:type
           rdf:resource="http://purl.org/dc/dcmitype/StillImage" />
        <dc:title></dc:title>
      </cc:Work>
    </rdf:RDF>
  </metadata>
  <g
     inkscape:label="Ebene 1"
     inkscape:groupmode="layer"
     id="layer1"
     transform="translate(-341.24097,-523.42468)">
    <g
       id="g5202"
       transform="translate(306.95972,-45.950317)">
      <path
         sodipodi:type="arc"
         style="fill:none;stroke:#000000;stroke-width:1.20000005;stroke-miterlimit:10;stroke-opacity:1;stroke-dasharray:none;stroke-dashoffset:0"
         id="path2987"
         sodipodi:cx="9.6534653"
         sodipodi:cy="9.3654099"
         sodipodi:rx="6.3118811"
         sodipodi:ry="6.5594058"
         d="m 15.965346,9.3654099 a 6.3118811,6.5594058 0 1 1 -12.6237618,0 6.3118811,6.5594058 0 1 1 12.6237618,0 z"
         transform="matrix(1.1568627,0,0,1.0943396,31.971771,567.87267)" />
      <g
         id="layer1-7"
         transform="matrix(0.04685165,0,0,0.03720993,43.892176,558.547)"
         style="display:inline">
        <g
           id="g3003"
           transform="matrix(0.92713391,0,0,0.93782336,-273.88987,33.185169)">
          <path
             d="m 360.78,446.94 c -0.26065,0.3878 -0.30903,0.79755 -0.15625,1.3125 0.18206,0.61364 0.65259,1.3001 1.0938,1.7812 a 0.66758,0.66758 0 0 1 0.0625,0.0625 c 3.4513,5.1048 6.8967,10.226 10.125,15.5 a 0.66758,0.66758 0 0 1 0,0.6875 l -16.219,25.625 a 0.66758,0.66758 0 0 1 -1.2188,-0.34375 c -0.31529,-14.062 -0.24829,-28.108 -0.3125,-42.156 a 0.66758,0.66758 0 0 1 0.13,-0.4 c 0.0626,-0.0804 0.0466,0.002 0.0312,-0.0312 -0.0154,-0.0329 -0.12204,-0.15791 -0.25,-0.21875 -0.12796,-0.0608 -0.26224,-0.0366 -0.28125,-0.0312 -9.7e-4,0.0104 9.7e-4,0.0209 0,0.0312 -1.1076,11.881 -0.2078,23.851 -0.46875,35.875 l 0.0937,6.9062 a 0.66758,0.66758 0 0 1 -1.2188,0.375 l -16.562,-25.438 a 0.66758,0.66758 0 0 1 -0.0312,-0.65625 c 1.5566,-3.1807 3.5416,-6.05 5.4062,-8.9375 -2.0176,1.8576 -3.852,3.9002 -4.9688,6.375 a 0.66758,0.66758 0 0 1 -0.125,0.21875 c -0.32082,0.30406 -0.73606,0.40023 -1.0625,0.4375 -0.32644,0.0373 -0.61855,0.0273 -0.84375,0.0312 -0.2252,0.004 -0.36736,0.0119 -0.40625,0.0312 -0.0322,0.016 -0.0387,0.0391 -0.0625,0.125 -0.005,0.0179 0.007,0.002 0,0.0312 0.28455,1.5863 -0.0665,3.0622 -0.71875,4.375 -0.69632,1.4014 -1.6532,2.6676 -2.4375,3.8125 -4.3064,6.4197 -8.5621,12.86 -12.719,19.375 a 0.66758,0.66758 0 0 1 -1.0312,0.125 c -0.0576,-0.0592 -0.0764,-0.0654 -0.125,-0.0625 -0.0486,0.003 -0.13289,0.0541 -0.21875,0.125 -0.0859,0.0709 -0.16557,0.17754 -0.1875,0.25 -0.0219,0.0725 -2.1e-4,0.0997 0.0312,0.15625 a 0.66758,0.66758 0 0 1 0,0.59375 c -1.3931,2.9929 -2.705,6.0232 -4.0625,9.0312 0.78271,-1.1997 1.5425,-2.4039 2.3438,-3.5938 a 0.66758,0.66758 0 0 1 1.2188,0.375 l 0.15625,51.562 a 0.66758,0.66758 0 0 1 -1.2188,0.375 c -4.8105,-7.0571 -9.4159,-14.225 -14.062,-21.375 -0.0863,0.46362 -0.0775,0.95419 0.0625,1.4688 0.24672,0.9068 0.80486,1.835 1.4062,2.5625 a 0.66758,0.66758 0 0 1 0.0625,0.0625 c 4.4118,6.6736 8.8641,13.317 13.188,20.062 a 0.66758,0.66758 0 0 1 -0.53125,1.0312 c -8.8131,0.36395 -17.603,0.21767 -26.375,0.4375 -0.0586,0.0275 -0.0769,0.0601 -0.0937,0.125 -0.0216,0.0832 -0.0366,0.2481 0.0312,0.40625 0.0679,0.15815 0.19821,0.29626 0.28125,0.34375 0.083,0.0475 0.102,0.055 0.21875,0 a 0.66758,0.66758 0 0 1 0.25,-0.0625 c 8.1377,-0.20741 16.288,-0.15102 24.406,-0.21875 a 0.66758,0.66758 0 0 1 0.5625,1.0312 l -16.5,24.75 a 0.66758,0.66758 0 0 1 -1.0938,0.0312 c -4.2351,-5.6816 -7.8525,-11.759 -11.781,-17.562 a 0.66758,0.66758 0 0 1 -0.1,-0.52 c -0.0311,-0.0204 -0.11797,-0.0541 -0.21875,-0.0625 -0.0982,-0.008 -0.16232,0.0215 -0.1875,0.0312 a 0.66758,0.66758 0 0 1 0,0.1875 c -0.2383,1.2064 0.13864,2.254 0.78125,3.3438 0.63844,1.0827 1.5339,2.1328 2.2188,3.3125 0.004,0.008 -0.004,0.0235 0,0.0312 l 8.5625,13 a 0.66758,0.66758 0 0 1 0,0.75 l -15.938,23.156 a 0.66758,0.66758 0 0 1 -1.21,-0.39 c 0.17578,-11.243 0.01,-22.515 0.125,-33.781 -0.0144,0.0256 -0.0506,0.0379 -0.0625,0.0625 -0.0752,0.15572 -0.0384,0.2915 -0.0625,0.1875 a 0.66758,0.66758 0 0 1 -0.0312,0.40625 c -1.8846,4.419 -1.075,9.4749 -1.2188,14.469 1.2e-4,0.0104 -1.2e-4,0.0208 0,0.0312 0.069,6.2095 -0.0547,12.403 -0.125,18.594 a 0.66758,0.66758 0 0 1 -1.1562,0.4375 c -4.3276,-4.9554 -7.4742,-10.682 -11.344,-15.781 a 0.66758,0.66758 0 0 1 -0.125,-0.5 c 0.022,-0.13626 0.0108,-0.14946 -0.0625,-0.21875 -0.0733,-0.0693 -0.24206,-0.17214 -0.40625,-0.1875 -0.16419,-0.0154 -0.30098,0.0616 -0.34375,0.0937 -0.0428,0.0322 -0.0817,-9.1e-4 -0.0625,0.1875 a 0.66758,0.66758 0 0 1 0,0.125 c -0.0695,0.85556 0.31501,1.5484 0.875,2.3438 0.53575,0.76087 1.2387,1.5703 1.6875,2.5625 0.0203,0.0449 0.0433,0.0792 0.0625,0.125 l 9.9688,15.062 a 0.66758,0.66758 0 0 1 -0.5625,1.0312 l -33.781,0.59375 a 0.66758,0.66758 0 0 1 -0.5625,-1 c 2.7555,-4.3442 5.6141,-8.6218 8.5,-12.875 -1.9591,0.98289 -3.4116,3.013 -4.4062,5.0938 a 0.66758,0.66758 0 0 1 -0.0625,0.0937 l -3.2812,4.5625 a 0.66758,0.66758 0 0 1 -1.18,-0.26 c -0.37269,-2.6042 -0.19014,-5.1513 -0.5,-7.5625 -0.41342,-0.0714 -0.9324,0.36001 -0.75,0.75 a 0.66758,0.66758 0 0 1 0.0625,0.34375 c -0.15475,2.0549 0.35218,4.2514 0,6.5938 a 0.66758,0.66758 0 0 1 -1.0938,0.40625 c -2.6893,-2.4488 -3.9526,-5.8258 -6.4375,-7.8125 -0.0584,0.0657 -0.13839,0.19567 -0.15625,0.34375 -0.0357,0.29616 0.0796,0.55189 0.25,0.625 a 0.66758,0.66758 0 0 1 0.28125,0.21875 c 2.2353,3.0086 4.2371,6.1622 6.2812,9.25 a 0.66758,0.66758 0 0 1 -0.5625,1.0312 c -11.282,0.13453 -22.567,0.15867 -33.844,0.15625 a 0.66758,0.66758 0 0 1 -0.15625,0 c -0.44002,-0.0965 -0.81555,-0.37827 -1.0312,-0.71875 -0.2157,-0.34048 -0.26656,-0.70676 -0.25,-1.0625 0.03,-0.64332 0.31816,-1.245 0.78125,-1.6875 h -0.0312 c 3.2866,-4.725 6.6556,-9.4045 9.75,-14.219 -0.006,-0.005 0.009,-0.0227 0,-0.0312 -0.0473,-0.0444 -0.19831,-0.0801 -0.34375,-0.0937 -0.14544,-0.0137 -0.27764,0.0224 -0.34375,0.0625 -0.0661,0.0401 -0.0856,0.0274 -0.0937,0.125 a 0.66758,0.66758 0 0 1 -0.0937,0.3125 c -2.9929,4.3619 -5.9829,8.7271 -8.9688,13.094 a 0.66758,0.66758 0 0 1 -1.2188,-0.25 c -1.2558,-7.2407 0.19801,-14.444 -0.65625,-21.406 a 0.66758,0.66758 0 0 1 0,-0.0625 c -0.033,-0.51002 0.0174,-1.0361 -0.0312,-1.375 -0.0186,-0.12992 -0.0422,-0.1793 -0.0625,-0.21875 -0.0324,0.0369 -0.1056,0.0771 -0.125,0.125 -0.0437,0.10768 -0.0827,0.30669 -0.0625,0.5625 0.0384,0.48709 0.23889,1.1247 0.1875,1.8438 -0.003,0.0362 0.004,0.0572 0,0.0937 0.1668,6.8287 0.0118,13.668 -0.0312,20.469 a 0.66758,0.66758 0 0 1 -1.0938,0.53125 c -3.4845,-2.8564 -5.0344,-7.067 -7.6562,-10.156 a 0.66758,0.66758 0 0 1 -0.0625,-0.0625 l -9.5,-13.781 a 0.66758,0.66758 0 0 1 -0.0937,-0.53125 c 0.95668,-4.1462 4.0611,-7.0205 5.7188,-10.375 a 0.66758,0.66758 0 0 1 0,-0.0312 c 0.64764,-1.1682 1.4918,-2.056 1.8125,-2.9375 -0.0575,-0.008 -0.12625,-0.0427 -0.1875,-0.0312 -0.10141,0.019 -0.16985,0.0743 -0.1875,0.0937 -0.0177,0.0194 -0.0118,-0.0114 0,0.0625 a 0.66758,0.66758 0 0 1 -0.0937,0.4375 c -2.2245,3.7036 -4.5894,7.3074 -6.9375,10.906 a 0.66758,0.66758 0 0 1 -1.0938,0.0312 c -5.9133,-7.4032 -10.18,-15.823 -15.562,-23.406 -0.25282,-0.19964 -0.49737,-0.41517 -0.59375,-0.6875 -0.13385,-0.3782 -0.14989,-0.78615 -0.0625,-1.1562 0.0874,-0.3701 0.28943,-0.73707 0.625,-1 0.27242,-0.21345 0.67739,-0.25351 1.0625,-0.21875 v -0.0312 c 0.0836,-0.007 0.16648,0.007 0.25,0 4.1471,-0.34144 8.2644,-0.045 12.312,-0.0625 -0.007,-0.0459 -0.0145,-0.11093 -0.0625,-0.1875 -0.0649,-0.10351 -0.17366,-0.16948 -0.21875,-0.1875 -0.0451,-0.018 0.009,-0.0283 -0.0312,0 a 0.66758,0.66758 0 0 1 -0.4375,0.0937 c -4.083,-0.39079 -8.2543,-0.0988 -12.469,-0.25 -0.31291,0.15996 -0.67085,0.2357 -0.96875,0.15625 -0.4106,-0.1095 -0.70961,-0.35394 -0.9375,-0.65625 -0.22789,-0.30231 -0.3852,-0.6672 -0.375,-1.0938 0.008,-0.32324 0.20558,-0.64795 0.46875,-0.90625 0.007,-0.0124 0.0239,-0.0188 0.0312,-0.0312 1.7743,-3.0021 3.6623,-5.8739 5.3125,-8.875 -0.007,-0.005 0.0141,-0.0191 0,-0.0312 -0.0469,-0.0404 -0.19981,-0.11742 -0.34375,-0.125 -0.14394,-0.008 -0.26414,0.0597 -0.3125,0.0937 -0.0484,0.0341 -0.0658,-0.0165 -0.0625,0.0937 a 0.66758,0.66758 0 0 1 -0.0625,0.34375 c -1.0625,2.0827 -2.3438,4.0018 -3.5938,5.9062 a 0.66758,0.66758 0 0 1 -1.19,-0.09 c -1.6908,-3.6379 -0.56519,-7.5082 -0.84375,-10.875 a 0.66758,0.66758 0 0 1 0,-0.125 c 0.0554,-0.67865 -0.16363,-1.407 -0.375,-2.1562 -0.0727,0.038 -0.14486,0.10694 -0.21875,0.21875 -0.16889,0.25556 -0.19306,0.62532 -0.0937,0.78125 a 0.66758,0.66758 0 0 1 0.0937,0.34375 c 0.0687,4.1787 0.12065,8.3522 0.15625,12.531 a 0.66758,0.66758 0 0 1 -1.1875,0.40625 c -6.1125,-7.9448 -10.865,-16.756 -16.5,-24.875 h 0.0312 c -0.37789,-0.41725 -0.50431,-0.91689 -0.5,-1.3438 0.004,-0.38024 0.0536,-0.67641 0.0937,-0.9375 -0.089,-0.31546 -0.29854,-0.47237 -0.75,-0.6875 -0.43669,-0.2081 -1.0241,-0.44123 -1.5625,-0.84375 v 0.0312 c -0.1772,-0.0957 -0.39569,-0.18961 -0.625,-0.3125 0.2037,0.5304 0.48302,1.074 0.65625,1.75 0.21111,0.82375 0.18309,1.8408 -0.46875,2.6875 -0.0195,0.0322 -0.043,0.0616 -0.0625,0.0937 -4.6729,7.6996 -9.589,15.224 -14.344,22.844 a 0.66758,0.66758 0 0 1 -1.1875,-0.0937 c -1.269,-3.2697 -0.19369,-6.6286 -0.65625,-9.5 a 0.66758,0.66758 0 0 1 0,-0.0625 c -0.28136,-7.5396 -0.25955,-15.067 -0.21875,-22.594 -0.05,-0.0295 -0.0906,-0.0914 -0.15625,-0.0937 -0.11598,-0.004 -0.28084,0.0505 -0.4375,0.15625 -0.31331,0.2115 -0.47049,0.53271 -0.375,0.78125 a 0.66758,0.66758 0 0 1 0.0312,0.25 c 0.18268,20.644 0.44455,41.29 0.625,61.938 0.1466,19.842 -0.0719,39.667 -0.25,59.5 h 0.6875 c 0.0444,-7.8606 0.13595,-15.751 0.34375,-23.594 a 0.66758,0.66758 0 0 1 1.125,-0.4375 l 0.0312,0.0312 a 0.66758,0.66758 0 0 1 0.0937,0.0937 c 5.2218,7.9167 10.366,15.873 15.5,23.844 a 0.66758,0.66758 0 0 1 0.0312,0.0625 h 2.5938 c 4.9327,-8.6445 10.637,-16.761 15.906,-25.125 a 0.66758,0.66758 0 0 1 0.1875,-0.21875 l 0.0937,-0.0625 a 0.66758,0.66758 0 0 1 0.375,-0.0937 h 0.0625 a 0.66758,0.66758 0 0 1 0.65625,0.59375 c 0.46463,6.3779 0.21469,12.78 0.34375,19.094 0.006,1.9501 -0.0203,3.8753 -0.0312,5.8125 h 0.5 v -24.188 a 0.66758,0.66758 0 0 1 0.1875,-0.46875 l 0.0312,-0.0312 a 0.66758,0.66758 0 0 1 0.46875,-0.1875 h 0.0312 a 0.66758,0.66758 0 0 1 0.53125,0.25 c 5.866,7.8941 10.691,16.437 15.969,24.625 h 2.5312 c 4.75,-8.45 10.2,-16.48 15.43,-24.56 a 0.66758,0.66758 0 0 1 0.41,-0.28 l 0.125,-0.0312 a 0.66758,0.66758 0 0 1 0.5625,0.125 l 0.125,0.0937 a 0.66758,0.66758 0 0 1 0.25,0.375 c 0.97668,4.0949 0.22878,8.2082 0.59375,12.062 a 0.66758,0.66758 0 0 1 0,0.0625 c 0.0318,4.0555 0.0444,8.1044 0.0625,12.156 h 0.65625 l -0.21875,-24.188 a 0.66758,0.66758 0 0 1 0.28125,-0.5625 l 0.0937,-0.0625 a 0.66758,0.66758 0 0 1 0.375,-0.0937 h 0.0625 a 0.66758,0.66758 0 0 1 0.56,0.28 c 5.4441,7.7547 10.405,15.794 15.562,23.688 l -0.0312,0.0312 c 0.2432,0.26128 0.34349,0.58703 0.46875,0.90625 h 2.6875 l 16.31,-24.45 a 0.66758,0.66758 0 0 1 1.2188,0.375 l -0.0937,24.062 h 1.0312 l 0.125,-23.375 a 0.66758,0.66758 0 0 1 1.1875,-0.375 l 2.7812,3.9062 a 0.66758,0.66758 0 0 1 0.0312,0 c 4.3477,6.5325 8.7104,13.065 12.719,19.844 h 2.5312 l 15.562,-23.594 a 0.66758,0.66758 0 0 1 1.2188,0.375 l 0.125,23.219 h 1.5 l 0.0312,-22.875 a 0.66758,0.66758 0 0 1 1.2188,-0.375 l 15.125,23.25 h 3.375 l 15.312,-23.5 a 0.66758,0.66758 0 0 1 1.2188,0.375 l 0.15625,23.125 h 1.625 l 0.0625,-22.781 a 0.66758,0.66758 0 0 1 1.2188,-0.375 l 15.062,23.156 h 3.5312 l 15.094,-23.938 a 0.66758,0.66758 0 0 1 1.2188,0.34375 l 0.15625,12.062 c 0.0122,3.8376 0.0549,7.6904 0.0937,11.531 h 1.1562 l -0.1875,-23.531 a 0.66758,0.66758 0 0 1 1.2188,-0.375 l 15.719,23.906 h 3.5312 l 15.406,-24.188 a 0.66758,0.66758 0 0 1 1.21,0.36 l 0.0625,12.688 0.0625,11.156 h 0.875 l -0.125,-24 a 0.66758,0.66758 0 0 1 1.2188,-0.375 l 8.5,12.938 7.4062,11.438 h 0.96875 l -16.438,-25.125 a 0.66758,0.66758 0 0 1 0.5625,-1.0312 c 4.1232,10e-4 8.2499,-0.0154 12.375,-0.0312 4.1251,-0.0159 8.245,-0.0312 12.375,0 l 8.2812,0.0937 a 0.66758,0.66758 0 0 1 0.5625,1.0312 l -16.281,25.062 h 1 l 15.59,-24.05 a 0.66758,0.66758 0 0 1 1.2188,0.375 v 23.688 h 0.84375 l -0.0312,-156.09 c -0.35768,-0.36201 -0.69841,-0.70785 -0.96875,-1 l -0.0625,8.5 a 0.66758,0.66758 0 0 1 -1.2188,0.375 l -16.125,-24.938 c -0.80678,-0.60833 -1.5715,-1.2391 -2.3438,-1.8438 l 0.5625,0.90625 a 0.66758,0.66758 0 0 1 0,0.71875 l -16.469,25.656 a 0.66758,0.66758 0 0 1 -1.2188,-0.375 c -0.0564,-12.636 -0.0876,-25.266 0.0312,-37.906 -0.025,-0.12891 -0.0562,-0.13958 -0.15625,-0.1875 -0.10005,-0.0479 -0.29409,-0.0956 -0.46875,-0.0625 -0.17466,0.0331 -0.31467,0.14991 -0.375,0.21875 -0.0603,0.0688 -0.0675,0.0712 -0.0312,0.21875 a 0.66758,0.66758 0 0 1 0,0.15625 l -0.25,37.438 a 0.66758,0.66758 0 0 1 -1.2188,0.34375 l -16.156,-25.375 a 0.66758,0.66758 0 0 1 0,-0.6875 l 10.25,-16.156 c -0.268,-0.0656 -0.57512,-0.059 -0.875,0.0625 -0.49458,0.20042 -0.87423,0.63652 -0.9375,1.0938 a 0.66758,0.66758 0 0 1 -0.0937,0.28125 l -8.4375,12.969 a 0.66758,0.66758 0 0 1 -1.0938,0.0312 c -4.0427,-5.4688 -7.5482,-11.287 -11.344,-16.844 -0.10791,-0.0628 -0.18674,-0.10087 -0.25,-0.125 z m -26.125,20.188 a 0.66758,0.66758 0 0 1 0.6875,0.28125 l 17.531,27.438 a 0.66758,0.66758 0 0 1 -0.53125,1.0312 c -11.239,0.2732 -22.472,-0.22197 -33.656,-0.0937 a 0.66758,0.66758 0 0 1 -0.44,-0.17 c -0.37633,-0.34659 -0.63206,-0.81027 -0.6875,-1.25 -0.0554,-0.43973 0.0464,-0.85163 0.1875,-1.2188 0.2785,-0.72473 0.76205,-1.3124 1.0625,-1.75 0.005,-0.007 -0.005,-0.0239 0,-0.0312 5.0958,-8.0057 10.219,-16.018 15.406,-23.969 a 0.66758,0.66758 0 0 1 0.4375,-0.28125 z m 75.906,0.1875 a 0.66758,0.66758 0 0 1 0.6875,0.28125 l 17.406,26.969 a 0.66758,0.66758 0 0 1 -0.5625,1.0312 l -34.938,0.28125 a 0.66758,0.66758 0 0 1 -0.5625,-1.0312 l 17.531,-27.25 a 0.66758,0.66758 0 0 1 0.4375,-0.28125 z m -38.062,0.5 c 0.20322,-0.006 0.20454,0.003 0.28125,0 a 0.66758,0.66758 0 0 1 0.5625,0.28125 c 5.6696,8.7571 11.422,17.49 16.969,26.344 a 0.66758,0.66758 0 0 1 -0.5,1 c -7.6091,0.8393 -15.202,0.0192 -22.656,0.5 -3.8187,0.10158 -7.6314,0.094 -11.438,0.0937 a 0.66758,0.66758 0 0 1 -0.5625,-1 c 5.3185,-9.143 11.123,-17.968 16.812,-26.844 a 0.66758,0.66758 0 0 1 0.15625,-0.15625 l 0.125,-0.0937 a 0.66758,0.66758 0 0 1 0.25,-0.125 z m -53.219,28.656 c 0.0208,5.2e-4 0.0417,-5.2e-4 0.0625,0 10.601,0.26605 21.191,0.2543 31.812,0.40625 a 0.66758,0.66758 0 0 1 0.5625,1 c -5.1824,8.4683 -10.468,16.887 -15.812,25.25 a 0.66758,0.66758 0 0 1 -1.125,0 c -5.5901,-8.3305 -10.992,-16.773 -16.562,-25.094 a 0.66758,0.66758 0 0 1 -0.0937,-0.25 c -0.0722,-0.33839 0.0238,-0.66956 0.25,-0.9375 0.21102,-0.25 0.56136,-0.36884 0.90625,-0.34375 v -0.0312 z m 107.41,0.1875 a 0.66758,0.66758 0 0 1 0.5625,1.0312 l -16.469,25 a 0.66758,0.66758 0 0 1 -1.125,0 c -5.3732,-7.7331 -10.204,-15.771 -15.312,-23.625 a 0.66758,0.66758 0 0 1 0,-0.71875 c 0.59255,-0.97077 1.6152,-1.2698 2.5,-1.3125 0.88475,-0.0427 1.7418,0.0802 2.3125,0 a 0.66758,0.66758 0 0 1 0.0625,0 c 9.1553,-0.24456 18.323,-0.28615 27.469,-0.375 z m -68.562,0.25 c 0.53518,-0.0206 1.0798,-0.025 1.625,0 0.0105,4.8e-4 0.0208,-5e-4 0.0312,0 l 28.906,0.0312 a 0.66758,0.66758 0 0 1 0.5625,1 c -4.892,7.8572 -9.9324,15.633 -14.938,23.406 -0.0583,0.3385 -0.17713,0.67446 -0.40625,0.875 -0.31976,0.27988 -0.70926,0.38416 -1.0938,0.40625 -0.38449,0.0221 -0.77451,-0.0637 -1.125,-0.3125 -0.26201,-0.18598 -0.41467,-0.49173 -0.5,-0.84375 -0.008,-0.0122 -0.0236,-0.019 -0.0312,-0.0312 -4.97,-7.87 -10.09,-15.61 -15.18,-23.39 a 0.66758,0.66758 0 0 1 0.46875,-1.0312 c 0.55443,-0.0722 1.1108,-0.10402 1.6562,-0.125 z m -5.4062,1.7188 a 0.66758,0.66758 0 0 1 0.78125,0.65625 l 0.3125,23.125 -0.21875,27.156 a 0.66758,0.66758 0 0 1 -1.1875,0.375 c -5.6669,-7.9203 -10.631,-16.275 -16.094,-24.25 a 0.66758,0.66758 0 0 1 -0.0625,-0.59375 c 1.5437,-4.1213 4.3064,-7.501 6.3125,-11.125 a 0.66758,0.66758 0 0 1 0.0312,-0.0625 l 9.6875,-15 a 0.66758,0.66758 0 0 1 0.4375,-0.28125 z m 2.125,0.0937 a 0.66758,0.66758 0 0 1 0.75,0.28125 l 2,3 a 0.66758,0.66758 0 0 1 0,0.0312 c 4.7054,7.4562 9.5548,14.829 14.25,22.312 a 0.66758,0.66758 0 0 1 0,0.6875 c -5.2353,8.205 -10.433,16.463 -15.75,24.625 a 0.66758,0.66758 0 0 1 -1.2188,-0.25 c -0.7479,-4.1602 -0.26693,-8.3069 -0.40625,-12.312 a 0.66758,0.66758 0 0 1 0,-0.0312 c 0.1706,-12.549 0.0103,-25.125 -0.0937,-37.688 a 0.66758,0.66758 0 0 1 0.46875,-0.65625 z m 73.188,0.0312 a 0.66758,0.66758 0 0 1 0.84375,0.65625 l -0.125,49.906 a 0.66758,0.66758 0 0 1 -1.2188,0.375 c -5.57,-8.18 -11.06,-16.38 -16.42,-24.7 a 0.66758,0.66758 0 0 1 0,-0.71875 c 5.2196,-8.6253 10.93,-16.911 16.531,-25.25 a 0.66758,0.66758 0 0 1 0.375,-0.28125 z m -110.59,0.0937 a 0.66758,0.66758 0 0 1 0.375,0.28125 c 5.7962,8.206 11.195,16.651 16.594,25.094 a 0.66758,0.66758 0 0 1 0.0625,0.5625 c -0.82603,2.6587 -2.7094,4.6244 -3.7812,6.7812 a 0.66758,0.66758 0 0 1 -0.0312,0.0625 l -12.562,18.781 a 0.66758,0.66758 0 0 1 -1.2188,-0.375 c -0.1727,-16.802 -0.32891,-33.604 -0.46875,-50.406 a 0.66758,0.66758 0 0 1 0.15625,-0.4375 c 0.0222,-0.0258 0.0604,-0.0944 0.1875,-0.1875 0.1271,-0.0931 0.40016,-0.23225 0.6875,-0.15625 z m 72.688,0.0937 a 0.66758,0.66758 0 0 1 0.84375,0.65625 l 0.01,6.15 c -0.23234,13.58 -0.0798,27.176 -0.3125,40.781 0.16148,0.6293 0.0105,1.2439 -0.34375,1.75 -0.20084,0.2869 -0.48838,0.56508 -0.90625,0.65625 -0.41787,0.0912 -0.87792,-0.0664 -1.2188,-0.375 a 0.66758,0.66758 0 0 1 -0.125,-0.125 c -1.3876,-1.9873 -2.3493,-4.1281 -3.625,-6 a 0.66758,0.66758 0 0 1 0,-0.0312 c -3.3433,-5.4917 -7.0894,-10.777 -10.562,-16.25 a 0.66758,0.66758 0 0 1 -0.0937,-0.28125 c -0.12144,-1.4679 0.43975,-2.721 1.0938,-3.8125 0.654,-1.0915 1.3829,-2.0856 1.8125,-3.0625 a 0.66758,0.66758 0 0 1 0.0625,-0.0625 c 4.1869,-6.6694 8.5869,-13.197 12.969,-19.719 a 0.66758,0.66758 0 0 1 0.375,-0.28125 z m 2.375,0.28125 a 0.66758,0.66758 0 0 1 0.625,0.1875 l 0.125,0.125 a 0.66758,0.66758 0 0 1 0.0937,0.0937 c 5.3099,7.9312 10.344,16.017 15.531,24 a 0.66758,0.66758 0 0 1 0.0937,0.4375 c -0.0881,1.1047 -0.59738,1.9862 -1.125,2.75 -0.52762,0.76381 -1.0646,1.4289 -1.3438,2.125 a 0.66758,0.66758 0 0 1 -0.0625,0.125 c -4.2971,6.711 -8.6866,13.349 -13.062,20 a 0.66758,0.66758 0 0 1 -1.0938,0.0312 c -0.69841,-0.9482 -0.79564,-2.0294 -0.78125,-3 0.0144,-0.97055 0.11127,-1.8898 -0.0312,-2.625 a 0.66758,0.66758 0 0 1 0,-0.15625 c 0.34,-14.47 0.37,-28.93 0.52,-43.42 a 0.66758,0.66758 0 0 1 0.5,-0.65625 z m 17.375,26.75 a 0.66758,0.66758 0 0 1 0.75,0.28125 l 4.375,6.5 13.344,20.062 a 0.66758,0.66758 0 0 1 -0.5625,1.0312 c -11.588,0.10849 -23.163,-0.16899 -34.719,0 a 0.66758,0.66758 0 0 1 -0.65625,-0.78125 c 0.70857,-3.6903 3.498,-6.2115 4.9688,-9.0625 a 0.66758,0.66758 0 0 1 0.0312,-0.0625 l 12.07,-17.69 a 0.66758,0.66758 0 0 1 0.375,-0.28125 z m -265.5,0.34375 c 0.37793,-0.0428 0.27615,-0.10512 0.59375,0.0625 0.56776,0.30605 0.86169,0.79025 1.0938,1.1875 0.23206,0.39725 0.4297,0.73928 0.625,0.90625 a 0.66758,0.66758 0 0 1 0.125,0.125 c 4.1791,6.0409 8.0141,12.281 12.125,18.312 l 4.1875,6.5312 a 0.66758,0.66758 0 0 1 -0.53125,1.0312 c -10.949,0.74955 -21.868,0.15067 -32.75,0.125 v -0.0625 c -0.36726,0.0912 -0.75503,0.17891 -1.0625,0.0312 -0.38881,-0.18672 -0.67512,-0.5225 -0.84375,-0.875 -0.30353,-0.6345 -0.20458,-1.47 0.34375,-2.0625 l -0.0312,-0.0312 c 4.9599,-8.3929 10.196,-16.612 15.438,-24.812 a 0.66758,0.66758 0 0 1 0.15625,-0.15625 c -0.002,0.002 0.13548,-0.21893 0.53125,-0.3125 z m 190.72,0.15625 a 0.66758,0.66758 0 0 1 0.65625,0.25 l 1.125,1.5 a 0.66758,0.66758 0 0 1 0,0.0312 c 5.4918,7.7431 10.443,15.815 15.656,23.688 a 0.66758,0.66758 0 0 1 0.0937,0.4375 c -0.0494,0.48933 -0.26293,0.94478 -0.59375,1.2188 -0.33082,0.27397 -0.73168,0.38212 -1.0938,0.4375 -0.70001,0.10707 -1.3755,-0.008 -1.8125,-0.0312 -0.0151,-8e-4 -0.0481,6.1e-4 -0.0625,0 -9.9839,0.26705 -19.989,0.43564 -29.969,0.625 a 0.66758,0.66758 0 0 1 -0.34375,-0.0937 c -0.398,-0.23819 -0.68341,-0.60068 -0.78125,-1 -0.0978,-0.39932 -0.0471,-0.76676 0.0625,-1.0938 0.2193,-0.65398 0.63247,-1.2083 0.875,-1.5625 l 15.75,-24.125 a 0.66758,0.66758 0 0 1 0.4375,-0.28125 z m 37.125,0.0625 c 0.31039,-0.0186 0.25529,3.3e-4 0.40625,0.0312 a 0.66758,0.66758 0 0 1 0.375,0.21875 c 2.9054,3.3842 4.8261,7.3553 7.3125,10.812 a 0.66758,0.66758 0 0 1 0.0312,0 l 9.0625,13.906 a 0.66758,0.66758 0 0 1 0.0625,0.5625 c -0.13966,0.46554 -0.42219,0.85127 -0.78125,1.0625 -0.35906,0.21123 -0.74583,0.28425 -1.0938,0.3125 -0.69583,0.0565 -1.356,-0.009 -1.6562,0.0625 a 0.66758,0.66758 0 0 1 -0.125,0 c -9.7389,0.5891 -19.448,0.31572 -29.125,0.6875 a 0.66758,0.66758 0 0 1 -0.3125,-0.0625 c -0.84279,-0.40539 -1.1583,-1.3315 -1.0625,-2.0938 0.0848,-0.67443 0.41683,-1.2797 0.9375,-1.7188 l 15.531,-23.5 a 0.66758,0.66758 0 0 1 0.4375,-0.28125 z m 22.469,27.875 c 0.0208,4.6e-4 0.0417,-4.6e-4 0.0625,0 10.515,0.2324 21.041,0.34714 31.562,0.46875 a 0.66758,0.66758 0 0 1 0.5625,1 c -4.6502,7.8267 -9.6642,15.413 -14.594,23.031 l -0.0625,-0.0312 c -0.0716,0.32119 -0.10109,0.66696 -0.3125,0.875 -0.31044,0.30549 -0.69223,0.49306 -1.0938,0.5625 -0.40152,0.0694 -0.85496,0.0446 -1.25,-0.15625 -0.3191,-0.16221 -0.54198,-0.49911 -0.6875,-0.875 h -0.0312 c -4.9606,-7.425 -9.8822,-14.878 -14.906,-22.25 -0.43138,-0.33763 -0.64658,-0.84739 -0.625,-1.3438 0.0135,-0.31046 0.1184,-0.63317 0.375,-0.90625 0.2408,-0.25628 0.62166,-0.3636 1,-0.34375 v -0.0312 z m -6.5625,0.0625 a 0.66758,0.66758 0 0 1 0.625,1 l -1.2188,2.125 a 0.66758,0.66758 0 0 1 -0.0312,0 c -4.574,7.6326 -9.6446,14.919 -14.188,22.5 a 0.66758,0.66758 0 0 1 -0.9375,0.21875 c -2.793,-1.9291 -3.5217,-5.2721 -5.2812,-7.375 a 0.66758,0.66758 0 0 1 -0.0625,-0.0625 c -3.6882,-5.561 -7.3325,-11.125 -10.969,-16.719 a 0.66758,0.66758 0 0 1 0.46875,-1.0312 c 5.2753,-0.76871 10.522,-0.0973 15.625,-0.375 a 0.66758,0.66758 0 0 1 0.0312,0 c 5.3268,-0.0654 10.629,-0.0953 15.938,-0.28125 z m -37.969,0.40625 c 0.0625,-0.009 0.25012,-0.005 0.1875,0 a 0.66758,0.66758 0 0 1 0.63,0.66 c 0.0324,1.5368 -0.65594,2.7682 -1.4062,3.8438 -0.75031,1.0756 -1.5497,2.0221 -1.9688,3.0312 a 0.66758,0.66758 0 0 1 -0.0625,0.125 c -4.0237,6.0055 -8.0201,12.04 -11.969,18.094 a 0.66758,0.66758 0 0 1 -1.0938,0.0312 c -5.2052,-6.705 -9.429,-14.04 -14.188,-20.938 a 0.66758,0.66758 0 0 1 -0.0937,-0.1875 c -0.0663,-0.23235 -0.3376,-0.5279 -0.6875,-0.9375 -0.3499,-0.4096 -0.75921,-1.0471 -0.65625,-1.8438 a 0.66758,0.66758 0 0 1 0.4375,-0.53125 c 4.3657,-1.5706 8.8756,-0.39397 12.969,-0.78125 a 0.66758,0.66758 0 0 1 0.0625,0 c 5.8933,-0.12432 11.752,-0.22682 17.625,-0.5 a 0.66758,0.66758 0 0 1 0.1875,-0.0625 z m -220.84,0.21875 c 0.0306,-0.003 0.15498,-0.002 0.25,0 h 0.15625 l 31.281,0.375 a 0.66758,0.66758 0 0 1 0.59375,0.96875 c -4.5734,8.661 -10.34,16.566 -15.188,24.938 a 0.66758,0.66758 0 0 1 -0.84375,0.25 c -1.3652,-0.65818 -2.1941,-1.7885 -2.875,-2.9062 -0.68094,-1.1177 -1.268,-2.226 -2.0312,-3.0312 a 0.66758,0.66758 0 0 1 -0.0625,-0.0937 c -4.15,-6.17 -8.15,-12.41 -12.24,-18.59 a 0.66758,0.66758 0 0 1 -0.0625,-0.15625 c -0.12372,-0.35616 -0.11965,-0.72938 0.0312,-1.0625 0.1509,-0.33312 0.51772,-0.64071 0.96875,-0.6875 z m 262.63,1.41 a 0.66758,0.66758 0 0 1 0.5,0.0625 l 0.0625,0.0312 a 0.66758,0.66758 0 0 1 0.25,0.21875 c 5.5649,8.2096 11.024,16.48 16.531,24.719 a 0.66758,0.66758 0 0 1 0.0937,0.375 c -0.002,1.4709 -0.6647,2.653 -1.375,3.6875 -0.7103,1.0345 -1.4588,1.967 -1.8438,2.9375 a 0.66758,0.66758 0 0 1 -0.0625,0.125 l -12.969,19.938 a 0.66758,0.66758 0 0 1 -1.2188,-0.375 c -0.10169,-17.009 -0.26792,-34.023 -0.5,-51.031 a 0.66758,0.66758 0 0 1 0.34375,-0.59375 l 0.0625,-0.0312 a 0.66758,0.66758 0 0 1 0.125,-0.0625 z m -37.312,0.21875 a 0.66758,0.66758 0 0 1 0.75,0.28125 l 1.1875,1.75 14.781,23.125 a 0.66758,0.66758 0 0 1 0,0.75 c -5.4104,8.288 -10.755,16.617 -16.281,24.844 a 0.66758,0.66758 0 0 1 -1.2188,-0.375 l 0.3125,-49.719 a 0.66758,0.66758 0 0 1 0.46875,-0.65625 z m -2.25,0.125 a 0.66758,0.66758 0 0 1 0.78125,0.5625 l 0.0625,0.4375 a 0.66758,0.66758 0 0 1 0,0.0937 c -0.32287,16.085 -0.74772,32.176 -0.71875,48.25 a 0.66758,0.66758 0 0 1 -1.125,0.46875 c -3.8411,-3.8503 -6.0072,-8.798 -9.0312,-12.938 a 0.66758,0.66758 0 0 1 -0.0312,-0.0625 l -6.7812,-10.625 a 0.66758,0.66758 0 0 1 0,-0.71875 l 16.406,-25.188 a 0.66758,0.66758 0 0 1 0.4375,-0.28125 z m 75.5,0 a 0.66758,0.66758 0 0 1 0.78,0.66 l 0.31,25.16 0.19,25.59 a 0.66758,0.66758 0 0 1 -1.2188,0.375 l -16.875,-25.75 a 0.66758,0.66758 0 0 1 0,-0.75 l 16.375,-25 a 0.66758,0.66758 0 0 1 0.4375,-0.28125 z m -265.28,0.1875 a 0.66758,0.66758 0 0 1 0.46875,0.0625 l 0.0625,0.0312 a 0.66758,0.66758 0 0 1 0.34375,0.5625 c 0.43276,12.191 0.41863,24.39 0.59375,36.562 0.0682,3.5632 0.11187,7.1249 0.15625,10.688 0.0139,-0.0831 0.006,-0.16746 0.0312,-0.25 0.19346,-9.5252 -0.0631,-19.065 -0.0312,-28.625 -0.0187,-5.7103 0.0461,-11.425 0.0625,-17.125 a 0.66758,0.66758 0 0 1 0.1875,-0.46875 l 0.0625,-0.0625 a 0.66758,0.66758 0 0 1 0.46875,-0.1875 h 0.0937 a 0.66758,0.66758 0 0 1 0.53125,0.25 c 5.675,7.647 10.545,15.815 15.812,23.656 a 0.66758,0.66758 0 0 1 0.0625,0.1875 c 0.31266,1.0215 -0.0399,1.9355 -0.46875,2.6562 -0.42887,0.72076 -0.91706,1.3481 -1.125,1.875 a 0.66758,0.66758 0 0 1 -0.0625,0.0937 c -4.117,6.8474 -8.8526,13.237 -13,19.969 a 0.66758,0.66758 0 0 1 -0.25,0.25 c -0.40847,0.21753 -0.89663,0.246 -1.2812,0.0937 -0.38462,-0.15225 -0.65403,-0.43987 -0.84375,-0.75 -0.1328,-0.21709 -0.18708,-0.47194 -0.25,-0.71875 0.006,0.49995 0.025,1.0003 0.0312,1.5 a 0.66758,0.66758 0 0 1 -0.25,0.53125 c -0.36464,0.26336 -0.82089,0.38494 -1.2188,0.34375 -0.39786,-0.0412 -0.74589,-0.21926 -1.0312,-0.4375 -0.11869,-0.0908 -0.2105,-0.20726 -0.3125,-0.3125 0.52348,0.75809 1.033,1.5276 1.5625,2.2812 a 0.66758,0.66758 0 0 1 0.125,0.375 c -0.01,0.50346 -0.17295,0.98637 -0.46875,1.3125 -0.2958,0.32613 -0.68643,0.50659 -1.0625,0.625 -0.71956,0.22655 -1.4642,0.19803 -2.0625,0.125 -0.0271,-0.003 -0.0673,0.004 -0.0937,0 -5.8662,0.0433 -11.732,0.21291 -17.625,0.15625 l -13.375,0.0937 a 0.66758,0.66758 0 0 1 -0.65625,-0.6875 c 0.0715,-1.7345 0.83115,-3.1627 1.6875,-4.4375 0.85635,-1.2748 1.8097,-2.4104 2.4062,-3.625 a 0.66758,0.66758 0 0 1 0.0312,-0.0937 l 12.44,-18.15 a 0.66758,0.66758 0 0 1 0.3125,-0.25 l 0.15625,-0.0625 a 0.66758,0.66758 0 0 1 0.25,-0.0312 h 0.15625 a 0.66758,0.66758 0 0 1 0.5,0.21875 c 3.7006,4.3613 7.0953,8.9922 10.125,13.844 0.005,0.007 -0.005,0.0239 0,0.0312 1.6448,2.4918 3.3428,4.9465 5.0312,7.4062 -0.0457,-0.10392 -0.0922,-0.20484 -0.125,-0.3125 -0.008,-0.0122 -0.0236,-0.019 -0.0312,-0.0312 -4.5624,-7.2576 -9.4448,-14.321 -14.344,-21.375 a 0.66758,0.66758 0 0 1 -0.0937,-0.34375 c -0.091,-3.1704 2.1203,-5.5308 3.4062,-7.75 2.6794,-4.4615 5.6132,-8.7307 8.375,-13.094 a 0.66758,0.66758 0 0 1 0,-0.0312 c 1.3727,-2.0492 2.6696,-4.2835 4.1562,-6.3125 a 0.66758,0.66758 0 0 1 0.375,-0.25 z m 227.03,0.0937 c 0.1492,9.4e-4 0.34463,0.0679 0.46875,0.15625 a 0.66758,0.66758 0 0 1 0.28125,0.34375 c 0.36116,1.2905 -0.0398,2.4804 0.0937,3.3438 a 0.66758,0.66758 0 0 1 0,0.0937 c 0.24512,15.095 0.27119,30.198 0.5,45.281 a 0.66758,0.66758 0 0 1 -0.47,0.67 c -0.47902,0.12938 -0.99592,0.0738 -1.375,-0.125 -0.37908,-0.1988 -0.63413,-0.51175 -0.84375,-0.8125 -0.41924,-0.6015 -0.69002,-1.2769 -0.90625,-1.5938 -4.7188,-7.0809 -9.4196,-14.17 -14.094,-21.281 a 0.66758,0.66758 0 0 1 -0.0312,-0.6875 c 4.5059,-8.7829 10.379,-16.67 15.531,-24.938 a 0.66758,0.66758 0 0 1 0.21875,-0.21875 c 0.0311,-0.0195 0.17012,-0.22158 0.625,-0.21875 z m -74.75,0.1875 a 0.66758,0.66758 0 0 1 0.78125,0.625 l 0.0937,2.0938 a 0.66758,0.66758 0 0 1 0,0.0625 l -1.0938,46.469 a 0.66758,0.66758 0 0 1 -1.2188,0.34375 l -15.53,-23.15 a 0.66758,0.66758 0 0 1 0,-0.75 l 16.531,-25.406 a 0.66758,0.66758 0 0 1 0.4375,-0.28125 z m 2.2188,0.21875 a 0.66758,0.66758 0 0 1 0.75,0.28125 l 1.875,2.8125 c 4.6791,6.7252 8.7604,13.776 13.188,20.594 l -0.0312,0.0312 c 0.31812,0.31343 0.55005,0.67182 0.625,1.0625 0.086,0.44843 0.0369,0.88638 -0.0937,1.2812 -0.24846,0.75115 -0.7479,1.3684 -1.1875,1.8438 h 0.0312 l -14.625,21.312 a 0.66758,0.66758 0 0 1 -1.2188,-0.375 l 0.21875,-48.188 a 0.66758,0.66758 0 0 1 0.46875,-0.65625 z m -189.84,0.1875 a 0.66758,0.66758 0 0 1 0.75,0.28125 l 2.1562,3.0938 c 4.8757,7.0721 9.552,14.254 14.281,21.406 a 0.66758,0.66758 0 0 1 0.0625,0.59375 c -2.0163,5.7383 -6.3847,9.9835 -9.1875,14.906 a 0.66758,0.66758 0 0 1 -0.0312,0.0312 l -6.25,9.2188 a 0.66758,0.66758 0 0 1 -1.1562,-0.0625 c -1.8372,-3.3573 -0.63764,-7.0644 -0.9375,-10.156 a 0.66758,0.66758 0 0 1 0,-0.0625 c 0.0902,-12.862 -0.008,-25.728 -0.15625,-38.594 a 0.66758,0.66758 0 0 1 0.46875,-0.65625 z m 244.74,26.28 c 0.18368,-0.066 0.67096,0.083 0.4375,0.0312 a 0.66758,0.66758 0 0 1 0.40625,0.28125 l 17.75,26.969 a 0.66758,0.66758 0 0 1 -0.5625,1.0312 c -11.604,-0.0924 -23.232,-0.15201 -34.844,-0.5 a 0.66758,0.66758 0 0 1 -0.53125,-1 c 5.5119,-8.9002 11.223,-17.655 16.844,-26.469 a 0.66758,0.66758 0 0 1 0.34375,-0.28125 l 0.0937,-0.0312 a 0.66758,0.66758 0 0 1 0.06,-0.03 z m 38.188,0.25 c 0.26458,-0.0103 0.16247,0.004 0.34375,0 a 0.66758,0.66758 0 0 1 0.5625,0.28125 c 5.992,8.725 11.622,17.659 17.438,26.469 a 0.66758,0.66758 0 0 1 -0.0312,0.78125 c -0.30561,0.40452 -0.71284,0.66776 -1.125,0.78125 -0.41216,0.11349 -0.82305,0.0965 -1.1875,0.0625 -0.72891,-0.068 -1.3729,-0.2021 -1.75,-0.125 a 0.66758,0.66758 0 0 1 -0.125,0 c -10.475,0.0603 -20.937,0.0177 -31.406,0 a 0.66758,0.66758 0 0 1 -0.5625,-1 c 5.6751,-9.0188 11.334,-18.065 17.312,-26.906 a 0.66758,0.66758 0 0 1 0.3125,-0.25 l 0.15625,-0.0625 a 0.66758,0.66758 0 0 1 0.0625,-0.0312 z m -75.75,0.0625 a 0.66758,0.66758 0 0 1 0.6875,0.28125 l 4.0938,6.3125 12.625,19.688 a 0.66758,0.66758 0 0 1 -0.5625,1.0312 l -33.625,-0.0937 a 0.66758,0.66758 0 0 1 -0.58,-1.03 l 16.906,-25.906 a 0.66758,0.66758 0 0 1 0.4375,-0.28125 z m -152.09,0.625 a 0.66758,0.66758 0 0 1 0.46875,0.15625 c 1.9187,1.6385 2.9467,3.8674 4.3125,5.5938 a 0.66758,0.66758 0 0 1 0,0.0312 c 4.5675,6.4958 9.1064,13.021 13.562,19.594 a 0.66758,0.66758 0 0 1 -0.22,0.94 c -1.5638,0.90937 -3.2641,1.0432 -4.875,1 -1.6109,-0.0431 -3.1786,-0.24467 -4.5938,-0.0937 a 0.66758,0.66758 0 0 1 -0.0625,0 c -8.4816,0.0267 -16.956,0.0371 -25.438,0.0312 a 0.66758,0.66758 0 0 1 -0.59,-0.94 c 4.3576,-8.9373 10.494,-16.734 15.844,-24.906 a 0.66758,0.66758 0 0 1 0.125,-0.125 c 0.0222,-0.0204 0.15712,-0.24029 0.34375,-0.53125 0.18663,-0.29096 0.54292,-0.72121 1.125,-0.75 z m 114.22,0.375 a 0.66758,0.66758 0 0 1 0.75,0.28125 l 16.438,25 a 0.66758,0.66758 0 0 1 -0.5625,1.0312 h -33.594 a 0.66758,0.66758 0 0 1 -0.5625,-1.0312 l 17.156,-25 a 0.66758,0.66758 0 0 1 0.375,-0.28125 z m -128.28,27 c 0.0104,1.6e-4 0.0208,-1.6e-4 0.0312,0 9.8427,0.1546 19.702,0.0745 29.562,0.125 a 0.66758,0.66758 0 0 1 0.40625,0.125 c 0.40425,0.30279 0.66318,0.72507 0.75,1.1562 0.0868,0.43118 0.0253,0.84655 -0.0937,1.2188 -0.23813,0.7444 -0.71455,1.3673 -1.0312,1.8125 h 0.0312 l -13.938,21.656 a 0.66758,0.66758 0 0 1 -0.5625,0.28125 c -1.2569,-0.0191 -2.1101,-0.83222 -2.625,-1.6562 -0.51486,-0.82403 -0.87085,-1.6872 -1.2812,-2.1875 a 0.66758,0.66758 0 0 1 0,-0.0625 c -4.76,-6.7 -9.04,-13.67 -13.57,-20.45 a 0.66758,0.66758 0 0 1 -0.0937,-0.4375 c 0.0706,-0.66677 0.54798,-1.1621 1.0312,-1.375 0.47278,-0.20826 0.95502,-0.2387 1.375,-0.21875 z m -7.8125,0.15625 a 0.66758,0.66758 0 0 1 0.3125,0.0625 c 0.38258,0.21928 0.64518,0.60843 0.71875,1 0.0736,0.39157 -0.005,0.73647 -0.125,1.0312 -0.24086,0.58956 -0.6487,1.0788 -0.8125,1.3438 -2.0778,3.3831 -4.0342,6.8642 -6.3125,10.188 -0.005,0.007 0.005,0.0238 0,0.0312 -2.562,4.0554 -5.2682,8.0149 -7.7188,12.094 a 0.66758,0.66758 0 0 1 -0.1875,0.1875 c -0.71771,0.51625 -1.6147,0.37049 -2.1875,-0.0312 -0.52663,-0.36935 -0.86339,-0.88685 -1.0938,-1.4062 h -0.0312 c -0.0261,-0.0386 -0.0364,-0.0864 -0.0625,-0.125 -2.9373,-4.3565 -5.4279,-8.9306 -8.4375,-13.125 a 0.66758,0.66758 0 0 1 -0.0312,0 l -6.25,-9.4688 a 0.66758,0.66758 0 0 1 0.53125,-1.0312 c 9.5654,-0.55291 19.101,-0.41426 28.625,-0.65625 a 0.66758,0.66758 0 0 1 0.0312,0 c 0.94234,-0.0115 1.9543,-0.15177 3.0312,-0.0937 z m 44.469,0.1875 h 0.0937 l 31.844,0.625 a 0.66758,0.66758 0 0 1 0.59375,1 c -4.7375,8.3286 -10.173,16.191 -15.5,24.094 a 0.66758,0.66758 0 0 1 -0.28125,0.21875 c -0.40816,0.19485 -0.87963,0.22398 -1.25,0.0625 -0.37037,-0.16148 -0.59794,-0.42316 -0.78125,-0.6875 -0.36663,-0.52868 -0.61113,-1.1339 -0.75,-1.3438 l -15.156,-22.312 a 0.66758,0.66758 0 0 1 -0.0937,-0.28125 c -0.0594,-0.4325 0.13695,-0.76214 0.375,-1 0.21604,-0.21586 0.52944,-0.35782 0.90625,-0.34375 v -0.0312 z m 145.21,0.33 a 0.66758,0.66758 0 0 1 0.5625,1 l -1.75,2.9688 -13.688,21.469 a 0.66758,0.66758 0 0 1 -1.125,0.0312 c -5.2181,-7.8532 -10.36,-15.743 -15.438,-23.688 a 0.66758,0.66758 0 0 1 0.4375,-1.0312 c 5.9794,-1.243 11.917,-0.04 17.656,-0.46875 a 0.66758,0.66758 0 0 1 0.0625,0 l 13.29,-0.28 z m 10.844,0.15625 c 1.5791,-0.005 3.145,0.012 4.7188,0.0312 7.669,0.0747 15.338,0.19056 23,0.21875 a 0.66758,0.66758 0 0 1 0.5625,1.0312 c -5.4325,8.2236 -10.83,16.477 -16.188,24.75 a 0.66758,0.66758 0 0 1 -1.125,0 l -16.25,-24.94 a 0.66758,0.66758 0 0 1 0.5625,-1.0312 c 1.5736,-0.0297 3.1396,-0.0573 4.7188,-0.0625 z m -87,0.0625 a 0.66758,0.66758 0 0 1 0.6875,0.65625 v 0.15625 a 0.66758,0.66758 0 0 1 -0.0937,0.34375 c -4.5633,7.436 -9.4937,14.606 -14.094,21.969 l -0.04,-0.04 c -0.0491,0.33181 -0.0775,0.68466 -0.28125,0.90625 -0.29508,0.32085 -0.6655,0.51064 -1.0625,0.59375 -0.397,0.0831 -0.8191,0.0699 -1.2188,-0.125 -0.32283,-0.15747 -0.5728,-0.49738 -0.71875,-0.875 h -0.0312 c -4.6742,-7.2553 -9.488,-14.437 -14.281,-21.625 a 0.66758,0.66758 0 0 1 -0.0937,-0.53125 c 0.12233,-0.46515 0.42906,-0.86965 0.78125,-1.0938 0.35219,-0.2241 0.71328,-0.29217 1.0625,-0.3125 0.69845,-0.0407 1.3587,0.10337 1.7188,0.0937 a 0.66758,0.66758 0 0 1 0.0625,0 c 9.2003,0.23729 18.382,0.11104 27.594,-0.125 z m 6.5312,0.0312 a 0.66758,0.66758 0 0 1 0.15625,0 l 31.28,0.03 a 0.66758,0.66758 0 0 1 0.5625,1.0312 l -15.531,23.969 a 0.66758,0.66758 0 0 1 -1.125,0 l -15.75,-24 a 0.66758,0.66758 0 0 1 0.41,-1.03 z"
             id="path4444"
             inkscape:connector-curvature="0" />
          <path
             d="m 354.16,448.25 c -1.1096,1.6743 -0.49722,3.7735 -0.75981,5.6467 -0.51468,18.766 -0.91718,37.534 -1.2765,56.303 -0.11473,13.056 -0.17915,26.114 -0.0277,39.17 0.2241,30.567 0.5915,61.132 0.86503,91.698 -0.43394,1.4274 0.70322,1.1467 1.7255,1.213 1.2488,0.0515 0.77044,-1.6061 0.93805,-2.3928 0.18692,-5.1511 0.11933,-10.307 0.22438,-15.46 0.19262,-16.627 0.18475,-33.256 0.16756,-49.885 0.0784,-23.574 0.40495,-47.149 0.18721,-70.723 -0.08,-18.28 -0.44,-36.56 -0.58,-54.83 -0.16441,-0.60266 -0.89142,-0.95924 -1.4688,-0.75 z m 38.75,2.3125 c -0.9899,-0.19818 -2.122,0.29907 -1.875,1.4953 0.14245,4.046 0.0236,8.105 0.0625,12.156 0.0258,9.1373 -0.0902,18.274 -0.37145,27.407 -0.20041,6.2823 -0.21299,12.569 0.0263,18.85 0.45891,15.653 0.7872,31.312 0.61407,46.972 -0.14994,28.269 -0.41647,56.538 -0.6752,84.806 h 3.875 c 0.16452,-20.998 -0.51196,-41.992 -0.4101,-62.99 -0.0355,-34.583 -0.0815,-69.167 -0.18734,-103.75 -0.0717,-8.3296 -0.4031,-16.654 -0.68381,-24.978 l -0.375,0.0312 z m 36.688,31.281 c -1.1798,0.12068 -1.2436,1.5798 -1.1875,2.5 -0.34347,17.518 -0.89214,35.04 -0.53125,52.562 0.14414,14.717 -0.26469,29.436 0.0954,44.152 0.18911,19.489 -0.10101,38.979 -0.15593,58.469 0.28105,0.87997 -0.63389,2.9689 0.76051,2.7234 0.85062,-0.2775 2.8597,0.61002 2.8344,-0.54841 0.1129,-14.946 -0.39862,-29.888 -0.41688,-44.834 -0.0633,-9.862 0.17535,-19.725 0.60645,-29.577 0.20849,-11.804 -0.30626,-23.606 -0.2239,-35.411 0.028,-12.593 -0.0679,-25.186 -0.23762,-37.778 -0.025,-3.6276 -0.0499,-7.2553 -0.0749,-10.883 0.55515,-0.89615 -0.73723,-1.5301 -1.4688,-1.375 z m -115,8.8125 c -1.2377,5.6918 -0.34213,11.565 -1.1035,17.308 -1.0055,16.717 -0.61632,33.471 -0.57315,50.207 0.17902,28.026 0.29297,56.052 0.36414,84.079 h 3.5938 c 0.31797,-12.563 0.26254,-25.131 0.13114,-37.696 -0.12353,-15.273 -0.21694,-30.548 0.0181,-45.82 0.12744,-12.683 0.23646,-25.369 -0.0969,-38.05 -0.17242,-9.2904 -0.55249,-18.577 -0.98985,-27.857 0.023,-0.8387 -0.19635,-2.3412 -1.3438,-2.1703 z m -189.98,25.82 c -0.25557,24.746 -0.45243,49.493 -0.40625,74.24 0.0128,17.18 0.0435,34.361 0.0312,51.541 0.78017,-0.0566 1.7904,0.2877 2.375,-0.375 0.176,-1.1044 0.0113,-2.2701 0.0799,-3.3983 0.1713,-31.288 0.0955,-62.577 0.0955,-93.865 -0.006,-9.3809 -0.0128,-18.762 -0.0192,-28.143 -0.71563,0.1089 -1.4408,-0.10788 -2.1562,0 z m 38.6,17.78 c -1.1682,-0.0165 -1.6746,1.4335 -1.4375,2.4062 0.27415,28.374 0.28335,56.75 0.21875,85.125 v 20.469 c 0.80345,-0.2628 1.8879,0.44987 2.5,-0.3125 0.2808,-2.0638 0.1489,-4.1895 0.1875,-6.278 0.11727,-32.563 0.0917,-65.128 0.3125,-97.691 -0.20843,-1.1415 0.50112,-2.6307 -0.59375,-3.4688 -0.34845,-0.23802 -0.77247,-0.33065 -1.1875,-0.25 z m 114.66,38.13 c -1.0679,7.6515 -0.50487,15.394 -0.78222,23.089 -0.10771,15.595 0.10422,31.191 0.0635,46.786 0.88769,-0.28297 2.007,0.48259 2.7188,-0.34375 0.14017,-20.176 -0.049,-40.352 0.0193,-60.528 0.0272,-2.7276 0.0314,-5.459 0.0464,-8.1803 0.12232,-1.0561 -1.3714,-0.79057 -2.0657,-0.82296 z m -77.094,10.312 c -1.4654,0.26476 -1.8263,2.0594 -1.6562,3.3125 -0.15322,18.333 -0.19489,36.667 -0.125,55 -0.42482,1.1452 1.1563,1.5117 2,1.375 1.0094,0.16493 2.0946,-0.57098 1.7712,-1.6733 -0.23192,-11.803 -0.14478,-23.609 -0.2647,-35.414 -0.027,-6.9172 -0.11237,-13.836 -0.20869,-20.751 0.0355,-0.84765 -0.46454,-2.0695 -1.5166,-1.8492 z m 38.96,15.93 c -1.1925,1.4842 -0.51226,3.4837 -0.72112,5.214 -0.13729,12.807 -0.63995,25.607 -0.93513,38.411 h 5.0312 c -0.0738,-12.571 -0.9569,-25.131 -0.65016,-37.705 l 0.0564,-5.0766 c -0.47054,-1.0814 -1.8365,-0.87036 -2.7812,-0.84375 z"
             id="rect4416"
             inkscape:connector-curvature="0" />
          <path
             d="m 368.22,435.91 c -0.74879,-0.0129 -1.5012,0.003 -2.25,0.0312 -10.175,0.81518 -20.052,4.9174 -27.781,11.594 -6.9391,5.9381 -12.38,13.408 -17.125,21.156 -7.06,11.73 -12.54,24.31 -18.06,36.81 -5.6628,12.913 -11.255,25.87 -17.531,38.5 -2.8467,5.638 -5.9017,11.176 -9.5938,16.312 -3.9369,5.6305 -8.5626,10.77 -13.625,15.406 -4.0954,3.6618 -8.7909,6.7045 -13.969,8.5938 -5.8324,2.228 -12.18,3.2314 -18.406,2.5938 -6.7651,-0.77574 -13.169,-3.8305 -18.312,-8.25 -7.4806,-6.1167 -13.518,-13.72 -19.5,-21.25 -6.8916,-8.6151 -13.471,-17.601 -21.656,-25.062 -4.8064,-4.2675 -10.077,-8.0297 -15.75,-11.062 -4.1634,-2.235 -8.484,-4.1631 -12.969,-5.6562 -4.7906,-1.5034 -9.7441,-2.4676 -14.688,-3.2812 -1.0469,-0.16486 -1.6687,1.2442 -0.8125,1.875 1.0916,0.36038 2.2605,0.41309 3.375,0.71875 5.6415,1.1884 11.237,2.8466 16.344,5.5625 3.7784,2.0181 7.4592,4.2528 10.875,6.8438 4.9596,3.6422 9.4875,7.8516 13.781,12.25 4.507,4.6884 8.5856,9.7822 12.375,15.062 6.7684,9.2057 12.864,18.918 20.406,27.531 4.9383,5.4908 10.841,10.303 17.781,13 5.5544,2.2872 11.666,3.0524 17.625,2.4062 7.7495,-0.76691 15.236,-3.7165 21.531,-8.2812 6.953,-4.9529 12.518,-11.62 17.125,-18.75 5.856,-9.1398 10.422,-19.007 15.031,-28.812 6.9524,-15.168 13.318,-30.604 20.25,-45.781 4.0522,-8.6648 8.2367,-17.331 13.594,-25.281 3.5801,-5.3079 7.5966,-10.34 12.219,-14.781 6.6408,-6.3849 15.204,-11.02 24.438,-12.031 7.7588,-0.93568 15.66,0.71571 22.812,3.7188 7.6682,3.2282 14.8,7.5781 21.469,12.531 8.6079,6.3737 16.643,13.535 23.844,21.469 0.84897,0.90631 1.6781,1.8514 2.5,2.7812 v -5.9688 c -0.48909,-0.59201 -0.97564,-1.1926 -1.4688,-1.7812 -4.2184,-5.012 -8.5359,-9.9449 -13.188,-14.562 -6.4734,-6.4841 -13.515,-12.444 -21.438,-17.094 -6.9355,-4.1068 -14.518,-7.2953 -22.531,-8.4688 -2.2202,-0.33811 -4.4724,-0.55501 -6.7188,-0.59375 z"
             style="text-indent:0;text-transform:none;block-progression:tb;color:#000000"
             id="path2989"
             inkscape:connector-curvature="0" />
          <path
             d="m 299.74,484.64 c -4.1286,0.28445 -11.822,3.8219 -12.899,4.932 -0.28722,0.29601 -0.34195,0.6564 -0.26557,1.0243 -0.0513,0.0712 -0.57837,0.83332 -0.60701,1.3278 -0.0699,1.2091 0.83549,2.3102 0.75876,3.5282 -0.0853,1.3537 -1.3278,3.9076 -1.3278,3.9076 l -2.9212,0.75876 -0.83464,-0.30351 c 0.364,-0.42397 0.3801,-0.45185 0.64495,-1.1381 0.20095,-0.52071 -1.1002,-1.1761 -1.1002,-1.1761 0,0 0.0623,-0.56822 -0.30351,-0.4932 l -0.94845,0.18969 c -0.4756,-0.12846 -0.73753,-0.53161 -1.4796,-0.34144 0,0 -0.35489,-0.40648 -0.64495,-0.53113 -1.3327,-0.57288 -1.4239,1.1288 -2.0486,1.0623 0.34497,0.16925 0.61857,0.18273 0.7967,0.11382 -0.38386,0.40085 -0.95895,0.99809 -1.214,1.5555 -1.0353,2.2617 0.16491,3.3692 -0.15174,5.3872 0.39701,-0.2245 0.58005,-0.55826 0.68289,-0.87258 -0.14402,1.5225 0.57661,0.75497 0.75875,1.821 0.58098,-1.5316 -0.21827,-0.63504 1.214,-1.8969 -0.53697,0.70386 0.0304,1.7885 -0.75875,2.2004 1.2622,-0.17248 1.8289,-1.7936 2.6177,-2.9212 0.41268,-0.58981 -0.11269,-0.0784 0.26557,-0.87257 0.3782,-0.79453 1.6693,-0.30352 1.6693,-0.30352 0,0 0.26435,1.2472 0.72082,1.6314 0.48292,0.40644 1.821,0.45526 1.821,0.45526 l 0.94845,0.41731 c -1.3962,0.11288 -2.6999,0.36167 -3.1489,0.64495 -0.62827,0.39642 -1.0398,0.71149 -1.3658,1.0243 -0.1771,-0.0167 -0.55681,-0.0252 -0.64495,-0.0379 -0.72148,-0.10434 -2.192,2.8175 -1.1381,3.1489 l 6.5254,2.0487 c -0.30161,0.25628 -0.62799,0.77564 -0.68289,0.87258 -0.0731,0.12924 -1.7831,4.894 -1.7831,4.894 l -0.37938,-0.41732 -0.72083,0.30351 -3.4903,-0.30351 0.34144,-0.53114 -0.72083,-0.49319 c 0,0 0.65285,-4.0913 0.56907,-4.6284 -0.17352,-1.1136 -2.2004,-3.3386 -2.2004,-3.3386 0.26101,-0.53186 -0.0842,-1.0854 -0.30351,-1.4037 -0.18049,-0.26247 -0.30174,-0.43222 -0.34144,-0.26557 -0.10051,0.42389 0.2168,0.89492 -0.0379,0.94845 0,0 -0.0895,0.26543 -0.53113,-0.11381 -0.21428,-0.18399 -0.11381,-1.1002 -0.11381,-1.1002 -0.0704,-0.10671 -0.10475,-0.33555 -0.30351,-0.0379 l -0.0759,0.9864 c 0,0 -0.18612,-0.17748 -0.22764,-0.45526 -0.0594,-0.39163 0.0531,-0.93885 -0.18968,-0.75876 -0.30827,0.22867 0.0924,1.116 0.11381,1.2899 0.0209,0.17397 -0.6424,-0.36158 -0.72082,-0.64495 -0.0784,-0.28337 -0.22484,-0.0974 -0.15175,0.26556 0.0732,0.36291 1.7998,1.5512 2.466,1.7452 0.45923,0.1337 1.4718,1.7143 1.7072,2.8074 0.21653,1.005 -0.34144,3.1489 -0.34144,3.1489 -0.22203,-1.9862 -0.2912,-4.038 -2.428,-4.8182 0.0339,-0.27092 -0.54803,-0.66309 -0.87258,-0.68288 -0.69225,-0.0423 -1.214,-0.72083 -1.214,-0.72083 -0.0848,-0.61563 -0.54828,-0.95783 -0.41732,-0.18969 0.15934,0.2809 0.3035,0.64495 0.3035,0.64495 0,0 -0.68173,-0.80557 -0.7967,-1.0243 -0.11485,-0.21799 -0.37604,-0.14526 -0.34144,0.0759 0.034,0.22123 0.72083,1.214 0.72083,1.214 0,0 -0.67141,-0.3944 -0.87259,-0.53113 -0.20118,-0.13657 -0.3455,-0.27092 -0.37937,0 -0.0339,0.27094 0.975,0.7726 1.252,0.9864 0.27694,0.21378 2.2385,0.60059 3.2627,1.252 1.0242,0.65136 1.0019,4.3531 0.91052,4.5146 -0.0914,0.16158 -0.41732,-0.11381 -0.41732,-0.11381 l -0.41732,0.64494 h -0.37938 l -0.26557,0.91052 -0.72082,0.22763 -1.3658,-0.60701 c 0,0 0.8912,-1.4015 1.0243,-1.7072 0.13314,-0.30571 -1.1002,-0.87257 -1.1002,-0.87257 0,0 -0.0512,-0.46212 -0.1897,-0.56907 -0.13848,-0.10691 -0.85369,0.11441 -1.214,0.18968 -0.36045,0.0745 -0.0229,-0.37934 -1.2899,-0.53113 -0.37029,-0.0449 -0.91051,0.15175 -0.91051,0.15175 0,0 -0.68934,0.0252 -1.0243,0.15176 -0.49993,0.18876 -1.3658,0.87257 -1.3658,0.87257 l 0.18969,0.11381 -0.41732,0.56908 0.26557,0.11381 c -0.22013,0.54326 -0.68957,1.079 -0.60701,1.6693 l 0.56907,-0.11381 c -0.36736,1.0169 -0.0819,0.93896 -0.0759,1.1761 0.14971,-0.20982 0.1253,-0.67985 0.49319,-0.53113 -0.15254,0.63883 -0.0675,1.2022 0.15175,1.7452 0.31902,-0.58772 0.59894,-0.78717 0.87258,-0.83464 l -0.0759,0.4932 0.45525,-0.37938 c -0.0988,0.47936 -0.0262,0.64344 0.0379,0.83463 0.15558,-0.36657 0.28814,-0.8421 0.87257,-0.94845 l -0.15174,0.53113 c 0.24047,0.19475 1.7242,-1.0829 1.9728,-0.98638 0.32542,0.12645 1.5175,1.3278 1.5175,1.3278 0,0 0.51729,0.70941 0.87257,0.94845 0.83799,0.56384 2.2382,1.1027 3.4903,1.5175 -1.2152,0.12412 -2.331,0.31631 -2.7316,0.56907 -0.57629,0.36362 -0.97127,0.69169 -1.2899,0.98639 -0.66095,-0.0217 -1.1381,-0.0759 -1.1381,-0.0759 l -1.1381,4.0973 c -0.36756,1.3298 10.236,3.6042 14.796,4.287 0.78163,0.11703 1.8214,-0.59921 2.1245,-1.252 0.004,-0.01 0.21682,-0.50793 0.22762,-0.53113 0.24428,0.25561 0.55062,0.46981 0.91052,0.60701 1.3647,0.52022 2.9715,-0.15565 3.6041,-1.5175 0.6326,-1.3619 0.0748,-2.8942 -1.2899,-3.4144 -0.35311,-0.13461 -0.73452,-0.20705 -1.1002,-0.18969 0.19483,-0.4179 0.58937,-1.2568 0.83463,-1.7831 0.17706,0.12999 0.38859,0.25817 0.60701,0.34143 1.3647,0.52022 2.9715,-0.15564 3.6041,-1.5175 0.6326,-1.36186 0.0369,-2.8942 -1.3278,-3.4144 -0.21908,-0.0835 -0.45583,-0.12805 -0.68289,-0.15175 2.9182,-6.2718 5.3261,-11.449 8.3084,-17.945 0.22339,0.2047 0.49058,0.3765 0.79671,0.4932 1.3647,0.52022 3.0095,-0.1936 3.6421,-1.5555 0.6326,-1.3619 0.0369,-2.8563 -1.3278,-3.3765 -0.31691,-0.12081 -0.65756,-0.19204 -0.98639,-0.1897 0.14546,-0.32029 0.28382,-0.61525 0.41732,-0.91051 0.27031,0.44849 0.67383,0.81841 1.214,1.0243 1.3647,0.52022 2.9715,-0.15565 3.6041,-1.5175 0.63261,-1.3619 0.0369,-2.8942 -1.3278,-3.4144 -0.58578,-0.2233 -1.2017,-0.21641 -1.7831,-0.0379 0.0207,-0.053 0.10157,-0.2681 0.11382,-0.3035 0.75897,-2.1864 -3.6716,-5.0042 -5.3113,-5.0837 -0.24052,-0.0117 -0.52145,-0.019 -0.7967,0 z m -13.127,6.0701 c 0.0892,0.32056 0.25517,0.66288 0.49319,0.98639 l -0.49319,-0.15175 v -0.83464 z m 0.72082,1.252 c 0.54306,0.65557 1.2518,1.22 1.6313,1.5555 0.55485,0.49045 2.8552,1.4523 4.894,2.2384 -0.58644,0.20016 -1.2222,0.35187 -1.4416,0.45526 -0.72883,-0.31845 -0.30714,-0.37818 -0.83465,-0.0379 -0.58512,0.37737 -0.94844,5.3493 -0.94844,5.3493 l -3.2248,-1.0243 0.34144,-0.60701 -0.91051,-0.45525 0.94845,-3.6421 -0.7967,-2.428 0.34144,-1.4037 z m 8.2705,4.8561 c 0.28306,-0.0207 0.46491,0.0746 0.60701,0.18969 l 0.45526,-0.15175 c 0.59414,0.28402 0.75787,0.86079 0.53113,1.6313 -0.61112,-0.2783 -1.2728,-0.46129 -1.7831,-0.34144 -0.0238,0.005 -0.0524,-0.006 -0.0759,0 l -1.0243,-0.87258 c 0.61272,-0.31186 1.0068,-0.4345 1.2899,-0.45526 z m -8.9534,15.137 c 0,0 1.3547,0.10878 2.466,0.18969 0.70048,0.29351 0.42531,1.1727 -0.37938,2.2763 -0.31815,-0.0757 -0.60982,-0.0996 -0.87258,-0.0379 -0.93031,0.21854 -1.576,1.0563 -2.0487,2.0487 0.33446,-1.9581 0.83465,-4.4767 0.83465,-4.4767 z"
             id="path4018"
             inkscape:connector-curvature="0" />
          <path
             d="m 324.81,440.41 c -4.302,0.12054 -11.405,2.4125 -12.529,3.3175 -0.241,0.19394 -0.34215,0.44212 -0.3746,0.70723 -0.12234,0.2989 -0.30353,0.62683 -0.30353,0.62683 0,0 0.20085,-1.0473 0.3018,-1.2729 0.10087,-0.22558 -0.12641,-0.37464 -0.27905,-0.2109 -0.15292,0.16345 -0.4888,1.3224 -0.4888,1.3224 0,0 -0.15913,-0.77279 -0.17649,-1.0154 -0.0169,-0.24255 0.0259,-0.43213 -0.20797,-0.29128 -0.23391,0.14078 0.0548,1.205 0.0577,1.5548 0.002,0.14148 0.14698,0.56504 0.33029,1.044 0.004,0.014 -0.001,0.0616 0.005,0.0758 0.0281,0.17786 -0.004,0.29146 -0.13284,0.31225 0,0 -0.0411,0.23649 -0.46604,-0.16137 -0.20614,-0.19302 -0.0699,-1.136 -0.0699,-1.136 -0.0658,-0.10957 -0.0917,-0.27018 -0.30293,0.0186 l -0.1311,0.95831 c 0,0 -0.18966,-0.20138 -0.21961,-0.48062 -0.0427,-0.3938 0.12568,-0.96012 -0.12468,-0.79054 -0.31774,0.21521 0.0328,1.1908 0.046,1.3655 0.0137,0.1747 -0.62185,-0.39338 -0.688,-0.67985 -0.0662,-0.28649 -0.23521,-0.16475 -0.17768,0.20098 0.0577,0.36572 1.7383,1.6448 2.3955,1.8672 0.26435,0.0894 0.27207,1.0065 0.15897,1.9667 -0.0473,0.007 -0.0767,0.0452 -0.11127,0.0448 -0.67632,-0.0112 -0.6111,0.56973 -0.6111,0.56973 -0.93265,1.3606 -1.8037,2.7628 -3.5986,3.9084 l -0.86687,0.73752 c -0.16667,-0.19596 -0.21596,-0.0719 -1.0556,0.14098 l -0.21496,-0.40488 c 0,0 0.73459,-0.26905 1.2321,-1.5962 0.0614,-0.1639 -0.64114,-1.0663 -1.1185,-0.88143 -0.0842,-0.31143 -0.16716,-0.32043 -0.32624,-0.36004 -0.25281,-0.063 -0.36934,0.17477 -0.36934,0.17477 0,0 -0.14349,-0.16627 0.0478,-0.45906 0.0956,-0.14637 -0.93111,-0.0934 -1.2945,-0.0344 -0.36332,0.0589 -0.14353,-0.35379 -1.4028,-0.55986 -0.36789,-0.0601 -0.90414,0.13167 -0.90414,0.13167 -1e-5,0 -0.71548,0.0289 -1.0556,0.14098 -1.6745,0.88574 -2.08,2.2187 -1.771,3.3398 0.51402,1.8688 3.0141,3.201 4.7817,1.1122 0.31966,0.14031 1.4919,1.3906 1.4919,1.3906 0,0 0.43768,0.72404 0.78237,0.97813 0.10117,0.0745 0.23728,0.13184 0.35479,0.20623 -0.5608,0.27628 -0.95988,0.52385 -1.2834,0.76314 -0.1953,-0.0425 -0.60023,-0.12201 -0.69325,-0.1474 -0.46762,-0.12762 -1.4118,1.0383 -1.7034,1.9673 l 0.0979,-0.88026 c 0,0 -0.70877,0.79154 -0.79406,1.3032 -0.199,1.1946 0.61747,2.3828 0.41066,3.5857 -0.22987,1.3368 -1.7833,3.7587 -1.7833,3.7587 l -2.9775,0.41124 -1.1808,-0.0414 c 0.40733,-0.3825 0.83121,-0.74824 1.1681,-1.4022 0.25559,-0.49616 -0.95247,-1.2718 -0.95247,-1.2718 0,0 0.10958,-0.58906 -0.26214,-0.55402 l -0.98221,0.0984 c -0.4591,-0.17867 -0.67784,-0.59144 -1.436,-0.4818 0,0 -0.3359,-0.39901 -0.56974,-0.61112 -0.23386,-0.21209 -2.4101,0.9845 -2.4101,0.9845 l 1.4628,-0.31806 c 0,0 -1.3786,1.07 -1.8264,1.8228 -1.2714,2.1377 -1.0117,5.0783 -1.5427,7.0507 0.55716,-0.60894 0.89542,-0.8913 0.89542,-0.8913 -1.0918,1.8278 -0.93486,3.0051 -1.2846,4.4502 0,0 0.93512,-2.1901 1.1028,-2.4625 0.48216,-0.78312 1.7908,-1.7826 1.7908,-1.7826 0.11482,0.38927 -0.36518,1.3213 -0.7428,2.1362 0,0 1.1036,-1.2647 1.4809,-1.8776 0.37732,-0.61288 1.3881,-2.5574 1.8491,-3.3066 0.28593,-0.46467 1.0494,-0.26882 1.2921,-0.003 -0.29994,0.15335 -0.49752,0.56274 -0.49752,0.56274 l 0.73112,0.14507 c 1.1241,0.88232 2.1758,1.0398 3.2478,1.5106 l 0.5913,0.34372 c -1.1118,-0.009 -2.0968,0.0422 -2.4945,0.22951 -0.63048,0.29681 -1.0752,0.59037 -1.4302,0.8482 -0.65549,-0.10284 -1.1168,-0.23538 -1.1168,-0.23538 l -1.6202,3.9387 c -0.52779,1.2747 9.7281,4.8095 14.17,6.046 0.76141,0.212 1.8398,-0.36219 2.2207,-0.97284 0.009,-0.0144 0.45844,-0.70821 0.48588,-0.75209 0.14984,0.13492 0.32668,0.24835 0.51556,0.34839 1.2906,0.68359 2.9785,0.20569 3.7733,-1.0684 0.79478,-1.274 0.39003,-2.8339 -0.90058,-3.5175 -0.19635,-0.104 -0.4119,-0.1763 -0.62217,-0.22779 0.18887,-0.30187 0.54246,-0.83443 0.76316,-1.1872 0.16274,0.15576 0.34596,0.30942 0.55808,0.42178 1.2906,0.68361 2.9785,0.20571 3.7733,-1.0684 0.79478,-1.2741 0.38769,-2.8718 -0.90292,-3.5554 -0.21118,-0.11186 -0.43312,-0.17425 -0.66004,-0.22547 3.6704,-5.8752 6.7252,-10.715 10.483,-16.799 0.19633,0.22979 0.43241,0.44884 0.72119,0.6018 1.2906,0.68358 2.9785,0.20568 3.7733,-1.0684 0.79479,-1.2741 0.3877,-2.8718 -0.90292,-3.5554 -0.31131,-0.16488 -0.63028,-0.28563 -0.96996,-0.32042 0.18899,-0.30882 0.38153,-0.58642 0.55461,-0.87034 0.18523,0.2008 0.41666,0.35299 0.67635,0.49052 1.2906,0.68361 2.9785,0.20571 3.7733,-1.0684 0.79477,-1.2741 0.39002,-2.8339 -0.90059,-3.5175 -0.33413,-0.17697 -0.71832,-0.28589 -1.0836,-0.31344 0.28874,-2.0773 -3.3101,-4.9944 -4.8084,-5.2536 -0.47456,-0.0821 -1.0253,-0.10637 -1.6399,-0.0891 z m -12.822,4.7419 c 0.32503,1.0401 1.3882,2.2156 1.881,2.773 0.43282,0.48951 2.2468,1.5559 4.0325,2.5266 -0.0716,0.004 -0.51096,0.0324 -0.53014,0.0326 -0.32404,-0.004 -0.96594,0.81251 -1.0446,0.93849 -0.0786,0.126 -1.9709,4.4164 -1.9709,4.4164 l -0.37866,0.0233 -0.4212,-0.0501 -3.3386,-0.51679 2.0314,-3.4318 0.63501,-0.79928 c 0,0 0.19512,-1.1837 -0.3303,-1.0439 -0.0618,0.0163 -0.0985,-0.0925 -0.16544,-0.21789 0.13982,-0.82791 0.0594,-1.6678 -0.18693,-2.4211 0.23402,-0.14078 0.19088,-0.87323 0.006,-1.1407 -0.27841,-0.40263 -0.25943,-0.81226 -0.21902,-1.0888 z m 6.3282,7.0986 c 0,0 1.5146,-0.0693 2.9227,-0.0658 0.48121,0.36197 0.52616,0.95404 0.21611,1.6591 -0.57173,-0.35038 -1.2256,-0.6331 -1.7459,-0.57677 -0.84087,0.091 -1.4852,0.71661 -2.0367,1.4937 0.33416,-1.3382 0.64378,-2.5102 0.64378,-2.5102 z m -16.201,9.739 5.476,2.5138 c -0.56492,0.26447 -1.6357,0.81297 -2.0576,1.1529 -0.54224,0.43677 -0.86693,5.6788 -0.86693,5.6788 l -3.0846,-1.3306 1.0883,-2.0815 -0.7212,-0.60179 0.48705,-1.9685 -0.53475,-2.5138 0.2138,-0.84937 z m 6.1786,2.8127 1.5659,0.73988 -1.2001,0.26388 -0.36583,-1.0038 z m 3.8152,2.0839 c 0.034,0.43893 -0.38465,1.0451 -1.0335,1.736 -0.29263,-0.10476 -0.58798,-0.16588 -0.84471,-0.13809 -0.2313,0.0251 -0.42836,0.0971 -0.63442,0.19108 l 0.10196,-0.19633 -0.65186,-1.3282 3.0625,-0.26446 z"
             id="path4032"
             inkscape:connector-curvature="0" />
        </g>
        <path
           style="fill:none;stroke:#000000;stroke-width:9.91518784px;stroke-linecap:butt;stroke-linejoin:miter;stroke-opacity:1"
           d="m -157.80987,637.9249 c 3.5586,0 7.1172,0 10.6758,0 0.7491,0 1.5005,-0.0114 2.2475,0 3.8401,0.0582 6.7959,0.18105 10.6757,0.22126 1.6833,0.0176 3.3746,-0.0207 5.0569,0 1.3218,0.0163 2.6122,0.092 3.9332,0.11066 2.2418,0.0317 4.495,0 6.7425,0 3.7459,0 7.4918,0 11.2376,0 0.9365,0 1.873,0 2.8094,0 0.9365,0 1.8762,-0.0154 2.8094,0 2.475296,0.015 4.851093,0.17735 7.304493,0.22126 0.9326,0.0167 1.8729,0 2.8094,0 0.9364,0 1.8729,0 2.8094,0 4.1204,0 8.2409,0 12.3613,0 2.8094,0 5.6188,0 8.4282,0 1.1238,0 2.2476,0 3.3713,0 0.3746,0 0.7604,0.0181 1.1238,0 0.4063,-0.0198 0.7174,-0.0906 1.1237,-0.11065 0.3634,-0.0181 0.7492,0 1.1238,0 0.5619,0 1.1238,0 1.6857,0 1.311,0 2.6221,0 3.9331,0 0.3746,0 0.7684,0.0233 1.1238,0 0.2513,-0.0163 0.3106,-0.0942 0.5619,-0.11066 0.3553,-0.0233 0.7603,0.0181 1.1237,0 0.4063,-0.0198 0.7265,-0.0846 1.1238,-0.11065 0.4709,-0.0308 1.8751,0.0365 2.2475,0 0.2369,-0.0233 0.3106,-0.0942 0.5619,-0.11065 0.256,-0.0167 3.5526,0 3.9331,0 2.9967,0 5.9934,0 8.9901,0 2.4348,0 4.8697,0 7.3045,0 0.6006,0 3.3247,-0.0238 3.9331,0 6.111,0.40107 -1.4806,-0.0583 2.8094,0.11065 3.1099,0.12249 0.2092,0.12962 3.9332,0.22126 0.7434,0.0185 1.5041,-0.0185 2.2475,0 1.429,-0.0185 2.5834,0.18329 3.9332,0.22127 1.6687,0.0469 3.3815993,-0.0365 5.0568993,0 0.7675,0.0167 1.4812,0.0918 2.2475,0.11065 0.7434,0.0185 1.5029,-0.0163 2.2475,0 0.9492,0.0207 1.85920001,0.0919 2.80940009,0.11065 1.67730001,0.033 3.38429991,-0.0413 5.05689991,0 0.7663,0.0189 1.4831005,0.0891 2.2476003,0.11065 0.5561998,0.0158 1.1236998,0 1.6855996,0 1.6857008,0 3.3713008,0 5.0570008,0 0.5657,0 3.0605,0.0202 3.3712,0 0.2514,-0.0163 0.3106,-0.0942 0.562,-0.11065 0.3553,-0.0233 0.7492,0 1.1237,0 0.1877,0 0.3944,0.0163 0.562,0 0.2368,-0.0233 0.3249,-0.0873 0.562,-0.11065 0.1675,-0.0163 0.3744,0 0.5619,0 0.242,0 3.2193,0.015 3.3713,0 0.2368,-0.0233 0.3249,-0.0873 0.562,-0.11065 0.1675,-0.0163 0.3943,0.0162 0.5619,0 0.2369,-0.0234 0.3249,-0.0873 0.562,-0.11066 0.1676,-0.0163 0.3841,0.0119 0.562,0 0.3973,-0.0259 0.7175,-0.0906 1.1237,-0.11065 0.3633,-0.0181 0.7492,0 1.1237,0 0.562,0 1.1237,0 1.6857,0 2.2475,0 4.4951,0 6.7426,0 6.7425,0 13.4851,0 20.2277,0 2.0601,0 4.1204,0 6.1806,0 0.3908,0 2.6062,0.0198 2.8094,0 0.2369,-0.0234 0.3249,-0.0873 0.562,-0.11066 0.3584,-0.0352 2.6592,0.0295 2.8094,0 0.1318,-0.0259 -0.1676,-0.0942 0,-0.11065 0.1765,-0.0172 3.0231,0 3.3713,0 2.4348,0 4.8696,0 7.3044,0 2.0602,0 4.1205,0 6.1807,0 0.7492,0 1.4982,0 2.2475,0 0.7492,0 1.5029,-0.0163 2.2475,0 0.9492,0.0207 1.8602,0.0899 2.8095,0.11065 0.7445,0.0163 1.4982,0 2.2475,0 0.936395,0 1.872901,0 2.809399,0 0.936398,0 1.878698,-0.0202 2.809408,0 0.7675,0.0167 1.4812,0.0918 2.2475,0.11066 0.7434,0.0185 1.4984,0 2.2475,0 2.2475,0 4.495,0 6.7426,0 0.2938,0 2.0997,0.0145 2.2475,0 0.2369,-0.0234 0.3249,-0.0873 0.562,-0.11066 0.1676,-0.0163 0.4294,0.0259 0.5619,0 0.1319,-0.0259 -0.1318,-0.0846 0,-0.11065 0.1319,-0.0259 0.3944,0.0163 0.562,0 0.2369,-0.0233 0.3249,-0.0873 0.562,-0.11065 0.3349,-0.033 0.8589,0.0521 1.1237,0 0.1318,-0.026 -0.1318,-0.0846 0,-0.11066 0.2581,-0.0508 1.281,0.0575 1.6857,0.11066 0.2212,0.029 0.3745,0.0737 0.562,0.11065"
           id="path3010"
           inkscape:connector-curvature="0" />
        <path
           style="fill:none;stroke:#000000;stroke-width:3.37720537;stroke-linecap:round;stroke-linejoin:round"
           inkscape:connector-curvature="0"
           id="path4006"
           d="m -113.92491,451.62458 c -5.11695,4.92673 -1.7905,22.66446 14.200298,12.61059 1.535629,28.2505 28.400637,9.5939 26.673586,2.56276 9.721384,17.73664 22.518305,1.1828 22.262385,-5.3199 23.855594,7.61981 18.166304,-34.42247 3.065935,-23.84619 0.06399,-16.02869 -11.383936,-19.64173 -18.806146,-13.79505 -3.577804,-15.43783 -14.453603,-21.21825 -21.105861,1.57653 -9.46706,-1.64225 -17.782377,5.97811 -17.462467,14.58359 -15.28806,-22.46679 -24.05127,19.51031 -8.82773,11.62767 z" />
        <path
           style="fill:none;stroke:#000000;stroke-width:3.37720537;stroke-linecap:round;stroke-linejoin:round"
           inkscape:connector-curvature="0"
           id="path5253"
           d="m -60.274903,429.74919 c 5.18275,0.39427 5.566672,6.89752 4.222974,11.82424" />
      </g>
    </g>
  </g>
</svg>
