<?xml version="1.0" encoding="UTF-8" standalone="no"?>
<!-- Created with Inkscape (http://www.inkscape.org/) -->

<svg
   xmlns:dc="http://purl.org/dc/elements/1.1/"
   xmlns:cc="http://creativecommons.org/ns#"
   xmlns:rdf="http://www.w3.org/1999/02/22-rdf-syntax-ns#"
   xmlns:svg="http://www.w3.org/2000/svg"
   xmlns="http://www.w3.org/2000/svg"
   xmlns:sodipodi="http://sodipodi.sourceforge.net/DTD/sodipodi-0.dtd"
   xmlns:inkscape="http://www.inkscape.org/namespaces/inkscape"
   width="17.611818"
   height="17.781252"
   id="svg3339"
   version="1.1"
   inkscape:version="0.48.3.1 r9886"
   sodipodi:docname="POI_Grocery.svg"
   inkscape:export-filename="/home/christof/SEP/JoglEarth/Spezifikation/res/iconsPoi/POI_Grocery.png"
   inkscape:export-xdpi="2556"
   inkscape:export-ydpi="2556">
  <defs
     id="defs3341">
    <filter
       id="filter5365"
       width="1.1062"
       y="-0.26122001"
       x="-0.053116001"
       height="1.5224"
       color-interpolation-filters="sRGB">
      <feGaussianBlur
         id="feGaussianBlur5367"
         stdDeviation="8.02671" />
    </filter>
    <linearGradient
       id="linearGradient20716"
       x1="828.13"
       gradientUnits="userSpaceOnUse"
       y1="403.42001"
       gradientTransform="translate(2.7397,-6.2192)"
       x2="631.53998"
       y2="518.48999">
      <stop
         id="stop5150"
         stop-color="#2f7022"
         offset="0" />
      <stop
         id="stop5152"
         stop-color="#2f7022"
         stop-opacity="0"
         offset="1" />
    </linearGradient>
    <linearGradient
       id="linearGradient20718"
       x1="706.98999"
       gradientUnits="userSpaceOnUse"
       y1="526.10999"
       gradientTransform="translate(-114.94,39.935)"
       x2="809.57001"
       y2="311.88">
      <stop
         id="stop5608"
         stop-color="#2fb022"
         offset="0" />
      <stop
         id="stop5610"
         stop-color="#2f7022"
         stop-opacity="0"
         offset="1" />
    </linearGradient>
    <linearGradient
       id="linearGradient5112"
       x1="375.01999"
       gradientUnits="userSpaceOnUse"
       y1="812.82001"
       gradientTransform="matrix(-0.6769,0.62278,-0.64593,-0.70206,1207.2,-108.62)"
       x2="394.82999"
       y2="741.46997">
      <stop
         id="stop3979"
         stop-color="#3a2d49"
         offset="0" />
      <stop
         id="stop3981"
         stop-color="#3a2d49"
         stop-opacity="0"
         offset="1" />
    </linearGradient>
    <linearGradient
       id="linearGradient3698"
       x1="828.13"
       gradientUnits="userSpaceOnUse"
       y1="403.42001"
       gradientTransform="translate(2.7397,-6.2192)"
       x2="631.53998"
       y2="518.48999">
      <stop
         id="stop3700"
         stop-color="#2f7022"
         offset="0" />
      <stop
         id="stop3702"
         stop-color="#2f7022"
         stop-opacity="0"
         offset="1" />
    </linearGradient>
    <linearGradient
       id="linearGradient3704"
       x1="706.98999"
       gradientUnits="userSpaceOnUse"
       y1="526.10999"
       gradientTransform="translate(-114.94,39.935)"
       x2="809.57001"
       y2="311.88">
      <stop
         id="stop3706"
         stop-color="#2fb022"
         offset="0" />
      <stop
         id="stop3708"
         stop-color="#2f7022"
         stop-opacity="0"
         offset="1" />
    </linearGradient>
    <filter
       id="filter6217"
       color-interpolation-filters="sRGB">
      <feGaussianBlur
         id="feGaussianBlur6219"
         in="SourceGraphic"
         stdDeviation="6"
         result="result0" />
      <feDiffuseLighting
         id="feDiffuseLighting6221"
         lighting-color="#ffffff"
         result="result5"
         diffuseConstant="1"
         surfaceScale="4">
        <feDistantLight
           id="feDistantLight6223"
           elevation="45"
           azimuth="235" />
      </feDiffuseLighting>
      <feComposite
         id="feComposite6225"
         in="result5"
         in2="SourceGraphic"
         k3="0"
         k2="0"
         k1="1.4"
         result="fbSourceGraphic"
         k4="0"
         operator="arithmetic" />
      <feGaussianBlur
         id="feGaussianBlur6227"
         result="result0"
         stdDeviation="6"
         in="fbSourceGraphic" />
      <feSpecularLighting
         id="feSpecularLighting6229"
         lighting-color="#ffffff"
         specularConstant="1"
         surfaceScale="4"
         result="result1"
         specularExponent="25"
         in="result0">
        <feDistantLight
           id="feDistantLight6231"
           elevation="45"
           azimuth="235" />
      </feSpecularLighting>
      <feComposite
         id="feComposite6233"
         in="fbSourceGraphic"
         in2="result1"
         k3="1"
         k2="1"
         k1="0"
         result="result4"
         k4="0"
         operator="arithmetic" />
      <feComposite
         id="feComposite6235"
         operator="in"
         result="result2"
         in2="SourceGraphic"
         in="result4" />
    </filter>
    <linearGradient
       id="linearGradient4641"
       x1="823.32001"
       gradientUnits="userSpaceOnUse"
       y1="820.46997"
       gradientTransform="matrix(0.55552,-0.021564,0.012734,0.58027,44.125,-295.36)"
       x2="814.02002"
       y2="881.89001">
      <stop
         id="stop4398"
         stop-color="#97bf0f"
         offset="0" />
      <stop
         id="stop4400"
         stop-color="#97bf0f"
         stop-opacity="0"
         offset="1" />
    </linearGradient>
    <radialGradient
       id="radialGradient4643"
       gradientUnits="userSpaceOnUse"
       cy="802.44"
       cx="827.69"
       gradientTransform="matrix(0.54978,0.076109,-0.29966,2.1386,299.55,-1626.6)"
       r="10.848">
      <stop
         id="stop4408"
         stop-color="#358721"
         offset="0" />
      <stop
         id="stop4410"
         stop-color="#358721"
         stop-opacity="0"
         offset="1" />
    </radialGradient>
    <linearGradient
       id="linearGradient3726"
       x1="823.32001"
       gradientUnits="userSpaceOnUse"
       y1="820.46997"
       gradientTransform="matrix(0.55552,-0.021564,0.012734,0.58027,44.125,-295.36)"
       x2="814.02002"
       y2="881.89001">
      <stop
         id="stop3728"
         stop-color="#97bf0f"
         offset="0" />
      <stop
         id="stop3730"
         stop-color="#97bf0f"
         stop-opacity="0"
         offset="1" />
    </linearGradient>
    <radialGradient
       id="radialGradient3732"
       gradientUnits="userSpaceOnUse"
       cy="802.44"
       cx="827.69"
       gradientTransform="matrix(0.54978,0.076109,-0.29966,2.1386,299.55,-1626.6)"
       r="10.848">
      <stop
         id="stop3734"
         stop-color="#358721"
         offset="0" />
      <stop
         id="stop3736"
         stop-color="#358721"
         stop-opacity="0"
         offset="1" />
    </radialGradient>
    <linearGradient
       id="linearGradient3738"
       x1="375.01999"
       gradientUnits="userSpaceOnUse"
       y1="812.82001"
       gradientTransform="matrix(-0.6769,0.62278,-0.64593,-0.70206,1207.2,-108.62)"
       x2="394.82999"
       y2="741.46997">
      <stop
         id="stop3740"
         stop-color="#3a2d49"
         offset="0" />
      <stop
         id="stop3742"
         stop-color="#3a2d49"
         stop-opacity="0"
         offset="1" />
    </linearGradient>
    <filter
       id="filter3673"
       inkscape:label="Desaturate"
       x="0"
       y="0"
       width="1"
       height="1"
       inkscape:menu="Color"
       inkscape:menu-tooltip="Render in shades of gray by reducing saturation to zero"
       color-interpolation-filters="sRGB">
      <feColorMatrix
         id="feColorMatrix3675"
         type="saturate"
         values="0" />
    </filter>
  </defs>
  <sodipodi:namedview
     id="base"
     pagecolor="#ffffff"
     bordercolor="#666666"
     borderopacity="1.0"
     inkscape:pageopacity="0"
     inkscape:pageshadow="2"
     inkscape:zoom="90.509668"
     inkscape:cx="7.9551705"
     inkscape:cy="4.3557233"
     inkscape:document-units="px"
     inkscape:current-layer="layer1"
     showgrid="false"
     fit-margin-top="0"
     fit-margin-left="0"
     fit-margin-right="0"
     fit-margin-bottom="0"
     inkscape:window-width="1024"
     inkscape:window-height="552"
     inkscape:window-x="0"
     inkscape:window-y="26"
     inkscape:window-maximized="1" />
  <metadata
     id="metadata3344">
    <rdf:RDF>
      <cc:Work
         rdf:about="">
        <dc:format>image/svg+xml</dc:format>
        <dc:type
           rdf:resource="http://purl.org/dc/dcmitype/StillImage" />
        <dc:title></dc:title>
      </cc:Work>
    </rdf:RDF>
  </metadata>
  <g
     inkscape:label="Ebene 1"
     inkscape:groupmode="layer"
     id="layer1"
     transform="translate(-341.24097,-523.42468)">
    <g
       id="g4450">
      <path
         sodipodi:type="arc"
         style="fill:none;stroke:#000000;stroke-width:1.20000005;stroke-miterlimit:10;stroke-opacity:1;stroke-dasharray:none;stroke-dashoffset:0"
         id="path2987"
         sodipodi:cx="9.6534653"
         sodipodi:cy="9.3654099"
         sodipodi:rx="6.3118811"
         sodipodi:ry="6.5594058"
         d="m 15.965346,9.3654099 c 0,3.6226601 -2.825925,6.5594061 -6.3118807,6.5594061 -3.4859557,0 -6.3118811,-2.936746 -6.3118811,-6.5594061 0,-3.6226598 2.8259254,-6.5594059 6.3118811,-6.5594059 3.4859557,0 6.3118807,2.9367461 6.3118807,6.5594059 z"
         transform="matrix(1.1568627,0,0,1.0943396,338.86037,521.92235)" />
      <g
         id="g4422">
        <path
           sodipodi:nodetypes="cccc"
           inkscape:connector-curvature="0"
           id="path4095"
           d="m 345.98288,531.37895 0.89699,4.46578 c 0.94295,1.41384 5.65769,1.43629 6.35886,0 l 0.91545,-4.23337"
           style="fill:#fffffd;fill-opacity:1;stroke:#000000;stroke-width:0.37799999;stroke-linecap:butt;stroke-linejoin:miter;stroke-miterlimit:4;stroke-opacity:1;stroke-dasharray:none" />
        <path
           style="fill:none;stroke:#000000;stroke-width:0.31903762;stroke-linecap:butt;stroke-linejoin:round;stroke-miterlimit:4;stroke-opacity:1;stroke-dasharray:none"
           d="m 346.29693,532.81667 c 1.12702,1.559 6.76213,1.58374 7.60018,0"
           id="path4097"
           inkscape:connector-curvature="0"
           sodipodi:nodetypes="cc" />
        <path
           sodipodi:nodetypes="cc"
           inkscape:connector-curvature="0"
           id="path4099"
           d="m 346.67674,534.81321 c 1.00628,1.57962 6.03769,1.60469 6.78595,0"
           style="fill:none;stroke:#000000;stroke-width:0.30345079;stroke-linecap:butt;stroke-linejoin:miter;stroke-miterlimit:4;stroke-opacity:1;stroke-dasharray:none" />
        <path
           style="fill:none;stroke:#000000;stroke-width:0.31161496;stroke-linecap:butt;stroke-linejoin:miter;stroke-miterlimit:4;stroke-opacity:1;stroke-dasharray:none"
           d="m 346.46924,533.86158 c 1.06846,1.56884 6.41077,1.59373 7.20526,0"
           id="path4101"
           inkscape:connector-curvature="0"
           sodipodi:nodetypes="cc" />
        <path
           sodipodi:nodetypes="cc"
           inkscape:connector-curvature="0"
           id="path4108"
           d="m 346.5621,531.90415 c 1.49097,-0.69458 5.61913,-0.62017 6.86866,0.17792"
           style="fill:none;stroke:#000000;stroke-width:0.24588287;stroke-linecap:butt;stroke-linejoin:round;stroke-miterlimit:4;stroke-opacity:1;stroke-dasharray:none" />
        <path
           sodipodi:nodetypes="zzz"
           inkscape:connector-curvature="0"
           id="path4103"
           d="m 346.07245,531.59743 c 0.79287,1.65532 6.74296,1.6681 7.96585,0.18476 1.2229,-1.48333 -8.75873,-1.84013 -7.96585,-0.18476 z"
           style="fill:none;stroke:#000000;stroke-width:0.537;stroke-linecap:butt;stroke-linejoin:miter;stroke-miterlimit:4;stroke-opacity:1;stroke-dasharray:none" />
        <path
           style="fill:none;stroke:#000000;stroke-width:0.25298193;stroke-linecap:butt;stroke-linejoin:round;stroke-miterlimit:4;stroke-opacity:1;stroke-dasharray:none"
           d="m 347.57149,532.50691 c 1.92847,-0.38657 3.23142,-0.36284 4.90018,0.17508"
           id="path4110"
           inkscape:connector-curvature="0"
           sodipodi:nodetypes="cc" />
        <path
           style="fill:none;stroke:#000000;stroke-width:0.26253468;stroke-linecap:butt;stroke-linejoin:miter;stroke-miterlimit:4;stroke-opacity:1;stroke-dasharray:none"
           d="m 349.96836,532.78846 c -0.17174,0.5583 -0.25242,1.36463 -0.0668,2.13168 0.26715,1.10391 -0.14312,1.57339 -0.01,1.97943"
           id="path4112"
           inkscape:connector-curvature="0"
           sodipodi:nodetypes="csc" />
        <path
           sodipodi:nodetypes="csc"
           inkscape:connector-curvature="0"
           id="path4114"
           d="m 348.7147,532.73817 c 0.17174,0.5583 0.30271,1.36463 0.11709,2.13168 -0.26715,1.10391 0.294,1.62368 0.16088,2.02972"
           style="fill:none;stroke:#000000;stroke-width:0.26253468;stroke-linecap:butt;stroke-linejoin:miter;stroke-miterlimit:4;stroke-opacity:1;stroke-dasharray:none" />
        <path
           style="fill:none;stroke:#000000;stroke-width:0.26253468;stroke-linecap:butt;stroke-linejoin:miter;stroke-miterlimit:4;stroke-opacity:1;stroke-dasharray:none"
           d="m 350.765,532.78846 c 0.17174,0.5583 0.25242,1.36463 0.0668,2.13168 -0.26715,1.10391 0.14312,1.57339 0.01,1.97943"
           id="path4116"
           inkscape:connector-curvature="0"
           sodipodi:nodetypes="csc" />
        <path
           sodipodi:nodetypes="csc"
           inkscape:connector-curvature="0"
           id="path4118"
           d="m 351.74668,532.76585 c -0.12387,0.53029 -0.18207,1.29617 -0.0482,2.02474 0.1927,1.04853 -0.10324,1.49447 -0.007,1.88013"
           style="fill:none;stroke:#000000;stroke-width:0.21730779;stroke-linecap:butt;stroke-linejoin:miter;stroke-miterlimit:4;stroke-opacity:1;stroke-dasharray:none" />
        <path
           style="fill:none;stroke:#000000;stroke-width:0.23803931;stroke-linecap:butt;stroke-linejoin:miter;stroke-miterlimit:4;stroke-opacity:1;stroke-dasharray:none"
           d="m 347.98394,532.62533 c -0.14944,0.52748 -0.16936,1.38988 -0.008,2.11458 0.23246,1.04297 0.0263,1.53683 0.14188,1.92045"
           id="path4120"
           inkscape:connector-curvature="0"
           sodipodi:nodetypes="csc" />
        <path
           sodipodi:nodetypes="csc"
           inkscape:connector-curvature="0"
           id="path4122"
           d="m 352.51864,532.60292 c 0.10118,0.51307 -0.002,1.45526 -0.11148,2.16018 -0.15746,1.01448 -0.11678,1.39565 -0.19518,1.76879"
           style="fill:none;stroke:#000000;stroke-width:0.19321387;stroke-linecap:butt;stroke-linejoin:miter;stroke-miterlimit:4;stroke-opacity:1;stroke-dasharray:none" />
        <path
           style="fill:none;stroke:#000000;stroke-width:0.19321387;stroke-linecap:butt;stroke-linejoin:miter;stroke-miterlimit:4;stroke-opacity:1;stroke-dasharray:none"
           d="m 347.08731,532.40176 c 0.10118,0.51307 0.34993,1.35468 0.24056,2.0596 -0.15746,1.01448 0.18499,1.54652 0.10659,1.91966"
           id="path4124"
           inkscape:connector-curvature="0"
           sodipodi:nodetypes="csc" />
        <path
           style="fill:none;stroke:#000000;stroke-width:0.14387137;stroke-linecap:butt;stroke-linejoin:miter;stroke-miterlimit:4;stroke-opacity:1;stroke-dasharray:none"
           d="m 353.49165,532.12565 c -0.0569,0.50611 -0.53623,1.53882 -0.47483,2.23417 0.0885,1.00073 -0.24856,1.57722 -0.20416,1.94529"
           id="path4126"
           inkscape:connector-curvature="0"
           sodipodi:nodetypes="csc" />
        <path
           sodipodi:nodetypes="csc"
           inkscape:connector-curvature="0"
           id="path4128"
           d="m 346.55161,532.07536 c -0.0569,0.50611 0.21815,1.38794 0.27955,2.08329 0.0885,1.00073 0.15378,1.52693 0.19818,1.895"
           style="fill:none;stroke:#000000;stroke-width:0.14387137;stroke-linecap:butt;stroke-linejoin:miter;stroke-miterlimit:4;stroke-opacity:1;stroke-dasharray:none" />
        <path
           style="fill:none;stroke:#000000;stroke-width:0.19469795;stroke-linecap:butt;stroke-linejoin:miter;stroke-miterlimit:4;stroke-opacity:1;stroke-dasharray:none"
           d="m 350.06641,530.57319 c 0.16639,0.91525 -0.2589,1.46408 0.0461,2.29431"
           id="path4130"
           inkscape:connector-curvature="0"
           sodipodi:nodetypes="cc" />
        <path
           sodipodi:nodetypes="cc"
           inkscape:connector-curvature="0"
           id="path4132"
           d="m 349.18535,530.65576 c -0.12918,0.92371 0.36753,1.38502 0.13065,2.22292"
           style="fill:none;stroke:#000000;stroke-width:0.17233862;stroke-linecap:butt;stroke-linejoin:miter;stroke-miterlimit:4;stroke-opacity:1;stroke-dasharray:none" />
        <path
           style="fill:none;stroke:#000000;stroke-width:0.16642453;stroke-linecap:butt;stroke-linejoin:miter;stroke-miterlimit:4;stroke-opacity:1;stroke-dasharray:none"
           d="m 350.88383,530.43405 c -0.37017,1.2697 0.22344,1.67015 0.003,2.51009"
           id="path4134"
           inkscape:connector-curvature="0"
           sodipodi:nodetypes="cc" />
        <path
           sodipodi:nodetypes="cc"
           inkscape:connector-curvature="0"
           id="path4136"
           d="m 348.32414,530.55905 c 0.24517,0.8947 0.0578,1.48265 0.2782,2.32259"
           style="fill:none;stroke:#000000;stroke-width:0.16642453;stroke-linecap:butt;stroke-linejoin:miter;stroke-miterlimit:4;stroke-opacity:1;stroke-dasharray:none" />
        <path
           sodipodi:nodetypes="cc"
           inkscape:connector-curvature="0"
           id="path4138"
           d="m 351.60508,530.43405 c 0.12017,0.98845 -0.41094,1.5139 -0.0343,2.44759"
           style="fill:none;stroke:#000000;stroke-width:0.16642453;stroke-linecap:butt;stroke-linejoin:miter;stroke-miterlimit:4;stroke-opacity:1;stroke-dasharray:none" />
        <path
           style="fill:none;stroke:#000000;stroke-width:0.1745131;stroke-linecap:butt;stroke-linejoin:miter;stroke-miterlimit:4;stroke-opacity:1;stroke-dasharray:none"
           d="m 347.59546,530.65684 c -0.0166,0.92629 0.30021,1.31222 0.32175,2.06451"
           id="path4148"
           inkscape:connector-curvature="0"
           sodipodi:nodetypes="cc" />
        <path
           sodipodi:nodetypes="cc"
           inkscape:connector-curvature="0"
           id="path4150"
           d="m 352.57663,530.7705 c -0.44848,0.94669 -0.2155,1.19139 -0.5326,1.96219"
           style="fill:none;stroke:#000000;stroke-width:0.15182225;stroke-linecap:butt;stroke-linejoin:miter;stroke-miterlimit:4;stroke-opacity:1;stroke-dasharray:none" />
        <path
           sodipodi:nodetypes="cc"
           inkscape:connector-curvature="0"
           id="path4152"
           d="m 346.85583,530.75528 c 0.075,0.78931 0.18479,1.02665 0.32235,1.74263"
           style="fill:none;stroke:#000000;stroke-width:0.12138699;stroke-linecap:butt;stroke-linejoin:miter;stroke-miterlimit:4;stroke-opacity:1;stroke-dasharray:none" />
        <path
           style="fill:none;stroke:#000000;stroke-width:0.13969393;stroke-linecap:butt;stroke-linejoin:miter;stroke-miterlimit:4;stroke-opacity:1;stroke-dasharray:none"
           d="m 353.30713,530.98318 c 0.11597,0.67598 -0.58956,0.82989 -0.37685,1.44308"
           id="path4154"
           inkscape:connector-curvature="0"
           sodipodi:nodetypes="cc" />
        <path
           style="fill:none;stroke:#000000;stroke-width:0.55000001;stroke-linecap:butt;stroke-linejoin:round;stroke-miterlimit:4;stroke-opacity:1;stroke-dasharray:none"
           d="m 346.02614,531.44789 c 0,-4.9375 8.10274,-4.96248 8.10274,0.0375"
           id="path4156"
           inkscape:connector-curvature="0"
           sodipodi:nodetypes="cc" />
      </g>
    </g>
    <path
       style="fill:#ffffff;fill-opacity:1;stroke-width:1.35000002;stroke-miterlimit:10;stroke-dasharray:none"
       d="M 3.8242557,13.043251 C 2.0660848,11.097186 1.6679385,8.2785608 2.8203564,5.9362751 3.843726,3.8562797 5.8837488,2.4731711 8.2225453,2.273662 c 0.1645821,-0.014039 0.9623693,-0.014039 1.1269514,0 2.3438193,0.1999375 4.3967933,1.5939769 5.4091853,3.6730219 0.432633,0.8884523 0.644804,1.8060411 0.645276,2.7906491 4.53e-4,0.9359048 -0.186066,1.805734 -0.568528,2.651398 -0.277085,0.612663 -0.716463,1.272142 -1.142809,1.715287 l -0.06112,0.06353 -1.072055,-2.22e-4 -1.072054,-2.22e-4 0.07631,-0.04673 c 0.278602,-0.170633 0.521604,-0.415512 0.605628,-0.610306 0.01046,-0.02425 0.210714,-0.934058 0.445004,-2.021787 0.424483,-1.970728 0.426152,-1.9780201 0.47436,-2.0716021 0.08513,-0.1652501 0.08882,-0.1906532 0.07431,-0.5116533 -0.01299,-0.287383 -0.03053,-0.4552879 -0.06947,-0.6650164 C 12.893426,6.1623547 12.273197,5.271809 11.324981,4.7006636 9.9842632,3.8930991 8.1395296,3.8153968 6.7002657,4.505865 6.1106374,4.7887316 5.6302872,5.1740679 5.2614741,5.6600615 5.1091166,5.8608267 5.0221503,6.0026975 4.9025201,6.2456343 4.6585223,6.7411286 4.5326715,7.2494724 4.514109,7.8145275 c -0.00813,0.2475844 0.00443,0.3304396 0.071978,0.4745768 0.040701,0.086854 0.062396,0.1892787 0.4543643,2.1450837 l 0.4116222,2.053873 0.040076,0.06077 c 0.05026,0.07621 0.2144493,0.247982 0.3162892,0.330897 0.1035732,0.08433 0.1880864,0.140422 0.3324628,0.220673 l 0.1205275,0.067 -1.1624389,7.6e-5 -1.1624389,7.7e-5 -0.1122953,-0.124296 z"
       id="path3055"
       inkscape:connector-curvature="0"
       transform="translate(341.24097,523.42468)" />
    <path
       style="fill:#ffffff;fill-opacity:1;stroke-width:1.35000002;stroke-miterlimit:10;stroke-dasharray:none"
       d="M 12.448613,7.3497774 C 12.336168,7.3021807 12.061134,7.2139502 11.868565,7.163699 10.584088,6.8285136 8.3348953,6.7103634 6.7088948,6.8926613 6.0941003,6.9615886 5.5561768,7.0780047 5.2256279,7.2136666 c -0.060427,0.0248 -0.074578,0.027438 -0.074578,0.013902 0,-0.067734 0.112763,-0.4208019 0.1946759,-0.6095427 C 5.7491793,5.688404 6.6251794,4.9998731 7.7529822,4.7259362 8.4967427,4.545281 9.2994362,4.5553067 10.023458,4.7542948 c 1.281257,0.3521373 2.175535,1.2097839 2.468872,2.3677429 0.03561,0.140587 0.06005,0.2674512 0.05125,0.2661372 -0.0036,-5.414e-4 -0.04636,-0.01782 -0.09497,-0.038398 z"
       id="path3057"
       inkscape:connector-curvature="0"
       transform="translate(341.24097,523.42468)" />
    <path
       style="fill:#ffffff;fill-opacity:1;stroke-width:1.35000002;stroke-miterlimit:10;stroke-dasharray:none"
       d="m 5.2566559,7.9640891 -0.1871807,-0.00593 0.03588,-0.040832 c 0.040449,-0.046031 0.1402876,-0.1117468 0.2390441,-0.1573447 0.071327,-0.032933 0.2115895,-0.083562 0.2315012,-0.083562 0.00713,0 0.020116,0.054711 0.031312,0.1319444 0.01052,0.07257 0.0221,0.1396894 0.025733,0.1491554 0.00726,0.01892 0.011311,0.018849 -0.3762899,0.00657 l 0,0 z"
       id="path3059"
       inkscape:connector-curvature="0"
       transform="translate(341.24097,523.42468)" />
    <path
       style="fill:#ffffff;fill-opacity:1;stroke-width:1.35000002;stroke-miterlimit:10;stroke-dasharray:none"
       d="M 6.0054136,7.9865135 C 5.8828354,7.9830087 5.7792109,7.9768079 5.775137,7.972734 5.7684467,7.9660437 5.738817,7.8039559 5.7209092,7.6760834 l -0.00701,-0.050056 0.1467066,-0.035231 c 0.1728582,-0.041512 0.3939708,-0.085138 0.4000899,-0.07894 0.00237,0.0024 0.01,0.061536 0.016959,0.1314183 0.00696,0.069882 0.021282,0.1780196 0.031826,0.2403058 l 0.019171,0.1132476 -0.050184,-0.00197 c -0.027601,-0.00108 -0.1504751,-0.00484 -0.2730534,-0.00834 z"
       id="path3061"
       inkscape:connector-curvature="0"
       transform="translate(341.24097,523.42468)" />
    <path
       style="fill:#ffffff;fill-opacity:1;stroke-width:1.35000002;stroke-miterlimit:10;stroke-dasharray:none"
       d="m 6.5680776,7.9996341 c -0.037513,-0.00326 -0.048004,-0.00892 -0.052396,-0.028298 -0.021398,-0.094394 -0.030034,-0.146902 -0.044493,-0.270508 -0.00903,-0.077155 -0.01641,-0.1585078 -0.01641,-0.1807836 l 0,-0.040502 0.074578,-0.01215 c 0.094196,-0.015346 0.4562744,-0.056138 0.498295,-0.056138 0.031481,0 0.031607,2.87e-4 0.049731,0.1132475 0.017222,0.1073369 0.035808,0.2669505 0.043095,0.3700897 0.00373,0.052782 0.00947,0.049971 -0.1298445,0.063596 -0.069221,0.00677 -0.3303415,0.037823 -0.3590777,0.042702 -0.00911,0.00155 -0.03768,9.821e-4 -0.063477,-0.00126 l 0,0 z"
       id="path3063"
       inkscape:connector-curvature="0"
       transform="translate(341.24097,523.42468)" />
    <path
       style="fill:#ffffff;fill-opacity:1;stroke-width:1.35000002;stroke-miterlimit:10;stroke-dasharray:none"
       d="m 7.3005697,7.905678 c -0.00234,-0.0076 -0.00727,-0.058468 -0.010963,-0.1130483 -0.00369,-0.054581 -0.016852,-0.1657172 -0.029247,-0.2469701 -0.012395,-0.081253 -0.020978,-0.1491141 -0.019074,-0.1508027 0.00517,-0.00458 0.4457593,-0.027947 0.5255072,-0.027866 l 0.069053,7.04e-5 5.673e-4,0.1795388 c 3.12e-4,0.098746 0.00458,0.2143418 0.00948,0.2568787 0.0049,0.042537 0.00732,0.079218 0.00539,0.081514 -0.00438,0.00519 -0.4084707,0.033345 -0.4881012,0.034009 -0.037411,3.122e-4 -0.059878,-0.00447 -0.062605,-0.013324 z"
       id="path3065"
       inkscape:connector-curvature="0"
       transform="translate(341.24097,523.42468)" />
    <path
       style="fill:#ffffff;fill-opacity:1;stroke-width:1.35000002;stroke-miterlimit:10;stroke-dasharray:none"
       d="M 8.0397763,7.8711303 C 8.0212587,7.8167158 8.0068084,7.4755264 8.0197144,7.397445 l 0.00685,-0.041432 0.3621253,0 0.3621252,0 0.00804,0.1072717 c 0.00641,0.085472 -9.345e-4,0.4011706 -0.00948,0.4076577 -0.00111,8.445e-4 -0.1602774,0.00402 -0.3536992,0.00707 -0.2547045,0.00401 -0.3528405,0.00211 -0.3558988,-0.00688 z"
       id="path3067"
       inkscape:connector-curvature="0"
       transform="translate(341.24097,523.42468)" />
    <path
       style="fill:#ffffff;fill-opacity:1;stroke-width:1.35000002;stroke-miterlimit:10;stroke-dasharray:none"
       d="m 9.1782443,7.8947438 c -0.121534,-0.00565 -0.2209709,-0.011088 -0.2209709,-0.012095 0,-0.00101 0.00159,-0.118092 0.00352,-0.2601898 l 0.00352,-0.2583595 0.2450694,0.00805 c 0.1347882,0.00443 0.2469287,0.00985 0.2492013,0.012058 0.00227,0.00221 -0.00176,0.060157 -0.00895,0.1287794 -0.0072,0.068622 -0.014026,0.1856233 -0.01518,0.2600023 -0.00175,0.1127254 -0.00486,0.1349672 -0.018671,0.1336287 -0.00912,-8.831e-4 -0.1160097,-0.00622 -0.2375437,-0.01187 z"
       id="path3069"
       inkscape:connector-curvature="0"
       transform="translate(341.24097,523.42468)" />
    <path
       style="fill:#ffffff;fill-opacity:1;stroke-width:1.35000002;stroke-miterlimit:10;stroke-dasharray:none"
       d="M 10.073176,7.9630782 C 10.018494,7.955444 9.6498472,7.9197648 9.6234488,7.9195515 9.6056075,7.9194074 9.602635,7.835762 9.6146286,7.6713516 c 0.00701,-0.096081 0.016209,-0.1951517 0.020444,-0.2201566 0.00712,-0.042039 0.010589,-0.045739 0.046055,-0.049126 0.054793,-0.00523 0.5889517,0.042679 0.6008257,0.053892 0.0105,0.00991 -0.01419,0.2268024 -0.04647,0.4082855 l -0.01867,0.1049612 -0.03867,0.00156 c -0.02127,8.596e-4 -0.0685,-0.0026 -0.104961,-0.00769 z"
       id="path3071"
       inkscape:connector-curvature="0"
       transform="translate(341.24097,523.42468)" />
    <path
       style="fill:#ffffff;fill-opacity:1;stroke-width:1.35000002;stroke-miterlimit:10;stroke-dasharray:none"
       d="m 10.807904,8.0685569 c -0.06988,-0.014079 -0.188533,-0.034572 -0.26367,-0.045538 -0.08018,-0.011704 -0.138736,-0.025474 -0.141753,-0.033338 -0.0028,-0.00737 0.0074,-0.092054 0.02264,-0.1881882 0.01528,-0.096134 0.03101,-0.2099138 0.03495,-0.2528436 0.007,-0.07653 0.0077,-0.077989 0.03663,-0.074707 0.04083,0.00464 0.561785,0.079408 0.61055,0.08763 l 0.0397,0.00669 -0.0488,0.1397038 c -0.02684,0.076837 -0.0629,0.1943941 -0.08013,0.2612378 -0.03698,0.1434694 -0.02328,0.1369917 -0.210116,0.09935 z"
       id="path3073"
       inkscape:connector-curvature="0"
       transform="translate(341.24097,523.42468)" />
    <path
       style="fill:#ffffff;fill-opacity:1;stroke-width:1.35000002;stroke-miterlimit:10;stroke-dasharray:none"
       d="m 11.443196,8.139924 c -0.121534,-0.00414 -0.237683,-0.00819 -0.258109,-0.00902 -0.03653,-0.00147 -0.03701,-0.00215 -0.02962,-0.041561 0.01959,-0.1044462 0.140719,-0.4725655 0.159158,-0.4837104 0.02178,-0.013161 0.651905,0.1435029 0.677448,0.1684287 0.02092,0.020411 -0.03986,0.2044731 -0.104926,0.3177502 l -0.03429,0.059693 -0.09435,-0.00203 c -0.05189,-0.00112 -0.193783,-0.00542 -0.315317,-0.00955 z"
       id="path3075"
       inkscape:connector-curvature="0"
       transform="translate(341.24097,523.42468)" />
    <path
       style="fill:#ffffff;fill-opacity:1;stroke-width:1.35000002;stroke-miterlimit:10;stroke-dasharray:none"
       d="m 12.244496,8.1653259 c -0.106188,-0.00182 -0.197305,-0.00755 -0.202483,-0.012727 -0.0052,-0.00519 0.0052,-0.038555 0.02304,-0.074306 0.03515,-0.070275 0.06286,-0.1515919 0.07365,-0.2161061 0.0067,-0.040283 0.0072,-0.040601 0.04235,-0.029029 0.07821,0.025746 0.282635,0.1310405 0.348001,0.1792439 0.08173,0.06027 0.101369,0.093207 0.07971,0.1336763 -0.0138,0.025778 -0.0197,0.027369 -0.09297,0.025044 -0.04303,-0.00137 -0.165116,-0.00397 -0.271304,-0.0058 l 0,0 z"
       id="path3077"
       inkscape:connector-curvature="0"
       transform="translate(341.24097,523.42468)"
       inkscape:export-filename="/home/gabi/SEP/JoglEarth/Spezifikation/res/iconsPoi/POI_Grocery.png"
       inkscape:export-xdpi="2556"
       inkscape:export-ydpi="2556" />
    <path
       style="fill:#ffffff;stroke:none;stroke-width:0.13921164999999999;stroke-miterlimit:4;stroke-opacity:1;stroke-dasharray:none;stroke-dashoffset:0"
       d="M 8.2954734,15.224732 C 6.7041924,15.105243 5.2370015,14.445148 4.1169065,13.344778 l -0.1712524,-0.168237 1.160097,-0.0017 c 0.6380534,-9.15e-4 1.162583,-0.0013 1.1656214,-9.06e-4 0.00304,4.17e-4 0.070158,0.02896 0.1491553,0.06343 0.5078721,0.221607 1.1376523,0.360643 1.9334951,0.426856 0.2483875,0.02067 0.9553047,0.01702 1.2136517,-0.0063 0.7517604,-0.06774 1.3471414,-0.212225 1.8171404,-0.440995 l 0.09595,-0.0467 1.071708,0.0055 1.071709,0.0055 -0.149155,0.148077 c -0.938484,0.931702 -2.179239,1.57376 -3.4914904,1.806754 -0.5390656,0.09571 -1.1593273,0.128248 -1.6880592,0.08854 l 0,0 z"
       id="path3068"
       inkscape:connector-curvature="0"
       transform="translate(341.24097,523.42468)" />
  </g>
</svg>
