<?xml version="1.0" encoding="UTF-8" standalone="no"?>
<!-- Created with Inkscape (http://www.inkscape.org/) -->

<svg
   xmlns:dc="http://purl.org/dc/elements/1.1/"
   xmlns:cc="http://creativecommons.org/ns#"
   xmlns:rdf="http://www.w3.org/1999/02/22-rdf-syntax-ns#"
   xmlns:svg="http://www.w3.org/2000/svg"
   xmlns="http://www.w3.org/2000/svg"
   xmlns:xlink="http://www.w3.org/1999/xlink"
   xmlns:sodipodi="http://sodipodi.sourceforge.net/DTD/sodipodi-0.dtd"
   xmlns:inkscape="http://www.inkscape.org/namespaces/inkscape"
   width="17.611818"
   height="17.781252"
   id="svg3339"
   version="1.1"
   inkscape:version="0.48.4 r9939"
   sodipodi:docname="POI_hiking_cycling.svg"
   inkscape:export-filename="/home/blauberg/Dokumente/SEP/JoglEarth/Spezifikation/res/locationIcons/HIKING_AND_CYCLING.png"
   inkscape:export-xdpi="2556"
   inkscape:export-ydpi="2556">
  <defs
     id="defs3341">
    <filter
       id="imagebot_77"
       color-interpolation-filters="sRGB">
      <feGaussianBlur
         id="imagebot_83"
         stdDeviation="2.68359" />
    </filter>
    <linearGradient
       gradientUnits="userSpaceOnUse"
       gradientTransform="scale(0.93314657,1.071643)"
       id="imagebot_75"
       y2="610.96385"
       xlink:href="#imagebot_82"
       y1="706.61178"
       x2="719.02793"
       x1="746.17556" />
    <linearGradient
       id="imagebot_82">
      <stop
         id="imagebot_104"
         stop-color="#dfdfdf"
         offset="0" />
      <stop
         id="imagebot_103"
         stop-color="#fff"
         offset="1" />
    </linearGradient>
    <linearGradient
       gradientUnits="userSpaceOnUse"
       gradientTransform="scale(0.93313895,1.0716518)"
       id="imagebot_68"
       y2="692.02572"
       xlink:href="#imagebot_82"
       y1="619.24016"
       x2="732.20632"
       x1="716.39903" />
    <linearGradient
       id="linearGradient5066">
      <stop
         id="stop5068"
         stop-color="#dfdfdf"
         offset="0" />
      <stop
         id="stop5070"
         stop-color="#fff"
         offset="1" />
    </linearGradient>
    <filter
       id="imagebot_50"
       color-interpolation-filters="sRGB">
      <feGaussianBlur
         id="imagebot_84"
         stdDeviation="2.08236" />
    </filter>
    <linearGradient
       gradientUnits="userSpaceOnUse"
       gradientTransform="scale(0.93594535,1.0684385)"
       id="imagebot_48"
       x2="737.16982"
       y1="615.75739"
       x1="726.47682"
       y2="623.91586">
      <stop
         id="imagebot_91"
         stop-color="#9b6a06"
         offset="0" />
      <stop
         id="imagebot_90"
         stop-color="#b38e29"
         offset=".10284" />
      <stop
         id="imagebot_89"
         stop-color="#faf892"
         offset=".25018" />
      <stop
         id="imagebot_88"
         stop-color="#ddba32"
         offset=".51725" />
      <stop
         id="imagebot_87"
         stop-color="#cf9e08"
         offset=".6932" />
      <stop
         id="imagebot_86"
         stop-color="#976400"
         offset=".73575" />
      <stop
         id="imagebot_85"
         stop-color="#976400"
         offset="1" />
    </linearGradient>
    <linearGradient
       gradientUnits="userSpaceOnUse"
       gradientTransform="scale(0.95014084,1.0524755)"
       id="imagebot_46"
       x2="649.9041"
       y1="707.64765"
       x1="648.2462"
       y2="708.58134">
      <stop
         id="imagebot_94"
         stop-color="#a07100"
         offset="0" />
      <stop
         id="imagebot_93"
         stop-color="#f4f300"
         offset=".43039" />
      <stop
         id="imagebot_92"
         stop-color="#9e700b"
         offset="1" />
    </linearGradient>
    <linearGradient
       gradientUnits="userSpaceOnUse"
       gradientTransform="scale(1.0082381,0.99182919)"
       id="imagebot_44"
       x2="617.53384"
       y1="745.21991"
       x1="614.02773"
       y2="748.42962">
      <stop
         id="imagebot_97"
         stop-color="#a07100"
         offset="0" />
      <stop
         id="imagebot_96"
         stop-color="#f6f600"
         offset=".38158" />
      <stop
         id="imagebot_95"
         stop-color="#9e700b"
         offset="1" />
    </linearGradient>
    <linearGradient
       gradientUnits="userSpaceOnUse"
       gradientTransform="scale(0.92919642,1.0761987)"
       id="imagebot_42"
       x2="673.2575"
       y1="679.81013"
       x1="684.67244"
       y2="671.43373">
      <stop
         id="imagebot_102"
         stop-color="#375a93"
         offset="0" />
      <stop
         id="imagebot_101"
         stop-color="#5c9eda"
         offset=".36961" />
      <stop
         id="imagebot_100"
         stop-color="#97cafd"
         offset=".53886" />
      <stop
         id="imagebot_99"
         stop-color="#8bbff3"
         offset=".77808" />
      <stop
         id="imagebot_98"
         stop-color="#2a629a"
         offset="1" />
    </linearGradient>
    <filter
       id="filter5292"
       inkscape:label="Desaturate"
       x="0"
       y="0"
       width="1"
       height="1"
       inkscape:menu="Color"
       inkscape:menu-tooltip="Render in shades of gray by reducing saturation to zero"
       color-interpolation-filters="sRGB">
      <feColorMatrix
         id="feColorMatrix5294"
         type="saturate"
         values="0"
         result="fbSourceGraphic" />
      <feColorMatrix
         result="fbSourceGraphicAlpha"
         in="fbSourceGraphic"
         values="0 0 0 -1 0 0 0 0 -1 0 0 0 0 -1 0 0 0 0 1 0"
         id="feColorMatrix5308" />
      <feColorMatrix
         id="feColorMatrix5310"
         type="saturate"
         values="0"
         in="fbSourceGraphic" />
    </filter>
    <filter
       id="filter5296"
       inkscape:label="Desaturate"
       x="0"
       y="0"
       width="1"
       height="1"
       inkscape:menu="Color"
       inkscape:menu-tooltip="Render in shades of gray by reducing saturation to zero"
       color-interpolation-filters="sRGB">
      <feColorMatrix
         id="feColorMatrix5298"
         type="saturate"
         values="0" />
    </filter>
    <filter
       id="filter5300"
       inkscape:label="Desaturate"
       x="0"
       y="0"
       width="1"
       height="1"
       inkscape:menu="Color"
       inkscape:menu-tooltip="Render in shades of gray by reducing saturation to zero"
       color-interpolation-filters="sRGB">
      <feColorMatrix
         id="feColorMatrix5302"
         type="saturate"
         values="0" />
    </filter>
    <filter
       id="filter5304"
       inkscape:label="Desaturate"
       x="0"
       y="0"
       width="1"
       height="1"
       inkscape:menu="Color"
       inkscape:menu-tooltip="Render in shades of gray by reducing saturation to zero"
       color-interpolation-filters="sRGB">
      <feColorMatrix
         id="feColorMatrix5306"
         type="saturate"
         values="0" />
    </filter>
  </defs>
  <sodipodi:namedview
     id="base"
     pagecolor="#ffffff"
     bordercolor="#666666"
     borderopacity="1.0"
     inkscape:pageopacity="0"
     inkscape:pageshadow="2"
     inkscape:zoom="44.43"
     inkscape:cx="9.4014235"
     inkscape:cy="7.1337002"
     inkscape:document-units="px"
     inkscape:current-layer="g5202"
     showgrid="false"
     fit-margin-top="0"
     fit-margin-left="0"
     fit-margin-right="0"
     fit-margin-bottom="0"
     inkscape:window-width="1920"
     inkscape:window-height="1148"
     inkscape:window-x="0"
     inkscape:window-y="30"
     inkscape:window-maximized="1" />
  <metadata
     id="metadata3344">
    <rdf:RDF>
      <cc:Work
         rdf:about="">
        <dc:format>image/svg+xml</dc:format>
        <dc:type
           rdf:resource="http://purl.org/dc/dcmitype/StillImage" />
        <dc:title />
      </cc:Work>
    </rdf:RDF>
  </metadata>
  <g
     inkscape:label="Ebene 1"
     inkscape:groupmode="layer"
     id="layer1"
     transform="translate(-341.24097,-523.42468)">
    <g
       id="g5202"
       transform="translate(306.95972,-45.950317)">
      <path
         sodipodi:type="arc"
         style="stroke-width:1.20000005000000010;stroke-miterlimit:10;stroke-dasharray:none;stroke-dashoffset:0;fill:none;stroke:#000000;stroke-opacity:1"
         id="path2987"
         sodipodi:cx="9.6534653"
         sodipodi:cy="9.3654099"
         sodipodi:rx="6.3118811"
         sodipodi:ry="6.5594058"
         d="m 15.965346,9.3654099 c 0,3.6226601 -2.825925,6.5594061 -6.3118807,6.5594061 -3.4859557,0 -6.3118811,-2.936746 -6.3118811,-6.5594061 0,-3.6226598 2.8259254,-6.5594059 6.3118811,-6.5594059 3.4859557,0 6.3118807,2.9367461 6.3118807,6.5594059 z"
         transform="matrix(1.1568627,0,0,1.0943396,31.900648,567.87267)" />
      <circle
         r="0"
         cx="277.5"
         cy="-63"
         label="Layer 1"
         fill-opacity="null"
         stroke-opacity="null"
         id="imagebot_36"
         sodipodi:cx="277.5"
         sodipodi:cy="-63"
         sodipodi:rx="0"
         sodipodi:ry="0"
         style="stroke-linecap:round;stroke-linejoin:round;stroke-dasharray:none"
         transform="matrix(0.02766026,0,0,0.02766026,37.834693,572.30803)" />
      <circle
         r="0"
         cx="-80.5"
         cy="-41"
         label="Layer 1"
         fill-opacity="null"
         stroke-opacity="null"
         id="imagebot_34"
         sodipodi:cx="-80.5"
         sodipodi:cy="-41"
         sodipodi:rx="0"
         sodipodi:ry="0"
         style="stroke-linecap:round;stroke-linejoin:round;stroke-dasharray:none"
         transform="matrix(0.02766026,0,0,0.02766026,37.834693,572.30803)" />
      <circle
         r="0"
         cx="-82.5"
         cy="33"
         label="Layer 1"
         fill-opacity="null"
         stroke-opacity="null"
         id="imagebot_33"
         sodipodi:cx="-82.5"
         sodipodi:cy="33"
         sodipodi:rx="0"
         sodipodi:ry="0"
         style="stroke-linecap:round;stroke-linejoin:round;stroke-dasharray:none"
         transform="matrix(0.02766026,0,0,0.02766026,37.834693,572.30803)" />
      <circle
         r="0"
         cx="149.5"
         cy="65"
         label="Layer 1"
         fill-opacity="null"
         stroke-opacity="null"
         id="imagebot_32"
         sodipodi:cx="149.5"
         sodipodi:cy="65"
         sodipodi:rx="0"
         sodipodi:ry="0"
         style="stroke-linecap:round;stroke-linejoin:round;stroke-dasharray:none"
         transform="matrix(0.02766026,0,0,0.02766026,37.834693,572.30803)" />
      <circle
         r="0"
         cx="76.5"
         cy="114"
         label="Layer 1"
         fill-opacity="null"
         stroke-opacity="null"
         id="imagebot_2"
         sodipodi:cx="76.5"
         sodipodi:cy="114"
         sodipodi:rx="0"
         sodipodi:ry="0"
         style="stroke-linecap:round;stroke-linejoin:round;stroke-dasharray:none"
         transform="matrix(0.02766026,0,0,0.02766026,37.834693,572.30803)" />
      <g
         transform="matrix(0.03631055,0,0,0.0366061,35.246061,566.47881)"
         id="g5909">
        <path
           inkscape:connector-curvature="0"
           d="m 215.58552,250.90034 -27.17323,28.53862 38.965,24.16808 c 0.19521,18.3877 0.39042,34.08367 0.27329,47.98262 -0.11712,13.74278 1.01618,27.29036 -0.81988,34.31683 -1.99223,6.91152 -6.75427,6.79548 -10.69751,6.87139 -4.09832,-0.0759 -10.46325,-2.10718 -12.9229,-7.14468 -2.53773,-5.1915 -1.09318,-13.31224 -1.36647,-23.61933 -0.27329,-10.42313 -0.27329,-23.07274 0,-38.37937 -12.33727,-6.16863 -22.79944,-11.7896 -31.54594,-17.02123 -8.86253,-5.30971 -16.32064,-9.21391 -20.84951,-14.28937 -4.48983,-5.19367 -6.05151,-10.93176 -6.05151,-16.16339 -0.11604,-5.23162 1.71785,-9.40912 5.50492,-15.10925 3.78708,-5.97343 9.7605,-12.06506 17.02232,-19.75525 7.26181,-7.76936 19.05141,-20.61418 26.04209,-26.04102 6.83127,-5.54396 10.26697,-6.63714 15.10926,-6.59809 4.88025,-0.0781 9.40912,3.51378 13.43045,6.87139 3.82611,3.39665 5.42683,6.52001 9.60433,13.43045 4.09832,6.7933 8.93953,15.69488 14.83596,27.17214 11.20505,-1.09317 19.59908,-1.09317 25.76772,0 6.01138,0.97605 9.4872,2.92924 10.42313,6.28685 0.89796,3.27844 0.0781,10.93176 -5.4648,13.46949 -5.81834,2.45965 -21.59022,1.01509 -28.81299,1.09318 -7.26073,0.038 -11.00985,0.42946 -14.56267,-1.09318 -3.51378,-1.71785 -4.17749,-4.64491 -6.83343,-8.78445 -2.84899,-4.17641 -6.09056,-9.52733 -9.87763,-16.20243 z"
           id="path101"
           style="fill-rule:evenodd" />
        <path
           inkscape:connector-curvature="0"
           d="m 243.77168,171.87282 c 13.01616,0 23.58136,10.5652 23.58136,23.58137 0,13.01617 -10.5652,23.58137 -23.58136,23.58137 -13.01726,0 -23.58137,-10.5652 -23.58137,-23.58137 0,-13.01617 10.5652,-23.58137 23.58137,-23.58137"
           id="path103"
           style="fill-rule:evenodd" />
        <path
           inkscape:connector-curvature="0"
           d="m 128.55439,308.6825 c 36.42185,0 65.98098,29.55913 65.98098,65.98098 0,36.42185 -29.55913,65.98098 -65.98098,65.98098 -36.421843,0 -65.980975,-29.55913 -65.980975,-65.98098 0,-36.42185 29.559132,-65.98098 65.980975,-65.98098 z m 0,12.72769 c 29.37477,0 53.21425,23.83948 53.21425,53.21208 0,29.37477 -23.83948,53.21424 -53.21424,53.21424 -29.374772,0 -53.214251,-23.83947 -53.214251,-53.21424 0,-29.37151 23.839479,-53.21208 53.214251,-53.21208 z"
           id="path105"
           style="fill-rule:evenodd" />
        <path
           inkscape:connector-curvature="0"
           d="m 301.12003,308.6825 c 36.42185,0 65.98315,29.55913 65.98315,65.98098 0,36.42185 -29.5613,65.98098 -65.98315,65.98098 -36.41967,0 -65.97989,-29.55913 -65.97989,-65.98098 0,-36.42185 29.56022,-65.98098 65.97989,-65.98098 z m 0,12.72769 c 29.37477,0 53.21425,23.83948 53.21425,53.21208 0,29.37477 -23.83948,53.21424 -53.21425,53.21424 -29.37259,0 -53.21207,-23.83947 -53.21207,-53.21424 0,-29.37151 23.83948,-53.21208 53.21207,-53.21208 z"
           id="path107"
           style="fill-rule:evenodd" />
      </g>
      <path
         style="fill:#ffffff;fill-opacity:1;stroke:#000000;stroke-width:0.01125366;stroke-miterlimit:10;stroke-opacity:1;stroke-dasharray:none"
         d="M 8.3345768,15.225426 C 7.362584,15.138745 6.6408793,14.942343 5.8250112,14.542484 4.2338388,13.762647 3.0451093,12.401293 2.4927569,10.726327 2.2727196,10.059081 2.1840477,9.4993253 2.1825652,8.7681909 2.1809895,7.9911085 2.2654236,7.456077 2.5040134,6.7312789 3.0031181,5.2150777 4.0906085,3.9104968 5.5312736,3.0997011 6.7396247,2.4196501 8.2483404,2.128785 9.6287474,2.3097496 10.41621,2.4129822 11.045909,2.6047301 11.766942,2.960846 c 0.887899,0.4385299 1.675879,1.0783884 2.276771,1.8487919 0.452936,0.5807085 0.865713,1.3720491 1.072803,2.0566849 0.205814,0.6804164 0.272016,1.1378058 0.272016,1.8793608 0,0.6051722 -0.02594,0.8642906 -0.136295,1.3616924 -0.268593,1.21058 -0.87489,2.312123 -1.753154,3.185193 -1.051904,1.045683 -2.36515,1.688351 -3.8664783,1.892151 -0.2418413,0.03283 -1.0885944,0.05938 -1.2980279,0.04071 z M 6.061338,13.204004 c 0.9652626,-0.173368 1.7109538,-0.906098 1.9259624,-1.892487 0.05323,-0.244202 0.05352,-0.745059 5.717e-4,-0.986957 C 7.7724285,9.3402908 7.011717,8.5997698 6.0415088,8.4298558 5.2778694,8.2961187 4.4836,8.550761 3.9343963,9.1053951 3.1119865,9.9359364 2.9952309,11.198689 3.6493333,12.188452 c 0.3399832,0.51445 0.906227,0.8887 1.5342189,1.014017 0.193585,0.03863 0.6666431,0.03946 0.8777853,0.0015 l 5e-7,0 z m 6.282402,-0.0038 C 13.061215,13.064102 13.676035,12.607873 14.024584,11.95293 14.506692,11.047065 14.347735,9.8924194 13.638045,9.1452197 12.823115,8.2872166 11.50662,8.1501227 10.534648,8.8220462 10.351255,8.9488261 10.09371,9.1994954 9.9540515,9.3871421 9.8254008,9.5599994 9.6509193,9.9242069 9.5846276,10.158268 c -0.12983,0.458399 -0.1082106,1.04807 0.054704,1.492046 0.2283498,0.622301 0.7043944,1.13156 1.3004674,1.391202 0.173757,0.07569 0.447558,0.156743 0.60207,0.178239 0.17658,0.02457 0.627352,0.0136 0.801871,-0.0195 l 0,0 z M 9.0539707,11.449489 c 0.030485,-0.01399 0.07793,-0.05886 0.1054321,-0.09972 0.089956,-0.133636 0.092048,-0.18819 0.080014,-2.0864182 L 9.2327102,8.205508 8.5457397,7.7778691 C 8.1679061,7.5426676 7.8540427,7.3429992 7.8482659,7.3341614 7.8357082,7.3149496 8.755864,6.3374009 8.7865057,6.3374009 c 0.011692,0 0.069247,0.081953 0.1279009,0.1821186 0.2652294,0.4529417 0.376822,0.6219039 0.4408564,0.6675004 0.063974,0.045554 0.1069102,0.050427 0.5988389,0.067965 1.0424451,0.037165 1.1969041,-0.014085 1.2327151,-0.4090153 0.01037,-0.1143333 0.0048,-0.1434877 -0.03943,-0.2055719 C 11.037993,6.4867716 10.728624,6.423504 10.19892,6.4464315 L 9.8673062,6.4607847 9.739288,6.2190343 C 9.5570465,5.8748884 9.2434919,5.3231513 9.1497465,5.1816651 9.062791,5.0504266 8.8586153,4.8687401 8.7099752,4.7903332 8.6393265,4.7530662 8.576708,4.7406071 8.458367,4.740271 8.3225081,4.7398862 8.2819806,4.7500127 8.164015,4.8138247 7.9562392,4.9262186 7.6609799,5.1984806 7.1250001,5.7719123 6.5733927,6.3620637 6.3887458,6.5856116 6.2765619,6.7990982 6.078363,7.1762713 6.1517562,7.5954243 6.4671215,7.8873971 6.6453546,8.0524095 7.26562,8.4281133 7.9537685,8.7878808 l 0.328172,0.1715698 -0.00197,0.9509604 c -0.00233,1.124875 0.00492,1.245312 0.081999,1.361721 0.1208228,0.182484 0.4801379,0.274575 0.6919986,0.177357 l -4e-7,0 z M 10.031186,5.0992544 c 0.37332,-0.097238 0.619269,-0.4000286 0.63971,-0.7875571 C 10.690934,3.9318276 10.502825,3.6131 10.172304,3.4668948 9.6508716,3.2362407 9.057022,3.5548633 8.9675579,4.1132861 8.8668077,4.742154 9.4229412,5.257682 10.031186,5.0992544 l 0,0 z"
         id="path3038"
         inkscape:connector-curvature="0"
         transform="translate(34.28125,569.375)" />
      <path
         style="fill:#ffffff;fill-opacity:1;stroke:#000000;stroke-width:0.01125366;stroke-miterlimit:10;stroke-opacity:1;stroke-dasharray:none"
         d="m 5.4423868,12.73957 c -0.7870033,-0.08072 -1.4341316,-0.630607 -1.659618,-1.410238 -0.073511,-0.25417 -0.073511,-0.771781 0,-1.025951 C 3.9856604,9.6018732 4.5451922,9.0732832 5.240866,8.925916 5.4444586,8.882788 5.8170124,8.882963 6.0267481,8.9262855 c 0.7580812,0.156586 1.3627852,0.7915199 1.4990456,1.5739845 0.033905,0.194697 0.014769,0.627896 -0.035836,0.811247 -0.2524805,0.914789 -1.1241991,1.522758 -2.0475712,1.428053 l 0,0 z"
         id="path3040"
         inkscape:connector-curvature="0"
         transform="translate(34.28125,569.375)" />
      <path
         style="fill:#ffffff;fill-opacity:1;stroke:#000000;stroke-width:0.01125366;stroke-miterlimit:10;stroke-opacity:1;stroke-dasharray:none"
         d="m 11.688167,12.738304 c -0.695015,-0.08054 -1.301201,-0.544641 -1.564607,-1.197877 -0.3713794,-0.921006 0.01301,-1.972414 0.88884,-2.431232 0.300237,-0.1572833 0.457945,-0.198347 0.810811,-0.2111174 0.256054,-0.00927 0.334682,-0.00363 0.49987,0.035828 1.106462,0.2643063 1.752555,1.4209104 1.392415,2.4926344 -0.231089,0.687687 -0.874933,1.230337 -1.544225,1.301517 -0.267405,0.02844 -0.317039,0.02949 -0.483104,0.01025 z"
         id="path3042"
         inkscape:connector-curvature="0"
         transform="translate(34.28125,569.375)" />
    </g>
  </g>
</svg>
