<?xml version="1.0" encoding="UTF-8" standalone="no"?>
<!-- Created with Inkscape (http://www.inkscape.org/) -->

<svg
   xmlns:dc="http://purl.org/dc/elements/1.1/"
   xmlns:cc="http://creativecommons.org/ns#"
   xmlns:rdf="http://www.w3.org/1999/02/22-rdf-syntax-ns#"
   xmlns:svg="http://www.w3.org/2000/svg"
   xmlns="http://www.w3.org/2000/svg"
   xmlns:sodipodi="http://sodipodi.sourceforge.net/DTD/sodipodi-0.dtd"
   xmlns:inkscape="http://www.inkscape.org/namespaces/inkscape"
   width="17.611818"
   height="17.781252"
   id="svg3339"
   version="1.1"
   inkscape:version="0.48.3.1 r9886"
   sodipodi:docname="POI_health.svg"
   inkscape:export-filename="/home/gabi/SEP/JoglEarth/Spezifikation/res/iconsPoi/POI_Health.png"
   inkscape:export-xdpi="2556"
   inkscape:export-ydpi="2556">
  <defs
     id="defs3341" />
  <sodipodi:namedview
     id="base"
     pagecolor="#ffffff"
     bordercolor="#666666"
     borderopacity="1.0"
     inkscape:pageopacity="0"
     inkscape:pageshadow="2"
     inkscape:zoom="16"
     inkscape:cx="13.910964"
     inkscape:cy="7.3047885"
     inkscape:document-units="px"
     inkscape:current-layer="g5202"
     showgrid="false"
     fit-margin-top="0"
     fit-margin-left="0"
     fit-margin-right="0"
     fit-margin-bottom="0"
     inkscape:window-width="1306"
     inkscape:window-height="744"
     inkscape:window-x="60"
     inkscape:window-y="24"
     inkscape:window-maximized="1" />
  <metadata
     id="metadata3344">
    <rdf:RDF>
      <cc:Work
         rdf:about="">
        <dc:format>image/svg+xml</dc:format>
        <dc:type
           rdf:resource="http://purl.org/dc/dcmitype/StillImage" />
        <dc:title></dc:title>
      </cc:Work>
    </rdf:RDF>
  </metadata>
  <g
     inkscape:label="Ebene 1"
     inkscape:groupmode="layer"
     id="layer1"
     transform="translate(-341.24097,-523.42468)">
    <g
       id="g5202"
       transform="translate(306.95972,-45.950317)">
      <path
         sodipodi:type="arc"
         style="stroke-width:1.20000005000000010;stroke-miterlimit:10;stroke-dasharray:none;stroke-dashoffset:0;fill:none;stroke:#000000;stroke-opacity:1"
         id="path2987"
         sodipodi:cx="9.6534653"
         sodipodi:cy="9.3654099"
         sodipodi:rx="6.3118811"
         sodipodi:ry="6.5594058"
         d="m 15.965346,9.3654099 c 0,3.6226601 -2.825925,6.5594061 -6.3118807,6.5594061 -3.4859557,0 -6.3118811,-2.936746 -6.3118811,-6.5594061 0,-3.6226598 2.8259254,-6.5594059 6.3118811,-6.5594059 3.4859557,0 6.3118807,2.9367461 6.3118807,6.5594059 z"
         transform="matrix(1.1568627,0,0,1.0943396,31.900648,567.87267)" />
      <g
         transform="matrix(0.03293465,0,0,0.03293465,38.184657,572.5548)"
         id="layer1-1">
        <path
           inkscape:connector-curvature="0"
           id="path16479"
           d="m 140.4,350.28 c -0.95,-1.14 -1.37,-4.55 -1.37,-11.05 v -9.39 l -4,-1.82 c -8.89,-4.03 -12.5,-10.05 -12.5,-20.82 0,-5.66 0.43,-7.44 2.57,-10.59 2.76,-4.05 2.76,-4.04 -1.91,-9.16 -6.46,-7.09 -8,-24.33 -2.69,-29.99 1.12,-1.18 2.03,-2.61 2.03,-3.16 0,-0.56 -2.07,-3.68 -4.61,-6.94 -7.86,-10.12 -8.82,-12.65 -8.86,-23.42 -0.03,-8.68 0.22,-9.94 2.85,-14.5 1.58,-2.75 4.19,-6.4 5.8,-8.1 l 2.92,-3.1 -3.67,-4.38 c -2.01,-2.42 -4.82,-6.87 -6.24,-9.91 -2.27,-4.88 -2.58,-6.83 -2.63,-17.01 -0.05,-9.98 0.25,-12.18 2.26,-16.64 1.28,-2.82 3.64,-6.39 5.25,-7.93 2.84,-2.72 3.86,-5.43 2.04,-5.43 -0.49,0 -3.37,-2.44 -6.4,-5.43 -8.41,-8.27 -12.752,-22.57 -9.32,-30.69 l 1.52,-3.617 -3.704,-3.01 C 96.098,91.24 94.094,88.101 91.158,80.753 L 89.686,77.07 84.617,78.691 C 79.76,80.244 79.326,80.224 74.288,78.205 70.993,76.885 66.923,76.121 63.389,76.16 59.425,76.204 56.317,75.528 52.924,73.886 50.269,72.601 46.099,71.432 43.655,71.288 40.68,71.112 37.367,69.892 33.621,67.591 29.629,65.139 26.812,64.142 23.779,64.109 18.977,64.056 11.169,60.258 7.073,55.983 L 4.4715,53.267 10.032,52.023 c 6.775,-1.516 24.799,-10.536 36.997,-18.514 4.95,-3.238 15.3,-10.033 23,-15.101 C 87.208,7.1 88.501,6.436 96.324,4.897 114.44,1.3336 128.71,9.6546 131.03,25.125 c 0.9,5.962 -0.78,11.185 -5.14,16.064 -1.85,2.064 -3.36,4.162 -3.36,4.661 0,0.5 1.44,2.118 3.19,3.597 2.59,2.173 3.87,2.579 6.68,2.122 5.29,-0.857 6.11,-2.269 6.19,-10.662 0.06,-5.655 -0.42,-8.492 -1.99,-11.672 -4.29,-8.709 -1.83,-17.984 5.84,-21.994 10.38,-5.4295 21.58,-0.0146 22.82,11.037 0.35,3.092 -0.21,5.638 -2.17,9.929 -2.32,5.07 -2.6,6.829 -2.35,14.5 l 0.29,8.729 4.7,0.303 c 4.32,0.278 10.8,-1.813 10.8,-3.484 0,-0.346 -1.06,-2.022 -2.35,-3.724 -5.76,-7.592 -6.26,-19.914 -1.11,-27.581 6.39,-9.5149 15.02,-12.621 27.74,-9.9851 11.68,2.4196 16.57,5.3421 44.89,26.82 6.78,5.141 18.18,12.705 25.33,16.807 12.37,7.1 13.25,7.441 18.25,7.07 4.83,-0.359 5.25,-0.217 5.25,1.762 0,2.935 -6.36,10.146 -11.07,12.547 -2.12,1.081 -5.62,1.965 -7.77,1.965 -2.16,0 -6.48,1.172 -9.61,2.604 -4.63,2.12 -6.52,2.478 -10.18,1.929 -3.2,-0.479 -5.15,-0.256 -6.71,0.77 -2.51,1.641 -8.61,2.846 -16.66,3.285 -16.57,0.904 -22.12,1.37 -23.03,1.929 -0.55,0.341 -1.63,2.129 -2.4,3.973 -1.56,3.721 -5.62,8.264 -9.82,10.968 -2.53,1.626 -2.75,2.286 -2.75,8.126 0,8.94 -3.26,15.81 -11.61,24.45 l -6.64,6.89 4.12,4.92 c 6.14,7.34 8.08,12.36 8.11,20.96 0.04,13.44 -3.27,21.01 -12.7,29.07 l -4.74,4.06 3.07,3.28 c 7.26,7.77 7.89,9.4 7.83,20.29 -0.07,12.3 -1.7,15.97 -10.42,23.55 -5.58,4.86 -7.51,7.95 -4.97,7.95 0.58,0 2.21,2.58 3.61,5.75 4.43,9.97 2.41,20.34 -5.76,29.63 -2.15,2.43 -3.9,4.67 -3.9,4.98 0,0.3 1.12,2.21 2.5,4.23 2.02,2.98 2.5,4.91 2.5,10.1 0,11.27 -7.03,20.31 -15.8,20.31 h -2.9 l -0.68,11.21 c -0.63,10.29 -1.34,12.71 -3.75,12.77 -0.34,0.01 -1.24,-0.73 -2,-1.64 z m 3.13,-25.9 c 0,-14.61 -0.36,-22.44 -1.02,-22.44 -0.67,0 -0.98,7.92 -0.89,22.98 0.08,13.07 0.52,22.76 1.02,22.45 0.49,-0.31 0.89,-10.65 0.89,-22.99 z m -4.46,-11.87 c -0.12,-8.84 -1.43,-10.62 -4.08,-5.51 -1.89,3.67 -1.32,10.38 1.3,15.42 l 1.57,3.02 0.66,-2.5 c 0.37,-1.38 0.61,-6.07 0.55,-10.43 z m 11.42,9.49 c 1.43,-2.65 1.31,-12.39 -0.16,-13.86 -2.24,-2.24 -2.65,-1.22 -2.98,7.3 -0.23,6.18 0.01,8.5 0.89,8.5 0.67,0 1.68,-0.87 2.25,-1.94 z m 8.15,-4.74 c 6.42,-10.39 3.97,-18.37 -8.71,-28.32 -1.05,-0.83 -3.74,-2.94 -5.98,-4.7 -2.24,-1.76 -5.33,-5.01 -6.87,-7.23 -2.47,-3.56 -2.74,-4.72 -2.37,-9.92 l 0.43,-5.89 -4.16,-2.63 c -2.29,-1.45 -4.89,-2.63 -5.78,-2.63 -4.26,0 -6.42,12.87 -3.38,20.15 2.92,6.98 12.1,14.96 21.71,18.87 5.02,2.04 10.78,8.27 11.58,12.53 0.66,3.53 0.21,8.59 -1.2,13.45 -0.65,2.24 -0.56,2.36 0.93,1.13 0.92,-0.75 2.62,-2.91 3.8,-4.81 z m -28.79,-1.23 c -0.79,-6.72 0.2,-11.1 3.27,-14.41 3.01,-3.24 2.6,-5.35 -1.22,-6.31 -2.23,-0.55 -3.15,-0.15 -5.11,2.22 -2.12,2.58 -2.35,3.67 -1.97,9.56 0.29,4.56 1.13,7.79 2.65,10.25 1.22,1.98 2.39,3.6 2.59,3.6 0.21,0 0.11,-2.21 -0.21,-4.91 z m 29.83,-31.84 c 5.2,-4.69 7.8,-10.29 7.8,-16.75 0,-9.59 -5.9,-17.75 -18.47,-25.5 -7.26,-4.48 -14.24,-10.63 -16.06,-14.15 -2.24,-4.34 -1.8,-11.01 0.99,-15.13 2.79,-4.12 2.87,-4 -6.17,-9.66 -6.09,-3.8 -6.52,-3.65 -10.67,3.99 -3.99,7.32 -4.48,14.91 -1.55,24.01 1.92,5.97 3.29,8.16 8.42,13.41 3.71,3.81 8.6,7.53 12.42,9.46 12.33,6.22 18.29,14.14 14.73,19.57 -0.9,1.37 -1.59,4.53 -1.59,7.26 0,8.22 3.55,9.44 10.15,3.49 z m -14.04,-6.5 c 0.21,-8.25 -0.75,-11.75 -3.23,-11.75 -1.36,0 -1.06,13.41 0.32,14.8 2.08,2.08 2.8,1.33 2.91,-3.05 z m -6.38,-9.5 c -0.4,-1.67 -0.46,-1.67 -1.18,0 -0.42,0.96 -0.42,2.53 0,3.5 0.72,1.66 0.78,1.66 1.18,0 0.23,-0.97 0.23,-2.54 0,-3.5 z m 26.1,-24 c 7.02,-4.28 11.32,-12.19 11.96,-22.01 0.43,-6.6 0.19,-7.83 -2.62,-13.54 -1.7,-3.45 -4.12,-7.21 -5.38,-8.34 -3.3,-2.98 -17.67,-12.76 -21.79,-14.83 -1.93,-0.96 -6.32,-3.62 -9.76,-5.89 -5.38,-3.56 -6.54,-4.89 -8.25,-9.43 -3.25,-8.64 -2.58,-14.6 2.26,-19.91 2.76,-3.04 1.81,-4.61 -4.78,-7.94 l -5.68,-2.86 -3.51,4 c -5.45,6.21 -7.28,11.41 -7.28,20.69 0,6.88 0.43,8.93 3.05,14.4 3.56,7.47 10.32,14.49 18.6,19.32 12.54,7.32 22.67,14.57 24.47,17.51 1.03,1.69 1.87,4.78 1.87,6.87 0.01,3.98 -2.76,10.44 -5.42,12.65 -2.65,2.19 -1.77,4.78 2.68,7.9 5.07,3.56 5.85,3.68 9.58,1.41 z m -17.82,-15.25 c 0.31,-13.52 0.25,-13.82 -3.01,-15.5 l -3,-1.55 v 10.48 c 0,9.51 0.2,10.68 2.19,12.53 1.21,1.13 2.53,1.71 2.93,1.29 0.41,-0.41 0.81,-3.68 0.89,-7.25 z m 6.37,-3.18 c 0.2,-5.47 -1.85,-4.83 -2.19,0.68 -0.24,3.86 -0.04,4.73 0.88,3.82 0.65,-0.65 1.24,-2.68 1.31,-4.5 z m -15.16,-6.01 c -1.45,-1.45 -2.59,2.66 -1.66,6.01 0.72,2.63 0.75,2.61 1.7,-1.16 0.65,-2.55 0.64,-4.17 -0.04,-4.85 z m 31.75,-32.29 c 8.34,-6.13 12.31,-14.26 12.45,-25.52 0.05,-4.57 -0.5,-7.68 -1.88,-10.44 -1.88,-3.79 -10.39,-13.56 -11.82,-13.56 -0.38,0 -3.57,-1.77 -7.1,-3.93 -3.6,-2.2 -11.63,-5.58 -18.27,-7.69 -13.39,-4.25 -22.25,-9.12 -26.7,-14.65 -2.42,-3.01 -3.11,-4.97 -3.46,-9.75 -0.46,-6.307 0.31,-7.293 3.2,-4.104 4.02,4.444 14.06,3.174 18.38,-2.322 2.28,-2.891 2.07,-4.99 -0.6,-6.096 -7.3,-3.022 -16,-2.052 -22.65,2.527 -8.43,5.797 -10.83,15.555 -6.11,24.795 4.45,8.71 10.79,13.44 32.4,24.15 18.18,9.02 21.45,11.13 24.25,15.67 3.86,6.23 1.43,15.89 -5.58,22.28 -3.91,3.55 -4.28,5.11 -1.73,7.34 2.34,2.05 7.42,4.69 9.11,4.74 0.76,0.02 3.5,-1.53 6.11,-3.44 z M 121.25,92.328 c -1.24,-1.239 0.37,-2.392 3.34,-2.392 1.62,0 2.94,0.45 2.94,1 0,0.55 -0.64,1 -1.42,1 -0.78,0 -2.04,0.239 -2.8,0.531 -0.76,0.293 -1.69,0.23 -2.06,-0.139 z M 150,168.77 c 0.72,-13.05 0.71,-13.19 -1.62,-14.99 -3.05,-2.35 -5.87,-3.26 -6.78,-2.19 -0.4,0.46 -0.46,6.83 -0.15,14.13 0.56,12.88 0.66,13.33 3.08,14.66 4.58,2.5 4.7,2.23 5.47,-11.61 z m 7.99,4.86 c 2.62,-3.99 2.81,-7.89 0.56,-11.49 -1.13,-1.82 -2.5,-3.03 -3.04,-2.69 -1.28,0.79 -1.29,16.49 0,16.49 0.53,0 1.65,-1.04 2.48,-2.31 z m -19.46,-8.19 c 0,-7.68 -0.28,-9.5 -1.47,-9.5 -1.7,0 -3.02,2.21 -3.98,6.7 -0.48,2.24 -0.09,4.56 1.32,7.75 3.1,7 4.13,5.77 4.13,-4.95 z m 34.31,-32.64 c 9.51,-4.92 17.64,-16.56 18.42,-26.36 0.45,-5.58 0.26,-6.28 -2.69,-10.004 -4.9,-6.171 -10.14,-8.85 -17.42,-8.898 -6.63,-0.044 -11.9,1.897 -12.42,4.575 -0.17,0.915 0.99,3.128 2.59,4.918 2.54,2.838 3.67,3.309 8.86,3.689 5.28,0.38 6.29,0.14 9.04,-2.178 1.7,-1.433 3.38,-2.606 3.71,-2.606 0.85,0 -0.44,8.034 -1.68,10.504 -3.6,7.14 -12.78,14.75 -21.03,17.45 -5.1,1.66 -4.49,3.55 2.31,7.14 6.11,3.23 7.16,3.41 10.31,1.77 z m -2.56,-40.553 c -2.82,-0.737 -2.01,-2.311 1.19,-2.311 3.33,0 4.85,1.481 2.47,2.396 -0.87,0.332 -1.65,0.552 -1.74,0.488 -0.1,-0.063 -0.96,-0.321 -1.92,-0.573 z m -18.61,31.443 c 0.42,-3.65 0.79,-10.61 1.83,-34.254 0.63,-14.3 1.32,-26.536 1.53,-27.191 0.22,-0.656 0.47,-6.506 0.57,-13 l 0.18,-11.809 -6.86,-0.689 c -3.76,-0.379 -6.99,-0.55 -7.16,-0.38 -0.17,0.17 -0.51,19.24 -0.77,42.379 -0.37,33.014 -0.2,42.244 0.79,42.884 1.63,1.06 6.91,3.04 8.5,3.19 0.69,0.06 1.31,-0.45 1.39,-1.13 z m 11.16,-3.68 c 4.57,-2.1 11.7,-8.17 11.7,-9.96 0,-0.61 -0.68,-1.11 -1.5,-1.11 -0.83,0 -1.39,-0.52 -1.25,-1.15 0.14,-0.63 -1.31,-1.57 -3.22,-2.08 -1.9,-0.52 -5.05,-2.34 -7,-4.05 l -3.53,-3.114 -0.3,6.314 c -0.17,3.47 -0.08,6.53 0.19,6.8 0.28,0.28 2.55,-0.2 5.05,-1.05 6.2,-2.11 5.76,-0.58 -0.68,2.4 -5.1,2.36 -6.56,4.39 -5.38,7.48 0.71,1.84 0.9,1.83 5.92,-0.48 z m -24.54,-2.26 c -0.7,-1.81 -12.76,-8.81 -15.18,-8.81 -1.73,0 -1.62,0.35 0.97,3.05 6.12,6.38 15.99,10.39 14.21,5.76 z m -0.56,-6.56 c 0.75,-3.02 0.98,-12.254 0.31,-12.254 -0.36,0 -2.08,1.084 -3.83,2.414 -1.75,1.32 -4.72,3.03 -6.6,3.79 l -3.43,1.38 5.93,3.06 c 7.3,3.78 7.09,3.73 7.62,1.61 z m 60.43,-20.733 c 2.36,-2.464 5.04,-5.62 5.96,-7.014 1.63,-2.497 1.58,-2.611 -3.2,-7.77 -2.67,-2.88 -5.2,-5.387 -5.62,-5.57 -0.43,-0.184 -2.81,1.457 -5.3,3.647 -6.73,5.926 -10.86,7.59 -18.97,7.642 -3.85,0.024 -8.13,-0.181 -9.5,-0.456 -2.29,-0.457 -2.5,-0.2 -2.5,3 0,3.857 -0.13,3.825 7.9,1.931 6.35,-1.498 14.96,0.91 20.37,5.694 2.05,1.811 4.37,3.311 5.15,3.334 0.78,0.023 3.35,-1.974 5.71,-4.438 z m -88.72,0.089 c 0.63,-0.765 3.49,-2.395 6.34,-3.624 4.26,-1.832 6.32,-2.128 11.47,-1.648 3.45,0.323 7.11,1.037 8.14,1.589 2.34,1.253 3.14,0.496 3.14,-2.99 v -2.731 l -8.25,0.027 c -6.32,0.021 -9.33,-0.467 -12.86,-2.087 -4.28,-1.964 -10.92,-8.217 -13.5,-12.703 -1.02,-1.784 -1.44,-1.56 -5.745,3.064 -2.556,2.744 -4.646,5.57 -4.646,6.281 0,2.775 4.132,9.17 8.141,12.605 4.6,3.931 6.01,4.335 7.77,2.217 z M 220.95,79.329 c 2.4,-0.92 1.92,-2.016 -1.88,-4.369 -1.91,-1.177 -5.54,-5.263 -8.08,-9.082 -4.12,-6.199 -4.96,-6.942 -7.84,-6.942 -7.01,0 -7.36,4.23 -0.9,11.131 4.9,5.246 8.68,7.693 13.78,8.934 1.65,0.402 3.07,0.777 3.17,0.833 0.09,0.056 0.88,-0.171 1.75,-0.505 z m -85.79,-3.944 c 2.71,-0.544 3.34,-2.992 3.35,-13.183 l 0.02,-8.235 -5.99,0.626 -5.99,0.626 -4.51,-4.51 c -5.61,-5.603 -5.87,-8.49 -1.14,-12.45 4.55,-3.81 6.63,-8.242 6.63,-14.144 0,-4.28 -0.49,-5.464 -3.75,-9.083 C 118.81,9.5192 112.3,7.1256 102.93,7.3639 96.798,7.5197 94.676,8.1165 87.427,11.722 82.808,14.019 76.496,17.595 73.4,19.668 c -3.096,2.073 -9.396,6.289 -14,9.37 C 41.158,41.244 31.697,46.526 14.04,54.361 l -3.988,1.77 2.834,1.485 c 5.184,2.716 12.93,2.846 19.88,0.334 11.738,-4.243 43.135,-23.983 46.079,-28.971 2.412,-4.085 3.684,-3.029 3.684,3.056 0,11.652 10.622,21.875 22.751,21.896 1.79,0.003 3.25,0.455 3.25,1.005 0,0.55 -0.51,1 -1.13,1 -1.82,0 -0.36,7.508 2.13,11.009 2.88,4.045 9.11,7.922 14.33,8.924 3.86,0.739 5.55,0.666 11.3,-0.484 z m 109.37,0.574 c 0,-0.537 -1.24,-1.729 -2.75,-2.648 -7.14,-4.339 -12.09,-8.02 -15.84,-11.777 -8.21,-8.217 -7.86,-8.035 -11.35,-5.977 -1.68,0.996 -3.06,2.545 -3.06,3.443 0,2.569 11.4,12.777 17.22,15.423 5.39,2.448 15.78,3.46 15.78,1.536 z M 86.59,72.888 c 1.96,-0.992 5.698,-3.713 8.304,-6.046 7.722,-6.911 8.022,-9.179 1.371,-10.426 -3.647,-0.685 -3.948,-0.506 -10.498,6.241 -3.708,3.82 -7.98,7.747 -9.492,8.727 -3.177,2.059 -3.475,3.212 -1,3.872 2.545,0.679 7.231,-0.301 11.315,-2.368 z m 90.436,1.944 c 5.85,-1.475 11.93,-6.829 14.05,-12.395 1.39,-3.625 1.47,-4.767 0.46,-5.99 -0.69,-0.831 -1.09,-1.526 -0.88,-1.545 0.2,-0.019 3.81,-0.131 8.02,-0.25 6.82,-0.192 8.13,-0.56 12,-3.357 6.73,-4.864 10.32,-13.279 8.69,-20.359 -0.78,-3.416 2.52,-1.173 4.02,2.734 1.66,4.293 9.54,11.281 25.92,22.996 13.29,9.504 29.49,13.434 36.47,8.848 3.76,-2.474 3.45,-4.051 -1.08,-5.408 -9.73,-2.916 -28.4,-14.301 -48.98,-29.872 -26.49,-20.044 -35.71,-23.797 -50.92,-20.72 -3.2,0.647 -9.34,6.337 -10.92,10.125 -2.9,6.941 -1.02,15.071 4.9,21.17 l 3.74,3.849 -2.25,3.297 c -4.58,6.731 -10.38,8.852 -17.99,6.584 l -2.75,-0.819 v 20.159 l 3.25,0.939 c 4.52,1.304 9.1,1.309 14.25,0.014 z m 83.92,-1.503 c 1.69,-0.65 2.21,-3.393 0.63,-3.393 -1.93,0 -21.83,-14.02 -28.94,-20.396 -7.61,-6.831 -9.47,-7.718 -10.5,-5.022 -1.55,4.018 -0.51,6.65 4.64,11.786 12.01,11.978 27.37,19.634 34.17,17.025 z M 69.536,69.464 c 2.484,-1.265 8.006,-4.908 12.272,-8.095 l 7.757,-5.793 -3.218,-3.32 c -1.77,-1.826 -3.575,-3.32 -4.011,-3.32 -0.436,0 -3.162,2.138 -6.056,4.75 -6.713,6.059 -14.097,11.413 -19.508,14.145 -5.09,2.57 -5.379,3.836 -1,4.39 4.792,0.607 8.701,-0.176 13.764,-2.757 z M 53.022,64.069 c 5.376,-2.568 27.5,-16.596 27.5,-17.438 0,-1.492 -3.357,-9.695 -3.968,-9.695 -0.428,0 -6.573,4.343 -13.656,9.651 -11.193,8.388 -24.979,16.349 -28.311,16.349 -2.372,0 -0.853,2.005 2.185,2.882 5.751,1.66 10.089,1.193 16.25,-1.749 z m 105.61,-35.101 c 7.14,-8.554 1.79,-20.032 -9.35,-20.032 -4.31,4e-4 -5.41,0.4467 -8.36,3.4 -2.91,2.914 -3.4,4.081 -3.4,8.155 0,4.277 0.42,5.153 4.16,8.712 3.95,3.756 4.41,3.932 9.21,3.472 4.16,-0.4 5.53,-1.054 7.74,-3.707 z m -9.52,-0.879 c -0.34,-0.555 0.31,-1.304 1.45,-1.666 3.07,-0.974 5.72,-7.035 4.17,-9.523 -2.49,-3.988 -0.05,-5.652 3.13,-2.135 2.36,2.605 2.08,7.588 -0.59,10.578 -2.47,2.759 -7.17,4.343 -8.16,2.746 z" />
      </g>
      <path
         style="fill:#ffffff;fill-opacity:1;stroke-width:1.35000002;stroke-miterlimit:10;stroke-dasharray:none"
         d="M 8.0868141,15.198227 C 7.7273809,15.162465 7.1519935,15.041249 6.7749588,14.921859 4.3628835,14.158067 2.6280276,12.145943 2.2417593,9.6641547 2.1705365,9.2065451 2.1705617,8.2930085 2.2418099,7.8318265 2.5259748,5.9924571 3.5456882,4.4007687 5.1002609,3.3700201 5.8791959,2.8535526 6.7791951,2.5019417 7.7372656,2.3397973 8.1145432,2.2759465 9.0424625,2.2515723 9.4590107,2.2945711 11.707637,2.526689 13.692658,3.8745025 14.696892,5.8510516 c 1.261773,2.4834422 0.78415,5.4572494 -1.193229,7.4293484 -1.273963,1.270563 -2.97462,1.963942 -4.7737869,1.946332 -0.2175057,-0.0021 -0.5068838,-0.01496 -0.643062,-0.02851 z m 0.5967445,-0.486841 c 0.015075,-0.03928 0.068309,-0.52948 0.072242,-0.665231 5.388e-4,-0.01862 0.053108,-0.04266 0.1168188,-0.05342 0.4036102,-0.06819 0.6189924,-0.579149 0.4222645,-1.001757 l -0.073038,-0.156899 0.1196368,-0.158458 c 0.1855226,-0.245723 0.2439493,-0.397942 0.2435995,-0.634646 -3.234e-4,-0.218501 -0.091886,-0.48598 -0.1840088,-0.537534 -0.038913,-0.02178 -0.00617,-0.06813 0.1903694,-0.269485 0.2778208,-0.284631 0.308473,-0.361854 0.309808,-0.780514 0.00103,-0.321126 -0.031331,-0.416645 -0.2088575,-0.616587 L 9.5716777,9.7008949 9.7474849,9.5332031 C 10.00369,9.2888244 10.093722,9.0896307 10.115297,8.7194248 10.130141,8.4647155 10.124282,8.408033 10.067691,8.2588238 10.032197,8.1652424 9.9455601,8.0179616 9.8751636,7.9315337 9.8047669,7.8451055 9.7471694,7.7664644 9.7471694,7.7567761 c 0,-0.00969 0.089362,-0.1145969 0.1985832,-0.2331297 C 10.054973,7.4051137 10.17293,7.2508777 10.207878,7.1808999 10.275791,7.0449188 10.32975,6.8086642 10.32975,6.6473007 c 0,-0.082288 0.02683,-0.1237699 0.160539,-0.2482162 0.0883,-0.082179 0.198955,-0.2118508 0.245908,-0.2881596 0.09694,-0.1575418 0.03797,-0.1423513 0.785651,-0.2024025 0.235639,-0.018926 0.454679,-0.053772 0.551155,-0.08768 0.105824,-0.037195 0.196881,-0.050391 0.268583,-0.038925 0.07497,0.011988 0.160436,-0.00209 0.276684,-0.045587 0.09251,-0.034613 0.258246,-0.081874 0.368297,-0.1050242 0.246231,-0.051796 0.328386,-0.09371 0.463829,-0.2366359 0.226052,-0.2385409 0.221585,-0.3301025 -0.0161,-0.3301025 -0.129725,0 -0.200776,-0.021612 -0.378134,-0.1150196 C 12.751141,4.7889075 12.331767,4.5127714 11.778517,4.1082861 11.111947,3.6209524 11.00661,3.5556907 10.732718,3.4603584 10.257383,3.2949102 9.8685207,3.3652944 9.6457042,3.6571083 9.5082376,3.8371426 9.4756926,3.9551785 9.4909326,4.2184397 c 0.010649,0.1839511 0.029505,0.2529035 0.1054728,0.385681 0.050878,0.088926 0.092506,0.1686366 0.092506,0.1771349 0,0.032915 -0.1901515,0.079409 -0.3247661,0.079409 l -0.1412986,0 0,-0.2878223 c 0,-0.2383424 0.012913,-0.32213 0.075117,-0.4873883 C 9.38469,3.8550412 9.3773136,3.7027191 9.2717771,3.5447092 9.1035787,3.2928821 8.6799399,3.2746933 8.4600625,3.5098585 8.3051802,3.6755093 8.2830666,3.8511538 8.381341,4.1351258 c 0.041605,0.1202201 0.061495,0.2493408 0.061495,0.3992077 0,0.1937436 -0.00811,0.228084 -0.064722,0.2739223 -0.095511,0.07734 -0.2171675,0.065771 -0.3254116,-0.030945 L 7.9594141,4.6939575 8.0610689,4.5515608 C 8.1985638,4.3589602 8.2324593,4.271066 8.2324593,4.1071275 c 0,-0.2187547 -0.079329,-0.407558 -0.2349164,-0.5591054 C 7.8290727,3.383927 7.6270899,3.313201 7.3235295,3.3120104 6.9282123,3.3104599 6.8520503,3.3454452 5.9167005,3.958244 5.0647322,4.5164148 4.6201142,4.7552875 4.1835225,4.8894004 l -0.1602097,0.049213 0.1103771,0.1025036 c 0.140837,0.1307905 0.3736742,0.2434279 0.5583912,0.270127 0.079445,0.011483 0.2301879,0.063937 0.334984,0.116563 0.1047962,0.052627 0.2495247,0.105446 0.3216191,0.1173767 0.072094,0.011931 0.1946982,0.04665 0.2724529,0.077154 0.077755,0.030504 0.2219438,0.062777 0.3204195,0.071718 0.098476,0.00894 0.2750413,0.043563 0.3923679,0.076938 0.2035534,0.057904 0.2201529,0.058498 0.3625383,0.012965 0.08207,-0.026245 0.1500131,-0.044825 0.1509854,-0.041288 9.729e-4,0.00354 0.050026,0.1065966 0.1090085,0.2290233 0.068831,0.1428692 0.1482493,0.257023 0.2217378,0.3187204 l 0.1144972,0.096126 -0.043273,0.1035677 c -0.1204996,0.2883959 0.050632,0.792536 0.36912,1.0873997 L 7.7909524,7.7371326 7.6617101,7.908278 c -0.186388,0.2468188 -0.227058,0.4110681 -0.2084539,0.8418566 0.013701,0.317238 0.023831,0.3688966 0.1029735,0.5251032 0.048278,0.095288 0.1339467,0.2313568 0.1903752,0.3023757 l 0.1025972,0.1291256 -0.094785,0.1107352 c -0.052132,0.060904 -0.132875,0.1797571 -0.1794293,0.2641167 -0.078928,0.143024 -0.084667,0.175018 -0.084981,0.473801 -3.845e-4,0.365654 0.022127,0.427527 0.2847868,0.782739 l 0.1480064,0.200159 -0.078202,0.139118 c -0.1475995,0.262573 -0.095271,0.71576 0.1140055,0.987337 0.054496,0.07072 0.099082,0.140058 0.099082,0.154088 0,0.01403 -0.027812,0.08003 -0.061804,0.146656 -0.047237,0.09259 -0.061578,0.173045 -0.060843,0.341339 0.00157,0.360005 0.1204293,0.559793 0.4086935,0.686975 l 0.1168462,0.05155 0.00974,0.312924 c 0.00791,0.254127 0.019832,0.32406 0.063452,0.372191 0.058752,0.06483 0.1206138,0.05695 0.1497897,-0.01909 l 0,0 z"
         id="path2986"
         inkscape:connector-curvature="0"
         transform="translate(34.28125,569.375)" />
      <path
         style="fill:#ffffff;fill-opacity:1;stroke-width:1.35000002;stroke-miterlimit:10;stroke-dasharray:none"
         d="M 8.0611511,5.6843935 C 7.9040985,5.6699877 7.728325,5.5897026 7.6001998,5.4738527 7.5074629,5.3900006 7.4556918,5.2946354 7.4275735,5.1558663 7.4102451,5.0703472 7.4158599,5.0398045 7.4516592,5.0248466 c 0.020266,-0.00847 0.026879,-0.015942 0.026879,-0.030382 0,-0.028402 -0.021825,-0.035835 -0.1276433,-0.043472 C 7.1948022,4.9397274 7.0733071,4.8986129 6.9483319,4.8147636 6.8358037,4.7392654 6.7218294,4.5979568 6.6745232,4.4752878 6.6408936,4.3880834 6.6354222,4.3599897 6.627219,4.2324006 6.6186761,4.099528 6.6079933,4.057981 6.5814026,4.0542136 c -0.02251,-0.00319 -0.039413,0.011753 -0.084032,0.07428 -0.020717,0.029032 -0.067242,0.075434 -0.1147311,0.1144267 -0.2998291,0.2461872 -1.0214446,0.684527 -1.352511,0.8215723 -0.1844437,0.076351 -0.4094076,0.097469 -0.577636,0.054226 -0.048224,-0.012396 -0.2006055,-0.07968 -0.2004168,-0.088493 5.51e-5,-0.00257 0.078278,-0.039729 0.1738281,-0.082566 0.211814,-0.09496 0.5186753,-0.2462387 0.6660957,-0.328376 C 5.3285638,4.4874778 5.6677643,4.2725572 6.1152565,3.9709378 6.3596981,3.8061788 6.4595329,3.7444195 6.6269015,3.6544266 6.9923261,3.4579404 7.0856932,3.4280425 7.3340065,3.4279984 c 0.22544,-4.01e-5 0.4035943,0.052039 0.5418701,0.1584016 0.062105,0.047772 0.1607119,0.157656 0.1901235,0.2118675 l 0.025819,0.047589 0,0.1289062 c 0,0.1140149 -0.00209,0.1351459 -0.018094,0.1829193 -0.037164,0.1109372 -0.076603,0.1676506 -0.2014866,0.289737 -0.077841,0.076098 -0.096871,0.1089405 -0.096749,0.1669697 1.508e-4,0.071297 0.038824,0.1296663 0.1908894,0.2881084 0.0855,0.089085 0.09388,0.095703 0.121177,0.095703 0.026533,0 0.2862932,-0.025716 0.3512061,-0.034769 l 0.02663,-0.00371 -0.00499,0.2555694 c -0.00516,0.2646647 -0.011968,0.3382254 -0.035516,0.3840326 -0.021666,0.042145 -0.045229,0.054457 -0.1341578,0.070094 -0.1136311,0.01998 -0.1495279,0.022323 -0.2295794,0.01498 l 0,0 z"
         id="path2988"
         inkscape:connector-curvature="0"
         transform="translate(34.28125,569.375)" />
      <path
         style="fill:#ffffff;fill-opacity:1;stroke-width:1.35000002;stroke-miterlimit:10;stroke-dasharray:none"
         d="m 5.1867705,5.3609529 c -0.10473,-0.023441 -0.1838567,-0.064787 -0.1749759,-0.091429 0.00176,-0.00527 0.020507,-0.012067 0.041671,-0.015113 0.14832,-0.021345 0.5303487,-0.2480442 1.0110094,-0.599941 0.2231157,-0.1633454 0.3476435,-0.2500193 0.3592125,-0.2500193 0.014638,0 0.1100698,0.2227797 0.1214758,0.2835789 0.00462,0.024607 0.00228,0.029017 -0.028848,0.05436 -0.070021,0.057015 -0.4991791,0.3316605 -0.7278499,0.4657972 -0.1090624,0.063975 -0.1878347,0.1012941 -0.2774959,0.1314657 -0.073554,0.024751 -0.094096,0.028308 -0.1769634,0.030637 -0.064481,0.00181 -0.1104485,-0.0011 -0.147236,-0.00934 l 0,0 z"
         id="path2990"
         inkscape:connector-curvature="0"
         transform="translate(34.28125,569.375)" />
      <path
         style="fill:#ffffff;fill-opacity:1;stroke-width:1.35000002;stroke-miterlimit:10;stroke-dasharray:none"
         d="m 5.7558815,5.5563492 c -0.00859,-0.00199 -0.03381,-0.00729 -0.056037,-0.011775 -0.086783,-0.017525 -0.068722,-0.048 0.074434,-0.1255947 0.1902106,-0.1030999 0.3609411,-0.2260836 0.6222275,-0.4482144 0.081641,-0.069406 0.1638206,-0.1372675 0.1826221,-0.1508029 0.03337,-0.024023 0.034711,-0.024299 0.056262,-0.011568 0.012143,0.00717 0.064501,0.055567 0.116352,0.1075429 L 6.8460172,5.0104378 6.683772,5.1312724 C 6.3621754,5.3707865 6.1537835,5.4962325 6.0093207,5.537273 c -0.055962,0.015898 -0.215326,0.027894 -0.2534392,0.019076 z"
         id="path2992"
         inkscape:connector-curvature="0"
         transform="translate(34.28125,569.375)" />
      <path
         style="fill:#ffffff;fill-opacity:1;stroke-width:1.35000002;stroke-miterlimit:10;stroke-dasharray:none"
         d="M 6.3777263,5.6510128 C 6.311248,5.6292783 6.316621,5.616203 6.4290405,5.5261394 6.4748168,5.4894663 6.6006751,5.3736144 6.7087256,5.2686908 6.8167761,5.1637672 6.9186613,5.0687727 6.9351371,5.0575919 6.9712048,5.0331157 7.0314051,5.0302905 7.1058477,5.0495805 7.2071768,5.0758376 7.238695,5.1072054 7.2166831,5.1598872 7.1743722,5.2611514 6.8933194,5.5073692 6.732444,5.5841075 6.60199,5.6463346 6.450699,5.6748704 6.3777263,5.6510128 z"
         id="path2994"
         inkscape:connector-curvature="0"
         transform="translate(34.28125,569.375)" />
      <path
         style="fill:#ffffff;fill-opacity:1;stroke-width:1.35000002;stroke-miterlimit:10;stroke-dasharray:none"
         d="M 7.3965065,6.186922 C 7.3266057,6.1546501 7.1880365,6.0288475 7.1154882,5.9317945 7.0665787,5.8663648 7.0116328,5.7674816 6.9974668,5.7193978 c -0.011242,-0.03816 -0.011036,-0.04229 0.00354,-0.070871 0.030194,-0.059185 0.2196216,-0.2742593 0.2646432,-0.3004732 0.029163,-0.01698 0.033597,-0.013571 0.088606,0.068116 0.048516,0.072044 0.2044203,0.2316204 0.2844329,0.2911309 0.1620905,0.1205572 0.284681,0.1498588 0.628075,0.1501228 l 0.1983877,1.525e-4 -0.00421,0.082464 c -0.00324,0.063538 -0.00736,0.08595 -0.017958,0.097656 -0.017578,0.019423 -0.025815,0.019115 -0.088507,-0.00331 C 8.2507417,5.9972759 8.0386011,5.9721542 7.91963,5.9828899 7.8030614,5.9934088 7.6112786,6.0738952 7.5118266,6.1540346 7.4534434,6.2010803 7.4372043,6.2057114 7.3965065,6.186922 l 0,0 z"
         id="path2996"
         inkscape:connector-curvature="0"
         transform="translate(34.28125,569.375)" />
      <path
         style="fill:#ffffff;fill-opacity:1;stroke-width:1.35000002;stroke-miterlimit:10;stroke-dasharray:none"
         d="m 9.1710309,8.9728101 c 0.00325,-0.00537 0.017116,-0.025586 0.030807,-0.044922 C 9.2819108,8.8147929 9.3291557,8.6538205 9.3197808,8.526033 9.3081448,8.3674262 9.2258908,8.2448735 9.0570028,8.1345121 8.9579147,8.0697621 8.876256,8.0258817 8.451194,7.8089715 7.9056776,7.5305933 7.7508497,7.4360168 7.5851903,7.2799742 7.5072183,7.2065285 7.4061383,7.0556436 7.3655841,6.9521617 7.3204114,6.8368949 7.3080047,6.6857346 7.3348306,6.5774678 7.430938,6.1895872 7.9253432,5.9646157 8.3286327,6.1252534 c 0.046325,0.018452 0.079593,0.054988 0.079593,0.087413 0,0.030404 -0.039359,0.096633 -0.083895,0.1411691 -0.03116,0.03116 -0.064133,0.053519 -0.114685,0.077768 -0.084298,0.040436 -0.155565,0.054602 -0.2475112,0.049198 -0.092173,-0.00542 -0.1427515,-0.026745 -0.2101847,-0.088628 -0.095628,-0.087758 -0.1146161,-0.068464 -0.1068016,0.1085222 0.00915,0.2071987 0.044009,0.2927575 0.1711018,0.4199386 0.156756,0.1568651 0.3854968,0.2746762 0.8224446,0.4235937 0.29944,0.102053 0.4528768,0.1685666 0.6516728,0.2824948 0.065479,0.037525 0.1425143,0.07988 0.1711898,0.094122 0.059472,0.029536 0.1484456,0.1163081 0.260362,0.2539192 0.1711822,0.2104838 0.1981479,0.2818276 0.1978429,0.5234375 -2.32e-4,0.1838607 -0.02006,0.30225 -0.072288,0.4316152 l -0.02128,0.052709 -0.3305393,2.34e-5 c -0.2623831,2.34e-5 -0.3293194,-0.00199 -0.3246238,-0.00974 l 0,2e-6 z M 8.029319,6.2167579 c 0.061057,-0.011121 0.074219,-0.018254 0.074219,-0.040225 0,-0.048669 -0.1845091,-0.049944 -0.2162543,-0.00149 -0.01101,0.016804 -0.010906,0.020306 0.00116,0.038716 0.014823,0.022623 0.031237,0.022973 0.1408779,0.003 z"
         id="path2998"
         inkscape:connector-curvature="0"
         transform="translate(34.28125,569.375)" />
      <path
         style="fill:#ffffff;fill-opacity:1;stroke-width:1.35000002;stroke-miterlimit:10;stroke-dasharray:none"
         d="M 8.3535377,6.8664466 C 8.1915032,6.7876225 8.0095803,6.6907636 8.0148696,6.6861339 c 0.00365,-0.0032 0.027731,-0.013977 0.053512,-0.02396 0.081932,-0.031726 0.1454148,-0.066643 0.2608277,-0.1434622 0.061815,-0.041144 0.1154279,-0.07293 0.1191406,-0.070636 0.00957,0.00592 0.00839,0.2379133 -0.00162,0.3164607 -0.012464,0.097862 -0.019742,0.1166085 -0.044973,0.1158442 -0.011483,-3.478e-4 -0.033183,-0.00662 -0.048222,-0.013934 z"
         id="path3000"
         inkscape:connector-curvature="0"
         transform="translate(34.28125,569.375)" />
      <path
         style="fill:#ffffff;fill-opacity:1;stroke-width:1.35000002;stroke-miterlimit:10;stroke-dasharray:none"
         d="M 8.3686447,7.1077633 C 8.2525731,7.0772255 8.1076143,6.9802299 7.9835918,6.8501148 7.916781,6.7800219 7.9143392,6.7660181 7.9705851,6.7755208 c 0.065681,0.011097 0.3069459,0.1413312 0.4218875,0.2277344 0.053483,0.040204 0.079257,0.080377 0.06364,0.099195 -0.015092,0.018185 -0.034144,0.019342 -0.087468,0.00531 z"
         id="path3002"
         inkscape:connector-curvature="0"
         transform="translate(34.28125,569.375)" />
      <path
         style="fill:#ffffff;fill-opacity:1;stroke-width:1.35000002;stroke-miterlimit:10;stroke-dasharray:none"
         d="M 8.763694,7.2606311 C 8.6594107,7.2254403 8.5743886,7.1868191 8.5687281,7.1720681 8.542005,7.1024288 8.5421112,5.7936943 8.5689361,4.6084092 l 0.0052,-0.2296353 0.098687,0.00563 c 0.054278,0.0031 0.1565846,0.011511 0.2273487,0.018698 l 0.1286621,0.013068 -0.00213,0.1992187 c -0.00231,0.2158046 -0.014992,0.5999454 -0.020079,0.6081885 -0.00751,0.012165 -0.030025,0.4301387 -0.070982,1.3175928 -0.030786,0.6670549 -0.036245,0.7310054 -0.063292,0.7413842 -0.019227,0.00738 -0.025681,0.00608 -0.1086512,-0.021923 l 0,0 z"
         id="path3004"
         inkscape:connector-curvature="0"
         transform="translate(34.28125,569.375)" />
      <path
         style="fill:#ffffff;fill-opacity:1;stroke-width:1.35000002;stroke-miterlimit:10;stroke-dasharray:none"
         d="M 8.6972877,4.2386874 C 8.6768342,4.2286146 8.6207286,4.180425 8.5631315,4.1234592 8.441587,4.0032471 8.4363599,3.9909466 8.4407052,3.8353639 c 0.00345,-0.1233563 0.013963,-0.1476751 0.1031206,-0.2384266 0.086046,-0.087585 0.1195855,-0.1062192 0.2052266,-0.114025 0.2052983,-0.018712 0.367328,0.059348 0.4426989,0.2132751 0.072199,0.1474505 0.039404,0.3160875 -0.088001,0.452512 -0.06235,0.066763 -0.088369,0.080124 -0.1877123,0.096385 -0.1015376,0.01662 -0.1764615,0.014429 -0.21875,-0.0064 z M 8.9771454,4.0958839 C 9.1064698,4.0345397 9.1722715,3.9165263 9.1548588,3.7771601 9.1475554,3.7187049 9.1100524,3.6575842 9.0615897,3.6251539 8.9723474,3.5654346 8.9352943,3.621688 8.990922,3.7324403 c 0.017974,0.035786 0.0202,0.047727 0.016139,0.086583 -0.00997,0.095353 -0.069437,0.1875493 -0.1458611,0.2261283 -0.059404,0.029987 -0.070421,0.060501 -0.028347,0.078515 0.027586,0.011811 0.083531,0.00104 0.1442926,-0.027783 l 0,0 z"
         id="path3006"
         inkscape:connector-curvature="0"
         transform="translate(34.28125,569.375)" />
      <path
         style="fill:#ffffff;fill-opacity:1;stroke-width:1.35000002;stroke-miterlimit:10;stroke-dasharray:none"
         d="M 9.3614307,5.6615642 C 9.3399463,5.6578874 9.287212,5.645066 9.2442432,5.6330722 l -0.078125,-0.021807 -0.00204,-0.3260635 c -0.00112,-0.1793349 -2.864e-4,-0.3260635 0.00186,-0.3260635 0.00214,0 0.038216,0.00919 0.080164,0.020417 0.1546044,0.041387 0.2815931,0.0333 0.392844,-0.025019 0.087391,-0.045811 0.1428554,-0.1022171 0.2419381,-0.2460468 l 0.038566,-0.055983 -0.079294,-0.085116 C 9.7058744,4.4232552 9.650303,4.3360847 9.6142554,4.2130445 9.5988866,4.1605866 9.5960166,4.1335985 9.5963927,4.0450757 c 3.936e-4,-0.092641 0.00299,-0.113144 0.021328,-0.1685721 0.011484,-0.034707 0.035861,-0.085487 0.05417,-0.1128441 0.069776,-0.1042584 0.2253105,-0.2374406 0.3054604,-0.2615622 0.076777,-0.023106 0.2234875,-0.037496 0.3324125,-0.032604 0.169315,0.0076 0.287816,0.040029 0.473734,0.1296241 0.210321,0.1013545 0.405939,0.2299122 0.855276,0.5620751 0.337782,0.2496981 0.485789,0.3545054 0.700909,0.4963305 0.37586,0.2477979 0.670733,0.4092128 0.894309,0.4895489 0.174478,0.062694 0.194113,0.087215 0.122001,0.152364 -0.04673,0.042213 -0.13094,0.078435 -0.208754,0.089787 C 12.896246,5.425841 12.482776,5.2931709 12.162212,5.0731579 11.915634,4.9039241 11.576485,4.6378598 11.444946,4.5104589 11.340378,4.40918 11.301689,4.3596547 11.255835,4.2683786 c -0.03585,-0.071371 -0.09121,-0.1327073 -0.115477,-0.1279458 -0.01085,0.00213 -0.013,0.010513 -0.01164,0.045424 0.0058,0.1494488 0.0028,0.2169289 -0.01241,0.2748324 -0.04463,0.1704139 -0.155177,0.3214148 -0.31221,0.426452 -0.111653,0.074684 -0.14829,0.082071 -0.456339,0.092015 -0.09665,0.00312 -0.169922,0.00864 -0.169922,0.012811 0,0.00403 0.01006,0.022022 0.02237,0.039983 0.0123,0.017962 0.02477,0.040324 0.0277,0.049694 0.0128,0.040902 -0.04598,0.1927732 -0.107815,0.2785913 -0.07739,0.1074047 -0.2084477,0.212726 -0.3165845,0.2544252 -0.1230539,0.047452 -0.3180072,0.068137 -0.4420718,0.046905 z"
         id="path3008"
         inkscape:connector-curvature="0"
         transform="translate(34.28125,569.375)" />
      <path
         style="fill:#ffffff;fill-opacity:1;stroke-width:1.35000002;stroke-miterlimit:10;stroke-dasharray:none"
         d="M 12.303436,5.5987193 C 12.155076,5.5741041 11.922902,5.4624678 11.718865,5.3176404 11.536615,5.188277 11.29534,4.9629652 11.242164,4.8724772 c -0.04728,-0.080457 -0.0507,-0.1720687 -0.009,-0.2406739 0.01459,-0.023992 0.01841,-0.025823 0.04607,-0.022113 0.04022,0.00539 0.09238,0.041292 0.218892,0.1506285 0.341121,0.2948148 0.896087,0.6885101 1.033204,0.7329591 0.01807,0.00586 0.01737,0.033912 -0.0016,0.065058 -0.02632,0.04316 -0.114603,0.058915 -0.226299,0.040383 l 0,0 z"
         id="path3010"
         inkscape:connector-curvature="0"
         transform="translate(34.28125,569.375)" />
      <path
         style="fill:#ffffff;fill-opacity:1;stroke-width:1.35000002;stroke-miterlimit:10;stroke-dasharray:none"
         d="M 11.681743,5.6938496 C 11.48044,5.6577498 11.379157,5.6103711 11.201274,5.4690934 11.050392,5.3492593 10.901687,5.1972431 10.880288,5.1409583 c -0.0088,-0.023039 0.0045,-0.050747 0.04102,-0.085612 0.03322,-0.031725 0.114337,-0.080583 0.133792,-0.080583 0.03441,0 0.0782,0.033821 0.215755,0.1666446 0.193682,0.1870219 0.293483,0.2660935 0.51001,0.4040787 0.110839,0.070633 0.170406,0.1187077 0.170406,0.1375263 0,0.027976 -0.142101,0.033689 -0.269531,0.010837 l 0,0 z"
         id="path3012"
         inkscape:connector-curvature="0"
         transform="translate(34.28125,569.375)" />
      <path
         style="fill:#ffffff;fill-opacity:1;stroke-width:1.35000002;stroke-miterlimit:10;stroke-dasharray:none"
         d="M 11.009971,5.7746792 C 10.862342,5.7318486 10.760506,5.6710724 10.631999,5.5491023 10.50608,5.4295898 10.420024,5.2999218 10.420024,5.2297022 c 0,-0.06173 0.04152,-0.09165 0.141726,-0.1021344 0.107505,-0.011248 0.139906,0.012834 0.271806,0.2020193 0.125681,0.1802654 0.206709,0.2694676 0.31249,0.3440134 0.0922,0.064974 0.0977,0.084563 0.03174,0.1129411 -0.0489,0.021035 -0.0562,0.020519 -0.167812,-0.011862 z"
         id="path3014"
         inkscape:connector-curvature="0"
         transform="translate(34.28125,569.375)" />
      <path
         style="fill:#ffffff;fill-opacity:1;stroke-width:1.35000002;stroke-miterlimit:10;stroke-dasharray:none"
         d="M 10.20442,6.2833638 C 10.183354,6.2728125 10.134478,6.2389729 10.095806,6.2081645 9.9771136,6.1136071 9.9004182,6.0700426 9.7911182,6.035096 9.6826118,6.0004032 9.6463298,5.9946264 9.537212,5.9946694 9.4495082,5.994704 9.4166101,5.9983095 9.3418995,6.016075 9.1511014,6.0614452 9.146587,6.059768 9.146587,5.9435132 c 0,-0.084038 0.00966,-0.1066476 0.042139,-0.098631 0.042239,0.010425 0.3007374,0.022039 0.3934636,0.017678 0.2316568,-0.010896 0.361107,-0.064109 0.5565847,-0.2287986 0.10389,-0.087526 0.170926,-0.1355609 0.189186,-0.1355609 0.02679,0 0.289611,0.2760755 0.316495,0.3324519 0.01198,0.025117 0.01193,0.028824 -6.68e-4,0.055246 -0.03769,0.079042 -0.298855,0.3617083 -0.369055,0.3994424 l -0.03201,0.017207 -0.0383,-0.019184 0,0 z"
         id="path3016"
         inkscape:connector-curvature="0"
         transform="translate(34.28125,569.375)" />
      <path
         style="fill:#ffffff;fill-opacity:1;stroke-width:1.35000002;stroke-miterlimit:10;stroke-dasharray:none"
         d="M 9.4228793,7.5691693 C 9.4008166,7.5610752 9.3440699,7.5346596 9.2967755,7.5104678 9.0971617,7.4083628 9.0382362,7.3466628 9.0990086,7.3033891 c 0.012504,-0.0089 0.055467,-0.02883 0.095474,-0.04428 0.2398258,-0.092621 0.4580359,-0.2546783 0.6031384,-0.4479311 0.067484,-0.089878 0.096805,-0.1546044 0.1187716,-0.2621959 0.018873,-0.092436 0.028097,-0.2006555 0.017973,-0.2108718 -0.00775,-0.00782 -0.033451,0.008 -0.1198098,0.073747 -0.1055948,0.080396 -0.1120004,0.082624 -0.234375,0.081524 C 9.4540801,6.4922483 9.3735542,6.4801957 9.320611,6.4545309 9.2489406,6.4197881 9.1387745,6.281463 9.1387745,6.2262162 c 0,-0.089402 0.1724338,-0.157703 0.3981398,-0.157703 0.1427325,0 0.2698932,0.035967 0.3786261,0.1070918 0.1022616,0.066892 0.2519296,0.2382088 0.2778736,0.3180665 0.01605,0.049412 0.0059,0.225569 -0.01833,0.3189781 -0.07698,0.2963803 -0.3232593,0.6052713 -0.5897055,0.7396158 -0.062413,0.03147 -0.1094578,0.036363 -0.1624992,0.016904 l 0,0 z M 9.6312597,6.2228101 c 0.071326,-0.035967 0.041111,-0.076359 -0.061567,-0.082303 -0.069796,-0.00404 -0.1184185,0.010752 -0.1184185,0.036026 0,0.020739 0.015431,0.031742 0.068146,0.04859 0.059005,0.018858 0.070321,0.018624 0.1118394,-0.00231 z"
         id="path3018"
         inkscape:connector-curvature="0"
         transform="translate(34.28125,569.375)" />
      <path
         style="fill:#ffffff;fill-opacity:1;stroke-width:1.35000002;stroke-miterlimit:10;stroke-dasharray:none"
         d="m 9.0850156,7.1619121 c -0.036679,-0.060314 -0.024478,-0.1267115 0.032199,-0.1752245 0.017208,-0.01473 0.083679,-0.053878 0.1477125,-0.086997 0.1121241,-0.057991 0.1550978,-0.086874 0.1550978,-0.1042421 0,-0.015094 -0.042151,-0.00828 -0.1671862,0.027041 -0.06832,0.019297 -0.1285541,0.035086 -0.1338544,0.035086 -0.0053,0 -0.011757,-0.00791 -0.014348,-0.017578 -0.00568,-0.021184 -0.00462,-0.1860248 0.00199,-0.3122323 l 0.0048,-0.091529 0.078125,0.066886 c 0.092636,0.079309 0.1573862,0.1192787 0.259598,0.1602481 0.077441,0.03104 0.1114958,0.054503 0.1114958,0.076818 0,0.01871 0.015967,0.031451 0.039414,0.031451 0.011365,0 0.027187,0.00721 0.035159,0.016017 0.014121,0.015603 0.014116,0.016721 -1.733e-4,0.043255 -0.01921,0.03567 -0.1150947,0.1266236 -0.2033064,0.19285 -0.074901,0.056233 -0.2566932,0.1517598 -0.3031558,0.1592996 -0.025325,0.00411 -0.029421,0.00212 -0.043572,-0.021147 z"
         id="path3020"
         inkscape:connector-curvature="0"
         transform="translate(34.28125,569.375)" />
      <path
         style="fill:#ffffff;fill-opacity:1;stroke-width:1.35000002;stroke-miterlimit:10;stroke-dasharray:none"
         d="m 9.0183411,8.9602068 c -0.021736,-0.03517 -0.025167,-0.3919191 -0.00465,-0.4834904 0.011531,-0.051464 0.023421,-0.052533 0.066754,-0.006 0.082922,0.089044 0.1103786,0.2114175 0.072119,0.321432 -0.034146,0.098186 -0.1149099,0.1993102 -0.1342236,0.16806 z"
         id="path3022"
         inkscape:connector-curvature="0"
         transform="translate(34.28125,569.375)" />
      <path
         style="fill:#ffffff;fill-opacity:1;stroke-width:1.35000002;stroke-miterlimit:10;stroke-dasharray:none"
         d="M 8.6842388,9.1251538 C 8.5906749,9.0772178 8.5850045,9.0550352 8.5679099,8.6700757 8.5565133,8.4134313 8.5600908,8.1934345 8.5759715,8.174327 c 0.023861,-0.028709 0.1157731,0.00328 0.2073342,0.072151 0.067711,0.050934 0.068357,0.053784 0.063305,0.2790664 -0.00487,0.2173524 -0.022521,0.4849926 -0.036317,0.5507812 -0.018329,0.087406 -0.036796,0.094559 -0.1260551,0.048828 l 0,0 z"
         id="path3024"
         inkscape:connector-curvature="0"
         transform="translate(34.28125,569.375)" />
      <path
         style="fill:#ffffff;fill-opacity:1;stroke-width:1.35000002;stroke-miterlimit:10;stroke-dasharray:none"
         d="M 8.3967909,8.9068418 C 8.3741181,8.878018 8.3304703,8.7844665 8.3068095,8.7139821 c -0.033037,-0.098417 -0.020871,-0.2157475 0.033731,-0.325306 0.026151,-0.052471 0.070526,-0.082469 0.091285,-0.06171 0.022026,0.022026 0.028687,0.1090069 0.025247,0.3296885 -0.00411,0.2633959 -0.014842,0.3079553 -0.060282,0.2501872 z"
         id="path3026"
         inkscape:connector-curvature="0"
         transform="translate(34.28125,569.375)" />
      <path
         style="fill:#ffffff;fill-opacity:1;stroke-width:1.35000002;stroke-miterlimit:10;stroke-dasharray:none"
         d="m 9.1727251,11.256046 c -0.038063,-0.01535 -0.1566849,-0.09797 -0.2000426,-0.139318 -0.054599,-0.05207 -0.068283,-0.07554 -0.068283,-0.117091 0,-0.02674 0.00667,-0.03806 0.053071,-0.09002 0.1113138,-0.124656 0.1821673,-0.319052 0.1656985,-0.454616 -0.00682,-0.05617 -0.027295,-0.12937 -0.046845,-0.167501 C 9.0304676,10.198058 8.7654053,10.000454 8.3575245,9.7516344 8.2608448,9.6926568 8.1571338,9.6267296 8.1270557,9.6051295 7.9059153,9.446321 7.7386501,9.2500207 7.6365263,9.0294507 7.5618681,8.8682016 7.5510306,8.8138084 7.5509142,8.5997632 7.5507665,8.3281017 7.5901831,8.1753719 7.7014255,8.0165682 7.73395,7.9701378 7.8944904,7.7794507 7.9010558,7.7794507 c 0.0066,0 0.1782047,0.087422 0.2416249,0.1230905 0.1111524,0.062514 0.1530151,0.1076687 0.1416821,0.1528228 -0.00254,0.010122 -0.026561,0.046226 -0.05338,0.08023 -0.1295618,0.1642779 -0.1598242,0.3179872 -0.1036679,0.5265509 0.020642,0.076663 0.067204,0.2003205 0.088297,0.2344936 0.059647,0.096635 0.1994348,0.1989404 0.5285844,0.3868504 0.2354698,0.1344288 0.6679867,0.4298013 0.7373692,0.503561 0.051388,0.05463 0.1108173,0.1484357 0.1729897,0.2730554 0.084371,0.169115 0.095697,0.223412 0.084625,0.405718 -0.019458,0.320385 -0.1302379,0.556902 -0.3319487,0.708714 -0.1079904,0.08128 -0.1762598,0.105005 -0.2345068,0.08151 z"
         id="path3028"
         inkscape:connector-curvature="0"
         transform="translate(34.28125,569.375)" />
      <path
         style="fill:#ffffff;fill-opacity:1;stroke-width:1.35000002;stroke-miterlimit:10;stroke-dasharray:none"
         d="M 9.2475036,9.440825 C 9.1116612,9.3849416 8.9836114,9.2902853 8.9698882,9.2356076 8.9619123,9.2038291 8.9959306,9.1528347 9.085261,9.0626606 l 0.083205,-0.083991 0.3293816,0.00212 0.3293816,0.00212 -0.025111,0.044754 c -0.089993,0.1603886 -0.225536,0.2943231 -0.3991011,0.3943636 -0.07341,0.042312 -0.092686,0.044642 -0.1555135,0.018796 z"
         id="path3030"
         inkscape:connector-curvature="0"
         transform="translate(34.28125,569.375)" />
      <path
         style="fill:#ffffff;fill-opacity:1;stroke-width:1.35000002;stroke-miterlimit:10;stroke-dasharray:none"
         d="m 8.907741,10.761265 c -0.010114,-0.02636 0.00164,-0.19449 0.016062,-0.229861 0.01556,-0.03815 0.02469,-0.04154 0.035477,-0.01316 0.020083,0.05282 0.00137,0.194272 -0.031461,0.237796 -0.013355,0.01771 -0.015115,0.01816 -0.020078,0.0052 z"
         id="path3032"
         inkscape:connector-curvature="0"
         transform="translate(34.28125,569.375)" />
      <path
         style="fill:#ffffff;fill-opacity:1;stroke-width:1.35000002;stroke-miterlimit:10;stroke-dasharray:none"
         d="m 8.6895557,10.946923 c -0.012891,-0.0067 -0.038493,-0.02682 -0.056895,-0.0448 -0.056375,-0.05506 -0.058037,-0.06632 -0.062242,-0.421503 -0.00202,-0.170801 -0.00144,-0.310547 0.00128,-0.310547 0.013708,0 0.1166948,0.05758 0.1407254,0.07868 0.036211,0.03179 0.043778,0.06071 0.048918,0.186948 0.00496,0.121891 -0.0093,0.438525 -0.022024,0.489075 -0.00949,0.03768 -0.014991,0.04013 -0.049766,0.02215 z"
         id="path3034"
         inkscape:connector-curvature="0"
         transform="translate(34.28125,569.375)" />
      <path
         style="fill:#ffffff;fill-opacity:1;stroke-width:1.35000002;stroke-miterlimit:10;stroke-dasharray:none"
         d="m 8.4264927,10.630054 c -0.014208,-0.0472 -0.013352,-0.160823 0.00143,-0.18987 0.024874,-0.04888 0.054602,-0.0263 0.054602,0.04148 0,0.04458 -0.026222,0.16264 -0.039033,0.175736 -0.00377,0.0039 -0.011203,-0.0081 -0.016998,-0.02734 z"
         id="path3036"
         inkscape:connector-curvature="0"
         transform="translate(34.28125,569.375)" />
      <path
         style="fill:#ffffff;fill-opacity:1;stroke-width:1.35000002;stroke-miterlimit:10;stroke-dasharray:none"
         d="m 8.8848923,12.628694 c -0.034109,-0.03411 -0.043796,-0.06962 -0.048389,-0.177368 -0.00467,-0.109653 0.00826,-0.179146 0.04983,-0.267729 0.024922,-0.05311 0.029019,-0.06953 0.028439,-0.113956 C 8.912547,11.899106 8.7512137,11.732655 8.3964791,11.534904 8.2288104,11.441435 8.0721269,11.316384 7.9335433,11.165428 7.8269375,11.049305 7.7809997,10.976035 7.7359285,10.850237 c -0.063718,-0.177841 -0.08537,-0.302736 -0.079164,-0.45662 0.00651,-0.161394 0.038724,-0.269899 0.1278315,-0.4305725 0.098814,-0.1781752 0.1316655,-0.1982641 0.2366428,-0.1447087 0.074913,0.038218 0.2893624,0.1818242 0.3166889,0.2120712 0.03535,0.03913 0.033965,0.0548 -0.01115,0.126234 -0.044838,0.071 -0.068022,0.126059 -0.082,0.194746 -0.023985,0.117866 -0.010644,0.240681 0.036213,0.333352 0.055782,0.110325 0.2440869,0.278113 0.5179394,0.46151 0.1935777,0.129637 0.2606466,0.181596 0.3564964,0.276185 0.1262557,0.124595 0.2147385,0.277071 0.2443909,0.42114 0.024917,0.121062 0.012435,0.279394 -0.031156,0.395204 -0.056512,0.150139 -0.204442,0.319261 -0.3430151,0.392154 -0.063026,0.03315 -0.1060465,0.03247 -0.1407545,-0.0022 l 0,0 z"
         id="path3038"
         inkscape:connector-curvature="0"
         transform="translate(34.28125,569.375)" />
      <path
         style="fill:#ffffff;fill-opacity:1;stroke-width:1.35000002;stroke-miterlimit:10;stroke-dasharray:none"
         d="m 8.6251249,12.437546 c -0.013117,-0.01225 -0.027774,-0.03614 -0.032571,-0.05308 -0.015812,-0.05583 -0.025968,-0.193199 -0.021915,-0.296425 0.00568,-0.144644 0.020012,-0.170418 0.068052,-0.122379 0.039224,0.03923 0.048949,0.08852 0.052656,0.266911 0.00446,0.214817 -0.00948,0.257975 -0.066222,0.20497 z"
         id="path3040"
         inkscape:connector-curvature="0"
         transform="translate(34.28125,569.375)" />
      <path
         style="fill:#ffffff;fill-opacity:1;stroke-width:1.35000002;stroke-miterlimit:10;stroke-dasharray:none"
         d="m 8.458103,12.132966 c -0.016107,-0.04115 -0.017111,-0.07917 -0.00306,-0.115961 0.00855,-0.02238 0.016409,-0.033 0.021018,-0.02839 0.018357,0.01836 0.01656,0.165839 -0.00202,0.165839 -0.00414,0 -0.011312,-0.0097 -0.015937,-0.02149 z"
         id="path3042"
         inkscape:connector-curvature="0"
         transform="translate(34.28125,569.375)" />
      <path
         style="fill:#ffffff;fill-opacity:1;stroke-width:1.35000002;stroke-miterlimit:10;stroke-dasharray:none"
         d="m 8.9668995,13.794538 c 0,-0.0046 0.00855,-0.04238 0.018992,-0.08398 0.010445,-0.0416 0.023157,-0.104654 0.028248,-0.140123 0.012588,-0.0877 0.00598,-0.259677 -0.011873,-0.308815 C 8.9685453,13.168782 8.8463196,13.023113 8.7438866,12.953678 8.7179092,12.936069 8.6423232,12.895341 8.5759178,12.86317 8.3816154,12.76904 8.2356862,12.665967 8.1075245,12.532335 7.9825622,12.402039 7.9181013,12.296473 7.8909242,12.177613 c -0.020628,-0.09022 -0.017962,-0.287181 0.00507,-0.374725 0.031308,-0.118993 0.079214,-0.1875 0.1311171,-0.1875 0.029499,0 0.1331995,0.05039 0.2384083,0.115846 l 0.083778,0.05212 -0.00565,0.08203 c -0.00311,0.04512 -0.00565,0.13125 -0.00565,0.191406 0,0.09671 0.00202,0.113757 0.017458,0.147207 0.058236,0.126196 0.1719697,0.248567 0.4005105,0.430928 0.269519,0.215059 0.3607738,0.310565 0.4254816,0.445303 0.041992,0.08744 0.051081,0.125267 0.051081,0.212601 0,0.147363 -0.082961,0.331284 -0.2098071,0.465133 -0.041732,0.04404 -0.055818,0.05327 -0.055818,0.03657 z"
         id="path3044"
         inkscape:connector-curvature="0"
         transform="translate(34.28125,569.375)" />
      <path
         style="fill:#ffffff;fill-opacity:1;stroke-width:1.35000002;stroke-miterlimit:10;stroke-dasharray:none"
         d="m 8.1409773,13.680219 c -0.050248,-0.0751 -0.075819,-0.130639 -0.095413,-0.207253 -0.031841,-0.124496 -0.040408,-0.352263 -0.01536,-0.408359 0.027839,-0.06235 0.1060741,-0.147498 0.1443425,-0.157103 0.051713,-0.01298 0.1476183,0.02303 0.1663254,0.06244 0.015788,0.03327 0.00187,0.06886 -0.053137,0.135926 -0.1087656,0.132603 -0.1332451,0.246742 -0.1092691,0.509481 0.01227,0.134459 0.01079,0.137019 -0.037488,0.06487 z"
         id="path3046"
         inkscape:connector-curvature="0"
         transform="translate(34.28125,569.375)" />
      <path
         style="fill:#ffffff;fill-opacity:1;stroke-width:1.35000002;stroke-miterlimit:10;stroke-dasharray:none"
         d="m 8.3981784,13.796966 c -0.061306,-0.127977 -0.075281,-0.186957 -0.075421,-0.318297 -1.294e-4,-0.121571 0.00915,-0.157447 0.059978,-0.231935 0.038784,-0.05683 0.056197,-0.0565 0.075674,0.0015 0.033142,0.09863 0.019802,0.592854 -0.016995,0.629651 -0.00167,0.0017 -0.021126,-0.03473 -0.043236,-0.08089 z"
         id="path3048"
         inkscape:connector-curvature="0"
         transform="translate(34.28125,569.375)" />
      <path
         style="fill:#ffffff;fill-opacity:1;stroke-width:1.35000002;stroke-miterlimit:10;stroke-dasharray:none"
         d="m 8.597933,14.588044 c -0.00907,-0.026 -0.02071,-0.31767 -0.025879,-0.648437 -0.00459,-0.293857 0.00471,-0.72321 0.016999,-0.784614 0.00487,-0.02433 0.00595,-0.02522 0.011698,-0.0097 0.017581,0.04753 0.023955,0.318782 0.019355,0.823696 -0.00459,0.503346 -0.00998,0.653991 -0.022173,0.619035 z"
         id="path3050"
         inkscape:connector-curvature="0"
         transform="translate(34.28125,569.375)" />
      <path
         style="fill:#ffffff;fill-opacity:1;stroke-width:1.35000002;stroke-miterlimit:10;stroke-dasharray:none"
         d="m 8.7712445,13.821519 c -0.014371,-0.0378 -0.01731,-0.154328 -0.00775,-0.307272 0.012748,-0.203924 0.023983,-0.234072 0.07289,-0.195602 0.029379,0.02311 0.044524,0.08116 0.0499,0.191274 0.00778,0.159349 -0.016936,0.278054 -0.065914,0.316581 -0.026449,0.0208 -0.039841,0.01945 -0.049128,-0.005 z"
         id="path3052"
         inkscape:connector-curvature="0"
         transform="translate(34.28125,569.375)" />
    </g>
  </g>
</svg>
