<?xml version="1.0" encoding="UTF-8" standalone="no"?>
<!-- Created with Inkscape (http://www.inkscape.org/) -->

<svg
   xmlns:dc="http://purl.org/dc/elements/1.1/"
   xmlns:cc="http://creativecommons.org/ns#"
   xmlns:rdf="http://www.w3.org/1999/02/22-rdf-syntax-ns#"
   xmlns:svg="http://www.w3.org/2000/svg"
   xmlns="http://www.w3.org/2000/svg"
   xmlns:xlink="http://www.w3.org/1999/xlink"
   xmlns:sodipodi="http://sodipodi.sourceforge.net/DTD/sodipodi-0.dtd"
   xmlns:inkscape="http://www.inkscape.org/namespaces/inkscape"
   width="17.611818"
   height="17.781252"
   id="svg3339"
   version="1.1"
   inkscape:version="0.48.3.1 r9886"
   sodipodi:docname="POI_education.svg"
   inkscape:export-filename="/home/gabi/SEP/JoglEarth/Spezifikation/res/iconsPoi/POI_Education.png"
   inkscape:export-xdpi="2556"
   inkscape:export-ydpi="2556">
  <defs
     id="defs3341">
    <filter
       id="imagebot_77"
       color-interpolation-filters="sRGB">
      <feGaussianBlur
         id="imagebot_83"
         stdDeviation="2.68359" />
    </filter>
    <linearGradient
       gradientUnits="userSpaceOnUse"
       gradientTransform="scale(0.93314657,1.071643)"
       id="imagebot_75"
       y2="610.96385"
       xlink:href="#imagebot_82"
       y1="706.61178"
       x2="719.02793"
       x1="746.17556" />
    <linearGradient
       id="imagebot_82">
      <stop
         id="imagebot_104"
         stop-color="#dfdfdf"
         offset="0" />
      <stop
         id="imagebot_103"
         stop-color="#fff"
         offset="1" />
    </linearGradient>
    <linearGradient
       gradientUnits="userSpaceOnUse"
       gradientTransform="scale(0.93313895,1.0716518)"
       id="imagebot_68"
       y2="692.02572"
       xlink:href="#imagebot_82"
       y1="619.24016"
       x2="732.20632"
       x1="716.39903" />
    <linearGradient
       id="linearGradient5066">
      <stop
         id="stop5068"
         stop-color="#dfdfdf"
         offset="0" />
      <stop
         id="stop5070"
         stop-color="#fff"
         offset="1" />
    </linearGradient>
    <filter
       id="imagebot_50"
       color-interpolation-filters="sRGB">
      <feGaussianBlur
         id="imagebot_84"
         stdDeviation="2.08236" />
    </filter>
    <linearGradient
       gradientUnits="userSpaceOnUse"
       gradientTransform="scale(0.93594535,1.0684385)"
       id="imagebot_48"
       x2="737.16982"
       y1="615.75739"
       x1="726.47682"
       y2="623.91586">
      <stop
         id="imagebot_91"
         stop-color="#9b6a06"
         offset="0" />
      <stop
         id="imagebot_90"
         stop-color="#b38e29"
         offset=".10284" />
      <stop
         id="imagebot_89"
         stop-color="#faf892"
         offset=".25018" />
      <stop
         id="imagebot_88"
         stop-color="#ddba32"
         offset=".51725" />
      <stop
         id="imagebot_87"
         stop-color="#cf9e08"
         offset=".6932" />
      <stop
         id="imagebot_86"
         stop-color="#976400"
         offset=".73575" />
      <stop
         id="imagebot_85"
         stop-color="#976400"
         offset="1" />
    </linearGradient>
    <linearGradient
       gradientUnits="userSpaceOnUse"
       gradientTransform="scale(0.95014084,1.0524755)"
       id="imagebot_46"
       x2="649.9041"
       y1="707.64765"
       x1="648.2462"
       y2="708.58134">
      <stop
         id="imagebot_94"
         stop-color="#a07100"
         offset="0" />
      <stop
         id="imagebot_93"
         stop-color="#f4f300"
         offset=".43039" />
      <stop
         id="imagebot_92"
         stop-color="#9e700b"
         offset="1" />
    </linearGradient>
    <linearGradient
       gradientUnits="userSpaceOnUse"
       gradientTransform="scale(1.0082381,0.99182919)"
       id="imagebot_44"
       x2="617.53384"
       y1="745.21991"
       x1="614.02773"
       y2="748.42962">
      <stop
         id="imagebot_97"
         stop-color="#a07100"
         offset="0" />
      <stop
         id="imagebot_96"
         stop-color="#f6f600"
         offset=".38158" />
      <stop
         id="imagebot_95"
         stop-color="#9e700b"
         offset="1" />
    </linearGradient>
    <linearGradient
       gradientUnits="userSpaceOnUse"
       gradientTransform="scale(0.92919642,1.0761987)"
       id="imagebot_42"
       x2="673.2575"
       y1="679.81013"
       x1="684.67244"
       y2="671.43373">
      <stop
         id="imagebot_102"
         stop-color="#375a93"
         offset="0" />
      <stop
         id="imagebot_101"
         stop-color="#5c9eda"
         offset=".36961" />
      <stop
         id="imagebot_100"
         stop-color="#97cafd"
         offset=".53886" />
      <stop
         id="imagebot_99"
         stop-color="#8bbff3"
         offset=".77808" />
      <stop
         id="imagebot_98"
         stop-color="#2a629a"
         offset="1" />
    </linearGradient>
    <linearGradient
       inkscape:collect="always"
       xlink:href="#imagebot_82"
       id="linearGradient5259"
       gradientUnits="userSpaceOnUse"
       gradientTransform="scale(0.93314657,1.071643)"
       x1="746.17556"
       y1="706.61178"
       x2="719.02793"
       y2="610.96385" />
    <linearGradient
       inkscape:collect="always"
       xlink:href="#imagebot_82"
       id="linearGradient5261"
       gradientUnits="userSpaceOnUse"
       gradientTransform="scale(0.93313895,1.0716518)"
       x1="716.39903"
       y1="619.24016"
       x2="732.20632"
       y2="692.02572" />
    <linearGradient
       inkscape:collect="always"
       xlink:href="#imagebot_48"
       id="linearGradient5263"
       gradientUnits="userSpaceOnUse"
       gradientTransform="scale(0.93594535,1.0684385)"
       x1="726.47682"
       y1="615.75739"
       x2="737.16982"
       y2="623.91586" />
    <linearGradient
       inkscape:collect="always"
       xlink:href="#imagebot_46"
       id="linearGradient5265"
       gradientUnits="userSpaceOnUse"
       gradientTransform="scale(0.95014084,1.0524755)"
       x1="648.2462"
       y1="707.64765"
       x2="649.9041"
       y2="708.58134" />
    <linearGradient
       inkscape:collect="always"
       xlink:href="#imagebot_44"
       id="linearGradient5267"
       gradientUnits="userSpaceOnUse"
       gradientTransform="scale(1.0082381,0.99182919)"
       x1="614.02773"
       y1="745.21991"
       x2="617.53384"
       y2="748.42962" />
    <linearGradient
       inkscape:collect="always"
       xlink:href="#imagebot_42"
       id="linearGradient5269"
       gradientUnits="userSpaceOnUse"
       gradientTransform="scale(0.92919642,1.0761987)"
       x1="684.67244"
       y1="679.81013"
       x2="673.2575"
       y2="671.43373" />
    <linearGradient
       inkscape:collect="always"
       xlink:href="#imagebot_82"
       id="linearGradient5284"
       gradientUnits="userSpaceOnUse"
       gradientTransform="scale(0.93314657,1.071643)"
       x1="746.17556"
       y1="706.61178"
       x2="719.02793"
       y2="610.96385" />
    <linearGradient
       inkscape:collect="always"
       xlink:href="#imagebot_82"
       id="linearGradient5286"
       gradientUnits="userSpaceOnUse"
       gradientTransform="scale(0.93313895,1.0716518)"
       x1="716.39903"
       y1="619.24016"
       x2="732.20632"
       y2="692.02572" />
    <linearGradient
       inkscape:collect="always"
       xlink:href="#imagebot_82"
       id="linearGradient5288"
       gradientUnits="userSpaceOnUse"
       gradientTransform="scale(0.93314657,1.071643)"
       x1="746.17556"
       y1="706.61178"
       x2="719.02793"
       y2="610.96385" />
    <linearGradient
       inkscape:collect="always"
       xlink:href="#imagebot_82"
       id="linearGradient5290"
       gradientUnits="userSpaceOnUse"
       gradientTransform="scale(0.93313895,1.0716518)"
       x1="716.39903"
       y1="619.24016"
       x2="732.20632"
       y2="692.02572" />
    <filter
       id="filter5292"
       inkscape:label="Desaturate"
       x="0"
       y="0"
       width="1"
       height="1"
       inkscape:menu="Color"
       inkscape:menu-tooltip="Render in shades of gray by reducing saturation to zero"
       color-interpolation-filters="sRGB">
      <feColorMatrix
         id="feColorMatrix5294"
         type="saturate"
         values="0"
         result="fbSourceGraphic" />
      <feColorMatrix
         result="fbSourceGraphicAlpha"
         in="fbSourceGraphic"
         values="0 0 0 -1 0 0 0 0 -1 0 0 0 0 -1 0 0 0 0 1 0"
         id="feColorMatrix5308" />
      <feColorMatrix
         id="feColorMatrix5310"
         type="saturate"
         values="0"
         in="fbSourceGraphic" />
    </filter>
    <filter
       id="filter5296"
       inkscape:label="Desaturate"
       x="0"
       y="0"
       width="1"
       height="1"
       inkscape:menu="Color"
       inkscape:menu-tooltip="Render in shades of gray by reducing saturation to zero"
       color-interpolation-filters="sRGB">
      <feColorMatrix
         id="feColorMatrix5298"
         type="saturate"
         values="0" />
    </filter>
    <filter
       id="filter5300"
       inkscape:label="Desaturate"
       x="0"
       y="0"
       width="1"
       height="1"
       inkscape:menu="Color"
       inkscape:menu-tooltip="Render in shades of gray by reducing saturation to zero"
       color-interpolation-filters="sRGB">
      <feColorMatrix
         id="feColorMatrix5302"
         type="saturate"
         values="0" />
    </filter>
    <filter
       id="filter5304"
       inkscape:label="Desaturate"
       x="0"
       y="0"
       width="1"
       height="1"
       inkscape:menu="Color"
       inkscape:menu-tooltip="Render in shades of gray by reducing saturation to zero"
       color-interpolation-filters="sRGB">
      <feColorMatrix
         id="feColorMatrix5306"
         type="saturate"
         values="0" />
    </filter>
  </defs>
  <sodipodi:namedview
     id="base"
     pagecolor="#ffffff"
     bordercolor="#666666"
     borderopacity="1.0"
     inkscape:pageopacity="0"
     inkscape:pageshadow="2"
     inkscape:zoom="19.784938"
     inkscape:cx="15.742894"
     inkscape:cy="10.697333"
     inkscape:document-units="px"
     inkscape:current-layer="g5202"
     showgrid="false"
     fit-margin-top="0"
     fit-margin-left="0"
     fit-margin-right="0"
     fit-margin-bottom="0"
     inkscape:window-width="1306"
     inkscape:window-height="744"
     inkscape:window-x="60"
     inkscape:window-y="24"
     inkscape:window-maximized="1" />
  <metadata
     id="metadata3344">
    <rdf:RDF>
      <cc:Work
         rdf:about="">
        <dc:format>image/svg+xml</dc:format>
        <dc:type
           rdf:resource="http://purl.org/dc/dcmitype/StillImage" />
        <dc:title></dc:title>
      </cc:Work>
    </rdf:RDF>
  </metadata>
  <g
     inkscape:label="Ebene 1"
     inkscape:groupmode="layer"
     id="layer1"
     transform="translate(-341.24097,-523.42468)">
    <g
       id="g5202"
       transform="translate(306.95972,-45.950317)">
      <path
         sodipodi:type="arc"
         style="stroke-width:1.20000005000000010;stroke-miterlimit:10;stroke-dasharray:none;stroke-dashoffset:0;fill:none;stroke:#000000;stroke-opacity:1"
         id="path2987"
         sodipodi:cx="9.6534653"
         sodipodi:cy="9.3654099"
         sodipodi:rx="6.3118811"
         sodipodi:ry="6.5594058"
         d="m 15.965346,9.3654099 c 0,3.6226601 -2.825925,6.5594061 -6.3118807,6.5594061 -3.4859557,0 -6.3118811,-2.936746 -6.3118811,-6.5594061 0,-3.6226598 2.8259254,-6.5594059 6.3118811,-6.5594059 3.4859557,0 6.3118807,2.9367461 6.3118807,6.5594059 z"
         transform="matrix(1.1568627,0,0,1.0943396,31.900648,567.87267)" />
      <circle
         r="0"
         cx="277.5"
         cy="-63"
         label="Layer 1"
         fill-opacity="null"
         stroke-opacity="null"
         id="imagebot_36"
         sodipodi:cx="277.5"
         sodipodi:cy="-63"
         sodipodi:rx="0"
         sodipodi:ry="0"
         style="stroke-linecap:round;stroke-linejoin:round;stroke-dasharray:none"
         transform="matrix(0.02766026,0,0,0.02766026,37.834693,572.30803)" />
      <circle
         r="0"
         cx="-80.5"
         cy="-41"
         label="Layer 1"
         fill-opacity="null"
         stroke-opacity="null"
         id="imagebot_34"
         sodipodi:cx="-80.5"
         sodipodi:cy="-41"
         sodipodi:rx="0"
         sodipodi:ry="0"
         style="stroke-linecap:round;stroke-linejoin:round;stroke-dasharray:none"
         transform="matrix(0.02766026,0,0,0.02766026,37.834693,572.30803)" />
      <circle
         r="0"
         cx="-82.5"
         cy="33"
         label="Layer 1"
         fill-opacity="null"
         stroke-opacity="null"
         id="imagebot_33"
         sodipodi:cx="-82.5"
         sodipodi:cy="33"
         sodipodi:rx="0"
         sodipodi:ry="0"
         style="stroke-linecap:round;stroke-linejoin:round;stroke-dasharray:none"
         transform="matrix(0.02766026,0,0,0.02766026,37.834693,572.30803)" />
      <circle
         r="0"
         cx="149.5"
         cy="65"
         label="Layer 1"
         fill-opacity="null"
         stroke-opacity="null"
         id="imagebot_32"
         sodipodi:cx="149.5"
         sodipodi:cy="65"
         sodipodi:rx="0"
         sodipodi:ry="0"
         style="stroke-linecap:round;stroke-linejoin:round;stroke-dasharray:none"
         transform="matrix(0.02766026,0,0,0.02766026,37.834693,572.30803)" />
      <circle
         r="0"
         cx="76.5"
         cy="114"
         label="Layer 1"
         fill-opacity="null"
         stroke-opacity="null"
         id="imagebot_2"
         sodipodi:cx="76.5"
         sodipodi:cy="114"
         sodipodi:rx="0"
         sodipodi:ry="0"
         style="stroke-linecap:round;stroke-linejoin:round;stroke-dasharray:none"
         transform="matrix(0.02766026,0,0,0.02766026,37.834693,572.30803)" />
      <path
         id="path3958"
         d="m 40.285132,573.75265 0.286417,4.67991 6.643812,0.0271 0.210647,-4.81522 z"
         style="fill:#ffffff;stroke:#000000;stroke-width:0.41923955;stroke-linecap:round;stroke-linejoin:round;stroke-miterlimit:4;stroke-dasharray:none;stroke-dashoffset:3.003;display:inline"
         inkscape:connector-curvature="0" />
      <path
         id="path3960"
         d="m 47.547481,578.29756 -0.05926,0.37872 h -7.022197 l -0.05927,-0.37872 z"
         style="fill:#ffffff;stroke:#000000;stroke-width:0.41923955;stroke-linecap:round;stroke-linejoin:round;stroke-miterlimit:4;stroke-dasharray:none;stroke-dashoffset:3.003;display:inline"
         inkscape:connector-curvature="0" />
      <path
         id="path3954"
         d="m 38.9271,582.64375 c -0.21234,0.0545 -0.343186,-0.076 -0.167308,-0.19426 l 0.559716,-0.44472 c 0.20399,-1.77638 0.27972,-3.00843 0.321662,-4.78477 l -1.154663,1.37962 0.04171,0.40853 -0.117682,0.0378 -0.136742,-0.12174 -0.412802,0.29893 c -0.167722,-0.0345 -0.276891,-0.1 -0.331641,-0.2854 0.134917,-0.18161 0.233968,-0.25557 0.447965,-0.41274 l 1.694242,-2.52232 1.256892,-0.13989 c 0.414604,-0.0419 1.969659,-0.42558 1.969659,-0.42558 l 0.849587,-0.29669 c 0,0 0.109711,0.0389 0.0697,0.10926 -0.03289,0.0577 -0.201772,0.14295 -0.316531,0.19175 0.101191,0.10476 0.0083,0.36856 -0.0198,0.37136 l -0.550793,0.0378 c 0,0 -1.929809,0.89113 -1.930619,0.95699 0.164861,1.82145 0.213486,3.29795 0.53958,5.11911 l 0.587081,0.61536 c 0.154268,0.13025 0.13072,0.20116 -0.03906,0.22323 l -1.352177,-0.35167 -0.321659,-2.96771 -0.377224,2.94068 z"
         style="fill:#ffffff;stroke:#000000;stroke-width:0.41923955;stroke-linecap:round;stroke-linejoin:round;stroke-miterlimit:4;stroke-dasharray:none;stroke-dashoffset:3.003;display:inline"
         inkscape:connector-curvature="0" />
      <path
         id="path3956"
         d="m 40.978783,575.1227 c 0.03613,0.28671 -0.0441,0.60705 -0.305083,0.81733 -0.187876,0.14439 -0.502201,0.1411 -0.678663,-0.003 -0.268679,-0.18608 -0.377049,-0.48827 -0.388085,-0.775 -0.0054,-0.25844 0.08774,-0.5383 0.327506,-0.71923 0.170837,-0.11835 0.434386,-0.13386 0.607254,-0.022 0.275939,0.15274 0.401062,0.43471 0.437067,0.7022 z"
         style="fill:#ffffff;stroke:#000000;stroke-width:0.41923955;stroke-linecap:round;stroke-linejoin:round;stroke-miterlimit:4;stroke-dasharray:none;stroke-dashoffset:3.003;display:inline"
         inkscape:connector-curvature="0" />
      <path
         style="fill:#ffffff;fill-opacity:1;stroke-width:1.35000002;stroke-miterlimit:10;stroke-dasharray:none"
         d="M 8.1844488,15.185379 C 7.3930559,15.116137 6.5245107,14.874037 5.8363327,14.53086 5.441909,14.33417 4.5931818,13.771335 4.4315233,13.599257 l -0.1201257,-0.127867 0.1483818,0.0269 c 0.2089319,0.03788 1.3906895,-0.247436 1.4691188,-0.354694 0.034214,-0.04679 0.07826,-0.234977 0.097881,-0.418194 0.063739,-0.595186 0.1034865,-0.629943 0.1437156,-0.125674 0.02555,0.32027 0.063781,0.497667 0.121953,0.565884 0.056342,0.06607 0.3144223,0.159562 0.770181,0.279001 0.7952605,0.208412 0.8719213,0.214386 1.007762,0.07855 0.1823599,-0.18236 0.13094,-0.333589 -0.246723,-0.725632 L 7.4758572,12.436475 7.3696881,11.703595 C 7.3112952,11.30051 7.2400632,10.720524 7.2113949,10.414736 7.1827267,10.108947 7.1496292,9.7848372 7.1378452,9.6944906 l -0.021426,-0.1642663 3.0990593,0 c 2.766217,0 3.106195,-0.0086 3.165509,-0.080068 0.03655,-0.044037 0.07625,-0.2155407 0.08823,-0.3811182 0.02158,-0.298281 0.02032,-0.3015986 -0.136328,-0.3607269 l -0.158103,-0.059678 0.02669,-0.3805364 c 0.01468,-0.2092951 0.06191,-1.2084502 0.104963,-2.2203447 0.07531,-1.7702113 0.07479,-1.8432078 -0.0138,-1.9296739 -0.09737,-0.095032 0.03776,-0.095358 -6.5971657,0.015949 C 6.15788,4.1430456 5.882106,4.1670749 5.8407759,4.2085 5.80677,4.2425842 5.7836605,4.3799226 5.7885735,4.5187349 c 0.00792,0.2237857 -0.00343,0.25215 -0.11179,0.2793465 -0.1780593,0.04469 -0.4734142,0.3986326 -0.5406461,0.6478908 -0.067294,0.24949 -0.034678,0.6376912 0.071452,0.8504351 0.039964,0.08011 0.056681,0.1524681 0.037149,0.1607952 C 5.225207,6.4655295 4.8321445,7.0295846 4.3712669,7.7106583 3.9103893,8.391732 3.4169226,9.0651336 3.2746743,9.2071068 3.1324259,9.3490799 3.0161259,9.5082919 3.0162298,9.5609113 c 3.74e-4,0.188785 0.1893396,0.4163581 0.3975157,0.4787297 0.178202,0.05339 0.2196625,0.0481 0.3748234,-0.047791 0.095952,-0.059302 0.2535408,-0.1078214 0.3501971,-0.1078214 0.2430417,0 0.3617923,-0.1397796 0.3308655,-0.3894574 -0.021569,-0.174132 0.00203,-0.2220452 0.2562622,-0.5203256 0.1540105,-0.180693 0.3013448,-0.3512773 0.3274096,-0.3790763 0.083427,-0.088978 -0.00977,1.5909495 -0.196696,3.5454595 -0.034448,0.360191 -0.03526,0.361764 -0.2852817,0.552433 -0.3078321,0.234756 -0.4120303,0.386717 -0.3800128,0.554207 0.03321,0.173726 0.00312,0.152901 -0.3582646,-0.247941 C 1.9089965,10.865192 1.6596767,7.6646258 3.2317061,5.2797845 3.8785785,4.298449 4.7702756,3.5013541 5.803006,2.9812794 c 2.5079759,-1.2629965 5.63695,-0.7740638 7.624062,1.1913339 0.581072,0.5747223 0.901678,1.0166467 1.26505,1.7437508 0.485218,0.9709131 0.669724,1.7506858 0.669724,2.8304359 0,1.0797502 -0.184506,1.859523 -0.669724,2.830436 -0.363372,0.727104 -0.683978,1.169029 -1.26505,1.743751 -1.358489,1.343644 -3.300608,2.034305 -5.2426192,1.864392 l 0,0 z"
         id="path3047"
         inkscape:connector-curvature="0"
         transform="translate(34.28125,569.375)" />
    </g>
  </g>
</svg>
