<?xml version="1.0" encoding="UTF-8" standalone="no"?>
<!-- Created with Inkscape (http://www.inkscape.org/) -->

<svg
   xmlns:dc="http://purl.org/dc/elements/1.1/"
   xmlns:cc="http://creativecommons.org/ns#"
   xmlns:rdf="http://www.w3.org/1999/02/22-rdf-syntax-ns#"
   xmlns:svg="http://www.w3.org/2000/svg"
   xmlns="http://www.w3.org/2000/svg"
   xmlns:sodipodi="http://sodipodi.sourceforge.net/DTD/sodipodi-0.dtd"
   xmlns:inkscape="http://www.inkscape.org/namespaces/inkscape"
   width="17.611818"
   height="17.781252"
   id="svg3339"
   version="1.1"
   inkscape:version="0.48.3.1 r9886"
   sodipodi:docname="POI_Bank.svg"
   inkscape:export-filename="/home/gabi/SEP/JoglEarth/Spezifikation/res/iconsPoi/POI_Bank.png"
   inkscape:export-xdpi="2556.063"
   inkscape:export-ydpi="2556.063">
  <defs
     id="defs3341" />
  <sodipodi:namedview
     id="base"
     pagecolor="#ffffff"
     bordercolor="#666666"
     borderopacity="1.0"
     inkscape:pageopacity="0"
     inkscape:pageshadow="2"
     inkscape:zoom="34.615524"
     inkscape:cx="9.4140828"
     inkscape:cy="9.5301539"
     inkscape:document-units="px"
     inkscape:current-layer="g5202"
     showgrid="false"
     fit-margin-top="0"
     fit-margin-left="0"
     fit-margin-right="0"
     fit-margin-bottom="0"
     inkscape:window-width="1306"
     inkscape:window-height="744"
     inkscape:window-x="60"
     inkscape:window-y="24"
     inkscape:window-maximized="1" />
  <metadata
     id="metadata3344">
    <rdf:RDF>
      <cc:Work
         rdf:about="">
        <dc:format>image/svg+xml</dc:format>
        <dc:type
           rdf:resource="http://purl.org/dc/dcmitype/StillImage" />
        <dc:title></dc:title>
      </cc:Work>
    </rdf:RDF>
  </metadata>
  <g
     inkscape:label="Ebene 1"
     inkscape:groupmode="layer"
     id="layer1"
     transform="translate(-341.24097,-523.42468)">
    <g
       id="g5202"
       transform="translate(306.95972,-45.950317)">
      <path
         sodipodi:type="arc"
         style="stroke-width:1.20000005000000010;stroke-miterlimit:10;stroke-dasharray:none;stroke-dashoffset:0;fill:none;stroke:#000000;stroke-opacity:1"
         id="path2987"
         sodipodi:cx="9.6534653"
         sodipodi:cy="9.3654099"
         sodipodi:rx="6.3118811"
         sodipodi:ry="6.5594058"
         d="m 15.965346,9.3654099 c 0,3.6226601 -2.825925,6.5594061 -6.3118807,6.5594061 -3.4859557,0 -6.3118811,-2.936746 -6.3118811,-6.5594061 0,-3.6226598 2.8259254,-6.5594059 6.3118811,-6.5594059 3.4859557,0 6.3118807,2.9367461 6.3118807,6.5594059 z"
         transform="matrix(1.1568627,0,0,1.0943396,31.900648,567.87267)" />
      <text
         xml:space="preserve"
         style="font-size:14.05241489px;font-style:normal;font-weight:normal;line-height:125%;letter-spacing:0px;word-spacing:0px;fill:#000000;fill-opacity:1;stroke:none;font-family:Sans"
         x="32.94313"
         y="664.36383"
         id="text3107"
         sodipodi:linespacing="125%"
         transform="scale(1.140613,0.87672155)"><tspan
           sodipodi:role="line"
           id="tspan3109"
           x="32.94313"
           y="664.36383">€</tspan></text>
      <path
         style="fill:#ffffff;fill-opacity:1;stroke-width:0.60000002;stroke-miterlimit:4;stroke-dasharray:none"
         d="M 8.0187551,15.191203 C 5.7879664,14.939388 3.7855502,13.525443 2.8186425,11.519301 2.3786931,10.606493 2.1873996,9.7654004 2.1863787,8.7393183 2.185106,7.4603196 2.542458,6.2755468 3.2482019,5.2189264 4.3047176,3.6371402 5.9366826,2.6117807 7.8598668,2.3214292 8.3146142,2.252774 9.2518105,2.252584 9.7087483,2.3210544 c 1.7110137,0.2563889 3.2029667,1.0987882 4.2554077,2.4027245 1.049798,1.3006615 1.557363,2.9585396 1.40626,4.5933148 -0.19184,2.0754983 -1.355749,3.8937013 -3.198377,4.9963473 -0.763539,0.45691 -1.744002,0.780212 -2.6715958,0.880943 -0.3296957,0.0358 -1.1519699,0.03404 -1.4816881,-0.0032 l 0,0 z m 1.9644365,-1.931916 c 0.7902384,-0.07451 1.5387524,-0.315371 2.2605464,-0.727396 l 0.209444,-0.119558 0,-0.644846 c 0,-0.354664 -0.0066,-0.644845 -0.01472,-0.644845 -0.0081,0 -0.14427,0.103208 -0.302609,0.229352 -0.466249,0.371445 -0.993105,0.659786 -1.444885,0.790765 -0.645032,0.187007 -1.5780312,0.183019 -2.224436,-0.0095 C 7.7045151,11.906289 7.0457564,11.309455 6.7447172,10.573289 6.6741514,10.400728 6.5598721,10.039564 6.5598721,9.9891145 c 0,-0.011822 0.6592813,-0.024863 1.4650698,-0.028981 l 1.4650698,-0.00749 0.210479,-0.3560154 c 0.1157634,-0.1958086 0.210479,-0.361558 0.210479,-0.3683318 0,-0.00677 -0.7846171,-0.012317 -1.7435935,-0.012317 l -1.7435931,0 -0.018417,-0.1949992 C 6.3816511,8.7698777 6.3815353,8.4056715 6.4051065,8.1802249 l 0.018552,-0.1775703 2.1018073,0 2.1018068,0 0.219624,-0.3779501 c 0.120793,-0.2078726 0.219624,-0.3833719 0.219624,-0.3899984 0,-0.00663 -1.013996,-0.012048 -2.2533247,-0.012048 -1.3340647,0 -2.2533242,-0.010723 -2.2533242,-0.026283 0,-0.066047 0.1793186,-0.5650419 0.262189,-0.7296004 0.4130886,-0.8202866 1.1403094,-1.3327249 2.1090687,-1.4861613 0.442758,-0.070126 1.2087652,-0.043431 1.6009482,0.055794 0.556111,0.1406981 1.076198,0.4099357 1.603774,0.8302379 0.158339,0.1261434 0.294513,0.2293517 0.302609,0.2293517 0.0081,0 0.01472,-0.2919254 0.01472,-0.6487231 l 0,-0.6487231 -0.207417,-0.1211382 C 11.116025,4.0176079 9.7749027,3.7941339 8.3798647,4.0332285 6.9690633,4.2750248 5.8501373,5.0562937 5.2807798,6.1971063 5.1623445,6.4344134 5.0222443,6.8217549 4.9699229,7.0565473 l -0.037016,0.1661104 -0.6096669,0 -0.609667,0 -0.209066,0.3611054 c -0.1149863,0.198608 -0.2090659,0.3741073 -0.2090659,0.3899984 0,0.018524 0.2695558,0.028893 0.751108,0.028893 l 0.7511081,0 0,0.6066642 0,0.6066642 -0.5449133,0 -0.5449133,0 -0.2061947,0.3581613 C 3.3882284,9.7711331 3.2954408,9.9401324 3.2954408,9.9496984 c 0,0.00957 0.3681215,0.017393 0.8180478,0.017393 l 0.8180479,0 0.051733,0.2238879 c 0.1112169,0.481319 0.3682807,1.029758 0.6793414,1.449355 0.293488,0.395894 0.8592905,0.862167 1.3417093,1.105691 0.8132591,0.410532 1.9645735,0.608904 2.9788713,0.513262 z"
         id="path2986"
         inkscape:connector-curvature="0"
         transform="translate(34.28125,569.375)" />
    </g>
  </g>
</svg>
