<?xml version="1.0" encoding="UTF-8" standalone="no"?>
<!-- Created with Inkscape (http://www.inkscape.org/) -->

<svg
   xmlns:dc="http://purl.org/dc/elements/1.1/"
   xmlns:cc="http://creativecommons.org/ns#"
   xmlns:rdf="http://www.w3.org/1999/02/22-rdf-syntax-ns#"
   xmlns:svg="http://www.w3.org/2000/svg"
   xmlns="http://www.w3.org/2000/svg"
   xmlns:sodipodi="http://sodipodi.sourceforge.net/DTD/sodipodi-0.dtd"
   xmlns:inkscape="http://www.inkscape.org/namespaces/inkscape"
   width="17.611818"
   height="17.781252"
   id="svg3339"
   version="1.1"
   inkscape:version="0.48.3.1 r9886"
   sodipodi:docname="POI_post.svg"
   inkscape:export-filename="/home/gabi/SEP/JoglEarth/Spezifikation/res/iconsPoi/POI_Post.png"
   inkscape:export-xdpi="2556"
   inkscape:export-ydpi="2556">
  <defs
     id="defs3341" />
  <sodipodi:namedview
     id="base"
     pagecolor="#ffffff"
     bordercolor="#666666"
     borderopacity="1.0"
     inkscape:pageopacity="0"
     inkscape:pageshadow="2"
     inkscape:zoom="19.883939"
     inkscape:cx="7.1273612"
     inkscape:cy="12.913836"
     inkscape:document-units="px"
     inkscape:current-layer="g5202"
     showgrid="false"
     fit-margin-top="0"
     fit-margin-left="0"
     fit-margin-right="0"
     fit-margin-bottom="0"
     inkscape:window-width="1306"
     inkscape:window-height="744"
     inkscape:window-x="60"
     inkscape:window-y="24"
     inkscape:window-maximized="1" />
  <metadata
     id="metadata3344">
    <rdf:RDF>
      <cc:Work
         rdf:about="">
        <dc:format>image/svg+xml</dc:format>
        <dc:type
           rdf:resource="http://purl.org/dc/dcmitype/StillImage" />
        <dc:title></dc:title>
      </cc:Work>
    </rdf:RDF>
  </metadata>
  <g
     inkscape:label="Ebene 1"
     inkscape:groupmode="layer"
     id="layer1"
     transform="translate(-341.24097,-523.42468)">
    <g
       id="g5202"
       transform="translate(306.95972,-45.950317)">
      <path
         sodipodi:type="arc"
         style="stroke-width:1.20000005000000010;stroke-miterlimit:10;stroke-dasharray:none;stroke-dashoffset:0;fill:none;stroke:#000000;stroke-opacity:1"
         id="path2987"
         sodipodi:cx="9.6534653"
         sodipodi:cy="9.3654099"
         sodipodi:rx="6.3118811"
         sodipodi:ry="6.5594058"
         d="m 15.965346,9.3654099 c 0,3.6226601 -2.825925,6.5594061 -6.3118807,6.5594061 -3.4859557,0 -6.3118811,-2.936746 -6.3118811,-6.5594061 0,-3.6226598 2.8259254,-6.5594059 6.3118811,-6.5594059 3.4859557,0 6.3118807,2.9367461 6.3118807,6.5594059 z"
         transform="matrix(1.1568627,0,0,1.0943396,31.900648,567.87267)" />
      <g
         id="layer1-3"
         transform="matrix(0.16766995,0,0,0.16766995,35.56735,581.84278)">
        <path
           inkscape:connector-curvature="0"
           id="rect3174"
           d="m 10,8 c -3.3137,0 -6,2.6822 -6,6 0.074392,9.0983 1.952e-4,18.727 0,28 0,3.1932 2.4839,5.7776 5.625,5.9688 l 44.625,0.031 c 3.199,-0.129 5.75,-2.765 5.75,-6 v -29.031 c -0.485,-2.829 -2.941,-4.969 -5.906,-4.969 -14.69,0.0067 -29.398,1e-4 -44.094,0 z m -0.09375,3.1562 h 44.375 l -21.469,21.469 c -0.39174,0.39174 -1.0145,0.39174 -1.4062,0 l -21.5,-21.469 z m 47.094,1.532 v 29.093 c 0,1.7334 -0.6245,2.7125 -1.875,3.0625 l -15.125,-15.156 17,-17 z m -49.656,0.124 16.718,16.719 -15.281,15.281 c -1.046,-0.353 -1.4101,-1.195 -1.4372,-2.343 v -29.656 z m 18.844,18.812 5.2188,5.25 c 0.39174,0.39174 1.0145,0.39174 1.4062,0 l 5.062,-5.062 13.187,13.188 h -38.25 l 13.375,-13.375 z"
           transform="translate(13,-50)" />
      </g>
      <path
         style="fill:#ffffff;fill-opacity:1;stroke-width:1.35000002;stroke-miterlimit:10;stroke-dasharray:none"
         d="M 8.294132,15.189689 C 6.7000762,15.079489 5.245648,14.412537 4.0915644,13.262534 3.0888233,12.263338 2.4773462,11.06085 2.256366,9.6535596 2.1682882,9.0926446 2.2213093,7.849219 2.3566588,7.3015413 3.2362265,3.7424617 6.8356937,1.5856913 10.409192,2.4765315 c 2.231641,0.5563278 4.073521,2.2999628 4.698723,4.4480974 0.678154,2.3300696 0.0536,4.6960641 -1.693394,6.4151161 -1.333891,1.312553 -3.19058,1.983356 -5.120389,1.849944 z m 4.753867,-3.186309 c 0.173644,-0.107398 0.281959,-0.223765 0.373147,-0.400883 l 0.128484,-0.249558 0.01516,-2.501053 C 13.575548,7.0777403 13.563108,6.2882599 13.521983,6.1355387 13.447425,5.8586552 13.116877,5.5221854 12.845378,5.4468131 12.585063,5.3745457 5.1293863,5.3675813 4.8790677,5.4393717 4.6393466,5.5081229 4.412085,5.6748381 4.2681229,5.8875505 L 4.1450547,6.069391 4.1311357,8.7097129 4.1172166,11.350035 4.2317194,11.573433 c 0.062976,0.122869 0.201435,0.292604 0.3076857,0.377189 l 0.1931829,0.153791 1.8939287,0.02806 c 1.0416609,0.01543 2.8575787,0.02675 4.0353733,0.02515 l 2.141445,-0.0029 0.244664,-0.151324 0,2e-6 z"
         id="path2986"
         inkscape:connector-curvature="0"
         transform="translate(34.28125,569.375)" />
      <path
         style="fill:#ffffff;fill-opacity:1;stroke-width:1.35000002;stroke-miterlimit:10;stroke-dasharray:none"
         d="m 6.986544,7.7793138 -1.7848292,-1.7853605 3.6456275,0 3.6456277,0 -1.784829,1.7853605 C 9.7264845,8.7612621 8.8891253,9.5646743 8.8473423,9.5646743 c -0.041783,0 -0.8791422,-0.8034122 -1.8607983,-1.7853605 z"
         id="path2988"
         inkscape:connector-curvature="0"
         transform="translate(34.28125,569.375)" />
      <path
         style="fill:#ffffff;fill-opacity:1;stroke-width:1.35000002;stroke-miterlimit:10;stroke-dasharray:none"
         d="M 4.7754723,11.428779 C 4.7415839,11.365458 4.723411,10.457093 4.723411,8.8265251 l 0,-2.5049763 1.3578695,1.357171 1.3578695,1.357171 -1.2443356,1.2450832 c -0.6843846,0.684795 -1.2719983,1.245082 -1.3058083,1.245082 -0.03381,0 -0.0849,-0.04378 -0.1135338,-0.09728 z"
         id="path2990"
         inkscape:connector-curvature="0"
         transform="translate(34.28125,569.375)" />
      <path
         style="fill:#ffffff;fill-opacity:1;stroke-width:1.35000002;stroke-miterlimit:10;stroke-dasharray:none"
         d="M 6.7473492,10.53339 7.8405993,9.4401399 8.2821009,9.879596 c 0.315174,0.313714 0.4769075,0.439456 0.5652414,0.439456 0.088063,0 0.2474843,-0.123171 0.5529315,-0.4272031 l 0.4291916,-0.4272031 1.0801206,1.0809972 1.08012,1.080997 -3.1678037,0 -3.1678032,0 1.0932501,-1.09325 z"
         id="path2992"
         inkscape:connector-curvature="0"
         transform="translate(34.28125,569.375)" />
      <path
         style="fill:#ffffff;fill-opacity:1;stroke-width:1.35000002;stroke-miterlimit:10;stroke-dasharray:none"
         d="m 11.48715,10.318537 -1.256291,-1.2570452 1.396878,-1.3954667 1.396879,-1.3954667 -0.0141,2.5260654 -0.0141,2.5260652 -0.12649,0.126446 -0.12649,0.126447 -1.25629,-1.257045 0,0 z"
         id="path2994"
         inkscape:connector-curvature="0"
         transform="translate(34.28125,569.375)" />
    </g>
  </g>
</svg>
