<?xml version="1.0" encoding="UTF-8" standalone="no"?>
<!-- Created with Inkscape (http://www.inkscape.org/) -->

<svg
   xmlns:dc="http://purl.org/dc/elements/1.1/"
   xmlns:cc="http://creativecommons.org/ns#"
   xmlns:rdf="http://www.w3.org/1999/02/22-rdf-syntax-ns#"
   xmlns:svg="http://www.w3.org/2000/svg"
   xmlns="http://www.w3.org/2000/svg"
   xmlns:sodipodi="http://sodipodi.sourceforge.net/DTD/sodipodi-0.dtd"
   xmlns:inkscape="http://www.inkscape.org/namespaces/inkscape"
   width="17.611818"
   height="17.781252"
   id="svg3339"
   version="1.1"
   inkscape:version="0.48.3.1 r9886"
   sodipodi:docname="POI_Restaurant.svg"
   inkscape:export-filename="/home/gabi/SEP/JoglEarth/Spezifikation/res/iconsPoi/POI_Restaurant.png"
   inkscape:export-xdpi="2556"
   inkscape:export-ydpi="2556">
  <defs
     id="defs3341" />
  <sodipodi:namedview
     id="base"
     pagecolor="#ffffff"
     bordercolor="#666666"
     borderopacity="1.0"
     inkscape:pageopacity="0"
     inkscape:pageshadow="2"
     inkscape:zoom="39.767878"
     inkscape:cx="7.8722478"
     inkscape:cy="8.948701"
     inkscape:document-units="px"
     inkscape:current-layer="g5202"
     showgrid="false"
     fit-margin-top="0"
     fit-margin-left="0"
     fit-margin-right="0"
     fit-margin-bottom="0"
     inkscape:window-width="1306"
     inkscape:window-height="744"
     inkscape:window-x="60"
     inkscape:window-y="24"
     inkscape:window-maximized="1" />
  <metadata
     id="metadata3344">
    <rdf:RDF>
      <cc:Work
         rdf:about="">
        <dc:format>image/svg+xml</dc:format>
        <dc:type
           rdf:resource="http://purl.org/dc/dcmitype/StillImage" />
        <dc:title></dc:title>
      </cc:Work>
    </rdf:RDF>
  </metadata>
  <g
     inkscape:label="Ebene 1"
     inkscape:groupmode="layer"
     id="layer1"
     transform="translate(-341.24097,-523.42468)">
    <g
       id="g5202"
       transform="translate(306.95972,-45.950317)">
      <path
         sodipodi:type="arc"
         style="stroke-width:1.20000005000000010;stroke-miterlimit:10;stroke-dasharray:none;stroke-dashoffset:0;fill:none;stroke:#000000;stroke-opacity:1"
         id="path2987"
         sodipodi:cx="9.6534653"
         sodipodi:cy="9.3654099"
         sodipodi:rx="6.3118811"
         sodipodi:ry="6.5594058"
         d="m 15.965346,9.3654099 c 0,3.6226601 -2.825925,6.5594061 -6.3118807,6.5594061 -3.4859557,0 -6.3118811,-2.936746 -6.3118811,-6.5594061 0,-3.6226598 2.8259254,-6.5594059 6.3118811,-6.5594059 3.4859557,0 6.3118807,2.9367461 6.3118807,6.5594059 z"
         transform="matrix(1.1568627,0,0,1.0943396,31.900648,567.87267)" />
      <g
         transform="matrix(0.02529462,0,0,0.02107293,39.827408,573.11032)"
         id="g2358">
        <path
           inkscape:connector-curvature="0"
           id="path2360"
           d="m 115.16,154.04 c 0,15.34 -13.97,31.75 -32.086,31.75 v 258.84 c 0,36.74 -50.081,36.74 -50.081,0 V 185.79 C 15.353,185.79 0,172.21 0,151.86 V 9.42 C 0,-2.98 17.92,-3.459 17.92,9.898 v 105.3 h 15 V 8.938 c 0,-11.396 17.25,-12.128 17.25,0.479 v 105.78 h 15.5 V 9.057 c 0,-11.894 16.75,-12.373 16.75,0.484 v 105.66 H 97.67 V 9.061 c 0,-11.769 17.5,-12.248 17.5,0.484 l -0.01,144.5 z" />
        <path
           inkscape:connector-curvature="0"
           id="path2362"
           d="m 248.75,42.524 v 401.98 c 0,35.93 -50.18,35.4 -50.18,0 V 285.014 H 171.85 V 42.524 c 0,-56.441 76.9,-56.441 76.9,0.004 z" />
      </g>
      <path
         style="fill:#ffffff;fill-opacity:1;stroke-width:1.35000002;stroke-miterlimit:10;stroke-dasharray:none"
         d="M 8.0098453,15.191676 C 6.7423567,15.030911 5.5442737,14.526869 4.5836037,13.750235 2.1934662,11.817976 1.4911363,8.5164081 2.8950452,5.8125255 3.6632372,4.3330128 5.003742,3.1769456 6.5822795,2.6326109 9.9410293,1.474397 13.601232,3.1039276 14.93013,6.3490933 c 0.489128,1.1944487 0.598367,2.5960517 0.300173,3.8513957 -0.213806,0.900084 -0.657946,1.812555 -1.242324,2.552311 -0.245648,0.310962 -0.836,0.883615 -1.163134,1.128261 -0.918804,0.687125 -1.907058,1.100637 -3.0789181,1.288302 -0.350592,0.05614 -1.3664187,0.0692 -1.7360816,0.02231 l 0,0 z M 7.3366396,13.626613 c 0.055321,-0.02858 0.1311016,-0.08412 0.168401,-0.123419 0.1539753,-0.162232 0.1459231,0.0061 0.1459231,-3.050438 l 0,-2.7920051 0.062337,0 c 0.034285,0 0.1369877,-0.024506 0.2282277,-0.054458 0.1997949,-0.065588 0.382645,-0.2188744 0.4681253,-0.3924371 l 0.058553,-0.1188882 0.00755,-1.5464742 C 8.4799141,4.6979325 8.476454,3.964612 8.4680706,3.9188923 8.4450712,3.7934616 8.3753632,3.7379869 8.24075,3.7379869 c -0.087827,0 -0.1285948,0.014295 -0.1760215,0.061722 l -0.061722,0.061722 0,1.1452826 0,1.1452824 -0.1760215,0 -0.1760214,0 -0.00251,-1.1127071 C 7.6470786,4.4272995 7.6383238,3.8982922 7.629002,3.8637165 7.6043899,3.772426 7.4593364,3.7064038 7.3513945,3.7373611 7.1950834,3.7821906 7.2000128,3.7412603 7.1991367,5.0015695 l -7.996e-4,1.150426 -0.1885945,0 -0.1885944,0 0,-1.1488053 c 0,-1.1448967 -1.76e-4,-1.1490033 -0.054675,-1.2070043 -0.078251,-0.083294 -0.2512249,-0.081482 -0.3362297,0.00352 l -0.061722,0.061722 0,1.1452826 0,1.1452824 -0.1760215,0 -0.1760214,0 -3.697e-4,-1.12528 C 6.0158264,4.1717083 6.0081194,3.8863364 5.9840201,3.8385706 5.9225561,3.716747 5.7029887,3.6976915 5.5855331,3.8039874 c -0.044738,0.040487 -0.046827,0.1138001 -0.046827,1.6433401 0,1.7766251 -0.00358,1.734863 0.1658688,1.9328303 0.1070269,0.1250369 0.3528418,0.2507524 0.5317292,0.2719391 l 0.1313706,0.015559 0.00671,2.8066043 0.00671,2.806605 0.056346,0.105413 c 0.067055,0.125448 0.1912345,0.225835 0.3389927,0.274043 0.1506369,0.04915 0.4326781,0.03218 0.5602061,-0.03371 l 0,0 z m 4.2017504,-0.0256 c 0.132005,-0.06814 0.251703,-0.204818 0.285285,-0.325747 0.01793,-0.06458 0.02642,-1.479917 0.02652,-4.4210861 1.5e-4,-4.7595562 0.0087,-4.4946625 -0.153034,-4.7297712 C 11.59354,3.973803 11.421192,3.8528404 11.21582,3.7865788 10.993452,3.7148338 10.655622,3.7264924 10.429773,3.8137053 10.22512,3.8927338 10.017907,4.0992928 9.9433322,4.2986124 l -0.054381,0.1453469 0,2.6519515 0,2.6519517 0.3394702,0 0.33947,0 0,1.7522755 c 0,1.729322 6.91e-4,1.753706 0.05287,1.861482 0.05898,0.121838 0.166594,0.214682 0.314031,0.270933 0.14312,0.0546 0.469795,0.03753 0.603602,-0.03154 l 0,0 z"
         id="path2988"
         inkscape:connector-curvature="0"
         transform="translate(34.28125,569.375)" />
    </g>
  </g>
</svg>
