<?xml version="1.0" encoding="UTF-8" standalone="no"?>
<!-- Created with Inkscape (http://www.inkscape.org/) -->

<svg
   xmlns:dc="http://purl.org/dc/elements/1.1/"
   xmlns:cc="http://creativecommons.org/ns#"
   xmlns:rdf="http://www.w3.org/1999/02/22-rdf-syntax-ns#"
   xmlns:svg="http://www.w3.org/2000/svg"
   xmlns="http://www.w3.org/2000/svg"
   xmlns:sodipodi="http://sodipodi.sourceforge.net/DTD/sodipodi-0.dtd"
   xmlns:inkscape="http://www.inkscape.org/namespaces/inkscape"
   width="17.611818"
   height="17.781252"
   id="svg3339"
   version="1.1"
   inkscape:version="0.48.4 r9939"
   sodipodi:docname="POI_nightlife.svg">
  <defs
     id="defs3341" />
  <sodipodi:namedview
     id="base"
     pagecolor="#ffffff"
     bordercolor="#666666"
     borderopacity="1.0"
     inkscape:pageopacity="0.0"
     inkscape:pageshadow="2"
     inkscape:zoom="34.33"
     inkscape:cx="-0.21438837"
     inkscape:cy="13.659898"
     inkscape:document-units="px"
     inkscape:current-layer="g5202"
     showgrid="false"
     fit-margin-top="0"
     fit-margin-left="0"
     fit-margin-right="0"
     fit-margin-bottom="0"
     inkscape:window-width="1920"
     inkscape:window-height="1145"
     inkscape:window-x="-3"
     inkscape:window-y="-3"
     inkscape:window-maximized="1" />
  <metadata
     id="metadata3344">
    <rdf:RDF>
      <cc:Work
         rdf:about="">
        <dc:format>image/svg+xml</dc:format>
        <dc:type
           rdf:resource="http://purl.org/dc/dcmitype/StillImage" />
        <dc:title></dc:title>
      </cc:Work>
    </rdf:RDF>
  </metadata>
  <g
     inkscape:label="Ebene 1"
     inkscape:groupmode="layer"
     id="layer1"
     transform="translate(-341.24097,-523.42468)">
    <g
       id="g5202"
       transform="translate(306.95972,-45.950317)">
      <path
         sodipodi:type="arc"
         style="stroke-width:1.20000005000000010;stroke-miterlimit:10;stroke-dasharray:none;stroke-dashoffset:0;fill:none;stroke:#000000;stroke-opacity:1"
         id="path2987"
         sodipodi:cx="9.6534653"
         sodipodi:cy="9.3654099"
         sodipodi:rx="6.3118811"
         sodipodi:ry="6.5594058"
         d="m 15.965346,9.3654099 c 0,3.6226601 -2.825925,6.5594061 -6.3118807,6.5594061 -3.4859557,0 -6.3118811,-2.936746 -6.3118811,-6.5594061 0,-3.6226598 2.8259254,-6.5594059 6.3118811,-6.5594059 3.4859557,0 6.3118807,2.9367461 6.3118807,6.5594059 z"
         transform="matrix(1.1568627,0,0,1.0943396,31.900648,567.87267)" />
      <g
         transform="matrix(0.03293465,0,0,0.03293465,38.184657,572.5548)"
         id="layer1-1">
        <path
           inkscape:connector-curvature="0"
           id="path16479"
           d="m 140.4,350.28 c -0.95,-1.14 -1.37,-4.55 -1.37,-11.05 v -9.39 l -4,-1.82 c -8.89,-4.03 -12.5,-10.05 -12.5,-20.82 0,-5.66 0.43,-7.44 2.57,-10.59 2.76,-4.05 2.76,-4.04 -1.91,-9.16 -6.46,-7.09 -8,-24.33 -2.69,-29.99 1.12,-1.18 2.03,-2.61 2.03,-3.16 0,-0.56 -2.07,-3.68 -4.61,-6.94 -7.86,-10.12 -8.82,-12.65 -8.86,-23.42 -0.03,-8.68 0.22,-9.94 2.85,-14.5 1.58,-2.75 4.19,-6.4 5.8,-8.1 l 2.92,-3.1 -3.67,-4.38 c -2.01,-2.42 -4.82,-6.87 -6.24,-9.91 -2.27,-4.88 -2.58,-6.83 -2.63,-17.01 -0.05,-9.98 0.25,-12.18 2.26,-16.64 1.28,-2.82 3.64,-6.39 5.25,-7.93 2.84,-2.72 3.86,-5.43 2.04,-5.43 -0.49,0 -3.37,-2.44 -6.4,-5.43 -8.41,-8.27 -12.752,-22.57 -9.32,-30.69 l 1.52,-3.617 -3.704,-3.01 C 96.098,91.24 94.094,88.101 91.158,80.753 L 89.686,77.07 84.617,78.691 C 79.76,80.244 79.326,80.224 74.288,78.205 70.993,76.885 66.923,76.121 63.389,76.16 59.425,76.204 56.317,75.528 52.924,73.886 50.269,72.601 46.099,71.432 43.655,71.288 40.68,71.112 37.367,69.892 33.621,67.591 29.629,65.139 26.812,64.142 23.779,64.109 18.977,64.056 11.169,60.258 7.073,55.983 L 4.4715,53.267 10.032,52.023 c 6.775,-1.516 24.799,-10.536 36.997,-18.514 4.95,-3.238 15.3,-10.033 23,-15.101 C 87.208,7.1 88.501,6.436 96.324,4.897 114.44,1.3336 128.71,9.6546 131.03,25.125 c 0.9,5.962 -0.78,11.185 -5.14,16.064 -1.85,2.064 -3.36,4.162 -3.36,4.661 0,0.5 1.44,2.118 3.19,3.597 2.59,2.173 3.87,2.579 6.68,2.122 5.29,-0.857 6.11,-2.269 6.19,-10.662 0.06,-5.655 -0.42,-8.492 -1.99,-11.672 -4.29,-8.709 -1.83,-17.984 5.84,-21.994 10.38,-5.4295 21.58,-0.0146 22.82,11.037 0.35,3.092 -0.21,5.638 -2.17,9.929 -2.32,5.07 -2.6,6.829 -2.35,14.5 l 0.29,8.729 4.7,0.303 c 4.32,0.278 10.8,-1.813 10.8,-3.484 0,-0.346 -1.06,-2.022 -2.35,-3.724 -5.76,-7.592 -6.26,-19.914 -1.11,-27.581 6.39,-9.5149 15.02,-12.621 27.74,-9.9851 11.68,2.4196 16.57,5.3421 44.89,26.82 6.78,5.141 18.18,12.705 25.33,16.807 12.37,7.1 13.25,7.441 18.25,7.07 4.83,-0.359 5.25,-0.217 5.25,1.762 0,2.935 -6.36,10.146 -11.07,12.547 -2.12,1.081 -5.62,1.965 -7.77,1.965 -2.16,0 -6.48,1.172 -9.61,2.604 -4.63,2.12 -6.52,2.478 -10.18,1.929 -3.2,-0.479 -5.15,-0.256 -6.71,0.77 -2.51,1.641 -8.61,2.846 -16.66,3.285 -16.57,0.904 -22.12,1.37 -23.03,1.929 -0.55,0.341 -1.63,2.129 -2.4,3.973 -1.56,3.721 -5.62,8.264 -9.82,10.968 -2.53,1.626 -2.75,2.286 -2.75,8.126 0,8.94 -3.26,15.81 -11.61,24.45 l -6.64,6.89 4.12,4.92 c 6.14,7.34 8.08,12.36 8.11,20.96 0.04,13.44 -3.27,21.01 -12.7,29.07 l -4.74,4.06 3.07,3.28 c 7.26,7.77 7.89,9.4 7.83,20.29 -0.07,12.3 -1.7,15.97 -10.42,23.55 -5.58,4.86 -7.51,7.95 -4.97,7.95 0.58,0 2.21,2.58 3.61,5.75 4.43,9.97 2.41,20.34 -5.76,29.63 -2.15,2.43 -3.9,4.67 -3.9,4.98 0,0.3 1.12,2.21 2.5,4.23 2.02,2.98 2.5,4.91 2.5,10.1 0,11.27 -7.03,20.31 -15.8,20.31 h -2.9 l -0.68,11.21 c -0.63,10.29 -1.34,12.71 -3.75,12.77 -0.34,0.01 -1.24,-0.73 -2,-1.64 z m 3.13,-25.9 c 0,-14.61 -0.36,-22.44 -1.02,-22.44 -0.67,0 -0.98,7.92 -0.89,22.98 0.08,13.07 0.52,22.76 1.02,22.45 0.49,-0.31 0.89,-10.65 0.89,-22.99 z m -4.46,-11.87 c -0.12,-8.84 -1.43,-10.62 -4.08,-5.51 -1.89,3.67 -1.32,10.38 1.3,15.42 l 1.57,3.02 0.66,-2.5 c 0.37,-1.38 0.61,-6.07 0.55,-10.43 z m 11.42,9.49 c 1.43,-2.65 1.31,-12.39 -0.16,-13.86 -2.24,-2.24 -2.65,-1.22 -2.98,7.3 -0.23,6.18 0.01,8.5 0.89,8.5 0.67,0 1.68,-0.87 2.25,-1.94 z m 8.15,-4.74 c 6.42,-10.39 3.97,-18.37 -8.71,-28.32 -1.05,-0.83 -3.74,-2.94 -5.98,-4.7 -2.24,-1.76 -5.33,-5.01 -6.87,-7.23 -2.47,-3.56 -2.74,-4.72 -2.37,-9.92 l 0.43,-5.89 -4.16,-2.63 c -2.29,-1.45 -4.89,-2.63 -5.78,-2.63 -4.26,0 -6.42,12.87 -3.38,20.15 2.92,6.98 12.1,14.96 21.71,18.87 5.02,2.04 10.78,8.27 11.58,12.53 0.66,3.53 0.21,8.59 -1.2,13.45 -0.65,2.24 -0.56,2.36 0.93,1.13 0.92,-0.75 2.62,-2.91 3.8,-4.81 z m -28.79,-1.23 c -0.79,-6.72 0.2,-11.1 3.27,-14.41 3.01,-3.24 2.6,-5.35 -1.22,-6.31 -2.23,-0.55 -3.15,-0.15 -5.11,2.22 -2.12,2.58 -2.35,3.67 -1.97,9.56 0.29,4.56 1.13,7.79 2.65,10.25 1.22,1.98 2.39,3.6 2.59,3.6 0.21,0 0.11,-2.21 -0.21,-4.91 z m 29.83,-31.84 c 5.2,-4.69 7.8,-10.29 7.8,-16.75 0,-9.59 -5.9,-17.75 -18.47,-25.5 -7.26,-4.48 -14.24,-10.63 -16.06,-14.15 -2.24,-4.34 -1.8,-11.01 0.99,-15.13 2.79,-4.12 2.87,-4 -6.17,-9.66 -6.09,-3.8 -6.52,-3.65 -10.67,3.99 -3.99,7.32 -4.48,14.91 -1.55,24.01 1.92,5.97 3.29,8.16 8.42,13.41 3.71,3.81 8.6,7.53 12.42,9.46 12.33,6.22 18.29,14.14 14.73,19.57 -0.9,1.37 -1.59,4.53 -1.59,7.26 0,8.22 3.55,9.44 10.15,3.49 z m -14.04,-6.5 c 0.21,-8.25 -0.75,-11.75 -3.23,-11.75 -1.36,0 -1.06,13.41 0.32,14.8 2.08,2.08 2.8,1.33 2.91,-3.05 z m -6.38,-9.5 c -0.4,-1.67 -0.46,-1.67 -1.18,0 -0.42,0.96 -0.42,2.53 0,3.5 0.72,1.66 0.78,1.66 1.18,0 0.23,-0.97 0.23,-2.54 0,-3.5 z m 26.1,-24 c 7.02,-4.28 11.32,-12.19 11.96,-22.01 0.43,-6.6 0.19,-7.83 -2.62,-13.54 -1.7,-3.45 -4.12,-7.21 -5.38,-8.34 -3.3,-2.98 -17.67,-12.76 -21.79,-14.83 -1.93,-0.96 -6.32,-3.62 -9.76,-5.89 -5.38,-3.56 -6.54,-4.89 -8.25,-9.43 -3.25,-8.64 -2.58,-14.6 2.26,-19.91 2.76,-3.04 1.81,-4.61 -4.78,-7.94 l -5.68,-2.86 -3.51,4 c -5.45,6.21 -7.28,11.41 -7.28,20.69 0,6.88 0.43,8.93 3.05,14.4 3.56,7.47 10.32,14.49 18.6,19.32 12.54,7.32 22.67,14.57 24.47,17.51 1.03,1.69 1.87,4.78 1.87,6.87 0.01,3.98 -2.76,10.44 -5.42,12.65 -2.65,2.19 -1.77,4.78 2.68,7.9 5.07,3.56 5.85,3.68 9.58,1.41 z m -17.82,-15.25 c 0.31,-13.52 0.25,-13.82 -3.01,-15.5 l -3,-1.55 v 10.48 c 0,9.51 0.2,10.68 2.19,12.53 1.21,1.13 2.53,1.71 2.93,1.29 0.41,-0.41 0.81,-3.68 0.89,-7.25 z m 6.37,-3.18 c 0.2,-5.47 -1.85,-4.83 -2.19,0.68 -0.24,3.86 -0.04,4.73 0.88,3.82 0.65,-0.65 1.24,-2.68 1.31,-4.5 z m -15.16,-6.01 c -1.45,-1.45 -2.59,2.66 -1.66,6.01 0.72,2.63 0.75,2.61 1.7,-1.16 0.65,-2.55 0.64,-4.17 -0.04,-4.85 z m 31.75,-32.29 c 8.34,-6.13 12.31,-14.26 12.45,-25.52 0.05,-4.57 -0.5,-7.68 -1.88,-10.44 -1.88,-3.79 -10.39,-13.56 -11.82,-13.56 -0.38,0 -3.57,-1.77 -7.1,-3.93 -3.6,-2.2 -11.63,-5.58 -18.27,-7.69 -13.39,-4.25 -22.25,-9.12 -26.7,-14.65 -2.42,-3.01 -3.11,-4.97 -3.46,-9.75 -0.46,-6.307 0.31,-7.293 3.2,-4.104 4.02,4.444 14.06,3.174 18.38,-2.322 2.28,-2.891 2.07,-4.99 -0.6,-6.096 -7.3,-3.022 -16,-2.052 -22.65,2.527 -8.43,5.797 -10.83,15.555 -6.11,24.795 4.45,8.71 10.79,13.44 32.4,24.15 18.18,9.02 21.45,11.13 24.25,15.67 3.86,6.23 1.43,15.89 -5.58,22.28 -3.91,3.55 -4.28,5.11 -1.73,7.34 2.34,2.05 7.42,4.69 9.11,4.74 0.76,0.02 3.5,-1.53 6.11,-3.44 z M 121.25,92.328 c -1.24,-1.239 0.37,-2.392 3.34,-2.392 1.62,0 2.94,0.45 2.94,1 0,0.55 -0.64,1 -1.42,1 -0.78,0 -2.04,0.239 -2.8,0.531 -0.76,0.293 -1.69,0.23 -2.06,-0.139 z M 150,168.77 c 0.72,-13.05 0.71,-13.19 -1.62,-14.99 -3.05,-2.35 -5.87,-3.26 -6.78,-2.19 -0.4,0.46 -0.46,6.83 -0.15,14.13 0.56,12.88 0.66,13.33 3.08,14.66 4.58,2.5 4.7,2.23 5.47,-11.61 z m 7.99,4.86 c 2.62,-3.99 2.81,-7.89 0.56,-11.49 -1.13,-1.82 -2.5,-3.03 -3.04,-2.69 -1.28,0.79 -1.29,16.49 0,16.49 0.53,0 1.65,-1.04 2.48,-2.31 z m -19.46,-8.19 c 0,-7.68 -0.28,-9.5 -1.47,-9.5 -1.7,0 -3.02,2.21 -3.98,6.7 -0.48,2.24 -0.09,4.56 1.32,7.75 3.1,7 4.13,5.77 4.13,-4.95 z m 34.31,-32.64 c 9.51,-4.92 17.64,-16.56 18.42,-26.36 0.45,-5.58 0.26,-6.28 -2.69,-10.004 -4.9,-6.171 -10.14,-8.85 -17.42,-8.898 -6.63,-0.044 -11.9,1.897 -12.42,4.575 -0.17,0.915 0.99,3.128 2.59,4.918 2.54,2.838 3.67,3.309 8.86,3.689 5.28,0.38 6.29,0.14 9.04,-2.178 1.7,-1.433 3.38,-2.606 3.71,-2.606 0.85,0 -0.44,8.034 -1.68,10.504 -3.6,7.14 -12.78,14.75 -21.03,17.45 -5.1,1.66 -4.49,3.55 2.31,7.14 6.11,3.23 7.16,3.41 10.31,1.77 z m -2.56,-40.553 c -2.82,-0.737 -2.01,-2.311 1.19,-2.311 3.33,0 4.85,1.481 2.47,2.396 -0.87,0.332 -1.65,0.552 -1.74,0.488 -0.1,-0.063 -0.96,-0.321 -1.92,-0.573 z m -18.61,31.443 c 0.42,-3.65 0.79,-10.61 1.83,-34.254 0.63,-14.3 1.32,-26.536 1.53,-27.191 0.22,-0.656 0.47,-6.506 0.57,-13 l 0.18,-11.809 -6.86,-0.689 c -3.76,-0.379 -6.99,-0.55 -7.16,-0.38 -0.17,0.17 -0.51,19.24 -0.77,42.379 -0.37,33.014 -0.2,42.244 0.79,42.884 1.63,1.06 6.91,3.04 8.5,3.19 0.69,0.06 1.31,-0.45 1.39,-1.13 z m 11.16,-3.68 c 4.57,-2.1 11.7,-8.17 11.7,-9.96 0,-0.61 -0.68,-1.11 -1.5,-1.11 -0.83,0 -1.39,-0.52 -1.25,-1.15 0.14,-0.63 -1.31,-1.57 -3.22,-2.08 -1.9,-0.52 -5.05,-2.34 -7,-4.05 l -3.53,-3.114 -0.3,6.314 c -0.17,3.47 -0.08,6.53 0.19,6.8 0.28,0.28 2.55,-0.2 5.05,-1.05 6.2,-2.11 5.76,-0.58 -0.68,2.4 -5.1,2.36 -6.56,4.39 -5.38,7.48 0.71,1.84 0.9,1.83 5.92,-0.48 z m -24.54,-2.26 c -0.7,-1.81 -12.76,-8.81 -15.18,-8.81 -1.73,0 -1.62,0.35 0.97,3.05 6.12,6.38 15.99,10.39 14.21,5.76 z m -0.56,-6.56 c 0.75,-3.02 0.98,-12.254 0.31,-12.254 -0.36,0 -2.08,1.084 -3.83,2.414 -1.75,1.32 -4.72,3.03 -6.6,3.79 l -3.43,1.38 5.93,3.06 c 7.3,3.78 7.09,3.73 7.62,1.61 z m 60.43,-20.733 c 2.36,-2.464 5.04,-5.62 5.96,-7.014 1.63,-2.497 1.58,-2.611 -3.2,-7.77 -2.67,-2.88 -5.2,-5.387 -5.62,-5.57 -0.43,-0.184 -2.81,1.457 -5.3,3.647 -6.73,5.926 -10.86,7.59 -18.97,7.642 -3.85,0.024 -8.13,-0.181 -9.5,-0.456 -2.29,-0.457 -2.5,-0.2 -2.5,3 0,3.857 -0.13,3.825 7.9,1.931 6.35,-1.498 14.96,0.91 20.37,5.694 2.05,1.811 4.37,3.311 5.15,3.334 0.78,0.023 3.35,-1.974 5.71,-4.438 z m -88.72,0.089 c 0.63,-0.765 3.49,-2.395 6.34,-3.624 4.26,-1.832 6.32,-2.128 11.47,-1.648 3.45,0.323 7.11,1.037 8.14,1.589 2.34,1.253 3.14,0.496 3.14,-2.99 v -2.731 l -8.25,0.027 c -6.32,0.021 -9.33,-0.467 -12.86,-2.087 -4.28,-1.964 -10.92,-8.217 -13.5,-12.703 -1.02,-1.784 -1.44,-1.56 -5.745,3.064 -2.556,2.744 -4.646,5.57 -4.646,6.281 0,2.775 4.132,9.17 8.141,12.605 4.6,3.931 6.01,4.335 7.77,2.217 z M 220.95,79.329 c 2.4,-0.92 1.92,-2.016 -1.88,-4.369 -1.91,-1.177 -5.54,-5.263 -8.08,-9.082 -4.12,-6.199 -4.96,-6.942 -7.84,-6.942 -7.01,0 -7.36,4.23 -0.9,11.131 4.9,5.246 8.68,7.693 13.78,8.934 1.65,0.402 3.07,0.777 3.17,0.833 0.09,0.056 0.88,-0.171 1.75,-0.505 z m -85.79,-3.944 c 2.71,-0.544 3.34,-2.992 3.35,-13.183 l 0.02,-8.235 -5.99,0.626 -5.99,0.626 -4.51,-4.51 c -5.61,-5.603 -5.87,-8.49 -1.14,-12.45 4.55,-3.81 6.63,-8.242 6.63,-14.144 0,-4.28 -0.49,-5.464 -3.75,-9.083 C 118.81,9.5192 112.3,7.1256 102.93,7.3639 96.798,7.5197 94.676,8.1165 87.427,11.722 82.808,14.019 76.496,17.595 73.4,19.668 c -3.096,2.073 -9.396,6.289 -14,9.37 C 41.158,41.244 31.697,46.526 14.04,54.361 l -3.988,1.77 2.834,1.485 c 5.184,2.716 12.93,2.846 19.88,0.334 11.738,-4.243 43.135,-23.983 46.079,-28.971 2.412,-4.085 3.684,-3.029 3.684,3.056 0,11.652 10.622,21.875 22.751,21.896 1.79,0.003 3.25,0.455 3.25,1.005 0,0.55 -0.51,1 -1.13,1 -1.82,0 -0.36,7.508 2.13,11.009 2.88,4.045 9.11,7.922 14.33,8.924 3.86,0.739 5.55,0.666 11.3,-0.484 z m 109.37,0.574 c 0,-0.537 -1.24,-1.729 -2.75,-2.648 -7.14,-4.339 -12.09,-8.02 -15.84,-11.777 -8.21,-8.217 -7.86,-8.035 -11.35,-5.977 -1.68,0.996 -3.06,2.545 -3.06,3.443 0,2.569 11.4,12.777 17.22,15.423 5.39,2.448 15.78,3.46 15.78,1.536 z M 86.59,72.888 c 1.96,-0.992 5.698,-3.713 8.304,-6.046 7.722,-6.911 8.022,-9.179 1.371,-10.426 -3.647,-0.685 -3.948,-0.506 -10.498,6.241 -3.708,3.82 -7.98,7.747 -9.492,8.727 -3.177,2.059 -3.475,3.212 -1,3.872 2.545,0.679 7.231,-0.301 11.315,-2.368 z m 90.436,1.944 c 5.85,-1.475 11.93,-6.829 14.05,-12.395 1.39,-3.625 1.47,-4.767 0.46,-5.99 -0.69,-0.831 -1.09,-1.526 -0.88,-1.545 0.2,-0.019 3.81,-0.131 8.02,-0.25 6.82,-0.192 8.13,-0.56 12,-3.357 6.73,-4.864 10.32,-13.279 8.69,-20.359 -0.78,-3.416 2.52,-1.173 4.02,2.734 1.66,4.293 9.54,11.281 25.92,22.996 13.29,9.504 29.49,13.434 36.47,8.848 3.76,-2.474 3.45,-4.051 -1.08,-5.408 -9.73,-2.916 -28.4,-14.301 -48.98,-29.872 -26.49,-20.044 -35.71,-23.797 -50.92,-20.72 -3.2,0.647 -9.34,6.337 -10.92,10.125 -2.9,6.941 -1.02,15.071 4.9,21.17 l 3.74,3.849 -2.25,3.297 c -4.58,6.731 -10.38,8.852 -17.99,6.584 l -2.75,-0.819 v 20.159 l 3.25,0.939 c 4.52,1.304 9.1,1.309 14.25,0.014 z m 83.92,-1.503 c 1.69,-0.65 2.21,-3.393 0.63,-3.393 -1.93,0 -21.83,-14.02 -28.94,-20.396 -7.61,-6.831 -9.47,-7.718 -10.5,-5.022 -1.55,4.018 -0.51,6.65 4.64,11.786 12.01,11.978 27.37,19.634 34.17,17.025 z M 69.536,69.464 c 2.484,-1.265 8.006,-4.908 12.272,-8.095 l 7.757,-5.793 -3.218,-3.32 c -1.77,-1.826 -3.575,-3.32 -4.011,-3.32 -0.436,0 -3.162,2.138 -6.056,4.75 -6.713,6.059 -14.097,11.413 -19.508,14.145 -5.09,2.57 -5.379,3.836 -1,4.39 4.792,0.607 8.701,-0.176 13.764,-2.757 z M 53.022,64.069 c 5.376,-2.568 27.5,-16.596 27.5,-17.438 0,-1.492 -3.357,-9.695 -3.968,-9.695 -0.428,0 -6.573,4.343 -13.656,9.651 -11.193,8.388 -24.979,16.349 -28.311,16.349 -2.372,0 -0.853,2.005 2.185,2.882 5.751,1.66 10.089,1.193 16.25,-1.749 z m 105.61,-35.101 c 7.14,-8.554 1.79,-20.032 -9.35,-20.032 -4.31,4e-4 -5.41,0.4467 -8.36,3.4 -2.91,2.914 -3.4,4.081 -3.4,8.155 0,4.277 0.42,5.153 4.16,8.712 3.95,3.756 4.41,3.932 9.21,3.472 4.16,-0.4 5.53,-1.054 7.74,-3.707 z m -9.52,-0.879 c -0.34,-0.555 0.31,-1.304 1.45,-1.666 3.07,-0.974 5.72,-7.035 4.17,-9.523 -2.49,-3.988 -0.05,-5.652 3.13,-2.135 2.36,2.605 2.08,7.588 -0.59,10.578 -2.47,2.759 -7.17,4.343 -8.16,2.746 z" />
      </g>
    </g>
  </g>
</svg>
