<?xml version="1.0" encoding="UTF-8" standalone="no"?>
<!-- Created with Inkscape (http://www.inkscape.org/) -->

<svg
   xmlns:dc="http://purl.org/dc/elements/1.1/"
   xmlns:cc="http://creativecommons.org/ns#"
   xmlns:rdf="http://www.w3.org/1999/02/22-rdf-syntax-ns#"
   xmlns:svg="http://www.w3.org/2000/svg"
   xmlns="http://www.w3.org/2000/svg"
   xmlns:sodipodi="http://sodipodi.sourceforge.net/DTD/sodipodi-0.dtd"
   xmlns:inkscape="http://www.inkscape.org/namespaces/inkscape"
   width="17.611818"
   height="17.781252"
   id="svg3339"
   version="1.1"
   inkscape:version="0.48.4 r9939"
   sodipodi:docname="POI_nightlife.svg"
   inkscape:export-filename="/home/blauberg/Dokumente/SEP/JoglEarth/Spezifikation/res/locationIcons/NIGHTLIFE.png"
   inkscape:export-xdpi="2556"
   inkscape:export-ydpi="2556">
  <defs
     id="defs3341" />
  <sodipodi:namedview
     id="base"
     pagecolor="#ffffff"
     bordercolor="#666666"
     borderopacity="1.0"
     inkscape:pageopacity="0"
     inkscape:pageshadow="2"
     inkscape:zoom="19.883939"
     inkscape:cx="13.745148"
     inkscape:cy="4.8488076"
     inkscape:document-units="px"
     inkscape:current-layer="g5202"
     showgrid="false"
     fit-margin-top="0"
     fit-margin-left="0"
     fit-margin-right="0"
     fit-margin-bottom="0"
     inkscape:window-width="1920"
     inkscape:window-height="1148"
     inkscape:window-x="0"
     inkscape:window-y="30"
     inkscape:window-maximized="1" />
  <metadata
     id="metadata3344">
    <rdf:RDF>
      <cc:Work
         rdf:about="">
        <dc:format>image/svg+xml</dc:format>
        <dc:type
           rdf:resource="http://purl.org/dc/dcmitype/StillImage" />
        <dc:title></dc:title>
      </cc:Work>
    </rdf:RDF>
  </metadata>
  <g
     inkscape:label="Ebene 1"
     inkscape:groupmode="layer"
     id="layer1"
     transform="translate(-341.24097,-523.42468)">
    <g
       id="g5202"
       transform="translate(306.95972,-45.950317)">
      <path
         sodipodi:type="arc"
         style="stroke-width:1.20000005000000010;stroke-miterlimit:10;stroke-dasharray:none;stroke-dashoffset:0;fill:none;stroke:#000000;stroke-opacity:1"
         id="path2987"
         sodipodi:cx="9.6534653"
         sodipodi:cy="9.3654099"
         sodipodi:rx="6.3118811"
         sodipodi:ry="6.5594058"
         d="m 15.965346,9.3654099 c 0,3.6226601 -2.825925,6.5594061 -6.3118807,6.5594061 -3.4859557,0 -6.3118811,-2.936746 -6.3118811,-6.5594061 0,-3.6226598 2.8259254,-6.5594059 6.3118811,-6.5594059 3.4859557,0 6.3118807,2.9367461 6.3118807,6.5594059 z"
         transform="matrix(1.1568627,0,0,1.0943396,31.900648,567.87267)" />
      <path
         style="fill-rule:evenodd;stroke-width:30.18252945;stroke-miterlimit:4;stroke-dasharray:none"
         inkscape:connector-curvature="0"
         d="m 38.762113,573.7404 3.765431,4.67663 v 3.64923 c -0.453246,0.0156 -0.96925,0.0628 -1.566606,0.16505 -0.604327,0.0999 -1.680497,0.29055 -2.010553,0.41832 -0.32773,0.12082 -0.295191,0.22546 0.04416,0.30449 0.339354,0.0651 1.287685,0.0977 1.966392,0.11633 0.66941,0.0194 1.341081,0.0194 2.033797,0 h 0.211517 c 0.690263,0.0194 1.362061,0.0194 2.033795,0 0.67167,-0.0194 1.620066,-0.051 1.966327,-0.11633 0.334769,-0.0791 0.367247,-0.18357 0.04424,-0.30449 -0.33703,-0.12784 -1.41094,-0.31843 -2.010554,-0.41832 -0.599681,-0.10226 -1.115685,-0.14889 -1.56667,-0.16505 v -3.64923 l 3.765431,-4.67663 h -8.67689 z"
         id="path105" />
      <path
         style="fill:#ffffff;fill-rule:evenodd;stroke-width:30.18252945;stroke-miterlimit:4;stroke-dasharray:none"
         inkscape:connector-curvature="0"
         d="m 39.603396,574.09162 h 6.947192 l -3.440023,4.09317 -3.507428,-4.09317 z"
         id="path107" />
      <path
         style="fill-rule:evenodd;stroke-width:30.18252945;stroke-miterlimit:4;stroke-dasharray:none"
         inkscape:connector-curvature="0"
         d="m 43.066661,575.39067 c -0.297514,0.55087 -0.230109,1.16682 0.151086,1.37136 0.381192,0.20453 0.929672,-0.0769 1.227251,-0.62763 0.297518,-0.55312 0.230111,-1.16442 -0.151085,-1.3713 -0.381192,-0.20455 -0.932124,0.0768 -1.227252,0.62757 z"
         id="path109" />
      <path
         style="fill:#ffffff;fill-rule:evenodd;stroke-width:30.18252945;stroke-miterlimit:4;stroke-dasharray:none"
         inkscape:connector-curvature="0"
         d="m 43.50635,575.84973 c 0.219391,0 0.397461,0.17285 0.397461,0.38585 0,0.21299 -0.178075,0.38591 -0.397461,0.38591 -0.219393,0 -0.397464,-0.17285 -0.397464,-0.38591 0,-0.213 0.177998,-0.38585 0.397464,-0.38585"
         id="path111" />
      <path
         style="fill:#ffffff;fill-opacity:1;stroke:#000000;stroke-width:0.00211226;stroke-miterlimit:4;stroke-opacity:1;stroke-dasharray:none"
         d="M 8.2675799,15.187262 C 5.5618155,15.007517 3.1407594,13.042931 2.426,10.447065 2.1208013,9.3386438 2.1360699,7.982064 2.4657579,6.9146585 3.2230359,4.4628775 5.3130696,2.7077547 7.916323,2.3375019 c 0.9892517,-0.1406983 2.181192,-0.012748 3.14324,0.3374153 1.949573,0.7095988 3.488216,2.3255923 4.049104,4.2526612 0.656028,2.2539461 0.093,4.5335576 -1.550473,6.2776076 l -0.280708,0.297887 -0.09055,-0.111767 c -0.05852,-0.07224 -0.223963,-0.146988 -0.467741,-0.211346 -0.594945,-0.157067 -1.949523,-0.389926 -2.665108,-0.458146 l -0.6541535,-0.06236 0,-1.789039 0,-1.7890382 1.8844735,-2.3366981 c 1.03646,-1.2851841 1.885135,-2.3536718 1.885944,-2.3744172 8.09e-4,-0.020745 -1.956139,-0.037719 -4.3487737,-0.037719 -2.3926346,0 -4.3498811,0.016973 -4.3494367,0.037719 4.444e-4,0.020745 0.8489393,1.0900758 1.8855443,2.3762897 l 1.8847365,2.3385709 4.023e-4,1.7979339 4.024e-4,1.797933 -0.2158295,0 c -0.5041969,0 -2.5772942,0.338609 -3.2123764,0.524693 -0.4473987,0.131092 -0.5074289,0.279532 -0.153271,0.379004 0.3823695,0.107395 2.5359562,0.164933 5.0399404,0.134654 2.3088084,-0.02792 3.1412954,-0.06783 3.3946994,-0.162764 0.203017,-0.07605 -0.08146,0.178146 -0.550345,0.491781 -0.860625,0.575663 -1.706382,0.916443 -2.6498306,1.067695 -0.5976542,0.09581 -0.9960561,0.113236 -1.6286275,0.07121 l -5e-6,0 z"
         id="path3002"
         inkscape:connector-curvature="0"
         transform="translate(34.28125,569.375)" />
      <path
         style="fill:#ffffff;fill-opacity:1;stroke:#000000;stroke-width:0.00211226;stroke-miterlimit:4;stroke-opacity:1;stroke-dasharray:none"
         d="m 7.0986779,6.7449237 -1.7228984,-2.0100503 3.4197856,0 3.4197859,0 -1.614622,1.9236631 C 9.7126871,7.7165512 8.9490878,8.6210739 8.9038418,8.6685868 8.8268883,8.7493958 8.7103243,8.6251799 7.0986779,6.7449237 l 0,0 z M 9.7648858,7.2632396 C 9.8744887,7.1838436 10.044296,6.9897989 10.142235,6.8320291 10.292617,6.5897777 10.323977,6.4879657 10.343917,6.1772444 10.371587,5.7460914 10.292577,5.5414222 10.038712,5.3866314 9.8521511,5.2728785 9.7613009,5.2661843 9.493397,5.3464503 9.0074655,5.4920389 8.595263,6.10483 8.595263,6.6816397 c 0,0.4673261 0.1395974,0.6970593 0.4655095,0.7660819 0.2278872,0.048262 0.4706084,-0.015332 0.7041133,-0.184482 z"
         id="path3004"
         inkscape:connector-curvature="0"
         transform="translate(34.28125,569.375)" />
      <path
         style="fill:#ffffff;fill-opacity:1;stroke:#000000;stroke-width:0.00211226;stroke-miterlimit:4;stroke-opacity:1;stroke-dasharray:none"
         d="M 8.9530736,7.069354 C 8.8300306,6.9129302 8.8273465,6.8943886 8.9035379,6.7271669 8.9900756,6.5372372 9.2020852,6.468215 9.3940393,6.5674783 9.7159994,6.7339703 9.6092461,7.1573613 9.2372557,7.1892929 9.0940235,7.201588 9.0387335,7.1782528 8.9530736,7.069354 z"
         id="path3006"
         inkscape:connector-curvature="0"
         transform="translate(34.28125,569.375)" />
    </g>
  </g>
</svg>
