<?xml version="1.0" encoding="UTF-8" standalone="no"?>
<!-- Created with Inkscape (http://www.inkscape.org/) -->

<svg
   xmlns:dc="http://purl.org/dc/elements/1.1/"
   xmlns:cc="http://creativecommons.org/ns#"
   xmlns:rdf="http://www.w3.org/1999/02/22-rdf-syntax-ns#"
   xmlns:svg="http://www.w3.org/2000/svg"
   xmlns="http://www.w3.org/2000/svg"
   xmlns:sodipodi="http://sodipodi.sourceforge.net/DTD/sodipodi-0.dtd"
   xmlns:inkscape="http://www.inkscape.org/namespaces/inkscape"
   width="17.611818"
   height="17.781252"
   id="svg3339"
   version="1.1"
   inkscape:version="0.48.4 r9939"
   sodipodi:docname="POI_post.svg">
  <defs
     id="defs3341" />
  <sodipodi:namedview
     id="base"
     pagecolor="#ffffff"
     bordercolor="#666666"
     borderopacity="1.0"
     inkscape:pageopacity="0.0"
     inkscape:pageshadow="2"
     inkscape:zoom="19.883939"
     inkscape:cx="13.745148"
     inkscape:cy="4.8488076"
     inkscape:document-units="px"
     inkscape:current-layer="g5202"
     showgrid="false"
     fit-margin-top="0"
     fit-margin-left="0"
     fit-margin-right="0"
     fit-margin-bottom="0"
     inkscape:window-width="1920"
     inkscape:window-height="1145"
     inkscape:window-x="-3"
     inkscape:window-y="-3"
     inkscape:window-maximized="1" />
  <metadata
     id="metadata3344">
    <rdf:RDF>
      <cc:Work
         rdf:about="">
        <dc:format>image/svg+xml</dc:format>
        <dc:type
           rdf:resource="http://purl.org/dc/dcmitype/StillImage" />
        <dc:title></dc:title>
      </cc:Work>
    </rdf:RDF>
  </metadata>
  <g
     inkscape:label="Ebene 1"
     inkscape:groupmode="layer"
     id="layer1"
     transform="translate(-341.24097,-523.42468)">
    <g
       id="g5202"
       transform="translate(306.95972,-45.950317)">
      <path
         sodipodi:type="arc"
         style="stroke-width:1.20000005000000010;stroke-miterlimit:10;stroke-dasharray:none;stroke-dashoffset:0;fill:none;stroke:#000000;stroke-opacity:1"
         id="path2987"
         sodipodi:cx="9.6534653"
         sodipodi:cy="9.3654099"
         sodipodi:rx="6.3118811"
         sodipodi:ry="6.5594058"
         d="m 15.965346,9.3654099 c 0,3.6226601 -2.825925,6.5594061 -6.3118807,6.5594061 -3.4859557,0 -6.3118811,-2.936746 -6.3118811,-6.5594061 0,-3.6226598 2.8259254,-6.5594059 6.3118811,-6.5594059 3.4859557,0 6.3118807,2.9367461 6.3118807,6.5594059 z"
         transform="matrix(1.1568627,0,0,1.0943396,31.900648,567.87267)" />
      <g
         style="fill-rule:evenodd;stroke-width:30.18252884;stroke-miterlimit:4;stroke-dasharray:none"
         id="g3823"
         transform="matrix(0.03313175,0,0,0.03313175,35.417251,570.64815)">
        <path
           id="path97"
           d="m 157.54,55 c -1.836,-0.108 -3.24,0.18 -4.5,0.72 -1.296,0.396 -2.376,0.612 -2.808,2.592 -0.504,2.016 -0.504,5.04 0,9.36 v 39.456 c 0.144,1.692 0.144,3.78 0,6.264 -0.108,2.484 -0.216,5.976 -0.864,8.532 -0.756,2.376 -1.836,3.42 -3.636,5.904 -1.98,2.34 -5.22,5.652 -7.632,8.532 -2.592,2.808 -4.86,5.508 -6.948,8.532 -2.088,2.844 -4.104,5.4 -5.22,9.036 -1.26,3.6 -1.62,7.488 -1.908,12.492 -0.36,4.896 -0.36,10.368 0,16.704 -0.036,63.54 -0.036,106.96 0,133.02 -0.036,25.632 -0.036,32.437 0,20.557 -0.144,6.588 -0.144,11.735 0,15.3 0,3.456 0.216,4.464 0.504,6.084 0.18,1.584 0.216,2.52 1.224,3.636 1.008,0.972 1.98,2.052 4.86,2.952 2.844,0.792 6.84,2.124 11.988,2.628 5.04,0.468 11.016,0.828 18.072,0.685 h 9.756 c 7.02,0.144 12.996,-0.217 18.072,-0.685 5.04,-0.504 9.036,-1.836 11.988,-2.628 2.772,-0.9 3.744,-1.98 4.86,-2.952 0.936,-1.116 0.972,-2.052 1.224,-3.636 0.252,-1.62 0.432,-2.628 0.54,-6.084 0.072,-3.564 0.072,-8.712 0,-15.3 -0.036,11.88 -0.036,5.075 0,-20.557 -0.036,-26.063 -0.036,-69.479 0,-133.02 0.288,-6.336 0.288,-11.808 0,-16.704 -0.396,-5.004 -0.756,-8.892 -1.908,-12.492 -1.224,-3.636 -3.24,-6.192 -5.22,-9.036 -2.16,-3.024 -4.428,-5.724 -6.948,-8.532 -2.52,-2.88 -5.76,-6.192 -7.632,-8.532 -1.836,-2.484 -3.06,-3.528 -3.672,-5.904 -0.756,-2.556 -0.864,-6.048 -0.864,-8.532 -0.18,-2.484 -0.18,-4.572 0,-6.264 V 67.65 c 0.468,-4.32 0.468,-7.344 0,-9.36 -0.576,-1.98 -1.548,-2.196 -2.772,-2.592 -1.332,-0.54 -2.664,-0.828 -4.536,-0.72 h -16.02 z"
           inkscape:connector-curvature="0"
           style="stroke-width:30.18252884;stroke-miterlimit:4;stroke-dasharray:none" />
        <path
           id="path99"
           d="m 160.89,58.384 c -1.728,-0.072 -3.024,0.108 -4.176,0.684 -1.26,0.432 -2.124,0.576 -2.592,2.52 -0.468,1.908 -0.468,5.004 0,9.144 l 0.144,42.3 c 0.072,1.692 0.072,3.672 0,6.084 -0.18,2.412 0.252,5.832 -0.792,8.316 -1.26,2.268 -3.672,3.204 -5.868,5.58 -2.34,2.304 -4.752,5.4 -7.092,8.316 -2.304,2.736 -4.572,5.4 -6.408,8.28 -2.016,2.88 -3.672,5.868 -4.824,8.82 -1.152,2.844 -1.656,4.068 -1.908,8.244 -0.36,4.104 -0.36,9.468 0,16.236 -0.036,61.776 -0.036,104.26 0,129.53 -0.036,24.948 -0.036,31.572 0,20.017 -0.072,6.516 -0.072,11.34 0,14.868 -0.036,3.527 0.252,4.212 0.468,5.939 0.18,1.548 0.18,2.448 1.116,3.528 0.828,1.044 1.908,1.908 4.5,2.88 2.7,0.899 6.3,1.944 11.088,2.556 4.644,0.468 12.348,0.504 16.704,0.648 4.248,0.072 4.716,0.072 9.036,0 4.248,-0.145 11.988,-0.181 16.704,-0.648 4.716,-0.611 8.28,-1.656 11.088,-2.556 2.52,-0.972 3.564,-1.836 4.5,-2.88 0.9,-1.08 0.864,-1.98 1.152,-3.528 0.252,-1.728 0.36,-2.412 0.468,-5.939 0.036,-3.528 0.036,-8.353 0,-14.868 -0.036,11.556 -0.036,4.932 0,-20.017 -0.036,-25.271 -0.036,-67.752 0,-129.53 0.252,-6.948 0.252,-12.132 0,-16.236 -0.18,-4.14 -0.576,-5.04 -1.476,-7.848 -1.152,-2.88 -2.952,-5.94 -4.824,-8.784 -1.944,-2.88 -4.176,-5.544 -6.408,-8.28 -2.448,-2.808 -4.86,-6.048 -7.092,-8.316 -2.304,-2.34 -4.68,-3.384 -5.868,-5.616 -1.152,-2.52 -0.72,-5.796 -0.792,-8.28 -0.144,-2.412 -0.144,-4.392 0,-6.084 L 177.45,70.732 c 0.396,-4.14 0.396,-7.236 0,-9.144 -0.576,-1.944 -1.44,-2.088 -2.592,-2.52 -1.188,-0.576 -2.484,-0.756 -4.176,-0.684 h -9.792 z"
           inkscape:connector-curvature="0"
           style="fill:#ffffff;stroke-width:30.18252884;stroke-miterlimit:4;stroke-dasharray:none" />
        <path
           id="path101"
           d="m 125.86,205.12 c 13.644,7.632 26.82,11.412 40.356,11.484 13.5,-0.072 26.532,-3.852 39.924,-11.484 v 92.16 c -13.392,7.632 -26.424,11.447 -39.924,11.447 -13.536,0 -26.712,-3.815 -40.356,-11.447 v -92.16 z"
           inkscape:connector-curvature="0"
           style="stroke-width:30.18252884;stroke-miterlimit:4;stroke-dasharray:none" />
        <path
           id="path103"
           d="m 130.11,213.62 c 12.132,5.976 23.832,8.856 35.676,8.928 11.844,-0.072 23.256,-2.952 34.812,-8.928 v 80.82 c -11.736,6.66 -23.22,10.009 -35.028,10.044 -11.88,-0.035 -23.508,-3.384 -35.46,-10.044 v -80.82 z"
           inkscape:connector-curvature="0"
           style="fill:#ffffff;stroke-width:30.18252884;stroke-miterlimit:4;stroke-dasharray:none" />
        <path
           id="path105"
           d="m 192.57,248.86 58.32,72.433 v 56.52 c -7.02,0.252 -15.012,0.973 -24.264,2.557 -9.36,1.548 -26.028,4.5 -31.14,6.479 -5.076,1.872 -4.572,3.492 0.684,4.716 5.256,1.009 19.944,1.513 30.456,1.801 10.368,0.288 20.771,0.288 31.5,0 h 3.276 c 10.691,0.288 21.096,0.288 31.5,0 10.403,-0.288 25.092,-0.792 30.455,-1.801 5.185,-1.224 5.688,-2.844 0.685,-4.716 -5.22,-1.979 -21.853,-4.932 -31.14,-6.479 -9.288,-1.584 -17.28,-2.305 -24.265,-2.557 v -56.52 l 58.32,-72.433 h -134.39 z"
           inkscape:connector-curvature="0"
           style="stroke-width:30.18252884;stroke-miterlimit:4;stroke-dasharray:none" />
        <path
           id="path107"
           d="M 205.6,254.3 H 313.2 L 259.92,317.696 205.596,254.3 z"
           inkscape:connector-curvature="0"
           style="fill:#ffffff;stroke-width:30.18252884;stroke-miterlimit:4;stroke-dasharray:none" />
        <path
           id="path109"
           d="m 259.24,274.42 c -4.608,8.532 -3.564,18.072 2.34,21.24 5.904,3.168 14.399,-1.188 19.008,-9.721 4.608,-8.567 3.564,-18.035 -2.34,-21.239 -5.904,-3.168 -14.437,1.188 -19.008,9.72 z"
           inkscape:connector-curvature="0"
           style="stroke-width:30.18252884;stroke-miterlimit:4;stroke-dasharray:none" />
        <path
           id="path111"
           d="m 266.05,281.53 c 3.398,0 6.156,2.677 6.156,5.976 0,3.299 -2.758,5.977 -6.156,5.977 -3.398,0 -6.156,-2.678 -6.156,-5.977 0,-3.299 2.757,-5.976 6.156,-5.976"
           inkscape:connector-curvature="0"
           style="fill:#ffffff;stroke-width:30.18252884;stroke-miterlimit:4;stroke-dasharray:none" />
      </g>
    </g>
  </g>
</svg>
