<?xml version="1.0" encoding="UTF-8" standalone="no"?>
<!-- Created with Inkscape (http://www.inkscape.org/) -->

<svg
   xmlns:dc="http://purl.org/dc/elements/1.1/"
   xmlns:cc="http://creativecommons.org/ns#"
   xmlns:rdf="http://www.w3.org/1999/02/22-rdf-syntax-ns#"
   xmlns:svg="http://www.w3.org/2000/svg"
   xmlns="http://www.w3.org/2000/svg"
   xmlns:xlink="http://www.w3.org/1999/xlink"
   xmlns:sodipodi="http://sodipodi.sourceforge.net/DTD/sodipodi-0.dtd"
   xmlns:inkscape="http://www.inkscape.org/namespaces/inkscape"
   width="17.611818"
   height="17.781252"
   id="svg3339"
   version="1.1"
   inkscape:version="0.48.3.1 r9886"
   sodipodi:docname="POI_hotels.svg"
   inkscape:export-filename="/home/gabi/SEP/JoglEarth/Spezifikation/res/iconsPoi/POI_Hotel.png"
   inkscape:export-xdpi="2556"
   inkscape:export-ydpi="2556">
  <defs
     id="defs3341">
    <filter
       id="imagebot_77"
       color-interpolation-filters="sRGB">
      <feGaussianBlur
         id="imagebot_83"
         stdDeviation="2.68359" />
    </filter>
    <linearGradient
       gradientUnits="userSpaceOnUse"
       gradientTransform="scale(0.93314657,1.071643)"
       id="imagebot_75"
       y2="610.96385"
       xlink:href="#imagebot_82"
       y1="706.61178"
       x2="719.02793"
       x1="746.17556" />
    <linearGradient
       id="imagebot_82">
      <stop
         id="imagebot_104"
         stop-color="#dfdfdf"
         offset="0" />
      <stop
         id="imagebot_103"
         stop-color="#fff"
         offset="1" />
    </linearGradient>
    <linearGradient
       gradientUnits="userSpaceOnUse"
       gradientTransform="scale(0.93313895,1.0716518)"
       id="imagebot_68"
       y2="692.02572"
       xlink:href="#imagebot_82"
       y1="619.24016"
       x2="732.20632"
       x1="716.39903" />
    <linearGradient
       id="linearGradient5066">
      <stop
         id="stop5068"
         stop-color="#dfdfdf"
         offset="0" />
      <stop
         id="stop5070"
         stop-color="#fff"
         offset="1" />
    </linearGradient>
    <filter
       id="imagebot_50"
       color-interpolation-filters="sRGB">
      <feGaussianBlur
         id="imagebot_84"
         stdDeviation="2.08236" />
    </filter>
    <linearGradient
       gradientUnits="userSpaceOnUse"
       gradientTransform="scale(0.93594535,1.0684385)"
       id="imagebot_48"
       x2="737.16982"
       y1="615.75739"
       x1="726.47682"
       y2="623.91586">
      <stop
         id="imagebot_91"
         stop-color="#9b6a06"
         offset="0" />
      <stop
         id="imagebot_90"
         stop-color="#b38e29"
         offset=".10284" />
      <stop
         id="imagebot_89"
         stop-color="#faf892"
         offset=".25018" />
      <stop
         id="imagebot_88"
         stop-color="#ddba32"
         offset=".51725" />
      <stop
         id="imagebot_87"
         stop-color="#cf9e08"
         offset=".6932" />
      <stop
         id="imagebot_86"
         stop-color="#976400"
         offset=".73575" />
      <stop
         id="imagebot_85"
         stop-color="#976400"
         offset="1" />
    </linearGradient>
    <linearGradient
       gradientUnits="userSpaceOnUse"
       gradientTransform="scale(0.95014084,1.0524755)"
       id="imagebot_46"
       x2="649.9041"
       y1="707.64765"
       x1="648.2462"
       y2="708.58134">
      <stop
         id="imagebot_94"
         stop-color="#a07100"
         offset="0" />
      <stop
         id="imagebot_93"
         stop-color="#f4f300"
         offset=".43039" />
      <stop
         id="imagebot_92"
         stop-color="#9e700b"
         offset="1" />
    </linearGradient>
    <linearGradient
       gradientUnits="userSpaceOnUse"
       gradientTransform="scale(1.0082381,0.99182919)"
       id="imagebot_44"
       x2="617.53384"
       y1="745.21991"
       x1="614.02773"
       y2="748.42962">
      <stop
         id="imagebot_97"
         stop-color="#a07100"
         offset="0" />
      <stop
         id="imagebot_96"
         stop-color="#f6f600"
         offset=".38158" />
      <stop
         id="imagebot_95"
         stop-color="#9e700b"
         offset="1" />
    </linearGradient>
    <linearGradient
       gradientUnits="userSpaceOnUse"
       gradientTransform="scale(0.92919642,1.0761987)"
       id="imagebot_42"
       x2="673.2575"
       y1="679.81013"
       x1="684.67244"
       y2="671.43373">
      <stop
         id="imagebot_102"
         stop-color="#375a93"
         offset="0" />
      <stop
         id="imagebot_101"
         stop-color="#5c9eda"
         offset=".36961" />
      <stop
         id="imagebot_100"
         stop-color="#97cafd"
         offset=".53886" />
      <stop
         id="imagebot_99"
         stop-color="#8bbff3"
         offset=".77808" />
      <stop
         id="imagebot_98"
         stop-color="#2a629a"
         offset="1" />
    </linearGradient>
    <filter
       id="filter5292"
       inkscape:label="Desaturate"
       x="0"
       y="0"
       width="1"
       height="1"
       inkscape:menu="Color"
       inkscape:menu-tooltip="Render in shades of gray by reducing saturation to zero"
       color-interpolation-filters="sRGB">
      <feColorMatrix
         id="feColorMatrix5294"
         type="saturate"
         values="0"
         result="fbSourceGraphic" />
      <feColorMatrix
         result="fbSourceGraphicAlpha"
         in="fbSourceGraphic"
         values="0 0 0 -1 0 0 0 0 -1 0 0 0 0 -1 0 0 0 0 1 0"
         id="feColorMatrix5308" />
      <feColorMatrix
         id="feColorMatrix5310"
         type="saturate"
         values="0"
         in="fbSourceGraphic" />
    </filter>
    <filter
       id="filter5296"
       inkscape:label="Desaturate"
       x="0"
       y="0"
       width="1"
       height="1"
       inkscape:menu="Color"
       inkscape:menu-tooltip="Render in shades of gray by reducing saturation to zero"
       color-interpolation-filters="sRGB">
      <feColorMatrix
         id="feColorMatrix5298"
         type="saturate"
         values="0" />
    </filter>
    <filter
       id="filter5300"
       inkscape:label="Desaturate"
       x="0"
       y="0"
       width="1"
       height="1"
       inkscape:menu="Color"
       inkscape:menu-tooltip="Render in shades of gray by reducing saturation to zero"
       color-interpolation-filters="sRGB">
      <feColorMatrix
         id="feColorMatrix5302"
         type="saturate"
         values="0" />
    </filter>
    <filter
       id="filter5304"
       inkscape:label="Desaturate"
       x="0"
       y="0"
       width="1"
       height="1"
       inkscape:menu="Color"
       inkscape:menu-tooltip="Render in shades of gray by reducing saturation to zero"
       color-interpolation-filters="sRGB">
      <feColorMatrix
         id="feColorMatrix5306"
         type="saturate"
         values="0" />
    </filter>
  </defs>
  <sodipodi:namedview
     id="base"
     pagecolor="#ffffff"
     bordercolor="#666666"
     borderopacity="1.0"
     inkscape:pageopacity="0"
     inkscape:pageshadow="2"
     inkscape:zoom="44.43"
     inkscape:cx="9.4014235"
     inkscape:cy="9.4595648"
     inkscape:document-units="px"
     inkscape:current-layer="g5202"
     showgrid="false"
     fit-margin-top="0"
     fit-margin-left="0"
     fit-margin-right="0"
     fit-margin-bottom="0"
     inkscape:window-width="1306"
     inkscape:window-height="744"
     inkscape:window-x="60"
     inkscape:window-y="24"
     inkscape:window-maximized="1" />
  <metadata
     id="metadata3344">
    <rdf:RDF>
      <cc:Work
         rdf:about="">
        <dc:format>image/svg+xml</dc:format>
        <dc:type
           rdf:resource="http://purl.org/dc/dcmitype/StillImage" />
        <dc:title></dc:title>
      </cc:Work>
    </rdf:RDF>
  </metadata>
  <g
     inkscape:label="Ebene 1"
     inkscape:groupmode="layer"
     id="layer1"
     transform="translate(-341.24097,-523.42468)">
    <g
       id="g5202"
       transform="translate(306.95972,-45.950317)">
      <path
         sodipodi:type="arc"
         style="stroke-width:1.20000005000000010;stroke-miterlimit:10;stroke-dasharray:none;stroke-dashoffset:0;fill:none;stroke:#000000;stroke-opacity:1"
         id="path2987"
         sodipodi:cx="9.6534653"
         sodipodi:cy="9.3654099"
         sodipodi:rx="6.3118811"
         sodipodi:ry="6.5594058"
         d="m 15.965346,9.3654099 c 0,3.6226601 -2.825925,6.5594061 -6.3118807,6.5594061 -3.4859557,0 -6.3118811,-2.936746 -6.3118811,-6.5594061 0,-3.6226598 2.8259254,-6.5594059 6.3118811,-6.5594059 3.4859557,0 6.3118807,2.9367461 6.3118807,6.5594059 z"
         transform="matrix(1.1568627,0,0,1.0943396,31.900648,567.87267)" />
      <circle
         r="0"
         cx="277.5"
         cy="-63"
         label="Layer 1"
         fill-opacity="null"
         stroke-opacity="null"
         id="imagebot_36"
         sodipodi:cx="277.5"
         sodipodi:cy="-63"
         sodipodi:rx="0"
         sodipodi:ry="0"
         style="stroke-linecap:round;stroke-linejoin:round;stroke-dasharray:none"
         transform="matrix(0.02766026,0,0,0.02766026,37.834693,572.30803)" />
      <circle
         r="0"
         cx="-80.5"
         cy="-41"
         label="Layer 1"
         fill-opacity="null"
         stroke-opacity="null"
         id="imagebot_34"
         sodipodi:cx="-80.5"
         sodipodi:cy="-41"
         sodipodi:rx="0"
         sodipodi:ry="0"
         style="stroke-linecap:round;stroke-linejoin:round;stroke-dasharray:none"
         transform="matrix(0.02766026,0,0,0.02766026,37.834693,572.30803)" />
      <circle
         r="0"
         cx="-82.5"
         cy="33"
         label="Layer 1"
         fill-opacity="null"
         stroke-opacity="null"
         id="imagebot_33"
         sodipodi:cx="-82.5"
         sodipodi:cy="33"
         sodipodi:rx="0"
         sodipodi:ry="0"
         style="stroke-linecap:round;stroke-linejoin:round;stroke-dasharray:none"
         transform="matrix(0.02766026,0,0,0.02766026,37.834693,572.30803)" />
      <circle
         r="0"
         cx="149.5"
         cy="65"
         label="Layer 1"
         fill-opacity="null"
         stroke-opacity="null"
         id="imagebot_32"
         sodipodi:cx="149.5"
         sodipodi:cy="65"
         sodipodi:rx="0"
         sodipodi:ry="0"
         style="stroke-linecap:round;stroke-linejoin:round;stroke-dasharray:none"
         transform="matrix(0.02766026,0,0,0.02766026,37.834693,572.30803)" />
      <circle
         r="0"
         cx="76.5"
         cy="114"
         label="Layer 1"
         fill-opacity="null"
         stroke-opacity="null"
         id="imagebot_2"
         sodipodi:cx="76.5"
         sodipodi:cy="114"
         sodipodi:rx="0"
         sodipodi:ry="0"
         style="stroke-linecap:round;stroke-linejoin:round;stroke-dasharray:none"
         transform="matrix(0.02766026,0,0,0.02766026,37.834693,572.30803)" />
      <g
         transform="matrix(0.02378706,0,0,0.02378706,38.084462,570.72934)"
         id="g1882">
        <g
           id="g1884">
          <path
             inkscape:connector-curvature="0"
             d="m 89.25,279.01 c 21.59,0 39.09,-17.5 39.09,-39.08 0,-21.59 -17.5,-39.09 -39.09,-39.09 -21.585,0 -39.085,17.5 -39.085,39.09 0,21.58 17.5,39.08 39.085,39.08 z"
             id="path1886" />
          <path
             inkscape:connector-curvature="0"
             d="M 89.25,239.93"
             id="path1888" />
        </g>
        <path
           inkscape:connector-curvature="0"
           d="m 173.65,228.84 h 156.23 c 22.92,0 36.43,14.76 36.43,34.51 V 319.9 H 173.65 v -91.06 z"
           id="path1890" />
        <path
           inkscape:connector-curvature="0"
           d="M 131.12,249.08 V 283 H 71.054 c -29,0.1 -29.047,37.38 0,37.38 H 149.8 c 11.5,0 18.7,-9.28 18.7,-19.78 v -51.52 c 0,-28.22 -37.38,-28.22 -37.38,0 z"
           id="path1892" />
        <path
           inkscape:connector-curvature="0"
           d="M 42.702,196.26 C 42.702,165.48 0,165.48 0,196.26 v 246.81 h 43.651 v -63.74 h 332.12 v 63.26 h 42.7 V 251.96 c 0,-32.48 -43.17,-32.48 -43.17,0 v 76.09 h -332.6 l 0.002,-131.79 z"
           id="path1894" />
      </g>
      <path
         style="fill:#ffffff;fill-opacity:1;stroke-width:1.35000002;stroke-miterlimit:10;stroke-dasharray:none"
         d="M 8.3593348,15.227493 C 7.5383965,15.148404 6.9762322,15.022838 6.3561838,14.780065 5.4553195,14.427342 4.7411728,13.957087 4.049184,13.26094 3.0571971,12.262992 2.4566793,11.064331 2.2331808,9.6361143 c -0.057934,-0.3702145 -0.057934,-1.4078634 0,-1.7780779 C 2.408066,6.7404724 2.8094792,5.7744951 3.4605234,4.9045086 4.7439243,3.1895077 6.8434192,2.1857706 8.9895396,2.2611688 c 2.2463874,0.078921 4.2434344,1.2142203 5.4307144,3.087302 0.174302,0.2749825 0.467684,0.867027 0.578039,1.166483 0.269785,0.7320806 0.394578,1.4380306 0.394578,2.2321216 0,0.9915689 -0.196895,1.8676186 -0.617148,2.7458926 -0.966315,2.019472 -2.890911,3.398085 -5.1559785,3.693293 -0.2403503,0.03133 -1.0786064,0.05875 -1.2604097,0.04123 z m -3.4998874,-4.083389 0,-0.765248 3.9387801,0 3.9387805,0 0,0.753995 0,0.753995 0.51817,0 0.51817,0 -0.0061,-2.3576414 c -0.0061,-2.3426519 -0.0064,-2.3582852 -0.05346,-2.4589242 -0.08552,-0.1829786 -0.222671,-0.2853765 -0.412332,-0.3078391 -0.218843,-0.025918 -0.439082,0.1053946 -0.535183,0.3190928 -0.03661,0.081412 -0.04115,0.1842772 -0.04741,1.0747242 l -0.0069,0.9846951 -3.936651,0 -3.9366512,0 -0.00646,-1.6374072 C 4.8258151,5.898754 4.8247526,5.8641217 4.7787989,5.7648561 4.7230501,5.6444312 4.6025347,5.5325428 4.4877807,5.4946707 4.4421624,5.4796153 4.3402342,5.4714148 4.2612402,5.4764449 4.0722345,5.4884798 3.9504291,5.5694663 3.8634987,5.7408971 l -0.061895,0.1220601 0,3.0231978 0,3.023198 0.5289219,0 0.5289219,0 0,-0.765249 z M 7.5441676,8.9530819 C 7.6604179,8.904415 7.7768928,8.7580884 7.8054782,8.6247992 7.8371212,8.4772529 7.8387291,7.3228415 7.8075219,7.1582806 7.7617879,6.9171265 7.5963972,6.7712547 7.3687082,6.7712547 c -0.1779075,0 -0.3166129,0.083888 -0.4013891,0.2427574 -0.043987,0.082431 -0.048694,0.1313419 -0.055776,0.5795634 l -0.00773,0.4895341 -0.7712413,0 c -0.5167311,0 -0.7964887,0.00845 -0.8477486,0.025615 -0.2697882,0.090329 -0.3897423,0.3770167 -0.2621927,0.6266368 0.056852,0.111262 0.1242512,0.1680544 0.2545087,0.2144567 0.1277589,0.045512 2.1591296,0.048436 2.2670335,0.00326 l -1.1e-6,0 z M 12.529035,8.2125266 C 12.521523,7.5698548 12.513762,7.4225694 12.482365,7.3269156 12.408619,7.1022419 12.209947,6.9121224 11.961523,6.8284951 11.858842,6.7939293 11.659929,6.7895676 9.8842054,6.7829432 l -1.9637632,-0.00733 0,1.1038924 0,1.1038925 2.3088008,0 2.308801,0 -0.009,-0.7708756 0,0 z M 6.1900465,7.9610429 C 6.4062164,7.8954328 6.5498826,7.7929966 6.6909047,7.6039234 6.8927208,7.3333416 6.9163254,6.889975 6.7444791,6.5976268 6.6789493,6.4861463 6.5072065,6.3123191 6.4011984,6.25018 5.9499081,5.9856455 5.3346074,6.1604015 5.0986229,6.6201341 c -0.08402,0.1636838 -0.1107006,0.2974954 -0.099993,0.5015008 0.020844,0.3971377 0.2720839,0.7169379 0.6598273,0.8398868 0.1214824,0.038521 0.4039334,0.038266 0.5315895,-4.794e-4 l 0,6e-7 z"
         id="path3040"
         inkscape:connector-curvature="0"
         transform="translate(34.28125,569.375)" />
    </g>
  </g>
</svg>
