<?xml version="1.0" encoding="UTF-8" standalone="no"?>
<!-- Created with Inkscape (http://www.inkscape.org/) -->

<svg
   xmlns:dc="http://purl.org/dc/elements/1.1/"
   xmlns:cc="http://creativecommons.org/ns#"
   xmlns:rdf="http://www.w3.org/1999/02/22-rdf-syntax-ns#"
   xmlns:svg="http://www.w3.org/2000/svg"
   xmlns="http://www.w3.org/2000/svg"
   xmlns:sodipodi="http://sodipodi.sourceforge.net/DTD/sodipodi-0.dtd"
   xmlns:inkscape="http://www.inkscape.org/namespaces/inkscape"
   width="17.611818"
   height="17.781252"
   id="svg3339"
   version="1.1"
   inkscape:version="0.48.3.1 r9886"
   sodipodi:docname="POI_Toilets.svg"
   inkscape:export-filename="/home/gabi/SEP/JoglEarth/Spezifikation/res/iconsPoi/POI_Toilets.png"
   inkscape:export-xdpi="2556"
   inkscape:export-ydpi="2556">
  <defs
     id="defs3341" />
  <sodipodi:namedview
     id="base"
     pagecolor="#ffffff"
     bordercolor="#666666"
     borderopacity="1.0"
     inkscape:pageopacity="0"
     inkscape:pageshadow="2"
     inkscape:zoom="56.240272"
     inkscape:cx="10.364847"
     inkscape:cy="8.2605048"
     inkscape:document-units="px"
     inkscape:current-layer="g5202"
     showgrid="false"
     fit-margin-top="0"
     fit-margin-left="0"
     fit-margin-right="0"
     fit-margin-bottom="0"
     inkscape:window-width="1306"
     inkscape:window-height="744"
     inkscape:window-x="60"
     inkscape:window-y="24"
     inkscape:window-maximized="1" />
  <metadata
     id="metadata3344">
    <rdf:RDF>
      <cc:Work
         rdf:about="">
        <dc:format>image/svg+xml</dc:format>
        <dc:type
           rdf:resource="http://purl.org/dc/dcmitype/StillImage" />
        <dc:title></dc:title>
      </cc:Work>
    </rdf:RDF>
  </metadata>
  <g
     inkscape:label="Ebene 1"
     inkscape:groupmode="layer"
     id="layer1"
     transform="translate(-341.24097,-523.42468)">
    <g
       id="g5202"
       transform="translate(306.95972,-45.950317)">
      <path
         sodipodi:type="arc"
         style="stroke-width:1.20000005000000010;stroke-miterlimit:10;stroke-dasharray:none;stroke-dashoffset:0;fill:none;stroke:#000000;stroke-opacity:1"
         id="path2987"
         sodipodi:cx="9.6534653"
         sodipodi:cy="9.3654099"
         sodipodi:rx="6.3118811"
         sodipodi:ry="6.5594058"
         d="m 15.965346,9.3654099 c 0,3.6226601 -2.825925,6.5594061 -6.3118807,6.5594061 -3.4859557,0 -6.3118811,-2.936746 -6.3118811,-6.5594061 0,-3.6226598 2.8259254,-6.5594059 6.3118811,-6.5594059 3.4859557,0 6.3118807,2.9367461 6.3118807,6.5594059 z"
         transform="matrix(1.1568627,0,0,1.0943396,31.900648,567.87267)" />
      <g
         transform="matrix(0.02315458,0,0,0.02189825,37.822177,573.86331)"
         id="g1579">
        <g
           id="g1581">
          <path
             inkscape:connector-curvature="0"
             id="path1583"
             d="m 245.23,3.578 v 393.26 H 208.19 V 3.578 l 37.04,-0.002 z" />
          <path
             inkscape:connector-curvature="0"
             id="path1585"
             d="M 226.71,200.21" />
        </g>
        <g
           id="g1587">
          <g
             id="g1589">
            <path
               inkscape:connector-curvature="0"
               id="path1591"
               d="m 91.634,64.828 c 17.906,0 32.416,-14.511 32.416,-32.414 C 124.05,14.514 109.54,0 91.634,0 73.735,0 59.221,14.514 59.221,32.414 c 0,17.903 14.514,32.414 32.413,32.414 z" />
            <path
               inkscape:connector-curvature="0"
               id="path1593"
               d="M 91.634,32.414" />
          </g>
          <path
             inkscape:connector-curvature="0"
             id="path1595"
             d="m 86.842,270.35 0.013,113.39 c 0,20.4 -30.565,20.4 -30.565,0 L 56.277,270.35 H 15.773 L 59.112,120.01 H 52.3 L 26.777,205.89 C 20.702,224.62 -5.015,216.92 0.869,196.87 L 29.207,103.56 C 32.245,92.924 45.701,74.061 68.993,74.061 h 44.587 c 23.09,0 36.61,19.022 40.1,29.499 l 28.35,93.22 c 5.67,20.04 -19.85,28.35 -25.92,8.8 L 130.6,120.01 h -7.38 l 43.8,150.34 h -40.68 v 113.53 c 0,20.26 -30.435,20.15 -30.435,0 V 270.35 h -9.063 z" />
        </g>
        <g
           id="g1597">
          <path
             inkscape:connector-curvature="0"
             id="path1599"
             d="m 322.95,73.94 c -22.81,0 -41.15,18.867 -41.15,42.4 v 100.3 c 0,19.5 28.13,19.5 28.13,0 v -91.71 h 6.66 v 254.12 c 0,26.07 37.47,25.31 37.47,0 V 230.28 h 6.45 v 148.77 c 0,25.31 37.68,26.07 37.68,0 V 124.93 h 6.5 v 91.71 c 0,19.65 27.99,19.65 27.94,0 v -99.7 c 0,-21.7 -16.61,-42.955 -41.65,-42.955 L 322.95,73.94 z" />
          <g
             id="g1601">
            <path
               inkscape:connector-curvature="0"
               id="path1603"
               d="m 357.13,64.828 c 17.91,0 32.42,-14.511 32.42,-32.414 C 389.55,14.514 375.04,0 357.13,0 c -17.9,0 -32.41,14.514 -32.41,32.414 0,17.903 14.51,32.414 32.41,32.414 z" />
            <path
               inkscape:connector-curvature="0"
               id="path1605"
               d="M 357.13,32.414" />
          </g>
        </g>
      </g>
      <path
         style="fill:#ffffff;fill-opacity:1;stroke-width:1.35000002;stroke-miterlimit:10;stroke-dasharray:none"
         d="M 8.3058242,15.224507 C 7.8250476,15.181155 7.3688547,15.10034 6.9551633,14.985235 5.3831607,14.547846 3.9782166,13.490142 3.1240183,12.100979 2.6201151,11.281494 2.3216474,10.409384 2.203849,9.4122839 2.1735974,9.156221 2.1732178,8.3329758 2.2032381,8.0876104 2.3188069,7.1430301 2.5693264,6.3608867 2.99771,5.6072006 3.8190294,4.1621948 5.1312301,3.0969208 6.7306267,2.576735 7.1329144,2.4458954 7.588875,2.3489751 8.092454,2.2872612 c 0.1153339,-0.014134 0.3872008,-0.02258 0.7112341,-0.022095 0.4389655,6.567e-4 0.5720927,0.00721 0.8160596,0.040197 0.5130083,0.069356 0.8467713,0.1465595 1.3186223,0.3050148 1.314167,0.4413184 2.459241,1.2878019 3.268349,2.4160914 0.62281,0.8684998 0.994748,1.8218985 1.152585,2.9544562 0.04448,0.3191867 0.04396,1.2117677 -8.97e-4,1.5380437 -0.128914,0.937638 -0.398987,1.723545 -0.858498,2.49821 -0.819342,1.381284 -2.19764,2.461772 -3.731437,2.925181 -0.666289,0.201307 -1.1517426,0.27462 -1.8758796,0.283292 -0.2787149,0.0033 -0.5427605,0.0028 -0.5867682,-0.0011 l 0,0 z M 5.4147854,13.173954 c 0.030991,-0.01915 0.076046,-0.06923 0.1001222,-0.111271 l 0.043775,-0.07645 0.005,-1.284666 0.005,-1.284667 0.087683,0 0.087683,0 0.00511,1.284667 0.00511,1.284666 0.044452,0.07877 c 0.061362,0.108727 0.1638909,0.161276 0.3146699,0.161276 0.1719817,0 0.2761427,-0.06247 0.3336531,-0.200114 0.023747,-0.05683 0.027349,-0.232987 0.027349,-1.337359 l 0,-1.271902 0.4711926,0 c 0.2591559,0 0.4711926,-0.0033 0.4711926,-0.0074 0,-0.0087 -0.9491858,-3.0944864 -0.9862998,-3.2064471 l -0.02505,-0.075569 0.076174,0 0.076174,0 0.2983342,0.9468304 C 7.0201983,8.5950315 7.1651779,9.0421559 7.1782915,9.0678844 7.235637,9.1803965 7.3853406,9.2556798 7.511955,9.2356777 7.6755136,9.2098395 7.7804045,9.0831518 7.7779395,8.91442 7.7764011,8.8091188 7.1265638,6.770155 7.0474516,6.622403 6.9806854,6.4977087 6.7731149,6.2946998 6.6433145,6.2271475 6.4074508,6.1043961 6.4126981,6.1050453 5.6564772,6.1050453 c -0.6599821,0 -0.6890858,0.00143 -0.8105221,0.039881 -0.2295035,0.072665 -0.46833,0.2693539 -0.5788128,0.4766906 -0.077336,0.1451316 -0.7136344,2.1500984 -0.7226851,2.2771691 -0.012748,0.1789788 0.061212,0.2837692 0.2326412,0.3296195 0.1087206,0.029078 0.2196572,-0.00352 0.3031325,-0.089069 0.071168,-0.072937 0.061721,-0.045995 0.4482435,-1.2784316 l 0.2300313,-0.7334602 0.066697,0 c 0.036683,0 0.066697,0.00304 0.066697,0.00675 0,0.00477 -0.7938066,2.6156882 -0.9885928,3.2515915 -0.00891,0.02909 0.02117,0.03112 0.4625221,0.03112 l 0.4720534,0 0.00478,1.30384 0.00478,1.303839 0.049816,0.06531 c 0.027399,0.03592 0.075407,0.07881 0.1066851,0.09531 0.1187069,0.06264 0.2992795,0.0577 0.4108355,-0.01125 l 0,0 z m 6.1093736,-0.01596 c 0.12407,-0.06 0.189752,-0.151137 0.21349,-0.296226 0.0105,-0.06415 0.0175,-0.746427 0.01756,-1.711407 l 1.03e-4,-1.6047217 0.06223,0 0.06223,0 0,1.6560017 c 0,1.205316 0.0056,1.674746 0.02064,1.724877 0.05128,0.171144 0.21953,0.284875 0.423332,0.286151 0.146064,9.14e-4 0.287919,-0.05791 0.35347,-0.14657 0.09632,-0.130282 0.0916,0.02499 0.0916,-3.015941 l 0,-2.8160296 0.07112,0 0.07112,0 0,1.0510947 0,1.0510945 0.03933,0.069978 c 0.134135,0.2386608 0.523893,0.1930506 0.601447,-0.070382 0.01345,-0.045699 0.01741,-0.4334992 0.01292,-1.2660844 -0.0057,-1.0632178 -0.0099,-1.209942 -0.0361,-1.285495 C 13.443412,6.5389374 13.274067,6.3294083 13.076171,6.2244649 12.849062,6.1040302 12.887154,6.1079747 11.880869,6.100692 10.848147,6.093218 10.796823,6.0973385 10.581736,6.2049929 10.354128,6.3189144 10.190672,6.5021424 10.107792,6.7362656 l -0.04091,0.1155755 -3.76e-4,1.2410975 c -3.12e-4,1.0342823 0.0038,1.2490985 0.02471,1.2891118 0.112966,0.216233 0.424819,0.2406679 0.574101,0.044983 l 0.04982,-0.065301 0.0049,-1.0638014 0.0049,-1.0638016 0.07072,0 0.07072,0 1.78e-4,2.8316006 1.78e-4,2.831601 0.0415,0.08912 c 0.101042,0.21698 0.368235,0.291383 0.616043,0.171543 l -8e-6,0 z m -2.2937304,-4.2880271 0,-4.3207472 -0.4356309,0 -0.4356309,0 0,4.3207472 0,4.3207471 0.4356309,0 0.4356309,0 0,-4.3207471 z M 5.8407503,5.8918724 C 6.2191914,5.811693 6.4708061,5.4553955 6.4079842,5.0886443 6.3809865,4.9310326 6.3075711,4.7939782 6.1950596,4.691149 5.8123119,4.3413392 5.1924334,4.4498236 4.9740438,4.9048377 c -0.050705,0.1056448 -0.055472,0.1308538 -0.055472,0.2933841 0,0.1625303 0.00477,0.1877393 0.055472,0.2933841 0.09773,0.2036202 0.2857353,0.3512563 0.5090907,0.3997765 0.1455027,0.031608 0.2103219,0.031697 0.3576158,4.907e-4 l 0,-7e-7 z M 11.94,5.9009981 c 0.236565,-0.038741 0.465269,-0.2034068 0.555131,-0.3996915 0.203818,-0.4451967 -0.06749,-0.9258958 -0.56952,-1.0090857 -0.402309,-0.066665 -0.810016,0.2178646 -0.8629,0.6021972 -0.05906,0.4292098 0.270632,0.8012683 0.72816,0.8217339 0.02445,0.00109 0.09156,-0.00573 0.149129,-0.015154 z"
         id="path2998"
         inkscape:connector-curvature="0"
         transform="translate(34.28125,569.375)" />
    </g>
  </g>
</svg>
