<?xml version="1.0" encoding="UTF-8" standalone="no"?>
<!-- Created with Inkscape (http://www.inkscape.org/) -->

<svg
   xmlns:dc="http://purl.org/dc/elements/1.1/"
   xmlns:cc="http://creativecommons.org/ns#"
   xmlns:rdf="http://www.w3.org/1999/02/22-rdf-syntax-ns#"
   xmlns:svg="http://www.w3.org/2000/svg"
   xmlns="http://www.w3.org/2000/svg"
   xmlns:sodipodi="http://sodipodi.sourceforge.net/DTD/sodipodi-0.dtd"
   xmlns:inkscape="http://www.inkscape.org/namespaces/inkscape"
   width="17.611818"
   height="17.781252"
   id="svg3339"
   version="1.1"
   inkscape:version="0.48.3.1 r9886"
   sodipodi:docname="POI_Shop.svg"
   inkscape:export-filename="/home/gabi/SEP/JoglEarth/Spezifikation/res/iconsPoi/POI_Shop.png"
   inkscape:export-xdpi="2556"
   inkscape:export-ydpi="2556">
  <defs
     id="defs3341" />
  <sodipodi:namedview
     id="base"
     pagecolor="#ffffff"
     bordercolor="#666666"
     borderopacity="1.0"
     inkscape:pageopacity="0"
     inkscape:pageshadow="2"
     inkscape:zoom="39.767878"
     inkscape:cx="8.7273463"
     inkscape:cy="7.4692726"
     inkscape:document-units="px"
     inkscape:current-layer="g5202"
     showgrid="false"
     fit-margin-top="0"
     fit-margin-left="0"
     fit-margin-right="0"
     fit-margin-bottom="0"
     inkscape:window-width="1306"
     inkscape:window-height="744"
     inkscape:window-x="60"
     inkscape:window-y="24"
     inkscape:window-maximized="1" />
  <metadata
     id="metadata3344">
    <rdf:RDF>
      <cc:Work
         rdf:about="">
        <dc:format>image/svg+xml</dc:format>
        <dc:type
           rdf:resource="http://purl.org/dc/dcmitype/StillImage" />
        <dc:title></dc:title>
      </cc:Work>
    </rdf:RDF>
  </metadata>
  <g
     inkscape:label="Ebene 1"
     inkscape:groupmode="layer"
     id="layer1"
     transform="translate(-341.24097,-523.42468)">
    <g
       id="g5202"
       transform="translate(306.95972,-45.950317)">
      <path
         sodipodi:type="arc"
         style="stroke-width:1.20000005000000010;stroke-miterlimit:10;stroke-dasharray:none;stroke-dashoffset:0;fill:none;stroke:#000000;stroke-opacity:1"
         id="path2987"
         sodipodi:cx="9.6534653"
         sodipodi:cy="9.3654099"
         sodipodi:rx="6.3118811"
         sodipodi:ry="6.5594058"
         d="m 15.965346,9.3654099 c 0,3.6226601 -2.825925,6.5594061 -6.3118807,6.5594061 -3.4859557,0 -6.3118811,-2.936746 -6.3118811,-6.5594061 0,-3.6226598 2.8259254,-6.5594059 6.3118811,-6.5594059 3.4859557,0 6.3118807,2.9367461 6.3118807,6.5594059 z"
         transform="matrix(1.1568627,0,0,1.0943396,31.900648,567.87267)" />
      <g
         style="fill-rule:evenodd"
         transform="matrix(0.03036131,0,0,0.03126088,36.187296,570.33445)"
         id="g3856">
        <path
           inkscape:connector-curvature="0"
           d="m 342.19,335.38 c 13.553,0 24.553,10.999 24.553,24.552 0,13.553 -11,24.552 -24.553,24.552 -13.553,0 -24.552,-10.999 -24.552,-24.552 0,-13.553 11,-24.552 24.552,-24.552"
           id="path101" />
        <path
           style="fill:#ffffff"
           inkscape:connector-curvature="0"
           d="m 342.19,345.93 c 7.73,0 14.004,6.273 14.004,14.004 0,7.731 -6.273,14.004 -14.004,14.004 -7.729,0 -14.004,-6.273 -14.004,-14.004 0,-7.731 6.275,-14.004 14.004,-14.004"
           id="path103" />
        <path
           inkscape:connector-curvature="0"
           d="m 124.51,335.38 c 13.553,0 24.553,10.999 24.553,24.552 0,13.553 -11,24.552 -24.553,24.552 -13.553,0 -24.552,-10.999 -24.552,-24.552 0,-13.553 10.999,-24.552 24.552,-24.552"
           id="path105" />
        <path
           style="fill:#ffffff"
           inkscape:connector-curvature="0"
           d="m 124.51,345.93 c 7.73,0 14.004,6.273 14.004,14.004 0,7.731 -6.273,14.004 -14.004,14.004 -7.731,0 -14.004,-6.273 -14.004,-14.004 0,-7.731 6.273,-14.004 14.004,-14.004"
           id="path107" />
        <path
           inkscape:connector-curvature="0"
           d="m 73.666,351.1 41.292,-27.036 233.6,0.108 -34.704,-27.828 -229.14,0.252 -1.512,-131.58 277.78,-39.96 1.656,10.152 -18.899,5.508 -16.488,155.88 33.66,27.468 v 10.296 l -246.92,0.469 -34.309,24.659 -6.011,-8.388 z"
           id="path109" />
        <path
           style="fill:#ffffff"
           inkscape:connector-curvature="0"
           d="m 333.51,139.35 -239.5,35.02 1.004,109.95 222.7,-1.05 15.8,-143.92 z"
           id="path111" />
        <path
           inkscape:connector-curvature="0"
           d="m 121.83,165.45 h 7.884 V 289.11 H 121.83 V 165.45 z"
           id="path113" />
        <path
           inkscape:connector-curvature="0"
           d="m 176.44,156.52 h 7.885 V 289.11 H 176.44 V 156.52 z"
           id="path115" />
        <path
           inkscape:connector-curvature="0"
           d="m 229.33,148.96 h 7.92 v 140.15 h -7.92 V 148.96 z"
           id="path117" />
        <path
           inkscape:connector-curvature="0"
           d="m 285.67,144.13 h 7.92 V 289.1 h -7.92 V 144.13 z"
           id="path119" />
        <path
           inkscape:connector-curvature="0"
           d="M 326.89,245.33 H 90.41 v 7.884 h 236.48 v -7.884 z"
           id="path121" />
        <path
           inkscape:connector-curvature="0"
           d="M 330.35,199.65 H 90.41 v 7.884 h 239.94 v -7.884 z"
           id="path123" />
        <path
           inkscape:connector-curvature="0"
           d="m 368.11,113.33 c 8.148,0 14.761,6.612 14.761,14.76 0,8.148 -6.612,14.76 -14.761,14.76 -8.147,0 -14.76,-6.612 -14.76,-14.76 0,-8.148 6.613,-14.76 14.76,-14.76"
           id="path125" />
      </g>
      <path
         style="fill:#ffffff;fill-opacity:1;stroke-width:1.35000002;stroke-miterlimit:10;stroke-dasharray:none"
         d="M 7.9779978,15.187419 C 6.7474526,15.035394 5.6050482,14.55633 4.6131862,13.776394 4.2753861,13.51077 3.7514799,12.972378 3.4804454,12.612333 1.9897775,10.632114 1.758416,8.0461483 2.8750801,5.8460634 3.3714568,4.8680871 4.146696,4.0016009 5.081232,3.3802435 6.2003352,2.6361705 7.4156178,2.2691326 8.7700944,2.2661386 c 0.8632163,-0.00191 1.5992106,0.1289924 2.3894726,0.42498 0.963855,0.3610057 1.898021,0.9981082 2.570978,1.7534099 0.900522,1.0107117 1.41605,2.1175044 1.619102,3.4760735 0.05209,0.3484949 0.04419,1.3565708 -0.01359,1.7350687 -0.1653,1.0827813 -0.577172,2.0657893 -1.232704,2.9420733 -0.246091,0.328961 -0.84244,0.944944 -1.146458,1.184201 -0.975419,0.76764 -2.171816,1.263767 -3.3916323,1.406456 -0.3863009,0.04519 -1.2177071,0.04467 -1.5872609,-9.83e-4 l 0,1e-6 z M 5.952078,12.93568 c 0.1680799,-0.06289 0.3335896,-0.217079 0.4171508,-0.388626 0.089222,-0.183168 0.087862,-0.473612 -0.00312,-0.665969 -0.099995,-0.211415 -0.2936573,-0.378089 -0.4942657,-0.425386 -0.056028,-0.01321 1.2084185,-0.02252 3.124564,-0.02302 2.6824523,-6.91e-4 3.1984533,0.0046 3.0972823,0.0318 -0.162897,0.04378 -0.313952,0.153624 -0.412278,0.299783 -0.101226,0.150471 -0.13238,0.260682 -0.132533,0.468862 -3.85e-4,0.521506 0.52261,0.888518 1.006747,0.706487 0.504362,-0.189637 0.656778,-0.878464 0.28058,-1.268056 -0.102031,-0.105665 -0.191053,-0.159392 -0.344515,-0.207926 -0.09643,-0.0305 -0.09045,-0.03188 0.144589,-0.03349 l 0.245173,-0.0017 0,-0.171921 0,-0.171922 -0.515605,-0.432732 -0.515604,-0.432733 0.01347,-0.09315 c 0.0074,-0.05123 0.114827,-1.088924 0.238715,-2.3059867 0.123887,-1.2170626 0.232097,-2.2665873 0.240466,-2.332277 l 0.01522,-0.1194356 0.17072,-0.051855 0.170721,-0.051855 0.115177,0.081184 c 0.09876,0.069611 0.136633,0.081184 0.265691,0.081184 0.190309,0 0.323554,-0.079973 0.401494,-0.2409752 0.172244,-0.3558098 -0.110872,-0.7575102 -0.48449,-0.6874192 -0.137883,0.025867 -0.24868,0.1162805 -0.317134,0.2587904 -0.05054,0.1052201 -0.07765,0.1336702 -0.138302,0.145138 -0.108358,0.020488 -8.0540951,1.195024 -8.0843401,1.195024 -0.029998,0 -0.032239,0.7203472 -0.00851,2.7346191 l 0.016666,1.4144583 3.4862026,0 3.486203,0 0.496307,0.408621 0.496307,0.408621 -3.521301,0.0064 -3.5213011,0.0064 -0.622488,0.41909 c -0.3423686,0.230499 -0.6272002,0.422823 -0.6329592,0.427386 -0.012114,0.0096 0.1738369,0.284916 0.1924351,0.284916 0.00682,0 0.2488641,-0.175393 0.5378863,-0.389762 0.4888342,-0.36257 0.5329291,-0.389643 0.6320541,-0.388065 l 0.1065589,0.0017 -0.1183787,0.03186 c -0.4231566,0.113901 -0.6579899,0.599248 -0.4974953,1.028208 0.1493215,0.399098 0.5696532,0.592139 0.9662439,0.443755 l 0,0 z"
         id="path2998"
         inkscape:connector-curvature="0"
         transform="translate(34.28125,569.375)" />
    </g>
  </g>
</svg>
