<?xml version="1.0" encoding="UTF-8" standalone="no"?>
<!-- Created with Inkscape (http://www.inkscape.org/) -->

<svg
   xmlns:dc="http://purl.org/dc/elements/1.1/"
   xmlns:cc="http://creativecommons.org/ns#"
   xmlns:rdf="http://www.w3.org/1999/02/22-rdf-syntax-ns#"
   xmlns:svg="http://www.w3.org/2000/svg"
   xmlns="http://www.w3.org/2000/svg"
   xmlns:xlink="http://www.w3.org/1999/xlink"
   xmlns:sodipodi="http://sodipodi.sourceforge.net/DTD/sodipodi-0.dtd"
   xmlns:inkscape="http://www.inkscape.org/namespaces/inkscape"
   width="17.611818"
   height="17.781252"
   id="svg3339"
   version="1.1"
   inkscape:version="0.48.3.1 r9886"
   sodipodi:docname="POI_hiking_cycling.svg"
   inkscape:export-filename="/home/gabi/SEP/JoglEarth/Spezifikation/res/iconsPoi/POI_HikingCycling.png"
   inkscape:export-xdpi="2556"
   inkscape:export-ydpi="2556">
  <defs
     id="defs3341">
    <filter
       id="imagebot_77"
       color-interpolation-filters="sRGB">
      <feGaussianBlur
         id="imagebot_83"
         stdDeviation="2.68359" />
    </filter>
    <linearGradient
       gradientUnits="userSpaceOnUse"
       gradientTransform="scale(0.93314657,1.071643)"
       id="imagebot_75"
       y2="610.96385"
       xlink:href="#imagebot_82"
       y1="706.61178"
       x2="719.02793"
       x1="746.17556" />
    <linearGradient
       id="imagebot_82">
      <stop
         id="imagebot_104"
         stop-color="#dfdfdf"
         offset="0" />
      <stop
         id="imagebot_103"
         stop-color="#fff"
         offset="1" />
    </linearGradient>
    <linearGradient
       gradientUnits="userSpaceOnUse"
       gradientTransform="scale(0.93313895,1.0716518)"
       id="imagebot_68"
       y2="692.02572"
       xlink:href="#imagebot_82"
       y1="619.24016"
       x2="732.20632"
       x1="716.39903" />
    <linearGradient
       id="linearGradient5066">
      <stop
         id="stop5068"
         stop-color="#dfdfdf"
         offset="0" />
      <stop
         id="stop5070"
         stop-color="#fff"
         offset="1" />
    </linearGradient>
    <filter
       id="imagebot_50"
       color-interpolation-filters="sRGB">
      <feGaussianBlur
         id="imagebot_84"
         stdDeviation="2.08236" />
    </filter>
    <linearGradient
       gradientUnits="userSpaceOnUse"
       gradientTransform="scale(0.93594535,1.0684385)"
       id="imagebot_48"
       x2="737.16982"
       y1="615.75739"
       x1="726.47682"
       y2="623.91586">
      <stop
         id="imagebot_91"
         stop-color="#9b6a06"
         offset="0" />
      <stop
         id="imagebot_90"
         stop-color="#b38e29"
         offset=".10284" />
      <stop
         id="imagebot_89"
         stop-color="#faf892"
         offset=".25018" />
      <stop
         id="imagebot_88"
         stop-color="#ddba32"
         offset=".51725" />
      <stop
         id="imagebot_87"
         stop-color="#cf9e08"
         offset=".6932" />
      <stop
         id="imagebot_86"
         stop-color="#976400"
         offset=".73575" />
      <stop
         id="imagebot_85"
         stop-color="#976400"
         offset="1" />
    </linearGradient>
    <linearGradient
       gradientUnits="userSpaceOnUse"
       gradientTransform="scale(0.95014084,1.0524755)"
       id="imagebot_46"
       x2="649.9041"
       y1="707.64765"
       x1="648.2462"
       y2="708.58134">
      <stop
         id="imagebot_94"
         stop-color="#a07100"
         offset="0" />
      <stop
         id="imagebot_93"
         stop-color="#f4f300"
         offset=".43039" />
      <stop
         id="imagebot_92"
         stop-color="#9e700b"
         offset="1" />
    </linearGradient>
    <linearGradient
       gradientUnits="userSpaceOnUse"
       gradientTransform="scale(1.0082381,0.99182919)"
       id="imagebot_44"
       x2="617.53384"
       y1="745.21991"
       x1="614.02773"
       y2="748.42962">
      <stop
         id="imagebot_97"
         stop-color="#a07100"
         offset="0" />
      <stop
         id="imagebot_96"
         stop-color="#f6f600"
         offset=".38158" />
      <stop
         id="imagebot_95"
         stop-color="#9e700b"
         offset="1" />
    </linearGradient>
    <linearGradient
       gradientUnits="userSpaceOnUse"
       gradientTransform="scale(0.92919642,1.0761987)"
       id="imagebot_42"
       x2="673.2575"
       y1="679.81013"
       x1="684.67244"
       y2="671.43373">
      <stop
         id="imagebot_102"
         stop-color="#375a93"
         offset="0" />
      <stop
         id="imagebot_101"
         stop-color="#5c9eda"
         offset=".36961" />
      <stop
         id="imagebot_100"
         stop-color="#97cafd"
         offset=".53886" />
      <stop
         id="imagebot_99"
         stop-color="#8bbff3"
         offset=".77808" />
      <stop
         id="imagebot_98"
         stop-color="#2a629a"
         offset="1" />
    </linearGradient>
    <filter
       id="filter5292"
       inkscape:label="Desaturate"
       x="0"
       y="0"
       width="1"
       height="1"
       inkscape:menu="Color"
       inkscape:menu-tooltip="Render in shades of gray by reducing saturation to zero"
       color-interpolation-filters="sRGB">
      <feColorMatrix
         id="feColorMatrix5294"
         type="saturate"
         values="0"
         result="fbSourceGraphic" />
      <feColorMatrix
         result="fbSourceGraphicAlpha"
         in="fbSourceGraphic"
         values="0 0 0 -1 0 0 0 0 -1 0 0 0 0 -1 0 0 0 0 1 0"
         id="feColorMatrix5308" />
      <feColorMatrix
         id="feColorMatrix5310"
         type="saturate"
         values="0"
         in="fbSourceGraphic" />
    </filter>
    <filter
       id="filter5296"
       inkscape:label="Desaturate"
       x="0"
       y="0"
       width="1"
       height="1"
       inkscape:menu="Color"
       inkscape:menu-tooltip="Render in shades of gray by reducing saturation to zero"
       color-interpolation-filters="sRGB">
      <feColorMatrix
         id="feColorMatrix5298"
         type="saturate"
         values="0" />
    </filter>
    <filter
       id="filter5300"
       inkscape:label="Desaturate"
       x="0"
       y="0"
       width="1"
       height="1"
       inkscape:menu="Color"
       inkscape:menu-tooltip="Render in shades of gray by reducing saturation to zero"
       color-interpolation-filters="sRGB">
      <feColorMatrix
         id="feColorMatrix5302"
         type="saturate"
         values="0" />
    </filter>
    <filter
       id="filter5304"
       inkscape:label="Desaturate"
       x="0"
       y="0"
       width="1"
       height="1"
       inkscape:menu="Color"
       inkscape:menu-tooltip="Render in shades of gray by reducing saturation to zero"
       color-interpolation-filters="sRGB">
      <feColorMatrix
         id="feColorMatrix5306"
         type="saturate"
         values="0" />
    </filter>
  </defs>
  <sodipodi:namedview
     id="base"
     pagecolor="#ffffff"
     bordercolor="#666666"
     borderopacity="1.0"
     inkscape:pageopacity="0"
     inkscape:pageshadow="2"
     inkscape:zoom="44.43"
     inkscape:cx="9.4014235"
     inkscape:cy="8.5592722"
     inkscape:document-units="px"
     inkscape:current-layer="g5202"
     showgrid="false"
     fit-margin-top="0"
     fit-margin-left="0"
     fit-margin-right="0"
     fit-margin-bottom="0"
     inkscape:window-width="1306"
     inkscape:window-height="744"
     inkscape:window-x="60"
     inkscape:window-y="24"
     inkscape:window-maximized="1" />
  <metadata
     id="metadata3344">
    <rdf:RDF>
      <cc:Work
         rdf:about="">
        <dc:format>image/svg+xml</dc:format>
        <dc:type
           rdf:resource="http://purl.org/dc/dcmitype/StillImage" />
        <dc:title></dc:title>
      </cc:Work>
    </rdf:RDF>
  </metadata>
  <g
     inkscape:label="Ebene 1"
     inkscape:groupmode="layer"
     id="layer1"
     transform="translate(-341.24097,-523.42468)">
    <g
       id="g5202"
       transform="translate(306.95972,-45.950317)">
      <path
         sodipodi:type="arc"
         style="stroke-width:1.20000005000000010;stroke-miterlimit:10;stroke-dasharray:none;stroke-dashoffset:0;fill:none;stroke:#000000;stroke-opacity:1"
         id="path2987"
         sodipodi:cx="9.6534653"
         sodipodi:cy="9.3654099"
         sodipodi:rx="6.3118811"
         sodipodi:ry="6.5594058"
         d="m 15.965346,9.3654099 c 0,3.6226601 -2.825925,6.5594061 -6.3118807,6.5594061 -3.4859557,0 -6.3118811,-2.936746 -6.3118811,-6.5594061 0,-3.6226598 2.8259254,-6.5594059 6.3118811,-6.5594059 3.4859557,0 6.3118807,2.9367461 6.3118807,6.5594059 z"
         transform="matrix(1.1568627,0,0,1.0943396,31.900648,567.87267)" />
      <circle
         r="0"
         cx="277.5"
         cy="-63"
         label="Layer 1"
         fill-opacity="null"
         stroke-opacity="null"
         id="imagebot_36"
         sodipodi:cx="277.5"
         sodipodi:cy="-63"
         sodipodi:rx="0"
         sodipodi:ry="0"
         style="stroke-linecap:round;stroke-linejoin:round;stroke-dasharray:none"
         transform="matrix(0.02766026,0,0,0.02766026,37.834693,572.30803)" />
      <circle
         r="0"
         cx="-80.5"
         cy="-41"
         label="Layer 1"
         fill-opacity="null"
         stroke-opacity="null"
         id="imagebot_34"
         sodipodi:cx="-80.5"
         sodipodi:cy="-41"
         sodipodi:rx="0"
         sodipodi:ry="0"
         style="stroke-linecap:round;stroke-linejoin:round;stroke-dasharray:none"
         transform="matrix(0.02766026,0,0,0.02766026,37.834693,572.30803)" />
      <circle
         r="0"
         cx="-82.5"
         cy="33"
         label="Layer 1"
         fill-opacity="null"
         stroke-opacity="null"
         id="imagebot_33"
         sodipodi:cx="-82.5"
         sodipodi:cy="33"
         sodipodi:rx="0"
         sodipodi:ry="0"
         style="stroke-linecap:round;stroke-linejoin:round;stroke-dasharray:none"
         transform="matrix(0.02766026,0,0,0.02766026,37.834693,572.30803)" />
      <circle
         r="0"
         cx="149.5"
         cy="65"
         label="Layer 1"
         fill-opacity="null"
         stroke-opacity="null"
         id="imagebot_32"
         sodipodi:cx="149.5"
         sodipodi:cy="65"
         sodipodi:rx="0"
         sodipodi:ry="0"
         style="stroke-linecap:round;stroke-linejoin:round;stroke-dasharray:none"
         transform="matrix(0.02766026,0,0,0.02766026,37.834693,572.30803)" />
      <circle
         r="0"
         cx="76.5"
         cy="114"
         label="Layer 1"
         fill-opacity="null"
         stroke-opacity="null"
         id="imagebot_2"
         sodipodi:cx="76.5"
         sodipodi:cy="114"
         sodipodi:rx="0"
         sodipodi:ry="0"
         style="stroke-linecap:round;stroke-linejoin:round;stroke-dasharray:none"
         transform="matrix(0.02766026,0,0,0.02766026,37.834693,572.30803)" />
      <g
         id="layer1-4"
         transform="matrix(0.02123532,0,0,0.02123532,40.905686,572.59605)">
        <path
           inkscape:connector-curvature="0"
           id="path3558"
           d="m 208.07,89.705 c -1.02,0.111 -2.07,0.606 -3.25,1.642 -2.24,2.453 -4.16,5.055 -5.5,8.14 -2.42,5.063 -4.68,10.213 -7.08,15.293 -3.11,6.83 -6.33,13.66 -10.4,19.99 -3.28,4.82 -6.74,9.53 -11.12,13.43 -1.68,1.66 -3.99,3.36 -4.91,5.38 -0.69,1.5 1.92,3.96 3.4,3.21 2.06,-1.04 3.64,-3.37 5.22,-5.16 3.66,-4.88 6.42,-10.36 9.26,-15.74 3.57,-6.67 7.19,-13.35 10.88,-19.95 2.57,-4.92 5.54,-9.59 8.75,-14.12 1.29,-2.226 3.17,-3.751 5.15,-5.243 1.52,1.894 2.23,4.393 3.11,6.643 1.24,3.22 2.25,6.51 3.17,9.84 0.87,3.31 2.88,4.66 5.85,5.84 1.91,0.39 3.72,-0.16 5.56,-0.61 0.2,-0.17 0.22,-0.18 0.29,-0.25 -0.11,0.11 -0.12,0.18 0.42,-0.17 4.7,2.58 8.56,6.26 12.23,10.12 4.47,4.99 7.87,10.73 10.83,16.71 1.35,2.32 2.19,4.8 2.75,7.34 -0.5,0.09 -1.01,0.19 -1.51,0.29 -3.85,1.23 -4.11,4.09 -3.27,7.52 0.48,1.59 1.05,3.14 1.7,4.65 -0.87,-0.32 -1.72,-0.65 -2.59,-0.97 -2.29,-0.73 -4.63,-0.81 -7,-0.78 -2.59,-0.03 -4.49,1.02 -6.48,2.52 -0.82,1.01 -1.76,1.89 -2.69,2.78 -0.98,0.6 -2.17,0.4 -3.28,0.45 -3.32,-0.41 -6.63,-0.58 -9.96,-0.52 -4.02,1.38 -4.97,4.92 -6.53,8.5 -1.38,3.58 -3.7,6.25 -6.53,8.7 -2.04,1.52 -4.3,1.47 -6.65,1.6 -1.9,-0.49 -2.53,-1.99 -3.55,-3.48 -1.1,-2.1 -1.83,-4.36 -2.66,-6.57 -0.95,-3.12 -2.91,-5.39 -5.14,-7.64 -3.15,-2.42 -6.56,-2.44 -10.31,-2.34 -2.54,0.28 -5.06,0.67 -7.6,0.92 0.03,-0.48 -1.26,-1.66 -1.65,-2.15 -1.71,-1.75 -3.63,-1.96 -5.92,-2.12 -0.04,0 -0.06,0.01 -0.1,0.01 h -0.03 c -0.89,-0.15 -1.66,-0.08 -2.04,0.28 -1.27,0.41 -2.03,1.27 -3.1,2.7 -0.08,0.1 -0.05,0.24 0.03,0.34 0.5,0.59 0.96,1.1 1.43,1.51 -0.44,0.78 -0.9,1.54 -1.33,2.28 -2.99,4.87 -6.7,9.23 -10.51,13.47 -5.13,5.72 -10.59,11.1 -15.93,16.63 -5.35,5.66 -11,11.07 -16.56,16.54 -5.5,5.17 -10.96,10.39 -16.512,15.52 -5.327,5.26 -10.855,10.29 -16.379,15.33 -5.885,5.65 -12.097,10.9 -18.551,15.88 -5.122,3.5 -10.353,6.86 -15.7,10 -7.457,7.87 1.775,11.34 9.246,9.31 8.984,-3.14 18.095,-5.62 27.478,-7.2 4.719,-0.7 9.481,-1.28 14.225,-1.29 -1.942,3.69 -4.079,7.26 -5.808,11.07 -3.044,6.78 -0.337,12.34 7.064,13.53 6.297,-0.99 12.367,-3.03 18.657,-4.19 5,-0.68 10.04,-0.92 15.07,-1.36 5.54,-0.62 11.08,-1.26 16.66,-1.43 2.66,-0.32 5.19,-0.1 7.57,0.53 -0.11,0.24 -0.19,0.42 -0.33,0.73 -2.62,4.12 -5.38,7.91 -5.23,12.95 2.06,6.63 7.9,5.09 12.96,3.28 4.04,-1.62 8.24,-2.4 12.54,-2.62 1.21,0.6 1.53,1.18 2.38,2.48 2.47,3.43 5.88,5.74 9.47,7.86 3.21,1.87 6.62,2.81 10.15,3.24 -0.62,0.25 -1.22,0.5 -1.83,0.76 -2.9,1.75 -5.04,3.8 -8.19,5.04 -0.12,0.05 0.01,0.38 0.13,0.33 3.11,-1.22 5.97,-1.18 9.29,-1.57 7.03,-1.6 14.03,-3.45 21.24,-4.13 5.97,-0.63 12.18,-0.21 17.88,-2.32 4.54,-2.34 5.82,-5.74 4.02,-10.49 -0.95,-2.86 -1.9,-5.2 0.75,-7.03 2.81,-2.03 6.02,-3.36 9.49,-4.05 9.51,-2.58 19.08,-4.89 28.82,-6.46 11.82,-1.8 23.79,-3.05 35.65,-0.76 1.72,0.26 4.36,0.65 6.77,1.22 0.83,1.76 2.08,2.87 3.5,4.14 2.09,1.45 4.38,1.4 6.79,1.47 6.89,-0.24 8.71,-10.38 3.32,-14.29 -0.69,-0.15 -1.38,-0.26 -2.08,-0.34 0.03,0.03 0.07,0.05 0.1,0.08 -0.1,-0.04 -0.19,-0.08 -0.29,-0.12 -1.55,-0.17 -3.11,-0.19 -4.7,-0.12 0.53,-0.41 1.24,-0.65 2.13,-0.67 0.32,0.08 0.65,0.1 0.99,0.14 -0.08,-0.04 -0.16,-0.08 -0.24,-0.13 -2.23,-1.4 -4.45,-2.8 -6.29,-4.72 -3.54,-3.63 -6.79,-7.44 -10.06,-11.3 -4.86,-6.33 -9.77,-12.66 -13.62,-19.7 -5.49,-9.07 -10.8,-18.23 -15.99,-27.47 -5.06,-9.37 -9.89,-18.87 -15.16,-28.12 -3.86,-6.88 -7.96,-13.62 -11.81,-20.5 -1.66,-3.14 -3.03,-6.44 -3.47,-9.97 0.48,-0.12 0.93,-0.25 1.4,-0.4 3.15,-1.7 4.95,-3.87 3.33,-7.53 -2.25,-3.02 -4.94,-5.66 -7.22,-8.68 -4.1,-5.37 -7.89,-10.97 -12.02,-16.33 -3.38,-4.35 -6.96,-8.55 -9.9,-13.22 -2.03,-2.03 -3.5,-3.4 -6.57,-2.68 -0.65,0.14 -1.26,0.41 -1.94,0.43 -0.53,-0.26 -1.38,-0.23 -1.59,-0.77 -1.72,-2.83 -3.19,-5.76 -4.15,-8.95 -0.93,-3.301 -1.57,-6.753 -3.14,-9.816 -1.86,-1.338 -3.47,-2.233 -5.15,-2.049 z" />
        <path
           inkscape:connector-curvature="0"
           id="path3556"
           d="m 321.03,294.23 c 0.47,0.32 0.99,0.56 1.5,0.81 0.07,0.02 0.13,0.05 0.19,0.06 -0.46,-0.5 -1.07,-0.71 -1.69,-0.87 z" />
        <path
           inkscape:connector-curvature="0"
           id="path3554"
           d="m 218.97,96.729 c 1.16,0.223 0.5,0.126 -0.09,0.063 0.03,-0.019 0.06,-0.043 0.09,-0.063 z" />
        <path
           inkscape:connector-curvature="0"
           id="path3552"
           d="m 256.57,157.89 c 0.03,0.43 0.09,0.85 0.12,1.28 -0.82,0.01 -0.54,-0.64 -0.12,-1.28 z" />
        <path
           inkscape:connector-curvature="0"
           id="path3548"
           d="m 44.128,260.73 c 0.059,0.56 -0.175,1.09 -1.094,1.44 0.356,-0.49 0.722,-0.97 1.094,-1.44 z" />
        <path
           inkscape:connector-curvature="0"
           id="path3537"
           d="m 91.909,262.54 c 0.498,0.09 1.005,0.18 1.5,0.28 -0.521,0.21 -1.025,0.04 -1.5,-0.28 z" />
        <path
           inkscape:connector-curvature="0"
           id="path3562"
           d="m 272.92,168.84 c 0.66,-1.33 1.48,-2.64 2.25,-3.96 1.16,-1.94 2.82,-3.47 4.45,-5 2.73,-2.34 5.65,-4.44 8.57,-6.53 2.88,-2.05 6.04,-3.51 9.31,-4.79 3.25,-1.17 6.39,-0.61 9.67,-0.03 3.21,0.72 6.21,2.13 9.19,3.47 3.11,1.65 6.31,3.08 9.53,4.48 3.59,1.5 7.36,2.38 11.14,3.21 3.55,0.76 7.18,1.15 10.78,1.59 3.23,0.26 6.46,0.54 9.69,0.84 3.44,0.37 6.78,1.24 10.13,2.06 3.21,0.74 6.25,2 9.24,3.35 2.33,0.95 4.34,2.37 6.31,3.9 1.49,1.01 2.19,2.46 2.99,3.97 0.29,2.59 -0.72,3.26 -3.01,4 -2.81,0.12 -5.56,-0.55 -8.31,-1.06 -3.22,-0.54 -6.42,-1.15 -9.66,-1.61 -2.1,-0.26 -4.32,-0.41 -6.35,-0.48 -0.96,1.36 -2.89,1.84 -4.4,2.54 -3.05,1.79 -6.28,2.52 -9.71,3.04 -4.29,0.03 -8.32,-1.4 -12.33,-2.75 -2.8,-0.94 -5.61,-1.88 -8.47,-2.62 -1.71,-0.29 -3.37,0.02 -5.06,0.25 -2.1,0.55 -4.22,1.01 -6.37,1.39 -2.87,0.61 -5.73,0.3 -8.59,-0.15 -2.06,-0.67 -4.18,-0.79 -6.31,-1.02 -2.03,-0.09 -4.06,-0.29 -6.1,-0.43 -2.35,-0.12 -4.71,-0.11 -7.06,-0.09 -2.24,-0.26 -4.5,-0.39 -6.75,-0.49 -1.8,-0.08 -3.5,-0.78 -5.19,-1.34 -1.32,-0.52 -1.52,-1.59 -2.24,-2.66 -0.07,-0.1 -0.05,-0.27 0.05,-0.35 0.96,-0.79 1.47,-1.77 2.84,-1.93 1.67,-0.16 3.37,-0.42 5.04,-0.23 2.07,0.17 4.14,0.34 6.21,0 2.24,-0.04 4.48,-0.11 6.69,-0.49 2.01,-0.36 4.02,-0.79 6.04,-1.11 2.39,-0.3 4.75,-0.76 7.14,-1.11 1.75,-0.27 3.52,-0.46 5.21,-1.03 2.31,-0.8 4.6,-1.73 7.03,-2.15 3.55,-0.51 7.08,-0.86 10.62,0.09 3.26,1.03 6.45,2.19 9.57,3.62 2.47,0.9 4.92,1.91 7.58,2.05 2.25,0.09 4.41,0.05 6.59,-0.69 3.27,-0.78 6.49,-1.86 9.84,-0.92 2.24,1.1 4.38,2.29 6.32,3.88 2.71,1.62 5.45,3.17 8.45,4.22 2.3,0.57 4.44,1.16 6.76,0.28 0.06,0.09 0.21,0.16 0.19,0.27 -0.35,-0.9 -0.31,-2.01 -1.32,-2.69 -1.59,-1.58 -3.14,-3.19 -5.18,-4.22 -2.82,-1.4 -5.62,-2.87 -8.71,-3.59 -3.28,-0.74 -6.58,-1.45 -9.93,-1.78 -3.24,-0.33 -6.48,-0.53 -9.71,-0.98 -3.63,-0.56 -7.22,-1.29 -10.83,-1.96 -3.89,-0.8 -7.81,-1.53 -11.48,-3.07 -3.31,-1.26 -6.59,-2.56 -9.83,-3.98 -2.85,-1.2 -5.67,-2.49 -8.72,-3.07 -2.81,-0.34 -5.6,-0.57 -8.38,0.22 -3.08,1.03 -6.14,2.15 -8.82,4.08 -2.75,2.01 -5.45,4.07 -7.5,6.85 -1.23,1.58 -2.48,3.14 -3.57,4.81 -0.74,1.18 -1.53,2.4 -2.17,3.58 -0.63,1.16 -3.95,-0.49 -3.36,-1.68 z" />
        <path
           inkscape:connector-curvature="0"
           id="path3564"
           d="m 26.186,157.28 c 1.656,-0.9 3.274,-1.91 4.929,-2.83 3.071,-1.47 5.979,-3.25 8.891,-5 2.884,-1.79 5.916,-3.29 8.945,-4.81 2.782,-1.4 5.73,-2.07 8.757,-2.57 2.989,-0.02 5.51,1.41 8.103,2.7 2.262,1.32 4.692,2.27 7.141,3.17 2.747,0.8 5.568,0.76 8.395,0.74 2.677,-0.3 5.303,-0.24 7.971,0.04 3.056,0.62 5.999,1.72 8.961,2.68 3.781,1.13 7.601,2.15 11.431,3.11 3.61,0.93 7.29,1.51 10.96,2.13 3.72,0.64 7.48,0.64 11.24,0.7 3.29,0.13 6.52,-0.28 9.74,-0.91 1.11,-0.17 2.07,-0.9 3.03,-1.48 0.71,1.51 0.11,3.39 0.65,4.97 -1.93,0.81 -3.8,1.73 -5.72,2.54 -3.13,1.49 -6.57,1.98 -9.94,2.56 -4.71,0.9 -9.53,0.74 -14.29,0.52 -3.19,-0.31 -6.25,-0.39 -9.37,0.24 -2.57,0.81 -4.98,2.02 -7.407,3.16 -4.287,1.76 -8.771,1.46 -13.28,1.13 -4.946,-0.42 -9.896,-0.74 -14.845,-1.12 -3.036,-0.22 -6.043,-0.38 -9.081,-0.16 -1.96,0.34 -3.787,1.1 -5.641,1.78 -2.143,1.13 -4.487,1.78 -6.814,2.38 -2.191,0.62 -4.182,0.22 -6.324,-0.24 -1.312,-0.33 -2.595,-0.74 -3.883,-1.13 -1.47,-0.23 -2.786,-0.97 -4.133,-1.53 -0.803,-1.02 -2.152,-1.18 -3.358,-1.57 -1.429,-0.91 -3.153,-1.05 -4.782,-1.37 -2.021,-0.17 -3.061,-1.69 -4.741,-2.68 0.41,-0.9 -1.42,-0.84 -1.573,-0.93 -0.108,-0.06 -0.11,-0.31 0.008,-0.35 0.624,-0.24 1.491,0.22 1.872,-0.72 1.91,-0.29 3.474,-1.27 5.388,-0.73 1.84,0.3 3.688,0.73 5.552,0.77 1.437,0.31 2.868,0.85 4.346,0.69 0.796,0.15 1.511,0.58 2.349,0.45 0.869,-0.24 1.801,-0.39 2.613,-0.82 1.047,-0.56 2.043,-1.16 3.183,-1.5 1.82,-0.74 3.604,-1.56 5.441,-2.26 2.904,-1.13 5.804,-2.31 8.924,-2.72 3.993,-0.35 7.93,-0.44 11.894,0.42 4.595,0.59 9.187,1.2 13.833,1.16 2.968,-0.2 5.968,-0.34 8.877,-0.99 3.294,-0.81 6.492,-1.96 9.822,-2.66 4.2,-0.23 8.27,-0.06 12.34,1.22 4.06,0.82 8.12,1.55 12.28,1.49 3.09,-0.14 6.19,-0.34 9.29,-0.3 1.69,-0.17 3.48,-0.08 5.02,-0.88 3.08,-1.67 5.88,-0.85 4.65,3.36 -1.95,0.4 -3.87,0.79 -5.92,0.39 -3.37,-0.14 -6.75,-0.15 -10.1,-0.56 -3.76,-0.45 -7.52,-0.95 -11.28,-1.4 -3.7,-0.6 -7.38,-1.32 -11,-2.35 -3.82,-1.02 -7.64,-2.06 -11.519,-2.79 -2.975,-0.62 -5.948,-1.26 -8.941,-1.79 -2.538,-0.3 -5.09,-0.51 -7.642,-0.22 -3.034,0.2 -6.112,0.55 -9.118,-0.08 -2.706,-0.71 -5.326,-1.58 -7.788,-2.96 -2.133,-1.01 -4.258,-2.12 -6.649,-2.33 -2.74,0.19 -5.305,0.88 -7.818,2.05 -3.004,1.31 -5.955,2.75 -8.715,4.53 -2.785,1.78 -5.613,3.53 -7.935,5.92 -1.148,1.21 -2.422,2.38 -3.132,3.92 -0.865,1.88 -5.901,-3.19 -4.087,-4.18 z" />
      </g>
      <g
         transform="matrix(0.01709436,0,0,0.01709436,36.380963,573.88368)"
         id="g5909">
        <path
           inkscape:connector-curvature="0"
           d="m 215.58552,250.90034 -27.17323,28.53862 38.965,24.16808 c 0.19521,18.3877 0.39042,34.08367 0.27329,47.98262 -0.11712,13.74278 1.01618,27.29036 -0.81988,34.31683 -1.99223,6.91152 -6.75427,6.79548 -10.69751,6.87139 -4.09832,-0.0759 -10.46325,-2.10718 -12.9229,-7.14468 -2.53773,-5.1915 -1.09318,-13.31224 -1.36647,-23.61933 -0.27329,-10.42313 -0.27329,-23.07274 0,-38.37937 -12.33727,-6.16863 -22.79944,-11.7896 -31.54594,-17.02123 -8.86253,-5.30971 -16.32064,-9.21391 -20.84951,-14.28937 -4.48983,-5.19367 -6.05151,-10.93176 -6.05151,-16.16339 -0.11604,-5.23162 1.71785,-9.40912 5.50492,-15.10925 3.78708,-5.97343 9.7605,-12.06506 17.02232,-19.75525 7.26181,-7.76936 19.05141,-20.61418 26.04209,-26.04102 6.83127,-5.54396 10.26697,-6.63714 15.10926,-6.59809 4.88025,-0.0781 9.40912,3.51378 13.43045,6.87139 3.82611,3.39665 5.42683,6.52001 9.60433,13.43045 4.09832,6.7933 8.93953,15.69488 14.83596,27.17214 11.20505,-1.09317 19.59908,-1.09317 25.76772,0 6.01138,0.97605 9.4872,2.92924 10.42313,6.28685 0.89796,3.27844 0.0781,10.93176 -5.4648,13.46949 -5.81834,2.45965 -21.59022,1.01509 -28.81299,1.09318 -7.26073,0.038 -11.00985,0.42946 -14.56267,-1.09318 -3.51378,-1.71785 -4.17749,-4.64491 -6.83343,-8.78445 -2.84899,-4.17641 -6.09056,-9.52733 -9.87763,-16.20243 z"
           id="path101"
           style="fill-rule:evenodd" />
        <path
           inkscape:connector-curvature="0"
           d="m 243.77168,171.87282 c 13.01616,0 23.58136,10.5652 23.58136,23.58137 0,13.01617 -10.5652,23.58137 -23.58136,23.58137 -13.01726,0 -23.58137,-10.5652 -23.58137,-23.58137 0,-13.01617 10.5652,-23.58137 23.58137,-23.58137"
           id="path103"
           style="fill-rule:evenodd" />
        <path
           inkscape:connector-curvature="0"
           d="m 128.55439,308.6825 c 36.42185,0 65.98098,29.55913 65.98098,65.98098 0,36.42185 -29.55913,65.98098 -65.98098,65.98098 -36.421843,0 -65.980975,-29.55913 -65.980975,-65.98098 0,-36.42185 29.559132,-65.98098 65.980975,-65.98098 z m 0,12.72769 c 29.37477,0 53.21425,23.83948 53.21425,53.21208 0,29.37477 -23.83948,53.21424 -53.21424,53.21424 -29.374772,0 -53.214251,-23.83947 -53.214251,-53.21424 0,-29.37151 23.839479,-53.21208 53.214251,-53.21208 z"
           id="path105"
           style="fill-rule:evenodd" />
        <path
           inkscape:connector-curvature="0"
           d="m 301.12003,308.6825 c 36.42185,0 65.98315,29.55913 65.98315,65.98098 0,36.42185 -29.5613,65.98098 -65.98315,65.98098 -36.41967,0 -65.97989,-29.55913 -65.97989,-65.98098 0,-36.42185 29.56022,-65.98098 65.97989,-65.98098 z m 0,12.72769 c 29.37477,0 53.21425,23.83948 53.21425,53.21208 0,29.37477 -23.83948,53.21424 -53.21425,53.21424 -29.37259,0 -53.21207,-23.83947 -53.21207,-53.21424 0,-29.37151 23.83948,-53.21208 53.21207,-53.21208 z"
           id="path107"
           style="fill-rule:evenodd" />
      </g>
      <path
         style="fill:#ffffff;fill-opacity:1;stroke-width:1.35000002;stroke-miterlimit:10;stroke-dasharray:none"
         d="M 8.3593348,15.227493 C 7.5383965,15.148404 6.9762322,15.022838 6.3561838,14.780065 5.4553195,14.427342 4.7411728,13.957087 4.049184,13.26094 3.0571971,12.262992 2.4566793,11.064331 2.2331808,9.6361143 c -0.057934,-0.3702145 -0.057934,-1.4078634 0,-1.7780779 C 2.408066,6.7404724 2.8094792,5.7744951 3.4605234,4.9045086 4.7439243,3.1895077 6.8434192,2.1857706 8.9895396,2.2611688 c 2.2463874,0.078921 4.2434344,1.2142203 5.4307144,3.087302 0.174302,0.2749825 0.467684,0.867027 0.578039,1.166483 0.269785,0.7320806 0.394578,1.4380306 0.394578,2.2321216 0,0.991569 -0.196895,1.8676186 -0.617148,2.7458926 -0.966315,2.019472 -2.890911,3.398085 -5.1559785,3.693293 -0.2403503,0.03133 -1.0786064,0.05875 -1.2604097,0.04123 z M 4.6119385,12.00184 C 4.8076254,11.944889 4.9542605,11.858576 5.095821,11.717015 5.3176844,11.495152 5.42708,11.233685 5.428543,10.921773 5.4320184,10.180846 4.7445239,9.631959 4.0370902,9.8108539 3.294745,9.9985773 2.937157,10.820696 3.3116001,11.478804 c 0.2521017,0.443085 0.8074785,0.666475 1.3003384,0.523036 z m 2.9484582,4.57e-4 C 8.2737429,11.796915 8.6008752,10.97496 8.2233904,10.336454 7.911037,9.8081163 7.2274908,9.6219387 6.6937935,9.9198379 6.5489979,10.00066 6.320512,10.227741 6.2552295,10.355705 c -0.1897691,0.371978 -0.1872008,0.779241 0.00709,1.124192 0.2486687,0.441495 0.8035194,0.66479 1.2980776,0.5224 z M 5.9177861,11.211362 c 0.075906,-0.04062 0.089289,-0.16901 0.089124,-0.855013 L 6.0067523,9.6923833 5.6799439,9.4920301 C 5.5001991,9.3818359 5.3559992,9.284429 5.3594996,9.2755705 c 0.0035,-0.00886 0.099192,-0.113907 0.212648,-0.2334413 l 0.2062836,-0.2173349 0.043101,0.062424 c 0.023706,0.034333 0.080289,0.1245491 0.125741,0.2004803 0.049961,0.083464 0.1026488,0.1434188 0.1332397,0.1516171 0.088936,0.023834 0.692417,0.015567 0.740458,-0.010144 C 6.8790202,9.1981046 6.9347436,9.0659203 6.917968,8.9990803 6.8950233,8.9076621 6.8247562,8.8841179 6.547498,8.8749482 L 6.2886639,8.8663878 6.1442203,8.5974218 C 5.8245084,8.0020918 5.6392477,7.9300767 5.2801928,8.2615541 5.0508937,8.4732419 4.6549747,8.9212415 4.5981671,9.0332962 c -0.09602,0.1894013 -0.048791,0.420697 0.1104909,0.5411098 0.086655,0.065509 0.4377797,0.2709399 0.6616915,0.3871326 l 0.1620369,0.084084 0.00677,0.524419 c 0.00629,0.487461 0.00994,0.527942 0.051783,0.574405 0.024758,0.02749 0.065271,0.05828 0.090029,0.06841 0.063789,0.02611 0.1866943,0.02533 0.2368217,-0.0015 l -2e-6,0 z m 4.9908719,-1.092277 c 0.157629,-0.03146 0.382146,-0.06632 0.498926,-0.07747 0.287678,-0.02745 0.327848,-0.057693 0.327848,-0.2468043 0,-0.1229937 0.0066,-0.1442287 0.05627,-0.1798199 0.116243,-0.083372 0.75187,-0.2201661 1.113823,-0.2397061 0.28345,-0.015302 0.564499,0.027701 0.559993,0.085685 -0.0016,0.021084 0.0034,0.036942 0.01125,0.035241 0.0078,-0.0017 0.05884,0.00964 0.113361,0.025192 0.08905,0.025411 0.105065,0.023872 0.157551,-0.01514 0.09535,-0.070877 0.08627,-0.2977891 -0.01192,-0.2977891 -0.09457,0 -0.378383,-0.2904184 -0.577743,-0.5911897 C 13.039646,8.4387004 12.671972,7.8061395 12.500848,7.4866657 12.441172,7.3752545 12.328064,7.1715694 12.249498,7.0340319 12.071871,6.723081 12.042213,6.6451769 12.088471,6.6110657 c 0.06242,-0.046029 0.08535,-0.1132859 0.05626,-0.165032 -0.03144,-0.055927 -0.563586,-0.759402 -0.630206,-0.8331019 -0.02989,-0.03307 -0.07159,-0.050642 -0.120172,-0.050642 -0.06351,0 -0.08053,-0.012352 -0.116328,-0.084402 -0.02306,-0.046421 -0.05509,-0.1329442 -0.07117,-0.1922733 -0.029,-0.1069806 -0.08982,-0.1734706 -0.158692,-0.1734706 -0.0696,0 -0.155676,0.1279804 -0.33303,0.4951609 -0.203476,0.4212638 -0.293918,0.564614 -0.471002,0.7465375 -0.131871,0.1354745 -0.144646,0.1987698 -0.04012,0.1987698 0.07706,0 0.152742,-0.1086122 0.436134,-0.6258693 0.242063,-0.4418228 0.374543,-0.6444681 0.407861,-0.6238762 0.01096,0.00677 0.04683,0.093123 0.07973,0.1918924 0.07014,0.210599 0.137467,0.2809863 0.248805,0.2600993 0.133175,-0.024984 0.365522,0.2035312 0.526941,0.5182496 l 0.07656,0.1492744 -0.04644,0.036981 c -0.05891,0.046903 -0.07182,0.088989 -0.0505,0.164555 l 0.01694,0.060052 -0.116063,-0.011618 c -0.09916,-0.00993 -0.128502,-0.0031 -0.201466,0.046857 -0.06984,0.047818 -0.111383,0.058476 -0.227944,0.058476 -0.161319,0 -0.167353,0.00444 -0.271844,0.1999912 -0.04628,0.08662 -0.09337,0.1402031 -0.149692,0.1703615 -0.104074,0.055725 -0.133184,0.03503 -0.219978,-0.1563887 -0.08903,-0.1963576 -0.153134,-0.24042 -0.340899,-0.2343302 -0.108958,0.00353 -0.164078,-0.00527 -0.202815,-0.032405 -0.09746,-0.068264 -0.2832762,-0.026168 -0.2342985,0.05308 C 9.9654244,6.8271609 9.6893972,7.1400702 9.1197571,7.70221 8.3997602,8.4127267 8.0794829,8.7015993 7.8191593,8.8752788 7.5565455,9.0504859 7.5378178,9.0683502 7.5378178,9.1436498 c 0,0.1181395 0.1356518,0.140821 0.3826244,0.063976 0.292526,-0.091019 0.7202341,-0.1635823 0.7202341,-0.1221927 0,0.0066 -0.025867,0.063048 -0.057482,0.1254371 -0.040622,0.080163 -0.055476,0.1410095 -0.050641,0.2074445 0.00603,0.082929 0.016448,0.098708 0.08835,0.1338684 0.078666,0.038469 0.088383,0.038257 0.2785766,-0.00609 0.1977522,-0.04611 0.9716379,-0.127508 0.994539,-0.1046068 0.00672,0.00672 -0.0092,0.05646 -0.03537,0.1105307 -0.1096593,0.226526 -0.017996,0.334907 0.2226453,0.2632507 0.04324,-0.012877 0.121128,-0.031724 0.173073,-0.041883 0.08708,-0.017029 0.09937,-0.013211 0.157551,0.048946 0.08066,0.086171 0.251196,0.1964086 0.303839,0.1964086 0.06613,0 0.04644,0.04296 -0.03817,0.08331 -0.04333,0.02066 -0.07878,0.04582 -0.07878,0.0559 0,0.02423 -0.01684,0.02634 0.309845,-0.03887 l 0,10e-7 z M 6.4503513,8.219426 C 6.5929909,8.1546655 6.6713875,8.0219788 6.6709065,7.8461348 6.6706049,7.7358944 6.6591059,7.6906648 6.6150249,7.6263326 6.4479182,7.3824564 6.080794,7.3835361 5.9182072,7.6283808 c -0.08111,0.1221472 -0.079826,0.3223083 0.00287,0.4473939 0.1129117,0.1707875 0.3360866,0.2313596 0.5292728,0.1436502 l 0,1.1e-6 z M 14.168268,7.0219408 c 0.104949,-0.049332 0.105848,-0.049361 0.346022,-0.011067 0.132439,0.021116 0.257696,0.03191 0.278348,0.023985 0.05226,-0.020053 0.04692,-0.1127639 -0.0098,-0.1694409 C 14.667439,6.7499802 14.482391,6.6971026 13.888397,6.609819 13.717591,6.5847202 13.603698,6.5522539 13.460758,6.4879162 13.242907,6.3898613 13.116934,6.3503581 13.0215,6.3501719 c -0.08229,-1.575e-4 -0.287939,0.1094592 -0.424188,0.2261126 -0.100744,0.086255 -0.242929,0.270198 -0.242929,0.3142739 0,0.047695 0.11482,0.073507 0.402939,0.090583 0.168323,0.00998 0.324395,0.02531 0.346828,0.034076 0.02243,0.00877 0.114807,0.00328 0.205276,-0.0122 0.151521,-0.025919 0.178473,-0.024179 0.341838,0.022063 0.09754,0.02761 0.187477,0.053869 0.199856,0.058352 0.04937,0.017883 0.217728,-0.01476 0.317148,-0.061493 l 0,0 z M 7.7878217,6.8650938 c 0.1273063,-0.044057 0.1651487,-0.046422 0.503744,-0.031487 0.3421974,0.015095 0.3730439,0.013076 0.4725042,-0.03092 0.084294,-0.037287 0.1655521,-0.049004 0.3910115,-0.05638 0.2391015,-0.00782 0.3104315,-0.018973 0.4461418,-0.069741 C 9.7544249,6.6192534 9.81276,6.5678199 9.7714332,6.5264931 9.7612077,6.5162676 9.667189,6.5166108 9.5625027,6.5272561 9.3437802,6.5494967 9.0213038,6.5123259 8.7644665,6.4352692 8.6778133,6.4092714 8.5106965,6.3805478 8.3930958,6.3714389 8.2322029,6.358977 8.1466994,6.339695 8.0476682,6.2935408 7.8519785,6.2023385 7.7649691,6.2179676 7.4278932,6.4048667 7.2040276,6.5289941 7.1559328,6.5644996 7.1665115,6.5978298 c 0.010072,0.031734 -0.00256,0.044256 -0.056638,0.056133 -0.101456,0.022283 -0.072615,0.059109 0.1033416,0.1319539 0.3421574,0.1416504 0.3792978,0.1467681 0.5746062,0.079178 l 0,-5e-7 z"
         id="path3047"
         inkscape:connector-curvature="0"
         transform="translate(34.28125,569.375)" />
      <path
         style="fill:#ffffff;fill-opacity:1;stroke-width:1.35000002;stroke-miterlimit:10;stroke-dasharray:none"
         d="M 4.1656434,11.794788 C 3.906245,11.760213 3.624454,11.555765 3.501468,11.312909 3.2736155,10.862978 3.4654045,10.322525 3.9312288,10.101861 c 0.1374905,-0.06513 0.1717649,-0.07187 0.3655357,-0.07187 0.1937707,0 0.2280451,0.0067 0.3655357,0.07187 0.5707308,0.270359 0.7035376,0.979949 0.2680783,1.43235 -0.1989126,0.206651 -0.4717737,0.299627 -0.7647351,0.260577 z"
         id="path3049"
         inkscape:connector-curvature="0"
         transform="translate(34.28125,569.375)" />
      <path
         style="fill:#ffffff;fill-opacity:1;stroke-width:1.35000002;stroke-miterlimit:10;stroke-dasharray:none"
         d="M 7.1141017,11.794788 C 6.942614,11.77193 6.7305676,11.659963 6.6054535,11.526206 6.1824349,11.073965 6.3180247,10.367903 6.8789102,10.102225 c 0.1383534,-0.06554 0.1723191,-0.07223 0.3663125,-0.07223 0.1937708,0 0.2280452,0.0067 0.3655358,0.07187 0.1783046,0.08446 0.3491738,0.24568 0.4305097,0.406189 0.3265097,0.644336 -0.2056722,1.382908 -0.9271665,1.286738 z"
         id="path3051"
         inkscape:connector-curvature="0"
         transform="translate(34.28125,569.375)" />
      <path
         style="fill:#ffffff;fill-opacity:1;stroke-width:1.35000002;stroke-miterlimit:10;stroke-dasharray:none"
         d="m 7.3633861,6.6713744 c -0.040232,-0.00499 -0.073149,-0.017515 -0.073149,-0.027827 0,-0.036182 0.160878,-0.1594883 0.2991962,-0.229322 0.2218259,-0.1119948 0.2499346,-0.1154682 0.4052878,-0.050081 0.1076177,0.045296 0.1821802,0.058909 0.3518668,0.064241 0.1184218,0.00372 0.2710181,0.019626 0.3391027,0.035345 l 0.1237902,0.028579 -0.1125366,0.031141 c -0.085586,0.023683 -0.1996586,0.02775 -0.4763264,0.016982 L 7.8568282,6.5262718 7.6551446,6.6069639 c -0.1109259,0.044381 -0.2054919,0.079071 -0.2101466,0.07709 -0.00465,-0.00198 -0.04138,-0.00769 -0.081612,-0.01268 z"
         id="path3053"
         inkscape:connector-curvature="0"
         transform="translate(34.28125,569.375)" />
      <path
         style="fill:#ffffff;fill-opacity:1;stroke-width:1.35000002;stroke-miterlimit:10;stroke-dasharray:none"
         d="M 14.43756,6.8564836 14.245568,6.7552234 14.08535,6.7826978 c -0.154579,0.026507 -0.16667,0.025168 -0.343522,-0.038063 -0.207368,-0.074141 -0.342878,-0.081091 -0.532167,-0.027292 -0.179235,0.050942 -0.444458,0.087631 -0.571372,0.07904 l -0.109971,-0.00744 0.10755,-0.1194084 c 0.05915,-0.065675 0.158586,-0.1452707 0.220965,-0.1768801 0.149557,-0.075786 0.27409,-0.06494 0.555394,0.048374 0.149487,0.060216 0.298467,0.099406 0.495161,0.1302553 0.473345,0.07424 0.595859,0.1044872 0.705922,0.1742867 0.05739,0.036394 0.104341,0.076523 0.104341,0.089175 0,0.046466 -0.09274,0.020554 -0.280091,-0.078257 l 0,0 z"
         id="path3055"
         inkscape:connector-curvature="0"
         transform="translate(34.28125,569.375)"
         inkscape:export-filename="/home/gabi/SEP/JoglEarth/Spezifikation/res/iconsPoi/POI_HikingCycling.png"
         inkscape:export-xdpi="2556"
         inkscape:export-ydpi="2556" />
    </g>
  </g>
</svg>
