<?xml version="1.0" encoding="UTF-8" standalone="no"?>
<!-- Created with Inkscape (http://www.inkscape.org/) -->

<svg
   xmlns:dc="http://purl.org/dc/elements/1.1/"
   xmlns:cc="http://creativecommons.org/ns#"
   xmlns:rdf="http://www.w3.org/1999/02/22-rdf-syntax-ns#"
   xmlns:svg="http://www.w3.org/2000/svg"
   xmlns="http://www.w3.org/2000/svg"
   xmlns:sodipodi="http://sodipodi.sourceforge.net/DTD/sodipodi-0.dtd"
   xmlns:inkscape="http://www.inkscape.org/namespaces/inkscape"
   width="173.04584"
   height="40.599998"
   id="svg2"
   version="1.1"
   inkscape:version="0.48.4 r9939"
   sodipodi:docname="Logo-Text.svg">
  <defs
     id="defs4" />
  <sodipodi:namedview
     id="base"
     pagecolor="#ffffff"
     bordercolor="#666666"
     borderopacity="1.0"
     inkscape:pageopacity="0.0"
     inkscape:pageshadow="2"
     inkscape:zoom="3.959798"
     inkscape:cx="11.545909"
     inkscape:cy="26.705491"
     inkscape:document-units="px"
     inkscape:current-layer="layer1"
     showgrid="false"
     fit-margin-top="0"
     fit-margin-left="6"
     fit-margin-right="15"
     fit-margin-bottom="0"
     inkscape:window-width="1920"
     inkscape:window-height="1020"
     inkscape:window-x="0"
     inkscape:window-y="27"
     inkscape:window-maximized="1" />
  <metadata
     id="metadata7">
    <rdf:RDF>
      <cc:Work
         rdf:about="">
        <dc:format>image/svg+xml</dc:format>
        <dc:type
           rdf:resource="http://purl.org/dc/dcmitype/StillImage" />
        <dc:title />
      </cc:Work>
    </rdf:RDF>
  </metadata>
  <g
     inkscape:label="Ebene 1"
     inkscape:groupmode="layer"
     id="layer1"
     transform="translate(-121.13143,-294.12218)">
    <g
       id="g4675">
      <path
         d="m 131.45143,331.08218 -2.64,1.56 c 0.98666,-1.62667 1.65333,-2.86667 2,-3.72 0.63999,-1.54667 1.07999,-3.09333 1.32,-4.64 0.21333,-1.41333 0.35999,-3.6 0.44,-6.56 l 0.24,-9.04 c -1e-5,-1.41332 0.0267,-3.51998 0.08,-6.32 -1e-5,-0.31998 0.04,-1.31998 0.12,-3 0.0533,-1.19997 0.08,-2.18664 0.08,-2.96 l 0,-0.84 -5.96,0.16 2.56,-1.6 9.2,0 -1,0.84 c -0.40001,0.32003 -0.61335,0.88003 -0.64,1.68 -0.08,1.76003 -0.17335,4.69336 -0.28,8.8 l -0.32,13.36 c -0.0533,2.72 -0.45334,4.96 -1.2,6.72 -0.77334,1.89333 -2.10668,3.74666 -4,5.56"
         style="font-size:40px;font-style:normal;font-weight:normal;line-height:125%;letter-spacing:0px;word-spacing:0px;fill:#1c4ab2;fill-opacity:1;stroke:none;font-family:Sans"
         id="path3811"
         inkscape:connector-curvature="0" />
      <path
         d="m 161.49018,313.16218 c -2e-5,2.53334 -0.88002,4.74667 -2.64,6.64 -1.92002,2.05334 -4.42668,3.08 -7.52,3.08 -2.98668,0 -5.41334,-1.01333 -7.28,-3.04 -1.65334,-1.81333 -2.48,-3.94666 -2.48,-6.4 0,-2.66665 0.97333,-4.94665 2.92,-6.84 1.97332,-1.91998 4.45332,-2.87998 7.44,-2.88 2.82665,2e-5 5.15998,0.97335 7,2.92 1.70664,1.81335 2.55998,3.98668 2.56,6.52 m -9.24,8.52 c 1.73332,0 3.09331,-0.68 4.08,-2.04 0.79998,-1.09333 1.19998,-2.57333 1.2,-4.44 -2e-5,-2.31999 -0.48002,-4.46665 -1.44,-6.44 -1.25335,-2.53331 -2.98668,-3.79998 -5.2,-3.8 -1.38668,2e-5 -2.58668,0.45335 -3.6,1.36 -1.22668,1.09335 -1.84001,2.72002 -1.84,4.88 -10e-6,2.42668 0.53332,4.66668 1.6,6.72 1.27999,2.50667 3.01332,3.76 5.2,3.76"
         style="font-size:40px;font-style:normal;font-weight:normal;line-height:125%;letter-spacing:0px;word-spacing:0px;fill:#df2608;fill-opacity:1;stroke:none;font-family:Sans"
         id="path3813"
         inkscape:connector-curvature="0" />
      <path
         d="m 179.23018,305.68218 -2.48,0 c 1.89331,1.57335 2.83998,3.37335 2.84,5.4 -2e-5,1.30668 -0.34669,2.45334 -1.04,3.44 -0.45335,0.64001 -1.22668,1.38668 -2.32,2.24 -0.74668,0.74667 -1.12002,1.40001 -1.12,1.96 -2e-5,0.61334 0.34665,1.18667 1.04,1.72 l 1.44,1.12 c 1.11998,0.85334 1.90665,1.61334 2.36,2.28 0.66665,0.96 0.99998,2.06667 1,3.32 -2e-5,2.02666 -0.89335,3.75999 -2.68,5.2 -1.97335,1.57332 -4.58668,2.35999 -7.84,2.36 -2.74668,-10e-6 -4.90667,-0.58668 -6.48,-1.76 -1.41334,-1.04001 -2.12,-2.36001 -2.12,-3.96 0,-2.02667 1.02666,-3.65333 3.08,-4.88 1.65333,-0.98666 4.19999,-1.6 7.64,-1.84 -0.80001,-1.04 -1.20001,-1.94666 -1.2,-2.72 -1e-5,-0.39999 0.13332,-0.91999 0.4,-1.56 -0.58668,0.0533 -1.01334,0.08 -1.28,0.08 -2.02668,1e-5 -3.66667,-0.65333 -4.92,-1.96 -1.14667,-1.19999 -1.72,-2.63999 -1.72,-4.32 0,-2.13332 0.85333,-3.91998 2.56,-5.36 1.73332,-1.46665 4.11999,-2.19998 7.16,-2.2 l 8.24,0 -2.56,1.44 m -6.88,11.28 c 1.06665,1e-5 1.97332,-0.37332 2.72,-1.12 0.66665,-0.66666 0.99998,-1.63999 1,-2.92 -2e-5,-1.67999 -0.42668,-3.26665 -1.28,-4.76 -0.98668,-1.73331 -2.24001,-2.59998 -3.76,-2.6 -1.38668,2e-5 -2.41334,0.58669 -3.08,1.76 -0.40001,0.66668 -0.60001,1.50668 -0.6,2.52 -1e-5,1.62668 0.39999,3.14668 1.2,4.56 0.95999,1.70668 2.22666,2.56001 3.8,2.56 m 5.92,11.76 c -2e-5,-0.96 -0.34669,-1.82667 -1.04,-2.6 -0.53335,-0.58667 -1.64002,-1.48 -3.32,-2.68 -0.21335,-0.0267 -0.52001,-0.04 -0.92,-0.04 -1.54668,0 -2.94668,0.21333 -4.2,0.64 -2.29334,0.8 -3.44001,2.17333 -3.44,4.12 -1e-5,1.44 0.63999,2.61333 1.92,3.52 1.30666,0.90666 3.01332,1.35999 5.12,1.36 1.86665,-10e-6 3.33332,-0.41334 4.4,-1.24 0.98665,-0.77334 1.47998,-1.80001 1.48,-3.08"
         style="font-size:40px;font-style:normal;font-weight:normal;line-height:125%;letter-spacing:0px;word-spacing:0px;fill:#efc300;fill-opacity:1;stroke:none;font-family:Sans"
         id="path3815"
         inkscape:connector-curvature="0" />
      <path
         d="m 192.5308,321.48218 -1.48,0.88 -7.08,0 c 0.72,-0.93333 1.08,-1.64 1.08,-2.12 l 0,-6.52 c 0,-3.67999 0.0533,-7.58665 0.16,-11.72 0.08,-1.54664 0.16,-3.69331 0.24,-6.44 l -3.12,0 3,-1.44 5.72,0 c -0.69334,0.40003 -1.13334,0.7067 -1.32,0.92 -0.24001,0.29336 -0.40001,0.77336 -0.48,1.44 -0.24001,2.24003 -0.36001,6.78669 -0.36,13.64 l 0,9.24 c -1e-5,0.72 0.0933,1.2 0.28,1.44 0.18666,0.24 0.62666,0.4 1.32,0.48 0.45333,0.0267 1.13333,0.0933 2.04,0.2"
         style="font-size:40px;font-style:normal;font-weight:normal;line-height:125%;letter-spacing:0px;word-spacing:0px;fill:#17bb23;fill-opacity:1;stroke:none;font-family:Sans"
         id="path3817"
         inkscape:connector-curvature="0" />
    </g>
    <g
       id="g4681">
      <path
         d="m 207.91957,297.4489 12.50863,0 0,1.36435 -10.99692,0 0,9.41888 10.53749,0 0,1.33147 -10.53749,0 0,11.09557 11.2637,0 0,1.33147 -12.77541,0 0,-24.54174"
         style="font-size:20.39016532999999853px;font-style:normal;font-variant:normal;font-weight:200;font-stretch:normal;text-align:start;line-height:125%;letter-spacing:0px;word-spacing:0px;writing-mode:lr-tb;text-anchor:start;fill:#000000;fill-opacity:1;stroke:none;font-family:DejaVu Sans;-inkscape-font-specification:DejaVu Sans Ultra-Light"
         id="path3800"
         inkscape:connector-curvature="0" />
      <path
         d="m 231.49928,311.60191 c -2.19348,0 -3.77433,0.43286 -4.74262,1.29858 -0.96828,0.86572 -1.45242,2.13146 -1.45242,3.79715 0,1.62188 0.40015,2.77253 1.20047,3.45196 0.80032,0.67943 1.74884,1.01914 2.84557,1.01914 2.07488,0 3.56684,-0.97531 4.47584,-2.92593 0.91887,-1.95062 1.3783,-3.78619 1.37832,-5.50669 l 0,-1.13421 -3.70516,0 m 5.08349,-0.11507 0,10.5038 -1.34869,0 0,-4.99712 c -0.76081,2.44378 -1.76859,3.99988 -3.02341,4.66836 -0.99792,0.53697 -1.99092,0.80544 -2.97896,0.80544 -1.65005,0 -2.94932,-0.48764 -3.89783,-1.46296 -0.94853,-0.98628 -1.42279,-2.4328 -1.42277,-4.33959 -2e-5,-1.90679 0.6175,-3.43003 1.85256,-4.56974 1.23506,-1.15063 3.25562,-1.72595 6.06166,-1.72597 l 3.37911,0 0,-0.29589 c -2e-5,-1.63281 -0.41993,-2.97523 -1.25975,-4.02727 -0.82996,-1.05201 -2.20334,-1.57801 -4.12015,-1.57803 -0.94853,2e-5 -1.91681,0.19727 -2.90486,0.59176 -0.63235,0.25206 -1.45242,0.76163 -2.46022,1.52873 l 0,-1.62737 c 0.87936,-0.6027 1.69944,-1.03009 2.46022,-1.28215 1.10662,-0.36161 2.16876,-0.54243 3.18645,-0.54244 1.95632,1e-5 3.56683,0.65753 4.83155,1.97254 1.0967,1.12875 1.64507,3.25471 1.64509,6.3779"
         style="font-size:20.39016532999999853px;font-style:normal;font-variant:normal;font-weight:200;font-stretch:normal;text-align:start;line-height:125%;letter-spacing:0px;word-spacing:0px;writing-mode:lr-tb;text-anchor:start;fill:#000000;fill-opacity:1;stroke:none;font-family:DejaVu Sans;-inkscape-font-specification:DejaVu Sans Ultra-Light"
         id="path3802"
         inkscape:connector-curvature="0" />
      <path
         d="m 250.94555,304.87882 c -0.21739,-0.12056 -0.5138,-0.22464 -0.88924,-0.31234 -0.33594,-0.0657 -0.76081,-0.0986 -1.27458,-0.0986 -1.67969,2e-5 -3.07282,0.69039 -4.17942,2.07117 -0.8695,1.11777 -1.30422,3.03554 -1.30422,5.75326 l 0,9.69834 -1.33386,0 0,-18.41042 1.33386,0 0,3.45196 c 0.44462,-0.98627 1.06707,-1.81911 1.86739,-2.49856 1.10662,-0.93147 2.41083,-1.39721 3.91266,-1.39722 0.38533,1e-5 0.72127,0.0165 1.0078,0.0494 0.29641,2e-5 0.58294,0.0383 0.85961,0.11507 l 0,1.57804"
         style="font-size:20.39016532999999853px;font-style:normal;font-variant:normal;font-weight:200;font-stretch:normal;text-align:start;line-height:125%;letter-spacing:0px;word-spacing:0px;writing-mode:lr-tb;text-anchor:start;fill:#000000;fill-opacity:1;stroke:none;font-family:DejaVu Sans;-inkscape-font-specification:DejaVu Sans Ultra-Light"
         id="path3804"
         inkscape:connector-curvature="0" />
      <path
         d="m 256.30076,298.35297 0,5.22725 5.61702,0 0,1.28215 -5.61702,0 0,11.06269 c -2e-5,1.40271 0.16302,2.38348 0.48907,2.94237 0.67186,1.22736 1.65002,1.84106 2.93449,1.84106 l 2.19346,0 0,1.28215 -2.11934,0 c -1.35364,0 -2.50471,-0.43835 -3.45322,-1.31503 -0.94853,-0.87669 -1.4228,-2.46019 -1.42278,-4.75055 l 0,-11.06269 -1.98598,0 0,-1.28215 1.98598,0 0,-5.22725 1.37832,0"
         style="font-size:20.39016532999999853px;font-style:normal;font-variant:normal;font-weight:200;font-stretch:normal;text-align:start;line-height:125%;letter-spacing:0px;word-spacing:0px;writing-mode:lr-tb;text-anchor:start;fill:#000000;fill-opacity:1;stroke:none;font-family:DejaVu Sans;-inkscape-font-specification:DejaVu Sans Ultra-Light"
         id="path3806"
         inkscape:connector-curvature="0" />
      <path
         d="m 279.17727,310.87863 0,11.11201 -1.36351,0 0,-11.01337 c -2e-5,-2.36705 -0.36064,-4.0437 -1.08191,-5.03 -0.72129,-0.98626 -1.81306,-1.47938 -3.27536,-1.4794 -1.67969,2e-5 -3.00861,0.54795 -3.98676,1.64378 -0.97816,1.09587 -1.46724,2.92047 -1.46724,5.47381 l 0,10.40518 -1.3635,0 0,-25.57734 1.3635,0 0,10.56956 c 0.31616,-0.94242 0.87935,-1.78077 1.68955,-2.51499 0.96827,-0.88762 2.33178,-1.33146 4.0905,-1.33147 1.64014,1e-5 2.94931,0.65206 3.92748,1.95611 0.97814,1.31504 1.46724,3.24373 1.46725,5.78612"
         style="font-size:20.39016532999999853px;font-style:normal;font-variant:normal;font-weight:200;font-stretch:normal;text-align:start;line-height:125%;letter-spacing:0px;word-spacing:0px;writing-mode:lr-tb;text-anchor:start;fill:#000000;fill-opacity:1;stroke:none;font-family:DejaVu Sans;-inkscape-font-specification:DejaVu Sans Ultra-Light"
         id="path3808"
         inkscape:connector-curvature="0" />
    </g>
  </g>
</svg>
