<?xml version="1.0" encoding="UTF-8" standalone="no"?>
<!-- Created with Inkscape (http://www.inkscape.org/) -->

<svg
   xmlns:dc="http://purl.org/dc/elements/1.1/"
   xmlns:cc="http://creativecommons.org/ns#"
   xmlns:rdf="http://www.w3.org/1999/02/22-rdf-syntax-ns#"
   xmlns:svg="http://www.w3.org/2000/svg"
   xmlns="http://www.w3.org/2000/svg"
   version="1.1"
   width="679.79999"
   height="232.2527"
   id="svg2">
  <defs
     id="defs4" />
  <metadata
     id="metadata7">
    <rdf:RDF>
      <cc:Work
         rdf:about="">
        <dc:format>image/svg+xml</dc:format>
        <dc:type
           rdf:resource="http://purl.org/dc/dcmitype/StillImage" />
        <dc:title></dc:title>
      </cc:Work>
    </rdf:RDF>
  </metadata>
  <g
     transform="translate(-2783.7443,-1635.5972)"
     id="layer1">
    <g
       transform="matrix(0.1,0,0,0.1,2811.2799,1576.5512)"
       id="g3075">
      <path
         d="m 2142.6443,2912.3584 c -3.3121,-0.4561 -3.3658,-0.5226 -1,-1.2403 2.4629,-0.7471 2.4564,-0.7598 -0.4343,-0.858 -4.3537,-0.1479 -10.8547,-3.6532 -13.6255,-7.3468 -3.6917,-4.9212 -3.4153,-13.1893 0.6339,-18.9658 4.3108,-6.1494 7.0627,-6.1981 13.6871,-0.2422 6.2991,5.6635 13.5413,9.9614 20.1521,11.9593 6.6854,2.0206 11.4845,0.6506 16.9829,-4.8478 7.8952,-7.8951 13.2719,-25.1997 35.4699,-114.1564 6.5878,-26.4 13.6352,-54.075 15.6609,-61.5 2.0257,-7.425 4.624,-16.9743 5.774,-21.2207 1.15,-4.2464 1.7415,-8.0714 1.3145,-8.5 -0.4271,-0.4286 -7.4903,-0.9242 -15.696,-1.1013 l -14.9195,-0.3221 0,-3.2279 c 0,-5.2738 1.029,-5.6267 16.45,-5.6417 7.7275,-0.01 15.0041,-0.2697 16.1701,-0.5826 1.6748,-0.4495 2.6921,-2.4946 4.8428,-9.7364 3.7142,-12.5059 13.6802,-39.0211 17.5887,-46.7957 9.1668,-18.2338 26.9679,-39.7964 39.8088,-48.2207 11.2555,-7.3841 18.794,-9.8 32.4198,-10.3897 13.3924,-0.5796 18.2483,0.6299 24.4739,6.096 4.4804,3.9339 6.2518,8.1633 6.2239,14.8607 -0.028,6.6136 -2.5757,12.3436 -7.3558,16.5407 -5.8713,5.1551 -8.8214,4.19 -9.9613,-3.2586 -1.9038,-12.4396 -6.5354,-20.1747 -14.1523,-23.635 -5.6676,-2.5747 -9.3005,-2.3091 -16.308,1.1926 -10.3675,5.1807 -18.5471,15.7236 -29.8252,38.4424 -8.706,17.5376 -23.2054,61.9991 -20.9547,64.2562 0.408,0.4091 10.6299,0.8808 22.7154,1.0484 l 21.9736,0.3045 -0.3049,4.1955 -0.3048,4.1954 -23,0.5 c -12.65,0.275 -23.5297,0.8438 -24.177,1.2639 -1.3531,0.8782 -1.8953,2.5156 -6.7,20.2361 -16.0965,59.3657 -18.1887,66.9564 -26.5985,96.5 -9.8006,34.4297 -14.5071,49.156 -19.4955,61 -3.9904,9.4743 -12.7322,23.8571 -17.4648,28.7346 -8.8582,9.1293 -25.581,18.0381 -34.5084,18.3837 l -3.0558,0.1183 3,0.6775 c 2.6674,0.6023 2.3902,0.7545 -2.5,1.3729 -5.7212,0.7236 -7.1706,0.7137 -13,-0.089 z m 782.5,-0.198 c -3.6699,-0.6571 -3.7525,-0.7369 -1,-0.9677 2.7233,-0.2282 2.6151,-0.3275 -1.1736,-1.0767 -5.9584,-1.1781 -9.5938,-3.3063 -12.7769,-7.4796 -2.4766,-3.2469 -2.7316,-4.2821 -2.351,-9.5436 0.3402,-4.7034 1.0437,-6.6662 3.4648,-9.667 4.4703,-5.5406 6.9234,-5.4037 13.9659,0.7795 6.3246,5.5529 14.3594,10.0671 21.1938,11.9074 3.8193,1.0285 4.8342,0.8934 9.5653,-1.2725 9.3626,-4.2864 13.7886,-13.2273 22.6127,-45.6798 8.4005,-30.8947 9.9448,-36.8126 14.4833,-55.5 6.1447,-25.301 17.9662,-71.9048 20.9269,-82.5 7.1046,-25.4241 7.0969,-25.3616 3.2852,-26.3837 -1.208,-0.324 -7.9339,-0.5951 -14.9464,-0.6026 l -12.75,-0.014 0,-3.3 c 0,-5.3416 1.0145,-5.7 16.1349,-5.7 7.5542,0 14.7885,-0.4006 16.0762,-0.8902 1.9815,-0.7533 3.3646,-3.9666 9.0005,-20.9106 10.1288,-30.4512 17.6583,-45.16 32.9701,-64.4064 10.6262,-13.3567 23.17,-22.5862 36.9946,-27.2199 6.324,-2.1196 9.5448,-2.5729 18.2821,-2.5729 11.4097,0 15.2588,1.0215 21.3466,5.6649 9.2878,7.0841 9.5011,23.1509 0.4206,31.6768 -1.8846,1.7696 -4.242,2.9015 -6.2482,3 l -3.2216,0.1583 -1.7914,-8.7419 c -2.4887,-12.145 -6.3666,-17.9391 -14.1959,-21.2104 -2.0374,-0.8512 -5.1812,-1.5378 -6.9864,-1.5257 -15.8953,0.1063 -36.2335,28.3154 -49.7318,68.978 -6.0249,18.1494 -10.0503,32.0996 -10.0503,34.8292 0,2.8461 2.3196,3.142 24.75,3.1571 l 20.25,0.014 0,3.3776 c 0,1.8576 -0.5784,3.8575 -1.2852,4.4442 -0.7996,0.6635 -9.7118,1.1822 -23.5822,1.3724 -19.6086,0.2689 -22.4466,0.5107 -23.5382,2.0054 -1.1889,1.6281 -3.0478,7.9558 -11.1041,37.8004 -9.8422,36.46 -10.1963,37.7354 -22.9447,82.6574 -13.1732,46.4186 -19.0672,61.9125 -29.2643,76.9284 -9.2322,13.5949 -28.3552,26.0536 -40.7255,26.5325 l -3.0558,0.1183 3,0.6775 c 2.6674,0.6023 2.3902,0.7545 -2.5,1.3729 -6.1448,0.7772 -7.7468,0.7431 -13.5,-0.287 z m -1774.1119,-93.9161 c -2.8314,-1.2298 -6.0101,-5.4085 -7.4631,-9.811 -3.9369,-11.929 5.8401,-40.5592 22.7487,-66.6152 10.214,-15.7399 17.8864,-25.3365 29.7664,-37.2319 14.4399,-14.4587 24.1383,-20.9692 40.2973,-27.0514 9.2059,-3.4651 21.3017,-3.3914 26.5305,0.1617 2.0526,1.3948 3.7321,2.9698 3.7321,3.5 0,0.5301 0.8343,0.9639 1.8539,0.9639 1.3822,0 2.9563,-2.4808 6.1866,-9.75 5.704,-12.8359 5.4416,-12.5542 11.1808,-12.0028 4.8138,0.4626 8.7787,2.8989 8.7787,5.3943 0,0.7323 -4.5367,12.9251 -10.0817,27.095 -21.3782,54.6317 -29.054,74.8257 -35.4061,93.1495 -3.5102,10.1255 -3.5028,12.7869 0.039,14.1336 4.9095,1.8666 13.1659,-2.5125 29.9484,-15.8844 9.008,-7.1773 11.6694,-8.2096 12.3295,-4.782 0.4508,2.3407 -18.537,21.2277 -28.2382,28.0884 -9.1607,6.4785 -18.6489,10.3667 -27.2033,11.1475 -6.117,0.5584 -7.1958,0.3846 -9.638,-1.5528 -4.0833,-3.2392 -3.6916,-8.312 1.8334,-23.7386 9.253,-25.8357 9.7186,-27.3957 8.5315,-28.5828 -0.8279,-0.8279 -3.7443,1.6646 -11.1569,9.5351 -23.6487,25.1099 -50.4762,43.1082 -65.9828,44.2672 -3.5613,0.2662 -7.4255,0.071 -8.5871,-0.4333 z m 37.3144,-20.6508 c 15.3132,-8.9703 38.7398,-32.28 50.1836,-49.9331 9.2925,-14.3347 20.1452,-36.8196 21.6544,-44.8644 1.5252,-8.1296 -8.2759,-16.8717 -19.0146,-16.96 -11.8479,-0.097 -30.534,15.6008 -44.8383,37.6688 -16.9508,26.1508 -30.0487,64.1269 -25.721,74.5751 2.3795,5.7445 7.3311,5.6087 17.7359,-0.4864 z m 124.0475,20.428 c -2.0198,-0.7549 -2.75,-1.71 -2.75,-3.5971 0,-1.4131 15.2827,-48.7381 33.9616,-105.1667 18.6789,-56.4285 35.1039,-106.5851 36.5,-111.4592 3.9408,-13.7577 3.4139,-16.4608 -3.9884,-20.4629 -6.7086,-3.627 -6.9021,-5.6312 -0.7973,-8.2605 11.7447,-5.0585 39.3331,-11.5856 39.3184,-9.3024 -0.01,1.2459 -5.7748,18.9795 -12.3207,37.8877 -3.0465,8.8 -7.3194,21.175 -9.4955,27.5 -2.176,6.325 -8.6833,25 -14.4606,41.5 -17.8558,50.9959 -17.3152,49.3023 -16.1208,50.4967 0.7953,0.7953 3.4688,-1.6071 9.7332,-8.7465 16.3162,-18.5951 32.0171,-30.499 47.0707,-35.6877 7.1622,-2.4686 8.9849,-2.6922 19.5,-2.3928 13.1399,0.3742 15.7838,1.2989 20.5085,7.1731 2.7602,3.4316 3.0909,4.5552 3.0909,10.5 0,10.5512 -4.3559,17.3657 -19.5,30.507 -15.0664,13.0739 -28.6061,20.7091 -43.4813,24.5198 -10.8961,2.7913 -11.3301,3.3607 -9.2299,12.1113 2.0465,8.5272 9.3417,26.1706 14.4796,35.0191 2.6187,4.5098 4.9157,7.1124 7.502,8.5 l 3.7277,2 5.5234,-2.8843 c 3.0378,-1.5864 7.7301,-5.2989 10.4273,-8.25 7.8031,-8.5379 10.9119,-6.3055 5.0542,3.6293 -5.2872,8.9671 -10.8443,15.5633 -16.2419,19.279 -13.8232,9.516 -20.7898,8.8426 -28.6959,-2.774 -3.0511,-4.483 -11.8515,-23.913 -16.2229,-35.8176 -3.9169,-10.6671 -6.3075,-15.1165 -9.4493,-17.5879 -3.2829,-2.5823 -6.6329,-2.6227 -12.0892,-0.1455 -4.8882,2.2192 -6.2969,4.6474 -14.943,25.7579 -3.107,7.5862 -7.7673,18.9681 -10.3562,25.2931 l -4.707,11.5 -4.3988,0.1944 c -2.4193,0.107 -5.6363,-0.268 -7.1488,-0.8333 z m 55.9205,-71.837 c 17.9429,-4.9723 44.8481,-19.899 56.2091,-31.1843 14.3145,-14.2192 16.4692,-26.8713 5.3663,-31.5104 -6.6283,-2.7695 -16.2695,0.397 -31.3818,10.3067 -16.1318,10.5782 -43.8641,42.4086 -43.8641,50.3461 0,4.5427 3.0188,4.9936 13.6705,2.0419 z m 120.8295,72.0906 c -4.8794,-2.1436 -6.0072,-4.8244 -5.8802,-13.9781 0.097,-7.0029 0.6938,-10.1499 3.1545,-16.6366 1.6692,-4.4 5.5998,-14.75 8.7347,-23 3.1349,-8.25 7.3873,-19.5 9.4498,-25 2.0625,-5.5 6.5411,-17.357 9.9525,-26.349 3.4729,-9.1543 6.0674,-17.5156 5.8956,-19 -0.79,-6.8246 -11.9339,-1.8708 -28.4367,12.6409 -9.5657,8.4116 -12.5846,9.682 -13.177,5.5452 -0.8959,-6.2563 31.6596,-32.9725 48.744,-40.0011 7.8961,-3.2485 16.292,-3.1977 19.6083,0.1185 1.35,1.35 2.4545,3.0564 2.4545,3.792 0,0.7356 -2.059,6.7185 -4.5756,13.2955 -7.0769,18.4949 -15.2442,39.9459 -19.4018,50.958 -2.0766,5.5 -5.3773,14.05 -7.3349,19 -10.981,27.7659 -11.8735,30.6687 -10.575,34.3934 0.5591,1.604 1.9705,3.1566 3.1497,3.465 5.055,1.3219 17.4494,-7.4082 36.3648,-25.6137 23.0103,-22.1468 36.9945,-41.9027 59.4553,-83.9947 l 8.4045,-15.75 5.0065,0.015 c 5.623,0.017 9.832,1.7217 10.3044,4.1743 0.1736,0.9013 -1.4671,6.29 -3.6459,11.9749 -2.1788,5.6848 -6.2111,16.1861 -8.9607,23.3361 -10.9385,28.4439 -18.5277,48.5887 -22.7924,60.5 -2.4615,6.875 -5.1774,14.4308 -6.0354,16.7906 -1.8182,5.0011 -1.1981,8.7579 1.5651,9.4805 1.0727,0.2805 4.1151,-0.4993 6.7609,-1.733 5.5009,-2.5649 21.2272,-15.2863 26.4723,-21.414 4.217,-4.9266 7.8382,-5.6051 7.8382,-1.4685 0,6.4365 -19.0043,25.395 -36.2463,36.159 -8.4317,5.2638 -15.2894,7.9978 -22.0249,8.7806 -4.4199,0.5137 -5.6542,0.2714 -7.9788,-1.5663 -4.9404,-3.9057 -4.762,-4.6655 10.6937,-45.5289 9.4933,-25.0993 10.1621,-27.2942 8.7483,-28.708 -1.0245,-1.0245 -1.7891,-0.5978 -3.977,2.2198 -6.9695,8.9755 -24.3072,27.7932 -37.3433,40.5311 -16.4686,16.0918 -27.8142,25.3666 -36.2658,29.6466 -6.1625,3.1207 -14.5692,4.4789 -18.1059,2.9252 z m 169.7588,0.2448 c -3.5343,-0.7827 -5.2588,-4.1977 -5.2588,-10.4139 0,-4.7092 5.3735,-21.6631 33.482,-105.639 18.4152,-55.0162 34.3555,-103.6862 35.4229,-108.1555 2.85,-11.9325 1.4493,-15.6845 -7.3915,-19.7989 -8.3104,-3.8676 -4.5702,-6.4253 17.3627,-11.8735 13.6619,-3.3937 23.1239,-4.3285 23.1239,-2.2846 0,0.8158 -3.7664,12.4684 -8.3699,25.8946 -23.0606,67.2578 -70.6301,211.1582 -70.6301,213.6601 0,1.5682 0.54,3.3912 1.2,4.0512 4.4184,4.4184 14.9672,-3.1613 37.6533,-27.0552 4.0444,-4.2596 7.996,-7.7448 8.7814,-7.7448 4.8967,0 0.9169,9.1198 -9.7399,22.319 -9.8393,12.1868 -21.3974,21.2414 -31.5915,24.7487 -5.5769,1.9187 -19.6654,3.2616 -24.0445,2.2918 z m 88.1957,-1.814 c -4.3761,-4.3762 -3.5958,-8.2104 9.6303,-47.3151 6.6466,-19.6517 15.2678,-45.1344 19.1581,-56.6282 8.5313,-25.2058 9.1044,-23.6022 -8.434,-23.6022 l -11.8089,0 0,-2.9648 c 0,-3.8416 1.235,-4.4127 14,-6.4738 19.0947,-3.083 16.5185,-1.1015 28.072,-21.5918 l 10.1322,-17.9696 4.6979,0 c 2.5839,0 5.1833,0.4854 5.7765,1.0786 0.7714,0.7714 -0.1778,5.2564 -3.3334,15.75 -6.0236,20.0309 -6.1277,20.73 -3.2026,21.513 1.2966,0.3471 10.1199,0.6372 19.6074,0.6447 l 17.25,0.014 0,3.345 c 0,6.1292 -1.2403,6.4954 -23.1795,6.8433 -10.8122,0.1714 -19.948,0.6022 -20.3017,0.9572 -0.3538,0.3551 -3.0587,7.7801 -6.0109,16.5 -2.9523,8.72 -10.3493,30.4331 -16.4378,48.2515 -6.0886,17.8183 -11.0632,33.5683 -11.0548,35 0.022,3.6946 1.3622,5.353 4.3265,5.353 4.7223,0 18.3382,-9.6073 32.8118,-23.1519 9.1758,-8.5868 11.8464,-9.8317 11.8464,-5.5221 0,3.3985 -6.5024,11.6466 -18.1665,23.044 -15.1617,14.8148 -27.2217,23.1314 -39.5805,27.2948 -8.3711,2.82 -12.7106,2.7185 -15.7985,-0.3693 z m 97.0455,1.5005 c -2.7371,-1.1322 -6.1481,-4.9688 -7.4334,-8.3611 -6.0198,-15.8882 10.4595,-55.3881 37.0538,-88.8156 10.084,-12.6749 28.0503,-29.4637 37.7453,-35.2713 12.2051,-7.3113 22.3473,-10.598 32.7039,-10.598 8.2724,0 8.4969,0.065 12.4202,3.6098 2.1976,1.9854 4.5867,3.383 5.3091,3.1058 0.7223,-0.2772 3.2988,-4.9391 5.7254,-10.3598 2.4267,-5.4207 4.8764,-10.2148 5.4439,-10.6536 2.948,-2.2795 14.5318,1.4013 14.5318,4.6176 0,0.8014 -21.8624,57.3915 -26.1468,67.6802 -2.1334,5.1233 -18.7604,49.7299 -20.7623,55.7007 -5.889,17.5646 7.0516,15.4036 32.0556,-5.353 8.3427,-6.9256 10.8535,-7.813 10.8535,-3.8361 0,3.5606 -18.1607,21.4866 -29.0255,28.6504 -11.0968,7.3168 -18.4569,10.0165 -27.7991,10.1967 -6.1936,0.1195 -7.5448,-0.1585 -8.75,-1.7998 -3.2859,-4.4749 -1.7643,-11.3697 9.0412,-40.967 2.2602,-6.191 3.2642,-10.2611 2.6763,-10.849 -0.588,-0.588 -6.1372,4.2645 -14.792,12.9348 -28.86,28.9117 -58.172,45.6126 -70.8509,40.3683 z m 32.6106,-18.0767 c 12.6028,-6.5944 36.5464,-28.3779 48.126,-43.7841 14.4219,-19.1879 30.1049,-51.1964 28.1858,-57.5264 -2.2063,-7.277 -10.6946,-13.0567 -19.0679,-12.9835 -6.7582,0.059 -12.2858,2.82 -21.6598,10.8183 -16.4793,14.061 -31.2589,36.0795 -41.0686,61.1837 -4.1909,10.725 -7.2603,21.384 -8.657,30.0627 -2.0526,12.754 3.6741,17.7064 14.1415,12.2293 z m 133.3439,16.5762 c -4.8712,-4.8712 -4.298,-7.1038 20.0378,-78.0455 8.1129,-23.65 14.9628,-44.1741 15.222,-45.6091 0.6192,-3.4278 -1.1038,-3.8598 -15.4643,-3.8772 l -11.25,-0.014 0,-3.0214 c 0,-3.8879 1.3171,-4.4321 16.7115,-6.9052 6.7163,-1.079 13.0321,-2.401 14.0352,-2.9378 1.003,-0.5368 6.2646,-8.9081 11.6924,-18.6028 l 9.8686,-17.6266 5.0962,0.2969 c 4.6053,0.2683 5.1218,0.5377 5.3626,2.7969 0.1466,1.375 -1.6966,9.0162 -4.0961,16.9805 -2.3994,7.9642 -4.1653,15.2351 -3.9241,16.1575 0.6539,2.5002 3.1693,2.8334 21.5037,2.8483 l 16.75,0.014 0,3.0657 c 0,1.6862 -0.4658,3.9362 -1.0352,5 -0.9664,1.8058 -2.2783,1.9352 -19.75,1.948 -10.2931,0.01 -19.6789,0.2723 -20.8573,0.5885 -1.831,0.4913 -4.559,7.6491 -18.7651,49.2363 -9.1424,26.7638 -16.6089,49.7865 -16.5922,51.1615 0.059,4.8892 2.7749,6.4402 7.7442,4.4235 4.7754,-1.9381 20.5663,-13.9547 29.8952,-22.7497 8.8157,-8.3113 11.3604,-9.4018 11.3604,-4.8684 0,1.9575 -1.7379,4.8678 -5.75,9.6289 -3.1625,3.7529 -6.3858,7.6932 -7.1628,8.7561 -2.7963,3.825 -21.774,19.4723 -29.3249,24.1786 -8.7854,5.4757 -19.4846,9.5789 -25.0578,9.6099 -2.7151,0.015 -4.494,-0.6775 -6.25,-2.4334 z m 295.8538,1.4993 c -4.379,-1.8726 -5.5442,-5.2496 -5.0969,-14.7724 0.4426,-9.4232 0.8192,-10.5348 24.3165,-71.7724 14.3216,-37.3241 14.9083,-39.6297 10.3852,-40.8125 -3.8372,-1.0034 -15.2671,6.4033 -30.3605,19.674 -5.8702,5.1613 -8.5526,5.5472 -8.5526,1.2305 0,-1.7545 2.3121,-4.7829 7.9755,-10.4462 10.8511,-10.8512 23.5448,-20.2027 35.5245,-26.171 8.7019,-4.3354 10.7887,-4.9816 16.0757,-4.9784 5.0551,0 6.4409,0.3924 8.25,2.3181 1.1959,1.2729 2.1743,3.336 2.1743,4.5846 0,1.2486 -2.444,8.6446 -5.4311,16.4355 -2.9871,7.791 -12.2024,31.8233 -20.4783,53.4051 -8.276,21.5818 -15.3308,40.3693 -15.6774,41.75 -0.9846,3.923 0.3603,7.4737 3.2466,8.571 5.2789,2.0071 16.6704,-6.1393 38.2547,-27.3571 22.7664,-22.3798 37.3176,-43.051 57.8661,-82.2036 l 7.8724,-15 4.8197,-0.3108 c 2.6508,-0.1709 6.1039,0.2212 7.6735,0.8714 3.8557,1.597 3.7417,4.6631 -0.5829,15.6825 -24.4285,62.2449 -38.5633,100.8446 -38.5633,105.3096 0,3.4061 2.2704,5.3472 5.3502,4.5743 4.3438,-1.0903 14.9315,-8.9461 24.7219,-18.3432 5.3198,-5.1061 10.3783,-9.2838 11.2411,-9.2838 2.1592,0 2.9892,1.6589 2.268,4.5325 -0.7492,2.985 -16.711,19.8209 -24.9813,26.3494 -16.923,13.3586 -34.863,20.1243 -41.3375,15.5894 -4.7537,-3.3297 -4.2176,-5.8262 8.6902,-40.4682 6.6497,-17.8467 11.8502,-33.0745 11.5566,-33.8396 -0.8424,-2.1954 -3.028,-0.1425 -16.3277,15.3365 -22.3225,25.9801 -48.1535,49.5851 -61.9742,56.6334 -6.6401,3.3864 -14.836,4.649 -18.899,2.9114 z m 173.6917,-0.3346 c -1.375,-0.6931 -2.6434,-2.2581 -2.8186,-3.4777 -0.1752,-1.2196 6.4177,-22.3583 14.651,-46.975 19.7728,-59.1192 23.5781,-72.0476 22.2412,-75.5638 -2.3821,-6.2655 -12.2987,-2.6955 -23.7379,8.5457 -7.2768,7.1508 -10.3357,8.2568 -10.3357,3.7371 0,-3.2881 7.6012,-13.7347 16.4209,-22.568 9.2122,-9.2263 13.852,-11.4085 24.2572,-11.4085 7.7361,0 9.8133,1.6662 10.7724,8.6412 1.0811,7.8625 -1.0775,17.4086 -9.6272,42.5757 -7.3703,21.6951 -8.5101,26.7831 -6.0001,26.7831 0.4874,0 4.8253,-6.8495 9.6399,-15.2211 19.0803,-33.1767 36.8854,-56.8692 45.9816,-61.1856 4.4284,-2.1015 13.414,-2.081 16.4384,0.037 5.5379,3.8789 6.6939,14.9339 2.7094,25.9109 -3.0205,8.3214 -5.9756,11.6592 -9.9651,11.2555 -2.6829,-0.2715 -3.0806,-0.829 -4.6212,-6.4781 -1.974,-7.2378 -4.1103,-10.8515 -6.8368,-11.5644 -3.1441,-0.8222 -7.9054,2.1296 -12.3098,7.6316 -5.6669,7.0792 -19.5314,28.2853 -25.5879,39.1374 -6.8407,12.2572 -24.5294,47.8578 -32.2846,64.9764 -3.4883,7.7 -6.7675,14.5625 -7.2872,15.25 -1.2187,1.6124 -8.4715,1.5877 -11.6999,-0.04 z m 327.25,0.2586 c -2.8674,-1.1525 -2.96,-4.9394 -0.2831,-11.5854 1.0817,-2.6859 6.7268,-17.9334 12.5446,-33.8834 5.8177,-15.95 11.4393,-31.25 12.4925,-34 9.7395,-25.433 16.0614,-44.1944 15.7991,-46.8875 -0.297,-3.0501 -0.4041,-3.1101 -5.3416,-2.9907 -6.4596,0.1562 -13.8911,3.9767 -26.6195,13.6852 -7.5864,5.7864 -9.286,1.7195 -2.5696,-6.1489 13.5132,-15.8312 31.8584,-26.1581 46.4685,-26.1581 8.8781,0 10.2591,0.9291 10.2591,6.9018 0,2.6573 -0.8792,7.029 -1.9538,9.7148 -10.9822,27.4494 -22.1236,57.7394 -21.6714,58.9178 0.8869,2.3112 2.4398,1.7248 4.1401,-1.5633 3.6166,-6.9936 23.5537,-31.9994 34.7407,-43.5728 13.7105,-14.1841 22.0187,-20.8408 32.6322,-26.1459 6.6833,-3.3406 8.3045,-3.7281 17,-4.0636 8.799,-0.3394 9.9071,-0.1702 13.0976,2.0002 4.97,3.3809 5.9831,6.0907 5.9999,16.049 0.017,10.0148 -2.5146,19.1011 -11.4957,41.262 -6.2602,15.4471 -21.1258,50.2715 -22.5098,52.732 -2.0669,3.6745 -4.9788,12.3888 -4.9793,14.9014 -7e-4,3.8462 2.957,4.1225 9.7136,0.9075 6.0117,-2.8606 20.5721,-14.0467 24.0667,-18.4893 1.1039,-1.4034 2.9548,-2.5516 4.1131,-2.5516 4.578,0 1.3326,7.2367 -7.7973,17.3868 -3.663,4.0723 -17.5506,14.3028 -23.5259,17.3307 -7.5963,3.8494 -15.0802,6.1765 -22.2131,6.9073 -5.8313,0.5975 -6.6557,0.4438 -8.8924,-1.6575 -3.5981,-3.3802 -3.1478,-7.7221 2.1229,-20.4673 2.5019,-6.05 9.7133,-23.7842 16.0254,-39.4093 6.312,-15.6252 13.5327,-33.1319 16.046,-38.9039 8.6825,-19.9399 10.5204,-31.0978 5.886,-35.7323 -3.3387,-3.3387 -6.01,-3.094 -13.299,1.218 -10.9284,6.4649 -27.8779,22.9187 -43.3128,42.0459 -11.414,14.1445 -26.5028,38.935 -46.4291,76.2816 -4.255,7.975 -8.1893,15.0625 -8.7429,15.75 -1.1516,1.4301 -8.1664,1.5635 -11.5117,0.2188 z m 293.0937,0.056 c -25.6768,-5.4916 -32.6285,-39.5305 -16.411,-80.3559 6.0477,-15.2242 10.91,-23.2789 22.358,-37.0377 11.657,-14.0099 27.4601,-25.2137 41.1365,-29.1644 7.8571,-2.2696 21.3017,-2.287 29.0728,-0.037 8.2929,2.4005 16.0234,10.2551 19.261,19.5702 3.3137,9.5338 3.2169,28.0513 -0.215,41.1405 -6.9046,26.3339 -17.4296,44.9001 -35.9655,63.4439 -11.1856,11.1904 -19.0675,16.5861 -29.1933,19.9853 -8.5634,2.8746 -22.6867,4.0289 -30.0435,2.4555 z m 24.3283,-10.3645 c 16.4921,-8.3759 34.7117,-39.9136 46.8091,-81.0257 6.2187,-21.1334 6.5694,-31.6727 1.3933,-41.8644 -5.1063,-10.0544 -19.6272,-9.2162 -31.8642,1.8391 -9.427,8.5167 -25.6456,37.0538 -34.322,60.3903 -5.4157,14.5665 -9.8236,32.4991 -9.9551,40.5 -0.1191,7.2426 2.2286,14.5512 6.0551,18.8501 4.6107,5.18 13.2467,5.6972 21.8838,1.3106 z m 106.328,10.0518 c -1.5766,-0.7936 -2.6178,-2.275 -2.8189,-4.0108 -0.1804,-1.5568 2.7306,-11.5378 6.7011,-22.9769 10.1975,-29.3784 22.4927,-66.8352 27.1377,-82.6732 3.247,-11.0712 3.8413,-14.286 3.0338,-16.4099 -2.3608,-6.2094 -13.4265,-2.1539 -23.8868,8.7543 -7.1612,7.4679 -9.169,8.203 -9.1626,3.3544 0.01,-5.5391 12.4418,-21.9557 20.9957,-27.7196 7.0586,-4.7562 10.9072,-6.0304 18.215,-6.0304 7.5942,0 9.4591,1.076 10.856,6.2635 2.1077,7.8277 0.3701,16.4627 -8.753,43.4962 -7.883,23.3588 -8.9915,28.2403 -6.4131,28.2403 0.5322,0 3.3084,-4.1625 6.1692,-9.25 22.1072,-39.3142 38.9771,-62.3637 49.077,-67.0543 4.6379,-2.154 13.65,-2.2237 16.6409,-0.1288 5.5307,3.8738 6.6743,14.6581 2.7375,25.8148 -3.0292,8.5845 -5.8613,11.8211 -9.9887,11.4154 -2.8023,-0.2755 -3.1462,-0.7586 -4.7288,-6.6423 -4.9594,-18.4378 -11.8614,-15.6433 -30.4911,12.3452 -12.4495,18.7036 -26.7259,45.6759 -45.5031,85.9688 -4.3492,9.3328 -8.45,17.3134 -9.1127,17.7346 -1.8642,1.1849 -7.9281,0.9066 -10.7051,-0.4913 z m 124.25,0.2567 c -3.2639,-1.3119 -2.9162,-5.6807 1.3506,-16.9688 1.9749,-5.225 4.8593,-13.1 6.4096,-17.5 1.5504,-4.4 5.8064,-16.1 9.4578,-26 13.1908,-35.7637 21.6069,-60.0795 22.1747,-64.0676 0.7081,-4.9732 -1.2746,-7.4324 -5.9923,-7.4324 -5.2515,0 -16.7019,6.1811 -23.8672,12.884 -6.9485,6.4999 -9.7857,7.6215 -9.7795,3.866 0,-3.0076 2.5975,-7.0748 8.8981,-13.9596 11.2011,-12.2398 25.8254,-18.7904 41.9498,-18.7904 5.471,0 9.198,0.4496 9.9484,1.2 2.1916,2.1916 1.3564,10.3549 -1.8952,18.524 -3.8882,9.7681 -21.9048,57.3895 -21.9048,57.8985 0,0.2076 0.811,0.3775 1.8022,0.3775 1.1697,0 3.7784,-3.0704 7.4343,-8.75 13.135,-20.4061 28.1528,-38.4971 43.0387,-51.8457 14.2086,-12.7414 23.9607,-17.317 37.0245,-17.3717 12.2332,-0.051 15.3862,2.6327 16.4086,13.9674 0.8221,9.1131 -3.0498,21.9568 -15.4337,51.1959 -4.0849,9.6449 -5.0138,14.997 -2.3131,13.3279 0.5366,-0.3317 4.3221,-5.6477 8.4122,-11.8134 13.1426,-19.8123 22.7363,-31.9289 35.0717,-44.2949 17.3044,-17.3472 26.8201,-22.4155 42.0849,-22.4155 9.4345,0 13.6466,2.0118 16.7911,8.0199 4.0706,7.7776 0.3052,25.7299 -11.1124,52.9801 -2.1892,5.225 -5.3016,12.65 -6.9164,16.5 -1.6148,3.85 -6.8718,16.1183 -11.6822,27.2629 -4.8104,11.1446 -8.6031,21.2696 -8.4283,22.5 0.9659,6.7974 18.1276,-1.6743 31.7761,-15.686 4.8005,-4.9283 9.0418,-6.1648 9.0418,-2.6362 0,4.8004 -17.1344,22.3391 -29.5,30.196 -6.3327,4.0237 -17.376,8.0604 -25.1447,9.1912 -8.6385,1.2575 -11.861,-0.1759 -12.9048,-5.74 -0.6603,-3.5197 0.9323,-7.9472 14.0597,-39.0879 18.0362,-42.7851 28.8973,-70.9997 30.5346,-79.3221 1.5124,-7.6877 -0.2995,-12.6356 -5.0055,-13.6693 -5.654,-1.2418 -13.1551,3.427 -25.5549,15.9057 -23.9723,24.1249 -45.1416,54.5172 -72.4995,104.0857 -4.5534,8.25 -8.9574,15.7875 -9.7869,16.75 -1.687,1.9577 -7.5027,2.345 -11.6329,0.7748 -3.0516,-1.1603 -3.3584,-4.2272 -0.9811,-9.8069 0.8713,-2.0449 5.5576,-14.2929 10.4142,-27.2179 4.8565,-12.925 13.7708,-36.55 19.8094,-52.5 12.882,-34.0254 14.0798,-38.4403 11.8666,-43.7373 -2.2335,-5.3456 -5.384,-5.8329 -13.067,-2.0212 -15.542,7.711 -43.6106,38.1283 -60.6807,65.7585 -10.6433,17.2274 -13.2393,21.881 -33.3317,59.75 l -5.7037,10.75 -4.1955,-0.063 c -2.3076,-0.035 -5.2081,-0.4703 -6.4456,-0.9678 z m 253.75,-0.6562 c -4.9367,-2.5566 -8.0037,-8.9979 -7.9871,-16.7745 0.017,-7.9317 7.1981,-29.5167 14.1522,-42.5381 26.3584,-49.3558 64.6931,-83 94.5712,-83 6.7012,0 8.3249,0.3571 11.5316,2.5361 2.0526,1.3948 3.7321,2.9698 3.7321,3.5 0,0.5301 0.8343,0.9639 1.8539,0.9639 1.3822,0 2.9563,-2.4808 6.1866,-9.75 2.383,-5.3625 4.7538,-10.3125 5.2686,-11 2.4264,-3.2411 14.6909,0.1153 14.6909,4.0204 0,1.1234 -3.8948,11.9847 -8.6552,24.1361 -20.3173,51.8625 -38.1812,99.2331 -38.939,103.2566 -1.2288,6.5239 1.5395,9.0191 8.0208,7.2295 4.5089,-1.2449 17.4512,-9.7665 25.9394,-17.0793 6.8615,-5.9113 9.803,-6.8898 10.4598,-3.4795 0.4605,2.3914 -20.0337,22.8115 -28.8068,28.7025 -9.1172,6.1221 -18.4384,9.8028 -26.7912,10.5791 -6.6719,0.6201 -7.1865,0.5168 -9.638,-1.9347 -4.2771,-4.2771 -3.5065,-8.9016 5.5528,-33.3242 8.1502,-21.9717 7.3087,-24.4608 -3.8352,-11.3439 -12.5636,14.7879 -35.5813,33.0822 -51.522,40.9492 -12.2709,6.0559 -19.9808,7.3568 -25.7854,4.3508 z m 37.7025,-19.8795 c 12.0627,-7.0662 31.7395,-25.4543 43.892,-41.0173 10.7643,-13.7852 25.2807,-41.5496 27.6635,-52.9099 0.9686,-4.6179 0.8539,-5.3632 -1.3405,-8.7109 -3.0449,-4.645 -9.014,-8.537 -14.3115,-9.3314 -6.2455,-0.9365 -13.668,2.3452 -23.8401,10.5403 -21.2686,17.135 -42.8395,54.9307 -49.1986,86.2039 -1.8535,9.1153 -1.9272,11.4614 -0.4895,15.5856 2.058,5.9035 7.1081,5.8003 17.6247,-0.3603 z m 130.0475,19.5994 c -2.4251,-1.9204 -2.7485,-2.8484 -2.7371,-7.8551 0.014,-5.9893 1.3555,-10.245 25.9025,-82.1454 6.0965,-17.8574 11.0846,-33.4424 11.0846,-34.6334 0,-2.8813 -2.1944,-3.3684 -15.25,-3.3849 l -10.75,-0.014 0,-2.9648 c 0,-3.8523 1.2657,-4.44 14,-6.4995 18.237,-2.9496 16.9029,-2.1797 23.0071,-13.2754 2.9533,-5.3682 7.5522,-13.4728 10.2199,-18.0103 l 4.8504,-8.25 4.9927,0 c 3.4754,0 5.1645,0.4478 5.5581,1.4734 0.311,0.8104 -1.5032,8.3981 -4.0314,16.8616 -2.5282,8.4635 -4.5968,16.298 -4.5968,17.41 0,2.8919 2.241,3.2259 21.75,3.2413 l 17.25,0.014 0,2.7775 c 0,1.5276 -0.7005,3.7776 -1.5567,5 -1.511,2.1573 -2.0908,2.2229 -19.75,2.2362 -10.0063,0.01 -19.1917,0.2813 -20.412,0.6084 -2.6667,0.7149 -2.5688,0.4662 -18.4501,46.8779 -16.7041,48.8165 -17.9655,53.0166 -16.824,56.0191 1.1777,3.0974 4.5354,3.2651 9.9607,0.4973 5.138,-2.6212 22.1234,-16.3247 28.9979,-23.395 6.1956,-6.3719 9.0342,-7.2267 9.0342,-2.7205 0,3.9261 -6.5148,12.4075 -18.1557,23.6362 -16.232,15.6573 -34.7592,26.9893 -45.99,28.1294 -4.4965,0.4565 -5.7949,0.1947 -8.1043,-1.634 z m 99.6442,-0.5536 c -2.524,-3.8522 -1.4432,-8.2018 7.0969,-28.5597 4.2498,-10.1306 11.8861,-28.3192 16.9697,-40.4192 5.0835,-12.1 12.0095,-28.6116 15.391,-36.6924 6.4068,-15.3102 7.3053,-19.4263 4.4775,-20.5115 -2.3093,-0.8862 -12.0119,4.3515 -22.5595,12.1782 -8.9627,6.6505 -11.7698,7.3667 -11.7698,3.0026 0,-3.9811 19.1576,-20.0805 33,-27.732 12.1006,-6.6887 26.4948,-9.8501 29.8,-6.5449 3.1233,3.1233 1.9158,6.7853 -17.2459,52.3 -16.6768,39.6123 -26.8408,64.0615 -28.0055,67.3662 -1.654,4.6932 -0.4822,8.1338 2.7702,8.1338 5.0629,0 19.3828,-9.1088 30.1972,-19.2083 7.887,-7.3657 10.483,-8.1265 10.4852,-3.0731 0,2.1936 -1.9538,4.6834 -9.25,11.7814 -15.114,14.7036 -35.2118,27.1429 -47.6377,29.4848 -8.8889,1.6753 -11.8477,1.3505 -13.7193,-1.5059 z m 97.6058,1.2313 c -1.375,-0.6931 -2.6425,-2.2518 -2.8167,-3.4637 -0.1742,-1.2119 15.2229,-49.1256 34.2158,-106.475 18.993,-57.3493 35.5073,-107.9347 36.6986,-112.412 3.1318,-11.7707 2.3859,-14.6536 -4.6896,-18.1237 -10.0867,-4.947 -5.8408,-8.0815 20.0919,-14.8328 13.1444,-3.422 18.5,-4.1461 18.5,-2.5014 0,1.2558 -13.6105,41.4275 -26.9687,79.5984 -26.4689,75.6346 -27.3547,78.5 -24.2682,78.5 0.4543,0 2.5396,-2.2471 4.6341,-4.9936 5.4035,-7.0855 18.8792,-20.5574 27.1028,-27.0949 8.9838,-7.142 14.124,-10.0137 23.9556,-13.3833 7.255,-2.4866 8.9721,-2.6927 19.5,-2.3402 13.0848,0.438 16.2391,1.5765 20.7427,7.4865 2.433,3.1928 2.794,4.5417 2.7435,10.2511 -0.081,9.1392 -2.908,14.4683 -12.9707,24.4497 -14.9992,14.878 -33.9942,26.6293 -48.7032,30.1304 -9.3018,2.214 -11.7679,3.7501 -11.7679,7.3298 0,6.511 12.6059,37.0258 18.4737,44.719 1.3225,1.7338 3.8471,3.7499 5.6101,4.4802 2.9428,1.219 3.6465,1.097 8.5833,-1.4878 2.9578,-1.5486 7.5845,-5.2301 10.2817,-8.1812 9.4138,-10.3003 10.8756,-4.943 2.171,7.9567 -5.7678,8.5476 -14.1607,16.5508 -20.6521,19.6932 -7.1655,3.4688 -12.8136,2.4499 -17.9677,-3.2414 -4.442,-4.9049 -10.7344,-17.0952 -16.6594,-32.2742 -7.5138,-19.2491 -9.0958,-22.537 -12.0337,-25.009 -3.529,-2.9695 -6.84,-3.113 -12.5031,-0.542 -5.1935,2.3578 -6.3599,4.5412 -18.9134,35.4042 -5.1126,12.5692 -10.0023,23.9317 -10.866,25.25 -1.798,2.744 -7.2401,3.2668 -11.5244,1.107 z m 56.2719,-71.844 c 9.067,-2.4466 31.6933,-13.3552 42.7281,-20.6003 12.8715,-8.4509 21.8009,-18.4889 24.4839,-27.5237 1.2589,-4.239 1.2692,-5.3974 0.074,-8.2586 -6.0272,-14.425 -30.0964,-5.8476 -56.0959,19.9907 -11.2755,11.2056 -18.0023,19.3533 -22.7981,27.6136 -2.8987,4.9927 -3.3288,7.8469 -1.4636,9.7121 1.679,1.679 4.0043,1.5129 13.0719,-0.9338 z m 209.1233,71.7594 c -3.7313,-1.6909 -4.3637,-3.7037 -4.3815,-13.9474 -0.013,-7.4139 0.4351,-9.005 8.589,-30.5 4.7315,-12.473 10.535,-27.8532 12.8967,-34.1782 2.3616,-6.325 6.7874,-18.1388 9.8349,-26.2528 3.0475,-8.1141 5.6208,-15.5391 5.7185,-16.5 0.6089,-5.9932 -1.7852,-7.0296 -8.7423,-3.7845 -5.144,2.3993 -11.8104,7.3769 -22.3967,16.7228 -3.6224,3.198 -7.3349,5.8145 -8.25,5.8145 -2.9376,0 -1.9279,-4.8411 2.0128,-9.6502 8.4126,-10.2665 33.9105,-29.1809 44.861,-33.278 6.6145,-2.4748 15.0999,-2.7144 18.2399,-0.5151 4.5791,3.2073 3.0345,8.5065 -18.7841,64.4433 -20.0513,51.406 -21.1886,54.8982 -19.1316,58.7418 3.877,7.2442 15.6467,-0.1352 41.7441,-26.1728 23.8436,-23.7889 36.5685,-42.0043 57.4991,-82.3089 l 7.395,-14.24 4.6008,-0.01 c 2.5304,-0.01 6.0179,0.4839 7.75,1.0877 3.9357,1.372 4.0735,3.7138 0.7195,12.2316 -1.3364,3.3939 -4.743,12.2456 -7.5703,19.6706 -2.8273,7.425 -6.202,16.2 -7.4994,19.5 -3.876,9.8588 -13.246,34.9063 -19.573,52.3219 -6.077,16.7275 -6.5944,20.5143 -2.9603,21.6677 4.2399,1.3457 14.9271,-5.758 28.3846,-18.8669 9.4664,-9.2212 12.6481,-10.6583 12.6481,-5.7125 0,8.4208 -31.0405,35.8276 -47.6462,42.0684 -3.2196,1.2101 -8.1778,2.4439 -11.0182,2.7418 -4.6004,0.4826 -5.4468,0.2593 -7.75,-2.0439 -3.2829,-3.2829 -3.3132,-6.8013 -0.1287,-14.916 1.3513,-3.4433 4.7499,-12.5605 7.5526,-20.2605 2.8026,-7.7 7.1495,-19.3251 9.6596,-25.8335 2.9041,-7.5298 4.2161,-12.1813 3.6075,-12.7899 -1.3179,-1.3179 -3.2303,0.5027 -15.8848,15.1234 -22.3073,25.7732 -50.284,51.3754 -62.8678,57.5321 -6.744,3.2995 -14.5759,4.1566 -19.1288,2.0935 z m 172.8548,0.6687 c -3.7073,-0.7141 -2.8398,-6.2337 3.8216,-24.3144 3.3394,-9.064 7.7935,-21.2049 9.8979,-26.9799 2.1044,-5.775 7.7383,-21.075 12.5196,-34 14.0422,-37.9591 14.7334,-40.1537 13.5061,-42.8807 -0.9654,-2.1452 -1.5116,-2.3204 -5.5204,-1.7709 -5.7085,0.7824 -14.4971,5.2349 -22.9259,11.6146 -7.5427,5.709 -9.5489,6.2271 -9.5489,2.4656 0,-1.8914 2.1817,-4.7401 8.25,-10.7723 14.4761,-14.3898 26.3234,-20.665 40.4966,-21.45 10.2701,-0.5688 11.2534,0.088 11.2534,7.518 0,5.5099 -1.1148,8.6636 -20.0692,56.7757 -2.1668,5.5 -3.9376,10.3375 -3.9352,10.75 0,0.4125 0.8142,0.75 1.8041,0.75 1.1443,0 4.1181,-3.3684 8.1664,-9.25 16.8891,-24.5375 38.9022,-47.8063 55.8056,-58.9889 11.2848,-7.4656 26.5199,-10.2252 35.5103,-6.432 4.9401,2.0842 7.6664,7.8147 7.6935,16.1709 0.039,11.9527 -6.1291,29.2664 -30.4084,85.3585 -5.3228,12.2972 -9.5404,23.3222 -9.3724,24.5 0.9427,6.6122 18.1048,-1.7685 31.2677,-15.2689 3.1103,-3.19 5.8162,-5.0896 7.25,-5.0896 3.4986,0 2.8688,2.9904 -2.0316,9.6473 -12.0142,16.3201 -34.0561,30.1179 -50.9288,31.8804 -9.3398,0.9756 -11.752,-0.5841 -11.752,-7.5986 0,-3.9192 1.4036,-8.3698 6.3791,-20.2269 3.5085,-8.3612 10.4683,-25.4301 15.4662,-37.9308 4.998,-12.5007 11.1562,-27.4803 13.685,-33.2879 4.9129,-11.2827 9.4697,-25.3299 9.4697,-29.1918 0,-4.2365 -2.7011,-9.1786 -5.3846,-9.8521 -3.3189,-0.833 -11.8973,3.1114 -19.3754,8.9089 -6.3198,4.8995 -24.5283,23.2929 -30.8382,31.1515 -16.0513,19.9906 -28.3641,40.0142 -52.8828,86 -2.6392,4.95 -5.4804,9.7875 -6.3138,10.75 -1.4703,1.6982 -5.5441,2.0865 -10.9552,1.0443 z m 179.1016,-0.3868 c -6.8301,-1.9786 -12.3603,-12.4346 -12.344,-23.339 0.027,-18.2519 9.1759,-43.4461 23.9914,-66.0685 12.1458,-18.546 37.3363,-41.5774 55.501,-50.7439 6.4959,-3.278 18.2563,-6.9011 25.2997,-7.7941 9.6235,-1.2201 14.8314,0.081 20.5805,5.1415 3.4127,3.0039 4.632,3.5868 5.4476,2.604 1.2183,-1.4679 27.1651,-74.9054 30.819,-87.2272 2.2845,-7.7041 2.353,-8.545 0.9661,-11.8643 -0.8824,-2.1119 -3.3736,-4.8983 -6.0934,-6.8153 -7.1569,-5.0447 -6.1853,-6.7366 5.4805,-9.5431 11.9875,-2.884 32.0028,-4.2329 31.9942,-2.1562 -0.01,1.3976 -5.6617,17.5281 -21.0025,59.8986 -23.5409,65.0193 -50.5286,145.6967 -56.4217,168.6685 -1.7245,6.7218 -0.9292,11.3315 1.9549,11.3315 4.6662,0 17.5402,-9.1373 30.458,-21.6175 5.9106,-5.7104 11.2092,-10.3825 11.7748,-10.3825 2.5186,0 2.1177,3.6147 -0.9796,8.8322 -4.1221,6.9438 -22.1491,25.3139 -30.9012,31.4891 -10.4741,7.3903 -17.2107,10.1156 -25.0886,10.1497 -9.266,0.04 -10.3205,-1.1311 -10.1854,-11.3112 0.09,-6.7802 0.8867,-10.0066 6.3481,-25.7066 10.0362,-28.8514 9.5969,-27.308 8.1711,-28.7101 -1.0101,-0.9933 -1.6014,-0.8192 -2.9431,0.8668 -0.9234,1.1605 -6.3934,8.1355 -12.1555,15.5 -18.7339,23.9438 -37.3847,40.4893 -51.745,45.9039 -9.5517,3.6015 -22.1377,4.8605 -28.9269,2.8937 z m 27.9694,-14.5474 c 10.8758,-5.4441 18.9889,-11.6008 32.0353,-24.3101 20.1292,-19.6091 31.9173,-35.1799 41.2584,-54.4976 11.6135,-24.017 11.9268,-41.5034 0.8268,-46.1413 -6.2725,-2.6208 -14.8345,0.8097 -26.6481,10.6771 -18.3266,15.3075 -44.4752,50.0536 -57.8808,76.9118 -7.6273,15.2812 -10.2309,23.0521 -10.3311,30.8344 -0.075,5.808 0.1613,6.5434 2.8408,8.8502 3.7437,3.223 7.8926,2.6842 17.8987,-2.3245 z m 542.0974,14.7323 c -5.1974,-2.2555 -9.4008,-10.3964 -9.4128,-18.2305 -0.011,-7.417 8.4176,-31.6197 15.2756,-43.8619 18.5317,-33.081 43.8702,-61.1241 65.8948,-72.9283 11.9912,-6.4268 18.8897,-8.308 29.0145,-7.9123 8.5585,0.3345 8.7855,0.409 12.6018,4.1367 4.6662,4.5577 4.4954,4.6964 10.2079,-8.2917 2.2971,-5.2225 4.6992,-9.8281 5.3381,-10.2347 3.0087,-1.9143 12.0177,0.1585 13.6086,3.131 0.6504,1.2154 -0.7866,6.0332 -5.1139,17.1449 -21.1646,54.3464 -27.8161,71.605 -34.2973,88.9908 -4.0056,10.745 -7.5984,20.9724 -7.9838,22.7275 -2.7447,12.4964 9.8065,9.4656 30.9507,-7.4738 10.0817,-8.0768 13.4974,-9.5662 13.4974,-5.8852 0,1.9522 -9.3168,12.5504 -16.6728,18.9658 -14.302,12.4732 -24.9886,18.2689 -36.6525,19.8782 -8.5038,1.1732 -12.2064,0.113 -13.7459,-3.9361 -1.525,-4.0112 -0.3972,-8.8357 6.7947,-29.0647 5.8613,-16.4864 6.8954,-21.3011 4.5579,-21.2215 -0.4298,0.015 -3.7064,3.4235 -7.2814,7.5753 -15.2196,17.6751 -41.7511,37.9934 -57.9478,44.3775 -6.0008,2.3653 -15.5555,3.4487 -18.6338,2.113 z m 37.216,-21.276 c 17.1569,-10.3551 38.6097,-32.0999 51.6137,-52.3164 6.3125,-9.8136 14.5307,-26.5111 17.8049,-36.1755 l 2.7698,-8.1755 -2.042,-4.1272 c -2.2692,-4.5865 -7.3705,-8.5472 -12.9613,-10.0634 -5.1659,-1.4009 -12.1074,0.3407 -18.8195,4.7218 -7.8821,5.1448 -23.702,21.4683 -29.8689,30.8198 -12.3892,18.787 -24.306,47.2712 -27.2029,65.0216 -0.9685,5.9348 -0.9037,7.6012 0.4185,10.7658 2.7633,6.6135 6.7185,6.5116 18.2877,-0.471 z m 129.1156,20.2161 c -5.7466,-4.5506 -5.8088,-4.3164 25.7573,-96.974 9.0936,-26.6928 9.5793,-28.522 7.8999,-29.75 -1.235,-0.9031 -5.4481,-1.3085 -13.5983,-1.3085 l -11.8089,0 0,-2.9648 c 0,-3.8523 1.2657,-4.44 14,-6.4995 18.8974,-3.0564 16.2784,-1.0356 27.9712,-21.5817 l 10.2722,-18.0501 5.1283,0.2981 c 6.5924,0.3831 6.7093,1.1622 2.3004,15.334 -4.7105,15.1415 -6.1733,21.2957 -5.2757,22.1962 0.421,0.4223 9.279,0.9076 19.6845,1.0784 l 18.9191,0.3106 0,3.2844 c 0,6.1367 -1.4893,6.5927 -21.5787,6.6081 -19.414,0.015 -21.9397,0.3268 -22.9448,2.8348 -0.8884,2.2168 -21.3006,61.8393 -27.6011,80.6209 -2.7619,8.2331 -5.0578,16.2415 -5.102,17.7965 -0.1745,6.1353 4.446,6.5743 12.8194,1.2179 6.735,-4.3084 24.2346,-18.5505 29.3534,-23.8894 4.1669,-4.3461 7.0538,-4.7506 7.0538,-0.9883 0,3.1734 -3.7445,8.1206 -14.9579,19.7624 -17.5951,18.2674 -37.394,30.9995 -50.2318,32.3026 -4.4485,0.4515 -5.7566,0.1856 -8.0603,-1.6386 z m 94.5,0.9363 c -4.5174,-1.8157 -6.3165,4.244 34.7277,-116.9688 28.2513,-83.4326 37.7644,-112.1084 38.5098,-116.0817 0.929,-4.9522 -0.808,-8.4805 -5.9644,-12.1151 -7.8936,-5.564 -6.7152,-6.5826 12.4769,-10.7848 9.2604,-2.0276 25,-3.8059 25,-2.8245 0,0.2697 -2.7354,8.0989 -6.0787,17.3982 -3.3433,9.2993 -6.6692,18.7079 -7.391,20.9079 -0.7217,2.2 -3.8625,11.2 -6.9795,20 -6.3333,17.8802 -11.7081,33.427 -38.4903,111.3351 -2.9529,8.5899 -3.3477,12.1683 -1.3419,12.1627 0.4298,0 4.5904,-5.0637 9.2459,-11.25 9.7825,-12.9991 31.1125,-34.7546 42.1129,-42.9529 17.9229,-13.3576 27.2411,-17.1961 40.4064,-16.6452 9.8168,0.4108 12.7649,2.0186 16.2662,8.8707 1.8821,3.6834 2.25,6.0107 2.25,14.2336 0,15.4801 -3.9565,31.2147 -13.9816,55.6032 -10.2622,24.9654 -19.2072,39.2961 -33.5184,53.6997 -11.1566,11.2287 -18.2539,15.5094 -26.9035,16.2267 -7.5227,0.6238 -12.2843,-1.6027 -13.136,-6.1425 -0.3639,-1.9399 -0.131,-5.1094 0.5205,-7.0836 2.1099,-6.3931 6.7928,-7.1945 14.2138,-2.4325 9.3275,5.9855 13.0058,3.9056 20.9026,-11.8196 9.4769,-18.8714 23.4903,-63.9807 27.975,-90.0515 2.1612,-12.5635 -2.0855,-20.1471 -10.5262,-18.7973 -11.9204,1.9061 -36.1015,22.7228 -57.6743,49.6498 -13.1798,16.4509 -23.9557,33.7113 -39.8913,63.8964 -5.6612,10.7234 -10.9676,20.2847 -11.7919,21.2472 -1.6274,1.9003 -7.1041,2.2602 -10.9387,0.7188 z m 191.5887,-0.4744 c -15.2193,-4.908 -21.9866,-28.8863 -15.4381,-54.7013 6.3958,-25.2131 18.1916,-45.5954 37.5159,-64.8246 17.0591,-16.9753 31.6647,-25.489 48.1024,-28.0394 12.5061,-1.9404 20.7938,1.1776 26.1451,9.8363 1.8492,2.9921 2.2547,5.0158 2.1665,10.8128 -0.1408,9.2464 -2.5763,14.7312 -9.9952,22.5091 -10.7565,11.2771 -27.5603,19.8937 -58.5727,30.0348 l -18.7374,6.1271 -1.029,3.6254 c -2.4019,8.4622 -4.183,22.0206 -3.7603,28.6254 0.9405,14.6977 10.2622,23.8521 22.43,22.0274 6.3431,-0.9512 17.8073,-7.1513 26.7801,-14.4833 7.7362,-6.3215 10.554,-7.1083 10.554,-2.9469 0,2.674 -14.1887,17.0278 -22,22.256 -9.1562,6.1284 -19.9823,9.7675 -30.4577,10.2381 -6.295,0.2829 -10.4585,-0.05 -13.7036,-1.0969 z m 26.6546,-80.9557 c 25.6165,-9.642 46.5934,-27.2407 52.0494,-43.6672 1.9099,-5.7503 1.3702,-9.0495 -2.0379,-12.4576 -10.4036,-10.4036 -39.8378,14.4371 -56.5925,47.7606 -2.1518,4.2796 -3.9123,8.4661 -3.9123,9.3033 0,2.1618 2.9586,1.897 10.4933,-0.9391 z m 88.7567,81.4301 c -1.6293,-0.6549 -2.25,-1.7284 -2.25,-3.8913 0,-3.2038 -0.053,-3.0501 23.2992,-67.1327 20.1614,-55.3257 20.3888,-56.114 17.1294,-59.3734 -4.1548,-4.1548 -17.9796,1.3352 -28.7622,11.4218 -6.6704,6.2399 -9.6664,7.2156 -9.6664,3.1482 0,-2.9839 8.1944,-13.398 14.9964,-19.0588 7.259,-6.041 11.1258,-8.1245 20.3589,-10.9699 7.8304,-2.4132 23.3862,-2.9712 25.4447,-0.9127 2.5193,2.5193 1.302,10.1844 -3.7125,23.3764 -2.7019,7.108 -8.3269,21.8765 -12.5,32.819 -4.1731,10.9425 -7.5875,20.055 -7.5875,20.25 0,0.195 0.868,0.3546 1.929,0.3546 1.3249,0 3.4372,-2.4266 6.7459,-7.75 10.612,-17.0736 29.2277,-40.1028 40.8251,-50.5042 16.0832,-14.4246 24.9275,-18.9672 38.0831,-19.5603 11.447,-0.516 14.4785,0.7904 16.9694,7.3129 3.4901,9.1387 0.5446,22.3383 -11.2463,50.3981 -6.4326,15.308 -7.7178,19.7847 -5.8062,20.2255 0.55,0.1268 3.8557,-4.0113 7.346,-9.1957 26.4703,-39.319 47.4456,-61.0057 64.7689,-66.9658 7.8722,-2.7085 20.6424,-2.7107 25.0808,0 5.6158,3.4242 6.8134,6.3615 6.7294,16.5046 -0.1117,13.4748 -2.3867,20.0427 -26.1081,75.3747 -7.3886,17.2344 -13.295,32.3094 -13.1254,33.5 0.9578,6.7236 18.198,-1.8288 31.7666,-15.7584 4.7036,-4.8288 9.0418,-6.1612 9.0418,-2.777 0,2.3881 -7.5593,12.5462 -13.6364,18.3246 -6.5158,6.1956 -18.4263,14.0699 -26.2042,17.3242 -3.4873,1.4591 -9.85,3.1644 -14.1393,3.7896 -6.8838,1.0033 -8.1033,0.9372 -10.3936,-0.5635 -5.6302,-3.689 -5.2095,-5.7304 7.3519,-35.6748 32.3348,-77.0813 36.3967,-88.6662 33.8253,-96.4722 -3.8866,-11.7983 -18.7968,-3.5691 -41.7907,23.0651 -19.1321,22.1609 -33.0513,42.8297 -55.833,82.9071 -17.0541,30.0015 -15.3531,27.8339 -21.3877,27.2541 -2.7179,-0.2612 -5.6862,-1.2195 -6.5963,-2.1296 -1.5396,-1.5396 -1.5267,-2.0188 0.1865,-6.8896 2.8502,-8.1038 10.7369,-29.235 19.1221,-51.2349 4.1926,-11 9.3745,-24.7279 11.5154,-30.5064 2.1409,-5.7786 5.2255,-13.7388 6.8546,-17.6895 1.6291,-3.9507 3.7054,-10.5242 4.6139,-14.6078 1.4836,-6.6685 1.4986,-7.7913 0.1476,-11.0249 -2.0639,-4.9394 -5.2997,-5.6298 -11.9602,-2.5516 -17.4287,8.0548 -49.4962,44.1471 -67.8626,76.3802 -6.6195,11.6173 -19.5459,35.1975 -26.7241,48.75 l -6.2235,11.75 -4.1828,-0.063 c -2.3006,-0.035 -5.1954,-0.4703 -6.4329,-0.9678 z m 253.17,-0.7847 c -4.0907,-2.5872 -6.7173,-8.3232 -7.2206,-15.7685 -0.3528,-5.2193 0.2471,-8.0548 4.2201,-19.9445 5.1421,-15.3886 10.9067,-26.9965 20.843,-41.9711 17.806,-26.8345 39.3394,-48.3775 57.2375,-57.263 12.3392,-6.1257 17.5393,-7.4732 27.3598,-7.0897 8.6921,0.3394 9.1618,0.4791 12.4992,3.7149 1.9073,1.8492 4.0152,3.1797 4.6842,2.9567 0.6691,-0.223 3.3135,-5.111 5.8765,-10.8622 4.255,-9.5478 4.9158,-10.4861 7.6021,-10.7955 4.0047,-0.4612 10.2452,1.5308 11.3532,3.6241 0.6677,1.2612 -2.499,10.4126 -11.9725,34.6003 -21.1288,53.9458 -35.163,91.8449 -35.6755,96.3407 -0.4353,3.8185 -0.2347,4.3203 2.0781,5.1996 1.5998,0.6082 3.7633,0.6281 5.7689,0.053 4.9832,-1.4292 15.5855,-8.2233 24.926,-15.973 8.4802,-7.0359 11.1662,-8.097 11.8258,-4.672 0.4605,2.3914 -20.0337,22.8115 -28.8068,28.7025 -9.1172,6.1221 -18.4384,9.8028 -26.7912,10.5791 -6.7444,0.6269 -7.1655,0.5378 -9.7691,-2.0658 -2.4499,-2.4499 -2.6675,-3.235 -2.1852,-7.8852 0.2946,-2.8404 3.5035,-13.169 7.131,-22.9524 3.6275,-9.7834 6.5955,-18.4194 6.5955,-19.191 0,-3.4912 -2.5696,-2.1469 -8.7869,4.5968 -24.4362,26.5053 -53.0833,46.1576 -69.2131,47.481 -5.336,0.4379 -7.0515,0.1845 -9.58,-1.4147 z m 38.3045,-19.7638 c 5.814,-3.4058 18.4919,-13.5211 26.1154,-20.8366 17.5965,-16.8856 34.9566,-43.2262 43.104,-65.4019 3.7094,-10.0964 3.7859,-12.5212 0.5424,-17.2016 -5.9135,-8.5331 -16.4129,-10.7258 -26.8408,-5.6055 -7.6956,3.7787 -23.4269,18.8949 -31.5816,30.3468 -17.0469,23.9393 -32.8097,66.1706 -29.1978,78.226 2.0487,6.8379 6.7789,6.9631 17.8584,0.4728 z m 130.0255,19.6122 c -2.4291,-1.9235 -2.7469,-2.8402 -2.7235,-7.8551 0.029,-6.2124 -0.2966,-5.1709 22.8559,-73.0956 7.7647,-22.7801 14.1176,-42.4151 14.1176,-43.6334 0,-2.9376 -2.1335,-3.4181 -15.25,-3.4347 l -10.75,-0.014 0,-2.9648 c 0,-3.8523 1.2657,-4.44 14,-6.4995 5.775,-0.934 12.075,-2.111 14,-2.6156 3.8426,-1.0071 3.5833,-0.6362 16.3776,-23.4201 l 7.3002,-13 5.1723,-0.3026 c 3.9485,-0.2311 5.3132,0.064 5.7679,1.2495 0.3276,0.8537 -1.2761,7.8236 -3.5637,15.4887 -5.6697,18.9974 -5.8889,20.609 -2.9117,21.406 1.2966,0.3471 10.1199,0.6372 19.6074,0.6447 l 17.25,0.014 0,3.345 c 0,6.206 -1.4475,6.6533 -21.5787,6.6687 -9.8567,0.01 -18.9124,0.2793 -20.1237,0.6041 -2.2145,0.5938 -3.9291,4.3355 -9.1106,19.8822 -1.0999,3.3 -7.0326,20.625 -13.1839,38.5 -13.3841,38.8928 -14.1458,41.4946 -13.0162,44.4654 2.4491,6.4418 10.6242,2.2048 33.3414,-17.28 5.4055,-4.6364 10.0662,-9.0498 10.357,-9.8076 0.2908,-0.7578 1.3805,-1.3778 2.4217,-1.3778 1.4513,0 1.893,0.7252 1.893,3.1082 0,3.998 -6.6633,12.4712 -19.2602,24.4917 -15.8111,15.0875 -33.8122,25.9425 -44.8855,27.0666 -4.4965,0.4565 -5.7949,0.1947 -8.1043,-1.634 z m 100.4243,-0.347 c -3.9853,-4.2421 -3.9434,-4.3729 18.3539,-57.1855 3.4831,-8.25 9.3214,-22.2 12.974,-31 3.6527,-8.8 8.1839,-19.6485 10.0695,-24.1077 3.7969,-8.9794 4.3126,-13.1157 1.7576,-14.0962 -2.2867,-0.8775 -12.0639,4.3597 -21.8293,11.6929 -8.749,6.5699 -11.5,7.4322 -11.5,3.605 0,-3.354 15.3401,-17.5496 26.4961,-24.5192 14.1283,-8.8266 31.4946,-13.6841 35.3039,-9.8748 2.1872,2.1872 1.2503,7.6585 -3.1749,18.5411 -6.4301,15.8131 -22.6508,54.6978 -39.241,94.0693 -6.087,14.4455 -3.5135,18.2781 8.1413,12.1246 7.6443,-4.0362 15.3493,-9.7682 23.1863,-17.249 6.5785,-6.2796 9.2883,-6.8982 9.2883,-2.1202 0,6.1522 -25.5653,27.8232 -42.2873,35.8458 -14.1099,6.7695 -23.7835,8.2708 -27.5384,4.2739 z m 96.5757,1.1756 c -2.0343,-0.7603 -2.75,-1.7065 -2.75,-3.6357 0,-1.4344 11.2143,-36.3844 24.9207,-77.6667 48.6948,-146.664 48.7885,-146.9648 47.6484,-153.0421 -0.5352,-2.8529 -1.5181,-3.899 -5.8466,-6.223 -6.9592,-3.7364 -7.2076,-5.7253 -1.0466,-8.3789 11.7489,-5.0603 39.3243,-11.5834 39.324,-9.3024 -4e-4,2.2824 -10.5409,33.2667 -40.0204,117.6414 -8.1776,23.4057 -12.9332,38.4174 -12.5132,39.5 0.5488,1.4149 1.9305,0.3229 7.2803,-5.7537 8.5919,-9.7591 20.2239,-20.9558 27.7534,-26.7148 6.6645,-5.0974 19.5166,-11.515 26.6414,-13.3031 6.3364,-1.5902 25.4863,-0.9212 29.2677,1.0225 4.5547,2.3412 8.4855,7.9475 9.1934,13.1119 1.4002,10.2154 -3.9124,19.4661 -18.7363,32.6249 -14.2725,12.6693 -29.5873,21.347 -44.3475,25.1282 -10.8961,2.7913 -11.3301,3.3607 -9.2299,12.1113 2.0465,8.5272 9.3417,26.1706 14.4796,35.0191 2.6187,4.5098 4.9157,7.1124 7.502,8.5 l 3.7277,2 5.5234,-2.8843 c 3.0378,-1.5864 7.7301,-5.2989 10.4273,-8.25 5.1847,-5.673 8.0512,-6.8243 8.0512,-3.2337 0,2.4961 -2.4885,6.8374 -9.1596,15.9796 -3.3245,4.5559 -7.0813,8.1316 -12.0825,11.5 -6.5761,4.4292 -7.7928,4.8884 -12.9524,4.8884 -5.1306,0 -6.0446,-0.3394 -9.231,-3.4278 -5.2791,-5.1167 -14.3303,-23.638 -22.6159,-46.2785 -5.2531,-14.3541 -9.8141,-17.3116 -19.7461,-12.8038 -5.0811,2.3061 -5.3472,2.8173 -20.0435,38.5101 l -9.8818,24 -4.3936,0.1944 c -2.4165,0.107 -5.6311,-0.268 -7.1436,-0.8333 z m 55.8135,-71.8073 c 11.1598,-3.0926 22.9456,-8.4756 36.7516,-16.786 24.4532,-14.7192 36.8448,-31.7439 30.3356,-41.6781 -2.476,-3.7789 -7.9525,-5.9215 -13.1452,-5.1428 -17.0567,2.5578 -49.4567,29.4465 -63.2692,52.5068 -7.527,12.5665 -5.3432,15.1654 9.3272,11.1001 z m -5446.56327,65.6962 c -10e-5,-1.5125 0.3373,-2.7647 0.7498,-2.7827 3.305,-0.1442 14.5699,-1.9558 18.0567,-2.9039 5.9121,-1.6075 11.7349,-7.1941 15.6407,-15.0061 4.2436,-8.4876 6.7792,-16.2494 40.03597,-122.5573 2.4088,-7.7 6.4711,-20.525 9.0272,-28.5 10.3809,-32.3876 12.0505,-41.0806 9.0167,-46.9472 -1.6364,-3.1644 -7.863,-6.5467 -14.0273,-7.6198 -2.2,-0.3829 -4.7875,-1.1029 -5.75,-1.5998 -2.0051,-1.0353 -2.3737,-5.4411 -0.5,-5.9762 0.6875,-0.1964 36.0575,-0.2363 78.6,-0.089 72.8847,0.2528 77.3113,0.3683 76.6803,2 -0.5333,1.3792 -5.7833,18.7758 -12.4429,41.2318 -0.5563,1.8757 -1.5322,2.5781 -3.908,2.8129 l -3.1665,0.3129 0.6411,-9.0323 c 1.0702,-15.0762 -2.6226,-21.1502 -15.2249,-25.0427 -11.5631,-3.5715 -52.8523,-5.4838 -63.0359,-2.9196 -3.9178,0.9865 -4.7877,1.7221 -6.8003,5.75 -1.2693,2.5403 -6.0102,16.5438 -10.5354,31.1188 -4.5251,14.575 -9.291,29.875 -10.5909,34 -7.1835,22.7953 -8.1704,26.4165 -7.6952,28.234 1.018,3.8928 5.8691,4.7663 26.4465,4.762 29.3748,-0.01 44.1364,-3.0797 50.7013,-10.5567 1.5975,-1.8195 5.0057,-7.1627 7.5737,-11.8738 4.4553,-8.1734 4.8256,-8.5655 8.0881,-8.5655 1.8804,0 3.419,0.4048 3.419,0.8996 0,0.4949 -1.532,4.8824 -3.4045,9.75 -4.7562,12.3644 -12.4624,36.865 -15.5222,49.3504 l -2.5733,10.5 -3.25,0.3134 -3.25,0.3133 0,-8.5955 c 0,-19.2403 -4.2968,-21.4951 -42.4229,-22.2626 -28.9333,-0.5824 -30.4644,-0.2849 -33.3735,6.4851 -1.1217,2.6105 -3.6003,9.9213 -5.5079,16.2463 -1.9077,6.325 -5.1501,16.9 -7.2055,23.5 -14.6774,47.1299 -15.4159,53.9465 -6.3458,58.5737 3.2267,1.6461 15.6015,3.8837 21.672,3.9187 0.8422,0 1.2025,0.9873 1,2.7272 l -0.3164,2.7197 -45.2498,0.03 -45.24987,0.03 -10e-5,-2.75 z m 1713.99987,0.061 c -1e-4,-2.4622 0.4002,-2.7361 4.7499,-3.2501 10.4171,-1.2312 15.9004,-2.6743 20.2231,-5.3224 3.8039,-2.3304 5.2488,-4.2078 9.047,-11.756 2.486,-4.9406 5.3228,-11.4578 6.304,-14.4828 0.9812,-3.025 7.6387,-24.175 14.7944,-47 7.1557,-22.825 18.4162,-58.5158 25.0232,-79.3129 6.6071,-20.7971 12.6938,-41.1519 13.5261,-45.233 1.4178,-6.9526 1.3972,-7.6534 -0.3273,-11.1226 -2.6629,-5.3569 -6.2763,-7.5164 -15.5907,-9.3177 -7.7593,-1.5006 -8.2686,-1.7565 -8.5662,-4.3046 -0.1741,-1.4901 0.1634,-2.7192 0.75,-2.7314 0.5865,-0.012 20.3039,-0.035 43.8164,-0.051 l 42.75,-0.029 0.3131,2.5163 c 0.2426,1.95 -0.2075,2.6256 -2,3.0024 -1.2722,0.2673 -6.0999,1.2118 -10.7282,2.0987 -14.8053,2.8373 -19.0627,6.46 -24.9414,21.2233 -4.2422,10.6535 -51.3587,160.3482 -55.1636,175.2616 -2.8958,11.35 -2.3724,17.3667 1.8383,21.1289 3.3614,3.0034 8.7264,4.8492 14.1818,4.8792 6.2433,0.034 8.142,0.9634 7.8038,3.8188 l -0.3038,2.5654 -43.7499,0.054 -43.75,0.054 0,-2.6887 z m 2152.9998,-0.016 c 1e-4,-2.3608 0.4769,-2.7747 3.7501,-3.2554 24.0752,-3.5358 26.2089,-5.3889 38.7649,-33.6671 4.4498,-10.0215 23.273,-57.0713 34.7552,-86.8728 21.4874,-55.7695 25.2219,-65.6515 27.5877,-73 4.2287,-13.135 5.0242,-18.238 3.4559,-22.17 -1.7739,-4.4476 -4.1192,-5.5223 -16.4774,-7.5509 -9.753,-1.6009 -9.8363,-1.6386 -9.8363,-4.4469 l 0,-2.8322 31.607,0 c 29.4644,0 31.5623,0.1164 30.9478,1.7177 -2.7545,7.1783 -2.5143,29.7507 0.5512,51.7823 1.8825,13.5296 9.3749,73.8651 14.4048,116 1.2594,10.55 1.5318,11.5009 3.2845,11.4672 1.6883,-0.033 10.5638,-10.7973 33.2695,-40.3514 11.2042,-14.5835 17.1926,-22.3194 43.4352,-56.1094 7.15,-9.2064 16.1904,-20.8491 20.0898,-25.8726 17.7495,-22.8668 27.316,-37.1599 36.5669,-54.6338 1.3103,-2.475 2.711,-4.3875 3.1128,-4.25 0.4018,0.1375 13.3604,0.25 28.7969,0.25 l 28.0664,0 -0.3164,2.739 c -0.2985,2.5839 -0.7975,2.8374 -8.8164,4.4787 -24.6021,5.0356 -25.389,6.2811 -42.5085,67.2823 -4.1675,14.85 -8.8679,31.5 -10.4453,37 -1.5774,5.5 -4.5386,16.075 -6.5804,23.5 -2.0419,7.425 -6.0754,21.825 -8.9634,32 -2.8879,10.175 -6.9591,25.5984 -9.0471,34.2742 -4.5601,18.9484 -4.3293,21.8438 2.0254,25.4001 3.9776,2.2261 5.9148,2.6698 16.8281,3.854 5.5238,0.5994 5.7936,0.7569 5.5,3.2114 l -0.3088,2.5812 -45.25,0.09 -45.25,0.09 0,-2.7047 c 0,-2.3549 0.485,-2.7802 3.75,-3.2888 15.5048,-2.4153 22.634,-4.887 26.386,-9.1484 5.0711,-5.7596 11.9457,-23.9389 23.959,-63.3581 9.6143,-31.5474 17.1709,-56.2546 23.8559,-78 13.0155,-42.3376 13.2201,-43.1582 11.0886,-44.4756 -0.9932,-0.6138 -4.1839,3.2866 -24.5395,29.9968 -6.6,8.6604 -16.275,21.256 -21.5,27.9901 -5.225,6.7342 -14.45,18.68 -20.5,26.5462 -6.05,7.8663 -14.3486,18.6089 -18.4413,23.8724 -29.3077,37.6921 -48.3824,64.2015 -59.9524,83.3201 -1.2976,2.1442 -3.0544,3.75 -4.1025,3.75 -1.5595,0 -1.9135,-1.0824 -2.3715,-7.25 -1.407,-18.9491 -3.9454,-46.8205 -6.6258,-72.75 -1.6203,-15.675 -4.2882,-42.45 -5.9285,-59.5 -2.7235,-28.3076 -4.3819,-43.5573 -5.6824,-52.25 -0.347,-2.3196 -1.0156,-3.25 -2.3352,-3.25 -2.0084,0 -4.217,5.1384 -16.6804,38.8069 -3.6023,9.7312 -10.8262,29.1681 -16.0531,43.1931 -5.2269,14.025 -12.3492,33.15 -15.8273,42.5 -7.8929,21.218 -15.8984,45.2685 -17.4752,52.5 -2.2205,10.1835 1.4121,13.5499 17.5062,16.2232 7.7647,1.2898 7.977,1.4002 8.264,4.3003 l 0.2947,2.9765 -40.0447,0 -40.0447,0 0,-2.7047 z M 1916.0013,2629.2233 c -3.7104,-1.5916 -5.357,-5.0703 -5.357,-11.3175 0,-6.763 1.6566,-11.2437 5.4517,-14.7454 2.3528,-2.171 3.6315,-2.5 9.7154,-2.5 6.4366,0 7.2022,0.228 9.4195,2.8058 1.969,2.2891 2.4134,3.9062 2.4134,8.7821 0,7.4383 -1.819,11.9349 -6.0452,14.9443 -3.5748,2.5454 -11.8778,3.6264 -15.5978,2.0307 z m 55.6627,-0.2903 c -3.4828,-1.8423 -4.9881,-5.384 -5.0034,-11.7726 -0.016,-6.7675 2.2864,-11.6533 6.9837,-14.8186 2.9434,-1.9834 4.4384,-2.2927 9.4009,-1.9452 8.1609,0.5715 10.5997,3.3491 10.5975,12.0696 0,7.0469 -2.0388,11.9821 -6.2069,15.0374 -3.3665,2.4677 -12.2815,3.2756 -15.7718,1.4294 z m 395.5046,-0.998 c -2.3177,-1.9937 -2.9153,-3.4443 -3.2925,-7.9931 -0.5893,-7.1066 0.9108,-11.5581 5.3426,-15.8536 3.2812,-3.1803 4.0002,-3.4279 9.9534,-3.4279 5.3442,0 6.7974,0.3807 8.6944,2.2778 2.0112,2.0112 2.2778,3.2674 2.2778,10.7333 0,8.4243 -0.014,8.4693 -3.7172,12.1728 -3.3659,3.3659 -4.3176,3.7554 -10.072,4.1218 -5.6144,0.3575 -6.6847,0.1208 -9.1865,-2.0311 z m 55.3988,-0.6977 c -2.5359,-2.5359 -2.9231,-3.666 -2.9231,-8.5321 0,-6.9066 1.758,-11.322 5.8935,-14.8017 3.9457,-3.3201 9.1244,-4.3539 14.1971,-2.8341 4.8316,1.4476 6.9094,5.0784 6.9094,12.0735 0,6.4186 -1.8474,10.8698 -5.9408,14.3142 -2.7101,2.2804 -4.1513,2.7033 -9.2128,2.7033 -5.2985,0 -6.3421,-0.3419 -8.9233,-2.9231 z m 1515.5422,0.026 c -3.8259,-1.6531 -4.8771,-4.0233 -4.8771,-10.9964 0,-5.1083 0.5813,-7.8534 2.4559,-11.5975 3.5503,-7.0908 6.6626,-9.009 14.6176,-9.009 8.6769,0 10.3383,1.8462 10.3383,11.4887 0,8.0597 -1.6092,12.3224 -6.3897,16.9264 -2.9681,2.8584 -4.4071,3.4682 -8.8282,3.741 -2.9052,0.1793 -6.1977,-0.07 -7.3168,-0.5532 z m 2373.7403,-0.091 c -5.5697,-2.381 -6.557,-13.7658 -1.9835,-22.8727 3.3745,-6.7193 6.584,-8.6397 14.4396,-8.6397 8.7293,0 10.3383,1.8224 10.3383,11.7097 0,7.9958 -1.5208,11.9643 -6.3955,16.689 -2.7025,2.6194 -4.3192,3.2978 -8.7114,3.6554 -2.9662,0.2416 -6.4256,0 -7.6875,-0.5417 z M 3383.1443,2245.4845 c -34.9227,-2.9658 -69.4136,-14.2991 -95.1842,-31.2765 -10.6355,-7.0067 -20.6206,-15.8108 -19.9408,-17.5825 0.8669,-2.2589 26.5913,-36.4651 27.4233,-36.4651 0.4486,0 7.2466,4.2934 15.1067,9.5408 29.2829,19.5494 50.2998,27.9046 77.595,30.8473 12.2531,1.321 26.2758,0.2542 39,-2.967 34.1025,-8.6334 54.9663,-34.7095 57.1449,-71.4211 1.3118,-22.1063 -7.8694,-44.9694 -26.9781,-67.1808 -12.467,-14.4914 -31.535,-30.069 -65.7267,-53.6957 -39.4048,-27.229 -71.3639,-55.1466 -82.4206,-71.9981 -10.4864,-15.982 -16.4459,-31.539 -18.5571,-48.4419 -1.5844,-12.685 -0.7319,-37.9454 1.5586,-46.1835 11.2524,-40.4714 48.9111,-72.0858 98.3204,-82.5398 12.5752,-2.6607 41.2998,-3.6884 56.6586,-2.0272 26.6398,2.8813 50.9762,11.3197 71.0247,24.6272 7.0606,4.6866 22.9753,18.6726 22.9753,20.191 0,1.5553 -28.4184,32.2502 -29.8518,32.2432 -0.6315,0 -5.1982,-2.74 -10.1482,-6.0821 -20.4532,-13.8092 -44.5276,-23.694 -65.7028,-26.9772 -17.3196,-2.6853 -43.3466,4.3614 -58.6868,15.8893 -18.7624,14.0996 -28.2767,41.6812 -22.0851,64.0243 3.8938,14.0513 10.7677,24.7013 25.5468,39.5805 13.9978,14.0927 26.5502,24.1778 67.9279,54.5763 19.332,14.2024 35.1368,27.5593 49.0567,41.4586 35.6206,35.5677 50.398,67.2298 50.4351,108.0621 0.016,17.849 -2.4525,30.5515 -8.798,45.2701 -7.4661,17.3179 -21.6767,35.1362 -37.89,47.5092 -30.4121,23.2088 -74.1516,34.7257 -117.8038,31.0186 z m 351.5,-0.3549 c -39.4978,-3.7521 -84.6259,-22.1761 -107.239,-43.7813 -3.6532,-3.4903 -3.7015,-3.6312 -2.1038,-6.1301 4.2537,-6.653 25.7948,-35.0578 26.5865,-35.0578 0.4931,0 5.0275,2.8655 10.0764,6.3678 31.4612,21.8237 53.1615,30.7608 82.6165,34.0251 29.8639,3.3096 62.46,-7.6521 77.8577,-26.1827 12.4038,-14.9275 18.9784,-35.4451 17.8516,-55.7102 -2.1618,-38.8792 -28.269,-70.4109 -95.6459,-115.5188 -8.2565,-5.5276 -30.9351,-22.5793 -41.9924,-31.5734 -34.7534,-28.2686 -52.0628,-55.5083 -56.1788,-88.4078 -1.5878,-12.6921 -0.4872,-35.8172 2.1385,-44.9327 6.8007,-23.6094 23.056,-45.2709 44.9621,-59.9158 11.3797,-7.6076 17.5696,-10.7859 30.0706,-15.4399 18.5994,-6.9243 35.0669,-9.6894 57.7894,-9.7034 31.1679,-0.019 53.1205,4.7818 77.7106,16.9954 12.8416,6.3782 21.113,12.1328 32.072,22.3132 l 6.8633,6.3758 -4.9676,5.528 c -2.7322,3.0405 -9.2427,10.3087 -14.4677,16.1517 -5.225,5.843 -10.047,10.6246 -10.7156,10.6257 -0.6686,0 -4.9436,-2.4231 -9.5,-5.3871 -22.7842,-14.8212 -41.6001,-23.0272 -61.1574,-26.672 -10.6478,-1.9843 -12.7382,-2.0903 -20.4922,-1.0383 -23.5745,3.1981 -37.1024,8.9982 -49.1447,21.0707 -8.8963,8.9184 -12.9946,16.1685 -16.4672,29.1305 -3.2186,12.0138 -3.2082,19.3097 0.044,30.5307 4.4324,15.2953 10.8416,24.6943 28.5686,41.895 15.4423,14.9838 17.8077,16.8545 71.8649,56.8343 19.2871,14.2644 44.2633,37.1863 56.8111,52.1382 24.8475,29.6084 35.1889,56.6992 35.1889,92.1826 0,15.7688 -1.1698,24.0285 -5.1435,36.3174 -13.8038,42.6893 -56.9075,76.2089 -109.8565,85.43 -11.3483,1.9763 -40.6168,2.8106 -54,1.5392 z m 844.5,0.437 c -15.266,-1.1543 -28.1282,-2.7345 -37,-4.5456 -22.1745,-4.5268 -45.905,-14.0505 -62.2479,-24.9821 -10.8344,-7.2469 -28.6809,-25.3279 -35.7642,-36.234 -16.8684,-25.9722 -24.3783,-50.4417 -29.413,-95.8361 -0.7207,-6.4978 -1.0749,-61.283 -1.0749,-166.25 l 0,-156.5584 31.4594,0 31.4594,0 0.3726,157.75 c 0.3949,167.1741 0.2721,162.8766 5.3489,187.2493 7.6609,36.7783 22.6768,61.9629 46.3465,77.7317 10.8388,7.2209 21.3245,11.6285 37.0132,15.5583 12.0343,3.0144 13.3009,3.1324 34,3.1674 21.0293,0.036 21.7733,-0.034 33.9834,-3.187 34.6578,-8.9493 58.0801,-28.5663 73.4875,-61.5482 7.5474,-16.1562 12.4913,-35.6641 14.5016,-57.2215 0.6491,-6.96 1.0261,-67.6515 1.0267,-165.25 l 8e-4,-154.25 29.5362,0 29.5362,0 -0.3687,165.75 c -0.3305,148.514 -0.5399,166.6859 -2.0146,174.75 -7.8746,43.0633 -24.5531,75.6264 -51.511,100.5699 -8.5084,7.8726 -24.8996,19.2602 -35.0685,24.3633 -15.4054,7.7311 -36.5025,14.2251 -55.6096,17.1176 -9.588,1.4515 -47.3618,2.6599 -58,1.8554 z m -2030.5,-245.9738 0,-238.5676 75.25,0.378 c 51.528,0.2588 76.9838,0.7409 80.75,1.5295 3.025,0.6333 10,1.8939 15.5,2.8013 12.771,2.107 33.4023,8.8477 45.1615,14.7551 9.3988,4.7217 26.4069,16.8724 31.9528,22.8273 22.2373,23.8774 32.5542,53.3939 32.6268,93.344 0.027,14.7977 -0.366,19.957 -2.2082,29 -5.8768,28.8473 -19.5681,54.1784 -40.5371,75 -26.581,26.3943 -61.2984,42.6715 -103.4958,48.524 -3.575,0.4958 -15.8375,1.2142 -27.25,1.5965 l -20.75,0.6951 0,-20.5083 0,-20.5082 13.25,-0.6962 c 25.0084,-1.314 42.3257,-5.2779 59.25,-13.5623 22.4152,-10.9722 35.6597,-25.1776 45.3228,-48.6108 4.4389,-10.7645 9.1853,-36.0462 9.1719,-48.8539 -0.01,-7.0242 -3.5371,-27.2754 -6.0695,-34.8227 -8.4655,-25.23 -26.5473,-42.6517 -53.2566,-51.3127 -16.6657,-5.4041 -28.0094,-6.5761 -60.3621,-6.2362 -15.4786,0.1626 -28.5172,0.6707 -28.9747,1.129 -0.4575,0.4583 -0.9474,97.5458 -1.0886,215.75 l -0.2568,214.9167 -31.9932,0 -31.9932,0 z m 262.1139,233.8318 c 1.1303,-2.6203 5.3464,-12.8642 9.3691,-22.7642 4.0227,-9.9 10.3309,-25.425 14.0183,-34.5 8.0235,-19.7464 20.4509,-50.2943 31.325,-77 4.3671,-10.725 11.4142,-28.05 15.6603,-38.5 4.2461,-10.45 10.195,-25.075 13.2197,-32.5 3.0248,-7.425 8.3316,-20.475 11.793,-29 7.5144,-18.5076 18.4251,-45.3067 29.3132,-72 4.3746,-10.725 11.428,-28.05 15.6741,-38.5 22.8282,-56.1821 32.405,-79.715 41.7129,-102.5 4.3813,-10.725 8.4228,-20.7375 8.9811,-22.25 l 1.0151,-2.75 24.7951,0 c 22.6848,0 24.854,0.1489 25.4856,1.75 1.1699,2.9655 28.2393,75.5013 36.6656,98.25 4.3801,11.825 9.9413,26.675 12.3583,33 2.417,6.325 6.6919,17.8 9.4997,25.5 2.8078,7.7 7.0828,19.175 9.5,25.5 2.4172,6.325 6.7007,17.8 9.5191,25.5 9.906,27.0641 12.1432,33.1014 16.4901,44.5 2.4121,6.325 6.683,17.8 9.4908,25.5 2.8078,7.7 7.0765,19.175 9.4858,25.5 2.4094,6.325 8.6446,22.975 13.8561,37 9.1281,24.5652 31.4254,84.4165 43.73,117.3819 3.2605,8.735 5.9281,16.2725 5.9281,16.75 0,0.4774 -16.5534,0.8681 -36.7853,0.8681 l -36.7854,0 -16.3167,-46.75 c -28.037,-80.3307 -31.9751,-91.4222 -33.1089,-93.25 -0.8134,-1.3114 -12.0316,-1.5364 -89.2171,-1.7899 -48.5576,-0.1594 -89.748,-0.027 -91.5341,0.2949 -3.8751,0.6977 -4.5262,1.8303 -10.0581,17.495 -2.2336,6.325 -7.0437,19.6 -10.6891,29.5 -3.6454,9.9 -9.0455,24.75 -12.0002,33 -6.3856,17.8295 -15.1312,41.8726 -19.2786,53 l -2.9818,8 -31.0929,0.2642 -31.0929,0.2642 z m 277.6361,-181.8945 c 2.9989,-0.8037 2.8593,-2.2176 -1.3196,-13.3697 -18.3072,-48.8546 -46.4195,-134.9199 -62.0182,-189.8677 -2.3994,-8.4522 -4.8835,-15.9952 -5.5201,-16.7623 -1.8714,-2.2549 -3.3998,-0.064 -5.8468,8.3821 -16.6372,57.4235 -36.7842,115.6698 -67.5292,195.2318 -5.1872,13.4234 -5.4702,14.5765 -3.8654,15.75 1.359,0.9937 17.0211,1.2632 72.7904,1.2524 39.0824,-0.01 72.0714,-0.2849 73.3089,-0.6166 z m 857.8865,173.3945 c 3.0493,-7.2953 7.0468,-17.0892 8.8832,-21.7642 1.8364,-4.675 7.6735,-19.075 12.9712,-32 8.8394,-21.5657 13.8786,-33.9309 33.0099,-81 3.6885,-9.075 9.1798,-22.575 12.2028,-30 15.9182,-39.0977 20.845,-51.1918 28.1089,-69 4.3746,-10.725 11.3358,-27.825 15.4692,-38 27.1495,-66.8327 42.7891,-105.2894 54.9019,-135 4.3725,-10.725 11.3611,-27.9375 15.5301,-38.25 l 7.5802,-18.75 24.7461,0 c 22.6395,0 24.8044,0.149 25.4323,1.75 0.3774,0.9625 4.2881,11.425 8.6904,23.25 11.6189,31.2091 19.6204,52.6958 32.0261,86 10.4784,28.1305 14.2435,38.2423 36.1178,97 5.2212,14.025 16.471,44.175 24.9995,67 14.5684,38.9895 24.6582,66.0442 47.3634,127 5.2242,14.025 13.5107,36.2181 18.4145,49.318 4.9038,13.1 8.916,24.2375 8.916,24.75 0,0.5591 -14.737,0.932 -36.8322,0.932 l -36.8322,0 -1.0513,-3.25 c -0.5783,-1.7875 -9.4768,-27.325 -19.7746,-56.75 -10.2978,-29.425 -20.2886,-58 -22.2019,-63.5 -5.7659,-16.5751 -6.2064,-17.3934 -9.7014,-18.0215 -1.7085,-0.307 -42.8553,-0.4278 -91.4372,-0.2684 -82.5788,0.271 -88.4136,0.4032 -89.6028,2.0298 -0.6996,0.9569 -9.9609,25.7069 -20.5807,55 -10.6198,29.293 -21.8928,60.2351 -25.0512,68.7601 l -5.7425,15.5 -31.0498,0.2642 -31.0498,0.2642 z m 274.2063,-173.4188 c 3.1493,-0.8431 3.0128,-1.4131 -6.7849,-28.3454 -8.7157,-23.958 -34.5175,-100.4958 -40.622,-120.5 -3.7209,-12.1933 -7.581,-25.2758 -15.9278,-53.9812 -2.5558,-8.7896 -5.1254,-16.5577 -5.7102,-17.2623 -1.5835,-1.9081 -3.5741,0.1801 -4.871,5.11 -10.9999,41.8133 -44.4007,138.3535 -70.6009,204.0614 -3.3803,8.4776 -3.4687,8.9946 -1.7518,10.25 1.4593,1.0671 15.5152,1.3195 72.8669,1.3084 39.0824,-0.01 72.1132,-0.2959 73.4017,-0.6409 z m -1912.5928,151.4047 -31.25,-31.2618 -0.014,-740.9942 c -0.01,-407.5468 -0.2849,-742.00659 -0.6166,-743.24409 -0.8536,-3.18529 -3.3408,-2.9023 -15.9784,1.81804 -5.9902,2.23742 -28.6663,10.52705 -50.3913,18.4214 -21.725,7.89435 -64.925,23.64711 -96,35.00613 -52.487,19.18588 -116.7302,42.59615 -151,55.02452 -7.975,2.89224 -40.6,14.79108 -72.5,26.44187 -31.9,11.6508 -72.85,26.56945 -91,33.15256 -49.7796,18.05537 -51.5029,18.76279 -52.5751,21.583 -0.5562,1.46303 -0.9249,89.10067 -0.9249,219.86757 l 0,217.4349 -97.5,0 -97.5,0 0,-216.9349 c 0,-128.27239 -0.3728,-217.91542 -0.9121,-219.334 -0.6935,-1.82395 -2.7912,-3.07298 -8.75,-5.20999 -4.3109,-1.54599 -13.6879,-4.96093 -20.8379,-7.58877 -7.15,-2.62784 -41.125,-14.97923 -75.5,-27.44753 -34.375,-12.4683 -80.5,-29.21627 -102.5,-37.2177 -22,-8.00144 -49,-17.80505 -60,-21.78581 -11,-3.98075 -26.975,-9.80251 -35.5,-12.93725 -8.525,-3.13474 -19.775,-7.20143 -25,-9.03709 -5.225,-1.83566 -25.7,-9.256 -45.5,-16.48965 -37.3662,-13.65119 -69.0062,-25.14344 -140.1341,-50.89926 -7.7734,-2.81492 -15.0334,-5.11804 -16.133,-5.11804 -1.2281,0 -2.232,0.868 -2.6023,2.25 -0.3317,1.2375 -0.6091,155.11711 -0.6166,341.95469 l -0.014,339.7047 -3.25,0.5041 c -1.7875,0.2772 -9.55,1.0176 -17.24997,1.6453 -7.7,0.6277 -20.4125,1.6675 -28.25,2.3109 l -14.25,1.1696 0,-391.22741 0,-391.22746 15.25,5.39909 c 8.3875,2.96951 24.025,8.61186 34.74997,12.53857 10.725,3.9267 24.225,8.83698 30,10.91172 24.8505,8.92784 69.9023,25.28985 74.5,27.05702 5.174,1.9887 34.1517,12.5185 71.5,25.98142 31.8901,11.49541 134.5007,48.75747 142,51.56598 3.575,1.33885 20.225,7.39665 37,13.46178 16.775,6.06513 33.425,12.12115 37,13.45782 5.7908,2.16513 76.4553,27.80887 176.1181,63.91225 19.04,6.89732 36.473,13.28277 38.7401,14.18989 l 4.122,1.64929 0.2599,145.81214 c 0.143,80.1966 0.6349,146.1871 1.0932,146.6454 1.0888,1.0886 64.2446,1.0886 65.3334,0 0.4583,-0.4583 0.9502,-66.8861 1.0931,-147.61738 l 0.2598,-146.78412 17.2402,-6.28935 c 9.4821,-3.45914 23.0902,-8.41626 30.2402,-11.01583 34.4993,-12.5431 62.497,-22.74481 88.5,-32.24725 50.4251,-18.42719 173.7513,-63.39062 214,-78.02215 12.925,-4.6986 55.675,-20.2827 95,-34.63133 39.325,-14.34862 102.6542,-37.42296 140.7315,-51.2763 38.0773,-13.85334 68.7471,-25.4873 68.155,-25.85323 -0.5921,-0.36594 0.1443,-0.97175 1.6365,-1.34626 2.9526,-0.74107 4.659,0.0679 2.6986,1.27942 -0.9586,0.59248 -1.2741,176.79837 -1.471,821.45158 l -0.2506,820.6973 -31.25,-31.2618 z m 384.25,-596.2103 c -25.834,-3.1484 -44.4672,-8.1068 -64.1186,-17.0622 -26.8525,-12.2371 -52.7099,-37.8677 -65.3107,-64.7377 -7.6408,-16.2933 -13.9674,-37.1749 -16.5848,-54.7399 -4.063,-27.2661 -4.4687,-45.3235 -4.4775,-199.25 l -0.01,-147.75 31.9656,0 31.9655,0 0.3666,161.25 c 0.3958,174.122 0.061,162.9405 5.6303,187.75 4.5408,20.226 11.543,36.7448 21.6183,51 18.1559,25.688 48.8837,40.4089 88.9537,42.6154 38.8239,2.1379 77.5803,-13.7002 98.1637,-40.1154 8.7051,-11.1715 18.3593,-30.2752 22.7412,-45 7.4975,-25.1948 6.9415,-10.5017 7.3128,-193.25 l 0.3338,-164.25 30.0264,0 30.0264,0 -0.3746,163.25 c -0.3306,144.0529 -0.5646,164.4847 -1.9903,173.75 -6.4785,42.104 -22.1268,74.7397 -48.1878,100.5 -24.0551,23.7774 -53.2419,38.2564 -91.0516,45.1689 -11.4139,2.0868 -62.3008,2.6623 -77,0.8709 z m 2017.0742,-41.2121 c -22.6367,-42.3099 -56.5334,-105.5199 -76.817,-143.2471 -7.6161,-14.1658 -11.0757,-19.6543 -12.7879,-20.2876 -2.961,-1.0954 -68.5115,-0.5869 -69.6372,0.5401 -0.4576,0.4583 -0.9511,45.1208 -1.0965,99.25 l -0.2644,98.4169 -31.4856,0 -31.4856,0 0,-238.5 0,-238.5 65.75,0.019 c 95.6812,0.028 108.036,1.083 135.4105,11.5657 11.9772,4.5865 18.2131,8.0848 29.3395,16.4593 10.1833,7.6647 12.9777,10.4619 20.6582,20.6783 14.1303,18.796 20.6096,39.9136 21.5624,70.2776 1.1372,36.2403 -8.4778,70.3149 -26.8225,95.0564 -11.037,14.8857 -28.5287,31.3913 -44.9233,42.3909 -3.8361,2.5737 -6.9748,5.3357 -6.9748,6.1376 0,0.8019 1.0791,3.1358 2.398,5.1865 1.3189,2.0508 10.601,17.9036 20.6268,35.2286 10.0258,17.325 20.1347,34.65 22.4643,38.5 2.3295,3.85 7.7342,13.075 12.0104,20.5 4.2762,7.425 11.4849,19.8 16.0193,27.5 21.2098,36.0173 43.4812,74.6777 43.4812,75.4782 0,0.4871 -5.7375,2.6851 -12.75,4.8845 -26.9111,8.4402 -46.8487,14.458 -49.2561,14.867 -2.3737,0.4032 -3.7167,-1.8371 -25.4197,-42.402 z M 4596.7171,1356.164 c 56.996,-4.1102 88.9672,-37.138 93.4167,-96.5036 1.2754,-17.0163 -2.2635,-37.0713 -8.9995,-51 -9.117,-18.8522 -27.142,-32.2483 -50.7977,-37.7529 -8.4385,-1.9636 -12.0757,-2.1434 -44.3561,-2.193 -19.34,-0.03 -35.54,0.3208 -36,0.779 -0.9318,0.9283 -1.7476,178.3211 -0.8432,183.3499 0.3292,1.8303 1.3023,3.3746 2.2897,3.634 3.2691,0.8585 31.7743,0.6613 45.2901,-0.3134 z m 354.9272,250.8716 c -25.6131,-2.955 -57.1457,-13.4961 -78.9949,-26.4072 -10.5069,-6.2087 -26.5298,-18.7517 -26.3858,-20.6553 0.091,-1.2018 22.4347,-32.6214 26.4193,-37.1506 0.4055,-0.4608 7.5701,3.6853 15.9215,9.2137 25.7576,17.0509 46.6113,26.1693 67.8477,29.6667 13.8094,2.2742 37.2517,1.579 48.2726,-1.4317 25.3796,-6.9333 42.4585,-21.2696 51.3586,-43.1113 9.4563,-23.2069 8.4891,-46.6653 -2.8644,-69.4699 -6.0616,-12.1753 -18.1821,-28.3147 -28.1845,-37.5296 -8.4961,-7.8272 -28.4095,-23.7406 -38.3901,-30.6787 -4.675,-3.2499 -12.325,-8.5542 -17,-11.7874 -15.9026,-10.9982 -35.1066,-25.6468 -50.0914,-38.209 -27.7063,-23.227 -42.1952,-44.4682 -49.1451,-72.0484 -1.9278,-7.6503 -2.2099,-11.407 -2.1985,-29.2765 l 0.013,-20.5 3.7448,-11 c 5.0619,-14.8692 12.6129,-27.2651 23.6256,-38.7846 29.8211,-31.1935 71.7765,-45.4326 123.0122,-41.7489 32.9294,2.3676 60.4032,11.9986 83.4384,29.2494 8.012,6.0002 17.6009,14.6435 17.6009,15.8653 0,0.7992 -11.5489,13.8422 -24.5944,27.7763 l -5.0945,5.4413 -9.9055,-6.5196 c -31.9309,-21.0164 -59.9362,-29.9742 -83.9679,-26.858 -36.9071,4.7858 -58.8162,23.8467 -64.1717,55.8292 -1.6336,9.7558 -1.6303,10.6726 0.069,19 3.3641,16.4898 10.7258,28.5937 27.543,45.2854 10.5405,10.4618 34.6932,30.111 54.1225,44.0309 27.4929,19.697 45.6794,34.7431 63.0222,52.14 25.2546,25.3333 38.4298,46.981 45.8249,75.2933 2.4109,9.2303 2.6135,11.6164 2.6324,31 0.018,18.5684 -0.2359,21.9544 -2.1935,29.2428 -4.4983,16.7471 -13.2375,33.1427 -25.1179,47.1233 -5.8783,6.9175 -22.3969,20.1128 -33.2651,26.5727 -15.6997,9.3317 -37.9135,16.9541 -58.4135,20.0438 -10.9659,1.6528 -41.6508,1.8739 -54.4895,0.3926 z m -1929,-245.3752 0,-238.5 23.3964,0 23.3964,0 2.8536,3.3658 c 1.5695,1.8512 10.7286,12.7099 20.3536,24.1303 9.625,11.4205 25.375,30.084 35,41.4744 9.625,11.3904 25.15,29.8283 34.5,40.9729 9.35,11.1447 24.65,29.3795 34,40.5217 9.35,11.1423 24.0677,28.7583 32.706,39.1468 8.6382,10.3884 23.0382,27.7055 32,38.4824 14.8207,17.8226 24.5348,29.6614 54.8981,66.9057 25.9452,31.8248 54.0398,67.5925 62.21,79.2003 2.5938,3.6851 5.2275,7.0164 5.8527,7.4028 3.8779,2.3967 3.8332,4.641 3.8332,-192.2942 l 0,-189.3089 25.5,0 25.5,0 0,238.5 0,238.5 -25.25,-0.059 -25.25,-0.059 -17.5,-21.0555 c -9.625,-11.5805 -23.8,-28.5965 -31.5,-37.8133 -35.8496,-42.9114 -122.0913,-147.1997 -152.7395,-184.7013 -7.5568,-9.2466 -19.271,-23.5619 -26.0317,-31.8119 -18.887,-23.0477 -66.3478,-82.8001 -74.6633,-94 -9.6566,-13.0062 -8.9505,-12.3382 -10.6328,-10.0589 -1.2317,1.6688 -1.4327,28.433 -1.4327,190.75 l 0,188.8089 -25.5,0 -25.5,0 z m 535,0 0,-238.5 31.5,0 31.5,0 0,238.5 0,238.5 -31.5,0 -31.5,0 z m 281.5597,198.2411 c -8.2171,-22.1326 -18.2731,-49.0161 -22.3465,-59.7411 -4.0735,-10.725 -8.2051,-21.75 -9.1813,-24.5 -2.1657,-6.1006 -46.4218,-124.4543 -52.5372,-140.5 -2.4107,-6.325 -15.4609,-41.2 -29.0004,-77.5 -13.5396,-36.3 -26.5839,-71.175 -28.9873,-77.5 -11.6083,-30.5488 -18.507,-49.3832 -18.507,-50.5265 0,-1.2908 0.6885,-1.4478 26.5,-6.0436 7.7,-1.371 18.4361,-3.3786 23.8581,-4.4613 15.0073,-2.9969 13.8249,-3.5088 17.974,7.7814 6.7689,18.4188 21.9352,61.5084 44.4363,126.25 17.3484,49.9157 60.3487,178.9556 74.6442,224 8.1166,25.575 15.3204,47.0851 16.0083,47.8002 1.0265,1.0669 1.4445,1.0669 2.3299,0 0.5934,-0.7151 6.7097,-18.1752 13.5916,-38.8002 11.6415,-34.8892 31.3702,-92.2114 42.161,-122.5 2.5473,-7.15 7.4913,-21.1 10.9868,-31 8.2542,-23.3778 27.0271,-74.7429 52.9049,-144.7542 1.8797,-5.0852 7.7646,-20.9458 13.0776,-35.2458 5.3131,-14.3 10.3832,-27.9565 11.2669,-30.3479 0.8838,-2.3913 2.2407,-4.5911 3.0154,-4.8883 0.7747,-0.2973 6.4343,0.1599 12.5768,1.0161 6.1425,0.8561 18.3682,2.5457 27.1682,3.7545 8.8,1.2088 16.1205,2.3036 16.2679,2.4329 0.1473,0.1293 -17.5187,44.7395 -39.2577,99.1339 -21.7391,54.3943 -64.4263,161.2238 -94.8605,237.3988 l -55.3349,138.5 -21.9074,0.2411 -21.9074,0.2411 z m 306.4403,-198.2411 0,-238.5 116.5,0 116.5,0 0,22.4832 0,22.4833 -83.9169,0.2667 c -46.1543,0.1468 -84.2918,0.6418 -84.75,1.1001 -1.089,1.0894 -1.089,155.244 0,156.3334 0.4581,0.4583 37.6956,0.9535 82.75,1.1004 l 81.9169,0.2672 0,21.9657 0,21.9657 -81.9169,0.2672 c -45.0544,0.1469 -82.2919,0.6421 -82.75,1.1004 -1.0891,1.0895 -1.0891,180.244 0,181.3334 0.4583,0.4583 45.1208,0.9523 99.25,1.0977 l 98.4169,0.2644 0,22.4856 0,22.4856 -131,0 -131,0 z m 1077,0 0,-238.5 32,0 32,0 0,238.5 0,238.5 -32,0 -32,0 z m 280.7568,23.5833 c -0.1412,-118.2042 -0.6317,-215.2917 -1.0898,-215.75 -0.4582,-0.4583 -34.7707,-0.9541 -76.25,-1.1018 l -75.417,-0.2685 0,-22.4815 0,-22.4815 185,0 185,0 0,22.4815 0,22.4815 -75.4503,0.2685 c -60.2923,0.2146 -75.7114,0.5297 -76.75,1.5684 -1.0566,1.0568 -1.3477,41.4167 -1.5565,215.75 l -0.2568,214.4501 -31.4864,0 -31.4864,0 z m 226.222,205.6667 c 3.273,-8.1024 12.8038,-31.5503 27.7413,-68.25 2.4624,-6.05 7.3134,-17.975 10.7799,-26.5 3.4665,-8.525 8.325,-20.45 10.7966,-26.5 9.1169,-22.3165 15.4304,-37.8293 35.1021,-86.25 10.3707,-25.5268 19.307,-47.4868 27.5698,-67.75 16.0149,-39.2737 23.0213,-56.4747 29.5313,-72.5 3.6865,-9.075 9.6346,-23.7 13.2179,-32.5 3.5833,-8.8 8.4331,-20.725 10.7773,-26.5 20.0724,-49.4491 23.8064,-58.6559 24.2323,-59.75 0.3712,-0.9534 6.3333,-1.2474 25.1297,-1.2392 l 24.643,0.011 2.6816,7.2392 c 14.6808,39.6315 25.7023,69.2192 29.3304,78.7392 2.4106,6.325 6.6802,17.8 9.488,25.5 2.8078,7.7 7.0828,19.175 9.5,25.5 2.4172,6.325 6.7042,17.8 9.5268,25.5 4.7256,12.8911 10.7542,29.1067 31.973,86 21.3874,57.3455 30.7757,82.53 41.0057,110 6.1447,16.5 16.7864,45.075 23.6482,63.5 6.8618,18.425 14.2468,38.1338 16.4111,43.7975 2.1644,5.6636 3.9352,10.5011 3.9352,10.75 0,0.2489 -16.6177,0.4525 -36.9282,0.4525 l -36.9281,0 -1.943,-5.25 c -1.0687,-2.8875 -6.3226,-17.85 -11.6754,-33.25 -5.3529,-15.4 -11.2288,-32.275 -13.0578,-37.5 -15.8836,-45.3766 -21.7751,-61.8797 -22.5216,-63.0879 -0.7387,-1.1955 -14.4955,-1.4566 -89.6593,-1.702 -48.8326,-0.1594 -90.2051,-0.035 -91.9388,0.277 -3.7918,0.6818 -2.0554,-3.3694 -21.0077,49.0129 -7.9597,22 -16.2214,44.725 -18.3593,50.5 -3.7296,10.0747 -13.6003,37.153 -14.4899,39.75 -0.3301,0.9638 -7.5052,1.25 -31.3384,1.25 l -30.9103,0 3.7366,-9.25 z m 276.4087,-178.0441 c 1.6617,-1.2151 1.4935,-2.0546 -2.755,-13.75 -10.5724,-29.1036 -14.5446,-40.5947 -27.6391,-79.9559 -15.9345,-47.8986 -24.4682,-75.1402 -32.5787,-104 -7.3086,-26.0064 -8.5764,-27.6911 -11.8726,-15.7771 -13.236,47.8413 -42.2504,131.9233 -68.683,199.0393 -4.8872,12.4092 -5.0515,13.1239 -3.3097,14.3976 2.6562,1.9422 144.1842,1.9867 146.8381,0.046 z m 298.3693,-27.6226 c -0.1412,-118.2042 -0.6317,-215.2917 -1.0898,-215.75 -0.4582,-0.4583 -34.7707,-0.9541 -76.25,-1.1018 l -75.417,-0.2685 0,-22.4815 0,-22.4815 185.5,0 185.5,0 0,22.4817 0,22.4817 -76.417,0.2683 c -42.0293,0.1476 -76.7918,0.6433 -77.25,1.1016 -0.4581,0.4583 -0.9486,97.5458 -1.0898,215.75 l -0.2568,214.9167 -31.4864,0 -31.4864,0 z m -450.4309,-338.151 c -5.5431,-2.7439 -13.6961,-11.0198 -16.537,-16.7863 -1.8985,-3.8536 -2.2889,-6.2663 -2.2889,-14.146 0,-11.4417 1.8809,-16.0952 9.6429,-23.85713 7.5459,-7.54598 12.5163,-9.64286 22.8571,-9.64286 7.2855,0 9.3148,0.40011 14.2026,2.80036 13.3872,6.57403 20.4201,20.89463 17.9115,36.47183 -1.2922,8.0237 -3.3981,12.3076 -8.7651,17.8298 -6.7374,6.9322 -12.9473,9.3766 -23.849,9.3874 -7.0954,0.01 -9.8833,-0.4282 -13.1741,-2.0571 z m 138.9487,0.4588 c -6.1759,-2.2529 -13.6519,-9.4573 -17.217,-16.5917 -2.7054,-5.414 -3.0576,-7.1188 -3.0576,-14.7994 0,-7.6842 0.3516,-9.3842 3.0635,-14.8112 3.4037,-6.81142 9.5821,-12.84906 16.7742,-16.39201 3.7806,-1.86245 6.2697,-2.29027 13.1623,-2.26236 10.1039,0.0409 15.5077,2.22172 22.6106,9.12497 15.5797,15.1417 12.5628,41.8134 -6.0191,53.2151 -5.6036,3.4383 -6.4037,3.6367 -15.5,3.8417 -6.6205,0.1492 -10.9003,-0.2612 -13.8169,-1.3251 z"
         id="path3004"
         style="fill:#979d9c" />
      <path
         d="m 1942.8573,2366.4104 c -22.7267,-44.4006 -53.1273,-113.3163 -66.7206,-151.25 -23.952,-66.841 -36.4326,-116.0085 -43.6602,-172 -1.7873,-13.8462 -2.1462,-22.0488 -2.2311,-51 -0.1104,-37.6555 0.5863,-46.654 5.5105,-71.1728 7.9984,-39.8265 23.1968,-74.8375 45.6576,-105.1772 10.6105,-14.3325 37.6763,-41.0571 53.4104,-52.7373 48.4906,-35.9968 115.1384,-61.5188 197.3204,-75.5617 24.4322,-4.1748 24.1214,-4.1842 38.5,1.1598 6.875,2.5552 15.2,5.5661 18.5,6.6908 7.2324,2.465 8.5806,3.5163 5.3946,4.2064 -1.317,0.2853 -9.1446,1.8982 -17.3946,3.5841 -34.6764,7.0863 -69.6144,18.4953 -93.6776,30.5903 -19.3406,9.7213 -43.1673,26.8256 -55.8224,40.0729 -23.775,24.8874 -35.763,50.6125 -40.451,86.8032 -2.0542,15.8584 -1.9534,25.8128 0.4563,45.0415 2.4745,19.7466 3.9891,27.2949 8.9289,44.5 31.4065,109.3865 135.0939,253.3589 289.1927,401.5507 15.3302,14.7426 27.8731,27.1747 27.8731,27.627 0,0.4523 -81.8435,0.8223 -181.8745,0.8223 l -181.8745,0 -7.038,-13.75 z m -419.9266,-126.6776 c -119.0881,-0.8777 -149.4734,-1.3593 -150.5,-2.3854 -2.1535,-2.1524 -1.7701,-72.9888 0.5152,-95.187 7.9565,-77.2866 27.8867,-141.2807 64.3121,-206.5 9.8173,-17.5777 26.2526,-42.4487 37.3366,-56.5 21.3814,-27.1055 52.6817,-60.3888 72.4315,-77.0205 38.1846,-32.156 62.3071,-49.1855 100.1182,-70.6792 32.8366,-18.666 65.648,-33.8155 110.2452,-50.9018 44.866,-17.1893 119.423,-36.311 172.7548,-44.3065 7.7,-1.1544 16.25,-2.541 19,-3.0814 4.226,-0.8304 47.9494,-6.0057 52.5,-6.2141 0.825,-0.038 7.35,2.0545 14.5,4.6494 7.15,2.595 15.7,5.6402 19,6.7672 3.3,1.127 6.4026,2.4152 6.8946,2.8626 1.0934,0.9943 1.3363,0.9448 -26.3946,5.3766 -92.4417,14.7736 -166.0486,43.8705 -221,87.3619 -12.9594,10.2567 -40.8678,38.4935 -50.0963,50.6858 -35.1809,46.4795 -54.783,98.4175 -62.0845,164.5 -2.7058,24.4892 -1.4227,91.4285 2.2043,115 0.5501,3.575 1.9106,13.0776 3.0233,21.1168 3.9077,28.2318 14.5329,76.3864 23.5835,106.8832 6.6956,22.5613 8.7195,29.1588 11.4344,37.2729 1.6144,4.8251 2.9353,9.4376 2.9353,10.25 0,1.7003 20.5801,1.6952 -202.7136,0.05 z M 810.64432,2101.2772 c 0,-3.1953 12.677,-40.1973 18.5549,-54.1585 6.4403,-15.297 20.7028,-44.1089 28.964,-58.5107 34.9984,-61.0135 92.68261,-122.7896 161.44448,-172.897 74.4988,-54.2878 178.1825,-104.7415 291.5366,-141.8652 40.4559,-13.2494 78.0852,-24.0844 124,-35.7045 19.2739,-4.8779 28.4078,-6.9835 63,-14.523 70.8329,-15.4383 150.311,-28.7919 228.5475,-38.3996 12.9512,-1.5904 25.1012,-3.1602 27,-3.4884 1.8989,-0.3282 14.7025,-1.7416 28.4525,-3.1409 13.75,-1.3993 26.35,-2.7217 28,-2.9386 1.65,-0.217 11.6026,-1.1514 22.1168,-2.0765 l 19.1169,-1.6819 17.3831,6.2969 c 9.5608,3.4634 18.4581,6.6863 19.7719,7.162 1.3138,0.4758 2.1523,1.1014 1.8635,1.3903 -0.2889,0.2888 -10.5888,1.8279 -22.8887,3.42 -180.8797,23.4135 -328.6874,71.8573 -438.8635,143.8369 -57.1217,37.3185 -106.637,83.3977 -143.2583,133.3173 -46.724,63.6907 -77.0432,133.6841 -94.2294,217.5329 -1.8249,8.9036 -3.6133,16.6661 -3.9742,17.25 -0.4591,0.7428 -57.1029,1.0617 -188.5971,1.0617 -183.38858,0 -187.94098,-0.046 -187.94098,-1.8832 z m -551,-135.9613 c 0,-1.3962 17.19399,-21.6259 32.60014,-38.356 21.98205,-23.8712 59.90927,-59.2494 80.86523,-75.4305 42.5292,-32.8389 70.75417,-52.0839 111.53463,-76.0491 90.94544,-53.4454 203.95709,-101.328 328,-138.9726 13.9567,-4.2356 53.8347,-15.7551 63.5,-18.3431 102.73131,-27.5083 209.99678,-49.4645 314.99998,-64.4773 9.35,-1.3368 19.7,-2.9079 23,-3.4914 7.4081,-1.3097 46.6972,-6.2736 75.5,-9.5388 11.825,-1.3406 24.875,-2.8981 29,-3.4612 4.125,-0.5631 19.65,-2.1878 34.5,-3.6105 14.85,-1.4226 28.35,-2.7305 30,-2.9062 13.4834,-1.4361 65.402,-5.3899 105,-7.9962 18.403,-1.2112 64.1413,-3.6149 97,-5.0977 20.9832,-0.9468 77.8968,-2.416 93.7593,-2.4202 l 17.7593,0 16.7407,6.0417 c 19.9621,7.2043 21.6453,7.887 21.0098,8.5226 -0.2692,0.2691 -13.0398,1.3616 -28.3792,2.4278 -15.3395,1.0662 -32.6149,2.4166 -38.3899,3.0009 -5.775,0.5843 -24,2.1919 -40.5,3.5725 -16.5,1.3806 -31.35,2.6878 -33,2.9049 -1.65,0.2171 -15.375,1.5558 -30.5,2.9748 -15.125,1.419 -28.4196,2.7846 -29.5436,3.0346 -1.124,0.2501 -12.599,1.6165 -25.5,3.0365 -12.901,1.42 -26.6064,3.0294 -30.4564,3.5766 -3.85,0.5471 -16.9,2.3191 -29,3.9377 -36.6447,4.9019 -71.8688,10.3924 -115.5,18.0034 -59.4856,10.3766 -129.513,26.582 -190,43.9689 -26.2772,7.5533 -68.5713,21.6402 -97.5441,32.489 -54.6285,20.4555 -115.16288,49.4323 -161.45588,77.2863 -26.3239,15.8387 -64.6469,41.9408 -83.1591,56.6402 -4.2125,3.3449 -10.5125,8.3214 -14,11.0589 -3.4875,2.7376 -15.1159,12.6994 -25.8409,22.1376 -43.53616,38.3122 -83.07039,82.8773 -118.54946,133.6351 l -8.91209,12.75 -187.26923,0 c -102.99807,3e-4 -187.26922,-0.3797 -187.26922,-0.8442 z M -275.3557,1828.2194 c 0,-0.5175 0.45,-1.2191 1,-1.559 0.55,-0.3399 1,0.083 1,0.941 0,0.8574 -0.45,1.559 -1,1.559 -0.55,0 -1,-0.4234 -1,-0.941 z m 102.25,0.1911 c -54.5875,-0.1429 -99.2329,-0.5951 -99.212,-1.005 0.053,-1.033 21.0816,-17.2414 34.962,-26.9476 63.5037,-44.4064 163.22311,-92.0636 277.50002,-132.621 42.80386,-15.1913 104.94113,-34.9183 147,-46.6687 8.25,-2.3049 18.6,-5.2365 23,-6.5147 4.4,-1.2782 14.3,-3.9897 22,-6.0256 7.7,-2.0359 17.825,-4.7385 22.5,-6.0057 14.99454,-4.0645 72.18654,-18.0517 103.5,-25.3125 80.35197,-18.6317 210.90922,-43.5293 297.5,-56.734 67.46127,-10.2875 134.154,-19.4089 182,-24.8917 11.825,-1.355 24.875,-2.9493 29,-3.5427 9.8349,-1.415 56.4725,-6.2783 96.00001,-10.0109 17.325,-1.6359 32.84997,-3.1976 34.49997,-3.4704 1.65,-0.2728 17.625,-1.6654 35.5,-3.0946 17.875,-1.4292 34.3,-2.767 36.5,-2.973 2.2,-0.206 21.1,-1.4961 42,-2.8668 20.9,-1.3708 43.4,-2.9625 50,-3.5372 6.6,-0.5746 30.675,-1.9253 53.5,-3.0015 22.825,-1.0762 49.825,-2.4301 60,-3.0086 45.2726,-2.5739 148.7578,-4.9994 213.7567,-5.01 l 48.2567,-0.01 8.7433,3.3767 c 4.8088,1.8573 13.6933,5.2722 19.7433,7.5887 6.05,2.3165 11.3756,4.5701 11.8347,5.0079 0.459,0.4378 -10.566,1.0674 -24.5,1.3992 -125.9805,2.9995 -126.0359,3.0013 -188.8347,6.0974 -52.5115,2.5889 -130.8045,7.6716 -161.0929,10.4579 -5.7239,0.5265 -23.2321,2.0978 -38.9071,3.4918 -15.675,1.3939 -32.1,2.9992 -36.5,3.5673 -4.4,0.5681 -19.025,2.154 -32.5,3.5241 -13.475,1.3702 -27.425,2.9508 -31,3.5126 -3.575,0.5618 -15.5,2.1194 -26.5,3.4614 -84.05567,10.2544 -186.56988,27.6994 -260.99998,44.4146 -7.15,1.6057 -19.1341,4.2955 -26.6313,5.9772 -16.7163,3.7498 -74.47991,18.2511 -88.85315,22.3063 -47.57689,13.4228 -69.8285,20.1337 -104.51555,31.521 -95.97704,31.5079 -202.71119,76.3776 -282,118.5493 -62.71402,33.356 -130.86233,72.8807 -164.48932,95.4007 l -6.48933,4.3459 -88.51067,-0.2451 c -48.68088,-0.1348 -133.1732,-0.362 -187.7607,-0.5048 z"
         id="path3002"
         style="fill:#f19200" />
      <path
         d=""
         id="path2998"
         style="fill:#000000" />
      <path
         d=""
         id="path2996"
         style="fill:#000000" />
    </g>
  </g>
</svg>
