<?xml version="1.0" encoding="UTF-8" standalone="no"?>
<!-- Created with Inkscape (http://www.inkscape.org/) -->

<svg
   xmlns:dc="http://purl.org/dc/elements/1.1/"
   xmlns:cc="http://creativecommons.org/ns#"
   xmlns:rdf="http://www.w3.org/1999/02/22-rdf-syntax-ns#"
   xmlns:svg="http://www.w3.org/2000/svg"
   xmlns="http://www.w3.org/2000/svg"
   xmlns:sodipodi="http://sodipodi.sourceforge.net/DTD/sodipodi-0.dtd"
   xmlns:inkscape="http://www.inkscape.org/namespaces/inkscape"
   width="254.98235"
   height="66.863739"
   id="svg3068"
   version="1.1"
   inkscape:version="0.48.4 r9939"
   sodipodi:docname="Neues Dokument 2">
  <defs
     id="defs3070" />
  <sodipodi:namedview
     id="base"
     pagecolor="#ffffff"
     bordercolor="#666666"
     borderopacity="1.0"
     inkscape:pageopacity="0.0"
     inkscape:pageshadow="2"
     inkscape:zoom="1"
     inkscape:cx="257.50163"
     inkscape:cy="-15.679164"
     inkscape:document-units="px"
     inkscape:current-layer="layer1"
     showgrid="false"
     fit-margin-top="0"
     fit-margin-left="0"
     fit-margin-right="0"
     fit-margin-bottom="0"
     inkscape:window-width="1366"
     inkscape:window-height="715"
     inkscape:window-x="0"
     inkscape:window-y="26"
     inkscape:window-maximized="1" />
  <metadata
     id="metadata3073">
    <rdf:RDF>
      <cc:Work
         rdf:about="">
        <dc:format>image/svg+xml</dc:format>
        <dc:type
           rdf:resource="http://purl.org/dc/dcmitype/StillImage" />
        <dc:title></dc:title>
      </cc:Work>
    </rdf:RDF>
  </metadata>
  <g
     inkscape:label="Ebene 1"
     inkscape:groupmode="layer"
     id="layer1"
     transform="translate(-135.50883,-249.81927)">
    <g
       id="layer1-1"
       transform="matrix(0.40742474,0,0,0.40742474,27.490345,153.10137)">
      <g
         id="g5401">
        <path
           style="fill:#ffcf00;fill-opacity:1;fill-rule:evenodd;stroke:none"
           id="path2987"
           d="m 340.28125,313.71875 c 0.0886,0.56326 0.65194,0.6345 0.875,1.0625 -0.13436,0.56066 -0.55862,0.8401 -1.34375,0.75 -0.0892,-0.64631 -0.12718,-1.2235 -0.15625,-1.78125 -2.2681,0.0559 -4.50378,0.1887 -6.71875,0.4375 0.21931,0.0425 0.64246,-0.12947 0.625,0.15625 -0.0519,0.64977 -0.88016,0.20625 -1,-0.0937 -0.0206,0.002 -0.0419,-0.002 -0.0625,0 -0.32529,0.48954 -0.56902,1.08714 -1.03125,1.4375 0.15331,0.31832 0.27493,0.66001 0.40625,1 0.26264,0.67998 0.52829,1.37281 0.9375,1.90625 0.20461,0.26672 0.45012,0.48447 0.75,0.65625 -0.164,0.35727 -0.42425,0.6145 -0.46875,1.09375 -0.0149,0.15975 -0.0174,0.34015 0.0312,0.5625 l -0.90625,0 0,-0.75 c -0.41726,-0.11942 -0.43453,0.16615 -0.625,0.28125 -0.0317,0.0191 -0.0823,0.0233 -0.125,0.0312 -0.0427,0.008 -0.0976,0.009 -0.15625,0 -0.13242,-0.51299 -0.63951,-0.65258 -0.875,-1.0625 -0.0819,-0.33024 0.26765,-0.20276 0.28125,-0.4375 -0.84116,-0.39995 -0.44154,-2.03597 -1.1875,-2.53125 -0.24406,0.16549 -0.3703,0.43971 -0.4375,0.78125 -0.0336,0.17077 -0.0565,0.36405 -0.0625,0.5625 -0.0233,0.79379 0.1421,1.76144 0.125,2.5625 -0.004,0.20026 -0.0312,0.389 -0.0625,0.5625 l -1.78125,0 c 0.0671,-1.07471 0.71054,-1.55368 0.4375,-2.96875 -0.24711,-0.24935 -0.87782,-0.12585 -1.34375,-0.15625 0.16467,-1.04753 0.42885,-1.86809 0.5625,-2.65625 -1.27135,0.2455 -2.53314,0.50504 -3.78125,0.8125 -0.19736,0.83344 -0.54077,1.48356 -0.34375,2.71875 -0.94452,-0.76042 -1.55068,-0.16862 -2.6875,0 -0.0727,-1.00425 -0.71235,-1.36522 -1.5,-1.4375 -17.67053,5.52878 -32.5663,17.25665 -42.1875,32.65625 7.2965,13.20574 18.35328,23.72693 31.78125,30.4375 7.34122,3.6689 16.47535,7.00163 25.75,7.625 16.21622,1.09005 29.46425,-1.87566 40.96875,-7.625 0.9184,-0.45896 1.79882,-0.94651 2.6875,-1.4375 -5.76655,-3.58443 -11.01082,-7.90869 -15.625,-12.84375 l -1.21875,0 0,-0.75 c -0.68251,-0.0868 -0.683,0.50244 -1.03125,0.75 -1.92271,0.33396 -2.58432,-0.57707 -4.3125,-0.4375 0.027,-0.32487 -0.14388,-0.49575 -0.46875,-0.46875 -1.5e-4,-0.49646 0,-0.97228 0,-1.46875 -0.37298,-0.32218 -0.49039,-0.90819 -1.34375,-0.75 -0.1923,-0.73836 0.3751,-0.73512 0.3125,-1.34375 -0.95256,-0.10859 -0.81406,0.90425 -1.65625,0.90625 0.0329,-0.71171 0.71289,-0.82389 0.46875,-1.8125 0.49364,-0.0524 0.62759,-0.4201 0.875,-0.71875 -1.21248,0.0934 -1.9164,1.91026 -3.5625,2.0625 0.32129,-1.86029 -1.4474,-1.63858 -1.5,-3.125 -1.46556,0.0755 -2.40883,-0.35753 -3.28125,-0.875 -0.72526,-0.17918 -0.39953,0.67925 -1.1875,0.4375 -0.79199,-0.91145 -2.37427,-0.0374 -3.125,0.4375 -2.87557,-0.24428 -4.59733,0.67763 -5.65625,2.25 l -1.9375,0 c -1.29814,-1.14412 -3.05846,0.26071 -4,0.875 -1.91809,0.13093 -3.56457,-0.0231 -4.34375,-1.03125 0.75028,-1.36517 0.42463,-3.33028 -0.875,-3.875 -0.15268,-2.67701 -2.07322,-3.59695 -2.6875,-5.8125 l 0.75,0 c -0.19617,-1.29307 -1.15294,-1.82657 -1.65625,-2.8125 0.95375,-0.58852 -0.0149,-2.83572 0.59375,-3.4375 0.6268,-0.22969 0.0456,0.7761 0.46875,0.75 0.91175,-0.97476 1.99577,-1.77366 3.125,-2.53125 0.51508,-0.11782 0.61016,0.14883 0.875,0.28125 0.73881,-0.50227 1.93871,-0.53895 2.53125,-1.1875 1.99152,0.92739 2.97709,-1.40546 4.03125,-2.375 l 0,-1.65625 c 0.71915,-0.0255 0.50097,-0.9729 1.34375,-0.875 -0.0858,0.73122 0.19842,1.0937 0.75,1.1875 0.3408,-0.25486 0.062,-1.12362 0.15625,-1.625 l 1.1875,0 c 0.15924,-0.55635 -0.3844,-0.4372 -0.3125,-0.90625 1.25867,-1.02511 2.35581,-2.23572 4.1875,-2.6875 0.75713,0.38475 1.09471,1.20104 1.78125,1.65625 0.7896,-0.66747 0.77521,0.37867 1.9375,0.125 -0.60059,-0.96701 0.0892,-1.19022 0.15625,-2.21875 0.14108,0.008 0.25513,-0.0194 0.375,-0.0312 -1.23108,-4.75061 -2.0164,-9.68821 -2.3125,-14.75 -0.15595,0.10942 -0.38352,0.12964 -0.75,0.0312 -0.0188,-0.54264 0.62293,-0.69923 0,-1.03125 0.14022,-0.26766 0.38865,-0.43398 0.6875,-0.5625 -0.009,-0.22988 -0.0245,-0.4571 -0.0312,-0.6875 -0.0758,-0.0115 -0.15435,-0.0427 -0.21875,-0.0937 0.0636,-0.0813 0.14207,-0.14936 0.21875,-0.21875 -0.0162,-0.63877 -0.0307,-1.26368 -0.0312,-1.90625 -0.35289,0.001 -0.71075,-0.006 -1.0625,0 z m 1.25,0 c 6e-5,0.0521 -6e-5,0.10426 0,0.15625 0.0105,-3e-5 0.0208,4e-5 0.0312,0 -3.4e-4,-0.0525 2.3e-4,-0.10369 0,-0.15625 l -0.0312,0 z M 339,316.9375 c 0.34395,0.0127 0.67079,0.19557 0.8125,0.5625 -0.10665,0.73735 -0.86577,0.79005 -1.78125,0.71875 -0.2076,-0.87501 0.3955,-1.30235 0.96875,-1.28125 z m -30.625,4.625 c 0.49535,0.0231 1.14156,0.24365 2.09375,0.21875 0.76355,0.87511 2.49151,0.80763 3.71875,1.21875 0.0403,0.003 0.0695,0.0133 0.0937,0 0.0243,-0.0133 0.0508,-0.0364 0.0625,-0.0625 0.0703,-0.1567 -0.0611,-0.52518 0,-0.6875 1.37589,-0.0355 2.17586,0.4837 3.125,0.875 0.45059,-0.4435 1.26853,-0.5254 2.25,-0.4375 0.081,0.97475 -1.06431,0.72946 -1.65625,1.03125 0.0182,0.0811 0.0738,0.1388 0.125,0.1875 0.10247,0.0974 0.24662,0.14585 0.4375,0.15625 0.47719,0.0261 1.13783,-0.13431 1.53125,-0.0312 0.21509,0.67848 0.77953,1.01439 1.78125,0.90625 0.0148,0.27538 0.0102,0.53395 -0.0625,0.71875 -0.0242,0.0616 -0.0509,0.11225 -0.0937,0.15625 -0.11591,0.0104 -0.214,0.0174 -0.3125,0 -0.0985,-0.0174 -0.19695,-0.0602 -0.28125,-0.0937 -0.50573,-0.20161 -0.78544,-0.58872 -1.1875,0.0937 -0.7202,-0.7692 -2.61874,-0.32936 -4,-0.4375 -0.91189,-0.42854 -1.77694,-0.94515 -3.15625,-0.90625 -0.47845,0.13108 -0.202,-0.4817 -0.59375,-0.4375 -1.63731,0.91652 -3.78269,-0.66287 -5.0625,-1.5 0.34296,-0.81209 0.69215,-0.99185 1.1875,-0.96875 z m 29.78125,2.40625 c 0.33552,0.003 0.72515,0.11965 0.78125,0.21875 0.11529,0.52254 -1.23159,0.32296 -1.34375,0.125 -0.0577,-0.26125 0.22698,-0.34675 0.5625,-0.34375 z M 335.5,324.875 c 0.3355,0.003 0.6939,0.0884 0.75,0.1875 0.11529,0.52253 -1.23159,0.35421 -1.34375,0.15625 -0.0576,-0.26125 0.25825,-0.34675 0.59375,-0.34375 z m -9.09375,0.0312 c 0.44015,0.0152 0.78378,0.23102 0.90625,0.90625 -1.74977,0.56707 -3.34431,0.21377 -4.90625,0.4375 -0.0231,-0.81731 0.23389,-1.3155 1.03125,-1.3125 0.56374,0.88693 2.00042,-0.0645 2.96875,-0.0312 z M 329,324.9375 c 0.64569,-0.0233 1.53505,0.5081 2.3125,0.4375 l 0,0.875 c -1.51904,0.32756 -1.77339,-0.59762 -3.125,-0.4375 0.11904,-0.64851 0.42509,-0.861 0.8125,-0.875 z m 10,0.0937 c 0.0713,-0.0132 0.128,-0.012 0.1875,0 0.15856,0.0319 0.28485,0.17804 0.34375,0.5 -1.21532,0.86975 -3.11844,1.0779 -3.75,2.53125 -1.00187,-0.25724 -1.10589,0.3681 -1.78125,0.4375 -0.43584,-2.4217 2.2871,-1.69578 2.84375,-3.125 0.87194,0.3565 1.65714,-0.25125 2.15625,-0.34375 z m -11.6875,1.6875 1.78125,0 c 0.0256,0.71915 1.00415,0.50112 0.90625,1.34375 -1.33955,0.29686 -1.3828,-0.73106 -2.6875,-0.46875 -1.4e-4,-0.29791 0,-0.57709 0,-0.875 z M 275.34375,351.75 c -0.0378,0.0645 -0.0874,0.12292 -0.125,0.1875 13.30316,22.83863 38.0351,38.1875 66.375,38.1875 13.98512,0 27.08201,-3.74769 38.375,-10.28125 -0.02,-0.0116 -0.0425,-0.0197 -0.0625,-0.0312 -0.11676,0.0688 -0.22659,0.15051 -0.34375,0.21875 -0.0524,-0.0305 -0.10394,-0.0631 -0.15625,-0.0937 -6.69412,3.78651 -14.00269,6.60782 -21.75,8.25 -0.21735,0.0461 -0.43822,0.0808 -0.65625,0.125 -0.44187,0.085 -0.8961,0.1719 -1.34375,0.25 -0.66645,0.11625 -1.32057,0.24307 -2,0.34375 -2.71772,0.40271 -5.53628,0.67286 -8.46875,0.8125 -2.90282,0.13833 -5.73164,0.12398 -8.46875,-0.0312 -0.10316,-0.006 -0.20958,-0.0253 -0.3125,-0.0312 -0.0417,-0.003 -0.0834,0.003 -0.125,0 -13.01121,-0.90289 -25.11185,-5.04132 -35.53125,-11.625 -0.68944,-0.43563 -1.35688,-0.88699 -2.03125,-1.34375 -0.007,-0.005 -0.0242,0.005 -0.0312,0 -0.0119,-0.008 -0.0193,-0.0233 -0.0312,-0.0312 -0.66925,-0.45418 -1.34608,-0.9317 -2,-1.40625 -0.69558,-0.50478 -1.3848,-1.00396 -2.0625,-1.53125 -0.41794,-0.32846 -0.81151,-0.66647 -1.21875,-1 -0.25125,-0.20379 -0.50139,-0.41811 -0.75,-0.625 -0.49749,-0.41778 -0.98779,-0.8257 -1.46875,-1.25 -0.51413,-0.45028 -1.02938,-0.91134 -1.53125,-1.375 -0.82411,-0.76565 -1.64183,-1.5763 -2.4375,-2.375 -0.79567,-0.7987 -1.57894,-1.60439 -2.34375,-2.4375 -0.30263,-0.32966 -0.60871,-0.6648 -0.90625,-1 -0.28768,-0.32821 -0.56161,-0.66687 -0.84375,-1 -0.25006,-0.29127 -0.50388,-0.57957 -0.75,-0.875 -0.52137,-0.63457 -1.03006,-1.28614 -1.53125,-1.9375 -0.50119,-0.65136 -0.98821,-1.30109 -1.46875,-1.96875 -1.36233,-1.89282 -2.62401,-3.85857 -3.8125,-5.875 -0.007,0.0119 -0.0253,0.0186 -0.0312,0.0312 -0.0541,-0.0921 -0.10201,-0.18907 -0.15625,-0.28125 z m 76.6875,11.09375 c 0.33552,0.003 0.6939,0.11975 0.75,0.21875 0.11529,0.52253 -1.23144,0.32312 -1.34375,0.125 -0.0577,-0.26125 0.25823,-0.34675 0.59375,-0.34375 z m 8.03125,5.375 c 0.5226,0.0358 0.84096,0.28796 1.1875,0.5 0.4619,-0.28272 0.9006,-0.63617 1.8125,-0.46875 0.36375,2.09875 -2.43414,3.40232 -3.59375,2.09375 0.62158,-0.60371 -0.24056,-1.02738 0,-2.09375 0.22801,-0.0417 0.41955,-0.0432 0.59375,-0.0312 z"
           inkscape:connector-curvature="0" />
        <path
           style="fill:#2159d6;fill-opacity:1;fill-rule:evenodd;stroke:none"
           id="path3767-2"
           d="m 303.3125,247.59375 c -2.46826,1.43773 -4.84162,3.02392 -7.125,4.71875 2.27559,-1.66807 4.65611,-3.24053 7.1875,-4.6875 -0.0202,-0.0118 -0.0423,-0.0195 -0.0625,-0.0312 z m -7.125,4.71875 c -0.78329,0.58139 -1.55253,1.17116 -2.3125,1.78125 0.75446,-0.6001 1.52614,-1.20482 2.3125,-1.78125 z m -2.3125,1.78125 c -0.75258,0.60416 -1.48983,1.21223 -2.21875,1.84375 0.72186,-0.62236 1.46429,-1.24365 2.21875,-1.84375 z m -4.46875,3.84375 c -0.6375,0.5971 -1.25819,1.22545 -1.875,1.84375 0.61334,-0.62094 1.23179,-1.23985 1.875,-1.84375 z m -3.8125,3.84375 c -3.21372,3.46468 -6.1205,7.2369 -8.65625,11.25 2.64532,-4.1413 5.59838,-7.8919 8.65625,-11.25 z m -8.84375,11.5625 c -0.5425,0.86773 -1.05419,1.73447 -1.5625,2.625 0.51254,-0.88708 1.0233,-1.77202 1.5625,-2.625 z m 53.15625,0.0625 c -0.29125,0.31837 -0.49393,0.73941 -0.375,1.46875 -1.95503,0.0803 -1.62073,2.46882 -3.875,2.25 -0.27885,0.41618 -0.6054,0.76208 -0.71875,1.34375 -2.30135,0.27646 -3.6139,-0.10273 -4.9375,1.3125 -1.59128,0.29523 -3.19473,0.60627 -3.875,1.8125 0.0242,0.67089 0.93415,0.46462 0.90625,1.1875 -0.88419,0.75415 -1.18604,2.08187 -2.53125,2.375 -0.34558,-0.49839 -1.03225,-0.65469 -1.03125,-1.5 0.23892,-1.10138 1.6411,-1.01847 2.53125,-1.46875 -1.02718,-0.0651 -0.62058,-1.56839 -1.34375,-1.9375 -2.39846,0.13346 -3.10924,1.95243 -4.78125,2.8125 -0.36896,1.70106 0.40517,1.99829 0.90625,2.6875 0.0956,0.13153 -0.0821,0.45165 0,0.59375 0.27825,0.48217 1.49362,1.0804 1.78125,1.65625 0.33962,0.68013 0.28273,1.01023 0.90625,1.34375 l 0,4.59375 c -0.82327,1.41074 -2.12091,2.36383 -3.875,2.84375 -0.36688,1.47003 -1.87584,1.81849 -2.84375,2.6875 l 0,-2.53125 c -0.24711,-0.24935 -0.87782,-0.12585 -1.34375,-0.15625 0.28346,-0.92873 -0.45599,-0.83609 -0.875,-1.0625 l 0,-1.46875 c -0.85455,-0.0888 -1.07848,-0.82195 -2.25,-0.59375 -0.0696,-0.52611 0.25276,-1.43835 -0.4375,-1.34375 -0.66985,0.47204 -1.00813,1.28747 -0.90625,2.53125 -0.56736,0.92202 -1.29925,1.68029 -1.34375,3.125 0.10337,0.29385 0.84365,-0.0534 0.90625,0.28125 -0.27288,1.51397 0.73973,1.73793 0.4375,3.28125 1.93641,0.099 2.40033,1.68921 3.59375,2.53125 l 0,3.59375 c 0.5279,0.7132 1.04749,1.39892 0.875,2.8125 0.24831,0.1987 0.96045,-0.0321 0.90625,0.46875 -0.15834,0.33813 -0.93948,0.0328 -1.34375,0.125 -0.66582,-1.9653 -3.5784,-1.66542 -3.5625,-4.3125 -0.35273,-0.24309 -0.82415,-0.36126 -0.90625,-0.875 0.49647,-0.48231 -0.29895,-1.9159 0,-3.15625 -0.76696,-0.42451 -1.17201,-1.19887 -1.34375,-2.21875 -0.10338,-0.2939 -0.84355,0.0221 -0.90625,-0.3125 -0.32204,-2.19663 1.34863,-4.1609 0.46875,-5.5 1.26538,-1.98392 -0.57168,-4.41013 0,-7.15625 -1.35459,0.2352 -1.90967,2.0903 -3.59375,1.5 0.13912,-1.33746 1.03985,-3.50085 0,-4.625 -0.14732,-0.59403 0.45966,-0.43721 0.3125,-1.03125 -1.30887,-0.0812 -1.1935,-1.57289 -1.1875,-2.96875 -1.23766,0.59925 -2.26632,1.39663 -4.3125,1.1875 -0.088,0.30923 -0.31592,0.50575 -0.625,0.59375 l 0,1.1875 c -0.75326,0.0906 -0.57591,1.08011 -1.625,0.875 -1.02465,1.70568 -3.10326,2.35374 -3.71875,4.46875 -0.54576,4.4e-4 -0.39119,0.71899 -1.1875,0.46875 0.0122,1.00515 -1.03601,0.93982 -1.5,1.46875 0.51091,3.24141 -1.27175,4.21632 -1.34375,6.875 -1.29352,0.84115 -1.11037,3.16122 -2.6875,3.71875 -0.94109,-3.47734 -0.21288,-8.61869 -0.4375,-12.8125 0.0606,-0.28689 0.56798,-0.11561 0.4375,-0.59375 -0.19454,-1.78313 0.65422,-2.53828 0.90625,-3.875 -0.60863,-0.0625 -0.60539,0.47355 -1.34375,0.28125 -0.25858,-1.35072 0.30567,-1.8833 0.75,-2.53125 -0.53817,-0.45461 -0.223,-1.75285 -0.3125,-2.65625 -0.60417,0.0411 -0.80381,0.45702 -1.625,0.28125 -4.90283,9.22013 -7.8939,19.00295 -8.5,32.03125 -0.65956,14.17614 3.04392,26.0203 7.90625,35.75 0.45255,0.90555 0.91984,1.80522 1.40625,2.6875 0.0111,0.0202 0.0201,0.0423 0.0312,0.0625 9.60933,-15.37823 24.48496,-27.11954 42.125,-32.65625 -0.19121,-0.0135 -0.39334,-0.0509 -0.59375,-0.0312 -0.68461,0.067 -1.40186,0.30933 -1.875,0.59375 0.0197,-0.36718 0.0466,-0.73018 -0.125,-0.90625 l -2.09375,0 c 0.0359,-0.97908 -0.73735,-1.13183 -0.4375,-2.375 -0.0167,-0.3806 -0.51137,-0.3105 -0.90625,-0.3125 -0.16281,-1.47554 -1.1264,-2.14164 -0.90625,-4 0.54384,-0.10158 0.69219,-0.63114 1.0625,-0.90625 0.93841,-0.19364 0.74572,0.72826 1.78125,0.4375 0.59493,-0.99367 1.97713,-1.18426 2.53125,-2.21875 1.9933,-0.47382 1.84358,-3.0548 4.3125,-3.125 0.17145,-0.17606 0.17595,-0.53908 0.15625,-0.90625 l 0.75,0 c -0.0347,-1.12684 1.15399,-1.00388 1.03125,-2.21875 0.75972,0.23825 0.67747,-0.39485 1.125,-0.46875 0.0639,-0.0106 0.12855,-0.0157 0.21875,0 -0.22835,1.17153 0.50495,1.39545 0.59375,2.25 1.26761,-0.22522 1.5319,0.55057 2.09375,1.03125 -0.0856,0.75832 -1.15888,0.55965 -0.90625,1.65625 l -1.1875,0 c -0.28152,0.36375 0.004,1.26498 -0.4375,1.46875 0.31399,0.67893 1.04656,0.96065 0.75,2.25 0.49646,0.49662 1.58688,0.3577 1.3125,1.625 -0.61741,0.12721 -1.82565,-0.32055 -1.78125,0.46875 0.32755,0.71498 1.65566,0.42681 1.34375,1.78125 -0.85053,0.0562 -0.64652,-0.93425 -1.46875,-0.90625 -0.49379,0.0523 -0.2483,0.86173 -0.3125,1.34375 -0.86752,-0.22209 -0.81794,0.47413 -1.34375,0.59375 0.08,0.51765 0.0347,0.94073 -0.0312,1.3125 -0.017,0.0957 -0.0411,0.19078 -0.0625,0.28125 1.24786,-0.30724 2.51016,-0.59845 3.78125,-0.84375 0.0116,-0.07 0.0218,-0.14928 0.0312,-0.21875 0.0881,-0.64855 0.0591,-1.26074 -0.15625,-2 0.53345,0.0867 0.47475,-0.45343 0.46875,-0.90625 l 0.75,0 c 0.59105,-3.41001 5.23523,-0.12592 7.71875,-1.78125 l 0,1.34375 c -1.24601,-0.25307 -0.85031,1.09411 -2.0625,0.875 -0.13063,0.66375 -0.12989,1.4821 -0.90625,1.5 -0.009,0.0254 0.005,0.041 0,0.0625 -0.0136,0.0541 -0.008,0.12355 0,0.15625 0.009,0.0393 0.0305,0.0464 0.0625,0.0625 0.0324,0.0163 0.0783,0.0304 0.125,0.0312 2.19203,-0.24427 4.41225,-0.41329 6.65625,-0.46875 -0.005,-0.0916 -0.028,-0.19103 -0.0312,-0.28125 -0.057,-1.57211 0.12537,-2.91361 0.625,-4.625 l 0.46875,0 c 0.24205,0.48797 -0.0339,0.56532 0,1.1875 0.43138,0.10687 0.47221,-0.1732 0.6875,-0.28125 -0.63977,-11.81982 -3.94716,-22.91842 -9.34375,-32.71875 -0.0396,0.10574 -0.082,0.2105 -0.125,0.3125 -0.11799,0.27928 -0.26619,0.52326 -0.40625,0.78125 -0.10383,0.1919 -0.19564,0.38364 -0.3125,0.5625 -0.0199,0.0305 -0.0423,0.0636 -0.0625,0.0937 -0.13049,0.19307 -0.25899,0.38622 -0.40625,0.5625 -0.18102,-0.10442 -0.37034,-0.18795 -0.53125,-0.3125 -0.0746,-0.0572 -0.15245,-0.15345 -0.21875,-0.21875 -0.005,-0.005 -0.0263,0.005 -0.0312,0 -0.21697,-0.21868 -0.3722,-0.47263 -0.4375,-0.84375 -0.046,-0.23949 -0.0489,-0.50946 0,-0.84375 0.1116,-0.0431 0.223,-0.091 0.3125,-0.15625 0.0422,-0.0303 0.0866,-0.0595 0.125,-0.0937 0.0424,-0.0382 0.0868,-0.0826 0.125,-0.125 0.0711,-0.0779 0.1265,-0.1619 0.1875,-0.25 0.24261,-0.35621 0.42016,-0.76229 0.6875,-1.09375 0.0236,-0.0286 0.0374,-0.0666 0.0625,-0.0937 0.01,-0.0107 0.0185,-0.0241 0.0312,-0.0312 -0.37244,-0.63648 -0.76617,-1.25037 -1.15625,-1.875 z m 0.6875,10.40625 c 0.23393,-0.023 0.41496,0.0333 0.5625,0.0937 0.14965,0.0613 0.27585,0.13815 0.40625,0.21875 0.25516,0.1588 0.51976,0.27701 1.09375,0.125 l 0,3.15625 c -0.2206,0.10211 -0.41666,0.22906 -0.625,0.34375 -0.0966,0.0526 -0.20305,0.11645 -0.3125,0.15625 -0.11001,0.0396 -0.24283,0.0763 -0.375,0.0937 l 0,0.875 c 0.007,0.0492 0.007,0.0938 0.0312,0.125 0.17486,0.2167 0.7258,0.0393 0.84375,0.3125 0.005,0.008 -0.004,0.0222 0,0.0312 0.0403,0.28855 -0.17644,0.32535 -0.40625,0.34375 -0.11647,0.0128 -0.25105,-0.004 -0.34375,0.0312 -0.0343,0.0153 -0.0709,0.0356 -0.0937,0.0625 -0.005,0.005 0.005,0.0253 0,0.0312 -0.0196,0.0305 -0.0283,0.0779 -0.0312,0.125 -0.0126,0.11726 8.5e-4,0.20065 0.0312,0.28125 0.0879,0.2327 0.32943,0.3195 0.59375,0.3125 0.27791,-0.0189 0.59141,-0.12022 0.75,-0.28125 0.0525,-0.053 0.0768,-0.0953 0.0937,-0.15625 0.003,-0.008 -0.002,-0.0233 0,-0.0312 0.39711,0.34751 1.0436,0.46163 1.65625,0.59375 -0.002,0.0112 0.002,0.0202 0,0.0312 -0.0242,0.13628 -0.0315,0.26355 -0.0312,0.375 2e-4,0.11145 0.012,0.18885 0.0312,0.28125 0.0385,0.18558 0.1074,0.32462 0.1875,0.46875 0.12325,0.22413 0.25585,0.42808 0.34375,0.6875 0.0283,0.0834 0.0497,0.1511 0.0625,0.25 l 1.625,0 c -0.007,0.0812 0.0168,0.16035 0.0312,0.21875 0.0152,0.0593 0.0253,0.11905 0.0625,0.15625 0.0361,0.0361 0.0666,0.0481 0.125,0.0625 0.01,0.003 0.0211,-0.003 0.0312,0 0.0528,0.01 0.1179,0.006 0.1875,0 l 0,0.0312 0,1.78125 -0.71875,0 c -0.083,0.45536 0.2331,0.52536 0.3125,0.8125 0.0281,0.0961 0.0143,0.2053 -0.0312,0.375 -0.044,0.0428 -0.0929,0.0702 -0.15625,0.0937 -0.0633,0.0235 -0.14105,0.0535 -0.21875,0.0625 -0.15549,0.0183 -0.31642,0.01 -0.5,0 7.5e-4,-0.0102 -4.7e-4,-0.0211 0,-0.0312 -0.0107,-5.8e-4 -0.0204,5.8e-4 -0.0312,0 0.008,-0.11423 0.0198,-0.20448 0,-0.3125 -0.0633,-0.33552 -0.23263,-0.63903 -0.34375,-0.9375 -0.032,-0.0864 -0.0754,-0.1651 -0.0937,-0.25 -0.002,-0.0105 0.002,-0.0208 0,-0.0312 -0.0161,-0.0838 -0.006,-0.1668 0,-0.25 9.7e-4,-0.009 -10e-4,-0.0222 0,-0.0312 0.01,-0.0842 0.0519,-0.1655 0.0937,-0.25 0.003,-0.007 -0.004,-0.0242 0,-0.0312 0.0476,-0.0874 0.12675,-0.1613 0.21875,-0.25 -9.8e-4,-0.0104 10e-4,-0.0211 0,-0.0312 -0.007,-0.0795 -0.0362,-0.1267 -0.0625,-0.1875 -0.13308,-0.31199 -0.44783,-0.41968 -0.65625,-0.65625 -0.0425,-0.0448 -0.0949,-0.068 -0.125,-0.125 -0.0297,-0.0571 -0.05,-0.14435 -0.0625,-0.21875 -0.53959,0.22466 0.0323,0.38189 0.1875,0.8125 0.0525,0.14386 0.067,0.31106 -0.0312,0.53125 -0.0901,0.0157 -0.15485,0.0105 -0.21875,0 -0.0535,-0.009 -0.11585,-0.009 -0.15625,-0.0312 -0.007,-0.004 -0.0253,0.004 -0.0312,0 -0.0429,-0.0269 -0.0598,-0.0892 -0.0937,-0.125 -0.0392,-0.0421 -0.0868,-0.0818 -0.125,-0.125 -0.0682,-0.0807 -0.13999,-0.1486 -0.25,-0.1875 -0.11032,-0.0381 -0.25176,-0.0367 -0.46875,0.0312 0.15312,-1.04134 0.31772,-1.12496 0,-2.09375 -0.1417,0.0445 -0.31595,0.10285 -0.5,0.15625 -0.46384,0.1352 -1.00571,0.26217 -1.46875,0.125 -0.0922,-0.0276 -0.1669,-0.0753 -0.25,-0.125 -0.008,-0.004 -0.0233,0.005 -0.0312,0 -0.0322,-0.0843 -0.0115,-0.11495 0,-0.15625 0.002,-0.25898 0.47346,-0.0159 0.3125,-0.4375 -0.17242,0.0759 -0.33078,0.16834 -0.46875,0.28125 -0.12808,0.10993 -0.25665,0.25545 -0.28125,0.46875 -0.13047,0.47814 0.40815,0.30671 0.46875,0.59375 0.0271,0.32486 -0.0412,0.53591 -0.15625,0.71875 -0.0142,0.0245 -0.0467,0.0396 -0.0625,0.0625 -0.0466,0.0628 -0.10095,0.1334 -0.15625,0.1875 -0.006,0.006 0.006,0.0253 0,0.0312 -0.0381,0.0364 -0.0849,0.0593 -0.125,0.0937 -0.0334,0.0289 -0.0596,0.0654 -0.0937,0.0937 -0.008,-0.004 -0.0233,0.004 -0.0312,0 -0.10202,-0.0442 -0.1659,-0.094 -0.25,-0.15625 -0.0797,-0.0569 -0.15275,-0.117 -0.21875,-0.1875 -0.39492,-0.42551 -0.57095,-1.07859 -0.71875,-1.75 0.0678,-0.19295 0.43134,-0.0892 0.625,-0.15625 0.0553,-0.0201 0.1079,-0.0679 0.125,-0.125 0.004,-0.012 -0.003,-0.0202 0,-0.0312 0.0154,-0.0505 0.0304,-0.0893 0.0312,-0.125 -8.3e-4,-0.0122 0.003,-0.0208 0,-0.0312 -0.002,-0.0281 -0.0202,-0.0434 -0.0312,-0.0625 -0.0346,-0.0393 -0.0878,-0.0575 -0.15625,-0.0625 -0.0107,-10e-4 -0.0199,5.5e-4 -0.0312,0 -0.009,-2e-4 -0.0213,-1.1e-4 -0.0312,0 -0.0762,2.1e-4 -0.1646,-0.009 -0.25,0 -0.095,0.008 -0.21085,0.0165 -0.28125,0 -0.11097,-0.45833 0.42347,-0.29151 0.3125,-0.75 0.025,-0.32293 -0.53343,-0.0435 -0.75,-0.125 -7.4e-4,-0.011 8.9e-4,-0.0204 0,-0.0312 -0.007,-0.11108 -0.0111,-0.2149 -0.0312,-0.3125 -0.002,-0.01 0.002,-0.0213 0,-0.0312 -0.0233,-0.10603 -0.0611,-0.18515 -0.0937,-0.28125 -0.16296,-0.4786 -0.4059,-0.88998 -0.375,-1.5625 5.4e-4,-0.009 -6.4e-4,-0.0222 0,-0.0312 0.008,-0.13836 0.0285,-0.2732 0.0625,-0.4375 0.18358,0.01 0.34451,0.0183 0.5,0 0.0754,-0.01 0.15715,-0.0383 0.21875,-0.0625 0.0634,-0.0235 0.11225,-0.0509 0.15625,-0.0937 l 0,-2.53125 c 0.54383,-0.10158 0.69205,-0.63113 1.0625,-0.90625 z m -60.4375,2.75 c -0.56843,1.48663 -1.08554,3.0018 -1.5625,4.53125 0.47394,-1.52984 0.99812,-3.04119 1.5625,-4.53125 z m -2.1875,6.65625 c -0.19074,0.68121 -0.35898,1.37376 -0.53125,2.0625 0.16748,-0.697 0.34563,-1.37987 0.53125,-2.0625 z m -0.53125,2.0625 c -1.49617,5.98161 -2.3125,12.24037 -2.3125,18.6875 0,13.98512 3.74769,27.08201 10.28125,38.375 0.0116,-0.0201 0.0197,-0.0425 0.0312,-0.0625 -0.0688,-0.11676 -0.15051,-0.22659 -0.21875,-0.34375 0.0377,-0.0647 0.0871,-0.1229 0.125,-0.1875 -0.30455,-0.51757 -0.61602,-1.03257 -0.90625,-1.5625 -0.12193,-0.22516 -0.224,-0.461 -0.34375,-0.6875 -0.6879,-1.30113 -1.35466,-2.62494 -1.96875,-3.96875 -0.30799,-0.67397 -0.61735,-1.34704 -0.90625,-2.03125 -0.13029,-0.30857 -0.24864,-0.6269 -0.375,-0.9375 -0.2119,-0.52932 -0.42416,-1.0545 -0.625,-1.59375 -0.005,-0.0125 -0.0263,-0.0186 -0.0312,-0.0312 -0.0833,-0.22415 -0.13735,-0.46162 -0.21875,-0.6875 -2.44086,-6.7736 -4.01863,-14.31284 -4.46875,-22.78125 -0.3691,-6.94449 0.11266,-13.35896 1.28125,-19.28125 0.009,-0.042 0.0222,-0.0831 0.0312,-0.125 0.14034,-0.70469 0.30991,-1.40311 0.46875,-2.09375 0.0539,-0.228 0.10035,-0.46029 0.15625,-0.6875 z M 332.375,294 c 0.88037,-7e-4 1.04696,0.73488 1.375,1.28125 0.0476,0.0787 0.099,0.14975 0.15625,0.21875 0.0754,0.0911 0.14646,0.15515 0.25,0.21875 0.11725,0.018 0.18195,-0.003 0.21875,-0.0625 0.11305,-0.18482 -0.0327,-0.60985 0.21875,-0.65625 0.0931,0.0261 0.16045,0.0735 0.21875,0.125 0.43298,0.35187 0.0353,1.24724 -0.34375,1.5 0.0586,0.009 0.0826,0.007 0.125,0 0.0424,-0.007 0.0938,-0.0127 0.125,-0.0312 0.12459,-0.074 0.16608,-0.22915 0.3125,-0.28125 0.0715,-0.0274 0.17341,-0.0398 0.3125,0 0.0438,0.19159 0.19453,0.2879 0.3125,0.40625 0.0587,0.053 0.0957,0.1051 0.125,0.1875 0.0292,0.0824 0.0636,0.16843 0.0312,0.3125 -0.40445,-0.0941 -0.73769,-0.0793 -1,-0.0312 -0.13034,0.0245 -0.26738,0.0464 -0.375,0.0937 -0.52745,0.23582 -0.84829,0.70084 -1.46875,0.84375 -0.37328,-0.22239 -0.8197,-0.36572 -0.75,-1.03125 9.2e-4,-0.0115 -0.001,-0.0195 0,-0.0312 0.005,-0.0691 0.038,-0.10645 0.0625,-0.15625 0.17076,-0.35056 0.7254,-0.31587 0.6875,-0.875 -0.25486,-0.3408 -1.12347,-0.062 -1.625,-0.15625 -0.009,-10e-4 -0.0222,0.002 -0.0312,0 0.009,-0.0844 0.0384,-0.14935 0.0625,-0.21875 0.16446,-0.48718 0.63134,-0.68573 0.40625,-1.5625 0.22604,-0.0584 0.42606,-0.0936 0.59375,-0.0937 z m 4.3125,2.78125 c 0.34665,-0.0116 0.4158,0.2491 0.6875,0.3125 0.0895,0.0196 0.1894,0.0115 0.34375,-0.0312 -0.002,0.0109 0.002,0.0206 0,0.0312 0.0122,-0.003 0.0183,0.004 0.0312,0 -0.0175,0.0982 -0.0342,0.1727 -0.0312,0.25 0.003,0.0772 0.0107,0.1273 0.0312,0.1875 0.009,0.0326 0.0179,0.065 0.0312,0.0937 0.0118,0.0216 0.0174,0.0429 0.0312,0.0625 0.007,0.0118 0.0233,0.0201 0.0312,0.0312 0.1709,0.21268 0.45245,0.32058 0.625,0.53125 2.8e-4,0.01 -2.3e-4,0.0213 0,0.0312 0.0124,0.43443 -0.0294,0.92632 0,1.34375 0.0262,0.31607 0.1147,0.57834 0.28125,0.75 0.0512,0.0485 0.1168,0.096 0.1875,0.125 -0.12441,0.12378 -0.20855,0.29325 -0.28125,0.46875 -0.073,0.17425 -0.14295,0.36011 -0.21875,0.53125 -0.15085,0.34561 -0.35555,0.64825 -0.84375,0.65625 -0.0582,-0.15459 0.048,-0.49142 0,-0.65625 -0.003,-0.006 0.004,-0.0263 0,-0.0312 -0.009,-0.0194 -0.0471,-0.0188 -0.0625,-0.0312 -0.0242,-0.0124 -0.0534,-0.0342 -0.0937,-0.0312 -0.0811,0.0182 -0.1388,0.0746 -0.1875,0.125 -0.0385,0.0475 -0.074,0.0899 -0.0937,0.15625 -0.004,0.01 0.003,0.0211 0,0.0312 -0.1204,0.46479 0.0902,1.31758 -0.0312,1.78125 -0.50205,-0.0192 -0.87538,-0.16585 -1.21875,-0.34375 -0.11301,-0.0581 -0.24209,-0.1182 -0.34375,-0.1875 C 335.3561,302.82764 335.18051,302.667 335,302.5 c -0.1782,-0.16508 -0.35113,-0.33262 -0.53125,-0.5 -0.11798,-0.51509 0.14883,-0.64141 0.28125,-0.90625 -0.0328,-0.21532 -0.0933,-0.37454 -0.21875,-0.5 -0.0677,-0.0677 -0.1551,-0.11565 -0.25,-0.15625 -0.0854,-0.0397 -0.17359,-0.0774 -0.28125,-0.0937 -0.37043,0.21635 -0.85485,0.62373 -1.28125,0.34375 -0.005,-0.004 -0.0263,0.004 -0.0312,0 -0.0616,-0.0442 -0.098,-0.1108 -0.15625,-0.1875 -0.11726,-0.018 -0.17905,0.0317 -0.21875,0.0937 -0.0942,0.15402 -0.009,0.46169 -0.125,0.59375 -0.006,0.009 -0.0242,0.0233 -0.0312,0.0312 -0.0197,0.0149 -0.0645,0.0263 -0.0937,0.0312 -0.45189,-0.46625 -0.40333,-0.91097 -0.0937,-1.3125 0.50915,-0.66723 1.74471,-1.19998 2.5,-1.375 l 0,0.75 c 0.40722,-0.0276 0.66243,-0.21513 0.96875,-0.34375 0.10328,-0.0421 0.21677,-0.0718 0.34375,-0.0937 l 0,-0.75 c 0.18358,0.01 0.37259,0.0201 0.53125,0 0.15549,-0.0183 0.287,-0.0706 0.375,-0.15625 1.6e-4,-0.39712 0,-0.79039 0,-1.1875 z m -57.03125,1.78125 c 1.14323,0.57228 2.49408,5.89931 -0.59375,5.375 -0.24606,-2.23194 0.4372,-3.54569 0.59375,-5.375 z m 14.59375,5.375 0.59375,0 c 0.37507,0.4689 1.17917,0.5082 2.09375,0.4375 0.9396,0.8477 0.96115,2.5954 2.65625,2.6875 0.24637,1.78909 2.00887,2.04941 3.4375,2.65625 0.0808,0.27911 0.23477,0.49673 0.40625,0.6875 0.17148,0.19077 0.36078,0.36996 0.5625,0.53125 0.40344,0.32257 0.80669,0.62974 0.96875,1.1875 0.20675,0.80242 -0.55801,0.62743 -0.4375,1.34375 0.75646,0.0876 1.04183,0.6458 1.3125,1.21875 0.0677,0.14324 0.14605,0.29934 0.21875,0.4375 0.21823,0.41449 0.48091,0.7611 1,0.875 0.15923,-0.55634 -0.3844,-0.43719 -0.3125,-0.90625 0.42228,-0.17338 0.57142,-0.61416 1.34375,-0.4375 -0.42007,1.43291 0.9791,1.49731 1,2.28125 0.003,0.11199 -0.0317,0.22699 -0.0937,0.375 -0.45849,0.11083 -0.29151,-0.39222 -0.75,-0.28125 -1.25807,1.35683 0.28866,2.88238 -0.59375,4.3125 -0.64527,-0.24831 -1.1668,-0.62696 -2.25,-0.4375 -0.42049,-1.466 -2.6102,-1.15955 -2.6875,-2.96875 -0.17607,-0.17145 -0.50783,-0.17595 -0.875,-0.15625 -0.048,-0.89522 -0.47949,-1.42093 -0.90625,-1.9375 0.069,-1.11165 -0.42292,-1.65955 -0.875,-2.25 -0.075,-3.20148 -3.00836,-3.55884 -3.59375,-6.25 -1.14695,-0.73941 -2.15455,-1.5838 -2.21875,-3.40625 z m 35.875,7.59375 c 0.72004,0.5708 1.70946,0.87487 2.09375,1.78125 0.73823,-0.25471 0.97882,-0.99715 1.1875,-1.78125 l -3.28125,0 z m 0.0937,0.84375 c -0.58942,-0.009 -1.24031,0.1104 -1.5625,0.1875 l 0,0.59375 c 0.58837,0.18931 2.29667,0.36598 2.65625,-0.15625 -0.001,-0.48641 -0.50433,-0.616 -1.09375,-0.625 z m 11.2813,0.1875 c -0.33543,0.24865 -0.49904,0.66733 -0.84375,0.90625 -0.10415,0.0722 -0.25518,0.0997 -0.40625,0.125 10e-4,0.0429 0.0252,0.0868 0.0312,0.125 0.41474,-0.007 0.83368,3.3e-4 1.25,0 -0.001,-0.38412 -0.0244,-0.77349 -0.0312,-1.15625 z m -8.96875,1.625 c -0.0178,0.0257 -0.014,0.0673 -0.0312,0.0937 0.0219,-0.003 0.0406,-0.0287 0.0625,-0.0312 -0.008,-0.02 -0.0302,-0.0442 -0.0312,-0.0625 z"
           inkscape:connector-curvature="0" />
        <path
           style="fill:#1ad127;fill-opacity:1;fill-rule:evenodd;stroke:none"
           id="path3769-9"
           d="m 341.28125,237.46875 c -13.98512,0 -27.08201,3.74769 -38.375,10.28125 0.0201,0.0116 0.0425,0.0197 0.0625,0.0312 0.11215,-0.0661 0.23123,-0.12196 0.34375,-0.1875 0.0202,0.0118 0.0423,0.0195 0.0625,0.0312 0.0929,-0.0531 0.18803,-0.10348 0.28125,-0.15625 5.31904,-3.01123 11.16866,-5.50154 17.53125,-7.28125 5.04658,-1.41179 11.21804,-2.27072 16.6875,-2.53125 0.76735,-0.0364 1.52547,-0.0785 2.28125,-0.0937 2.92866,-0.0593 5.77619,0.0418 8.53125,0.28125 -2.43767,-0.23333 -4.9071,-0.375 -7.40625,-0.375 z m 7.40625,0.375 c 0.68876,0.0599 1.38462,0.14147 2.0625,0.21875 -0.68606,-0.0844 -1.37094,-0.15255 -2.0625,-0.21875 z m 2.0625,0.21875 c 0.59314,0.0676 1.1652,0.13817 1.75,0.21875 -0.58378,-0.0856 -1.16201,-0.1464 -1.75,-0.21875 z m 9.3125,4.65625 c -0.35765,0.18858 0.0989,1.17766 -0.28125,1.34375 -2.23834,-0.0453 -3.83187,-0.75936 -6.40625,-0.46875 -1.20072,-1.403 -2.61334,0.43734 -3.4375,0.90625 -0.69547,0.39562 -1.79973,0.24805 -1.625,1.03125 0.38847,0.47442 0.64843,-0.41323 1.34375,-0.125 0.0718,0.46905 -0.47159,0.31866 -0.3125,0.875 1.15737,-0.74938 2.28057,-0.2495 3.28125,0.3125 0.49021,-0.0558 0.31311,-0.7971 0.90625,-0.75 1.33016,0.7053 1.07196,2.98647 2.8125,3.28125 l 0,0.59375 c -0.0626,0.33455 -0.77163,-0.0127 -0.875,0.28125 l 0,1.0625 c 0.56721,0.22716 1.3612,0.18817 1.3125,1.03125 -0.53505,0.0111 -1.185,-0.10606 -1.3125,0.3125 0.11365,0.87928 1.35659,0.58783 1.46875,1.46875 1.12506,-0.0329 2.26775,-0.0789 2.6875,0.59375 -0.32308,-0.025 -0.0747,0.53342 -0.15625,0.75 -1.32212,-0.32904 -1.32712,0.64885 -2.0625,0.90625 -0.23506,-0.50955 -1.0214,-0.51505 -1.8125,-0.46875 0.10144,1.28876 1.14161,1.65569 1.65625,2.53125 -0.59671,1.24019 -1.16931,2.52519 -0.90625,4.625 -0.4786,-0.13093 -0.202,0.4816 -0.59375,0.4375 -0.28391,-0.0635 -0.27498,-0.4089 -0.75,-0.28125 -0.45267,0.99472 -1.88183,0.7095 -3.125,0.4375 0.0177,0.96092 -0.62326,1.27716 -1.1875,1.65625 -0.6265,-0.36628 -0.82331,-1.18376 -1.34375,-1.65625 -0.43688,0.20855 0.15579,1.44756 -0.28125,1.65625 -1.22768,-0.28465 -1.47871,0.4216 -2.40625,0.4375 -0.30465,-0.24146 0.0235,-1.1023 -0.28125,-1.34375 l -1.0625,0 c -0.1077,0.85217 0.85755,0.64783 0.75,1.5 -0.67998,0.41216 -0.16076,1.997 -1.1875,2.0625 -0.19602,-0.35005 -0.66065,-0.41813 -1.03125,-0.59375 -0.0403,-1.10137 -1.03241,-1.26335 -0.90625,-2.53125 1.42669,-0.55903 2.70749,-1.24429 3.71875,-2.21875 1.80801,0.3986 2.69394,-0.80346 3.875,-0.15625 0.0815,-0.21643 -0.16669,-0.775 0.15625,-0.75 1.18717,-0.0539 1.39934,-1.07847 2.84375,-0.875 0.22894,-0.49438 -0.71199,-0.57527 -0.15625,-0.90625 0.45908,-0.11141 0.18696,0.52804 0.75,0.3125 0.74716,-1.39748 0.48873,-3.67914 -0.46875,-4.625 0.35109,-0.74105 1.68142,-0.5388 1.8125,-1.5 -0.54165,-0.66598 -0.64526,-1.26126 -0.46875,-2.375 -1.11954,-0.86631 -0.62717,-3.32446 -2.21875,-3.71875 l 0,2.96875 c -0.72317,0.36896 -1.2645,0.92447 -1.5,1.78125 -1.91347,0.77249 -3.37592,3.8678 -6.25,2.25 -0.74403,0.69562 -2.11785,0.75483 -2.09375,2.21875 -0.62411,0.61697 -1.95809,0.51959 -2.21875,1.5 1.50772,0.67656 2.48627,1.86057 2.21875,4.3125 -1.40597,0.23223 -2.39948,0.86845 -4,0.90625 0.17115,-1.7508 -0.0316,-2.32436 0.28125,-3.59375 -0.97699,0.0337 -1.99915,0.13015 -2.09375,-0.71875 0.33083,-0.26499 0.60341,-0.61342 0.46875,-1.34375 -1.96083,-0.80375 -3.29006,1.05615 -4.46875,1.03125 0.30358,-0.78871 0.93279,-1.25632 1.1875,-2.09375 -2.34976,-0.0661 -2.55292,2.00707 -5.0625,1.78125 -0.10308,0.8477 0.7028,0.80257 1.1875,1.0625 -0.0293,0.42646 -0.028,0.8181 0.4375,0.75 0.5626,-0.28138 1.09365,-0.62473 1.65625,-0.90625 0.14986,0.69413 1.44074,0.24639 1.9375,0.59375 l 0,0.75 c -1.90959,0.0763 -2.85437,1.12852 -3.875,2.09375 0.30952,0.48485 0.80961,0.77102 1.1875,1.1875 -0.22909,1.91689 1.9007,1.47385 1.34375,3.71875 -0.14806,0.398 -1.2856,-0.20688 -1.1875,0.4375 0.20855,0.43688 1.41646,-0.12439 1.625,0.3125 -0.69845,0.9399 -0.75569,2.54346 -2.25,2.6875 -0.0121,0.98482 -0.68982,1.28194 -1.21875,1.75 -0.0691,0.0611 -0.12535,0.11956 -0.1875,0.1875 0.38907,0.62295 0.78473,1.24026 1.15625,1.875 0.0204,-0.0114 0.046,-0.0152 0.0625,-0.0312 0.042,-0.0401 0.0783,-0.0898 0.125,-0.125 0.0776,-0.0587 0.1558,-0.11415 0.25,-0.15625 0.0555,-0.0284 0.1238,-0.0421 0.1875,-0.0625 0.0777,-0.0221 0.1604,-0.0523 0.25,-0.0625 0.20385,-0.0197 0.44252,-0.0215 0.71875,0.0312 0.0104,0.002 0.0206,-0.002 0.0312,0 -0.0539,0.2571 -0.1236,0.50291 -0.1875,0.75 -0.018,0.0711 -0.0437,0.14855 -0.0625,0.21875 -0.11204,0.40788 -0.23287,0.80828 -0.375,1.1875 5.40055,9.80958 8.70917,20.91811 9.34375,32.75 0.0315,-0.0172 0.0527,-0.0545 0.0937,-0.0625 0.0684,-0.0137 0.14083,-0.0271 0.25,0 0.0527,0.19558 0.2769,0.2562 0.3125,0.46875 0.20347,0.65019 -0.59865,0.29825 -0.46875,0.875 0.0387,0.7059 1.04046,0.46492 0.90625,1.34375 -0.41574,-0.0966 -0.69516,-0.0455 -0.90625,0.0625 -0.0424,0.0224 -0.0567,0.0663 -0.0937,0.0937 0.008,0.43525 0.0307,0.8755 0.0312,1.3125 0.73538,-0.002 1.45715,-0.0396 2.1875,-0.0625 0.004,-0.091 0.007,-0.1898 0.0312,-0.28125 0.16686,-0.005 0.33341,0.006 0.5,0 -0.0136,0.0982 -0.002,0.19851 0,0.28125 0.14597,-0.006 0.29174,-0.0249 0.4375,-0.0312 7.3e-4,-0.0808 0.012,-0.18196 0.0312,-0.28125 1.16009,-0.0499 2.32262,-0.11782 3.46875,-0.21875 0.11643,-0.004 0.22536,0.002 0.34375,0 0.50677,-0.0107 1.03405,0.007 1.5625,0.0312 0.012,0.007 0.0201,0.0238 0.0312,0.0312 23.90025,-2.74457 44.44244,-16.46982 56.5,-36 -0.007,-0.0122 -0.0245,-0.0191 -0.0312,-0.0312 -6.70918,-12.20977 -16.30859,-21.72552 -28.65625,-28.5 -2.56485,-1.40717 -7.29576,-4.3731 -10.28125,-4.3125 -0.2638,-0.13332 -0.16375,-0.5951 -0.71875,-0.4375 -1.01021,0.43182 -0.8552,0.30223 -1.9375,0 0.16265,1.32674 1.98666,0.99268 2.53125,1.9375 0.36926,1.65995 -1.30247,1.28169 -0.90625,2.96875 -0.60669,0.13793 -0.61864,0.88655 -1.34375,0.90625 0.63365,-2.36316 -3.3456,-2.45653 -3.125,-5.375 1.06532,0.22134 0.94904,-0.73811 1.1875,-1.34375 -0.78781,-0.24175 -0.46224,0.6167 -1.1875,0.4375 -0.0833,-0.4132 -0.51045,-0.46165 -0.59375,-0.875 l -1.5,0 z m 35.46875,17.25 c 0.60397,0.60581 1.22202,1.2119 1.8125,1.84375 -0.59538,-0.63711 -1.19598,-1.22724 -1.8125,-1.84375 z m 6,6.75 c 0.43201,0.54571 0.86056,1.09437 1.28125,1.65625 -0.41606,-0.55768 -0.85056,-1.11041 -1.28125,-1.65625 z m 1.28125,1.65625 c 0.50676,0.67683 1.0108,1.36214 1.5,2.0625 -0.48254,-0.6932 -0.99547,-1.38624 -1.5,-2.0625 z"
           inkscape:connector-curvature="0" />
        <path
           style="fill:#d6130f;fill-opacity:1;fill-rule:evenodd;stroke:none"
           id="path3771-2"
           d="m 407.46875,275.28125 c -0.007,0.0124 -0.0242,0.019 -0.0312,0.0312 0.0576,0.0974 0.13024,0.18343 0.1875,0.28125 -0.0581,-0.10148 -0.0977,-0.2113 -0.15625,-0.3125 z m -0.84375,2.0625 c -12.05756,19.53018 -32.59975,33.25545 -56.5,36 0.52392,0.35132 0.17754,1.57251 0.875,1.75 0.11097,0.45849 -0.42347,0.29153 -0.3125,0.75 -0.0252,0.32294 0.53356,0.0747 0.75,0.15625 l 0,1.03125 c 0.021,0.42586 0.60985,0.25565 1.03125,0.28125 0.97371,-1.2603 2.57952,-1.90536 3.59375,-3.125 1.26372,0.82148 2.20345,1.99274 4.46875,1.8125 1.22635,0.66017 2.36984,1.3685 4.3125,1.3125 0.71111,1.07605 2.02869,1.559 3.125,2.25 l 0,1.1875 c 1.16363,0.37552 2.7189,0.36707 2.6875,1.9375 -0.39488,0.002 -0.88975,-0.0681 -0.90625,0.3125 -0.12571,0.72123 0.70964,0.44469 0.4375,1.3125 0.17606,0.17125 0.53893,0.17595 0.90625,0.15625 -0.262,0.95703 0.67285,0.72588 0.4375,1.65625 1.30499,0.53192 2.39808,1.26486 2.6875,2.8125 -0.94586,0.15149 -1.18169,-0.39894 -1.5,-0.875 l -2.53125,0 c -0.54846,-1.04015 -1.50703,-1.68563 -1.78125,-3 -1.17957,-0.3894 -2.40215,-1.24871 -3.5625,-0.4375 0.2352,0.93037 -0.69936,0.66798 -0.4375,1.625 -1.01929,0.32101 -2.09318,0.62903 -3.59375,0.46875 -0.91994,-1.87757 -2.55963,-1.78004 -4.90625,-1.34375 -0.23014,-1.32256 0.38865,-1.80031 1.34375,-1.9375 -0.34483,-2.93172 -2.57228,-3.99478 -5.53125,-4.3125 -0.99339,-0.83549 -2.0323,-1.04849 -3.40625,-0.46875 0.15104,-1.19357 -0.30077,-1.7817 -1.34375,-1.78125 0.23296,-0.75997 1.66373,-0.31224 1.78125,-1.1875 -0.32666,-0.0162 -1.1865,0.55456 -2.21875,0.3125 -0.21241,-0.65927 0.4947,-0.40218 0.4375,-0.90625 -0.34088,-0.85983 -2.2922,-0.10033 -2.28125,-1.3125 -0.14576,0.006 -0.29153,0.0257 -0.4375,0.0312 0.0203,0.87337 0.81696,0.9465 0.9375,1.71875 l -1.34375,0 c 0.10208,-0.69096 -0.14597,-1.20469 -0.125,-1.71875 -0.73035,0.0229 -1.45212,0.0602 -2.1875,0.0625 -7e-5,-0.0624 2.2e-4,-0.12514 0,-0.1875 -0.0623,4.2e-4 -0.12517,-2.7e-4 -0.1875,0 2.6e-4,0.65341 0.0147,1.28803 0.0312,1.9375 0.0329,-0.0297 0.0582,-0.0672 0.0937,-0.0937 0.28637,-0.13715 0.50428,-0.19625 0.65625,-0.21875 0.45592,-0.0676 0.28723,0.28993 -0.65625,0.625 -0.0315,-0.005 -0.0613,0.005 -0.0937,0 0.007,0.22996 -0.009,0.45805 0,0.6875 0.0434,-0.0194 0.0789,-0.0455 0.125,-0.0625 0.33373,-0.1227 0.71886,-0.1977 1.125,-0.1875 1.38851,0.0349 2.92623,0.78748 2.5625,1.84375 -0.97118,-0.795 -1.88894,-0.39877 -2.84375,-0.75 -0.40725,0.0295 -0.53809,0.33751 -0.75,0.5625 -0.0433,0.0461 -0.073,0.11978 -0.125,0.15625 0.29639,5.0632 1.08062,9.99819 2.3125,14.75 0.0597,-0.006 0.13097,0.01 0.1875,0 0.003,0.01 -0.003,0.0213 0,0.0312 0.12915,-0.0216 0.2361,-0.0818 0.3125,-0.15625 l 0,-1.1875 c 0.92963,-0.55977 2.89545,-0.0839 3.4375,-1.03125 0.0703,-0.71573 -0.91519,-0.37689 -0.75,-1.1875 2.31475,0.64244 4.58412,2.07753 6.6875,1.3125 0.0529,0.44373 0.63484,0.39996 0.46875,1.0625 -1.01706,0.72049 -1.26914,2.2122 -2.09375,3.125 0.89268,1.44068 3.09046,1.57617 4.03125,2.96875 l 1.1875,0 c -0.25322,1.14665 0.94813,0.84579 1.34375,1.34375 0.54577,-4.4e-4 0.39118,-0.68775 1.1875,-0.4375 0.65063,-1.38483 1.33586,-2.72243 1.03125,-5.0625 0.42854,-0.9119 0.94495,-1.74568 0.90625,-3.125 0.3055,-0.38952 0.58854,-0.81019 0.4375,-1.65625 l 0.90625,0 c 0.25203,1.58487 1.00102,2.66193 0.875,4.625 0.27751,0.86423 1.67653,0.61895 2.25,1.1875 -0.48619,2.76981 1.29908,3.26105 0.875,5.96875 0.88568,0.85187 2.00308,1.44687 3.125,2.0625 -0.3049,1.24823 0.69635,1.23532 0.46875,2.40625 0.33202,0.36316 0.97107,0.42766 1.34375,0.75 0.0843,1.8518 1.34587,2.49927 2.21875,3.5625 -0.1926,1.59456 -0.66406,2.89239 -0.4375,4.90625 -1.03166,0.60655 -1.42212,1.84593 -1.78125,3.125 -0.51166,0.23312 -1.00902,0.49635 -0.90625,1.34375 -1.09154,0.0999 -1.68135,0.68971 -1.78125,1.78125 -0.71692,0.62352 -1.71085,0.98017 -1.78125,2.25 -0.53729,-0.0408 -0.41649,0.58675 -0.90625,0.59375 l 0,1.1875 c -0.99427,0.64393 -3.2628,0.005 -3.5625,1.34375 l -0.6875,0 -0.375,0 c 4.61485,4.93645 9.88849,9.25849 15.65625,12.84375 0.10184,-0.0563 0.21057,-0.0995 0.3125,-0.15625 13.16431,-7.32393 23.48363,-18.11659 30.21875,-31.59375 3.73011,-7.46411 6.96487,-16.43377 7.59375,-25.78125 0.97029,-14.42073 -1.28235,-26.45096 -5.65625,-36.78125 -1.05995,-2.50365 -2.23202,-4.90863 -3.5,-7.21875 z M 373.78125,326.25 c 0.84949,0.14345 1.13539,0.84043 1.46875,1.5 -0.16176,0.0368 -0.0843,0.3105 -0.28125,0.3125 -0.52968,-0.31429 -0.62013,-1.067 -1.34375,-1.1875 -0.0189,-0.26707 0.18975,-0.34332 0.15625,-0.625 z m 41,8.5625 c -0.23873,0.81007 -0.48948,1.61818 -0.75,2.40625 0.25577,-0.79345 0.5196,-1.60173 0.75,-2.40625 z m -0.75,2.40625 c -0.60274,1.8233 -1.26561,3.57734 -1.96875,5.28125 -1.40103,3.39521 -2.98531,6.59834 -4.71875,9.625 -0.42939,0.73225 -0.85978,1.47102 -1.3125,2.1875 -0.44032,0.69685 -0.88185,1.38105 -1.34375,2.0625 -6.38577,9.42105 -14.82439,17.3548 -24.65625,23.15625 0.0127,0.006 0.0192,0.0242 0.0312,0.0312 -0.2178,0.12601 -0.43712,0.25105 -0.65625,0.375 0.0523,0.0306 0.10384,0.0632 0.15625,0.0937 16.20974,-9.44193 28.61479,-24.65236 34.46875,-42.8125 z m -24.625,23 0.4375,0 c 0.10085,0.71349 0.34152,1.49764 -0.28125,1.9375 0.14523,0.40084 0.31909,0.75985 0.4375,1.1875 0.69666,0.15059 0.49084,-0.58809 1.1875,-0.4375 -0.4497,0.84115 -0.89485,1.65821 -2.0625,1.78125 -0.30328,1.53363 -1.74715,1.9472 -2.84375,2.6875 -0.0973,-0.79244 0.69533,-0.70341 0.90625,-1.1875 0.19066,-0.58808 -0.45595,-0.36569 -0.46875,-0.75 1.27356,-1.35205 2.9148,-2.82371 2.6875,-5.21875 z m -3.5625,6.71875 c -0.0581,0.20252 -0.14857,0.37204 -0.25,0.53125 -0.005,0.007 0.005,0.0242 0,0.0312 -0.30466,0.46574 -0.7729,0.7692 -1.25,1.0625 -0.3225,0.19813 -0.65155,0.39018 -0.9375,0.625 -0.28595,0.23482 -0.53121,0.51006 -0.6875,0.875 -0.41799,-0.027 -0.80343,-0.007 -1.09375,0.0937 -0.1819,0.0674 -0.32384,0.1769 -0.4375,0.3125 -0.0593,0.0708 -0.11795,0.1581 -0.15625,0.25 -0.0771,0.1835 -0.11165,0.40899 -0.0937,0.6875 -1.22441,0.25342 -2.1116,1.50359 -3.21875,1.21875 -0.2496,-0.0642 -0.50201,-0.21958 -0.78125,-0.46875 -0.0117,-0.0103 -0.0195,-0.0206 -0.0312,-0.0312 0.48715,-0.33195 0.95225,-0.67607 1.40625,-1.03125 0.45172,-0.35562 0.90554,-0.7246 1.40625,-1.03125 0.0108,-4.4e-4 0.0204,5.2e-4 0.0312,0 0.0113,-4.6e-4 0.0199,5.5e-4 0.0312,0 0.35571,-0.0172 0.65471,-0.0661 0.9375,-0.15625 0.29177,-0.093 0.54477,-0.22674 0.78125,-0.375 0.70945,-0.44478 1.22364,-1.09085 1.84375,-1.625 0.62011,-0.53415 1.35681,-0.95765 2.5,-0.96875 z"
           inkscape:connector-curvature="0" />
        <g
           id="g5395"
           transform="translate(156.53571,-113.64286)">
          <path
             style="fill:#ffcf00;fill-opacity:1;fill-rule:evenodd;stroke:none"
             id="path2987-6"
             d="m 120.3125,462.96875 c -0.52592,0.82862 -1.03656,1.68155 -1.53125,2.53125 13.30316,22.83863 38.0351,38.1875 66.375,38.1875 13.98512,0 27.08201,-3.74769 38.375,-10.28125 -0.02,-0.0116 -0.0425,-0.0197 -0.0625,-0.0312 -0.11676,0.0688 -0.22659,0.15051 -0.34375,0.21875 -0.89676,-0.52209 -1.78299,-1.06815 -2.65625,-1.625 C 209.9473,497.70939 197.89308,501 185.0625,501 c -27.20335,0 -50.96051,-14.68333 -63.84375,-36.53125 -0.0111,0.0193 -0.02,0.0431 -0.0312,0.0625 -0.29842,-0.5158 -0.58873,-1.03899 -0.875,-1.5625 z"
             inkscape:connector-curvature="0" />
          <path
             style="fill:#2159d6;fill-opacity:1;fill-rule:evenodd;stroke:none"
             id="path3767-7"
             d="m 146.875,361.15625 c -22.83863,13.30316 -38.1875,38.0351 -38.1875,66.375 0,13.98512 3.74769,27.08201 10.28125,38.375 0.0116,-0.0201 0.0196,-0.0425 0.0312,-0.0625 -0.0688,-0.11676 -0.15051,-0.22659 -0.21875,-0.34375 0.49579,-0.85158 1.00409,-1.70084 1.53125,-2.53125 -5.76139,-10.5359 -9.03125,-22.61328 -9.03125,-35.46875 0,-27.21045 14.64262,-50.99408 36.5,-63.875 -0.0193,-0.0111 -0.0431,-0.0201 -0.0625,-0.0312 0.54729,-0.31663 1.10029,-0.6033 1.65625,-0.90625 -0.82143,-0.52097 -1.65787,-1.04097 -2.5,-1.53125 z m 27.875,28.78125 c 0.35464,0.6006 0.69324,1.20119 1.03125,1.8125 -0.33534,-0.60638 -0.67955,-1.21667 -1.03125,-1.8125 z m 9.8125,29.75 c 0.0577,0.55119 0.1107,1.10152 0.15625,1.65625 -0.0454,-0.55253 -0.0987,-1.10725 -0.15625,-1.65625 z m -3,7.625 c -0.60915,0.0283 -1.20729,0.0822 -1.8125,0.125 0.6004,-0.0425 1.20821,-0.097 1.8125,-0.125 z"
             inkscape:connector-curvature="0" />
          <path
             style="fill:#1ad127;fill-opacity:1;fill-rule:evenodd;stroke:none"
             id="path3769-7"
             d="m 184.84375,351.03125 c -13.98512,0 -27.08201,3.74769 -38.375,10.28125 0.0201,0.0116 0.0425,0.0197 0.0625,0.0312 0.11215,-0.0661 0.23123,-0.12196 0.34375,-0.1875 0.84368,0.49119 1.6771,1.00927 2.5,1.53125 10.51326,-5.72892 22.55852,-9 35.375,-9 27.20489,0 50.96101,14.68127 63.84375,36.53125 0.007,-0.0118 0.0242,-0.0192 0.0312,-0.0312 0.32877,0.56826 0.65473,1.14114 0.96875,1.71875 0.56054,-0.87855 1.09965,-1.78515 1.625,-2.6875 -13.30316,-22.83863 -38.0351,-38.1875 -66.375,-38.1875 z"
             inkscape:connector-curvature="0" />
          <path
             style="fill:#d6130f;fill-opacity:1;fill-rule:evenodd;stroke:none"
             id="path3771-5"
             d="m 251.03125,388.84375 c -0.007,0.0124 -0.0241,0.019 -0.0312,0.0312 0.0688,0.11676 0.15051,0.22659 0.21875,0.34375 -0.0689,-0.12053 -0.11801,-0.25488 -0.1875,-0.375 z m 0.1875,0.375 c -0.52535,0.90235 -1.06446,1.80895 -1.625,2.6875 5.70732,10.49814 8.9375,22.49074 8.9375,35.28125 0,27.2049 -14.64997,50.96101 -36.5,63.84375 0.0193,0.0111 0.0432,0.0201 0.0625,0.0312 -0.53591,0.31005 -1.08078,0.60931 -1.625,0.90625 0.87357,0.55707 1.75916,1.10272 2.65625,1.625 22.83863,-13.30316 38.1875,-38.0351 38.1875,-66.375 0,-13.83637 -3.68843,-26.78926 -10.09375,-38 z"
             inkscape:connector-curvature="0" />
        </g>
      </g>
    </g>
    <g
       transform="matrix(1.4090264,0,0,1.4090264,39.118125,-160.03832)"
       id="layer1-4"
       inkscape:label="Ebene 1">
      <g
         id="g3765">
        <path
           inkscape:connector-curvature="0"
           id="path3811"
           style="font-size:40px;font-style:normal;font-weight:normal;line-height:125%;letter-spacing:0px;word-spacing:0px;fill:#2159d6;fill-opacity:1;stroke:none;font-family:Sans"
           d="m 131.45143,331.08218 -2.64,1.56 c 0.98666,-1.62667 1.65333,-2.86667 2,-3.72 0.63999,-1.54667 1.07999,-3.09333 1.32,-4.64 0.21333,-1.41333 0.35999,-3.6 0.44,-6.56 l 0.24,-9.04 c -1e-5,-1.41332 0.0267,-3.51998 0.08,-6.32 -1e-5,-0.31998 0.04,-1.31998 0.12,-3 0.0533,-1.19997 0.08,-2.18664 0.08,-2.96 l 0,-0.84 -5.96,0.16 2.56,-1.6 9.2,0 -1,0.84 c -0.40001,0.32003 -0.61335,0.88003 -0.64,1.68 -0.08,1.76003 -0.17335,4.69336 -0.28,8.8 l -0.32,13.36 c -0.0533,2.72 -0.45334,4.96 -1.2,6.72 -0.77334,1.89333 -2.10668,3.74666 -4,5.56" />
        <path
           inkscape:connector-curvature="0"
           id="path3813"
           style="font-size:40px;font-style:normal;font-weight:normal;line-height:125%;letter-spacing:0px;word-spacing:0px;fill:#d62408;fill-opacity:1;stroke:none;font-family:Sans"
           d="m 161.49018,313.16218 c -2e-5,2.53334 -0.88002,4.74667 -2.64,6.64 -1.92002,2.05334 -4.42668,3.08 -7.52,3.08 -2.98668,0 -5.41334,-1.01333 -7.28,-3.04 -1.65334,-1.81333 -2.48,-3.94666 -2.48,-6.4 0,-2.66665 0.97333,-4.94665 2.92,-6.84 1.97332,-1.91998 4.45332,-2.87998 7.44,-2.88 2.82665,2e-5 5.15998,0.97335 7,2.92 1.70664,1.81335 2.55998,3.98668 2.56,6.52 m -9.24,8.52 c 1.73332,0 3.09331,-0.68 4.08,-2.04 0.79998,-1.09333 1.19998,-2.57333 1.2,-4.44 -2e-5,-2.31999 -0.48002,-4.46665 -1.44,-6.44 -1.25335,-2.53331 -2.98668,-3.79998 -5.2,-3.8 -1.38668,2e-5 -2.58668,0.45335 -3.6,1.36 -1.22668,1.09335 -1.84001,2.72002 -1.84,4.88 -10e-6,2.42668 0.53332,4.66668 1.6,6.72 1.27999,2.50667 3.01332,3.76 5.2,3.76" />
        <path
           inkscape:connector-curvature="0"
           id="path3815"
           style="font-size:40px;font-style:normal;font-weight:normal;line-height:125%;letter-spacing:0px;word-spacing:0px;fill:#f9ca00;fill-opacity:1;stroke:none;font-family:Sans"
           d="m 179.23018,305.68218 -2.48,0 c 1.89331,1.57335 2.83998,3.37335 2.84,5.4 -2e-5,1.30668 -0.34669,2.45334 -1.04,3.44 -0.45335,0.64001 -1.22668,1.38668 -2.32,2.24 -0.74668,0.74667 -1.12002,1.40001 -1.12,1.96 -2e-5,0.61334 0.34665,1.18667 1.04,1.72 l 1.44,1.12 c 1.11998,0.85334 1.90665,1.61334 2.36,2.28 0.66665,0.96 0.99998,2.06667 1,3.32 -2e-5,2.02666 -0.89335,3.75999 -2.68,5.2 -1.97335,1.57332 -4.58668,2.35999 -7.84,2.36 -2.74668,-10e-6 -4.90667,-0.58668 -6.48,-1.76 -1.41334,-1.04001 -2.12,-2.36001 -2.12,-3.96 0,-2.02667 1.02666,-3.65333 3.08,-4.88 1.65333,-0.98666 4.19999,-1.6 7.64,-1.84 -0.80001,-1.04 -1.20001,-1.94666 -1.2,-2.72 -1e-5,-0.39999 0.13332,-0.91999 0.4,-1.56 -0.58668,0.0533 -1.01334,0.08 -1.28,0.08 -2.02668,1e-5 -3.66667,-0.65333 -4.92,-1.96 -1.14667,-1.19999 -1.72,-2.63999 -1.72,-4.32 0,-2.13332 0.85333,-3.91998 2.56,-5.36 1.73332,-1.46665 4.11999,-2.19998 7.16,-2.2 l 8.24,0 -2.56,1.44 m -6.88,11.28 c 1.06665,1e-5 1.97332,-0.37332 2.72,-1.12 0.66665,-0.66666 0.99998,-1.63999 1,-2.92 -2e-5,-1.67999 -0.42668,-3.26665 -1.28,-4.76 -0.98668,-1.73331 -2.24001,-2.59998 -3.76,-2.6 -1.38668,2e-5 -2.41334,0.58669 -3.08,1.76 -0.40001,0.66668 -0.60001,1.50668 -0.6,2.52 -1e-5,1.62668 0.39999,3.14668 1.2,4.56 0.95999,1.70668 2.22666,2.56001 3.8,2.56 m 5.92,11.76 c -2e-5,-0.96 -0.34669,-1.82667 -1.04,-2.6 -0.53335,-0.58667 -1.64002,-1.48 -3.32,-2.68 -0.21335,-0.0267 -0.52001,-0.04 -0.92,-0.04 -1.54668,0 -2.94668,0.21333 -4.2,0.64 -2.29334,0.8 -3.44001,2.17333 -3.44,4.12 -1e-5,1.44 0.63999,2.61333 1.92,3.52 1.30666,0.90666 3.01332,1.35999 5.12,1.36 1.86665,-10e-6 3.33332,-0.41334 4.4,-1.24 0.98665,-0.77334 1.47998,-1.80001 1.48,-3.08" />
        <path
           inkscape:connector-curvature="0"
           id="path3817"
           style="font-size:40px;font-style:normal;font-weight:normal;line-height:125%;letter-spacing:0px;word-spacing:0px;fill:#19ca26;fill-opacity:1;stroke:none;font-family:Sans"
           d="m 192.5308,321.48218 -1.48,0.88 -7.08,0 c 0.72,-0.93333 1.08,-1.64 1.08,-2.12 l 0,-6.52 c 0,-3.67999 0.0533,-7.58665 0.16,-11.72 0.08,-1.54664 0.16,-3.69331 0.24,-6.44 l -3.12,0 3,-1.44 5.72,0 c -0.69334,0.40003 -1.13334,0.7067 -1.32,0.92 -0.24001,0.29336 -0.40001,0.77336 -0.48,1.44 -0.24001,2.24003 -0.36001,6.78669 -0.36,13.64 l 0,9.24 c -1e-5,0.72 0.0933,1.2 0.28,1.44 0.18666,0.24 0.62666,0.4 1.32,0.48 0.45333,0.0267 1.13333,0.0933 2.04,0.2" />
      </g>
      <g
         id="g4635">
        <path
           inkscape:connector-curvature="0"
           id="path3800"
           style="font-size:20.39016533px;font-style:normal;font-variant:normal;font-weight:200;font-stretch:normal;text-align:start;line-height:125%;letter-spacing:0px;word-spacing:0px;writing-mode:lr-tb;text-anchor:start;fill:#585858;fill-opacity:1;stroke:none;font-family:DejaVu Sans;-inkscape-font-specification:DejaVu Sans Ultra-Light"
           d="m 203.91958,306.45983 7.97892,0 0,0.87028 -7.01464,0 0,6.00805 6.72158,0 0,0.84931 -6.72158,0 0,7.07756 7.18481,0 0,0.84931 -8.14909,0 0,-15.65451" />
        <path
           inkscape:connector-curvature="0"
           id="path3802"
           style="font-size:20.39016533px;font-style:normal;font-variant:normal;font-weight:200;font-stretch:normal;text-align:start;line-height:125%;letter-spacing:0px;word-spacing:0px;writing-mode:lr-tb;text-anchor:start;fill:#585858;fill-opacity:1;stroke:none;font-family:DejaVu Sans;-inkscape-font-specification:DejaVu Sans Ultra-Light"
           d="m 218.96044,315.48765 c -1.39916,0 -2.40754,0.27611 -3.02519,0.82833 -0.61764,0.55222 -0.92646,1.3596 -0.92646,2.4221 0,1.03455 0.25525,1.76852 0.76575,2.20191 0.5105,0.43339 1.11554,0.65008 1.81511,0.65008 1.32351,0 2.27519,-0.62212 2.85502,-1.86637 0.58612,-1.24425 0.87918,-2.41511 0.87919,-3.51257 l 0,-0.72348 -2.36342,0 m 3.24262,-0.0734 0,6.70009 -0.86029,0 0,-3.18753 c -0.4853,1.55882 -1.12814,2.55142 -1.92855,2.97782 -0.63655,0.34252 -1.26996,0.51377 -1.9002,0.51377 -1.05252,0 -1.88129,-0.31105 -2.48632,-0.93318 -0.60504,-0.62912 -0.90756,-1.55182 -0.90755,-2.76811 -1e-5,-1.21629 0.39389,-2.18792 1.1817,-2.91491 0.78781,-0.73396 2.07667,-1.10094 3.86657,-1.10095 l 2.15544,0 0,-0.18874 c -1e-5,-1.04153 -0.26786,-1.89782 -0.80356,-2.56889 -0.52941,-0.67105 -1.40545,-1.00657 -2.62813,-1.00658 -0.60504,10e-6 -1.22268,0.12583 -1.85293,0.37747 -0.40336,0.16078 -0.92646,0.48582 -1.56931,0.97513 l 0,-1.03805 c 0.56092,-0.38445 1.08403,-0.65707 1.56931,-0.81785 0.70588,-0.23066 1.38339,-0.346 2.03255,-0.34601 1.24788,10e-6 2.27518,0.41942 3.08191,1.25823 0.69956,0.72 1.04935,2.07609 1.04936,4.06829" />
        <path
           inkscape:connector-curvature="0"
           id="path3804"
           style="font-size:20.39016533px;font-style:normal;font-variant:normal;font-weight:200;font-stretch:normal;text-align:start;line-height:125%;letter-spacing:0px;word-spacing:0px;writing-mode:lr-tb;text-anchor:start;fill:#585858;fill-opacity:1;stroke:none;font-family:DejaVu Sans;-inkscape-font-specification:DejaVu Sans Ultra-Light"
           d="m 231.36469,311.19917 c -0.13867,-0.0769 -0.32774,-0.14329 -0.56722,-0.19923 -0.21429,-0.0419 -0.4853,-0.0629 -0.81302,-0.0629 -1.07143,10e-6 -1.96007,0.44038 -2.66594,1.32114 -0.55463,0.713 -0.83193,1.93629 -0.83193,3.66985 l 0,6.18631 -0.85083,0 0,-11.74351 0.85083,0 0,2.20191 c 0.28361,-0.62911 0.68066,-1.16036 1.19116,-1.59376 0.70588,-0.59416 1.5378,-0.89124 2.49578,-0.89125 0.24579,10e-6 0.46008,0.0105 0.64285,0.0315 0.18907,10e-6 0.37184,0.0244 0.54832,0.0734 l 0,1.00659" />
        <path
           inkscape:connector-curvature="0"
           id="path3806"
           style="font-size:20.39016533px;font-style:normal;font-variant:normal;font-weight:200;font-stretch:normal;text-align:start;line-height:125%;letter-spacing:0px;word-spacing:0px;writing-mode:lr-tb;text-anchor:start;fill:#585858;fill-opacity:1;stroke:none;font-family:DejaVu Sans;-inkscape-font-specification:DejaVu Sans Ultra-Light"
           d="m 234.78063,307.03651 0,3.33432 3.58295,0 0,0.81785 -3.58295,0 0,7.05659 c -1e-5,0.89475 0.10399,1.52036 0.31197,1.87686 0.42856,0.7829 1.0525,1.17436 1.87183,1.17436 l 1.39915,0 0,0.81785 -1.35187,0 c -0.86345,0 -1.59769,-0.27961 -2.20272,-0.83882 -0.60504,-0.55922 -0.90756,-1.56929 -0.90755,-3.03025 l 0,-7.05659 -1.2668,0 0,-0.81785 1.2668,0 0,-3.33432 0.87919,0" />
        <path
           inkscape:connector-curvature="0"
           id="path3808"
           style="font-size:20.39016533px;font-style:normal;font-variant:normal;font-weight:200;font-stretch:normal;text-align:start;line-height:125%;letter-spacing:0px;word-spacing:0px;writing-mode:lr-tb;text-anchor:start;fill:#585858;fill-opacity:1;stroke:none;font-family:DejaVu Sans;-inkscape-font-specification:DejaVu Sans Ultra-Light"
           d="m 249.37294,315.02629 0,7.08805 -0.86975,0 0,-7.02513 c -1e-5,-1.50988 -0.23004,-2.57937 -0.69012,-3.2085 -0.46009,-0.62911 -1.1565,-0.94366 -2.08926,-0.94367 -1.07143,10e-6 -1.91911,0.34952 -2.54305,1.04852 -0.62394,0.69903 -0.93591,1.86289 -0.93591,3.4916 l 0,6.63718 -0.86974,0 0,-16.31509 0.86974,0 0,6.74203 c 0.20167,-0.60114 0.56091,-1.1359 1.07772,-1.60424 0.61763,-0.56619 1.48738,-0.8493 2.60922,-0.84931 1.0462,10e-6 1.88128,0.41593 2.50523,1.24775 0.62393,0.83883 0.93591,2.06909 0.93592,3.69081" />
      </g>
    </g>
    <text
       xml:space="preserve"
       style="font-size:15.39706039px;font-style:normal;font-weight:normal;line-height:125%;letter-spacing:0px;word-spacing:0px;fill:#000000;fill-opacity:1;stroke:none;font-family:Sans"
       x="326.53033"
       y="316.68301"
       id="text3487"
       sodipodi:linespacing="125%"><tspan
         sodipodi:role="line"
         id="tspan3489"
         x="326.53033"
         y="316.68301">v1.42</tspan></text>
  </g>
</svg>
