<?xml version="1.0" encoding="UTF-8" standalone="no"?>
<!-- Created with Inkscape (http://www.inkscape.org/) -->

<svg
   xmlns:dc="http://purl.org/dc/elements/1.1/"
   xmlns:cc="http://creativecommons.org/ns#"
   xmlns:rdf="http://www.w3.org/1999/02/22-rdf-syntax-ns#"
   xmlns:svg="http://www.w3.org/2000/svg"
   xmlns="http://www.w3.org/2000/svg"
   xmlns:sodipodi="http://sodipodi.sourceforge.net/DTD/sodipodi-0.dtd"
   xmlns:inkscape="http://www.inkscape.org/namespaces/inkscape"
   width="16.894524"
   height="27.779194"
   id="svg3050"
   version="1.1"
   inkscape:version="0.48.4 r9939"
   sodipodi:docname="Neues Dokument 5">
  <defs
     id="defs3052" />
  <sodipodi:namedview
     id="base"
     pagecolor="#ffffff"
     bordercolor="#666666"
     borderopacity="1.0"
     inkscape:pageopacity="0.0"
     inkscape:pageshadow="2"
     inkscape:zoom="15.839192"
     inkscape:cx="40.106229"
     inkscape:cy="13.674459"
     inkscape:document-units="px"
     inkscape:current-layer="layer1"
     showgrid="false"
     fit-margin-top="0"
     fit-margin-left="0"
     fit-margin-right="0"
     fit-margin-bottom="0"
     inkscape:window-width="1920"
     inkscape:window-height="1026"
     inkscape:window-x="0"
     inkscape:window-y="26"
     inkscape:window-maximized="1" />
  <metadata
     id="metadata3055">
    <rdf:RDF>
      <cc:Work
         rdf:about="">
        <dc:format>image/svg+xml</dc:format>
        <dc:type
           rdf:resource="http://purl.org/dc/dcmitype/StillImage" />
        <dc:title></dc:title>
      </cc:Work>
    </rdf:RDF>
  </metadata>
  <g
     inkscape:label="Ebene 1"
     inkscape:groupmode="layer"
     id="layer1"
     transform="translate(-391.12941,-532.0705)">
    <rect
       style="fill:#000000;fill-opacity:1;stroke:none"
       id="rect3069"
       width="1.5152289"
       height="27.779194"
       x="396.29547"
       y="532.0705" />
    <rect
       y="532.0705"
       x="400.29547"
       height="27.779194"
       width="1.5152289"
       id="rect3071"
       style="fill:#000000;fill-opacity:1;stroke:none" />
    <g
       transform="matrix(1.1271718,0,0,0.81687446,0.25253814,43.528159)"
       style="font-size:35.4870491px;font-style:normal;font-variant:normal;font-weight:normal;font-stretch:normal;line-height:125%;letter-spacing:0px;word-spacing:0px;fill:#000000;fill-opacity:1;stroke:none;font-family:Droid Sans;-inkscape-font-specification:Droid Sans"
       id="text3073">
      <path
         d="m 361.76508,621.02066 c -1e-5,1.12053 -0.20217,2.12553 -0.60647,3.01501 -0.39277,0.87794 -0.95881,1.62303 -1.69811,2.23527 -0.73932,0.61225 -1.64036,1.08009 -2.70311,1.40354 -1.06278,0.3119 -2.25838,0.46785 -3.58683,0.46785 -1.28225,0 -2.48363,-0.10397 -3.60415,-0.3119 -1.10897,-0.19638 -2.03889,-0.49095 -2.78975,-0.88371 l 0,-3.08432 c 0.39275,0.18483 0.8375,0.36966 1.33423,0.55448 0.50827,0.17328 1.03965,0.32923 1.59414,0.46785 0.55448,0.13862 1.12629,0.25414 1.71544,0.34655 0.58913,0.0809 1.1725,0.1213 1.75009,0.1213 1.84828,0 3.21138,-0.34655 4.08933,-1.03966 0.88947,-0.69311 1.33422,-1.68656 1.33423,-2.98036 -10e-6,-0.62379 -0.0866,-1.16672 -0.25991,-1.6288 -0.16174,-0.46206 -0.45631,-0.8837 -0.88372,-1.26492 -0.41587,-0.39275 -0.97613,-0.76818 -1.68078,-1.1263 -0.70467,-0.36964 -1.59415,-0.76818 -2.66846,-1.19561 -1.02811,-0.4043 -1.92337,-0.84326 -2.68579,-1.3169 -0.75087,-0.48516 -1.37466,-1.02809 -1.87138,-1.6288 -0.48518,-0.60068 -0.84906,-1.28223 -1.09165,-2.04466 -0.23103,-0.7624 -0.34655,-1.62879 -0.34655,-2.59915 0,-1.01654 0.18483,-1.92335 0.55449,-2.72045 0.36965,-0.79704 0.88948,-1.46705 1.55949,-2.01 0.66999,-0.55446 1.46707,-0.9761 2.39121,-1.26492 0.93569,-0.28877 1.9638,-0.43317 3.08433,-0.43319 1.37465,2e-5 2.61069,0.13287 3.70812,0.39853 1.0974,0.25417 2.07352,0.58339 2.92837,0.98768 l -1.16095,2.70311 c -0.75088,-0.33498 -1.60571,-0.62377 -2.5645,-0.86638 -0.94725,-0.25412 -1.92915,-0.38119 -2.9457,-0.38121 -1.40932,2e-5 -2.50097,0.32925 -3.27493,0.98768 -0.77397,0.64692 -1.16096,1.52485 -1.16095,2.6338 -10e-6,0.65847 0.0866,1.23028 0.25991,1.71544 0.17328,0.47364 0.46207,0.90683 0.86639,1.29958 0.4043,0.38122 0.93568,0.7451 1.59414,1.09164 0.67,0.33501 1.49017,0.69312 2.46053,1.07431 1.0512,0.41588 1.96957,0.8433 2.7551,1.28225 0.79706,0.43898 1.46128,0.93571 1.99268,1.49018 0.53137,0.5545 0.9299,1.19562 1.19561,1.92337 0.27722,0.72777 0.41585,1.58838 0.41586,2.58182"
         id="path3078"
         inkscape:connector-curvature="0" />
    </g>
  </g>
</svg>
