<?xml version="1.0" encoding="UTF-8" standalone="no"?>
<!-- Created with Inkscape (http://www.inkscape.org/) -->

<svg
   xmlns:dc="http://purl.org/dc/elements/1.1/"
   xmlns:cc="http://creativecommons.org/ns#"
   xmlns:rdf="http://www.w3.org/1999/02/22-rdf-syntax-ns#"
   xmlns:svg="http://www.w3.org/2000/svg"
   xmlns="http://www.w3.org/2000/svg"
   xmlns:xlink="http://www.w3.org/1999/xlink"
   xmlns:sodipodi="http://sodipodi.sourceforge.net/DTD/sodipodi-0.dtd"
   xmlns:inkscape="http://www.inkscape.org/namespaces/inkscape"
   width="170.6875"
   height="49.721165"
   id="svg3368"
   version="1.1"
   inkscape:version="0.48.4 r9939"
   sodipodi:docname="logo.svg"
   inkscape:export-filename="/home/trion/Uni/SEP/Git/Spezifikation/res/icons/logo.png"
   inkscape:export-xdpi="90"
   inkscape:export-ydpi="90">
  <defs
     id="defs3370">
    <filter
       id="filter2993"
       inkscape:label="Desaturate"
       x="0"
       y="0"
       width="1"
       height="1"
       inkscape:menu="Color"
       inkscape:menu-tooltip="Render in shades of gray by reducing saturation to zero"
       color-interpolation-filters="sRGB">
      <feColorMatrix
         id="feColorMatrix2995"
         type="saturate"
         values="0" />
    </filter>
    <filter
       id="filter2997"
       inkscape:label="Desaturate"
       x="0"
       y="0"
       width="1"
       height="1"
       inkscape:menu="Color"
       inkscape:menu-tooltip="Render in shades of gray by reducing saturation to zero"
       color-interpolation-filters="sRGB">
      <feColorMatrix
         id="feColorMatrix2999"
         type="saturate"
         values="0" />
    </filter>
    <linearGradient
       id="linearGradient4249-7">
      <stop
         style="stop-color:#000000;stop-opacity:1;"
         offset="0"
         id="stop4251-9" />
      <stop
         style="stop-color:#000000;stop-opacity:0.17486338;"
         offset="1"
         id="stop4253-0" />
    </linearGradient>
    <linearGradient
       inkscape:collect="always"
       xlink:href="#linearGradient4249-7"
       id="linearGradient4668"
       gradientUnits="userSpaceOnUse"
       gradientTransform="translate(329.42291,82.65098)"
       x1="-247.24632"
       y1="-33.530903"
       x2="-247.24632"
       y2="-83.598465" />
  </defs>
  <sodipodi:namedview
     id="base"
     pagecolor="#ffffff"
     bordercolor="#666666"
     borderopacity="1.0"
     inkscape:pageopacity="0.0"
     inkscape:pageshadow="2"
     inkscape:zoom="2.8"
     inkscape:cx="86.922488"
     inkscape:cy="23.112139"
     inkscape:document-units="m"
     inkscape:current-layer="layer1"
     showgrid="false"
     fit-margin-top="-2.7755576e-17"
     fit-margin-bottom="0"
     fit-margin-left="0"
     fit-margin-right="0"
     inkscape:window-width="1366"
     inkscape:window-height="715"
     inkscape:window-x="0"
     inkscape:window-y="26"
     inkscape:window-maximized="1" />
  <metadata
     id="metadata3373">
    <rdf:RDF>
      <cc:Work
         rdf:about="">
        <dc:format>image/svg+xml</dc:format>
        <dc:type
           rdf:resource="http://purl.org/dc/dcmitype/StillImage" />
        <dc:title></dc:title>
      </cc:Work>
    </rdf:RDF>
  </metadata>
  <g
     inkscape:label="Ebene 1"
     inkscape:groupmode="layer"
     id="layer1"
     transform="translate(-264.56894,-580.24504)">
    <path
       style="fill:url(#linearGradient4668);fill-opacity:1;fill-rule:evenodd"
       d="M 86.5 0 C 84.59165 -0.0137 82.65519 0.0313 80.6875 0.125 C 73.67491 0.45902 65.75164 1.56489 59.28125 3.375 C 50.61676 5.79859 42.68092 9.2477 35.53125 13.4375 C 35.601317 10.995094 35.662017 8.4356694 35.71875 7.1875 C 35.74545 6.38753 35.94374 5.82003 36.34375 5.5 L 37.34375 4.65625 L 28.15625 4.65625 L 25.59375 6.28125 L 31.5625 6.125 L 31.5625 6.9375 C 31.5625 7.71086 31.52195 8.70628 31.46875 9.90625 C 31.38875 11.58627 31.34374 12.58627 31.34375 12.90625 C 31.317342 14.2924 31.324183 15.013695 31.3125 16.03125 C 24.60365 20.43984 18.68581 25.53915 13.65625 31.0625 C 8.710646 36.493676 4.008298 42.680625 0 49.71875 L 67.4375 49.71875 C 68.098626 48.919465 68.553285 47.933129 69.96875 47.875 C 69.69326 46.18561 70.69822 45.7474 71.46875 45.09375 C 70.66032 45.21636 69.81441 45.28125 68.90625 45.28125 C 66.15957 45.28124 63.97958 44.67332 62.40625 43.5 C 60.99291 42.45999 60.28125 41.16249 60.28125 39.5625 C 60.28125 37.53584 61.32166 35.88292 63.375 34.65625 C 65.02832 33.66959 67.55998 33.08375 71 32.84375 C 70.19999 31.80375 69.81249 30.89834 69.8125 30.125 C 69.81249 29.72501 69.95206 29.20251 70.21875 28.5625 C 69.63207 28.6158 69.20416 28.625 68.9375 28.625 C 66.91082 28.62501 65.25333 27.96292 64 26.65625 C 62.85333 25.45626 62.28125 24.02376 62.28125 22.34375 C 62.28125 20.21043 63.13707 18.44002 64.84375 17 C 66.57706 15.53335 68.95999 14.78127 72 14.78125 L 80.25 14.78125 L 77.6875 16.21875 L 75.21875 16.21875 C 77.11205 17.7921 78.06248 19.59835 78.0625 21.625 C 78.06248 22.93168 77.69331 24.07584 77 25.0625 C 76.555 25.6907 75.81155 26.44753 74.75 27.28125 C 74.6885 27.39852 74.61203 27.49629 74.5625 27.625 C 76.07373 27.6569 77.7672 25.25072 80.28125 26.28125 C 80.4539 27.21762 80.14292 27.66024 79.71875 28 C 79.84003 29.08839 81.15361 29.01191 82.40625 28.96875 C 82.00519 30.59628 82.21944 31.28647 82 33.53125 C 83.23678 33.50205 84.19069 33.20082 85.15625 32.90625 L 82.4375 32.90625 C 83.1575 31.97292 83.5 31.26125 83.5 30.78125 L 83.5 24.28125 C 83.5 20.60126 83.5808 16.69585 83.6875 12.5625 C 83.7675 11.01586 83.82625 8.87169 83.90625 6.125 L 80.78125 6.125 L 83.78125 4.65625 L 89.5 4.65625 C 88.80666 5.05628 88.37416 5.38045 88.1875 5.59375 C 87.94749 5.88711 87.79873 6.36461 87.71875 7.03125 C 87.47874 9.27128 87.34374 13.80294 87.34375 20.65625 L 87.34375 24.03125 C 87.80348 23.00753 89.0763 22.81127 89.84375 22.09375 C 93.52871 24.16798 95.42167 20.20917 97.875 19.21875 C 98.17694 18.12023 98.85405 17.41055 99.78125 16.9375 L 99.78125 13.125 C 101.69433 13.59893 101.25426 16.39489 102.375 17.65625 L 102.375 21.90625 C 101.82116 22.16009 101.16428 22.29911 100.90625 22.84375 C 102.13387 24.05647 102.45796 26.98947 101.5 28.78125 C 100.7781 29.05759 101.11985 28.23214 100.53125 28.375 C 99.81871 28.79935 101.01229 28.89738 100.71875 29.53125 C 98.86682 29.27037 98.61586 30.61836 97.09375 30.6875 C 96.6797 30.6554 97.01075 31.3475 96.90625 31.625 C 95.39197 30.79519 94.25561 32.32356 91.9375 31.8125 C 90.64093 33.06189 88.98545 33.97075 87.15625 34.6875 C 86.99449 36.31312 88.2608 36.52539 88.3125 37.9375 C 88.78766 38.16266 89.40492 38.23869 89.65625 38.6875 C 90.97267 38.6035 90.31567 36.55969 91.1875 36.03125 C 91.32539 34.93865 90.08067 35.21759 90.21875 34.125 L 91.5625 34.125 C 91.95327 34.43457 91.5469 35.53417 91.9375 35.84375 C 93.12673 35.82335 93.42595 34.88503 95 35.25 C 95.56034 34.98243 94.81486 33.42362 95.375 33.15625 C 96.04228 33.76203 96.29049 34.78038 97.09375 35.25 C 97.81718 34.76395 98.6477 34.38826 98.625 33.15625 C 100.19102 33.49887 101.98114 33.85341 102.59375 32.65625 L 102.375 32.65625 L 102.375 21.96875 C 102.81822 21.7742 103.20471 21.53 103.28125 20.96875 C 102.58685 20.11488 102.49244 19.33421 102.71875 17.90625 C 102.5897 17.80635 102.47437 17.69203 102.375 17.5625 L 102.375 17 L 103.21875 17 L 103.21875 15.96875 C 103.35129 15.59199 104.26355 16.02265 104.34375 15.59375 L 104.34375 14.84375 C 102.11215 14.4658 102.4242 11.52929 100.71875 10.625 C 99.95827 10.5647 100.22226 11.52213 99.59375 11.59375 C 98.31074 10.87318 96.85891 10.22668 95.375 11.1875 C 95.17103 10.47419 95.8421 10.66389 95.75 10.0625 C 94.85851 9.69295 94.52933 10.85827 94.03125 10.25 C 93.80723 9.24582 95.26457 9.41349 96.15625 8.90625 C 97.21294 8.30504 98.99176 5.95116 100.53125 7.75 C 103.83196 7.37739 105.88015 8.28569 108.75 8.34375 C 109.23738 8.1308 108.6665 6.86678 109.125 6.625 L 111.03125 6.625 C 111.13801 7.15497 111.70574 7.22022 111.8125 7.75 C 112.74238 7.97974 112.33366 6.87754 113.34375 7.1875 C 113.038 7.96402 113.17838 9.19004 111.8125 8.90625 C 111.52966 12.64811 116.62493 12.75135 115.8125 15.78125 C 116.74219 15.75605 116.75339 14.80184 117.53125 14.625 C 117.02324 12.46196 119.16094 12.94078 118.6875 10.8125 C 117.98927 9.60111 115.64605 10.0448 115.4375 8.34375 C 116.82516 8.73124 116.61102 8.8974 117.90625 8.34375 C 118.61784 8.14169 118.53677 8.73532 118.875 8.90625 C 122.7028 8.82855 128.74277 12.63331 132.03125 14.4375 C 134.7426 15.92506 137.3398 17.52558 139.84375 19.21875 L 139.84375 32.65625 L 140.71875 32.65625 L 140.71875 26.03125 C 140.71875 24.40254 141.03231 23.23028 141.65625 22.53125 C 142.07464 22.062528 142.5989 21.778387 143.21875 21.625 C 142.96302 21.434598 142.72738 21.218703 142.46875 21.03125 C 142.99615 20.772738 143.65032 20.625 144.40625 20.625 C 145.06161 20.625 145.63533 20.79859 146.125 21.125 C 144.39992 19.74357 142.58915 18.39398 140.71875 17.09375 L 140.71875 19.78125 C 140.43042 19.58208 140.13489 19.38391 139.84375 19.1875 L 139.84375 16.46875 C 125.94279 7.03089 108.13419 0.15562 86.5 0 z M 74.75 27.28125 C 74.805903 27.233413 74.843813 27.175071 74.90625 27.125 C 75.325548 26.403487 75.890206 25.843416 76.15625 24.96875 C 75.300563 24.94467 74.698905 25.179777 74.15625 25.46875 C 73.997844 25.820548 73.790376 26.11587 73.53125 26.375 C 72.78457 27.12168 71.87915 27.50001 70.8125 27.5 C 70.419165 27.500003 70.042501 27.45041 69.6875 27.34375 C 69.62884 28.327297 70.58547 28.270904 71.1875 28.59375 C 71.1499 29.14052 71.1844 29.64977 71.78125 29.5625 C 72.481524 29.212271 73.115715 28.791392 73.8125 28.4375 C 73.648998 28.73858 73.56249 29.020218 73.5625 29.28125 C 73.56248 29.74125 73.76624 30.17875 74.15625 30.59375 C 74.75743 30.32188 75.44437 30.12717 76.28125 30.09375 L 76.28125 29.15625 C 75.655 28.71834 74.07967 29.23445 73.84375 28.40625 C 74.030074 28.070048 74.302039 27.697955 74.6875 27.3125 C 74.707634 27.296787 74.732799 27.295969 74.75 27.28125 z M 35.53125 13.5 C 35.502911 14.442778 35.467745 14.834781 35.4375 16 L 35.125 29.34375 C 35.0717 32.06375 34.65292 34.3025 33.90625 36.0625 C 33.13292 37.95583 31.79958 39.81166 29.90625 41.625 L 27.28125 43.1875 C 28.26792 41.56083 28.93458 40.32208 29.28125 39.46875 C 29.92125 37.92209 30.35375 36.39042 30.59375 34.84375 C 30.80709 33.43042 30.95124 31.24125 31.03125 28.28125 L 31.28125 19.21875 C 31.28125 18.526078 31.299173 17.179343 31.3125 16.125 C 32.68174 15.22347 34.09636 14.3428 35.53125 13.5 z M 50.40625 14.28125 C 53.23289 14.28127 55.56623 15.24085 57.40625 17.1875 C 59.11288 19.00085 59.93748 21.18543 59.9375 23.71875 C 59.93748 26.25209 59.07247 28.45042 57.3125 30.34375 C 55.39247 32.39709 52.87457 33.4375 49.78125 33.4375 C 46.79457 33.4375 44.36666 32.40167 42.5 30.375 C 40.84665 28.56167 40.03125 26.45334 40.03125 24 C 40.03125 21.33335 40.99083 19.0496 42.9375 17.15625 C 44.91082 15.23627 47.41957 14.28127 50.40625 14.28125 z M 49.34375 15.5 C 47.95706 15.50002 46.76332 15.96835 45.75 16.875 C 44.52332 17.96835 43.90623 19.59002 43.90625 21.75 C 43.90623 24.17668 44.43331 26.41543 45.5 28.46875 C 46.77999 30.97542 48.53206 32.21875 50.71875 32.21875 C 52.45206 32.21875 53.79455 31.5475 54.78125 30.1875 C 55.58123 29.09417 55.99998 27.61667 56 25.75 C 55.99998 23.43001 55.52247 21.28585 54.5625 19.3125 C 53.30914 16.77919 51.55707 15.50002 49.34375 15.5 z M 69 16.125 C 67.86541 16.25334 66.98957 16.84835 66.40625 17.875 C 66.00623 18.54168 65.81249 19.36168 65.8125 20.375 C 65.81249 22.00168 66.19999 23.52418 67 24.9375 C 67.69894 26.18009 68.56966 26.97461 69.59375 27.3125 C 69.59575 27.289 69.59075 27.2747 69.59375 27.25 C 71.97185 27.46398 72.73243 26.06082 74.1875 25.34375 C 74.40359 24.8138 74.53124 24.19752 74.53125 23.46875 C 74.53123 21.78876 74.10332 20.2121 73.25 18.71875 C 72.26332 16.98544 71.01999 16.12502 69.5 16.125 C 69.32666 16.125 69.16208 16.1067 69 16.125 z M 139.84375 16.34375 L 139.84375 16.4375 C 140.13341 16.63371 140.43248 16.83285 140.71875 17.03125 L 140.71875 16.34375 L 139.84375 16.34375 z M 103.28125 17 L 103.28125 17.34375 C 103.75093 17.53184 104.36531 17.57072 104.71875 17.875 L 110.375 17.875 L 110.375 17 L 103.28125 17 z M 132.375 17.59375 L 132.375 20.90625 L 131.09375 20.90625 L 131.09375 21.75 L 132.375 21.75 L 132.375 28.78125 C 132.37499 30.24221 132.67621 31.25328 133.28125 31.8125 C 133.88628 32.37171 134.6053 32.65625 135.46875 32.65625 L 136.8125 32.65625 L 136.8125 31.84375 L 135.4375 31.84375 C 134.61817 31.84375 133.99106 31.4704 133.5625 30.6875 C 133.35452 30.331 133.24999 29.676 133.25 28.78125 L 133.25 21.75 L 136.8125 21.75 L 136.8125 20.90625 L 133.25 20.90625 L 133.25 17.59375 L 132.375 17.59375 z M 103.34375 17.875 L 103.34375 18.84375 C 103.64718 18.55526 104.35607 18.66838 104.9375 18.65625 C 104.9596 18.27341 104.8501 18.04301 104.65625 17.875 L 103.34375 17.875 z M 103.34375 18.9375 C 103.32085 18.9729 103.29485 19.0178 103.28125 19.0625 C 103.28925 19.1273 103.32615 19.16313 103.34375 19.21875 L 103.34375 18.9375 z M 103.34375 19.375 L 103.34375 23.875 L 103.53125 23.875 C 103.46635 23.67598 103.42551 23.46349 103.40625 23.21875 C 104.42054 23.15935 105.38613 23.15915 105.6875 23.8125 C 106.63036 23.48248 106.67987 22.23437 108.375 22.65625 C 108.47948 22.37856 108.14827 21.68666 108.5625 21.71875 C 108.02432 20.85628 106.56747 20.89529 105.125 20.9375 C 104.99917 19.94922 103.75279 20.07858 103.34375 19.375 z M 140.71875 19.8125 C 141.30232 20.21664 141.86549 20.64699 142.4375 21.0625 C 142.19707 21.184112 141.97293 21.324287 141.78125 21.5 C 141.26444 21.96834 140.92042 22.49261 140.71875 23.09375 L 140.71875 19.8125 z M 116.53125 20.625 C 115.88209 20.62501 115.20588 20.73809 114.5 20.96875 C 114.01472 21.12953 113.49842 21.42805 112.9375 21.8125 L 112.9375 22.84375 C 113.58035 22.35444 114.09664 22.03578 114.5 21.875 C 115.13025 21.62336 115.73871 21.50001 116.34375 21.5 C 117.56643 21.50001 118.43934 21.82895 118.96875 22.5 C 119.50445 23.17107 119.78124 24.02097 119.78125 25.0625 L 119.78125 25.25 L 117.625 25.25 C 115.8351 25.25001 114.53781 25.60979 113.75 26.34375 C 112.96219 27.07074 112.59374 28.06496 112.59375 29.28125 C 112.59374 30.49754 112.89496 31.40213 113.5 32.03125 C 114.10503 32.65338 114.91623 32.96875 115.96875 32.96875 C 116.59899 32.96875 117.23845 32.81127 117.875 32.46875 C 118.67541 32.04235 119.3272 31.02757 119.8125 29.46875 L 119.8125 32.65625 L 120.65625 32.65625 L 120.65625 25.96875 C 120.65624 23.97655 120.32456 22.62625 119.625 21.90625 C 118.81827 21.06744 117.77913 20.62501 116.53125 20.625 z M 128.625 20.625 C 127.66702 20.62501 126.83088 20.93709 126.125 21.53125 C 125.6145 21.96465 125.22111 22.49589 124.9375 23.125 L 124.9375 20.90625 L 124.09375 20.90625 L 124.09375 32.65625 L 124.9375 32.65625 L 124.9375 26.46875 C 124.9375 24.73519 125.22662 23.5255 125.78125 22.8125 C 126.48712 21.93174 127.36607 21.50001 128.4375 21.5 C 128.76522 21.5 129.03571 21.5206 129.25 21.5625 C 129.48948 21.61844 129.67383 21.6731 129.8125 21.75 L 129.8125 20.75 C 129.63602 20.701 129.47032 20.65626 129.28125 20.65625 C 129.09848 20.63525 128.87079 20.62501 128.625 20.625 z M 146.46875 21.40625 C 146.62623 21.54886 146.76915 21.69223 146.90625 21.875 C 147.48223 22.649371 147.76899 23.776716 147.8125 25.21875 C 147.51355 24.966556 147.20892 24.717543 146.90625 24.46875 C 146.81303 23.56643 146.61074 22.888061 146.28125 22.4375 C 145.82116 21.80839 145.12026 21.50001 144.1875 21.5 C 143.84546 21.5 143.54533 21.553133 143.25 21.625 C 144.48655 22.543285 145.69371 23.496409 146.875 24.46875 C 146.91424 24.826484 146.96875 25.194058 146.96875 25.625 L 146.96875 32.65625 L 147.84375 32.65625 L 147.84375 25.5625 C 147.84375 25.460762 147.82117 25.374643 147.8125 25.28125 C 155.90915 32.133852 162.67884 40.280178 168.0625 49.71875 L 170.6875 49.71875 C 165.49094 40.597586 159.04194 32.797335 152.09375 26.28125 C 150.31902 24.61687 148.43513 22.99542 146.46875 21.40625 z M 103.59375 23.875 C 103.69886 24.20854 103.87301 24.50086 104.0625 24.75 L 110.0625 24.75 L 110.0625 23.875 L 103.59375 23.875 z M 87.34375 24.25 C 87.27855 24.458219 87.24542 24.690743 87.25 24.96875 C 86.4498 25.75979 84.70921 25.61797 84.375 26.875 C 86.3081 27.74243 87.593 29.26253 87.25 32.40625 C 86.568728 32.518774 85.949369 32.718027 85.34375 32.90625 L 89.5 32.90625 L 91 32.03125 C 90.09333 31.92455 89.39083 31.87045 88.9375 31.84375 C 88.24416 31.76375 87.81166 31.58375 87.625 31.34375 C 87.4383 31.10375 87.34374 30.62625 87.34375 29.90625 L 87.34375 24.25 z M 103.34375 24.75 L 103.34375 31.8125 L 104.28125 31.8125 C 104.11515 29.46825 104.79359 27.93692 105.5 26.46875 C 105.10327 25.7938 104.46724 25.35341 104 24.75 L 103.34375 24.75 z M 117.4375 26.03125 L 119.78125 26.03125 L 119.78125 26.75 C 119.78124 27.84746 119.49237 29.037 118.90625 30.28125 C 118.32642 31.5255 117.38601 32.125 116.0625 32.125 C 115.36293 32.125 114.7605 31.93339 114.25 31.5 C 113.7395 31.06661 113.46875 30.3158 113.46875 29.28125 C 113.46875 28.21875 113.78861 27.42722 114.40625 26.875 C 115.0239 26.32278 116.03834 26.03125 117.4375 26.03125 z M 74.1875 30.625 C 73.055249 31.14622 72.256081 32.008804 71.40625 32.8125 C 71.8031 33.43414 72.42174 33.80977 72.90625 34.34375 C 72.90345 34.36738 72.90855 34.38317 72.90625 34.40625 C 74.243245 35.384213 75.222412 36.144666 75.6875 36.65625 C 76.38081 37.42958 76.71873 38.32125 76.71875 39.28125 C 76.71873 40.56124 76.23665 41.57041 75.25 42.34375 C 74.630528 42.823831 73.858027 43.142473 72.96875 43.34375 C 72.93144 43.35895 72.88301 43.36174 72.84375 43.375 C 72.68671 43.42802 72.535341 43.481532 72.34375 43.5 C 72.33435 44.261767 72.002597 44.700184 71.59375 45.0625 C 73.624752 44.735901 75.325651 44.016945 76.71875 42.90625 C 78.5054 41.46624 79.40623 39.74541 79.40625 37.71875 C 79.40623 36.46542 79.0729 35.335 78.40625 34.375 C 77.9529 33.70834 77.18248 32.97834 76.0625 32.125 L 74.625 31 C 74.463981 30.876143 74.311124 30.753172 74.1875 30.625 z M 104.375 31.8125 C 104.389 32.01301 104.4108 32.193 104.4375 32.40625 C 104.13069 32.32235 104.05149 32.48495 104 32.65625 L 110.53125 32.65625 L 110.53125 31.8125 L 104.375 31.8125 z M 102.71875 32.59375 C 102.70855 32.61605 102.6984 32.63495 102.6875 32.65625 L 103.125 32.65625 C 103.02709 32.603012 102.92243 32.539018 102.71875 32.59375 z M 103.15625 32.65625 C 103.29692 32.761939 103.39507 32.924337 103.59375 32.96875 C 103.84489 32.99705 103.88949 32.82492 103.9375 32.65625 L 103.15625 32.65625 z M 71.4375 33.9375 C 69.89082 33.9375 68.50332 34.16708 67.25 34.59375 C 64.95666 35.39375 63.81249 36.77208 63.8125 38.71875 C 63.81249 40.15874 64.43874 41.31208 65.71875 42.21875 C 67.02541 43.12541 68.73707 43.59374 70.84375 43.59375 C 71.34924 43.59375 71.83442 43.52935 72.28125 43.46875 C 74.19716 43.28408 74.2295 41.23634 75.125 40.03125 C 74.85763 39.47111 73.29863 40.2164 73.03125 39.65625 C 72.90539 38.83008 74.37267 39.60404 74.5625 39.09375 C 75.27341 36.22827 72.57792 36.76403 72.84375 34.34375 C 72.67105 34.21784 72.56189 34.13349 72.375 34 C 72.16165 33.9733 71.83749 33.9375 71.4375 33.9375 z M 73.15625 47.8125 C 71.970257 47.926261 71.611452 48.905376 71.125 49.71875 L 73.59375 49.71875 C 73.776896 49.132652 73.929282 48.510983 74.0625 47.875 C 73.708329 47.80725 73.417608 47.78743 73.15625 47.8125 z "
       transform="translate(264.56894,580.24504)"
       id="path4524" />
    <rect
       style="fill:none;stroke:#808080;stroke-width:0;stroke-miterlimit:10;stroke-dasharray:none;stroke-dashoffset:0"
       id="rect4657"
       width="235.71428"
       height="77.5"
       x="-19.285715"
       y="-27.5"
       transform="translate(252.28769,579.9662)" />
  </g>
</svg>
