<?xml version="1.0" encoding="UTF-8" standalone="no"?>
<!-- Created with Inkscape (http://www.inkscape.org/) -->

<svg
   xmlns:dc="http://purl.org/dc/elements/1.1/"
   xmlns:cc="http://creativecommons.org/ns#"
   xmlns:rdf="http://www.w3.org/1999/02/22-rdf-syntax-ns#"
   xmlns:svg="http://www.w3.org/2000/svg"
   xmlns="http://www.w3.org/2000/svg"
   xmlns:sodipodi="http://sodipodi.sourceforge.net/DTD/sodipodi-0.dtd"
   xmlns:inkscape="http://www.inkscape.org/namespaces/inkscape"
   width="399.60007"
   height="281.71869"
   id="svg3008"
   version="1.1"
   inkscape:version="0.48.4 r9939"
   sodipodi:docname="Neues Dokument 3">
  <defs
     id="defs3010" />
  <sodipodi:namedview
     id="base"
     pagecolor="#ffffff"
     bordercolor="#666666"
     borderopacity="1.0"
     inkscape:pageopacity="0.0"
     inkscape:pageshadow="2"
     inkscape:zoom="0.49497475"
     inkscape:cx="257.6442"
     inkscape:cy="537.2167"
     inkscape:document-units="px"
     inkscape:current-layer="layer1"
     showgrid="false"
     fit-margin-top="0"
     fit-margin-left="0"
     fit-margin-right="0"
     fit-margin-bottom="0"
     inkscape:window-width="1920"
     inkscape:window-height="1026"
     inkscape:window-x="0"
     inkscape:window-y="26"
     inkscape:window-maximized="1" />
  <metadata
     id="metadata3013">
    <rdf:RDF>
      <cc:Work
         rdf:about="">
        <dc:format>image/svg+xml</dc:format>
        <dc:type
           rdf:resource="http://purl.org/dc/dcmitype/StillImage" />
        <dc:title></dc:title>
      </cc:Work>
    </rdf:RDF>
  </metadata>
  <g
     inkscape:label="Ebene 1"
     inkscape:groupmode="layer"
     id="layer1"
     transform="translate(-68.36102,-270.65625)">
    <path
       style="fill:#000000;stroke:none"
       d="m 142.84375,270.65625 117.90625,139.5625 -1.4375,105 c 0,2.5287 -7.42595,6.74071 -19.28125,11.09375 -0.27204,0.0905 -0.50639,0.19059 -0.78125,0.28125 -8.57105,2.82702 -18.48252,5.68525 -28.03125,8.15625 -0.0512,0.0119 -0.10498,0.0194 -0.15625,0.0312 -14.36347,3.3276 -30.60731,5.97818 -46.75,6.875 l 0,10.71875 10.6875,0 197.90625,0 10.65625,0 0,-10.71875 c -16.16473,-0.89804 -32.40327,-3.54095 -46.78125,-6.875 -0.0317,-0.007 -0.0621,-0.0239 -0.0937,-0.0312 -9.95203,-2.57518 -20.24997,-5.5586 -29.0625,-8.5 -11.72273,-4.32346 -19.0625,-8.51873 -19.0625,-11.03125 l -1.40625,-105 117.875,-139.5625 -262.1875,0 z"
       id="path3016"
       inkscape:connector-curvature="0" />
    <path
       sodipodi:nodetypes="cccccc"
       inkscape:connector-curvature="0"
       id="path3025"
       d="m 116.38975,332.80421 -30.84248,84.07004 78.95798,-52.64162 -96.14423,0 82.89181,53.85371 z"
       style="fill:#000000;stroke:none" />
    <path
       style="fill:#000000;stroke:none"
       d="m 178.92706,429.77884 -32.08068,87.4451 82.12781,-54.75496 -100.00402,0 86.21957,56.01572 z"
       id="path3027"
       inkscape:connector-curvature="0"
       sodipodi:nodetypes="cccccc" />
    <path
       style="fill:#000000;stroke:none"
       d="m 361.6346,337.17419 c 83.07898,48.10645 77.80412,126.45123 0,167.68532 143.73981,-1.37447 139.78367,-164.93638 0,-167.68532 z"
       id="path3029"
       inkscape:connector-curvature="0"
       sodipodi:nodetypes="ccc" />
  </g>
</svg>
