<?xml version="1.0" encoding="UTF-8" standalone="no"?>
<!-- Created with Inkscape (http://www.inkscape.org/) -->

<svg
   xmlns:dc="http://purl.org/dc/elements/1.1/"
   xmlns:cc="http://creativecommons.org/ns#"
   xmlns:rdf="http://www.w3.org/1999/02/22-rdf-syntax-ns#"
   xmlns:svg="http://www.w3.org/2000/svg"
   xmlns="http://www.w3.org/2000/svg"
   xmlns:sodipodi="http://sodipodi.sourceforge.net/DTD/sodipodi-0.dtd"
   xmlns:inkscape="http://www.inkscape.org/namespaces/inkscape"
   width="58.800781"
   height="40.784039"
   id="svg3107"
   version="1.1"
   inkscape:version="0.48.4 r9939">
  <defs
     id="defs3109" />
  <sodipodi:namedview
     id="base"
     pagecolor="#ffffff"
     bordercolor="#666666"
     borderopacity="1.0"
     inkscape:pageopacity="0.0"
     inkscape:pageshadow="2"
     inkscape:zoom="0.49497475"
     inkscape:cx="-55.723403"
     inkscape:cy="-4.8922916"
     inkscape:document-units="px"
     inkscape:current-layer="layer1"
     showgrid="false"
     showguides="true"
     inkscape:guide-bbox="true"
     fit-margin-top="0"
     fit-margin-left="0"
     fit-margin-right="0"
     fit-margin-bottom="0"
     inkscape:window-width="734"
     inkscape:window-height="627"
     inkscape:window-x="537"
     inkscape:window-y="357"
     inkscape:window-maximized="0" />
  <metadata
     id="metadata3112">
    <rdf:RDF>
      <cc:Work
         rdf:about="">
        <dc:format>image/svg+xml</dc:format>
        <dc:type
           rdf:resource="http://purl.org/dc/dcmitype/StillImage" />
        <dc:title></dc:title>
      </cc:Work>
    </rdf:RDF>
  </metadata>
  <g
     inkscape:label="Ebene 1"
     inkscape:groupmode="layer"
     id="layer1"
     transform="translate(-158.57143,-427.68305)">
    <path
       inkscape:connector-curvature="0"
       id="path3120"
       style="font-size:47.14770889px;font-style:normal;font-variant:normal;font-weight:bold;font-stretch:normal;line-height:125%;letter-spacing:0px;word-spacing:0px;fill:#000000;fill-opacity:1;stroke:none;font-family:Droid Sans;-inkscape-font-specification:Droid Sans Bold"
       d="m 188.76674,467.92439 -6.875,0 -3.51562,-19.56441 c -0.0521,-0.27132 -0.11721,-0.65121 -0.19531,-1.13966 -0.0652,-0.48842 -0.14325,-1.04016 -0.23438,-1.65525 -0.0912,-0.61503 -0.18231,-1.25723 -0.27344,-1.92659 -0.0912,-0.66931 -0.17579,-1.32055 -0.25391,-1.95373 -0.0781,-0.63312 -0.14975,-1.212 -0.21484,-1.73664 -0.0521,-0.54268 -0.0912,-0.97684 -0.11718,-1.30249 -0.026,0.32565 -0.0716,0.75981 -0.13672,1.30249 -0.0521,0.52464 -0.11721,1.10352 -0.19531,1.73664 -0.0781,0.61509 -0.16279,1.25729 -0.25391,1.9266 -0.0781,0.66935 -0.16278,1.31155 -0.25391,1.92658 -0.0781,0.61509 -0.15627,1.17588 -0.23437,1.68239 -0.0781,0.50654 -0.14325,0.90451 -0.19532,1.19394 l -3.47656,19.51013 -6.89453,0 -6.875,-39.6715 5.95704,0 3.24218,21.6538 c 0.039,0.28946 0.0911,0.71457 0.15625,1.27534 0.0781,0.54272 0.16275,1.15779 0.25391,1.84519 0.0911,0.68744 0.18228,1.41104 0.27344,2.17081 0.10415,0.7598 0.2018,1.50149 0.29296,2.22508 0.0911,0.72361 0.17578,1.40198 0.2539,2.03513 0.0781,0.61507 0.13672,1.12159 0.17579,1.51957 0.039,-0.39798 0.0911,-0.9045 0.15625,-1.51957 0.0781,-0.61506 0.15624,-1.2663 0.23437,-1.95373 0.0781,-0.7055 0.16275,-1.4291 0.25391,-2.1708 0.10416,-0.74168 0.1953,-1.42911 0.27344,-2.06227 0.0781,-0.65122 0.14972,-1.22106 0.21484,-1.70951 0.0781,-0.50651 0.13671,-0.86831 0.17579,-1.0854 l 3.96484,-22.22364 5.31249,0 3.96485,22.22364 c 0.039,0.21709 0.0911,0.57889 0.15625,1.0854 0.0781,0.48845 0.15623,1.05829 0.23437,1.70951 0.0911,0.63316 0.18227,1.32059 0.27344,2.06227 0.0911,0.7417 0.17576,1.4653 0.25391,2.1708 0.0911,0.68743 0.16925,1.33867 0.23438,1.95373 0.0781,0.61507 0.13668,1.12159 0.17578,1.51957 0.039,-0.39798 0.0911,-0.9045 0.15625,-1.51957 0.0781,-0.63315 0.16273,-1.31152 0.25391,-2.03513 0.0911,-0.72359 0.18226,-1.46528 0.27343,-2.22508 0.10414,-0.75977 0.2018,-1.48337 0.29296,-2.17081 0.0911,-0.6874 0.16925,-1.30247 0.23438,-1.84519 0.0781,-0.56077 0.1367,-0.98588 0.17578,-1.27534 l 3.2422,-21.6538 5.95703,0 -6.87501,39.6715" />
    <path
       inkscape:connector-curvature="0"
       id="path3122"
       style="font-size:47.14770889px;font-style:normal;font-variant:normal;font-weight:bold;font-stretch:normal;line-height:125%;letter-spacing:0px;word-spacing:0px;fill:#000000;fill-opacity:1;stroke:none;font-family:Droid Sans;-inkscape-font-specification:Droid Sans Bold"
       d="m 209.01283,434.68391 c -1.15886,2e-5 -2.1875,0.3166 -3.08593,0.94972 -0.88543,0.6151 -1.63412,1.51055 -2.24609,2.68638 -0.59897,1.15778 -1.0547,2.57786 -1.36719,4.26021 -0.31251,1.6643 -0.46876,3.53662 -0.46875,5.61695 -10e-6,2.11656 0.13671,3.99793 0.41016,5.6441 0.28644,1.64621 0.71613,3.03914 1.28906,4.17881 0.58592,1.1216 1.32811,1.98087 2.22656,2.57784 0.91144,0.57889 1.99217,0.86833 3.24218,0.86831 1.15885,2e-5 2.3177,-0.18089 3.47657,-0.5427 1.17186,-0.36179 2.44138,-0.87736 3.80859,-1.54669 l 0,7.05512 c -0.62502,0.3618 -1.2435,0.66933 -1.85546,0.92259 -0.612,0.25326 -1.23701,0.4613 -1.875,0.6241 -0.63805,0.16282 -1.2956,0.2804 -1.97266,0.35276 -0.66408,0.0904 -1.38023,0.13568 -2.14844,0.13568 -2.20053,0 -4.10808,-0.48844 -5.72266,-1.4653 -1.61459,-0.97685 -2.94922,-2.35171 -4.0039,-4.12453 -1.05469,-1.77281 -1.83594,-3.90744 -2.34375,-6.40389 -0.50781,-2.49641 -0.76172,-5.27323 -0.76172,-8.33047 0,-3.00292 0.29297,-5.75261 0.8789,-8.24907 0.58594,-2.51448 1.44532,-4.67624 2.57813,-6.48528 1.13281,-1.80896 2.53254,-3.21095 4.19922,-4.20594 1.66665,-1.01299 3.58071,-1.51953 5.74218,-1.51956 1.41926,3e-5 2.83853,0.2533 4.25782,0.75978 1.43227,0.48847 2.79945,1.16685 4.10156,2.03513 l -1.95313,6.83805 c -1.06772,-0.70548 -2.14194,-1.32055 -3.22265,-1.84519 -1.08075,-0.52458 -2.14194,-0.78689 -3.1836,-0.78691" />
  </g>
</svg>
