<?xml version="1.0" encoding="UTF-8" standalone="no"?>
<!-- Created with Inkscape (http://www.inkscape.org/) -->

<svg
   xmlns:dc="http://purl.org/dc/elements/1.1/"
   xmlns:cc="http://creativecommons.org/ns#"
   xmlns:rdf="http://www.w3.org/1999/02/22-rdf-syntax-ns#"
   xmlns:svg="http://www.w3.org/2000/svg"
   xmlns="http://www.w3.org/2000/svg"
   xmlns:xlink="http://www.w3.org/1999/xlink"
   xmlns:sodipodi="http://sodipodi.sourceforge.net/DTD/sodipodi-0.dtd"
   xmlns:inkscape="http://www.inkscape.org/namespaces/inkscape"
   width="153.59375"
   height="145.84375"
   id="svg2"
   version="1.1"
   inkscape:version="0.48.4 r9939"
   sodipodi:docname="zoomPlus.svg"
   inkscape:export-filename="/home/trion/Uni/SEP/Git/Spezifikation/res/icons/zoomPlus.png"
   inkscape:export-xdpi="11.724876"
   inkscape:export-ydpi="11.724876">
  <defs
     id="defs4">
    <linearGradient
       id="linearGradient3771">
      <stop
         style="stop-color:#d6d9e2;stop-opacity:1;"
         offset="0"
         id="stop3773" />
      <stop
         style="stop-color:#ffffff;stop-opacity:1;"
         offset="1"
         id="stop3775" />
    </linearGradient>
    <radialGradient
       inkscape:collect="always"
       xlink:href="#linearGradient3771"
       id="radialGradient3777"
       cx="261.96426"
       cy="396.82648"
       fx="261.96426"
       fy="396.82648"
       r="44.464287"
       gradientUnits="userSpaceOnUse" />
  </defs>
  <sodipodi:namedview
     id="base"
     pagecolor="#ffffff"
     bordercolor="#666666"
     borderopacity="1.0"
     inkscape:pageopacity="0.0"
     inkscape:pageshadow="2"
     inkscape:zoom="2.8"
     inkscape:cx="5.8168615"
     inkscape:cy="103.26358"
     inkscape:document-units="px"
     inkscape:current-layer="layer1"
     showgrid="false"
     inkscape:window-width="1920"
     inkscape:window-height="1026"
     inkscape:window-x="0"
     inkscape:window-y="26"
     inkscape:window-maximized="1"
     fit-margin-top="0"
     fit-margin-left="0"
     fit-margin-right="0"
     fit-margin-bottom="0" />
  <metadata
     id="metadata7">
    <rdf:RDF>
      <cc:Work
         rdf:about="">
        <dc:format>image/svg+xml</dc:format>
        <dc:type
           rdf:resource="http://purl.org/dc/dcmitype/StillImage" />
        <dc:title></dc:title>
      </cc:Work>
    </rdf:RDF>
  </metadata>
  <g
     inkscape:label="Ebene 1"
     inkscape:groupmode="layer"
     id="layer1"
     transform="translate(-157.09375,-346.3125)">
    <path
       sodipodi:type="arc"
       style="fill:url(#radialGradient3777);fill-opacity:1;stroke:none"
       id="path3769"
       sodipodi:cx="270.53571"
       sodipodi:cy="406.82648"
       sodipodi:rx="44.464287"
       sodipodi:ry="44.464287"
       d="m 314.99999,406.82648 c 0,24.55694 -19.90734,44.46428 -44.46428,44.46428 -24.55695,0 -44.46429,-19.90734 -44.46429,-44.46428 0,-24.55695 19.90734,-44.46429 44.46429,-44.46429 24.55694,0 44.46428,19.90734 44.46428,44.46429 z"
       transform="translate(-13.928571,-6.0714286)" />
    <path
       style="fill:#d5d7dd;fill-opacity:1;stroke:#697187;stroke-width:3.5;stroke-miterlimit:4;stroke-opacity:1;stroke-dasharray:none"
       d="M 256.96875,348.0625 C 228.26967,348.0625 205,371.33217 205,400.03125 c 0,10.60739 3.19932,20.46432 8.65625,28.6875 l -54.09375,49.09375 10.78125,11.875 54.125,-49.125 c 8.90145,7.14578 20.19841,11.4375 32.5,11.4375 28.69909,0 51.96875,-23.26967 51.96875,-51.96875 0,-28.69908 -23.26966,-51.96875 -51.96875,-51.96875 z m 0.1875,10.00446 c 24.26108,0 42.12054,17.89071 42.12054,42.15179 0,24.26108 -17.85946,41.4375 -42.12054,41.4375 -24.26108,0 -41.79464,-17.53356 -41.79464,-41.79464 0,-24.26108 17.53356,-41.79465 41.79464,-41.79465 z"
       id="path2985"
       inkscape:connector-curvature="0"
       sodipodi:nodetypes="ssccccssssssss" />
    <path
       style="fill:#d6d9e2;fill-opacity:1;stroke:#63678a;stroke-width:3.5;stroke-miterlimit:4;stroke-opacity:1;stroke-dasharray:none;stroke-dashoffset:0"
       d="M 94.5 25.15625 L 94.5 47.125 L 72.5625 47.125 L 72.5625 59.96875 L 94.5 59.96875 L 94.5 81.9375 L 107.375 81.9375 L 107.375 59.96875 L 129.34375 59.96875 L 129.34375 47.125 L 107.375 47.125 L 107.375 25.15625 L 94.5 25.15625 z "
       transform="translate(157.09375,346.3125)"
       id="rect2999" />
  </g>
</svg>
