<?xml version="1.0" encoding="UTF-8" standalone="no"?>
<!-- Created with Inkscape (http://www.inkscape.org/) -->

<svg
   xmlns:dc="http://purl.org/dc/elements/1.1/"
   xmlns:cc="http://creativecommons.org/ns#"
   xmlns:rdf="http://www.w3.org/1999/02/22-rdf-syntax-ns#"
   xmlns:svg="http://www.w3.org/2000/svg"
   xmlns="http://www.w3.org/2000/svg"
   xmlns:sodipodi="http://sodipodi.sourceforge.net/DTD/sodipodi-0.dtd"
   xmlns:inkscape="http://www.inkscape.org/namespaces/inkscape"
   width="17.611818"
   height="17.781252"
   id="svg3339"
   version="1.1"
   inkscape:version="0.48.4 r9939"
   sodipodi:docname="Layout_POI.svg">
  <defs
     id="defs3341" />
  <sodipodi:namedview
     id="base"
     pagecolor="#ffffff"
     bordercolor="#666666"
     borderopacity="1.0"
     inkscape:pageopacity="0.0"
     inkscape:pageshadow="2"
     inkscape:zoom="19.883939"
     inkscape:cx="7.1273612"
     inkscape:cy="12.913836"
     inkscape:document-units="px"
     inkscape:current-layer="g5202"
     showgrid="false"
     fit-margin-top="0"
     fit-margin-left="0"
     fit-margin-right="0"
     fit-margin-bottom="0"
     inkscape:window-width="1920"
     inkscape:window-height="1145"
     inkscape:window-x="-3"
     inkscape:window-y="-3"
     inkscape:window-maximized="1" />
  <metadata
     id="metadata3344">
    <rdf:RDF>
      <cc:Work
         rdf:about="">
        <dc:format>image/svg+xml</dc:format>
        <dc:type
           rdf:resource="http://purl.org/dc/dcmitype/StillImage" />
        <dc:title></dc:title>
      </cc:Work>
    </rdf:RDF>
  </metadata>
  <g
     inkscape:label="Ebene 1"
     inkscape:groupmode="layer"
     id="layer1"
     transform="translate(-341.24097,-523.42468)">
    <g
       id="g5202"
       transform="translate(306.95972,-45.950317)">
      <path
         sodipodi:type="arc"
         style="stroke-width:1.20000005000000010;stroke-miterlimit:10;stroke-dasharray:none;stroke-dashoffset:0;fill:none;stroke:#000000;stroke-opacity:1"
         id="path2987"
         sodipodi:cx="9.6534653"
         sodipodi:cy="9.3654099"
         sodipodi:rx="6.3118811"
         sodipodi:ry="6.5594058"
         d="m 15.965346,9.3654099 c 0,3.6226601 -2.825925,6.5594061 -6.3118807,6.5594061 -3.4859557,0 -6.3118811,-2.936746 -6.3118811,-6.5594061 0,-3.6226598 2.8259254,-6.5594059 6.3118811,-6.5594059 3.4859557,0 6.3118807,2.9367461 6.3118807,6.5594059 z"
         transform="matrix(1.1568627,0,0,1.0943396,31.900648,567.87267)" />
      <g
         id="layer1-3"
         transform="matrix(0.16766995,0,0,0.16766995,35.56735,581.84278)">
        <path
           inkscape:connector-curvature="0"
           id="rect3174"
           d="m 10,8 c -3.3137,0 -6,2.6822 -6,6 0.074392,9.0983 1.952e-4,18.727 0,28 0,3.1932 2.4839,5.7776 5.625,5.9688 l 44.625,0.031 c 3.199,-0.129 5.75,-2.765 5.75,-6 v -29.031 c -0.485,-2.829 -2.941,-4.969 -5.906,-4.969 -14.69,0.0067 -29.398,1e-4 -44.094,0 z m -0.09375,3.1562 h 44.375 l -21.469,21.469 c -0.39174,0.39174 -1.0145,0.39174 -1.4062,0 l -21.5,-21.469 z m 47.094,1.532 v 29.093 c 0,1.7334 -0.6245,2.7125 -1.875,3.0625 l -15.125,-15.156 17,-17 z m -49.656,0.124 16.718,16.719 -15.281,15.281 c -1.046,-0.353 -1.4101,-1.195 -1.4372,-2.343 v -29.656 z m 18.844,18.812 5.2188,5.25 c 0.39174,0.39174 1.0145,0.39174 1.4062,0 l 5.062,-5.062 13.187,13.188 h -38.25 l 13.375,-13.375 z"
           transform="translate(13,-50)" />
      </g>
    </g>
  </g>
</svg>
