<?xml version="1.0" encoding="UTF-8" standalone="no"?>
<!-- Created with Inkscape (http://www.inkscape.org/) -->

<svg
   xmlns:dc="http://purl.org/dc/elements/1.1/"
   xmlns:cc="http://creativecommons.org/ns#"
   xmlns:rdf="http://www.w3.org/1999/02/22-rdf-syntax-ns#"
   xmlns:svg="http://www.w3.org/2000/svg"
   xmlns="http://www.w3.org/2000/svg"
   xmlns:sodipodi="http://sodipodi.sourceforge.net/DTD/sodipodi-0.dtd"
   xmlns:inkscape="http://www.inkscape.org/namespaces/inkscape"
   width="17.611818"
   height="17.781252"
   id="svg3339"
   version="1.1"
   inkscape:version="0.48.4 r9939"
   sodipodi:docname="POI_health.svg"
   inkscape:export-filename="/home/gabi/SEP/JoglEarth/Spezifikation/res/iconsPoi/POI_Health.png"
   inkscape:export-xdpi="2556"
   inkscape:export-ydpi="2556">
  <defs
     id="defs3341" />
  <sodipodi:namedview
     id="base"
     pagecolor="#ffffff"
     bordercolor="#666666"
     borderopacity="1.0"
     inkscape:pageopacity="0"
     inkscape:pageshadow="2"
     inkscape:zoom="64"
     inkscape:cx="6.9071252"
     inkscape:cy="8.9206224"
     inkscape:document-units="px"
     inkscape:current-layer="g5202"
     showgrid="false"
     fit-margin-top="0"
     fit-margin-left="0"
     fit-margin-right="0"
     fit-margin-bottom="0"
     inkscape:window-width="1920"
     inkscape:window-height="1148"
     inkscape:window-x="0"
     inkscape:window-y="30"
     inkscape:window-maximized="1" />
  <metadata
     id="metadata3344">
    <rdf:RDF>
      <cc:Work
         rdf:about="">
        <dc:format>image/svg+xml</dc:format>
        <dc:type
           rdf:resource="http://purl.org/dc/dcmitype/StillImage" />
        <dc:title />
      </cc:Work>
    </rdf:RDF>
  </metadata>
  <g
     inkscape:label="Ebene 1"
     inkscape:groupmode="layer"
     id="layer1"
     transform="translate(-341.24097,-523.42468)">
    <g
       id="g5202"
       transform="translate(306.95972,-45.950317)">
      <path
         sodipodi:type="arc"
         style="stroke-width:1.19982195;stroke-miterlimit:10;stroke-dasharray:none;stroke-dashoffset:0;fill:none;stroke:#000000;stroke-opacity:1"
         id="path2987"
         sodipodi:cx="9.6534653"
         sodipodi:cy="9.3654099"
         sodipodi:rx="6.3118811"
         sodipodi:ry="6.5594058"
         d="m 15.965346,9.3654099 c 0,3.6226601 -2.825925,6.5594061 -6.3118807,6.5594061 -3.4859557,0 -6.3118811,-2.936746 -6.3118811,-6.5594061 0,-3.6226598 2.8259254,-6.5594059 6.3118811,-6.5594059 3.4859557,0 6.3118807,2.9367461 6.3118807,6.5594059 z"
         transform="matrix(1.1568627,0,0,1.0943396,31.900648,567.87267)" />
      <g
         transform="matrix(0.03172949,0,0,0.03172949,38.430898,572.81628)"
         id="layer1-1"
         style="stroke-width:6.07263184;stroke-miterlimit:10;stroke-dasharray:none">
        <path
           inkscape:connector-curvature="0"
           id="path16479"
           d="m 140.4,350.28 c -0.95,-1.14 -1.37,-4.55 -1.37,-11.05 v -9.39 l -4,-1.82 c -8.89,-4.03 -12.5,-10.05 -12.5,-20.82 0,-5.66 0.43,-7.44 2.57,-10.59 2.76,-4.05 2.76,-4.04 -1.91,-9.16 -6.46,-7.09 -8,-24.33 -2.69,-29.99 1.12,-1.18 2.03,-2.61 2.03,-3.16 0,-0.56 -2.07,-3.68 -4.61,-6.94 -7.86,-10.12 -8.82,-12.65 -8.86,-23.42 -0.03,-8.68 0.22,-9.94 2.85,-14.5 1.58,-2.75 4.19,-6.4 5.8,-8.1 l 2.92,-3.1 -3.67,-4.38 c -2.01,-2.42 -4.82,-6.87 -6.24,-9.91 -2.27,-4.88 -2.58,-6.83 -2.63,-17.01 -0.05,-9.98 0.25,-12.18 2.26,-16.64 1.28,-2.82 3.64,-6.39 5.25,-7.93 2.84,-2.72 3.86,-5.43 2.04,-5.43 -0.49,0 -3.37,-2.44 -6.4,-5.43 -8.41,-8.27 -12.752,-22.57 -9.32,-30.69 l 1.52,-3.617 -3.704,-3.01 C 96.098,91.24 94.094,88.101 91.158,80.753 L 89.686,77.07 84.617,78.691 C 79.76,80.244 79.326,80.224 74.288,78.205 70.993,76.885 66.923,76.121 63.389,76.16 59.425,76.204 56.317,75.528 52.924,73.886 50.269,72.601 46.099,71.432 43.655,71.288 40.68,71.112 37.367,69.892 33.621,67.591 29.629,65.139 26.812,64.142 23.779,64.109 18.977,64.056 11.169,60.258 7.073,55.983 L 4.4715,53.267 10.032,52.023 c 6.775,-1.516 24.799,-10.536 36.997,-18.514 4.95,-3.238 15.3,-10.033 23,-15.101 C 87.208,7.1 88.501,6.436 96.324,4.897 114.44,1.3336 128.71,9.6546 131.03,25.125 c 0.9,5.962 -0.78,11.185 -5.14,16.064 -1.85,2.064 -3.36,4.162 -3.36,4.661 0,0.5 1.44,2.118 3.19,3.597 2.59,2.173 3.87,2.579 6.68,2.122 5.29,-0.857 6.11,-2.269 6.19,-10.662 0.06,-5.655 -0.42,-8.492 -1.99,-11.672 -4.29,-8.709 -1.83,-17.984 5.84,-21.994 10.38,-5.4295 21.58,-0.0146 22.82,11.037 0.35,3.092 -0.21,5.638 -2.17,9.929 -2.32,5.07 -2.6,6.829 -2.35,14.5 l 0.29,8.729 4.7,0.303 c 4.32,0.278 10.8,-1.813 10.8,-3.484 0,-0.346 -1.06,-2.022 -2.35,-3.724 -5.76,-7.592 -6.26,-19.914 -1.11,-27.581 6.39,-9.5149 15.02,-12.621 27.74,-9.9851 11.68,2.4196 16.57,5.3421 44.89,26.82 6.78,5.141 18.18,12.705 25.33,16.807 12.37,7.1 13.25,7.441 18.25,7.07 4.83,-0.359 5.25,-0.217 5.25,1.762 0,2.935 -6.36,10.146 -11.07,12.547 -2.12,1.081 -5.62,1.965 -7.77,1.965 -2.16,0 -6.48,1.172 -9.61,2.604 -4.63,2.12 -6.52,2.478 -10.18,1.929 -3.2,-0.479 -5.15,-0.256 -6.71,0.77 -2.51,1.641 -8.61,2.846 -16.66,3.285 -16.57,0.904 -22.12,1.37 -23.03,1.929 -0.55,0.341 -1.63,2.129 -2.4,3.973 -1.56,3.721 -5.62,8.264 -9.82,10.968 -2.53,1.626 -2.75,2.286 -2.75,8.126 0,8.94 -3.26,15.81 -11.61,24.45 l -6.64,6.89 4.12,4.92 c 6.14,7.34 8.08,12.36 8.11,20.96 0.04,13.44 -3.27,21.01 -12.7,29.07 l -4.74,4.06 3.07,3.28 c 7.26,7.77 7.89,9.4 7.83,20.29 -0.07,12.3 -1.7,15.97 -10.42,23.55 -5.58,4.86 -7.51,7.95 -4.97,7.95 0.58,0 2.21,2.58 3.61,5.75 4.43,9.97 2.41,20.34 -5.76,29.63 -2.15,2.43 -3.9,4.67 -3.9,4.98 0,0.3 1.12,2.21 2.5,4.23 2.02,2.98 2.5,4.91 2.5,10.1 0,11.27 -7.03,20.31 -15.8,20.31 h -2.9 l -0.68,11.21 c -0.63,10.29 -1.34,12.71 -3.75,12.77 -0.34,0.01 -1.24,-0.73 -2,-1.64 z m 3.13,-25.9 c 0,-14.61 -0.36,-22.44 -1.02,-22.44 -0.67,0 -0.98,7.92 -0.89,22.98 0.08,13.07 0.52,22.76 1.02,22.45 0.49,-0.31 0.89,-10.65 0.89,-22.99 z m -4.46,-11.87 c -0.12,-8.84 -1.43,-10.62 -4.08,-5.51 -1.89,3.67 -1.32,10.38 1.3,15.42 l 1.57,3.02 0.66,-2.5 c 0.37,-1.38 0.61,-6.07 0.55,-10.43 z m 11.42,9.49 c 1.43,-2.65 1.31,-12.39 -0.16,-13.86 -2.24,-2.24 -2.65,-1.22 -2.98,7.3 -0.23,6.18 0.01,8.5 0.89,8.5 0.67,0 1.68,-0.87 2.25,-1.94 z m 8.15,-4.74 c 6.42,-10.39 3.97,-18.37 -8.71,-28.32 -1.05,-0.83 -3.74,-2.94 -5.98,-4.7 -2.24,-1.76 -5.33,-5.01 -6.87,-7.23 -2.47,-3.56 -2.74,-4.72 -2.37,-9.92 l 0.43,-5.89 -4.16,-2.63 c -2.29,-1.45 -4.89,-2.63 -5.78,-2.63 -4.26,0 -6.42,12.87 -3.38,20.15 2.92,6.98 12.1,14.96 21.71,18.87 5.02,2.04 10.78,8.27 11.58,12.53 0.66,3.53 0.21,8.59 -1.2,13.45 -0.65,2.24 -0.56,2.36 0.93,1.13 0.92,-0.75 2.62,-2.91 3.8,-4.81 z m -28.79,-1.23 c -0.79,-6.72 0.2,-11.1 3.27,-14.41 3.01,-3.24 2.6,-5.35 -1.22,-6.31 -2.23,-0.55 -3.15,-0.15 -5.11,2.22 -2.12,2.58 -2.35,3.67 -1.97,9.56 0.29,4.56 1.13,7.79 2.65,10.25 1.22,1.98 2.39,3.6 2.59,3.6 0.21,0 0.11,-2.21 -0.21,-4.91 z m 29.83,-31.84 c 5.2,-4.69 7.8,-10.29 7.8,-16.75 0,-9.59 -5.9,-17.75 -18.47,-25.5 -7.26,-4.48 -14.24,-10.63 -16.06,-14.15 -2.24,-4.34 -1.8,-11.01 0.99,-15.13 2.79,-4.12 2.87,-4 -6.17,-9.66 -6.09,-3.8 -6.52,-3.65 -10.67,3.99 -3.99,7.32 -4.48,14.91 -1.55,24.01 1.92,5.97 3.29,8.16 8.42,13.41 3.71,3.81 8.6,7.53 12.42,9.46 12.33,6.22 18.29,14.14 14.73,19.57 -0.9,1.37 -1.59,4.53 -1.59,7.26 0,8.22 3.55,9.44 10.15,3.49 z m -14.04,-6.5 c 0.21,-8.25 -0.75,-11.75 -3.23,-11.75 -1.36,0 -1.06,13.41 0.32,14.8 2.08,2.08 2.8,1.33 2.91,-3.05 z m -6.38,-9.5 c -0.4,-1.67 -0.46,-1.67 -1.18,0 -0.42,0.96 -0.42,2.53 0,3.5 0.72,1.66 0.78,1.66 1.18,0 0.23,-0.97 0.23,-2.54 0,-3.5 z m 26.1,-24 c 7.02,-4.28 11.32,-12.19 11.96,-22.01 0.43,-6.6 0.19,-7.83 -2.62,-13.54 -1.7,-3.45 -4.12,-7.21 -5.38,-8.34 -3.3,-2.98 -17.67,-12.76 -21.79,-14.83 -1.93,-0.96 -6.32,-3.62 -9.76,-5.89 -5.38,-3.56 -6.54,-4.89 -8.25,-9.43 -3.25,-8.64 -2.58,-14.6 2.26,-19.91 2.76,-3.04 1.81,-4.61 -4.78,-7.94 l -5.68,-2.86 -3.51,4 c -5.45,6.21 -7.28,11.41 -7.28,20.69 0,6.88 0.43,8.93 3.05,14.4 3.56,7.47 10.32,14.49 18.6,19.32 12.54,7.32 22.67,14.57 24.47,17.51 1.03,1.69 1.87,4.78 1.87,6.87 0.01,3.98 -2.76,10.44 -5.42,12.65 -2.65,2.19 -1.77,4.78 2.68,7.9 5.07,3.56 5.85,3.68 9.58,1.41 z m -17.82,-15.25 c 0.31,-13.52 0.25,-13.82 -3.01,-15.5 l -3,-1.55 v 10.48 c 0,9.51 0.2,10.68 2.19,12.53 1.21,1.13 2.53,1.71 2.93,1.29 0.41,-0.41 0.81,-3.68 0.89,-7.25 z m 6.37,-3.18 c 0.2,-5.47 -1.85,-4.83 -2.19,0.68 -0.24,3.86 -0.04,4.73 0.88,3.82 0.65,-0.65 1.24,-2.68 1.31,-4.5 z m -15.16,-6.01 c -1.45,-1.45 -2.59,2.66 -1.66,6.01 0.72,2.63 0.75,2.61 1.7,-1.16 0.65,-2.55 0.64,-4.17 -0.04,-4.85 z m 31.75,-32.29 c 8.34,-6.13 12.31,-14.26 12.45,-25.52 0.05,-4.57 -0.5,-7.68 -1.88,-10.44 -1.88,-3.79 -10.39,-13.56 -11.82,-13.56 -0.38,0 -3.57,-1.77 -7.1,-3.93 -3.6,-2.2 -11.63,-5.58 -18.27,-7.69 -13.39,-4.25 -22.25,-9.12 -26.7,-14.65 -2.42,-3.01 -3.11,-4.97 -3.46,-9.75 -0.46,-6.307 0.31,-7.293 3.2,-4.104 4.02,4.444 14.06,3.174 18.38,-2.322 2.28,-2.891 2.07,-4.99 -0.6,-6.096 -7.3,-3.022 -16,-2.052 -22.65,2.527 -8.43,5.797 -10.83,15.555 -6.11,24.795 4.45,8.71 10.79,13.44 32.4,24.15 18.18,9.02 21.45,11.13 24.25,15.67 3.86,6.23 1.43,15.89 -5.58,22.28 -3.91,3.55 -4.28,5.11 -1.73,7.34 2.34,2.05 7.42,4.69 9.11,4.74 0.76,0.02 3.5,-1.53 6.11,-3.44 z M 121.25,92.328 c -1.24,-1.239 0.37,-2.392 3.34,-2.392 1.62,0 2.94,0.45 2.94,1 0,0.55 -0.64,1 -1.42,1 -0.78,0 -2.04,0.239 -2.8,0.531 -0.76,0.293 -1.69,0.23 -2.06,-0.139 z M 150,168.77 c 0.72,-13.05 0.71,-13.19 -1.62,-14.99 -3.05,-2.35 -5.87,-3.26 -6.78,-2.19 -0.4,0.46 -0.46,6.83 -0.15,14.13 0.56,12.88 0.66,13.33 3.08,14.66 4.58,2.5 4.7,2.23 5.47,-11.61 z m 7.99,4.86 c 2.62,-3.99 2.81,-7.89 0.56,-11.49 -1.13,-1.82 -2.5,-3.03 -3.04,-2.69 -1.28,0.79 -1.29,16.49 0,16.49 0.53,0 1.65,-1.04 2.48,-2.31 z m -19.46,-8.19 c 0,-7.68 -0.28,-9.5 -1.47,-9.5 -1.7,0 -3.02,2.21 -3.98,6.7 -0.48,2.24 -0.09,4.56 1.32,7.75 3.1,7 4.13,5.77 4.13,-4.95 z m 34.31,-32.64 c 9.51,-4.92 17.64,-16.56 18.42,-26.36 0.45,-5.58 0.26,-6.28 -2.69,-10.004 -4.9,-6.171 -10.14,-8.85 -17.42,-8.898 -6.63,-0.044 -11.9,1.897 -12.42,4.575 -0.17,0.915 0.99,3.128 2.59,4.918 2.54,2.838 3.67,3.309 8.86,3.689 5.28,0.38 6.29,0.14 9.04,-2.178 1.7,-1.433 3.38,-2.606 3.71,-2.606 0.85,0 -0.44,8.034 -1.68,10.504 -3.6,7.14 -12.78,14.75 -21.03,17.45 -5.1,1.66 -4.49,3.55 2.31,7.14 6.11,3.23 7.16,3.41 10.31,1.77 z m -2.56,-40.553 c -2.82,-0.737 -2.01,-2.311 1.19,-2.311 3.33,0 4.85,1.481 2.47,2.396 -0.87,0.332 -1.65,0.552 -1.74,0.488 -0.1,-0.063 -0.96,-0.321 -1.92,-0.573 z m -18.61,31.443 c 0.42,-3.65 0.79,-10.61 1.83,-34.254 0.63,-14.3 1.32,-26.536 1.53,-27.191 0.22,-0.656 0.47,-6.506 0.57,-13 l 0.18,-11.809 -6.86,-0.689 c -3.76,-0.379 -6.99,-0.55 -7.16,-0.38 -0.17,0.17 -0.51,19.24 -0.77,42.379 -0.37,33.014 -0.2,42.244 0.79,42.884 1.63,1.06 6.91,3.04 8.5,3.19 0.69,0.06 1.31,-0.45 1.39,-1.13 z m 11.16,-3.68 c 4.57,-2.1 11.7,-8.17 11.7,-9.96 0,-0.61 -0.68,-1.11 -1.5,-1.11 -0.83,0 -1.39,-0.52 -1.25,-1.15 0.14,-0.63 -1.31,-1.57 -3.22,-2.08 -1.9,-0.52 -5.05,-2.34 -7,-4.05 l -3.53,-3.114 -0.3,6.314 c -0.17,3.47 -0.08,6.53 0.19,6.8 0.28,0.28 2.55,-0.2 5.05,-1.05 6.2,-2.11 5.76,-0.58 -0.68,2.4 -5.1,2.36 -6.56,4.39 -5.38,7.48 0.71,1.84 0.9,1.83 5.92,-0.48 z m -24.54,-2.26 c -0.7,-1.81 -12.76,-8.81 -15.18,-8.81 -1.73,0 -1.62,0.35 0.97,3.05 6.12,6.38 15.99,10.39 14.21,5.76 z m -0.56,-6.56 c 0.75,-3.02 0.98,-12.254 0.31,-12.254 -0.36,0 -2.08,1.084 -3.83,2.414 -1.75,1.32 -4.72,3.03 -6.6,3.79 l -3.43,1.38 5.93,3.06 c 7.3,3.78 7.09,3.73 7.62,1.61 z m 60.43,-20.733 c 2.36,-2.464 5.04,-5.62 5.96,-7.014 1.63,-2.497 1.58,-2.611 -3.2,-7.77 -2.67,-2.88 -5.2,-5.387 -5.62,-5.57 -0.43,-0.184 -2.81,1.457 -5.3,3.647 -6.73,5.926 -10.86,7.59 -18.97,7.642 -3.85,0.024 -8.13,-0.181 -9.5,-0.456 -2.29,-0.457 -2.5,-0.2 -2.5,3 0,3.857 -0.13,3.825 7.9,1.931 6.35,-1.498 14.96,0.91 20.37,5.694 2.05,1.811 4.37,3.311 5.15,3.334 0.78,0.023 3.35,-1.974 5.71,-4.438 z m -88.72,0.089 c 0.63,-0.765 3.49,-2.395 6.34,-3.624 4.26,-1.832 6.32,-2.128 11.47,-1.648 3.45,0.323 7.11,1.037 8.14,1.589 2.34,1.253 3.14,0.496 3.14,-2.99 v -2.731 l -8.25,0.027 c -6.32,0.021 -9.33,-0.467 -12.86,-2.087 -4.28,-1.964 -10.92,-8.217 -13.5,-12.703 -1.02,-1.784 -1.44,-1.56 -5.745,3.064 -2.556,2.744 -4.646,5.57 -4.646,6.281 0,2.775 4.132,9.17 8.141,12.605 4.6,3.931 6.01,4.335 7.77,2.217 z M 220.95,79.329 c 2.4,-0.92 1.92,-2.016 -1.88,-4.369 -1.91,-1.177 -5.54,-5.263 -8.08,-9.082 -4.12,-6.199 -4.96,-6.942 -7.84,-6.942 -7.01,0 -7.36,4.23 -0.9,11.131 4.9,5.246 8.68,7.693 13.78,8.934 1.65,0.402 3.07,0.777 3.17,0.833 0.09,0.056 0.88,-0.171 1.75,-0.505 z m -85.79,-3.944 c 2.71,-0.544 3.34,-2.992 3.35,-13.183 l 0.02,-8.235 -5.99,0.626 -5.99,0.626 -4.51,-4.51 c -5.61,-5.603 -5.87,-8.49 -1.14,-12.45 4.55,-3.81 6.63,-8.242 6.63,-14.144 0,-4.28 -0.49,-5.464 -3.75,-9.083 C 118.81,9.5192 112.3,7.1256 102.93,7.3639 96.798,7.5197 94.676,8.1165 87.427,11.722 82.808,14.019 76.496,17.595 73.4,19.668 c -3.096,2.073 -9.396,6.289 -14,9.37 C 41.158,41.244 31.697,46.526 14.04,54.361 l -3.988,1.77 2.834,1.485 c 5.184,2.716 12.93,2.846 19.88,0.334 11.738,-4.243 43.135,-23.983 46.079,-28.971 2.412,-4.085 3.684,-3.029 3.684,3.056 0,11.652 10.622,21.875 22.751,21.896 1.79,0.003 3.25,0.455 3.25,1.005 0,0.55 -0.51,1 -1.13,1 -1.82,0 -0.36,7.508 2.13,11.009 2.88,4.045 9.11,7.922 14.33,8.924 3.86,0.739 5.55,0.666 11.3,-0.484 z m 109.37,0.574 c 0,-0.537 -1.24,-1.729 -2.75,-2.648 -7.14,-4.339 -12.09,-8.02 -15.84,-11.777 -8.21,-8.217 -7.86,-8.035 -11.35,-5.977 -1.68,0.996 -3.06,2.545 -3.06,3.443 0,2.569 11.4,12.777 17.22,15.423 5.39,2.448 15.78,3.46 15.78,1.536 z M 86.59,72.888 c 1.96,-0.992 5.698,-3.713 8.304,-6.046 7.722,-6.911 8.022,-9.179 1.371,-10.426 -3.647,-0.685 -3.948,-0.506 -10.498,6.241 -3.708,3.82 -7.98,7.747 -9.492,8.727 -3.177,2.059 -3.475,3.212 -1,3.872 2.545,0.679 7.231,-0.301 11.315,-2.368 z m 90.436,1.944 c 5.85,-1.475 11.93,-6.829 14.05,-12.395 1.39,-3.625 1.47,-4.767 0.46,-5.99 -0.69,-0.831 -1.09,-1.526 -0.88,-1.545 0.2,-0.019 3.81,-0.131 8.02,-0.25 6.82,-0.192 8.13,-0.56 12,-3.357 6.73,-4.864 10.32,-13.279 8.69,-20.359 -0.78,-3.416 2.52,-1.173 4.02,2.734 1.66,4.293 9.54,11.281 25.92,22.996 13.29,9.504 29.49,13.434 36.47,8.848 3.76,-2.474 3.45,-4.051 -1.08,-5.408 -9.73,-2.916 -28.4,-14.301 -48.98,-29.872 -26.49,-20.044 -35.71,-23.797 -50.92,-20.72 -3.2,0.647 -9.34,6.337 -10.92,10.125 -2.9,6.941 -1.02,15.071 4.9,21.17 l 3.74,3.849 -2.25,3.297 c -4.58,6.731 -10.38,8.852 -17.99,6.584 l -2.75,-0.819 v 20.159 l 3.25,0.939 c 4.52,1.304 9.1,1.309 14.25,0.014 z m 83.92,-1.503 c 1.69,-0.65 2.21,-3.393 0.63,-3.393 -1.93,0 -21.83,-14.02 -28.94,-20.396 -7.61,-6.831 -9.47,-7.718 -10.5,-5.022 -1.55,4.018 -0.51,6.65 4.64,11.786 12.01,11.978 27.37,19.634 34.17,17.025 z M 69.536,69.464 c 2.484,-1.265 8.006,-4.908 12.272,-8.095 l 7.757,-5.793 -3.218,-3.32 c -1.77,-1.826 -3.575,-3.32 -4.011,-3.32 -0.436,0 -3.162,2.138 -6.056,4.75 -6.713,6.059 -14.097,11.413 -19.508,14.145 -5.09,2.57 -5.379,3.836 -1,4.39 4.792,0.607 8.701,-0.176 13.764,-2.757 z M 53.022,64.069 c 5.376,-2.568 27.5,-16.596 27.5,-17.438 0,-1.492 -3.357,-9.695 -3.968,-9.695 -0.428,0 -6.573,4.343 -13.656,9.651 -11.193,8.388 -24.979,16.349 -28.311,16.349 -2.372,0 -0.853,2.005 2.185,2.882 5.751,1.66 10.089,1.193 16.25,-1.749 z m 105.61,-35.101 c 7.14,-8.554 1.79,-20.032 -9.35,-20.032 -4.31,4e-4 -5.41,0.4467 -8.36,3.4 -2.91,2.914 -3.4,4.081 -3.4,8.155 0,4.277 0.42,5.153 4.16,8.712 3.95,3.756 4.41,3.932 9.21,3.472 4.16,-0.4 5.53,-1.054 7.74,-3.707 z m -9.52,-0.879 c -0.34,-0.555 0.31,-1.304 1.45,-1.666 3.07,-0.974 5.72,-7.035 4.17,-9.523 -2.49,-3.988 -0.05,-5.652 3.13,-2.135 2.36,2.605 2.08,7.588 -0.59,10.578 -2.47,2.759 -7.17,4.343 -8.16,2.746 z"
           style="stroke:#000000;stroke-width:15.18157959;stroke-miterlimit:10;stroke-opacity:1;stroke-dasharray:none;marker-start:none" />
      </g>
      <path
         style="fill:#ffffff;fill-opacity:1;stroke-width:0.2;stroke-miterlimit:10;stroke-dasharray:none"
         d="m 42.4365,575.22922 c -0.151306,-0.0139 -0.320647,-0.0912 -0.444084,-0.20283 -0.08934,-0.0808 -0.13922,-0.17266 -0.16631,-0.30636 -0.01669,-0.0824 -0.01129,-0.11181 0.0232,-0.12622 0.01952,-0.008 0.02589,-0.0154 0.02589,-0.0293 0,-0.0274 -0.02103,-0.0345 -0.122972,-0.0419 -0.150381,-0.0109 -0.267431,-0.0505 -0.387833,-0.13125 -0.10841,-0.0727 -0.218214,-0.20887 -0.263789,-0.32705 -0.0324,-0.084 -0.03767,-0.11108 -0.04557,-0.234 -0.0082,-0.12801 -0.01852,-0.16804 -0.04414,-0.17167 -0.02169,-0.003 -0.03797,0.0113 -0.08096,0.0716 -0.01996,0.028 -0.06478,0.0727 -0.110533,0.11024 -0.288858,0.23717 -0.984067,0.65947 -1.303019,0.7915 -0.177695,0.0736 -0.394427,0.0939 -0.556499,0.0522 -0.04646,-0.0119 -0.193265,-0.0768 -0.193083,-0.0853 5.3e-5,-0.002 0.07541,-0.0383 0.167467,-0.0795 0.204063,-0.0915 0.499696,-0.23723 0.641722,-0.31636 0.227908,-0.12699 0.554696,-0.33404 0.985813,-0.62462 0.235497,-0.15873 0.331679,-0.21823 0.492923,-0.30493 0.352053,-0.1893 0.442003,-0.2181 0.68123,-0.21815 0.217191,-3e-5 0.388826,0.0501 0.522042,0.15261 0.05983,0.046 0.154831,0.15189 0.183166,0.20411 l 0.02488,0.0458 0,0.12419 c 0,0.10984 -0.002,0.1302 -0.01743,0.17623 -0.0358,0.10687 -0.0738,0.16151 -0.194114,0.27913 -0.07499,0.0733 -0.09333,0.10496 -0.09321,0.16086 1.46e-4,0.0687 0.0374,0.12492 0.183905,0.27757 0.08237,0.0858 0.09044,0.0922 0.116742,0.0922 0.02556,0 0.275817,-0.0248 0.338355,-0.0335 l 0.02566,-0.004 -0.0048,0.24621 c -0.005,0.25498 -0.01153,0.32585 -0.03422,0.36998 -0.02087,0.0406 -0.04357,0.0525 -0.129249,0.0675 -0.109473,0.0193 -0.144056,0.0215 -0.221178,0.0144 l 0,0 z"
         id="path2988"
         inkscape:connector-curvature="0" />
      <path
         style="fill:#ffffff;fill-opacity:1;stroke-width:0.2;stroke-miterlimit:10;stroke-dasharray:none"
         d="m 39.6673,574.91762 c -0.100898,-0.0226 -0.177129,-0.0624 -0.168573,-0.0881 0.0017,-0.005 0.01976,-0.0116 0.04015,-0.0146 0.142893,-0.0206 0.510942,-0.23896 0.974014,-0.57798 0.214951,-0.15737 0.334922,-0.24087 0.346068,-0.24087 0.0141,0 0.106042,0.21462 0.117031,0.2732 0.0045,0.0237 0.0022,0.028 -0.02779,0.0524 -0.06746,0.0549 -0.480913,0.31952 -0.701216,0.44875 -0.105071,0.0616 -0.180961,0.0976 -0.267341,0.12666 -0.07086,0.0238 -0.09065,0.0273 -0.170488,0.0295 -0.06212,0.002 -0.106407,-10e-4 -0.141849,-0.009 l 0,0 z"
         id="path2990"
         inkscape:connector-curvature="0" />
      <path
         style="fill:#ffffff;fill-opacity:1;stroke-width:0.2;stroke-miterlimit:10;stroke-dasharray:none"
         d="m 40.215586,575.10586 c -0.0083,-0.002 -0.03257,-0.007 -0.05399,-0.0113 -0.08361,-0.0169 -0.06621,-0.0462 0.07171,-0.121 0.18325,-0.0993 0.347733,-0.21781 0.599458,-0.43181 0.07865,-0.0669 0.157826,-0.13225 0.17594,-0.14529 0.03215,-0.0231 0.03344,-0.0234 0.0542,-0.0111 0.0117,0.007 0.06214,0.0535 0.112094,0.10361 l 0.09083,0.091 -0.156309,0.11641 c -0.309828,0.23075 -0.510594,0.35161 -0.649771,0.39114 -0.05391,0.0153 -0.207447,0.0269 -0.244165,0.0184 z"
         id="path2992"
         inkscape:connector-curvature="0" />
      <path
         style="fill:#ffffff;fill-opacity:1;stroke-width:0.2;stroke-miterlimit:10;stroke-dasharray:none"
         d="m 40.814676,575.19706 c -0.06405,-0.0209 -0.05887,-0.0335 0.04944,-0.1203 0.0441,-0.0353 0.165354,-0.14694 0.269451,-0.24803 0.104097,-0.10108 0.202254,-0.1926 0.218126,-0.20337 0.03475,-0.0236 0.09275,-0.0263 0.164464,-0.008 0.09762,0.0253 0.127986,0.0555 0.10678,0.10627 -0.04076,0.0976 -0.311531,0.33477 -0.46652,0.4087 -0.12568,0.0599 -0.271435,0.0874 -0.341737,0.0644 z"
         id="path2994"
         inkscape:connector-curvature="0" />
      <path
         style="fill:#ffffff;fill-opacity:1;stroke-width:0.2;stroke-miterlimit:10;stroke-dasharray:none"
         d="m 41.796176,575.71336 c -0.06734,-0.0311 -0.200841,-0.15229 -0.270735,-0.24579 -0.04712,-0.063 -0.100055,-0.1583 -0.113703,-0.20462 -0.01083,-0.0368 -0.01063,-0.0408 0.0034,-0.0683 0.02909,-0.057 0.211585,-0.26423 0.254959,-0.28948 0.0281,-0.0164 0.03237,-0.0131 0.08536,0.0656 0.04674,0.0694 0.19694,0.22315 0.274025,0.28048 0.156159,0.11615 0.274263,0.14438 0.605092,0.14463 l 0.191128,1.5e-4 -0.0041,0.0794 c -0.0031,0.0612 -0.0071,0.0828 -0.0173,0.0941 -0.01694,0.0187 -0.02487,0.0184 -0.08527,-0.003 -0.09994,-0.0358 -0.304317,-0.06 -0.418935,-0.0496 -0.112303,0.0101 -0.297068,0.0877 -0.39288,0.16488 -0.05625,0.0453 -0.07189,0.0498 -0.111101,0.0317 l 0,0 z"
         id="path2996"
         inkscape:connector-curvature="0" />
      <path
         style="fill:#ffffff;fill-opacity:1;stroke-width:0.2;stroke-miterlimit:10;stroke-dasharray:none"
         d="m 43.505766,578.39731 c 0.0031,-0.005 0.01649,-0.0247 0.02968,-0.0433 0.07714,-0.10896 0.122659,-0.26404 0.113627,-0.38715 -0.01121,-0.1528 -0.09045,-0.27087 -0.253162,-0.3772 -0.09546,-0.0624 -0.174133,-0.10465 -0.583641,-0.31362 -0.525554,-0.2682 -0.674717,-0.35931 -0.834314,-0.50964 -0.07512,-0.0708 -0.1725,-0.21613 -0.211571,-0.31582 -0.04352,-0.11105 -0.05547,-0.25668 -0.02963,-0.36098 0.09259,-0.37369 0.568905,-0.59043 0.957437,-0.43567 0.04463,0.0178 0.07668,0.053 0.07668,0.0842 0,0.0293 -0.03792,0.0931 -0.08082,0.13601 -0.03002,0.03 -0.06179,0.0516 -0.110488,0.0749 -0.08121,0.039 -0.149873,0.0526 -0.238454,0.0474 -0.0888,-0.005 -0.137528,-0.0258 -0.202494,-0.0854 -0.09213,-0.0845 -0.110422,-0.066 -0.102893,0.10455 0.0088,0.19962 0.0424,0.28205 0.16484,0.40458 0.15102,0.15112 0.371391,0.26462 0.79235,0.40809 0.288482,0.0983 0.436305,0.1624 0.627826,0.27216 0.06308,0.0361 0.1373,0.0769 0.164926,0.0907 0.05729,0.0285 0.143013,0.11206 0.250834,0.24463 0.164919,0.20278 0.190898,0.27152 0.190604,0.50429 -2.24e-4,0.17713 -0.01933,0.29119 -0.06964,0.41582 l -0.0205,0.0508 -0.318444,2e-5 c -0.252782,2e-5 -0.317269,-0.002 -0.312745,-0.009 l 0,0 z m -1.099933,-2.6552 c 0.05882,-0.0107 0.0715,-0.0176 0.0715,-0.0388 0,-0.0469 -0.177758,-0.0481 -0.208341,-10e-4 -0.01061,0.0162 -0.01051,0.0196 0.0011,0.0373 0.01428,0.0218 0.03009,0.0221 0.135723,0.003 z"
         id="path2998"
         inkscape:connector-curvature="0" />
      <path
         style="fill:#ffffff;fill-opacity:1;stroke-width:0.2;stroke-miterlimit:10;stroke-dasharray:none"
         d="m 42.718187,576.36802 c -0.156105,-0.0759 -0.331371,-0.16925 -0.326275,-0.17371 0.0035,-0.003 0.02672,-0.0135 0.05155,-0.0231 0.07893,-0.0306 0.140094,-0.0642 0.251283,-0.13821 0.05955,-0.0396 0.111204,-0.0703 0.114781,-0.068 0.0092,0.006 0.0081,0.22921 -0.0016,0.30488 -0.01201,0.0943 -0.01902,0.11234 -0.04333,0.11161 -0.01106,-3.4e-4 -0.03197,-0.006 -0.04646,-0.0134 z"
         id="path3000"
         inkscape:connector-curvature="0" />
      <path
         style="fill:#ffffff;fill-opacity:1;stroke-width:0.2;stroke-miterlimit:10;stroke-dasharray:none"
         d="m 42.732742,576.60051 c -0.111825,-0.0294 -0.251479,-0.12287 -0.370963,-0.24822 -0.06437,-0.0675 -0.06672,-0.081 -0.01253,-0.0719 0.06328,0.0107 0.295714,0.13616 0.40645,0.2194 0.05152,0.0387 0.07636,0.0774 0.06131,0.0956 -0.01454,0.0175 -0.03289,0.0186 -0.08427,0.005 z"
         id="path3002"
         inkscape:connector-curvature="0" />
      <path
         style="fill:#ffffff;fill-opacity:1;stroke-width:1.20000005;stroke-miterlimit:10;stroke-dasharray:none"
         d="m 43.113335,576.74778 c -0.100467,-0.0339 -0.182378,-0.0711 -0.187832,-0.0853 -0.02575,-0.0671 -0.02564,-1.32794 2.01e-4,-2.46985 l 0.005,-0.22123 0.09508,0.005 c 0.05229,0.003 0.150855,0.0111 0.21903,0.018 l 0.123954,0.0126 -0.0021,0.19192 c -0.0022,0.20791 -0.01444,0.578 -0.01935,0.58594 -0.0072,0.0117 -0.02893,0.4144 -0.06838,1.26938 -0.02966,0.64264 -0.03492,0.70425 -0.06098,0.71425 -0.01852,0.007 -0.02474,0.006 -0.104675,-0.0211 l 0,0 z"
         id="path3004"
         inkscape:connector-curvature="0" />
      <path
         style="fill:#ffffff;fill-opacity:1;stroke-width:0.2;stroke-miterlimit:10;stroke-dasharray:none"
         d="m 43.049359,573.83642 c -0.01971,-0.01 -0.07376,-0.0561 -0.129247,-0.11101 -0.117097,-0.11582 -0.122133,-0.12767 -0.117947,-0.27756 0.0033,-0.11884 0.01345,-0.14227 0.09935,-0.2297 0.0829,-0.0844 0.11521,-0.10233 0.197717,-0.10985 0.197786,-0.018 0.353887,0.0572 0.4265,0.20547 0.06956,0.14205 0.03796,0.30452 -0.08478,0.43595 -0.06007,0.0643 -0.08514,0.0772 -0.180844,0.0929 -0.09782,0.016 -0.170004,0.0139 -0.210745,-0.006 z m 0.269617,-0.13758 c 0.124592,-0.0591 0.187986,-0.17279 0.17121,-0.30706 -0.007,-0.0563 -0.04317,-0.1152 -0.08986,-0.14645 -0.08598,-0.0575 -0.121674,-0.003 -0.06808,0.10337 0.01732,0.0345 0.01946,0.046 0.01555,0.0834 -0.0096,0.0919 -0.0669,0.18069 -0.140524,0.21785 -0.05723,0.0289 -0.06784,0.0583 -0.02731,0.0756 0.02658,0.0114 0.08047,10e-4 0.139013,-0.0268 l 0,0 z"
         id="path3006"
         inkscape:connector-curvature="0" />
      <path
         style="fill:#ffffff;fill-opacity:1;stroke-width:0.2;stroke-miterlimit:10;stroke-dasharray:none"
         d="m 43.689199,575.20723 c -0.0207,-0.004 -0.0715,-0.0159 -0.112899,-0.0274 l -0.07527,-0.021 -0.002,-0.31413 c -0.0011,-0.17277 -2.76e-4,-0.31413 0.0018,-0.31413 0.0021,0 0.03682,0.009 0.07723,0.0197 0.148947,0.0399 0.271289,0.0321 0.378469,-0.0241 0.08419,-0.0441 0.137628,-0.0985 0.233085,-0.23704 l 0.03715,-0.0539 -0.07639,-0.082 c -0.129368,-0.13886 -0.182906,-0.22284 -0.217635,-0.34138 -0.01481,-0.0505 -0.01757,-0.0765 -0.01721,-0.16182 3.79e-4,-0.0892 0.0029,-0.109 0.02055,-0.1624 0.01106,-0.0334 0.03455,-0.0824 0.05219,-0.10872 0.06722,-0.10044 0.217065,-0.22875 0.294282,-0.25199 0.07397,-0.0223 0.21531,-0.0361 0.320249,-0.0314 0.16312,0.007 0.277284,0.0386 0.456399,0.12488 0.202625,0.0977 0.391085,0.2215 0.823979,0.54151 0.325422,0.24056 0.468013,0.34153 0.675261,0.47817 0.362107,0.23873 0.64619,0.39424 0.861585,0.47163 0.168093,0.0604 0.187009,0.084 0.117536,0.14679 -0.04502,0.0407 -0.126148,0.0756 -0.201115,0.0865 -0.241808,0.0353 -0.640148,-0.0925 -0.948982,-0.3045 -0.237555,-0.16304 -0.564294,-0.41937 -0.69102,-0.54211 -0.100741,-0.0976 -0.138014,-0.14528 -0.18219,-0.23322 -0.03454,-0.0688 -0.08787,-0.12785 -0.111252,-0.12326 -0.01045,0.002 -0.01252,0.0101 -0.01121,0.0438 0.0056,0.14398 0.0027,0.20899 -0.01196,0.26478 -0.043,0.16417 -0.149499,0.30965 -0.300785,0.41084 -0.107568,0.072 -0.142864,0.0791 -0.439641,0.0887 -0.09311,0.003 -0.163704,0.008 -0.163704,0.0123 0,0.004 0.0097,0.0212 0.02155,0.0385 0.01185,0.0173 0.02386,0.0389 0.02669,0.0479 0.01233,0.0394 -0.0443,0.18572 -0.10387,0.2684 -0.07456,0.10347 -0.20082,0.20494 -0.305,0.24511 -0.118551,0.0457 -0.30637,0.0656 -0.425895,0.0452 z"
         id="path3008"
         inkscape:connector-curvature="0" />
      <path
         style="fill:#ffffff;fill-opacity:1;stroke-width:0.2;stroke-miterlimit:10;stroke-dasharray:none"
         d="m 46.523549,575.14668 c -0.142931,-0.0237 -0.366609,-0.13126 -0.56318,-0.27079 -0.175581,-0.12463 -0.408027,-0.3417 -0.459257,-0.42887 -0.04555,-0.0775 -0.04885,-0.16578 -0.0087,-0.23187 0.01406,-0.0231 0.01774,-0.0249 0.04438,-0.0213 0.03875,0.005 0.089,0.0398 0.210882,0.14512 0.328639,0.28403 0.863297,0.66332 0.995397,0.70614 0.01741,0.006 0.01673,0.0327 -0.0015,0.0627 -0.02536,0.0416 -0.11041,0.0568 -0.218019,0.0389 l 0,0 z"
         id="path3010"
         inkscape:connector-curvature="0" />
      <path
         style="fill:#ffffff;fill-opacity:1;stroke-width:0.2;stroke-miterlimit:10;stroke-dasharray:none"
         d="m 45.924606,575.23833 c -0.193937,-0.0348 -0.291514,-0.0804 -0.462888,-0.21653 -0.145361,-0.11545 -0.288624,-0.2619 -0.30924,-0.31613 -0.0085,-0.0222 0.0043,-0.0489 0.03952,-0.0825 0.032,-0.0306 0.110153,-0.0776 0.128896,-0.0776 0.03315,0 0.07534,0.0326 0.20786,0.16055 0.186595,0.18017 0.282744,0.25635 0.491347,0.38929 0.106784,0.068 0.164171,0.11436 0.164171,0.13249 0,0.027 -0.136901,0.0325 -0.259668,0.0104 l 0,0 z"
         id="path3012"
         inkscape:connector-curvature="0" />
      <path
         style="fill:#ffffff;fill-opacity:1;stroke-width:0.2;stroke-miterlimit:10;stroke-dasharray:none"
         d="m 45.277415,575.3162 c -0.142227,-0.0413 -0.240336,-0.0998 -0.364141,-0.21732 -0.121311,-0.11514 -0.204218,-0.24006 -0.204218,-0.30771 0,-0.0595 0.04,-0.0883 0.13654,-0.0984 0.103571,-0.0108 0.134786,0.0124 0.26186,0.19463 0.121082,0.17367 0.199145,0.25961 0.301055,0.33142 0.08883,0.0626 0.09413,0.0815 0.03058,0.10881 -0.04711,0.0203 -0.05414,0.0198 -0.161672,-0.0114 z"
         id="path3014"
         inkscape:connector-curvature="0" />
      <path
         style="fill:#ffffff;fill-opacity:1;stroke-width:0.2;stroke-miterlimit:10;stroke-dasharray:none"
         d="m 44.501341,575.80627 c -0.02029,-0.0102 -0.06738,-0.0428 -0.104639,-0.0724 -0.114349,-0.0911 -0.188238,-0.13307 -0.293539,-0.16674 -0.104536,-0.0334 -0.13949,-0.039 -0.244615,-0.0389 -0.08449,4e-5 -0.116189,0.004 -0.188165,0.0206 -0.183817,0.0437 -0.188166,0.0421 -0.188166,-0.0699 0,-0.081 0.0093,-0.10275 0.0406,-0.095 0.04069,0.01 0.289733,0.0212 0.379066,0.017 0.22318,-0.0105 0.347893,-0.0618 0.536218,-0.22043 0.100088,-0.0843 0.164671,-0.1306 0.182263,-0.1306 0.02581,0 0.279013,0.26598 0.304914,0.32029 0.01154,0.0242 0.01149,0.0278 -6.44e-4,0.0532 -0.03631,0.0761 -0.287919,0.34848 -0.35555,0.38483 l -0.03084,0.0166 -0.0369,-0.0185 0,0 z"
         id="path3016"
         inkscape:connector-curvature="0" />
      <path
         style="fill:#ffffff;fill-opacity:1;stroke-width:0.2;stroke-miterlimit:10;stroke-dasharray:none"
         d="m 43.748399,577.04503 c -0.02125,-0.008 -0.07592,-0.0332 -0.121489,-0.0566 -0.19231,-0.0984 -0.249079,-0.15782 -0.19053,-0.19951 0.01205,-0.009 0.05344,-0.0278 0.09198,-0.0427 0.23105,-0.0892 0.441275,-0.24535 0.581068,-0.43154 0.06501,-0.0866 0.09326,-0.14894 0.114426,-0.2526 0.01818,-0.0891 0.02707,-0.19331 0.01731,-0.20315 -0.0075,-0.008 -0.03223,0.008 -0.115426,0.0711 -0.101731,0.0774 -0.107902,0.0796 -0.225798,0.0785 -0.121487,-10e-4 -0.199066,-0.0127 -0.250072,-0.0374 -0.06905,-0.0335 -0.175183,-0.16674 -0.175183,-0.21996 0,-0.0861 0.166124,-0.15193 0.383571,-0.15193 0.13751,0 0.260017,0.0347 0.364772,0.10317 0.09852,0.0644 0.24271,0.22949 0.267705,0.30643 0.01546,0.0476 0.0057,0.21731 -0.01766,0.3073 -0.07416,0.28554 -0.311431,0.58313 -0.568127,0.71255 -0.06013,0.0303 -0.105452,0.035 -0.156553,0.0163 l 0,0 z m 0.200755,-1.29709 c 0.06872,-0.0346 0.03961,-0.0736 -0.05931,-0.0793 -0.06724,-0.004 -0.114085,0.0104 -0.114085,0.0347 0,0.02 0.01487,0.0306 0.06565,0.0468 0.05685,0.0182 0.06775,0.0179 0.107747,-0.002 z"
         id="path3018"
         inkscape:connector-curvature="0" />
      <path
         style="fill:#ffffff;fill-opacity:1;stroke-width:0.2;stroke-miterlimit:10;stroke-dasharray:none"
         d="m 43.422899,576.65267 c -0.03534,-0.0581 -0.02358,-0.12207 0.03102,-0.16881 0.01658,-0.0142 0.08062,-0.0519 0.142308,-0.0838 0.108021,-0.0559 0.149422,-0.0837 0.149422,-0.10043 0,-0.0145 -0.04061,-0.008 -0.161068,0.0261 -0.06582,0.0186 -0.12385,0.0338 -0.128957,0.0338 -0.0051,0 -0.01133,-0.008 -0.01382,-0.0169 -0.0055,-0.0204 -0.0045,-0.17922 0.0019,-0.30081 l 0.0046,-0.0882 0.07527,0.0644 c 0.08925,0.0764 0.151627,0.11492 0.250099,0.15439 0.07461,0.0299 0.107416,0.0525 0.107416,0.074 0,0.018 0.01538,0.0303 0.03797,0.0303 0.01095,0 0.02619,0.007 0.03387,0.0154 0.0136,0.015 0.0136,0.0161 -1.67e-4,0.0417 -0.01851,0.0344 -0.110883,0.12199 -0.195867,0.18579 -0.07216,0.0542 -0.2473,0.14621 -0.292063,0.15347 -0.0244,0.004 -0.02834,0.002 -0.04198,-0.0204 z"
         id="path3020"
         inkscape:connector-curvature="0" />
      <path
         style="fill:#ffffff;fill-opacity:1;stroke-width:0.2;stroke-miterlimit:10;stroke-dasharray:none"
         d="m 43.358664,578.38517 c -0.02094,-0.0339 -0.02425,-0.37758 -0.0045,-0.4658 0.01111,-0.0496 0.02256,-0.0506 0.06431,-0.006 0.07989,0.0858 0.10634,0.20368 0.06948,0.30967 -0.0329,0.0946 -0.110705,0.19201 -0.129312,0.16191 z"
         id="path3022"
         inkscape:connector-curvature="0" />
      <path
         style="fill:#ffffff;fill-opacity:1;stroke-width:0.2;stroke-miterlimit:10;stroke-dasharray:none"
         d="m 43.036787,578.54408 c -0.09014,-0.0462 -0.0956,-0.0676 -0.112072,-0.43843 -0.01098,-0.24725 -0.0075,-0.4592 0.0078,-0.47761 0.02299,-0.0277 0.111536,0.003 0.199747,0.0695 0.06523,0.0491 0.06586,0.0518 0.06099,0.26886 -0.0047,0.2094 -0.0217,0.46724 -0.03499,0.53063 -0.01766,0.0842 -0.03545,0.0911 -0.121443,0.047 l 0,0 z"
         id="path3024"
         inkscape:connector-curvature="0" />
      <path
         style="fill:#ffffff;fill-opacity:1;stroke-width:0.2;stroke-miterlimit:10;stroke-dasharray:none"
         d="m 42.759858,578.33375 c -0.02184,-0.0278 -0.06389,-0.11789 -0.08669,-0.1858 -0.03183,-0.0948 -0.02011,-0.20785 0.0325,-0.3134 0.02519,-0.0506 0.06795,-0.0795 0.08794,-0.0594 0.02122,0.0212 0.02764,0.10501 0.02432,0.31762 -0.004,0.25376 -0.0143,0.29669 -0.05808,0.24103 z"
         id="path3026"
         inkscape:connector-curvature="0" />
      <path
         style="fill:#ffffff;fill-opacity:1;stroke-width:0.2;stroke-miterlimit:10;stroke-dasharray:none"
         d="m 43.507399,580.59699 c -0.03667,-0.0148 -0.150952,-0.0944 -0.192723,-0.13422 -0.0526,-0.0502 -0.06578,-0.0728 -0.06578,-0.1128 0,-0.0258 0.0064,-0.0367 0.05113,-0.0867 0.10724,-0.12009 0.175501,-0.30738 0.159635,-0.43798 -0.0066,-0.0541 -0.0263,-0.12463 -0.04513,-0.16137 -0.04418,-0.0862 -0.299541,-0.27654 -0.692497,-0.51626 -0.09314,-0.0568 -0.193058,-0.12033 -0.222035,-0.14114 -0.213048,-0.153 -0.374193,-0.34212 -0.47258,-0.55461 -0.07193,-0.15535 -0.08237,-0.20776 -0.08248,-0.41397 -1.43e-4,-0.26172 0.03783,-0.40886 0.145004,-0.56185 0.03133,-0.0447 0.186,-0.22844 0.192325,-0.22844 0.0064,0 0.171684,0.0842 0.232783,0.11858 0.107085,0.0602 0.147416,0.10373 0.136498,0.14723 -0.0024,0.01 -0.02559,0.0445 -0.05143,0.0773 -0.124821,0.15826 -0.153976,0.30635 -0.09987,0.50728 0.01989,0.0739 0.06474,0.19299 0.08507,0.22591 0.05746,0.0931 0.192137,0.19166 0.509242,0.3727 0.226853,0.12951 0.643543,0.41407 0.710387,0.48513 0.04951,0.0526 0.106762,0.14301 0.166659,0.26307 0.08128,0.16292 0.0922,0.21523 0.08153,0.39087 -0.01875,0.30866 -0.125472,0.53652 -0.319802,0.68278 -0.104039,0.0783 -0.16981,0.10116 -0.225926,0.0785 z"
         id="path3028"
         inkscape:connector-curvature="0" />
      <path
         style="fill:#ffffff;fill-opacity:1;stroke-width:0.2;stroke-miterlimit:10;stroke-dasharray:none"
         d="m 43.579441,578.8482 c -0.130872,-0.0538 -0.254236,-0.14503 -0.267457,-0.19771 -0.0077,-0.0306 0.02509,-0.0797 0.111151,-0.16662 l 0.08016,-0.0809 0.317329,0.002 0.317329,0.002 -0.02419,0.0431 c -0.0867,0.15452 -0.217283,0.28356 -0.384497,0.37994 -0.07072,0.0408 -0.08929,0.043 -0.149823,0.0181 z"
         id="path3030"
         inkscape:connector-curvature="0" />
      <path
         style="fill:#ffffff;fill-opacity:1;stroke-width:0.2;stroke-miterlimit:10;stroke-dasharray:none"
         d="m 43.252111,580.12032 c -0.0097,-0.0254 0.0016,-0.18737 0.01547,-0.22145 0.01499,-0.0368 0.02379,-0.04 0.03418,-0.0127 0.01935,0.0509 0.0013,0.18716 -0.03031,0.22909 -0.01287,0.0171 -0.01456,0.0175 -0.01934,0.005 z"
         id="path3032"
         inkscape:connector-curvature="0" />
      <path
         style="fill:#ffffff;fill-opacity:1;stroke-width:0.2;stroke-miterlimit:10;stroke-dasharray:none"
         d="m 43.04191,580.29918 c -0.01242,-0.006 -0.03709,-0.0258 -0.05481,-0.0432 -0.05431,-0.053 -0.05591,-0.0639 -0.05996,-0.40608 -0.0019,-0.16455 -0.0014,-0.29918 0.0012,-0.29918 0.01321,0 0.112425,0.0555 0.135576,0.0758 0.03489,0.0306 0.04218,0.0585 0.04713,0.18011 0.0048,0.11743 -0.009,0.42248 -0.02122,0.47118 -0.0091,0.0363 -0.01444,0.0387 -0.04795,0.0213 z"
         id="path3034"
         inkscape:connector-curvature="0" />
      <path
         style="fill:#ffffff;fill-opacity:1;stroke-width:0.2;stroke-miterlimit:10;stroke-dasharray:none"
         d="m 42.788473,579.99391 c -0.01369,-0.0455 -0.01286,-0.15494 0.0014,-0.18292 0.02396,-0.0471 0.0526,-0.0253 0.0526,0.04 0,0.043 -0.02526,0.15669 -0.0376,0.1693 -0.0036,0.004 -0.01079,-0.008 -0.01638,-0.0263 z"
         id="path3036"
         inkscape:connector-curvature="0" />
      <path
         style="fill:#ffffff;fill-opacity:1;stroke-width:0.2;stroke-miterlimit:10;stroke-dasharray:none"
         d="m 43.230098,581.91941 c -0.03286,-0.0329 -0.04219,-0.0671 -0.04662,-0.17087 -0.0045,-0.10564 0.008,-0.17259 0.04801,-0.25794 0.02401,-0.0512 0.02796,-0.067 0.0274,-0.10978 -0.0021,-0.1643 -0.157574,-0.32466 -0.499328,-0.51517 -0.161533,-0.09 -0.312483,-0.21053 -0.445995,-0.35596 -0.102705,-0.11187 -0.146962,-0.18246 -0.190384,-0.30366 -0.06139,-0.17133 -0.08225,-0.29165 -0.07627,-0.43991 0.0063,-0.15548 0.03731,-0.26002 0.123154,-0.41481 0.0952,-0.17166 0.126847,-0.19101 0.227983,-0.13942 0.07217,0.0368 0.278774,0.17517 0.305101,0.20431 0.03406,0.0377 0.03272,0.0528 -0.01074,0.12162 -0.0432,0.0684 -0.06553,0.12145 -0.079,0.18762 -0.02311,0.11355 -0.01025,0.23187 0.03489,0.32115 0.05374,0.10629 0.235155,0.26794 0.498987,0.44462 0.186494,0.1249 0.251109,0.17496 0.343451,0.26608 0.121636,0.12004 0.206881,0.26694 0.235448,0.40573 0.02401,0.11664 0.01198,0.26917 -0.03002,0.38075 -0.05444,0.14464 -0.196961,0.30757 -0.330463,0.3778 -0.06072,0.0319 -0.102166,0.0313 -0.135604,-0.002 l 0,0 z"
         id="path3038"
         inkscape:connector-curvature="0" />
      <path
         style="fill:#ffffff;fill-opacity:1;stroke-width:0.2;stroke-miterlimit:10;stroke-dasharray:none"
         d="m 42.979837,581.73526 c -0.01264,-0.0118 -0.02676,-0.0348 -0.03138,-0.0511 -0.01523,-0.0538 -0.02502,-0.18613 -0.02111,-0.28558 0.0055,-0.13935 0.01928,-0.16418 0.06556,-0.1179 0.03779,0.0378 0.04716,0.0853 0.05073,0.25715 0.0043,0.20695 -0.0091,0.24853 -0.0638,0.19747 z"
         id="path3040"
         inkscape:connector-curvature="0" />
      <path
         style="fill:#ffffff;fill-opacity:1;stroke-width:0.2;stroke-miterlimit:10;stroke-dasharray:none"
         d="m 42.818926,581.44183 c -0.01552,-0.0396 -0.01648,-0.0763 -0.0029,-0.11172 0.0082,-0.0216 0.01581,-0.0318 0.02025,-0.0273 0.01769,0.0177 0.01595,0.15977 -0.0019,0.15977 -0.004,0 -0.0109,-0.009 -0.01535,-0.0207 z"
         id="path3042"
         inkscape:connector-curvature="0" />
      <path
         style="fill:#ffffff;fill-opacity:1;stroke-width:0.2;stroke-miterlimit:10;stroke-dasharray:none"
         d="m 43.309105,583.0426 c 0,-0.004 0.0082,-0.0408 0.0183,-0.0809 0.01006,-0.0401 0.02231,-0.10082 0.02721,-0.135 0.01213,-0.0845 0.0058,-0.25017 -0.01144,-0.29751 -0.03249,-0.0894 -0.150241,-0.22978 -0.248926,-0.29667 -0.02503,-0.017 -0.09785,-0.0562 -0.161822,-0.0872 -0.187192,-0.0907 -0.327782,-0.18999 -0.451254,-0.31873 -0.120389,-0.12553 -0.182491,-0.22723 -0.208674,-0.34174 -0.01987,-0.0869 -0.01731,-0.27667 0.0049,-0.36101 0.03016,-0.11464 0.07632,-0.18064 0.12632,-0.18064 0.02842,0 0.128325,0.0485 0.229684,0.1116 l 0.08071,0.0502 -0.0054,0.079 c -0.003,0.0435 -0.0054,0.12644 -0.0054,0.1844 0,0.0932 0.0019,0.10959 0.01682,0.14182 0.0561,0.12158 0.165677,0.23947 0.385855,0.41516 0.259657,0.20719 0.347572,0.2992 0.409912,0.429 0.04046,0.0842 0.04921,0.12069 0.04921,0.20483 0,0.14197 -0.07992,0.31916 -0.20213,0.44811 -0.04021,0.0424 -0.05378,0.0513 -0.05378,0.0352 z"
         id="path3044"
         inkscape:connector-curvature="0" />
      <path
         style="fill:#ffffff;fill-opacity:1;stroke-width:0.2;stroke-miterlimit:10;stroke-dasharray:none"
         d="m 42.513405,582.93246 c -0.04841,-0.0724 -0.07305,-0.12586 -0.09192,-0.19967 -0.03068,-0.11994 -0.03893,-0.33937 -0.0148,-0.39341 0.02682,-0.0601 0.102193,-0.14211 0.139061,-0.15136 0.04982,-0.0125 0.142217,0.0222 0.160239,0.0602 0.01521,0.032 0.0018,0.0663 -0.05119,0.13095 -0.104786,0.12775 -0.12837,0.23771 -0.105271,0.49084 0.01182,0.12954 0.01039,0.132 -0.03612,0.0625 z"
         id="path3046"
         inkscape:connector-curvature="0" />
      <path
         style="fill:#ffffff;fill-opacity:1;stroke-width:0.2;stroke-miterlimit:10;stroke-dasharray:none"
         d="m 42.761195,583.04494 c -0.05906,-0.1233 -0.07253,-0.18012 -0.07266,-0.30665 -1.24e-4,-0.11713 0.0088,-0.15169 0.05778,-0.22345 0.03736,-0.0548 0.05414,-0.0544 0.07291,10e-4 0.03193,0.095 0.01908,0.57116 -0.01637,0.60661 -0.0016,0.002 -0.02035,-0.0335 -0.04165,-0.0779 z"
         id="path3048"
         inkscape:connector-curvature="0" />
      <path
         style="fill:#ffffff;fill-opacity:1;stroke-width:0.2;stroke-miterlimit:10;stroke-dasharray:none"
         d="m 42.95364,583.80707 c -0.0087,-0.0251 -0.01995,-0.30605 -0.02493,-0.62471 -0.0044,-0.28311 0.0045,-0.69675 0.01638,-0.75591 0.0047,-0.0234 0.0057,-0.0243 0.01127,-0.009 0.01694,0.0458 0.02308,0.30712 0.01865,0.79355 -0.0044,0.48493 -0.0096,0.63006 -0.02136,0.59639 z"
         id="path3050"
         inkscape:connector-curvature="0" />
      <path
         style="fill:#ffffff;fill-opacity:1;stroke-width:0.2;stroke-miterlimit:10;stroke-dasharray:none"
         d="m 43.120609,583.06859 c -0.01385,-0.0364 -0.01668,-0.14868 -0.0075,-0.29603 0.01228,-0.19646 0.02311,-0.2255 0.07022,-0.18844 0.0283,0.0223 0.04289,0.0782 0.04807,0.18427 0.0075,0.15352 -0.01632,0.26788 -0.0635,0.305 -0.02548,0.02 -0.03838,0.0187 -0.04733,-0.005 z"
         id="path3052"
         inkscape:connector-curvature="0" />
      <path
         style="fill:#ffffff;fill-opacity:1;stroke:#000000;stroke-width:0.0078125;stroke-miterlimit:10;stroke-opacity:1;stroke-dasharray:none"
         d="M 8.3071252,15.224894 C 8.1341602,15.211914 7.7966796,15.168582 7.5961877,15.13361 6.5717579,14.954918 5.5510033,14.504806 4.7133752,13.862407 4.3200168,13.560729 3.8929775,13.142771 3.5796944,12.752834 3.3253818,12.436297 3.0430582,11.993756 2.8455451,11.602061 2.0085902,9.9422631 1.946885,7.9746434 2.6777422,6.2512545 3.2917422,4.8034192 4.47397,3.575444 5.9026525,2.9015532 7.319321,2.2333294 8.9003621,2.076606 10.416945,2.4540664 c 1.893582,0.471291 3.487699,1.7528062 4.334714,3.4846881 0.304452,0.6225103 0.498524,1.256462 0.593128,1.9375 0.09004,0.6481917 0.06988,1.4243802 -0.05378,2.0705956 -0.433338,2.2644869 -2.077918,4.1486389 -4.29409,4.9196249 -0.633526,0.220398 -1.274525,0.341929 -1.9211806,0.364248 l -0.2860772,0.0099 0.00866,-0.03764 c 0.00477,-0.0207 0.023309,-0.121356 0.04121,-0.223676 0.026118,-0.149294 0.041114,-0.197127 0.075925,-0.242188 0.071936,-0.09312 0.097954,-0.203395 0.1190289,-0.504512 l 0.010603,-0.151486 0.07078,-0.02412 c 0.174005,-0.05929 0.3435939,-0.218364 0.4311072,-0.404379 0.077685,-0.165125 0.096168,-0.257928 0.095491,-0.479469 -5.375e-4,-0.175943 -0.0048,-0.205507 -0.042969,-0.298101 -0.023305,-0.05653 -0.042372,-0.107138 -0.042372,-0.112454 0,-0.0053 0.03427,-0.05494 0.076156,-0.110282 0.1394845,-0.184285 0.215153,-0.382664 0.2311002,-0.605873 0.012143,-0.169961 -0.012476,-0.309875 -0.084565,-0.48061 l -0.05521,-0.130756 0.1010958,-0.09581 C 10.025078,11.150322 10.102521,11.0204 10.143531,10.80606 c 0.02661,-0.13909 0.03097,-0.538886 0.0073,-0.665935 -0.01964,-0.105253 -0.09051,-0.251914 -0.1621586,-0.3356188 l -0.054748,-0.063955 0.078698,-0.07667 C 10.156566,9.5236455 10.268092,9.3349605 10.32264,9.1393773 10.39072,8.8952566 10.39208,8.5012774 10.32554,8.2875635 10.293505,8.1846676 10.213587,8.03536 10.13273,7.9273565 l -0.04948,-0.066085 0.0934,-0.1057896 c 0.264985,-0.3001332 0.368407,-0.5194649 0.391323,-0.829888 l 0.0096,-0.1303483 0.144138,-0.1430892 c 0.08822,-0.087583 0.160121,-0.1749105 0.185341,-0.2251206 0.02266,-0.045117 0.04536,-0.082031 0.05045,-0.082031 0.0051,0 0.175474,-0.010707 0.378643,-0.023794 0.412333,-0.02656 0.601596,-0.053607 0.733441,-0.1048158 0.06862,-0.026652 0.116004,-0.033743 0.206271,-0.030868 0.145458,0.00463 0.238326,-0.01412 0.415896,-0.083983 0.07634,-0.030033 0.191526,-0.061697 0.255979,-0.070364 0.148588,-0.019981 0.286755,-0.064887 0.368678,-0.1198248 0.182826,-0.122604 0.375999,-0.352401 0.41359,-0.4920038 0.01038,-0.03855 0.01332,-0.1047508 0.0072,-0.1619839 -0.0099,-0.092475 -0.0139,-0.099772 -0.08967,-0.1636572 l -0.0793,-0.066867 -0.173527,-0.00674 C 13.230975,5.0137522 13.214382,5.0099697 13.100521,4.9530464 12.79394,4.7997753 12.314699,4.4805851 11.724242,4.0364003 11.323534,3.7349584 11.003114,3.5391228 10.821143,3.4844414 c -0.3055,-0.091802 -0.600451,-0.117463 -0.798706,-0.06949 -0.1657443,0.040106 -0.2961638,0.1106712 -0.4321523,0.2338204 -0.039962,0.036189 -0.05473,0.042382 -0.060816,0.025504 C 9.5147435,3.6334382 9.3994352,3.5192132 9.3241991,3.4709342 9.1851649,3.3817162 9.0857607,3.3570284 8.9008752,3.365798 8.7706136,3.3719767 8.7160518,3.3821899 8.6360438,3.4153707 8.5191869,3.4638334 8.4304866,3.5223991 8.3556122,3.60053 L 8.3025362,3.655914 8.2227992,3.586129 C 8.1113963,3.4886305 7.9290797,3.3980229 7.7659177,3.3590682 7.5847913,3.3158246 7.2582822,3.3225986 7.0638516,3.3736339 6.8219497,3.4371297 6.7626627,3.4704984 5.9711143,3.9886603 5.3655314,4.3850858 5.12864,4.5268383 4.8227502,4.6758248 c -0.2760291,0.1344425 -0.355428,0.161561 -0.684802,0.233891 -0.1604683,0.035238 -0.2984963,0.070307 -0.3067288,0.077929 -0.00921,0.00853 0.016995,0.046224 0.068182,0.098055 0.076527,0.077489 0.08052,0.085031 0.050124,0.094678 -0.018164,0.00577 -0.033026,0.01606 -0.033026,0.022877 0,0.00682 0.043945,0.035787 0.097656,0.064376 0.053711,0.02859 0.1473483,0.095277 0.2080832,0.148193 0.1944114,0.1693854 0.4144615,0.2762203 0.6220109,0.3019876 0.094309,0.011709 0.1445459,0.029144 0.2506958,0.087006 0.1621428,0.088384 0.2305898,0.113387 0.3918664,0.1431445 0.06875,0.012685 0.1777344,0.043426 0.2421875,0.068314 0.1684378,0.065039 0.2272442,0.077912 0.4250566,0.093048 0.1285781,0.00984 0.2062053,0.024813 0.2858809,0.055147 0.1265828,0.048194 0.2721864,0.066079 0.3538636,0.043466 0.056621,-0.015676 0.057175,-0.015362 0.085937,0.048561 0.044595,0.099111 0.1350353,0.2323052 0.1984016,0.2921922 0.053815,0.05086 0.056323,0.057421 0.041565,0.1087113 -0.026299,0.091402 -0.018354,0.3240795 0.015953,0.467189 0.056513,0.2357385 0.1946386,0.4878386 0.3576939,0.6528436 l 0.079912,0.080867 -0.047953,0.071052 c -0.067368,0.09982 -0.1489937,0.2833709 -0.1695497,0.3812637 -0.02696,0.1283919 -0.022143,0.7386224 0.00681,0.8625122 0.0281,0.1202445 0.1228236,0.3181056 0.2172393,0.4537753 l 0.067684,0.097258 -0.05264,0.068963 C 7.5157413,9.8967692 7.4317533,10.05442 7.398176,10.162305 c -0.024522,0.07879 -0.029982,0.1445 -0.030196,0.363367 -3.907e-4,0.401153 0.035016,0.517226 0.2468471,0.809216 0.064786,0.0893 0.1116725,0.168791 0.1073469,0.181992 -0.00422,0.01289 -0.025135,0.07279 -0.046469,0.133114 -0.1050587,0.297061 -0.038892,0.751921 0.1471766,1.011763 l 0.061961,0.08653 -0.042393,0.09133 c -0.040525,0.08731 -0.042395,0.102341 -0.042448,0.341328 -4.69e-5,0.214827 0.00483,0.265573 0.034672,0.360687 0.063295,0.201739 0.2018694,0.371603 0.3904181,0.478571 0.07812,0.04432 0.082054,0.04963 0.08251,0.111452 2.625e-4,0.0357 0.00667,0.150111 0.014245,0.254239 0.015154,0.208411 0.040858,0.28184 0.1333623,0.380989 0.028063,0.03008 0.055043,0.07578 0.059956,0.101562 0.00491,0.02578 0.026096,0.118945 0.047072,0.207031 L 8.6003783,15.23563 8.488908,15.2329 C 8.427599,15.2314 8.3457971,15.2278 8.3071252,15.2249 z"
         id="path3019"
         inkscape:connector-curvature="0"
         transform="translate(34.28125,569.375)" />
      <path
         style="fill:#ffffff;fill-opacity:1;stroke:#000000;stroke-width:0.0078125;stroke-miterlimit:10;stroke-opacity:1;stroke-dasharray:none"
         d="M 8.0258752,5.8155398 C 7.8969754,5.7738654 7.8204735,5.7299025 7.724976,5.6426231 7.632491,5.558097 7.5824324,5.4698139 7.5553286,5.343434 7.5396449,5.2703031 7.5410469,5.2615636 7.574108,5.2263718 7.5980718,5.2008634 7.6046599,5.1831642 7.5941157,5.17262 7.5854693,5.1639736 7.5126111,5.1462595 7.4322088,5.1332554 7.2435933,5.1027491 7.1135677,5.0408547 6.996496,4.9258485 6.8697579,4.8013465 6.8105311,4.6743506 6.7829035,4.4678567 6.7709888,4.3788036 6.7610175,4.3006686 6.7607452,4.2942233 6.7604733,4.2877779 6.7444299,4.2828301 6.7250939,4.283228 6.7036555,4.2836693 6.6718179,4.306859 6.6435,4.3426591 6.4624985,4.5714849 5.4149141,5.2114826 5.0893186,5.2921506 4.938243,5.3295803 4.701599,5.3160506 4.5883752,5.2635098 l -0.085937,-0.039879 0.060783,-0.026375 c 0.03343,-0.014506 0.2021804,-0.095434 0.375,-0.1798386 C 5.3063258,4.8376351 5.6023208,4.6619322 6.2133133,4.2605211 6.6827625,3.9521014 7.0482082,3.7532679 7.2211877,3.7121516 c 0.195442,-0.046456 0.4723997,-0.019173 0.6367398,0.062723 0.087264,0.043487 0.2207675,0.1648143 0.2878957,0.2616386 0.037997,0.054805 0.040156,0.067319 0.032579,0.1887799 C 8.1678042,4.3951682 8.1305382,4.4767955 7.99511,4.6267802 7.935678,4.6926012 7.8824617,4.7647387 7.8768526,4.7870868 c -0.018373,0.073205 0.02238,0.1485995 0.1544307,0.2857005 l 0.1274048,0.1322771 0.1835616,-0.018604 c 0.1009589,-0.010232 0.1870932,-0.015072 0.1914098,-0.010756 0.00432,0.00432 0.00206,0.1313969 -0.00501,0.2824008 -0.00967,0.2064501 -0.01895,0.2838503 -0.037419,0.3120367 -0.048037,0.073314 -0.30229,0.098117 -0.4653553,0.045397 l 0,0 z"
         id="path3021"
         inkscape:connector-curvature="0"
         transform="translate(34.28125,569.375)" />
      <path
         style="fill:#ffffff;fill-opacity:1;stroke:#000000;stroke-width:0.0078125;stroke-miterlimit:10;stroke-opacity:1;stroke-dasharray:none"
         d="m 9.3188439,5.802707 -0.089844,-0.023571 0,-0.3048248 0,-0.3048249 0.042969,0.0097 C 9.48107,5.2263679 9.6422246,5.2002176 9.7591575,5.1001274 9.8232299,5.0452838 9.9478151,4.8900385 9.9476856,4.8652029 9.9476501,4.8583907 9.9017796,4.8000826 9.8457511,4.7356295 9.7272136,4.5992682 9.6715227,4.4953054 9.6516691,4.3733201 9.6217854,4.1897072 9.6731514,4.0394402 9.8139187,3.898673 9.9441543,3.7684374 9.9989876,3.7474903 10.232239,3.7388688 c 0.181734,-0.00672 0.209525,-0.0039 0.328125,0.033221 0.258292,0.080852 0.45416,0.20015 1.107862,0.6747669 0.654154,0.4749449 1.053756,0.7241732 1.37894,0.8600333 0.09571,0.039988 0.190506,0.083098 0.210654,0.0958 l 0.03663,0.023094 -0.0353,0.037575 C 13.122429,5.6088954 12.774962,5.5898487 12.393244,5.4158942 12.245648,5.3486326 12.145499,5.2837192 11.861813,5.0714369 11.507491,4.8062986 11.371526,4.6807852 11.257416,4.5134999 c -0.134408,-0.1970402 -0.14737,-0.1964982 -0.156443,0.00654 -0.0063,0.1403237 -0.01358,0.1742788 -0.05715,0.2655055 -0.05927,0.1240863 -0.196502,0.268556 -0.307638,0.3238612 -0.06409,0.031893 -0.112994,0.040241 -0.311141,0.05311 -0.129306,0.0084 -0.237421,0.017127 -0.240256,0.019397 -0.0028,0.00227 0.0069,0.022453 0.02153,0.044849 0.08015,0.1223262 -0.119369,0.4312456 -0.3453431,0.5347001 -0.1531435,0.070111 -0.3693822,0.086562 -0.542123,0.041243 l 0,0 z"
         id="path3023"
         inkscape:connector-curvature="0"
         transform="translate(34.28125,569.375)" />
      <path
         style="fill:#ffffff;fill-opacity:1;stroke:#000000;stroke-width:0.0078125;stroke-miterlimit:10;stroke-opacity:1;stroke-dasharray:none"
         d="M 10.093014,6.3310307 C 9.8454046,6.162873 9.6395841,6.1131573 9.4008752,6.1638451 c -0.1867176,0.039648 -0.1875,0.039407 -0.1875,-0.057841 l 0,-0.08275 0.2695312,7.191e-4 c 0.3703556,9.879e-4 0.4247758,-0.016957 0.7089106,-0.2337575 0.07314,-0.055804 0.138714,-0.1014611 0.145731,-0.1014611 0.02524,0 0.297702,0.298703 0.297702,0.326372 0,0.015573 -0.02213,0.059252 -0.04918,0.097065 -0.05409,0.075616 -0.301259,0.3265631 -0.321641,0.3265631 -0.007,0 -0.08417,-0.048476 -0.171412,-0.1077238 z"
         id="path3025"
         inkscape:connector-curvature="0"
         transform="translate(34.28125,569.375)" />
      <path
         style="fill:#ffffff;fill-opacity:1;stroke:#000000;stroke-width:0.0078125;stroke-miterlimit:10;stroke-opacity:1;stroke-dasharray:none"
         d="m 10.975839,5.9242107 c -0.049,-0.015668 -0.120855,-0.047099 -0.159668,-0.069845 -0.151785,-0.088952 -0.347175,-0.3075483 -0.373959,-0.4183751 -0.02289,-0.094698 0.159868,-0.1474838 0.247393,-0.071455 0.02226,0.019336 0.09824,0.1122008 0.16884,0.2063664 0.07275,0.097033 0.168985,0.2038859 0.222118,0.2466297 0.102644,0.082575 0.116174,0.1023684 0.08394,0.1227904 -0.03224,0.020424 -0.08975,0.015513 -0.188659,-0.016112 l 0,0 z"
         id="path3027"
         inkscape:connector-curvature="0"
         transform="translate(34.28125,569.375)" />
      <path
         style="fill:#ffffff;fill-opacity:1;stroke:#000000;stroke-width:0.0078125;stroke-miterlimit:10;stroke-opacity:1;stroke-dasharray:none"
         d="M 11.69775,5.8597596 C 11.457889,5.8307895 11.283295,5.7366252 11.039791,5.5048991 10.888596,5.361018 10.864343,5.3158794 10.910705,5.2646502 c 0.04293,-0.047441 0.113829,-0.079733 0.152009,-0.069237 0.01841,0.00506 0.117849,0.086842 0.220974,0.1817349 0.103125,0.094893 0.280664,0.2361975 0.394531,0.3140098 0.196896,0.134551 0.23499,0.1694711 0.184872,0.1694711 -0.01219,0 -0.03152,0.00256 -0.04297,0.0057 -0.01145,0.00313 -0.06651,1.783e-4 -0.122372,-0.00657 z"
         id="path3029"
         inkscape:connector-curvature="0"
         transform="translate(34.28125,569.375)" />
      <path
         style="fill:#ffffff;fill-opacity:1;stroke:#000000;stroke-width:0.0078125;stroke-miterlimit:10;stroke-opacity:1;stroke-dasharray:none"
         d="M 12.13525,5.7300261 C 11.899775,5.6461089 11.668375,5.4986706 11.427387,5.279007 11.262283,5.1285122 11.19775,5.035176 11.19775,4.9468746 c 0,-0.035556 0.0098,-0.078018 0.02173,-0.094359 0.01896,-0.025923 0.02716,-0.027238 0.0643,-0.010313 0.02342,0.010669 0.131413,0.091709 0.239993,0.1800884 0.366986,0.2987111 0.76465,0.5821614 0.889001,0.6336694 0.0592,0.02452 0.06435,0.052642 0.01588,0.086596 -0.05007,0.035072 -0.174768,0.029747 -0.293399,-0.01253 z"
         id="path3031"
         inkscape:connector-curvature="0"
         transform="translate(34.28125,569.375)" />
      <path
         style="fill:#ffffff;fill-opacity:1;stroke:#000000;stroke-width:0.0078125;stroke-miterlimit:10;stroke-opacity:1;stroke-dasharray:none"
         d="M 7.4773796,6.299972 C 7.3748607,6.2342274 7.2425133,6.0850609 7.1815917,5.9665944 L 7.1276094,5.8616218 7.1556501,5.8095535 C 7.1710724,5.780916 7.2321576,5.7051068 7.291395,5.6410886 L 7.3990994,5.524692 7.4649941,5.602817 c 0.1040421,0.1233525 0.2751118,0.2834446 0.3494046,0.3269831 0.1050941,0.061589 0.2276398,0.086021 0.4877084,0.097235 l 0.2389892,0.010305 -0.00891,0.063989 c -0.014635,0.1050669 -0.00845,0.1020398 -0.1418218,0.06938 -0.07257,-0.017771 -0.1858329,-0.030952 -0.2785486,-0.032416 -0.1427751,-0.00225 -0.1667764,0.00183 -0.27831,0.047349 -0.067133,0.027399 -0.151508,0.069753 -0.1875,0.094119 -0.035992,0.024366 -0.073201,0.048793 -0.082686,0.054283 -0.00949,0.00549 -0.048157,-0.00984 -0.085937,-0.03407 z"
         id="path3033"
         inkscape:connector-curvature="0"
         transform="translate(34.28125,569.375)" />
      <path
         style="fill:#ffffff;fill-opacity:1;stroke:#000000;stroke-width:0.0078125;stroke-miterlimit:10;stroke-opacity:1;stroke-dasharray:none"
         d="m 6.5174384,5.7971194 c -0.00565,-0.00915 0.034168,-0.05661 0.088495,-0.1054688 0.054327,-0.048858 0.1891695,-0.1721662 0.2996503,-0.2740172 l 0.2008741,-0.1851836 0.072784,0.010915 c 0.085638,0.012842 0.1591333,0.047539 0.1591333,0.075127 0,0.047709 -0.094208,0.1554164 -0.234375,0.2679608 C 6.9691863,5.6946984 6.8957729,5.739537 6.7870078,5.7800615 6.6913352,5.8157079 6.5350392,5.825598 6.5174384,5.7971194 z"
         id="path3035"
         inkscape:connector-curvature="0"
         transform="translate(34.28125,569.375)" />
      <path
         style="fill:#ffffff;fill-opacity:1;stroke:#000000;stroke-width:0.0078125;stroke-miterlimit:10;stroke-opacity:1;stroke-dasharray:none"
         d="M 5.8631087,5.7070827 C 5.8358303,5.6954662 5.8379239,5.6907772 5.8865462,5.6545888 5.9159115,5.6327329 5.9750939,5.5948097 6.0180627,5.570315 6.1429014,5.4991497 6.3308203,5.3616079 6.5473713,5.1829028 6.6580222,5.09159 6.7554019,5.0168795 6.7637706,5.0168795 c 0.019442,0 0.2095211,0.1830874 0.1993831,0.1920488 -0.038815,0.03431 -0.333222,0.2442361 -0.4411615,0.3145694 -0.222246,0.1448151 -0.323217,0.1842657 -0.4883045,0.1907864 -0.077344,0.00305 -0.1541043,-1.857e-4 -0.170579,-0.0072 z"
         id="path3037"
         inkscape:connector-curvature="0"
         transform="translate(34.28125,569.375)" />
      <path
         style="fill:#ffffff;fill-opacity:1;stroke:#000000;stroke-width:0.0078125;stroke-miterlimit:10;stroke-opacity:1;stroke-dasharray:none"
         d="m 5.3808362,5.5310736 c -0.059133,-0.013924 -0.151836,-0.055857 -0.151836,-0.068681 0,-0.00374 0.029883,-0.014672 0.066406,-0.024283 0.1438772,-0.03786 0.4724935,-0.235046 0.9049145,-0.5429927 0.3037995,-0.2163495 0.358155,-0.2532375 0.3731516,-0.2532375 0.01427,0 0.1086527,0.2219606 0.1086527,0.2555192 0,0.028122 -0.2009692,0.1686532 -0.5390625,0.3769483 C 5.7328345,5.5270832 5.5810283,5.5782133 5.380836,5.5310735 z"
         id="path3039"
         inkscape:connector-curvature="0"
         transform="translate(34.28125,569.375)" />
      <path
         style="fill:#ffffff;fill-opacity:1;stroke:#000000;stroke-width:0.0078125;stroke-miterlimit:10;stroke-opacity:1;stroke-dasharray:none"
         d="M 9.2470561,9.4375026 C 9.1373888,9.3827012 9.0415002,9.2997945 9.0415002,9.2597759 c 0,-0.014768 0.043302,-0.071946 0.096227,-0.1270612 l 0.096227,-0.1002102 0.1420547,-0.00321 0.1420545,-0.00321 -0.1347691,-0.00518 -0.134769,-0.00518 0.054206,-0.1086658 C 9.3735713,8.7650428 9.3896911,8.5955028 9.344408,8.4687165 9.2837607,8.2989134 9.1730836,8.2212265 8.4790002,7.8612665 7.8829165,7.5521304 7.6933541,7.4157758 7.5642794,7.2032959 7.4816625,7.0672938 7.4595361,6.9930906 7.4574414,6.8450045 c -0.00166,-0.11702 0.0035,-0.1437632 0.04334,-0.2249063 0.1535321,-0.3126875 0.6013914,-0.4741847 0.9095164,-0.3279698 0.073899,0.035067 0.081031,0.0748 0.027357,0.1524019 -0.063629,0.091994 -0.2131173,0.1660992 -0.3350621,0.1660992 -0.10687,0 -0.1546104,-0.016065 -0.2335592,-0.078593 -0.1086761,-0.086074 -0.1356585,-0.05094 -0.1183952,0.1541622 0.028094,0.3337797 0.2552516,0.5192722 0.9471119,0.7733932 0.3681669,0.1352281 0.4459297,0.1689922 0.6594575,0.2863324 0.1180775,0.064887 0.2115419,0.1293255 0.2637273,0.1818246 0.1276244,0.1283917 0.2610424,0.3165615 0.2874132,0.4053617 0.045702,0.1538964 0.023799,0.5012461 -0.040508,0.6423842 -0.018203,0.039952 -0.023773,0.041496 -0.1608794,0.044598 l -0.1420231,0.00321 0.1367187,0.00521 c 0.075195,0.00286 0.1367188,0.00884 0.1367188,0.013269 0,0.023727 -0.1305539,0.1949863 -0.1913888,0.2510619 -0.078708,0.072551 -0.2211731,0.169233 -0.2706401,0.183667 -0.020275,0.00592 -0.068511,-0.00864 -0.1292902,-0.039009 l 0,0 z M 8.1547814,6.3666662 c 0.059921,-0.011881 0.058186,-0.062711 -0.0026,-0.076061 -0.06015,-0.013211 -0.1579265,0.00592 -0.1682917,0.032935 -0.00453,0.011805 -0.00389,0.03278 0.00141,0.04661 0.0097,0.025286 0.026069,0.02495 0.1694754,-0.00348 z"
         id="path3041"
         inkscape:connector-curvature="0"
         transform="translate(34.28125,569.375)" />
      <path
         style="fill:#ffffff;fill-opacity:1;stroke:#000000;stroke-width:0.0078125;stroke-miterlimit:10;stroke-opacity:1;stroke-dasharray:none"
         d="M 9.1417468,11.15581 C 9.0369594,11.083036 8.980385,11.022076 8.9795621,10.981053 c -3.09e-4,-0.01541 0.027323,-0.06495 0.061404,-0.110087 0.106206,-0.140669 0.1331787,-0.217081 0.1332614,-0.377524 5.47e-5,-0.105502 -0.00714,-0.155129 -0.028798,-0.198697 C 9.1000463,10.203456 8.8925097,10.045893 8.4511772,9.7676617 8.0744422,9.5301553 7.8861069,9.3404831 7.754661,9.0662015 7.677889,8.9060053 7.6583739,8.772087 7.6790428,8.5472898 7.7028271,8.288611 7.7578116,8.1636429 7.9355844,7.9642255 l 0.067833,-0.076092 0.1401353,0.070746 c 0.1471293,0.074277 0.2104479,0.1223414 0.2104479,0.1597501 0,0.012324 -0.032122,0.074458 -0.071382,0.1380755 -0.1004968,0.1628458 -0.1171632,0.2673632 -0.071386,0.4476742 0.070931,0.2793916 0.133062,0.3493541 0.5075183,0.5714923 0.3048697,0.1808574 0.706582,0.4544532 0.7905553,0.5384265 0.048013,0.048013 0.1033272,0.1321925 0.1584481,0.2411339 0.083187,0.16441 0.084779,0.170114 0.090067,0.322632 0.012076,0.348296 -0.1228999,0.640088 -0.3679877,0.795518 -0.040261,0.02553 -0.091753,0.04642 -0.1144269,0.04642 -0.022862,0 -0.082399,-0.0286 -0.1336596,-0.06419 z"
         id="path3043"
         inkscape:connector-curvature="0"
         transform="translate(34.28125,569.375)" />
      <path
         style="fill:#ffffff;fill-opacity:1;stroke:#000000;stroke-width:0.0078125;stroke-miterlimit:10;stroke-opacity:1;stroke-dasharray:none"
         d="M 9.3034158,9.4452894 C 9.2376688,9.4223356 9.1267052,9.3495633 9.0824096,9.3003486 c -0.034342,-0.038156 -0.027632,-0.052456 0.08353,-0.1780003 0.06006,-0.067831 0.07199,-0.074337 0.138607,-0.075588 0.04009,-7.531e-4 0.108047,-0.00631 0.1510158,-0.012347 l 0.078125,-0.010979 -0.1301252,-0.01227 C 9.313201,9.0026437 9.2759274,8.9932865 9.2815858,8.9805431 9.3633119,8.7964826 9.3749564,8.75382 9.3761544,8.634067 9.37722,8.5275583 9.3709946,8.4960087 9.3340714,8.4207933 9.2655608,8.2812314 9.1640929,8.2117976 8.5493127,7.8837894 8.1300925,7.6601197 7.8572449,7.4951194 7.749474,7.4000997 7.6583357,7.3197446 7.5381495,7.1484079 7.5009796,7.0458478 7.4862546,7.005218 7.4758362,6.9237115 7.475113,6.8434845 7.4736104,6.6767826 7.5082208,6.5953975 7.6343889,6.4689531 7.8277598,6.2751587 8.1563733,6.1987325 8.3768765,6.2962715 c 0.084491,0.037374 0.093392,0.052579 0.064026,0.1093679 -0.055712,0.1077345 -0.2109574,0.1893651 -0.3601359,0.1893651 -0.06314,0 -0.098537,-0.011062 -0.166657,-0.052082 C 7.7500559,6.4441351 7.7354297,6.4507695 7.7402192,6.6217988 7.7513605,7.0196382 7.9411933,7.1822755 8.7661921,7.5007906 9.444461,7.7626563 9.6608105,7.9132139 9.8558252,8.259067 l 0.052862,0.09375 -0.00126,0.234375 c -0.00102,0.1884533 -0.00714,0.251213 -0.03125,0.3203125 L 9.846188,8.993442 9.6977505,9.0082126 9.549313,9.0229833 9.6861799,9.0394626 9.8230466,9.055942 9.7548041,9.1418795 C 9.6542605,9.2684937 9.6223249,9.299347 9.5102505,9.3781459 9.3832341,9.4674503 9.374766,9.4701992 9.3034161,9.4452894 l -3e-7,0 z M 8.196408,6.3524763 c 0.037869,-0.036898 -0.00611,-0.069972 -0.093043,-0.069972 -0.041214,0 -0.086056,0.00427 -0.099649,0.00948 -0.029257,0.011227 -0.033782,0.094265 -0.00565,0.1036425 0.032176,0.010725 0.1749168,-0.020332 0.1983403,-0.043155 z"
         id="path3045"
         inkscape:connector-curvature="0"
         transform="translate(34.28125,569.375)" />
      <path
         style="fill:#ffffff;fill-opacity:1;stroke:#000000;stroke-width:0.0078125;stroke-miterlimit:10;stroke-opacity:1;stroke-dasharray:none"
         d="M 9.3580233,7.6061076 C 9.2130725,7.5320612 9.1225743,7.4608054 9.1450003,7.4383794 9.1530197,7.43036 9.2226613,7.3930361 9.2997594,7.3554375 9.4646182,7.2750405 9.5541622,7.2194312 9.6550731,7.1347779 9.7621592,7.0449443 9.8834568,6.8888074 9.9195527,6.7943341 c 0.031986,-0.083716 0.058513,-0.3243296 0.035756,-0.3243296 -0.00689,0 -0.049941,0.028245 -0.095664,0.062766 -0.1026047,0.077467 -0.1434562,0.093484 -0.2384309,0.093484 -0.1473762,0 -0.2520016,-0.031663 -0.315957,-0.095618 C 9.2241128,6.4494925 9.192081,6.384793 9.2133638,6.3450253 c 0.05996,-0.1120355 0.4307199,-0.1458904 0.6289664,-0.057432 0.098599,0.043995 0.2379498,0.1664347 0.3143048,0.2761616 0.04508,0.064783 0.04876,0.079659 0.04678,0.1891595 -0.0037,0.2077961 -0.08137,0.4003107 -0.2437379,0.6044843 C 9.8314148,7.5186936 9.6157707,7.6741236 9.5224884,7.6725139 9.5028668,7.6721753 9.4288575,7.6422924 9.3580233,7.6061076 z M 9.6879912,6.3686958 c 0.040571,-0.030723 0.022444,-0.064709 -0.040847,-0.076582 -0.076524,-0.014356 -0.1525194,0.004 -0.1525194,0.036831 0,0.05477 0.1364804,0.082827 0.193366,0.039751 z"
         id="path3047"
         inkscape:connector-curvature="0"
         transform="translate(34.28125,569.375)" />
      <path
         style="fill:#ffffff;fill-opacity:1;stroke:#000000;stroke-width:0.0078125;stroke-miterlimit:10;stroke-opacity:1;stroke-dasharray:none"
         d="m 9.1447344,7.2577891 c -0.032794,-0.08546 -0.00233,-0.1227906 0.1897345,-0.2325074 0.070899,-0.040501 0.1289063,-0.083569 0.1289063,-0.095707 0,-0.027735 2.929e-4,-0.027754 -0.140625,0.00918 -0.064453,0.016893 -0.1259766,0.030835 -0.1367188,0.030982 -0.014555,1.996e-4 -0.019531,-0.047503 -0.019531,-0.1872159 l 0,-0.1874837 0.090903,0.070593 c 0.049997,0.038826 0.1415443,0.094862 0.203439,0.124524 0.061895,0.029662 0.1168691,0.065224 0.1221654,0.079025 0.0053,0.013802 0.026249,0.031413 0.046561,0.039136 0.020312,0.00772 0.036931,0.021854 0.036931,0.031403 0,0.035395 -0.1802307,0.1889146 -0.310643,0.2646048 -0.1402634,0.081408 -0.1950743,0.095288 -0.2111228,0.053467 z"
         id="path3049"
         inkscape:connector-curvature="0"
         transform="translate(34.28125,569.375)" />
      <path
         style="fill:#ffffff;fill-opacity:1;stroke:#000000;stroke-width:0.0078125;stroke-miterlimit:10;stroke-opacity:1;stroke-dasharray:none"
         d="M 8.3019698,6.912703 8.1327519,6.8253467 8.2550948,6.7598506 c 0.067289,-0.036023 0.152086,-0.084334 0.1884386,-0.1073586 0.036353,-0.023024 0.069751,-0.041862 0.074219,-0.041862 0.011776,0 0.00825,0.2469466 -0.00455,0.3190292 -0.00598,0.033669 -0.017881,0.063283 -0.026443,0.065809 -0.00856,0.00253 -0.091717,-0.034718 -0.1847864,-0.082764 z"
         id="path3051"
         inkscape:connector-curvature="0"
         transform="translate(34.28125,569.375)" />
      <path
         style="fill:#ffffff;fill-opacity:1;stroke:#000000;stroke-width:0.0078125;stroke-miterlimit:10;stroke-opacity:1;stroke-dasharray:none"
         d="M 8.3618127,7.1749177 C 8.2679863,7.1298189 8.1267856,7.0188108 8.0676976,6.9436926 l -0.031428,-0.039954 0.037771,0.011372 c 0.1315999,0.039622 0.451834,0.2455802 0.451834,0.2905967 0,0.027313 -0.070844,0.014017 -0.1640625,-0.03079 l 0,0 z"
         id="path3053"
         inkscape:connector-curvature="0"
         transform="translate(34.28125,569.375)" />
      <path
         style="fill:#ffffff;fill-opacity:1;stroke:#000000;stroke-width:0.0078125;stroke-miterlimit:10;stroke-opacity:1;stroke-dasharray:none"
         d="m 8.9488843,12.522585 c -0.044814,-0.05697 -0.045397,-0.250711 -0.00113,-0.376648 0.084411,-0.240165 -0.00832,-0.38147 -0.415872,-0.63368 C 8.0772996,11.230938 7.8941105,11.021067 7.807487,10.682349 7.738301,10.411817 7.780377,10.159615 7.934859,9.9188757 8.002661,9.8132149 8.025085,9.8048077 8.115448,9.8511677 c 0.098607,0.05059 0.2865841,0.1824423 0.3066244,0.2150763 0.012063,0.01964 0.00418,0.04804 -0.032527,0.117187 -0.089859,0.169264 -0.095317,0.372552 -0.013739,0.511754 0.057032,0.09732 0.2158106,0.237487 0.4858796,0.428933 0.3586613,0.254247 0.4922997,0.402151 0.557593,0.617114 0.06841,0.225226 0.00853,0.463514 -0.1621718,0.645356 -0.088772,0.09457 -0.2047608,0.177167 -0.2487773,0.177167 -0.014881,0 -0.04163,-0.01853 -0.059441,-0.04117 z"
         id="path3055"
         inkscape:connector-curvature="0"
         transform="translate(34.28125,569.375)" />
      <path
         style="fill:#ffffff;fill-opacity:1;stroke:#000000;stroke-width:0.0078125;stroke-miterlimit:10;stroke-opacity:1;stroke-dasharray:none"
         d="m 8.7215665,10.87665 c -0.056701,-0.05918 -0.068035,-0.132615 -0.069551,-0.450614 l -0.00114,-0.239281 0.06339,0.03563 c 0.034864,0.0196 0.071418,0.0453 0.081229,0.05712 0.039099,0.04711 0.027735,0.625363 -0.012552,0.638701 -0.009,0.003 -0.036623,-0.01572 -0.061376,-0.04156 z"
         id="path3057"
         inkscape:connector-curvature="0"
         transform="translate(34.28125,569.375)" />
      <path
         style="fill:#ffffff;fill-opacity:1;stroke:#000000;stroke-width:0.0078125;stroke-miterlimit:10;stroke-opacity:1;stroke-dasharray:none"
         d=""
         id="path3059"
         inkscape:connector-curvature="0"
         transform="translate(34.28125,569.375)" />
      <path
         style="fill:#ffffff;fill-opacity:1;stroke:#000000;stroke-width:0.0078125;stroke-miterlimit:10;stroke-opacity:1;stroke-dasharray:none"
         d="m 9.0473691,13.614536 c 0.028266,-0.09692 0.044056,-0.239171 0.037642,-0.339117 -0.00621,-0.09683 -0.016364,-0.131116 -0.060643,-0.204858 C 8.9537439,12.952945 8.850942,12.865272 8.6770288,12.774339 8.3748941,12.616365 8.1384766,12.41146 8.0502284,12.231088 c -0.079094,-0.161664 -0.081166,-0.441563 -0.00429,-0.579232 0.030574,-0.05475 0.043349,-0.06436 0.083319,-0.06267 0.025965,0.0011 0.1011409,0.03274 0.167058,0.07031 l 0.1198492,0.06832 1.66e-4,0.186473 c 1.375e-4,0.153799 0.0056,0.197692 0.031162,0.250502 0.047677,0.09849 0.1679177,0.223567 0.4042755,0.420543 0.2331927,0.194338 0.3066238,0.273592 0.3733315,0.402935 0.05546,0.107535 0.058003,0.258327 0.00654,0.387985 -0.050682,0.127697 -0.2133835,0.33808 -0.1842773,0.238281 l 0,0 z"
         id="path3065"
         inkscape:connector-curvature="0"
         transform="translate(34.28125,569.375)" />
      <path
         style="fill:#ffffff;fill-opacity:1;stroke:#000000;stroke-width:0.0078125;stroke-miterlimit:10;stroke-opacity:1;stroke-dasharray:none"
         d="m 8.6850057,12.321649 c -0.04476,-0.09824 -0.041256,-0.437519 0.00434,-0.420023 0.032742,0.01256 0.052087,0.08002 0.062913,0.219391 0.015596,0.200774 -0.019491,0.305452 -0.06725,0.200632 z"
         id="path3067"
         inkscape:connector-curvature="0"
         transform="translate(34.28125,569.375)" />
      <path
         style="fill:#ffffff;fill-opacity:1;stroke:#000000;stroke-width:0.0078125;stroke-miterlimit:10;stroke-opacity:1;stroke-dasharray:none"
         d="m 8.2200376,13.516751 c -0.054093,-0.09152 -0.085133,-0.203963 -0.095157,-0.344715 -0.011792,-0.165587 0.00674,-0.227879 0.090262,-0.303332 0.065725,-0.05938 0.090765,-0.06147 0.1662013,-0.0139 0.048453,0.03056 0.044483,0.05617 -0.024657,0.159027 -0.084976,0.126422 -0.085921,0.129928 -0.095547,0.354611 l -0.0087,0.203125 -0.0324,-0.05482 z"
         id="path3069"
         inkscape:connector-curvature="0"
         transform="translate(34.28125,569.375)" />
      <path
         style="fill:#ffffff;fill-opacity:1;stroke:#000000;stroke-width:0.0078125;stroke-miterlimit:10;stroke-opacity:1;stroke-dasharray:none"
         d="m 8.4718979,13.625254 c -0.077981,-0.173386 -0.070077,-0.428463 0.015478,-0.499467 0.018159,-0.01507 0.025338,-0.01071 0.03824,0.02322 0.01744,0.04587 0.019156,0.477811 0.00214,0.538743 -0.00948,0.03393 -0.015537,0.02715 -0.055858,-0.0625 z"
         id="path3071"
         inkscape:connector-curvature="0"
         transform="translate(34.28125,569.375)" />
      <path
         style="fill:#ffffff;fill-opacity:1;stroke:#000000;stroke-width:0.0078125;stroke-miterlimit:10;stroke-opacity:1;stroke-dasharray:none"
         d="m 8.8447877,13.682928 c -0.016305,-0.04249 0.00166,-0.445992 0.020701,-0.465037 0.050611,-0.05061 0.096933,0.181314 0.067748,0.339193 -0.018942,0.10247 -0.069704,0.174692 -0.088449,0.125844 z"
         id="path3073"
         inkscape:connector-curvature="0"
         transform="translate(34.28125,569.375)" />
    </g>
  </g>
</svg>
