<?xml version="1.0" encoding="UTF-8" standalone="no"?>
<!-- Created with Inkscape (http://www.inkscape.org/) -->

<svg
   xmlns:dc="http://purl.org/dc/elements/1.1/"
   xmlns:cc="http://creativecommons.org/ns#"
   xmlns:rdf="http://www.w3.org/1999/02/22-rdf-syntax-ns#"
   xmlns:svg="http://www.w3.org/2000/svg"
   xmlns="http://www.w3.org/2000/svg"
   xmlns:sodipodi="http://sodipodi.sourceforge.net/DTD/sodipodi-0.dtd"
   xmlns:inkscape="http://www.inkscape.org/namespaces/inkscape"
   width="17.611818"
   height="17.781252"
   id="svg3339"
   version="1.1"
   inkscape:version="0.48.3.1 r9886"
   sodipodi:docname="POI_City.svg"
   inkscape:export-filename="/home/gabi/SEP/JoglEarth/Spezifikation/res/iconsPoi/POI_Post.png"
   inkscape:export-xdpi="2556"
   inkscape:export-ydpi="2556">
  <defs
     id="defs3341" />
  <sodipodi:namedview
     id="base"
     pagecolor="#ffffff"
     bordercolor="#666666"
     borderopacity="1.0"
     inkscape:pageopacity="0"
     inkscape:pageshadow="2"
     inkscape:zoom="19.883939"
     inkscape:cx="7.1273612"
     inkscape:cy="8.3970485"
     inkscape:document-units="px"
     inkscape:current-layer="g5202"
     showgrid="false"
     fit-margin-top="0"
     fit-margin-left="0"
     fit-margin-right="0"
     fit-margin-bottom="0"
     inkscape:window-width="1024"
     inkscape:window-height="552"
     inkscape:window-x="0"
     inkscape:window-y="26"
     inkscape:window-maximized="1" />
  <metadata
     id="metadata3344">
    <rdf:RDF>
      <cc:Work
         rdf:about="">
        <dc:format>image/svg+xml</dc:format>
        <dc:type
           rdf:resource="http://purl.org/dc/dcmitype/StillImage" />
        <dc:title />
      </cc:Work>
    </rdf:RDF>
  </metadata>
  <g
     inkscape:label="Ebene 1"
     inkscape:groupmode="layer"
     id="layer1"
     transform="translate(-341.24097,-523.42468)">
    <g
       id="g5202"
       transform="translate(306.95972,-45.950317)">
      <path
         sodipodi:type="arc"
         style="stroke-width:1.20000005000000010;stroke-miterlimit:10;stroke-dasharray:none;stroke-dashoffset:0;fill:none;stroke:#000000;stroke-opacity:1"
         id="path2987"
         sodipodi:cx="9.6534653"
         sodipodi:cy="9.3654099"
         sodipodi:rx="6.3118811"
         sodipodi:ry="6.5594058"
         d="m 15.965346,9.3654099 c 0,3.6226601 -2.825925,6.5594061 -6.3118807,6.5594061 -3.4859557,0 -6.3118811,-2.936746 -6.3118811,-6.5594061 0,-3.6226598 2.8259254,-6.5594059 6.3118811,-6.5594059 3.4859557,0 6.3118807,2.9367461 6.3118807,6.5594059 z"
         transform="matrix(1.1568627,0,0,1.0943396,31.900648,567.87267)" />
      <path
         style="fill:#ffffff;stroke:none"
         d="M 8.1633732,15.188009 C 5.183883,14.906157 2.7519627,12.656413 2.268872,9.735068 c -0.07566,-0.4575331 -0.07566,-1.5115506 0,-1.9690837 C 2.5129996,6.2896963 3.3110404,4.8586063 4.4166307,3.9145068 5.3224191,3.1410246 6.31746,2.6504476 7.4726816,2.4078065 c 0.6722501,-0.1411985 1.805,-0.1531966 2.5011981,-0.026493 2.6879423,0.4891894 4.8376433,2.6167543 5.3092553,5.2545841 0.149671,0.837144 0.09845,1.9463443 -0.128119,2.7742591 -0.568375,2.076951 -2.166873,3.757049 -4.231969,4.448002 -0.8667,0.289986 -1.8891722,0.412197 -2.7596738,0.32985 l 0,0 z"
         id="path2991"
         inkscape:connector-curvature="0"
         transform="translate(34.28125,569.375)" />
      <path
         sodipodi:type="arc"
         style="fill:none;stroke:#000000;stroke-opacity:1"
         id="path2995"
         sodipodi:cx="9.5805969"
         sodipodi:cy="9.0556164"
         sodipodi:rx="3.7467425"
         sodipodi:ry="4.7525797"
         d="m 13.327339,9.0556164 a 3.7467425,4.7525797 0 1 1 -7.4934846,0 3.7467425,4.7525797 0 1 1 7.4934846,0 z"
         transform="matrix(1.3825503,0,0,1.031746,29.836667,568.73549)" />
    </g>
  </g>
</svg>
