<?xml version="1.0" encoding="UTF-8" standalone="no"?>
<!-- Created with Inkscape (http://www.inkscape.org/) -->

<svg
   xmlns:dc="http://purl.org/dc/elements/1.1/"
   xmlns:cc="http://creativecommons.org/ns#"
   xmlns:rdf="http://www.w3.org/1999/02/22-rdf-syntax-ns#"
   xmlns:svg="http://www.w3.org/2000/svg"
   xmlns="http://www.w3.org/2000/svg"
   xmlns:sodipodi="http://sodipodi.sourceforge.net/DTD/sodipodi-0.dtd"
   xmlns:inkscape="http://www.inkscape.org/namespaces/inkscape"
   width="17.611818"
   height="17.781252"
   id="svg3339"
   version="1.1"
   inkscape:version="0.48.4 r9939"
   sodipodi:docname="POI_Restaurant.svg">
  <defs
     id="defs3341" />
  <sodipodi:namedview
     id="base"
     pagecolor="#ffffff"
     bordercolor="#666666"
     borderopacity="1.0"
     inkscape:pageopacity="0.0"
     inkscape:pageshadow="2"
     inkscape:zoom="39.767878"
     inkscape:cx="8.7273463"
     inkscape:cy="7.4692726"
     inkscape:document-units="px"
     inkscape:current-layer="g5202"
     showgrid="false"
     fit-margin-top="0"
     fit-margin-left="0"
     fit-margin-right="0"
     fit-margin-bottom="0"
     inkscape:window-width="1920"
     inkscape:window-height="1148"
     inkscape:window-x="0"
     inkscape:window-y="30"
     inkscape:window-maximized="1" />
  <metadata
     id="metadata3344">
    <rdf:RDF>
      <cc:Work
         rdf:about="">
        <dc:format>image/svg+xml</dc:format>
        <dc:type
           rdf:resource="http://purl.org/dc/dcmitype/StillImage" />
        <dc:title></dc:title>
      </cc:Work>
    </rdf:RDF>
  </metadata>
  <g
     inkscape:label="Ebene 1"
     inkscape:groupmode="layer"
     id="layer1"
     transform="translate(-341.24097,-523.42468)">
    <g
       id="g5202"
       transform="translate(306.95972,-45.950317)">
      <path
         sodipodi:type="arc"
         style="stroke-width:1.20000005000000010;stroke-miterlimit:10;stroke-dasharray:none;stroke-dashoffset:0;fill:none;stroke:#000000;stroke-opacity:1"
         id="path2987"
         sodipodi:cx="9.6534653"
         sodipodi:cy="9.3654099"
         sodipodi:rx="6.3118811"
         sodipodi:ry="6.5594058"
         d="m 15.965346,9.3654099 a 6.3118811,6.5594058 0 1 1 -12.6237618,0 6.3118811,6.5594058 0 1 1 12.6237618,0 z"
         transform="matrix(1.1568627,0,0,1.0943396,31.900648,567.87267)" />
      <g
         style="fill-rule:evenodd"
         transform="matrix(0.03036131,0,0,0.03126088,36.187296,570.33445)"
         id="g3856">
        <path
           inkscape:connector-curvature="0"
           d="m 342.19,335.38 c 13.553,0 24.553,10.999 24.553,24.552 0,13.553 -11,24.552 -24.553,24.552 -13.553,0 -24.552,-10.999 -24.552,-24.552 0,-13.553 11,-24.552 24.552,-24.552"
           id="path101" />
        <path
           style="fill:#ffffff"
           inkscape:connector-curvature="0"
           d="m 342.19,345.93 c 7.73,0 14.004,6.273 14.004,14.004 0,7.731 -6.273,14.004 -14.004,14.004 -7.729,0 -14.004,-6.273 -14.004,-14.004 0,-7.731 6.275,-14.004 14.004,-14.004"
           id="path103" />
        <path
           inkscape:connector-curvature="0"
           d="m 124.51,335.38 c 13.553,0 24.553,10.999 24.553,24.552 0,13.553 -11,24.552 -24.553,24.552 -13.553,0 -24.552,-10.999 -24.552,-24.552 0,-13.553 10.999,-24.552 24.552,-24.552"
           id="path105" />
        <path
           style="fill:#ffffff"
           inkscape:connector-curvature="0"
           d="m 124.51,345.93 c 7.73,0 14.004,6.273 14.004,14.004 0,7.731 -6.273,14.004 -14.004,14.004 -7.731,0 -14.004,-6.273 -14.004,-14.004 0,-7.731 6.273,-14.004 14.004,-14.004"
           id="path107" />
        <path
           inkscape:connector-curvature="0"
           d="m 73.666,351.1 41.292,-27.036 233.6,0.108 -34.704,-27.828 -229.14,0.252 -1.512,-131.58 277.78,-39.96 1.656,10.152 -18.899,5.508 -16.488,155.88 33.66,27.468 v 10.296 l -246.92,0.469 -34.309,24.659 -6.011,-8.388 z"
           id="path109" />
        <path
           style="fill:#ffffff"
           inkscape:connector-curvature="0"
           d="m 333.51,139.35 -239.5,35.02 1.004,109.95 222.7,-1.05 15.8,-143.92 z"
           id="path111" />
        <path
           inkscape:connector-curvature="0"
           d="m 121.83,165.45 h 7.884 V 289.11 H 121.83 V 165.45 z"
           id="path113" />
        <path
           inkscape:connector-curvature="0"
           d="m 176.44,156.52 h 7.885 V 289.11 H 176.44 V 156.52 z"
           id="path115" />
        <path
           inkscape:connector-curvature="0"
           d="m 229.33,148.96 h 7.92 v 140.15 h -7.92 V 148.96 z"
           id="path117" />
        <path
           inkscape:connector-curvature="0"
           d="m 285.67,144.13 h 7.92 V 289.1 h -7.92 V 144.13 z"
           id="path119" />
        <path
           inkscape:connector-curvature="0"
           d="M 326.89,245.33 H 90.41 v 7.884 h 236.48 v -7.884 z"
           id="path121" />
        <path
           inkscape:connector-curvature="0"
           d="M 330.35,199.65 H 90.41 v 7.884 h 239.94 v -7.884 z"
           id="path123" />
        <path
           inkscape:connector-curvature="0"
           d="m 368.11,113.33 c 8.148,0 14.761,6.612 14.761,14.76 0,8.148 -6.612,14.76 -14.761,14.76 -8.147,0 -14.76,-6.612 -14.76,-14.76 0,-8.148 6.613,-14.76 14.76,-14.76"
           id="path125" />
      </g>
    </g>
  </g>
</svg>
